ISO-10303-21;
HEADER;
/* Generated by software containing ST-Developer
 * from STEP Tools, Inc. (www.steptools.com) 
 */
/* OPTION: using custom renumber hook */

FILE_DESCRIPTION(
/* description */ ('STEP AP214',
'CAx-IF Rec.Pracs.---User Defined Attributes---1.5---2016-08-15'),
/* implementation_level */ '2;1');

FILE_NAME(
/* name */ '6a95d9dad62aea1f597608a8',
/* time_stamp */ '2026-08-31T19:45:31Z',
/* author */ (''),
/* organization */ (''),
/* preprocessor_version */ 'ST-DEVELOPER v20',
/* originating_system */ 'ONSHAPE BY PTC INC, 1.220',
/* authorisation */ '  ');

FILE_SCHEMA (('AUTOMOTIVE_DESIGN {1 0 10303 214 3 1 1}'));
ENDSEC;

DATA;
#10=PROPERTY_DEFINITION_REPRESENTATION(#14,#12);
#11=PROPERTY_DEFINITION_REPRESENTATION(#15,#13);
#12=REPRESENTATION('',(#16),#1981);
#13=REPRESENTATION('',(#17),#1981);
#14=PROPERTY_DEFINITION('pmi validation property','',#1986);
#15=PROPERTY_DEFINITION('pmi validation property','',#1986);
#16=VALUE_REPRESENTATION_ITEM('number of annotations',COUNT_MEASURE(0.));
#17=VALUE_REPRESENTATION_ITEM('number of views',COUNT_MEASURE(0.));
#18=SHAPE_REPRESENTATION_RELATIONSHIP('','',#1256,#19);
#19=ADVANCED_BREP_SHAPE_REPRESENTATION('',(#1254),#1981);
#20=CYLINDRICAL_SURFACE('',#1309,0.0031);
#21=CYLINDRICAL_SURFACE('',#1310,0.0031);
#22=CYLINDRICAL_SURFACE('',#1311,0.0031);
#23=CYLINDRICAL_SURFACE('',#1312,0.0031);
#24=CYLINDRICAL_SURFACE('',#1313,0.0031);
#25=CYLINDRICAL_SURFACE('',#1314,0.0031);
#26=CYLINDRICAL_SURFACE('',#1315,0.0031);
#27=CYLINDRICAL_SURFACE('',#1316,0.0031);
#28=CYLINDRICAL_SURFACE('',#1318,0.0028);
#29=CYLINDRICAL_SURFACE('',#1334,0.0028);
#30=LINE('',#1647,#176);
#31=LINE('',#1650,#177);
#32=LINE('',#1652,#178);
#33=LINE('',#1654,#179);
#34=LINE('',#1656,#180);
#35=LINE('',#1659,#181);
#36=LINE('',#1660,#182);
#37=LINE('',#1662,#183);
#38=LINE('',#1664,#184);
#39=LINE('',#1666,#185);
#40=LINE('',#1668,#186);
#41=LINE('',#1670,#187);
#42=LINE('',#1674,#188);
#43=LINE('',#1676,#189);
#44=LINE('',#1678,#190);
#45=LINE('',#1680,#191);
#46=LINE('',#1682,#192);
#47=LINE('',#1684,#193);
#48=LINE('',#1686,#194);
#49=LINE('',#1687,#195);
#50=LINE('',#1689,#196);
#51=LINE('',#1691,#197);
#52=LINE('',#1695,#198);
#53=LINE('',#1697,#199);
#54=LINE('',#1699,#200);
#55=LINE('',#1701,#201);
#56=LINE('',#1704,#202);
#57=LINE('',#1706,#203);
#58=LINE('',#1708,#204);
#59=LINE('',#1710,#205);
#60=LINE('',#1712,#206);
#61=LINE('',#1714,#207);
#62=LINE('',#1716,#208);
#63=LINE('',#1718,#209);
#64=LINE('',#1720,#210);
#65=LINE('',#1722,#211);
#66=LINE('',#1725,#212);
#67=LINE('',#1727,#213);
#68=LINE('',#1729,#214);
#69=LINE('',#1731,#215);
#70=LINE('',#1734,#216);
#71=LINE('',#1736,#217);
#72=LINE('',#1738,#218);
#73=LINE('',#1740,#219);
#74=LINE('',#1742,#220);
#75=LINE('',#1744,#221);
#76=LINE('',#1746,#222);
#77=LINE('',#1748,#223);
#78=LINE('',#1750,#224);
#79=LINE('',#1752,#225);
#80=LINE('',#1753,#226);
#81=LINE('',#1755,#227);
#82=LINE('',#1757,#228);
#83=LINE('',#1759,#229);
#84=LINE('',#1761,#230);
#85=LINE('',#1763,#231);
#86=LINE('',#1765,#232);
#87=LINE('',#1767,#233);
#88=LINE('',#1769,#234);
#89=LINE('',#1771,#235);
#90=LINE('',#1773,#236);
#91=LINE('',#1775,#237);
#92=LINE('',#1777,#238);
#93=LINE('',#1779,#239);
#94=LINE('',#1781,#240);
#95=LINE('',#1783,#241);
#96=LINE('',#1785,#242);
#97=LINE('',#1786,#243);
#98=LINE('',#1788,#244);
#99=LINE('',#1790,#245);
#100=LINE('',#1792,#246);
#101=LINE('',#1794,#247);
#102=LINE('',#1796,#248);
#103=LINE('',#1798,#249);
#104=LINE('',#1800,#250);
#105=LINE('',#1801,#251);
#106=LINE('',#1802,#252);
#107=LINE('',#1804,#253);
#108=LINE('',#1806,#254);
#109=LINE('',#1807,#255);
#110=LINE('',#1809,#256);
#111=LINE('',#1812,#257);
#112=LINE('',#1814,#258);
#113=LINE('',#1816,#259);
#114=LINE('',#1817,#260);
#115=LINE('',#1825,#261);
#116=LINE('',#1827,#262);
#117=LINE('',#1829,#263);
#118=LINE('',#1831,#264);
#119=LINE('',#1833,#265);
#120=LINE('',#1836,#266);
#121=LINE('',#1838,#267);
#122=LINE('',#1840,#268);
#123=LINE('',#1842,#269);
#124=LINE('',#1844,#270);
#125=LINE('',#1849,#271);
#126=LINE('',#1850,#272);
#127=LINE('',#1851,#273);
#128=LINE('',#1853,#274);
#129=LINE('',#1855,#275);
#130=LINE('',#1857,#276);
#131=LINE('',#1865,#277);
#132=LINE('',#1866,#278);
#133=LINE('',#1868,#279);
#134=LINE('',#1870,#280);
#135=LINE('',#1871,#281);
#136=LINE('',#1873,#282);
#137=LINE('',#1875,#283);
#138=LINE('',#1876,#284);
#139=LINE('',#1878,#285);
#140=LINE('',#1886,#286);
#141=LINE('',#1887,#287);
#142=LINE('',#1888,#288);
#143=LINE('',#1889,#289);
#144=LINE('',#1891,#290);
#145=LINE('',#1893,#291);
#146=LINE('',#1895,#292);
#147=LINE('',#1896,#293);
#148=LINE('',#1904,#294);
#149=LINE('',#1906,#295);
#150=LINE('',#1907,#296);
#151=LINE('',#1908,#297);
#152=LINE('',#1915,#298);
#153=LINE('',#1917,#299);
#154=LINE('',#1928,#300);
#155=LINE('',#1930,#301);
#156=LINE('',#1931,#302);
#157=LINE('',#1936,#303);
#158=LINE('',#1939,#304);
#159=LINE('',#1941,#305);
#160=LINE('',#1943,#306);
#161=LINE('',#1945,#307);
#162=LINE('',#1947,#308);
#163=LINE('',#1949,#309);
#164=LINE('',#1950,#310);
#165=LINE('',#1952,#311);
#166=LINE('',#1954,#312);
#167=LINE('',#1956,#313);
#168=LINE('',#1958,#314);
#169=LINE('',#1961,#315);
#170=LINE('',#1962,#316);
#171=LINE('',#1966,#317);
#172=LINE('',#1968,#318);
#173=LINE('',#1972,#319);
#174=LINE('',#1973,#320);
#175=LINE('',#1975,#321);
#176=VECTOR('',#1343,1.);
#177=VECTOR('',#1344,1.);
#178=VECTOR('',#1345,1.);
#179=VECTOR('',#1346,1.);
#180=VECTOR('',#1349,1.);
#181=VECTOR('',#1350,1.);
#182=VECTOR('',#1351,1.);
#183=VECTOR('',#1352,1.);
#184=VECTOR('',#1353,1.);
#185=VECTOR('',#1354,1.);
#186=VECTOR('',#1355,1.);
#187=VECTOR('',#1356,1.);
#188=VECTOR('',#1361,1.);
#189=VECTOR('',#1362,1.);
#190=VECTOR('',#1363,1.);
#191=VECTOR('',#1364,1.);
#192=VECTOR('',#1365,1.);
#193=VECTOR('',#1368,1.);
#194=VECTOR('',#1369,1.);
#195=VECTOR('',#1370,1.);
#196=VECTOR('',#1371,1.);
#197=VECTOR('',#1372,1.);
#198=VECTOR('',#1377,1.);
#199=VECTOR('',#1378,1.);
#200=VECTOR('',#1379,1.);
#201=VECTOR('',#1382,1.);
#202=VECTOR('',#1383,1.);
#203=VECTOR('',#1384,1.);
#204=VECTOR('',#1385,1.);
#205=VECTOR('',#1386,1.);
#206=VECTOR('',#1387,1.);
#207=VECTOR('',#1390,1.);
#208=VECTOR('',#1391,1.);
#209=VECTOR('',#1392,1.);
#210=VECTOR('',#1393,1.);
#211=VECTOR('',#1396,1.);
#212=VECTOR('',#1397,1.);
#213=VECTOR('',#1398,1.);
#214=VECTOR('',#1399,1.);
#215=VECTOR('',#1402,1.);
#216=VECTOR('',#1403,1.);
#217=VECTOR('',#1404,1.);
#218=VECTOR('',#1405,1.);
#219=VECTOR('',#1406,1.);
#220=VECTOR('',#1407,1.);
#221=VECTOR('',#1408,1.);
#222=VECTOR('',#1409,1.);
#223=VECTOR('',#1412,1.);
#224=VECTOR('',#1413,1.);
#225=VECTOR('',#1414,1.);
#226=VECTOR('',#1415,1.);
#227=VECTOR('',#1416,1.);
#228=VECTOR('',#1417,1.);
#229=VECTOR('',#1420,1.);
#230=VECTOR('',#1421,1.);
#231=VECTOR('',#1422,1.);
#232=VECTOR('',#1425,1.);
#233=VECTOR('',#1426,1.);
#234=VECTOR('',#1427,1.);
#235=VECTOR('',#1428,1.);
#236=VECTOR('',#1429,1.);
#237=VECTOR('',#1430,1.);
#238=VECTOR('',#1431,1.);
#239=VECTOR('',#1432,1.);
#240=VECTOR('',#1435,1.);
#241=VECTOR('',#1436,1.);
#242=VECTOR('',#1437,1.);
#243=VECTOR('',#1438,1.);
#244=VECTOR('',#1439,1.);
#245=VECTOR('',#1442,1.);
#246=VECTOR('',#1443,1.);
#247=VECTOR('',#1444,1.);
#248=VECTOR('',#1447,1.);
#249=VECTOR('',#1448,1.);
#250=VECTOR('',#1449,1.);
#251=VECTOR('',#1450,1.);
#252=VECTOR('',#1451,1.);
#253=VECTOR('',#1454,1.);
#254=VECTOR('',#1455,1.);
#255=VECTOR('',#1456,1.);
#256=VECTOR('',#1459,1.);
#257=VECTOR('',#1460,1.);
#258=VECTOR('',#1461,1.);
#259=VECTOR('',#1462,1.);
#260=VECTOR('',#1463,1.);
#261=VECTOR('',#1472,1.);
#262=VECTOR('',#1473,1.);
#263=VECTOR('',#1474,1.);
#264=VECTOR('',#1475,1.);
#265=VECTOR('',#1478,1.);
#266=VECTOR('',#1479,1.);
#267=VECTOR('',#1480,1.);
#268=VECTOR('',#1481,1.);
#269=VECTOR('',#1482,1.);
#270=VECTOR('',#1483,1.);
#271=VECTOR('',#1488,1.);
#272=VECTOR('',#1489,1.);
#273=VECTOR('',#1490,1.);
#274=VECTOR('',#1491,1.);
#275=VECTOR('',#1492,1.);
#276=VECTOR('',#1493,1.);
#277=VECTOR('',#1502,1.);
#278=VECTOR('',#1503,1.);
#279=VECTOR('',#1504,1.);
#280=VECTOR('',#1505,1.);
#281=VECTOR('',#1506,1.);
#282=VECTOR('',#1507,1.);
#283=VECTOR('',#1510,1.);
#284=VECTOR('',#1511,1.);
#285=VECTOR('',#1514,1.);
#286=VECTOR('',#1523,1.);
#287=VECTOR('',#1524,1.);
#288=VECTOR('',#1525,1.);
#289=VECTOR('',#1526,1.);
#290=VECTOR('',#1529,1.);
#291=VECTOR('',#1530,1.);
#292=VECTOR('',#1531,1.);
#293=VECTOR('',#1532,1.);
#294=VECTOR('',#1541,1.);
#295=VECTOR('',#1544,1.);
#296=VECTOR('',#1545,1.);
#297=VECTOR('',#1546,1.);
#298=VECTOR('',#1559,1.);
#299=VECTOR('',#1562,1.);
#300=VECTOR('',#1583,1.);
#301=VECTOR('',#1584,1.);
#302=VECTOR('',#1585,1.);
#303=VECTOR('',#1592,1.);
#304=VECTOR('',#1593,1.);
#305=VECTOR('',#1594,1.);
#306=VECTOR('',#1595,1.);
#307=VECTOR('',#1596,1.);
#308=VECTOR('',#1597,1.);
#309=VECTOR('',#1600,1.);
#310=VECTOR('',#1601,1.);
#311=VECTOR('',#1604,1.);
#312=VECTOR('',#1607,1.);
#313=VECTOR('',#1610,1.);
#314=VECTOR('',#1613,1.);
#315=VECTOR('',#1618,1.);
#316=VECTOR('',#1619,1.);
#317=VECTOR('',#1624,1.);
#318=VECTOR('',#1625,1.);
#319=VECTOR('',#1630,1.);
#320=VECTOR('',#1631,1.);
#321=VECTOR('',#1634,1.);
#322=ORIENTED_EDGE('',*,*,#654,.F.);
#323=ORIENTED_EDGE('',*,*,#655,.F.);
#324=ORIENTED_EDGE('',*,*,#656,.F.);
#325=ORIENTED_EDGE('',*,*,#657,.F.);
#326=ORIENTED_EDGE('',*,*,#658,.F.);
#327=ORIENTED_EDGE('',*,*,#659,.F.);
#328=ORIENTED_EDGE('',*,*,#660,.T.);
#329=ORIENTED_EDGE('',*,*,#661,.F.);
#330=ORIENTED_EDGE('',*,*,#662,.T.);
#331=ORIENTED_EDGE('',*,*,#663,.F.);
#332=ORIENTED_EDGE('',*,*,#664,.F.);
#333=ORIENTED_EDGE('',*,*,#665,.T.);
#334=ORIENTED_EDGE('',*,*,#666,.F.);
#335=ORIENTED_EDGE('',*,*,#667,.F.);
#336=ORIENTED_EDGE('',*,*,#666,.T.);
#337=ORIENTED_EDGE('',*,*,#668,.T.);
#338=ORIENTED_EDGE('',*,*,#669,.F.);
#339=ORIENTED_EDGE('',*,*,#670,.T.);
#340=ORIENTED_EDGE('',*,*,#671,.T.);
#341=ORIENTED_EDGE('',*,*,#672,.T.);
#342=ORIENTED_EDGE('',*,*,#673,.F.);
#343=ORIENTED_EDGE('',*,*,#671,.F.);
#344=ORIENTED_EDGE('',*,*,#674,.F.);
#345=ORIENTED_EDGE('',*,*,#655,.T.);
#346=ORIENTED_EDGE('',*,*,#675,.F.);
#347=ORIENTED_EDGE('',*,*,#676,.F.);
#348=ORIENTED_EDGE('',*,*,#677,.T.);
#349=ORIENTED_EDGE('',*,*,#678,.F.);
#350=ORIENTED_EDGE('',*,*,#660,.F.);
#351=ORIENTED_EDGE('',*,*,#679,.T.);
#352=ORIENTED_EDGE('',*,*,#680,.F.);
#353=ORIENTED_EDGE('',*,*,#681,.T.);
#354=ORIENTED_EDGE('',*,*,#682,.T.);
#355=ORIENTED_EDGE('',*,*,#683,.T.);
#356=ORIENTED_EDGE('',*,*,#684,.F.);
#357=ORIENTED_EDGE('',*,*,#685,.F.);
#358=ORIENTED_EDGE('',*,*,#686,.T.);
#359=ORIENTED_EDGE('',*,*,#687,.T.);
#360=ORIENTED_EDGE('',*,*,#688,.T.);
#361=ORIENTED_EDGE('',*,*,#689,.T.);
#362=ORIENTED_EDGE('',*,*,#690,.F.);
#363=ORIENTED_EDGE('',*,*,#691,.T.);
#364=ORIENTED_EDGE('',*,*,#692,.F.);
#365=ORIENTED_EDGE('',*,*,#693,.T.);
#366=ORIENTED_EDGE('',*,*,#694,.T.);
#367=ORIENTED_EDGE('',*,*,#695,.F.);
#368=ORIENTED_EDGE('',*,*,#696,.T.);
#369=ORIENTED_EDGE('',*,*,#697,.T.);
#370=ORIENTED_EDGE('',*,*,#698,.F.);
#371=ORIENTED_EDGE('',*,*,#699,.F.);
#372=ORIENTED_EDGE('',*,*,#700,.T.);
#373=ORIENTED_EDGE('',*,*,#701,.T.);
#374=ORIENTED_EDGE('',*,*,#702,.F.);
#375=ORIENTED_EDGE('',*,*,#703,.T.);
#376=ORIENTED_EDGE('',*,*,#704,.F.);
#377=ORIENTED_EDGE('',*,*,#705,.F.);
#378=ORIENTED_EDGE('',*,*,#706,.F.);
#379=ORIENTED_EDGE('',*,*,#702,.T.);
#380=ORIENTED_EDGE('',*,*,#707,.F.);
#381=ORIENTED_EDGE('',*,*,#708,.F.);
#382=ORIENTED_EDGE('',*,*,#709,.T.);
#383=ORIENTED_EDGE('',*,*,#698,.T.);
#384=ORIENTED_EDGE('',*,*,#710,.F.);
#385=ORIENTED_EDGE('',*,*,#711,.T.);
#386=ORIENTED_EDGE('',*,*,#712,.T.);
#387=ORIENTED_EDGE('',*,*,#693,.F.);
#388=ORIENTED_EDGE('',*,*,#713,.F.);
#389=ORIENTED_EDGE('',*,*,#714,.T.);
#390=ORIENTED_EDGE('',*,*,#715,.F.);
#391=ORIENTED_EDGE('',*,*,#716,.F.);
#392=ORIENTED_EDGE('',*,*,#717,.F.);
#393=ORIENTED_EDGE('',*,*,#718,.F.);
#394=ORIENTED_EDGE('',*,*,#719,.T.);
#395=ORIENTED_EDGE('',*,*,#720,.T.);
#396=ORIENTED_EDGE('',*,*,#721,.F.);
#397=ORIENTED_EDGE('',*,*,#713,.T.);
#398=ORIENTED_EDGE('',*,*,#709,.F.);
#399=ORIENTED_EDGE('',*,*,#722,.F.);
#400=ORIENTED_EDGE('',*,*,#723,.T.);
#401=ORIENTED_EDGE('',*,*,#717,.T.);
#402=ORIENTED_EDGE('',*,*,#724,.T.);
#403=ORIENTED_EDGE('',*,*,#725,.F.);
#404=ORIENTED_EDGE('',*,*,#726,.F.);
#405=ORIENTED_EDGE('',*,*,#688,.F.);
#406=ORIENTED_EDGE('',*,*,#727,.F.);
#407=ORIENTED_EDGE('',*,*,#728,.T.);
#408=ORIENTED_EDGE('',*,*,#729,.F.);
#409=ORIENTED_EDGE('',*,*,#730,.T.);
#410=ORIENTED_EDGE('',*,*,#731,.F.);
#411=ORIENTED_EDGE('',*,*,#686,.F.);
#412=ORIENTED_EDGE('',*,*,#732,.F.);
#413=ORIENTED_EDGE('',*,*,#720,.F.);
#414=ORIENTED_EDGE('',*,*,#733,.T.);
#415=ORIENTED_EDGE('',*,*,#657,.T.);
#416=ORIENTED_EDGE('',*,*,#734,.F.);
#417=ORIENTED_EDGE('',*,*,#729,.T.);
#418=ORIENTED_EDGE('',*,*,#681,.F.);
#419=ORIENTED_EDGE('',*,*,#735,.F.);
#420=ORIENTED_EDGE('',*,*,#699,.T.);
#421=ORIENTED_EDGE('',*,*,#732,.T.);
#422=ORIENTED_EDGE('',*,*,#685,.T.);
#423=ORIENTED_EDGE('',*,*,#736,.F.);
#424=ORIENTED_EDGE('',*,*,#737,.T.);
#425=ORIENTED_EDGE('',*,*,#738,.F.);
#426=ORIENTED_EDGE('',*,*,#739,.F.);
#427=ORIENTED_EDGE('',*,*,#740,.F.);
#428=ORIENTED_EDGE('',*,*,#718,.T.);
#429=ORIENTED_EDGE('',*,*,#723,.F.);
#430=ORIENTED_EDGE('',*,*,#741,.T.);
#431=ORIENTED_EDGE('',*,*,#742,.F.);
#432=ORIENTED_EDGE('',*,*,#743,.F.);
#433=ORIENTED_EDGE('',*,*,#744,.F.);
#434=ORIENTED_EDGE('',*,*,#745,.F.);
#435=ORIENTED_EDGE('',*,*,#746,.F.);
#436=ORIENTED_EDGE('',*,*,#747,.T.);
#437=ORIENTED_EDGE('',*,*,#748,.T.);
#438=ORIENTED_EDGE('',*,*,#749,.F.);
#439=ORIENTED_EDGE('',*,*,#750,.F.);
#440=ORIENTED_EDGE('',*,*,#751,.F.);
#441=ORIENTED_EDGE('',*,*,#752,.F.);
#442=ORIENTED_EDGE('',*,*,#753,.F.);
#443=ORIENTED_EDGE('',*,*,#754,.F.);
#444=ORIENTED_EDGE('',*,*,#755,.F.);
#445=ORIENTED_EDGE('',*,*,#756,.F.);
#446=ORIENTED_EDGE('',*,*,#746,.T.);
#447=ORIENTED_EDGE('',*,*,#757,.F.);
#448=ORIENTED_EDGE('',*,*,#730,.F.);
#449=ORIENTED_EDGE('',*,*,#734,.T.);
#450=ORIENTED_EDGE('',*,*,#758,.T.);
#451=ORIENTED_EDGE('',*,*,#728,.F.);
#452=ORIENTED_EDGE('',*,*,#759,.F.);
#453=ORIENTED_EDGE('',*,*,#760,.T.);
#454=ORIENTED_EDGE('',*,*,#761,.F.);
#455=ORIENTED_EDGE('',*,*,#762,.F.);
#456=ORIENTED_EDGE('',*,*,#763,.F.);
#457=ORIENTED_EDGE('',*,*,#764,.F.);
#458=ORIENTED_EDGE('',*,*,#765,.F.);
#459=ORIENTED_EDGE('',*,*,#711,.F.);
#460=ORIENTED_EDGE('',*,*,#766,.F.);
#461=ORIENTED_EDGE('',*,*,#724,.F.);
#462=ORIENTED_EDGE('',*,*,#716,.T.);
#463=ORIENTED_EDGE('',*,*,#767,.T.);
#464=ORIENTED_EDGE('',*,*,#768,.F.);
#465=ORIENTED_EDGE('',*,*,#769,.F.);
#466=ORIENTED_EDGE('',*,*,#761,.T.);
#467=ORIENTED_EDGE('',*,*,#770,.T.);
#468=ORIENTED_EDGE('',*,*,#771,.F.);
#469=ORIENTED_EDGE('',*,*,#772,.F.);
#470=ORIENTED_EDGE('',*,*,#748,.F.);
#471=ORIENTED_EDGE('',*,*,#773,.T.);
#472=ORIENTED_EDGE('',*,*,#768,.T.);
#473=ORIENTED_EDGE('',*,*,#747,.F.);
#474=ORIENTED_EDGE('',*,*,#762,.T.);
#475=ORIENTED_EDGE('',*,*,#769,.T.);
#476=ORIENTED_EDGE('',*,*,#773,.F.);
#477=ORIENTED_EDGE('',*,*,#719,.F.);
#478=ORIENTED_EDGE('',*,*,#740,.T.);
#479=ORIENTED_EDGE('',*,*,#774,.T.);
#480=ORIENTED_EDGE('',*,*,#658,.T.);
#481=ORIENTED_EDGE('',*,*,#733,.F.);
#482=ORIENTED_EDGE('',*,*,#775,.T.);
#483=ORIENTED_EDGE('',*,*,#776,.T.);
#484=ORIENTED_EDGE('',*,*,#777,.T.);
#485=ORIENTED_EDGE('',*,*,#770,.F.);
#486=ORIENTED_EDGE('',*,*,#760,.F.);
#487=ORIENTED_EDGE('',*,*,#778,.T.);
#488=ORIENTED_EDGE('',*,*,#690,.T.);
#489=ORIENTED_EDGE('',*,*,#779,.F.);
#490=ORIENTED_EDGE('',*,*,#703,.F.);
#491=ORIENTED_EDGE('',*,*,#706,.T.);
#492=ORIENTED_EDGE('',*,*,#780,.T.);
#493=ORIENTED_EDGE('',*,*,#695,.T.);
#494=ORIENTED_EDGE('',*,*,#781,.F.);
#495=ORIENTED_EDGE('',*,*,#782,.T.);
#496=ORIENTED_EDGE('',*,*,#783,.T.);
#497=ORIENTED_EDGE('',*,*,#784,.T.);
#498=ORIENTED_EDGE('',*,*,#737,.F.);
#499=ORIENTED_EDGE('',*,*,#785,.T.);
#500=ORIENTED_EDGE('',*,*,#707,.T.);
#501=ORIENTED_EDGE('',*,*,#701,.F.);
#502=ORIENTED_EDGE('',*,*,#786,.F.);
#503=ORIENTED_EDGE('',*,*,#787,.F.);
#504=ORIENTED_EDGE('',*,*,#788,.F.);
#505=ORIENTED_EDGE('',*,*,#778,.F.);
#506=ORIENTED_EDGE('',*,*,#759,.T.);
#507=ORIENTED_EDGE('',*,*,#727,.T.);
#508=ORIENTED_EDGE('',*,*,#691,.F.);
#509=ORIENTED_EDGE('',*,*,#700,.F.);
#510=ORIENTED_EDGE('',*,*,#735,.T.);
#511=ORIENTED_EDGE('',*,*,#680,.T.);
#512=ORIENTED_EDGE('',*,*,#789,.T.);
#513=ORIENTED_EDGE('',*,*,#782,.F.);
#514=ORIENTED_EDGE('',*,*,#790,.T.);
#515=ORIENTED_EDGE('',*,*,#791,.T.);
#516=ORIENTED_EDGE('',*,*,#682,.F.);
#517=ORIENTED_EDGE('',*,*,#792,.F.);
#518=ORIENTED_EDGE('',*,*,#714,.F.);
#519=ORIENTED_EDGE('',*,*,#721,.T.);
#520=ORIENTED_EDGE('',*,*,#722,.T.);
#521=ORIENTED_EDGE('',*,*,#708,.T.);
#522=ORIENTED_EDGE('',*,*,#785,.F.);
#523=ORIENTED_EDGE('',*,*,#741,.F.);
#524=ORIENTED_EDGE('',*,*,#771,.T.);
#525=ORIENTED_EDGE('',*,*,#781,.T.);
#526=ORIENTED_EDGE('',*,*,#694,.F.);
#527=ORIENTED_EDGE('',*,*,#712,.F.);
#528=ORIENTED_EDGE('',*,*,#736,.T.);
#529=ORIENTED_EDGE('',*,*,#684,.T.);
#530=ORIENTED_EDGE('',*,*,#726,.T.);
#531=ORIENTED_EDGE('',*,*,#758,.F.);
#532=ORIENTED_EDGE('',*,*,#731,.T.);
#533=ORIENTED_EDGE('',*,*,#757,.T.);
#534=ORIENTED_EDGE('',*,*,#745,.T.);
#535=ORIENTED_EDGE('',*,*,#687,.F.);
#536=ORIENTED_EDGE('',*,*,#725,.T.);
#537=ORIENTED_EDGE('',*,*,#766,.T.);
#538=ORIENTED_EDGE('',*,*,#710,.T.);
#539=ORIENTED_EDGE('',*,*,#790,.F.);
#540=ORIENTED_EDGE('',*,*,#715,.T.);
#541=ORIENTED_EDGE('',*,*,#792,.T.);
#542=ORIENTED_EDGE('',*,*,#772,.T.);
#543=ORIENTED_EDGE('',*,*,#767,.F.);
#544=ORIENTED_EDGE('',*,*,#705,.T.);
#545=ORIENTED_EDGE('',*,*,#793,.F.);
#546=ORIENTED_EDGE('',*,*,#692,.T.);
#547=ORIENTED_EDGE('',*,*,#780,.F.);
#548=ORIENTED_EDGE('',*,*,#794,.T.);
#549=ORIENTED_EDGE('',*,*,#683,.F.);
#550=ORIENTED_EDGE('',*,*,#791,.F.);
#551=ORIENTED_EDGE('',*,*,#793,.T.);
#552=ORIENTED_EDGE('',*,*,#704,.T.);
#553=ORIENTED_EDGE('',*,*,#697,.F.);
#554=ORIENTED_EDGE('',*,*,#779,.T.);
#555=ORIENTED_EDGE('',*,*,#689,.F.);
#556=ORIENTED_EDGE('',*,*,#794,.F.);
#557=ORIENTED_EDGE('',*,*,#696,.F.);
#558=ORIENTED_EDGE('',*,*,#756,.T.);
#559=ORIENTED_EDGE('',*,*,#654,.T.);
#560=ORIENTED_EDGE('',*,*,#755,.T.);
#561=ORIENTED_EDGE('',*,*,#678,.T.);
#562=ORIENTED_EDGE('',*,*,#765,.T.);
#563=ORIENTED_EDGE('',*,*,#744,.T.);
#564=ORIENTED_EDGE('',*,*,#764,.T.);
#565=ORIENTED_EDGE('',*,*,#743,.T.);
#566=ORIENTED_EDGE('',*,*,#763,.T.);
#567=ORIENTED_EDGE('',*,*,#742,.T.);
#568=ORIENTED_EDGE('',*,*,#788,.T.);
#569=ORIENTED_EDGE('',*,*,#777,.F.);
#570=ORIENTED_EDGE('',*,*,#787,.T.);
#571=ORIENTED_EDGE('',*,*,#776,.F.);
#572=ORIENTED_EDGE('',*,*,#786,.T.);
#573=ORIENTED_EDGE('',*,*,#775,.F.);
#574=ORIENTED_EDGE('',*,*,#656,.T.);
#575=ORIENTED_EDGE('',*,*,#674,.T.);
#576=ORIENTED_EDGE('',*,*,#670,.F.);
#577=ORIENTED_EDGE('',*,*,#795,.F.);
#578=ORIENTED_EDGE('',*,*,#796,.T.);
#579=ORIENTED_EDGE('',*,*,#676,.T.);
#580=ORIENTED_EDGE('',*,*,#797,.F.);
#581=ORIENTED_EDGE('',*,*,#661,.T.);
#582=ORIENTED_EDGE('',*,*,#667,.T.);
#583=ORIENTED_EDGE('',*,*,#798,.F.);
#584=ORIENTED_EDGE('',*,*,#799,.T.);
#585=ORIENTED_EDGE('',*,*,#800,.T.);
#586=ORIENTED_EDGE('',*,*,#801,.T.);
#587=ORIENTED_EDGE('',*,*,#802,.T.);
#588=ORIENTED_EDGE('',*,*,#803,.T.);
#589=ORIENTED_EDGE('',*,*,#804,.T.);
#590=ORIENTED_EDGE('',*,*,#798,.T.);
#591=ORIENTED_EDGE('',*,*,#750,.T.);
#592=ORIENTED_EDGE('',*,*,#805,.F.);
#593=ORIENTED_EDGE('',*,*,#799,.F.);
#594=ORIENTED_EDGE('',*,*,#806,.T.);
#595=ORIENTED_EDGE('',*,*,#749,.T.);
#596=ORIENTED_EDGE('',*,*,#807,.F.);
#597=ORIENTED_EDGE('',*,*,#800,.F.);
#598=ORIENTED_EDGE('',*,*,#805,.T.);
#599=ORIENTED_EDGE('',*,*,#754,.T.);
#600=ORIENTED_EDGE('',*,*,#808,.F.);
#601=ORIENTED_EDGE('',*,*,#801,.F.);
#602=ORIENTED_EDGE('',*,*,#807,.T.);
#603=ORIENTED_EDGE('',*,*,#753,.T.);
#604=ORIENTED_EDGE('',*,*,#809,.F.);
#605=ORIENTED_EDGE('',*,*,#802,.F.);
#606=ORIENTED_EDGE('',*,*,#808,.T.);
#607=ORIENTED_EDGE('',*,*,#752,.T.);
#608=ORIENTED_EDGE('',*,*,#810,.F.);
#609=ORIENTED_EDGE('',*,*,#803,.F.);
#610=ORIENTED_EDGE('',*,*,#809,.T.);
#611=ORIENTED_EDGE('',*,*,#751,.T.);
#612=ORIENTED_EDGE('',*,*,#806,.F.);
#613=ORIENTED_EDGE('',*,*,#804,.F.);
#614=ORIENTED_EDGE('',*,*,#810,.T.);
#615=ORIENTED_EDGE('',*,*,#672,.F.);
#616=ORIENTED_EDGE('',*,*,#673,.T.);
#617=ORIENTED_EDGE('',*,*,#811,.F.);
#618=ORIENTED_EDGE('',*,*,#663,.T.);
#619=ORIENTED_EDGE('',*,*,#812,.T.);
#620=ORIENTED_EDGE('',*,*,#679,.F.);
#621=ORIENTED_EDGE('',*,*,#659,.T.);
#622=ORIENTED_EDGE('',*,*,#813,.F.);
#623=ORIENTED_EDGE('',*,*,#796,.F.);
#624=ORIENTED_EDGE('',*,*,#814,.T.);
#625=ORIENTED_EDGE('',*,*,#815,.F.);
#626=ORIENTED_EDGE('',*,*,#664,.T.);
#627=ORIENTED_EDGE('',*,*,#811,.T.);
#628=ORIENTED_EDGE('',*,*,#677,.F.);
#629=ORIENTED_EDGE('',*,*,#816,.F.);
#630=ORIENTED_EDGE('',*,*,#784,.F.);
#631=ORIENTED_EDGE('',*,*,#817,.F.);
#632=ORIENTED_EDGE('',*,*,#662,.F.);
#633=ORIENTED_EDGE('',*,*,#797,.T.);
#634=ORIENTED_EDGE('',*,*,#818,.T.);
#635=ORIENTED_EDGE('',*,*,#738,.T.);
#636=ORIENTED_EDGE('',*,*,#814,.F.);
#637=ORIENTED_EDGE('',*,*,#795,.T.);
#638=ORIENTED_EDGE('',*,*,#669,.T.);
#639=ORIENTED_EDGE('',*,*,#819,.F.);
#640=ORIENTED_EDGE('',*,*,#665,.F.);
#641=ORIENTED_EDGE('',*,*,#815,.T.);
#642=ORIENTED_EDGE('',*,*,#819,.T.);
#643=ORIENTED_EDGE('',*,*,#668,.F.);
#644=ORIENTED_EDGE('',*,*,#813,.T.);
#645=ORIENTED_EDGE('',*,*,#816,.T.);
#646=ORIENTED_EDGE('',*,*,#812,.F.);
#647=ORIENTED_EDGE('',*,*,#817,.T.);
#648=ORIENTED_EDGE('',*,*,#783,.F.);
#649=ORIENTED_EDGE('',*,*,#789,.F.);
#650=ORIENTED_EDGE('',*,*,#818,.F.);
#651=ORIENTED_EDGE('',*,*,#675,.T.);
#652=ORIENTED_EDGE('',*,*,#774,.F.);
#653=ORIENTED_EDGE('',*,*,#739,.T.);
#654=EDGE_CURVE('',#820,#820,#931,.T.);
#655=EDGE_CURVE('',#821,#822,#30,.T.);
#656=EDGE_CURVE('',#823,#821,#31,.T.);
#657=EDGE_CURVE('',#824,#823,#32,.T.);
#658=EDGE_CURVE('',#822,#824,#33,.T.);
#659=EDGE_CURVE('',#825,#826,#34,.T.);
#660=EDGE_CURVE('',#825,#823,#35,.T.);
#661=EDGE_CURVE('',#827,#823,#36,.T.);
#662=EDGE_CURVE('',#827,#828,#37,.T.);
#663=EDGE_CURVE('',#829,#828,#38,.T.);
#664=EDGE_CURVE('',#830,#829,#39,.T.);
#665=EDGE_CURVE('',#830,#831,#40,.T.);
#666=EDGE_CURVE('',#826,#831,#41,.T.);
#667=EDGE_CURVE('',#832,#832,#932,.T.);
#668=EDGE_CURVE('',#831,#833,#42,.T.);
#669=EDGE_CURVE('',#834,#833,#43,.T.);
#670=EDGE_CURVE('',#834,#835,#44,.T.);
#671=EDGE_CURVE('',#835,#836,#45,.T.);
#672=EDGE_CURVE('',#836,#826,#46,.T.);
#673=EDGE_CURVE('',#836,#837,#47,.T.);
#674=EDGE_CURVE('',#821,#835,#48,.T.);
#675=EDGE_CURVE('',#838,#822,#49,.T.);
#676=EDGE_CURVE('',#839,#838,#50,.T.);
#677=EDGE_CURVE('',#839,#837,#51,.T.);
#678=EDGE_CURVE('',#840,#840,#933,.T.);
#679=EDGE_CURVE('',#825,#841,#52,.T.);
#680=EDGE_CURVE('',#842,#841,#53,.T.);
#681=EDGE_CURVE('',#842,#823,#54,.T.);
#682=EDGE_CURVE('',#843,#844,#55,.T.);
#683=EDGE_CURVE('',#844,#845,#56,.T.);
#684=EDGE_CURVE('',#846,#845,#57,.T.);
#685=EDGE_CURVE('',#847,#846,#58,.T.);
#686=EDGE_CURVE('',#847,#848,#59,.T.);
#687=EDGE_CURVE('',#848,#843,#60,.T.);
#688=EDGE_CURVE('',#849,#845,#61,.T.);
#689=EDGE_CURVE('',#845,#850,#62,.T.);
#690=EDGE_CURVE('',#851,#850,#63,.T.);
#691=EDGE_CURVE('',#851,#849,#64,.T.);
#692=EDGE_CURVE('',#852,#853,#65,.T.);
#693=EDGE_CURVE('',#852,#854,#66,.T.);
#694=EDGE_CURVE('',#854,#855,#67,.T.);
#695=EDGE_CURVE('',#853,#855,#68,.T.);
#696=EDGE_CURVE('',#856,#857,#69,.T.);
#697=EDGE_CURVE('',#857,#858,#70,.T.);
#698=EDGE_CURVE('',#859,#858,#71,.T.);
#699=EDGE_CURVE('',#860,#859,#72,.T.);
#700=EDGE_CURVE('',#860,#861,#73,.T.);
#701=EDGE_CURVE('',#861,#862,#74,.T.);
#702=EDGE_CURVE('',#863,#862,#75,.T.);
#703=EDGE_CURVE('',#863,#856,#76,.T.);
#704=EDGE_CURVE('',#864,#858,#77,.T.);
#705=EDGE_CURVE('',#865,#864,#78,.T.);
#706=EDGE_CURVE('',#863,#865,#79,.T.);
#707=EDGE_CURVE('',#866,#862,#80,.T.);
#708=EDGE_CURVE('',#867,#866,#81,.T.);
#709=EDGE_CURVE('',#867,#859,#82,.T.);
#710=EDGE_CURVE('',#868,#852,#83,.T.);
#711=EDGE_CURVE('',#868,#869,#84,.T.);
#712=EDGE_CURVE('',#869,#854,#85,.T.);
#713=EDGE_CURVE('',#870,#859,#86,.T.);
#714=EDGE_CURVE('',#870,#871,#87,.T.);
#715=EDGE_CURVE('',#872,#871,#88,.T.);
#716=EDGE_CURVE('',#873,#872,#89,.T.);
#717=EDGE_CURVE('',#874,#873,#90,.T.);
#718=EDGE_CURVE('',#875,#874,#91,.T.);
#719=EDGE_CURVE('',#875,#876,#92,.T.);
#720=EDGE_CURVE('',#876,#859,#93,.T.);
#721=EDGE_CURVE('',#870,#877,#94,.T.);
#722=EDGE_CURVE('',#878,#867,#95,.T.);
#723=EDGE_CURVE('',#878,#874,#96,.T.);
#724=EDGE_CURVE('',#873,#879,#97,.T.);
#725=EDGE_CURVE('',#877,#879,#98,.T.);
#726=EDGE_CURVE('',#845,#880,#99,.T.);
#727=EDGE_CURVE('',#881,#849,#100,.T.);
#728=EDGE_CURVE('',#881,#880,#101,.T.);
#729=EDGE_CURVE('',#882,#823,#102,.T.);
#730=EDGE_CURVE('',#882,#883,#103,.T.);
#731=EDGE_CURVE('',#848,#883,#104,.T.);
#732=EDGE_CURVE('',#859,#847,#105,.T.);
#733=EDGE_CURVE('',#876,#824,#106,.T.);
#734=EDGE_CURVE('',#882,#884,#107,.T.);
#735=EDGE_CURVE('',#860,#842,#108,.T.);
#736=EDGE_CURVE('',#884,#846,#109,.T.);
#737=EDGE_CURVE('',#885,#886,#110,.T.);
#738=EDGE_CURVE('',#887,#886,#111,.T.);
#739=EDGE_CURVE('',#888,#887,#112,.T.);
#740=EDGE_CURVE('',#875,#888,#113,.T.);
#741=EDGE_CURVE('',#878,#885,#114,.T.);
#742=EDGE_CURVE('',#889,#889,#934,.T.);
#743=EDGE_CURVE('',#890,#890,#935,.T.);
#744=EDGE_CURVE('',#891,#891,#936,.T.);
#745=EDGE_CURVE('',#892,#843,#115,.T.);
#746=EDGE_CURVE('',#893,#892,#116,.T.);
#747=EDGE_CURVE('',#893,#894,#117,.T.);
#748=EDGE_CURVE('',#894,#843,#118,.T.);
#749=EDGE_CURVE('',#895,#896,#119,.T.);
#750=EDGE_CURVE('',#897,#895,#120,.T.);
#751=EDGE_CURVE('',#898,#897,#121,.T.);
#752=EDGE_CURVE('',#899,#898,#122,.T.);
#753=EDGE_CURVE('',#900,#899,#123,.T.);
#754=EDGE_CURVE('',#896,#900,#124,.T.);
#755=EDGE_CURVE('',#901,#901,#937,.F.);
#756=EDGE_CURVE('',#902,#902,#938,.F.);
#757=EDGE_CURVE('',#883,#892,#125,.T.);
#758=EDGE_CURVE('',#884,#880,#126,.T.);
#759=EDGE_CURVE('',#903,#881,#127,.T.);
#760=EDGE_CURVE('',#903,#904,#128,.T.);
#761=EDGE_CURVE('',#905,#904,#129,.T.);
#762=EDGE_CURVE('',#893,#905,#130,.T.);
#763=EDGE_CURVE('',#906,#906,#939,.F.);
#764=EDGE_CURVE('',#907,#907,#940,.F.);
#765=EDGE_CURVE('',#908,#908,#941,.F.);
#766=EDGE_CURVE('',#879,#868,#131,.T.);
#767=EDGE_CURVE('',#872,#909,#132,.T.);
#768=EDGE_CURVE('',#910,#909,#133,.T.);
#769=EDGE_CURVE('',#905,#910,#134,.T.);
#770=EDGE_CURVE('',#904,#911,#135,.T.);
#771=EDGE_CURVE('',#869,#911,#136,.T.);
#772=EDGE_CURVE('',#843,#909,#137,.T.);
#773=EDGE_CURVE('',#894,#910,#138,.T.);
#774=EDGE_CURVE('',#888,#822,#139,.T.);
#775=EDGE_CURVE('',#912,#912,#942,.F.);
#776=EDGE_CURVE('',#913,#913,#943,.F.);
#777=EDGE_CURVE('',#914,#914,#944,.F.);
#778=EDGE_CURVE('',#903,#851,#140,.T.);
#779=EDGE_CURVE('',#856,#850,#141,.T.);
#780=EDGE_CURVE('',#865,#853,#142,.T.);
#781=EDGE_CURVE('',#911,#855,#143,.T.);
#782=EDGE_CURVE('',#861,#915,#144,.T.);
#783=EDGE_CURVE('',#915,#916,#145,.T.);
#784=EDGE_CURVE('',#916,#886,#146,.T.);
#785=EDGE_CURVE('',#885,#866,#147,.T.);
#786=EDGE_CURVE('',#917,#917,#945,.T.);
#787=EDGE_CURVE('',#918,#918,#946,.T.);
#788=EDGE_CURVE('',#919,#919,#947,.T.);
#789=EDGE_CURVE('',#841,#915,#148,.T.);
#790=EDGE_CURVE('',#877,#852,#149,.T.);
#791=EDGE_CURVE('',#852,#844,#150,.T.);
#792=EDGE_CURVE('',#871,#843,#151,.T.);
#793=EDGE_CURVE('',#852,#864,#152,.T.);
#794=EDGE_CURVE('',#857,#845,#153,.T.);
#795=EDGE_CURVE('',#920,#834,#154,.T.);
#796=EDGE_CURVE('',#920,#839,#155,.T.);
#797=EDGE_CURVE('',#827,#838,#156,.T.);
#798=EDGE_CURVE('',#921,#921,#948,.F.);
#799=EDGE_CURVE('',#922,#923,#157,.T.);
#800=EDGE_CURVE('',#923,#924,#158,.T.);
#801=EDGE_CURVE('',#924,#925,#159,.T.);
#802=EDGE_CURVE('',#925,#926,#160,.T.);
#803=EDGE_CURVE('',#926,#927,#161,.T.);
#804=EDGE_CURVE('',#927,#922,#162,.T.);
#805=EDGE_CURVE('',#923,#895,#163,.T.);
#806=EDGE_CURVE('',#922,#897,#164,.T.);
#807=EDGE_CURVE('',#924,#896,#165,.T.);
#808=EDGE_CURVE('',#925,#900,#166,.T.);
#809=EDGE_CURVE('',#926,#899,#167,.T.);
#810=EDGE_CURVE('',#927,#898,#168,.T.);
#811=EDGE_CURVE('',#829,#837,#169,.T.);
#812=EDGE_CURVE('',#828,#841,#170,.T.);
#813=EDGE_CURVE('',#928,#928,#949,.F.);
#814=EDGE_CURVE('',#920,#929,#171,.T.);
#815=EDGE_CURVE('',#830,#929,#172,.T.);
#816=EDGE_CURVE('',#930,#930,#950,.T.);
#817=EDGE_CURVE('',#828,#916,#173,.T.);
#818=EDGE_CURVE('',#838,#887,#174,.T.);
#819=EDGE_CURVE('',#929,#833,#175,.T.);
#820=VERTEX_POINT('',#1646);
#821=VERTEX_POINT('',#1648);
#822=VERTEX_POINT('',#1649);
#823=VERTEX_POINT('',#1651);
#824=VERTEX_POINT('',#1653);
#825=VERTEX_POINT('',#1657);
#826=VERTEX_POINT('',#1658);
#827=VERTEX_POINT('',#1661);
#828=VERTEX_POINT('',#1663);
#829=VERTEX_POINT('',#1665);
#830=VERTEX_POINT('',#1667);
#831=VERTEX_POINT('',#1669);
#832=VERTEX_POINT('',#1673);
#833=VERTEX_POINT('',#1675);
#834=VERTEX_POINT('',#1677);
#835=VERTEX_POINT('',#1679);
#836=VERTEX_POINT('',#1681);
#837=VERTEX_POINT('',#1685);
#838=VERTEX_POINT('',#1688);
#839=VERTEX_POINT('',#1690);
#840=VERTEX_POINT('',#1694);
#841=VERTEX_POINT('',#1696);
#842=VERTEX_POINT('',#1698);
#843=VERTEX_POINT('',#1702);
#844=VERTEX_POINT('',#1703);
#845=VERTEX_POINT('',#1705);
#846=VERTEX_POINT('',#1707);
#847=VERTEX_POINT('',#1709);
#848=VERTEX_POINT('',#1711);
#849=VERTEX_POINT('',#1715);
#850=VERTEX_POINT('',#1717);
#851=VERTEX_POINT('',#1719);
#852=VERTEX_POINT('',#1723);
#853=VERTEX_POINT('',#1724);
#854=VERTEX_POINT('',#1726);
#855=VERTEX_POINT('',#1728);
#856=VERTEX_POINT('',#1732);
#857=VERTEX_POINT('',#1733);
#858=VERTEX_POINT('',#1735);
#859=VERTEX_POINT('',#1737);
#860=VERTEX_POINT('',#1739);
#861=VERTEX_POINT('',#1741);
#862=VERTEX_POINT('',#1743);
#863=VERTEX_POINT('',#1745);
#864=VERTEX_POINT('',#1749);
#865=VERTEX_POINT('',#1751);
#866=VERTEX_POINT('',#1754);
#867=VERTEX_POINT('',#1756);
#868=VERTEX_POINT('',#1760);
#869=VERTEX_POINT('',#1762);
#870=VERTEX_POINT('',#1766);
#871=VERTEX_POINT('',#1768);
#872=VERTEX_POINT('',#1770);
#873=VERTEX_POINT('',#1772);
#874=VERTEX_POINT('',#1774);
#875=VERTEX_POINT('',#1776);
#876=VERTEX_POINT('',#1778);
#877=VERTEX_POINT('',#1782);
#878=VERTEX_POINT('',#1784);
#879=VERTEX_POINT('',#1787);
#880=VERTEX_POINT('',#1791);
#881=VERTEX_POINT('',#1793);
#882=VERTEX_POINT('',#1797);
#883=VERTEX_POINT('',#1799);
#884=VERTEX_POINT('',#1805);
#885=VERTEX_POINT('',#1810);
#886=VERTEX_POINT('',#1811);
#887=VERTEX_POINT('',#1813);
#888=VERTEX_POINT('',#1815);
#889=VERTEX_POINT('',#1819);
#890=VERTEX_POINT('',#1821);
#891=VERTEX_POINT('',#1823);
#892=VERTEX_POINT('',#1826);
#893=VERTEX_POINT('',#1828);
#894=VERTEX_POINT('',#1830);
#895=VERTEX_POINT('',#1834);
#896=VERTEX_POINT('',#1835);
#897=VERTEX_POINT('',#1837);
#898=VERTEX_POINT('',#1839);
#899=VERTEX_POINT('',#1841);
#900=VERTEX_POINT('',#1843);
#901=VERTEX_POINT('',#1846);
#902=VERTEX_POINT('',#1848);
#903=VERTEX_POINT('',#1852);
#904=VERTEX_POINT('',#1854);
#905=VERTEX_POINT('',#1856);
#906=VERTEX_POINT('',#1860);
#907=VERTEX_POINT('',#1862);
#908=VERTEX_POINT('',#1864);
#909=VERTEX_POINT('',#1867);
#910=VERTEX_POINT('',#1869);
#911=VERTEX_POINT('',#1872);
#912=VERTEX_POINT('',#1881);
#913=VERTEX_POINT('',#1883);
#914=VERTEX_POINT('',#1885);
#915=VERTEX_POINT('',#1892);
#916=VERTEX_POINT('',#1894);
#917=VERTEX_POINT('',#1898);
#918=VERTEX_POINT('',#1900);
#919=VERTEX_POINT('',#1902);
#920=VERTEX_POINT('',#1929);
#921=VERTEX_POINT('',#1934);
#922=VERTEX_POINT('',#1937);
#923=VERTEX_POINT('',#1938);
#924=VERTEX_POINT('',#1940);
#925=VERTEX_POINT('',#1942);
#926=VERTEX_POINT('',#1944);
#927=VERTEX_POINT('',#1946);
#928=VERTEX_POINT('',#1965);
#929=VERTEX_POINT('',#1967);
#930=VERTEX_POINT('',#1971);
#931=CIRCLE('',#1259,0.0031);
#932=CIRCLE('',#1262,0.0028);
#933=CIRCLE('',#1265,0.0031);
#934=CIRCLE('',#1278,0.0031);
#935=CIRCLE('',#1279,0.0031);
#936=CIRCLE('',#1280,0.0031);
#937=CIRCLE('',#1283,0.0031);
#938=CIRCLE('',#1284,0.0031);
#939=CIRCLE('',#1286,0.0031);
#940=CIRCLE('',#1287,0.0031);
#941=CIRCLE('',#1288,0.0031);
#942=CIRCLE('',#1292,0.0031);
#943=CIRCLE('',#1293,0.0031);
#944=CIRCLE('',#1294,0.0031);
#945=CIRCLE('',#1296,0.0031);
#946=CIRCLE('',#1297,0.0031);
#947=CIRCLE('',#1298,0.0031);
#948=CIRCLE('',#1319,0.0028);
#949=CIRCLE('',#1329,0.0028);
#950=CIRCLE('',#1331,0.0028);
#951=EDGE_LOOP('',(#322));
#952=EDGE_LOOP('',(#323,#324,#325,#326));
#953=EDGE_LOOP('',(#327,#328,#329,#330,#331,#332,#333,#334));
#954=EDGE_LOOP('',(#335));
#955=EDGE_LOOP('',(#336,#337,#338,#339,#340,#341));
#956=EDGE_LOOP('',(#342,#343,#344,#345,#346,#347,#348));
#957=EDGE_LOOP('',(#349));
#958=EDGE_LOOP('',(#350,#351,#352,#353));
#959=EDGE_LOOP('',(#354,#355,#356,#357,#358,#359));
#960=EDGE_LOOP('',(#360,#361,#362,#363));
#961=EDGE_LOOP('',(#364,#365,#366,#367));
#962=EDGE_LOOP('',(#368,#369,#370,#371,#372,#373,#374,#375));
#963=EDGE_LOOP('',(#376,#377,#378,#379,#380,#381,#382,#383));
#964=EDGE_LOOP('',(#384,#385,#386,#387));
#965=EDGE_LOOP('',(#388,#389,#390,#391,#392,#393,#394,#395));
#966=EDGE_LOOP('',(#396,#397,#398,#399,#400,#401,#402,#403));
#967=EDGE_LOOP('',(#404,#405,#406,#407));
#968=EDGE_LOOP('',(#408,#409,#410,#411,#412,#413,#414,#415));
#969=EDGE_LOOP('',(#416,#417,#418,#419,#420,#421,#422,#423));
#970=EDGE_LOOP('',(#424,#425,#426,#427,#428,#429,#430));
#971=EDGE_LOOP('',(#431));
#972=EDGE_LOOP('',(#432));
#973=EDGE_LOOP('',(#433));
#974=EDGE_LOOP('',(#434,#435,#436,#437));
#975=EDGE_LOOP('',(#438,#439,#440,#441,#442,#443));
#976=EDGE_LOOP('',(#444));
#977=EDGE_LOOP('',(#445));
#978=EDGE_LOOP('',(#446,#447,#448,#449,#450,#451,#452,#453,#454,#455));
#979=EDGE_LOOP('',(#456));
#980=EDGE_LOOP('',(#457));
#981=EDGE_LOOP('',(#458));
#982=EDGE_LOOP('',(#459,#460,#461,#462,#463,#464,#465,#466,#467,#468));
#983=EDGE_LOOP('',(#469,#470,#471,#472));
#984=EDGE_LOOP('',(#473,#474,#475,#476));
#985=EDGE_LOOP('',(#477,#478,#479,#480,#481));
#986=EDGE_LOOP('',(#482));
#987=EDGE_LOOP('',(#483));
#988=EDGE_LOOP('',(#484));
#989=EDGE_LOOP('',(#485,#486,#487,#488,#489,#490,#491,#492,#493,#494));
#990=EDGE_LOOP('',(#495,#496,#497,#498,#499,#500,#501));
#991=EDGE_LOOP('',(#502));
#992=EDGE_LOOP('',(#503));
#993=EDGE_LOOP('',(#504));
#994=EDGE_LOOP('',(#505,#506,#507,#508));
#995=EDGE_LOOP('',(#509,#510,#511,#512,#513));
#996=EDGE_LOOP('',(#514,#515,#516,#517,#518,#519));
#997=EDGE_LOOP('',(#520,#521,#522,#523));
#998=EDGE_LOOP('',(#524,#525,#526,#527));
#999=EDGE_LOOP('',(#528,#529,#530,#531));
#1000=EDGE_LOOP('',(#532,#533,#534,#535));
#1001=EDGE_LOOP('',(#536,#537,#538,#539));
#1002=EDGE_LOOP('',(#540,#541,#542,#543));
#1003=EDGE_LOOP('',(#544,#545,#546,#547));
#1004=EDGE_LOOP('',(#548,#549,#550,#551,#552,#553));
#1005=EDGE_LOOP('',(#554,#555,#556,#557));
#1006=EDGE_LOOP('',(#558));
#1007=EDGE_LOOP('',(#559));
#1008=EDGE_LOOP('',(#560));
#1009=EDGE_LOOP('',(#561));
#1010=EDGE_LOOP('',(#562));
#1011=EDGE_LOOP('',(#563));
#1012=EDGE_LOOP('',(#564));
#1013=EDGE_LOOP('',(#565));
#1014=EDGE_LOOP('',(#566));
#1015=EDGE_LOOP('',(#567));
#1016=EDGE_LOOP('',(#568));
#1017=EDGE_LOOP('',(#569));
#1018=EDGE_LOOP('',(#570));
#1019=EDGE_LOOP('',(#571));
#1020=EDGE_LOOP('',(#572));
#1021=EDGE_LOOP('',(#573));
#1022=EDGE_LOOP('',(#574,#575,#576,#577,#578,#579,#580,#581));
#1023=EDGE_LOOP('',(#582));
#1024=EDGE_LOOP('',(#583));
#1025=EDGE_LOOP('',(#584,#585,#586,#587,#588,#589));
#1026=EDGE_LOOP('',(#590));
#1027=EDGE_LOOP('',(#591,#592,#593,#594));
#1028=EDGE_LOOP('',(#595,#596,#597,#598));
#1029=EDGE_LOOP('',(#599,#600,#601,#602));
#1030=EDGE_LOOP('',(#603,#604,#605,#606));
#1031=EDGE_LOOP('',(#607,#608,#609,#610));
#1032=EDGE_LOOP('',(#611,#612,#613,#614));
#1033=EDGE_LOOP('',(#615,#616,#617,#618,#619,#620,#621));
#1034=EDGE_LOOP('',(#622));
#1035=EDGE_LOOP('',(#623,#624,#625,#626,#627,#628));
#1036=EDGE_LOOP('',(#629));
#1037=EDGE_LOOP('',(#630,#631,#632,#633,#634,#635));
#1038=EDGE_LOOP('',(#636,#637,#638,#639));
#1039=EDGE_LOOP('',(#640,#641,#642,#643));
#1040=EDGE_LOOP('',(#644));
#1041=EDGE_LOOP('',(#645));
#1042=EDGE_LOOP('',(#646,#647,#648,#649));
#1043=EDGE_LOOP('',(#650,#651,#652,#653));
#1044=FACE_BOUND('',#951,.T.);
#1045=FACE_BOUND('',#952,.T.);
#1046=FACE_BOUND('',#953,.T.);
#1047=FACE_BOUND('',#954,.T.);
#1048=FACE_BOUND('',#955,.T.);
#1049=FACE_BOUND('',#956,.T.);
#1050=FACE_BOUND('',#957,.T.);
#1051=FACE_BOUND('',#958,.T.);
#1052=FACE_BOUND('',#959,.T.);
#1053=FACE_BOUND('',#960,.T.);
#1054=FACE_BOUND('',#961,.T.);
#1055=FACE_BOUND('',#962,.T.);
#1056=FACE_BOUND('',#963,.T.);
#1057=FACE_BOUND('',#964,.T.);
#1058=FACE_BOUND('',#965,.T.);
#1059=FACE_BOUND('',#966,.T.);
#1060=FACE_BOUND('',#967,.T.);
#1061=FACE_BOUND('',#968,.T.);
#1062=FACE_BOUND('',#969,.T.);
#1063=FACE_BOUND('',#970,.T.);
#1064=FACE_BOUND('',#971,.T.);
#1065=FACE_BOUND('',#972,.T.);
#1066=FACE_BOUND('',#973,.T.);
#1067=FACE_BOUND('',#974,.T.);
#1068=FACE_BOUND('',#975,.T.);
#1069=FACE_BOUND('',#976,.T.);
#1070=FACE_BOUND('',#977,.T.);
#1071=FACE_BOUND('',#978,.T.);
#1072=FACE_BOUND('',#979,.T.);
#1073=FACE_BOUND('',#980,.T.);
#1074=FACE_BOUND('',#981,.T.);
#1075=FACE_BOUND('',#982,.T.);
#1076=FACE_BOUND('',#983,.T.);
#1077=FACE_BOUND('',#984,.T.);
#1078=FACE_BOUND('',#985,.T.);
#1079=FACE_BOUND('',#986,.T.);
#1080=FACE_BOUND('',#987,.T.);
#1081=FACE_BOUND('',#988,.T.);
#1082=FACE_BOUND('',#989,.T.);
#1083=FACE_BOUND('',#990,.T.);
#1084=FACE_BOUND('',#991,.T.);
#1085=FACE_BOUND('',#992,.T.);
#1086=FACE_BOUND('',#993,.T.);
#1087=FACE_BOUND('',#994,.T.);
#1088=FACE_BOUND('',#995,.T.);
#1089=FACE_BOUND('',#996,.T.);
#1090=FACE_BOUND('',#997,.T.);
#1091=FACE_BOUND('',#998,.T.);
#1092=FACE_BOUND('',#999,.T.);
#1093=FACE_BOUND('',#1000,.T.);
#1094=FACE_BOUND('',#1001,.T.);
#1095=FACE_BOUND('',#1002,.T.);
#1096=FACE_BOUND('',#1003,.T.);
#1097=FACE_BOUND('',#1004,.T.);
#1098=FACE_BOUND('',#1005,.T.);
#1099=FACE_BOUND('',#1006,.T.);
#1100=FACE_BOUND('',#1007,.T.);
#1101=FACE_BOUND('',#1008,.T.);
#1102=FACE_BOUND('',#1009,.T.);
#1103=FACE_BOUND('',#1010,.T.);
#1104=FACE_BOUND('',#1011,.T.);
#1105=FACE_BOUND('',#1012,.T.);
#1106=FACE_BOUND('',#1013,.T.);
#1107=FACE_BOUND('',#1014,.T.);
#1108=FACE_BOUND('',#1015,.T.);
#1109=FACE_BOUND('',#1016,.T.);
#1110=FACE_BOUND('',#1017,.T.);
#1111=FACE_BOUND('',#1018,.T.);
#1112=FACE_BOUND('',#1019,.T.);
#1113=FACE_BOUND('',#1020,.T.);
#1114=FACE_BOUND('',#1021,.T.);
#1115=FACE_BOUND('',#1022,.T.);
#1116=FACE_BOUND('',#1023,.T.);
#1117=FACE_BOUND('',#1024,.T.);
#1118=FACE_BOUND('',#1025,.T.);
#1119=FACE_BOUND('',#1026,.T.);
#1120=FACE_BOUND('',#1027,.T.);
#1121=FACE_BOUND('',#1028,.T.);
#1122=FACE_BOUND('',#1029,.T.);
#1123=FACE_BOUND('',#1030,.T.);
#1124=FACE_BOUND('',#1031,.T.);
#1125=FACE_BOUND('',#1032,.T.);
#1126=FACE_BOUND('',#1033,.T.);
#1127=FACE_BOUND('',#1034,.T.);
#1128=FACE_BOUND('',#1035,.T.);
#1129=FACE_BOUND('',#1036,.T.);
#1130=FACE_BOUND('',#1037,.T.);
#1131=FACE_BOUND('',#1038,.T.);
#1132=FACE_BOUND('',#1039,.T.);
#1133=FACE_BOUND('',#1040,.T.);
#1134=FACE_BOUND('',#1041,.T.);
#1135=FACE_BOUND('',#1042,.T.);
#1136=FACE_BOUND('',#1043,.T.);
#1137=PLANE('',#1258);
#1138=PLANE('',#1260);
#1139=PLANE('',#1261);
#1140=PLANE('',#1263);
#1141=PLANE('',#1264);
#1142=PLANE('',#1266);
#1143=PLANE('',#1267);
#1144=PLANE('',#1268);
#1145=PLANE('',#1269);
#1146=PLANE('',#1270);
#1147=PLANE('',#1271);
#1148=PLANE('',#1272);
#1149=PLANE('',#1273);
#1150=PLANE('',#1274);
#1151=PLANE('',#1275);
#1152=PLANE('',#1276);
#1153=PLANE('',#1277);
#1154=PLANE('',#1281);
#1155=PLANE('',#1282);
#1156=PLANE('',#1285);
#1157=PLANE('',#1289);
#1158=PLANE('',#1290);
#1159=PLANE('',#1291);
#1160=PLANE('',#1295);
#1161=PLANE('',#1299);
#1162=PLANE('',#1300);
#1163=PLANE('',#1301);
#1164=PLANE('',#1302);
#1165=PLANE('',#1303);
#1166=PLANE('',#1304);
#1167=PLANE('',#1305);
#1168=PLANE('',#1306);
#1169=PLANE('',#1307);
#1170=PLANE('',#1308);
#1171=PLANE('',#1317);
#1172=PLANE('',#1320);
#1173=PLANE('',#1321);
#1174=PLANE('',#1322);
#1175=PLANE('',#1323);
#1176=PLANE('',#1324);
#1177=PLANE('',#1325);
#1178=PLANE('',#1326);
#1179=PLANE('',#1327);
#1180=PLANE('',#1328);
#1181=PLANE('',#1330);
#1182=PLANE('',#1332);
#1183=PLANE('',#1333);
#1184=PLANE('',#1335);
#1185=PLANE('',#1336);
#1186=ADVANCED_FACE('',(#1044,#1045),#1137,.F.);
#1187=ADVANCED_FACE('',(#1046),#1138,.F.);
#1188=ADVANCED_FACE('',(#1047,#1048),#1139,.T.);
#1189=ADVANCED_FACE('',(#1049),#1140,.F.);
#1190=ADVANCED_FACE('',(#1050,#1051),#1141,.F.);
#1191=ADVANCED_FACE('',(#1052),#1142,.T.);
#1192=ADVANCED_FACE('',(#1053),#1143,.T.);
#1193=ADVANCED_FACE('',(#1054),#1144,.F.);
#1194=ADVANCED_FACE('',(#1055),#1145,.T.);
#1195=ADVANCED_FACE('',(#1056),#1146,.F.);
#1196=ADVANCED_FACE('',(#1057),#1147,.F.);
#1197=ADVANCED_FACE('',(#1058),#1148,.T.);
#1198=ADVANCED_FACE('',(#1059),#1149,.F.);
#1199=ADVANCED_FACE('',(#1060),#1150,.F.);
#1200=ADVANCED_FACE('',(#1061),#1151,.T.);
#1201=ADVANCED_FACE('',(#1062),#1152,.F.);
#1202=ADVANCED_FACE('',(#1063,#1064,#1065,#1066),#1153,.F.);
#1203=ADVANCED_FACE('',(#1067),#1154,.T.);
#1204=ADVANCED_FACE('',(#1068,#1069,#1070,#1071),#1155,.F.);
#1205=ADVANCED_FACE('',(#1072,#1073,#1074,#1075),#1156,.F.);
#1206=ADVANCED_FACE('',(#1076),#1157,.T.);
#1207=ADVANCED_FACE('',(#1077,#1078),#1158,.T.);
#1208=ADVANCED_FACE('',(#1079,#1080,#1081,#1082),#1159,.T.);
#1209=ADVANCED_FACE('',(#1083,#1084,#1085,#1086),#1160,.T.);
#1210=ADVANCED_FACE('',(#1087,#1088),#1161,.T.);
#1211=ADVANCED_FACE('',(#1089),#1162,.F.);
#1212=ADVANCED_FACE('',(#1090,#1091),#1163,.F.);
#1213=ADVANCED_FACE('',(#1092),#1164,.T.);
#1214=ADVANCED_FACE('',(#1093),#1165,.F.);
#1215=ADVANCED_FACE('',(#1094),#1166,.T.);
#1216=ADVANCED_FACE('',(#1095),#1167,.F.);
#1217=ADVANCED_FACE('',(#1096),#1168,.T.);
#1218=ADVANCED_FACE('',(#1097),#1169,.T.);
#1219=ADVANCED_FACE('',(#1098),#1170,.T.);
#1220=ADVANCED_FACE('',(#1099,#1100),#20,.F.);
#1221=ADVANCED_FACE('',(#1101,#1102),#21,.F.);
#1222=ADVANCED_FACE('',(#1103,#1104),#22,.F.);
#1223=ADVANCED_FACE('',(#1105,#1106),#23,.F.);
#1224=ADVANCED_FACE('',(#1107,#1108),#24,.F.);
#1225=ADVANCED_FACE('',(#1109,#1110),#25,.F.);
#1226=ADVANCED_FACE('',(#1111,#1112),#26,.F.);
#1227=ADVANCED_FACE('',(#1113,#1114),#27,.F.);
#1228=ADVANCED_FACE('',(#1115),#1171,.F.);
#1229=ADVANCED_FACE('',(#1116,#1117),#28,.F.);
#1230=ADVANCED_FACE('',(#1118,#1119),#1172,.T.);
#1231=ADVANCED_FACE('',(#1120),#1173,.F.);
#1232=ADVANCED_FACE('',(#1121),#1174,.F.);
#1233=ADVANCED_FACE('',(#1122),#1175,.F.);
#1234=ADVANCED_FACE('',(#1123),#1176,.F.);
#1235=ADVANCED_FACE('',(#1124),#1177,.F.);
#1236=ADVANCED_FACE('',(#1125),#1178,.F.);
#1237=ADVANCED_FACE('',(#1126),#1179,.F.);
#1238=ADVANCED_FACE('',(#1127,#1128),#1180,.F.);
#1239=ADVANCED_FACE('',(#1129,#1130),#1181,.T.);
#1240=ADVANCED_FACE('',(#1131),#1182,.F.);
#1241=ADVANCED_FACE('',(#1132),#1183,.T.);
#1242=ADVANCED_FACE('',(#1133,#1134),#29,.F.);
#1243=ADVANCED_FACE('',(#1135),#1184,.T.);
#1244=ADVANCED_FACE('',(#1136),#1185,.F.);
#1245=CLOSED_SHELL('',(#1186,#1187,#1188,#1189,#1190,#1191,#1192,#1193,
#1194,#1195,#1196,#1197,#1198,#1199,#1200,#1201,#1202,#1203,#1204,#1205,
#1206,#1207,#1208,#1209,#1210,#1211,#1212,#1213,#1214,#1215,#1216,#1217,
#1218,#1219,#1220,#1221,#1222,#1223,#1224,#1225,#1226,#1227,#1228,#1229,
#1230,#1231,#1232,#1233,#1234,#1235,#1236,#1237,#1238,#1239,#1240,#1241,
#1242,#1243,#1244));
#1246=STYLED_ITEM('',(#1247),#1254);
#1247=PRESENTATION_STYLE_ASSIGNMENT((#1248));
#1248=SURFACE_STYLE_USAGE(.BOTH.,#1249);
#1249=SURFACE_SIDE_STYLE('',(#1250));
#1250=SURFACE_STYLE_FILL_AREA(#1251);
#1251=FILL_AREA_STYLE('',(#1252));
#1252=FILL_AREA_STYLE_COLOUR('',#1253);
#1253=COLOUR_RGB('',0.901960784313726,0.87843137254902,0.811764705882353);
#1254=MANIFOLD_SOLID_BREP('Back Corner Brackets',#1245);
#1255=SHAPE_DEFINITION_REPRESENTATION(#1986,#1256);
#1256=SHAPE_REPRESENTATION('Back Corner Brackets',(#1257),#1981);
#1257=AXIS2_PLACEMENT_3D('',#1643,#1337,#1338);
#1258=AXIS2_PLACEMENT_3D('',#1644,#1339,#1340);
#1259=AXIS2_PLACEMENT_3D('',#1645,#1341,#1342);
#1260=AXIS2_PLACEMENT_3D('',#1655,#1347,#1348);
#1261=AXIS2_PLACEMENT_3D('',#1671,#1357,#1358);
#1262=AXIS2_PLACEMENT_3D('',#1672,#1359,#1360);
#1263=AXIS2_PLACEMENT_3D('',#1683,#1366,#1367);
#1264=AXIS2_PLACEMENT_3D('',#1692,#1373,#1374);
#1265=AXIS2_PLACEMENT_3D('',#1693,#1375,#1376);
#1266=AXIS2_PLACEMENT_3D('',#1700,#1380,#1381);
#1267=AXIS2_PLACEMENT_3D('',#1713,#1388,#1389);
#1268=AXIS2_PLACEMENT_3D('',#1721,#1394,#1395);
#1269=AXIS2_PLACEMENT_3D('',#1730,#1400,#1401);
#1270=AXIS2_PLACEMENT_3D('',#1747,#1410,#1411);
#1271=AXIS2_PLACEMENT_3D('',#1758,#1418,#1419);
#1272=AXIS2_PLACEMENT_3D('',#1764,#1423,#1424);
#1273=AXIS2_PLACEMENT_3D('',#1780,#1433,#1434);
#1274=AXIS2_PLACEMENT_3D('',#1789,#1440,#1441);
#1275=AXIS2_PLACEMENT_3D('',#1795,#1445,#1446);
#1276=AXIS2_PLACEMENT_3D('',#1803,#1452,#1453);
#1277=AXIS2_PLACEMENT_3D('',#1808,#1457,#1458);
#1278=AXIS2_PLACEMENT_3D('',#1818,#1464,#1465);
#1279=AXIS2_PLACEMENT_3D('',#1820,#1466,#1467);
#1280=AXIS2_PLACEMENT_3D('',#1822,#1468,#1469);
#1281=AXIS2_PLACEMENT_3D('',#1824,#1470,#1471);
#1282=AXIS2_PLACEMENT_3D('',#1832,#1476,#1477);
#1283=AXIS2_PLACEMENT_3D('',#1845,#1484,#1485);
#1284=AXIS2_PLACEMENT_3D('',#1847,#1486,#1487);
#1285=AXIS2_PLACEMENT_3D('',#1858,#1494,#1495);
#1286=AXIS2_PLACEMENT_3D('',#1859,#1496,#1497);
#1287=AXIS2_PLACEMENT_3D('',#1861,#1498,#1499);
#1288=AXIS2_PLACEMENT_3D('',#1863,#1500,#1501);
#1289=AXIS2_PLACEMENT_3D('',#1874,#1508,#1509);
#1290=AXIS2_PLACEMENT_3D('',#1877,#1512,#1513);
#1291=AXIS2_PLACEMENT_3D('',#1879,#1515,#1516);
#1292=AXIS2_PLACEMENT_3D('',#1880,#1517,#1518);
#1293=AXIS2_PLACEMENT_3D('',#1882,#1519,#1520);
#1294=AXIS2_PLACEMENT_3D('',#1884,#1521,#1522);
#1295=AXIS2_PLACEMENT_3D('',#1890,#1527,#1528);
#1296=AXIS2_PLACEMENT_3D('',#1897,#1533,#1534);
#1297=AXIS2_PLACEMENT_3D('',#1899,#1535,#1536);
#1298=AXIS2_PLACEMENT_3D('',#1901,#1537,#1538);
#1299=AXIS2_PLACEMENT_3D('',#1903,#1539,#1540);
#1300=AXIS2_PLACEMENT_3D('',#1905,#1542,#1543);
#1301=AXIS2_PLACEMENT_3D('',#1909,#1547,#1548);
#1302=AXIS2_PLACEMENT_3D('',#1910,#1549,#1550);
#1303=AXIS2_PLACEMENT_3D('',#1911,#1551,#1552);
#1304=AXIS2_PLACEMENT_3D('',#1912,#1553,#1554);
#1305=AXIS2_PLACEMENT_3D('',#1913,#1555,#1556);
#1306=AXIS2_PLACEMENT_3D('',#1914,#1557,#1558);
#1307=AXIS2_PLACEMENT_3D('',#1916,#1560,#1561);
#1308=AXIS2_PLACEMENT_3D('',#1918,#1563,#1564);
#1309=AXIS2_PLACEMENT_3D('',#1919,#1565,#1566);
#1310=AXIS2_PLACEMENT_3D('',#1920,#1567,#1568);
#1311=AXIS2_PLACEMENT_3D('',#1921,#1569,#1570);
#1312=AXIS2_PLACEMENT_3D('',#1922,#1571,#1572);
#1313=AXIS2_PLACEMENT_3D('',#1923,#1573,#1574);
#1314=AXIS2_PLACEMENT_3D('',#1924,#1575,#1576);
#1315=AXIS2_PLACEMENT_3D('',#1925,#1577,#1578);
#1316=AXIS2_PLACEMENT_3D('',#1926,#1579,#1580);
#1317=AXIS2_PLACEMENT_3D('',#1927,#1581,#1582);
#1318=AXIS2_PLACEMENT_3D('',#1932,#1586,#1587);
#1319=AXIS2_PLACEMENT_3D('',#1933,#1588,#1589);
#1320=AXIS2_PLACEMENT_3D('',#1935,#1590,#1591);
#1321=AXIS2_PLACEMENT_3D('',#1948,#1598,#1599);
#1322=AXIS2_PLACEMENT_3D('',#1951,#1602,#1603);
#1323=AXIS2_PLACEMENT_3D('',#1953,#1605,#1606);
#1324=AXIS2_PLACEMENT_3D('',#1955,#1608,#1609);
#1325=AXIS2_PLACEMENT_3D('',#1957,#1611,#1612);
#1326=AXIS2_PLACEMENT_3D('',#1959,#1614,#1615);
#1327=AXIS2_PLACEMENT_3D('',#1960,#1616,#1617);
#1328=AXIS2_PLACEMENT_3D('',#1963,#1620,#1621);
#1329=AXIS2_PLACEMENT_3D('',#1964,#1622,#1623);
#1330=AXIS2_PLACEMENT_3D('',#1969,#1626,#1627);
#1331=AXIS2_PLACEMENT_3D('',#1970,#1628,#1629);
#1332=AXIS2_PLACEMENT_3D('',#1974,#1632,#1633);
#1333=AXIS2_PLACEMENT_3D('',#1976,#1635,#1636);
#1334=AXIS2_PLACEMENT_3D('',#1977,#1637,#1638);
#1335=AXIS2_PLACEMENT_3D('',#1978,#1639,#1640);
#1336=AXIS2_PLACEMENT_3D('',#1979,#1641,#1642);
#1337=DIRECTION('',(0.,0.,1.));
#1338=DIRECTION('',(1.,0.,0.));
#1339=DIRECTION('',(0.,0.,-1.));
#1340=DIRECTION('',(-1.,0.,0.));
#1341=DIRECTION('',(0.,0.,1.));
#1342=DIRECTION('',(1.,0.,0.));
#1343=DIRECTION('',(1.,0.,0.));
#1344=DIRECTION('',(0.,1.,0.));
#1345=DIRECTION('',(-1.,0.,0.));
#1346=DIRECTION('',(0.,-1.,0.));
#1347=DIRECTION('',(0.,1.,0.));
#1348=DIRECTION('',(0.,0.,1.));
#1349=DIRECTION('',(-3.45218602184439E-16,0.,1.));
#1350=DIRECTION('',(1.,0.,0.));
#1351=DIRECTION('',(0.,0.,-1.));
#1352=DIRECTION('',(-1.,0.,-3.45218602184439E-16));
#1353=DIRECTION('',(-3.45218602184439E-16,0.,1.));
#1354=DIRECTION('',(-1.,0.,-3.45218602184439E-16));
#1355=DIRECTION('',(0.,0.,-1.));
#1356=DIRECTION('',(1.,0.,0.));
#1357=DIRECTION('',(0.,0.,1.));
#1358=DIRECTION('',(1.,0.,0.));
#1359=DIRECTION('',(0.,0.,1.));
#1360=DIRECTION('',(1.,0.,0.));
#1361=DIRECTION('',(-1.73472347597681E-16,1.,0.));
#1362=DIRECTION('',(-1.,0.,0.));
#1363=DIRECTION('',(0.,1.,0.));
#1364=DIRECTION('',(-1.,0.,0.));
#1365=DIRECTION('',(0.,-1.,0.));
#1366=DIRECTION('',(0.,1.,0.));
#1367=DIRECTION('',(-1.,0.,0.));
#1368=DIRECTION('',(-3.45218602184439E-16,0.,1.));
#1369=DIRECTION('',(0.,0.,1.));
#1370=DIRECTION('',(0.778584829164477,0.,-0.627539372306569));
#1371=DIRECTION('',(0.,0.,1.));
#1372=DIRECTION('',(-1.,0.,6.90437204368878E-16));
#1373=DIRECTION('',(0.,0.,-1.));
#1374=DIRECTION('',(-1.,0.,0.));
#1375=DIRECTION('',(0.,0.,1.));
#1376=DIRECTION('',(1.,0.,0.));
#1377=DIRECTION('',(0.,-1.,0.));
#1378=DIRECTION('',(-1.,0.,0.));
#1379=DIRECTION('',(0.,1.,0.));
#1380=DIRECTION('',(0.,-2.29764698804875E-16,1.));
#1381=DIRECTION('',(0.,-1.,-2.29764698804875E-16));
#1382=DIRECTION('',(-1.,0.,-2.29764698804875E-16));
#1383=DIRECTION('',(1.22508720054859E-16,-1.,-2.29764698804875E-16));
#1384=DIRECTION('',(-1.,0.,0.));
#1385=DIRECTION('',(0.,-1.,-2.29764698804875E-16));
#1386=DIRECTION('',(1.,0.,0.));
#1387=DIRECTION('',(0.,1.,2.29764698804875E-16));
#1388=DIRECTION('',(0.,-2.29764698804875E-16,1.));
#1389=DIRECTION('',(0.,-1.,-2.29764698804875E-16));
#1390=DIRECTION('',(0.,1.,0.));
#1391=DIRECTION('',(-1.,0.,0.));
#1392=DIRECTION('',(0.,1.,0.));
#1393=DIRECTION('',(1.,0.,2.29764698804875E-16));
#1394=DIRECTION('',(0.,-1.,0.));
#1395=DIRECTION('',(0.,0.,-1.));
#1396=DIRECTION('',(-1.,0.,-2.29764698804875E-16));
#1397=DIRECTION('',(0.,0.,-1.));
#1398=DIRECTION('',(-1.,0.,0.));
#1399=DIRECTION('',(0.,0.,-1.));
#1400=DIRECTION('',(0.,0.,-1.));
#1401=DIRECTION('',(-1.,0.,0.));
#1402=DIRECTION('',(1.,0.,0.));
#1403=DIRECTION('',(-1.22508720054859E-16,1.,0.));
#1404=DIRECTION('',(-1.,0.,0.));
#1405=DIRECTION('',(0.,1.,0.));
#1406=DIRECTION('',(-1.,0.,0.));
#1407=DIRECTION('',(0.,1.,0.));
#1408=DIRECTION('',(-1.,0.,0.));
#1409=DIRECTION('',(0.,-1.,0.));
#1410=DIRECTION('',(0.,1.,0.));
#1411=DIRECTION('',(0.,0.,1.));
#1412=DIRECTION('',(-2.81481791643755E-32,0.,1.));
#1413=DIRECTION('',(1.,0.,0.));
#1414=DIRECTION('',(0.,0.,-1.));
#1415=DIRECTION('',(0.,0.,1.));
#1416=DIRECTION('',(-1.,0.,0.));
#1417=DIRECTION('',(0.,0.,1.));
#1418=DIRECTION('',(1.,-2.01044111454266E-16,0.));
#1419=DIRECTION('',(2.01044111454266E-16,1.,0.));
#1420=DIRECTION('',(-2.01044111454266E-16,-1.,-4.61928397147831E-32));
#1421=DIRECTION('',(0.,0.,-1.));
#1422=DIRECTION('',(-2.01044111454266E-16,-1.,0.));
#1423=DIRECTION('',(0.,0.,-1.));
#1424=DIRECTION('',(-1.,0.,0.));
#1425=DIRECTION('',(0.,-1.,0.));
#1426=DIRECTION('',(1.,0.,0.));
#1427=DIRECTION('',(0.,-1.,0.));
#1428=DIRECTION('',(1.,0.,0.));
#1429=DIRECTION('',(0.,-1.,0.));
#1430=DIRECTION('',(-1.,0.,0.));
#1431=DIRECTION('',(0.,-1.,0.));
#1432=DIRECTION('',(-1.,0.,0.));
#1433=DIRECTION('',(-1.,0.,0.));
#1434=DIRECTION('',(0.,0.,1.));
#1435=DIRECTION('',(0.,2.29764698804875E-16,-1.));
#1436=DIRECTION('',(0.,-1.,0.));
#1437=DIRECTION('',(0.,0.,1.));
#1438=DIRECTION('',(0.,2.29764698804875E-16,-1.));
#1439=DIRECTION('',(0.,1.,2.29764698804875E-16));
#1440=DIRECTION('',(1.,0.,3.15926460856703E-16));
#1441=DIRECTION('',(3.15926460856703E-16,0.,-1.));
#1442=DIRECTION('',(-3.15926460856703E-16,-2.29764698804875E-16,1.));
#1443=DIRECTION('',(3.15926460856703E-16,0.,-1.));
#1444=DIRECTION('',(0.,1.,0.));
#1445=DIRECTION('',(0.,-1.,-5.17827903276659E-16));
#1446=DIRECTION('',(0.,5.17827903276659E-16,-1.));
#1447=DIRECTION('',(0.,-5.17827903276659E-16,1.));
#1448=DIRECTION('',(1.,0.,0.));
#1449=DIRECTION('',(0.,-5.17827903276659E-16,1.));
#1450=DIRECTION('',(0.,-5.17827903276659E-16,1.));
#1451=DIRECTION('',(0.,-5.17827903276659E-16,1.));
#1452=DIRECTION('',(-1.,0.,0.));
#1453=DIRECTION('',(0.,0.,1.));
#1454=DIRECTION('',(0.,-1.,-2.29764698804875E-16));
#1455=DIRECTION('',(0.,0.,1.));
#1456=DIRECTION('',(0.,2.29764698804875E-16,-1.));
#1457=DIRECTION('',(0.,-1.,0.));
#1458=DIRECTION('',(0.,0.,-1.));
#1459=DIRECTION('',(-3.45218602184439E-16,0.,1.));
#1460=DIRECTION('',(-1.,0.,6.90437204368878E-16));
#1461=DIRECTION('',(-0.778584829164477,0.,0.627539372306569));
#1462=DIRECTION('',(0.,0.,1.));
#1463=DIRECTION('',(-1.,0.,0.));
#1464=DIRECTION('',(0.,1.,0.));
#1465=DIRECTION('',(0.,0.,1.));
#1466=DIRECTION('',(0.,1.,0.));
#1467=DIRECTION('',(0.,0.,1.));
#1468=DIRECTION('',(0.,1.,0.));
#1469=DIRECTION('',(0.,0.,1.));
#1470=DIRECTION('',(0.,1.,2.29764698804875E-16));
#1471=DIRECTION('',(0.,-2.29764698804875E-16,1.));
#1472=DIRECTION('',(0.,2.29764698804875E-16,-1.));
#1473=DIRECTION('',(-1.,0.,0.));
#1474=DIRECTION('',(0.,2.29764698804875E-16,-1.));
#1475=DIRECTION('',(-1.,0.,0.));
#1476=DIRECTION('',(0.,-2.29764698804875E-16,1.));
#1477=DIRECTION('',(0.,-1.,-2.29764698804875E-16));
#1478=DIRECTION('',(-0.866025403784439,-0.5,-1.14882349402438E-16));
#1479=DIRECTION('',(0.,-1.,-2.29764698804875E-16));
#1480=DIRECTION('',(0.866025403784439,-0.5,-1.14882349402437E-16));
#1481=DIRECTION('',(0.866025403784439,0.5,1.14882349402437E-16));
#1482=DIRECTION('',(0.,1.,2.29764698804875E-16));
#1483=DIRECTION('',(-0.866025403784439,0.5,1.14882349402438E-16));
#1484=DIRECTION('',(0.,-2.29764698804875E-16,1.));
#1485=DIRECTION('',(0.,-1.,-2.29764698804875E-16));
#1486=DIRECTION('',(0.,-2.29764698804875E-16,1.));
#1487=DIRECTION('',(0.,-1.,-2.29764698804875E-16));
#1488=DIRECTION('',(0.,1.,2.29764698804875E-16));
#1489=DIRECTION('',(-1.,0.,0.));
#1490=DIRECTION('',(1.,0.,2.29764698804875E-16));
#1491=DIRECTION('',(0.,1.,0.));
#1492=DIRECTION('',(-1.,0.,0.));
#1493=DIRECTION('',(0.,1.,2.29764698804875E-16));
#1494=DIRECTION('',(0.,1.,2.87205873506094E-16));
#1495=DIRECTION('',(0.,-2.87205873506094E-16,1.));
#1496=DIRECTION('',(0.,1.,2.87205873506094E-16));
#1497=DIRECTION('',(0.,-2.87205873506094E-16,1.));
#1498=DIRECTION('',(0.,1.,2.87205873506094E-16));
#1499=DIRECTION('',(0.,-2.87205873506094E-16,1.));
#1500=DIRECTION('',(0.,1.,2.87205873506094E-16));
#1501=DIRECTION('',(0.,-2.87205873506094E-16,1.));
#1502=DIRECTION('',(-1.,0.,0.));
#1503=DIRECTION('',(0.,-2.29764698804875E-16,1.));
#1504=DIRECTION('',(-1.,0.,0.));
#1505=DIRECTION('',(0.,2.87205873506094E-16,-1.));
#1506=DIRECTION('',(2.29764698804875E-16,2.87205873506094E-16,-1.));
#1507=DIRECTION('',(-1.,1.43602936753047E-16,0.));
#1508=DIRECTION('',(0.,-2.29764698804875E-16,1.));
#1509=DIRECTION('',(0.,-1.,-2.29764698804875E-16));
#1510=DIRECTION('',(0.,1.,2.29764698804875E-16));
#1511=DIRECTION('',(0.,1.,2.29764698804875E-16));
#1512=DIRECTION('',(1.,0.,0.));
#1513=DIRECTION('',(0.,1.,0.));
#1514=DIRECTION('',(0.,-1.,0.));
#1515=DIRECTION('',(1.,0.,2.29764698804875E-16));
#1516=DIRECTION('',(2.29764698804875E-16,0.,-1.));
#1517=DIRECTION('',(1.,0.,2.29764698804875E-16));
#1518=DIRECTION('',(2.29764698804875E-16,0.,-1.));
#1519=DIRECTION('',(1.,0.,2.29764698804875E-16));
#1520=DIRECTION('',(2.29764698804875E-16,0.,-1.));
#1521=DIRECTION('',(1.,0.,2.29764698804875E-16));
#1522=DIRECTION('',(2.29764698804875E-16,0.,-1.));
#1523=DIRECTION('',(2.29764698804875E-16,0.,-1.));
#1524=DIRECTION('',(0.,-2.29764698804875E-16,1.));
#1525=DIRECTION('',(0.,1.,0.));
#1526=DIRECTION('',(0.,-1.,0.));
#1527=DIRECTION('',(-1.,0.,-3.45218602184439E-16));
#1528=DIRECTION('',(-3.45218602184439E-16,0.,1.));
#1529=DIRECTION('',(-3.45218602184439E-16,0.,1.));
#1530=DIRECTION('',(-2.16638264923374E-16,0.778584829164477,0.627539372306569));
#1531=DIRECTION('',(0.,1.,0.));
#1532=DIRECTION('',(3.45218602184439E-16,-1.,0.));
#1533=DIRECTION('',(-1.,0.,-3.45218602184439E-16));
#1534=DIRECTION('',(-3.45218602184439E-16,0.,1.));
#1535=DIRECTION('',(-1.,0.,-3.45218602184439E-16));
#1536=DIRECTION('',(-3.45218602184439E-16,0.,1.));
#1537=DIRECTION('',(-1.,0.,-3.45218602184439E-16));
#1538=DIRECTION('',(-3.45218602184439E-16,0.,1.));
#1539=DIRECTION('',(0.,-1.,0.));
#1540=DIRECTION('',(1.,0.,0.));
#1541=DIRECTION('',(-1.,0.,-3.45218602184439E-16));
#1542=DIRECTION('',(0.,-1.,0.));
#1543=DIRECTION('',(0.,0.,-1.));
#1544=DIRECTION('',(-1.,0.,0.));
#1545=DIRECTION('',(0.,-2.29764698804875E-16,1.));
#1546=DIRECTION('',(0.,-2.29764698804875E-16,1.));
#1547=DIRECTION('',(0.,0.,1.));
#1548=DIRECTION('',(1.,0.,0.));
#1549=DIRECTION('',(0.,1.,2.29764698804875E-16));
#1550=DIRECTION('',(-1.,0.,0.));
#1551=DIRECTION('',(1.,0.,0.));
#1552=DIRECTION('',(0.,0.,-1.));
#1553=DIRECTION('',(0.,-2.29764698804875E-16,1.));
#1554=DIRECTION('',(1.,0.,0.));
#1555=DIRECTION('',(1.,0.,0.));
#1556=DIRECTION('',(0.,0.,-1.));
#1557=DIRECTION('',(0.,-2.29764698804875E-16,1.));
#1558=DIRECTION('',(1.,0.,0.));
#1559=DIRECTION('',(1.22508720054859E-16,-1.,-2.29764698804875E-16));
#1560=DIRECTION('',(-1.,-1.22508720054859E-16,-2.81481791643755E-32));
#1561=DIRECTION('',(1.22508720054859E-16,-1.,0.));
#1562=DIRECTION('',(0.,-2.29764698804875E-16,1.));
#1563=DIRECTION('',(0.,1.,2.29764698804875E-16));
#1564=DIRECTION('',(0.,-2.29764698804875E-16,1.));
#1565=DIRECTION('',(0.,0.,1.));
#1566=DIRECTION('',(1.,0.,0.));
#1567=DIRECTION('',(0.,0.,1.));
#1568=DIRECTION('',(1.,0.,0.));
#1569=DIRECTION('',(0.,1.,0.));
#1570=DIRECTION('',(0.,0.,1.));
#1571=DIRECTION('',(0.,1.,0.));
#1572=DIRECTION('',(0.,0.,1.));
#1573=DIRECTION('',(0.,1.,0.));
#1574=DIRECTION('',(0.,0.,1.));
#1575=DIRECTION('',(-1.,0.,-3.45218602184439E-16));
#1576=DIRECTION('',(-3.45218602184439E-16,0.,1.));
#1577=DIRECTION('',(-1.,0.,-3.45218602184439E-16));
#1578=DIRECTION('',(-3.45218602184439E-16,0.,1.));
#1579=DIRECTION('',(-1.,0.,-3.45218602184439E-16));
#1580=DIRECTION('',(-3.45218602184439E-16,0.,1.));
#1581=DIRECTION('',(-1.,0.,0.));
#1582=DIRECTION('',(0.,0.,1.));
#1583=DIRECTION('',(0.,0.,-1.));
#1584=DIRECTION('',(0.,1.,0.));
#1585=DIRECTION('',(0.,1.,0.));
#1586=DIRECTION('',(0.,0.,1.));
#1587=DIRECTION('',(1.,0.,0.));
#1588=DIRECTION('',(0.,0.,-1.));
#1589=DIRECTION('',(-1.,0.,0.));
#1590=DIRECTION('',(0.,2.29764698804875E-16,-1.));
#1591=DIRECTION('',(1.,0.,0.));
#1592=DIRECTION('',(0.,-1.,-2.29764698804875E-16));
#1593=DIRECTION('',(-0.866025403784439,-0.5,-1.14882349402438E-16));
#1594=DIRECTION('',(-0.866025403784439,0.5,1.14882349402438E-16));
#1595=DIRECTION('',(0.,1.,2.29764698804875E-16));
#1596=DIRECTION('',(0.866025403784439,0.5,1.14882349402437E-16));
#1597=DIRECTION('',(0.866025403784439,-0.5,-1.14882349402437E-16));
#1598=DIRECTION('',(1.,0.,0.));
#1599=DIRECTION('',(0.,0.,-1.));
#1600=DIRECTION('',(0.,2.29764698804875E-16,-1.));
#1601=DIRECTION('',(0.,2.29764698804875E-16,-1.));
#1602=DIRECTION('',(0.5,-0.866025403784439,-1.98982066057902E-16));
#1603=DIRECTION('',(0.866025403784439,0.5,0.));
#1604=DIRECTION('',(0.,2.29764698804875E-16,-1.));
#1605=DIRECTION('',(-0.5,-0.866025403784439,-1.98982066057902E-16));
#1606=DIRECTION('',(0.866025403784439,-0.5,0.));
#1607=DIRECTION('',(0.,2.29764698804875E-16,-1.));
#1608=DIRECTION('',(-1.,0.,0.));
#1609=DIRECTION('',(0.,0.,1.));
#1610=DIRECTION('',(0.,2.29764698804875E-16,-1.));
#1611=DIRECTION('',(-0.5,0.866025403784439,1.98982066057902E-16));
#1612=DIRECTION('',(-0.866025403784439,-0.5,0.));
#1613=DIRECTION('',(0.,2.29764698804875E-16,-1.));
#1614=DIRECTION('',(0.5,0.866025403784439,1.98982066057902E-16));
#1615=DIRECTION('',(-0.866025403784439,0.5,0.));
#1616=DIRECTION('',(-1.,0.,-3.45218602184439E-16));
#1617=DIRECTION('',(0.,-1.,0.));
#1618=DIRECTION('',(0.,1.,0.));
#1619=DIRECTION('',(2.16638264923374E-16,-0.778584829164477,-0.627539372306569));
#1620=DIRECTION('',(6.90437204368878E-16,0.,1.));
#1621=DIRECTION('',(1.,0.,-6.90437204368878E-16));
#1622=DIRECTION('',(6.90437204368878E-16,0.,1.));
#1623=DIRECTION('',(1.,0.,-6.90437204368878E-16));
#1624=DIRECTION('',(-1.,0.,6.90437204368878E-16));
#1625=DIRECTION('',(-1.73472347597681E-16,1.,1.19771762710649E-31));
#1626=DIRECTION('',(6.90437204368878E-16,0.,1.));
#1627=DIRECTION('',(1.,0.,-6.90437204368878E-16));
#1628=DIRECTION('',(6.90437204368878E-16,0.,1.));
#1629=DIRECTION('',(1.,0.,-6.90437204368878E-16));
#1630=DIRECTION('',(-1.,0.,-3.45218602184439E-16));
#1631=DIRECTION('',(0.,1.,0.));
#1632=DIRECTION('',(0.,-1.,0.));
#1633=DIRECTION('',(0.,0.,-1.));
#1634=DIRECTION('',(0.,0.,-1.));
#1635=DIRECTION('',(-1.,-1.73472347597681E-16,0.));
#1636=DIRECTION('',(1.73472347597681E-16,-1.,0.));
#1637=DIRECTION('',(6.90437204368878E-16,0.,1.));
#1638=DIRECTION('',(1.,0.,-6.90437204368878E-16));
#1639=DIRECTION('',(-2.68781966406171E-16,-0.627539372306569,0.778584829164477));
#1640=DIRECTION('',(0.,-0.778584829164477,-0.627539372306569));
#1641=DIRECTION('',(-0.627539372306569,0.,-0.778584829164477));
#1642=DIRECTION('',(-0.778584829164477,0.,0.627539372306569));
#1643=CARTESIAN_POINT('',(0.,0.,0.));
#1644=CARTESIAN_POINT('',(0.05,-0.0201,0.0402));
#1645=CARTESIAN_POINT('',(0.02,-0.0201,0.0402));
#1646=CARTESIAN_POINT('',(0.0231,-0.0201,0.0402));
#1647=CARTESIAN_POINT('',(0.05,-0.005,0.0402));
#1648=CARTESIAN_POINT('',(0.,-0.005,0.0402));
#1649=CARTESIAN_POINT('',(0.05,-0.005,0.0402));
#1650=CARTESIAN_POINT('',(0.,-0.0201,0.0402));
#1651=CARTESIAN_POINT('',(0.,-0.0402,0.0402));
#1652=CARTESIAN_POINT('',(0.05,-0.0402,0.0402));
#1653=CARTESIAN_POINT('',(0.05,-0.0402,0.0402));
#1654=CARTESIAN_POINT('',(0.05,-0.0201,0.0402));
#1655=CARTESIAN_POINT('',(-0.0201,-0.0402,0.0482));
#1656=CARTESIAN_POINT('',(-0.0352,-0.0402,0.0482));
#1657=CARTESIAN_POINT('',(-0.0352,-0.0402,0.0402));
#1658=CARTESIAN_POINT('',(-0.0352,-0.0402,0.0482));
#1659=CARTESIAN_POINT('',(-0.0201,-0.0402,0.0402));
#1660=CARTESIAN_POINT('',(0.,-0.0402,0.0482));
#1661=CARTESIAN_POINT('',(1.39468315282513E-17,-0.0402,0.0805));
#1662=CARTESIAN_POINT('',(-0.0352,-0.0402,0.0805));
#1663=CARTESIAN_POINT('',(-0.0352,-0.0402,0.0805));
#1664=CARTESIAN_POINT('',(-0.0352,-0.0402,0.0482));
#1665=CARTESIAN_POINT('',(-0.0352,-0.0402,0.0755));
#1666=CARTESIAN_POINT('',(-0.0352,-0.0402,0.0755));
#1667=CARTESIAN_POINT('',(-0.005,-0.0402,0.0755));
#1668=CARTESIAN_POINT('',(-0.005,-0.0402,0.080502));
#1669=CARTESIAN_POINT('',(-0.005,-0.0402,0.0482));
#1670=CARTESIAN_POINT('',(-0.0201,-0.0402,0.0482));
#1671=CARTESIAN_POINT('',(0.0049,-0.0451,0.0482));
#1672=CARTESIAN_POINT('',(-0.0201,-0.0201,0.0482));
#1673=CARTESIAN_POINT('',(-0.0173,-0.0201,0.0482));
#1674=CARTESIAN_POINT('',(-0.005,-0.0377,0.0482));
#1675=CARTESIAN_POINT('',(-0.005,-0.0352,0.0482));
#1676=CARTESIAN_POINT('',(-0.0025,-0.0352,0.0482));
#1677=CARTESIAN_POINT('',(0.,-0.0352,0.0482));
#1678=CARTESIAN_POINT('',(0.,-0.0201,0.0482));
#1679=CARTESIAN_POINT('',(0.,-0.005,0.0482));
#1680=CARTESIAN_POINT('',(0.05,-0.005,0.0482));
#1681=CARTESIAN_POINT('',(-0.0352,-0.005,0.0482));
#1682=CARTESIAN_POINT('',(-0.0352,-0.0201,0.0482));
#1683=CARTESIAN_POINT('',(0.0049,-0.005,0.01275));
#1684=CARTESIAN_POINT('',(-0.0352,-0.005,0.01275));
#1685=CARTESIAN_POINT('',(-0.0352,-0.005,0.0755));
#1686=CARTESIAN_POINT('',(0.,-0.005,0.0482));
#1687=CARTESIAN_POINT('',(0.025,-0.005,0.06035));
#1688=CARTESIAN_POINT('',(1.73299738296588E-17,-0.005,0.0805));
#1689=CARTESIAN_POINT('',(0.,-0.005,0.0482));
#1690=CARTESIAN_POINT('',(0.,-0.005,0.0755));
#1691=CARTESIAN_POINT('',(-0.0201,-0.005,0.0755));
#1692=CARTESIAN_POINT('',(0.05,-0.0201,0.0402));
#1693=CARTESIAN_POINT('',(-0.0201,-0.0602,0.0402));
#1694=CARTESIAN_POINT('',(-0.017,-0.0602,0.0402));
#1695=CARTESIAN_POINT('',(-0.0352,-0.0902,0.0402));
#1696=CARTESIAN_POINT('',(-0.0352,-0.0902,0.0402));
#1697=CARTESIAN_POINT('',(-0.0201,-0.0902,0.0402));
#1698=CARTESIAN_POINT('',(0.,-0.0902,0.0402));
#1699=CARTESIAN_POINT('',(0.,-0.0902,0.0402));
#1700=CARTESIAN_POINT('',(0.05,-0.0201,0.005));
#1701=CARTESIAN_POINT('',(-0.0201,-0.0352,0.005));
#1702=CARTESIAN_POINT('',(0.0304,-0.0352,0.005));
#1703=CARTESIAN_POINT('',(-0.005,-0.0352,0.005));
#1704=CARTESIAN_POINT('',(-0.005,-0.0529,0.005));
#1705=CARTESIAN_POINT('',(-0.005,-0.0706,0.005));
#1706=CARTESIAN_POINT('',(0.05,-0.0706,0.005));
#1707=CARTESIAN_POINT('',(0.,-0.0706,0.005));
#1708=CARTESIAN_POINT('',(0.,-0.0902,0.005));
#1709=CARTESIAN_POINT('',(0.,-0.0402,0.005));
#1710=CARTESIAN_POINT('',(0.05,-0.0402,0.005));
#1711=CARTESIAN_POINT('',(0.0304,-0.0402,0.005));
#1712=CARTESIAN_POINT('',(0.0304,-0.0706,0.005));
#1713=CARTESIAN_POINT('',(0.05,-0.0201,0.005));
#1714=CARTESIAN_POINT('',(-0.005,-0.0902,0.005));
#1715=CARTESIAN_POINT('',(-0.005,-0.0902,0.005));
#1716=CARTESIAN_POINT('',(-0.0201,-0.0706,0.005));
#1717=CARTESIAN_POINT('',(-0.0352,-0.0706,0.005));
#1718=CARTESIAN_POINT('',(-0.0352,-0.0902,0.005));
#1719=CARTESIAN_POINT('',(-0.0352,-0.0902,0.005));
#1720=CARTESIAN_POINT('',(-0.0201,-0.0902,0.005));
#1721=CARTESIAN_POINT('',(-0.0201,-0.0352,0.040202));
#1722=CARTESIAN_POINT('',(-0.0201,-0.0352,-0.0304));
#1723=CARTESIAN_POINT('',(-0.005,-0.0352,-0.0304));
#1724=CARTESIAN_POINT('',(-0.0352,-0.0352,-0.0304));
#1725=CARTESIAN_POINT('',(-0.005,-0.0352,0.040202));
#1726=CARTESIAN_POINT('',(-0.005,-0.0352,-0.05));
#1727=CARTESIAN_POINT('',(-0.0201,-0.0352,-0.05));
#1728=CARTESIAN_POINT('',(-0.0352,-0.0352,-0.05));
#1729=CARTESIAN_POINT('',(-0.0352,-0.0352,0.040202));
#1730=CARTESIAN_POINT('',(-0.0201,-0.0902,0.));
#1731=CARTESIAN_POINT('',(-0.0201,-0.0706,0.));
#1732=CARTESIAN_POINT('',(-0.0352,-0.0706,0.));
#1733=CARTESIAN_POINT('',(-0.005,-0.0706,0.));
#1734=CARTESIAN_POINT('',(-0.005,-0.0902,0.));
#1735=CARTESIAN_POINT('',(-0.005,-0.0402,0.));
#1736=CARTESIAN_POINT('',(-0.0201,-0.0402,0.));
#1737=CARTESIAN_POINT('',(0.,-0.0402,-5.20417042793042E-18));
#1738=CARTESIAN_POINT('',(0.,-0.0902,0.));
#1739=CARTESIAN_POINT('',(0.,-0.0902,0.));
#1740=CARTESIAN_POINT('',(-0.0201,-0.0902,0.));
#1741=CARTESIAN_POINT('',(-0.0402,-0.0902,-3.46944695195361E-18));
#1742=CARTESIAN_POINT('',(-0.0402,-0.0902,-3.46944695195361E-18));
#1743=CARTESIAN_POINT('',(-0.0402,-0.0402,0.));
#1744=CARTESIAN_POINT('',(-0.0201,-0.0402,0.));
#1745=CARTESIAN_POINT('',(-0.0352,-0.0402,0.));
#1746=CARTESIAN_POINT('',(-0.0352,-0.0902,0.));
#1747=CARTESIAN_POINT('',(-0.0201,-0.0402,-0.05));
#1748=CARTESIAN_POINT('',(-0.005,-0.0402,-0.05));
#1749=CARTESIAN_POINT('',(-0.005,-0.0402,-0.0304));
#1750=CARTESIAN_POINT('',(-0.0201,-0.0402,-0.0304));
#1751=CARTESIAN_POINT('',(-0.0352,-0.0402,-0.0304));
#1752=CARTESIAN_POINT('',(-0.0352,-0.0402,-0.05));
#1753=CARTESIAN_POINT('',(-0.0402,-0.0402,-0.05));
#1754=CARTESIAN_POINT('',(-0.0402,-0.0402,-0.05));
#1755=CARTESIAN_POINT('',(-0.0201,-0.0402,-0.05));
#1756=CARTESIAN_POINT('',(-3.46944695195361E-18,-0.0402,-0.05));
#1757=CARTESIAN_POINT('',(-3.46944695195361E-18,-0.0402,-0.05));
#1758=CARTESIAN_POINT('',(-0.005,-0.0201,0.040202));
#1759=CARTESIAN_POINT('',(-0.005,-0.0201,-0.0304));
#1760=CARTESIAN_POINT('',(-0.005,-0.005,-0.0304));
#1761=CARTESIAN_POINT('',(-0.005,-0.005,0.040202));
#1762=CARTESIAN_POINT('',(-0.005,-0.005,-0.05));
#1763=CARTESIAN_POINT('',(-0.005,-0.0201,-0.05));
#1764=CARTESIAN_POINT('',(0.05,-0.0201,0.));
#1765=CARTESIAN_POINT('',(0.,-0.0201,0.));
#1766=CARTESIAN_POINT('',(0.,-0.0352,0.));
#1767=CARTESIAN_POINT('',(0.05,-0.0352,0.));
#1768=CARTESIAN_POINT('',(0.0304,-0.0352,0.));
#1769=CARTESIAN_POINT('',(0.0304,-0.0201,0.));
#1770=CARTESIAN_POINT('',(0.0304,-0.005,0.));
#1771=CARTESIAN_POINT('',(0.05,-0.005,0.));
#1772=CARTESIAN_POINT('',(0.,-0.005,0.));
#1773=CARTESIAN_POINT('',(0.,-0.0201,0.));
#1774=CARTESIAN_POINT('',(0.,0.,0.));
#1775=CARTESIAN_POINT('',(0.05,0.,0.));
#1776=CARTESIAN_POINT('',(0.05,0.,0.));
#1777=CARTESIAN_POINT('',(0.05,-0.0201,0.));
#1778=CARTESIAN_POINT('',(0.05,-0.0402,-5.20417042793042E-18));
#1779=CARTESIAN_POINT('',(0.05,-0.0402,-5.20417042793042E-18));
#1780=CARTESIAN_POINT('',(0.,-0.0902,0.0201));
#1781=CARTESIAN_POINT('',(0.,-0.0352,0.0201));
#1782=CARTESIAN_POINT('',(0.,-0.0352,-0.0304));
#1783=CARTESIAN_POINT('',(0.,-0.0201,-0.05));
#1784=CARTESIAN_POINT('',(0.,0.,-0.05));
#1785=CARTESIAN_POINT('',(0.,0.,0.0201));
#1786=CARTESIAN_POINT('',(0.,-0.005,0.0201));
#1787=CARTESIAN_POINT('',(0.,-0.005,-0.0304));
#1788=CARTESIAN_POINT('',(0.,-0.0902,-0.0304));
#1789=CARTESIAN_POINT('',(-0.005,-0.0902,0.0201));
#1790=CARTESIAN_POINT('',(-0.005,-0.0706,0.0201));
#1791=CARTESIAN_POINT('',(-0.005,-0.0706,0.0352));
#1792=CARTESIAN_POINT('',(-0.005,-0.0902,0.0201));
#1793=CARTESIAN_POINT('',(-0.005,-0.0902,0.0352));
#1794=CARTESIAN_POINT('',(-0.005,-0.0902,0.0352));
#1795=CARTESIAN_POINT('',(0.05,-0.0402,0.0201));
#1796=CARTESIAN_POINT('',(0.,-0.0402,0.0201));
#1797=CARTESIAN_POINT('',(0.,-0.0402,0.0352));
#1798=CARTESIAN_POINT('',(0.05,-0.0402,0.0352));
#1799=CARTESIAN_POINT('',(0.0304,-0.0402,0.0352));
#1800=CARTESIAN_POINT('',(0.0304,-0.0402,0.0201));
#1801=CARTESIAN_POINT('',(0.,-0.0402,0.0201));
#1802=CARTESIAN_POINT('',(0.05,-0.0402,0.0201));
#1803=CARTESIAN_POINT('',(0.,-0.0902,0.0201));
#1804=CARTESIAN_POINT('',(0.,-0.0902,0.0352));
#1805=CARTESIAN_POINT('',(0.,-0.0706,0.0352));
#1806=CARTESIAN_POINT('',(0.,-0.0902,0.0201));
#1807=CARTESIAN_POINT('',(0.,-0.0706,0.0201));
#1808=CARTESIAN_POINT('',(0.05,0.,0.0201));
#1809=CARTESIAN_POINT('',(-0.0402,0.,0.0201));
#1810=CARTESIAN_POINT('',(-0.0402,-3.46944695195361E-18,-0.05));
#1811=CARTESIAN_POINT('',(-0.0402,0.,0.0805));
#1812=CARTESIAN_POINT('',(-0.0201,0.,0.0805));
#1813=CARTESIAN_POINT('',(1.73299738296588E-17,0.,0.0805));
#1814=CARTESIAN_POINT('',(0.025,0.,0.06035));
#1815=CARTESIAN_POINT('',(0.05,-1.38777878078145E-17,0.0402));
#1816=CARTESIAN_POINT('',(0.05,0.,0.0201));
#1817=CARTESIAN_POINT('',(-0.0201,0.,-0.05));
#1818=CARTESIAN_POINT('',(-0.0201,0.,-0.02));
#1819=CARTESIAN_POINT('',(-0.0201,0.,-0.0169));
#1820=CARTESIAN_POINT('',(0.02,0.,0.0201));
#1821=CARTESIAN_POINT('',(0.02,0.,0.0232));
#1822=CARTESIAN_POINT('',(-0.0201,0.,0.0201));
#1823=CARTESIAN_POINT('',(-0.0201,0.,0.0232));
#1824=CARTESIAN_POINT('',(0.05,-0.0352,0.0201));
#1825=CARTESIAN_POINT('',(0.0304,-0.0352,0.0201));
#1826=CARTESIAN_POINT('',(0.0304,-0.0352,0.0352));
#1827=CARTESIAN_POINT('',(0.05,-0.0352,0.0352));
#1828=CARTESIAN_POINT('',(0.05,-0.0352,0.0352));
#1829=CARTESIAN_POINT('',(0.05,-0.0352,0.0201));
#1830=CARTESIAN_POINT('',(0.05,-0.0352,0.005));
#1831=CARTESIAN_POINT('',(0.05,-0.0352,0.005));
#1832=CARTESIAN_POINT('',(0.05,-0.0201,0.0352));
#1833=CARTESIAN_POINT('',(-0.01805,-0.0236507041555162,0.0352));
#1834=CARTESIAN_POINT('',(-0.016,-0.0224671361036775,0.0352));
#1835=CARTESIAN_POINT('',(-0.0201,-0.024834272207355,0.0352));
#1836=CARTESIAN_POINT('',(-0.016,-0.0201,0.0352));
#1837=CARTESIAN_POINT('',(-0.016,-0.0177328638963225,0.0352));
#1838=CARTESIAN_POINT('',(-0.01805,-0.0165492958444838,0.0352));
#1839=CARTESIAN_POINT('',(-0.0201,-0.0153657277926451,0.0352));
#1840=CARTESIAN_POINT('',(-0.02215,-0.0165492958444838,0.0352));
#1841=CARTESIAN_POINT('',(-0.0242,-0.0177328638963225,0.0352));
#1842=CARTESIAN_POINT('',(-0.0242,-0.0201,0.0352));
#1843=CARTESIAN_POINT('',(-0.0242,-0.0224671361036775,0.0352));
#1844=CARTESIAN_POINT('',(-0.02215,-0.0236507041555162,0.0352));
#1845=CARTESIAN_POINT('',(-0.0201,-0.0602,0.0352));
#1846=CARTESIAN_POINT('',(-0.0201,-0.0633,0.0352));
#1847=CARTESIAN_POINT('',(0.02,-0.0201,0.0352));
#1848=CARTESIAN_POINT('',(0.02,-0.0232,0.0352));
#1849=CARTESIAN_POINT('',(0.0304,-0.0706,0.0352));
#1850=CARTESIAN_POINT('',(0.05,-0.0706,0.0352));
#1851=CARTESIAN_POINT('',(-0.0201,-0.0902,0.0352));
#1852=CARTESIAN_POINT('',(-0.0352,-0.0902,0.0352));
#1853=CARTESIAN_POINT('',(-0.0352,-0.0902,0.0352));
#1854=CARTESIAN_POINT('',(-0.0352,-0.005,0.0352));
#1855=CARTESIAN_POINT('',(0.05,-0.005,0.0352));
#1856=CARTESIAN_POINT('',(0.05,-0.005,0.0352));
#1857=CARTESIAN_POINT('',(0.05,-0.0201,0.0352));
#1858=CARTESIAN_POINT('',(0.05,-0.005,0.0201));
#1859=CARTESIAN_POINT('',(-0.0201,-0.005,-0.02));
#1860=CARTESIAN_POINT('',(-0.0201,-0.005,-0.0169));
#1861=CARTESIAN_POINT('',(0.02,-0.005,0.0201));
#1862=CARTESIAN_POINT('',(0.02,-0.005,0.0232));
#1863=CARTESIAN_POINT('',(-0.0201,-0.005,0.0201));
#1864=CARTESIAN_POINT('',(-0.0201,-0.005,0.0232));
#1865=CARTESIAN_POINT('',(0.05,-0.005,-0.0304));
#1866=CARTESIAN_POINT('',(0.0304,-0.005,-0.0304));
#1867=CARTESIAN_POINT('',(0.0304,-0.005,0.005));
#1868=CARTESIAN_POINT('',(0.05,-0.005,0.005));
#1869=CARTESIAN_POINT('',(0.05,-0.005,0.005));
#1870=CARTESIAN_POINT('',(0.05,-0.005,0.0201));
#1871=CARTESIAN_POINT('',(-0.0352,-0.005,0.0201));
#1872=CARTESIAN_POINT('',(-0.0352,-0.005,-0.05));
#1873=CARTESIAN_POINT('',(-0.0201,-0.005,-0.05));
#1874=CARTESIAN_POINT('',(0.05,-0.0201,0.005));
#1875=CARTESIAN_POINT('',(0.0304,-0.0201,0.005));
#1876=CARTESIAN_POINT('',(0.05,-0.0201,0.005));
#1877=CARTESIAN_POINT('',(0.05,-0.0201,0.0201));
#1878=CARTESIAN_POINT('',(0.05,-0.0201,0.0402));
#1879=CARTESIAN_POINT('',(-0.0352,-0.0902,0.0201));
#1880=CARTESIAN_POINT('',(-0.0352,-0.0602,0.0201));
#1881=CARTESIAN_POINT('',(-0.0352,-0.0602,0.017));
#1882=CARTESIAN_POINT('',(-0.0352,-0.0201,-0.02));
#1883=CARTESIAN_POINT('',(-0.0352,-0.0201,-0.0231));
#1884=CARTESIAN_POINT('',(-0.0352,-0.0201,0.0201));
#1885=CARTESIAN_POINT('',(-0.0352,-0.0201,0.017));
#1886=CARTESIAN_POINT('',(-0.0352,-0.0902,0.0201));
#1887=CARTESIAN_POINT('',(-0.0352,-0.0706,-0.0304));
#1888=CARTESIAN_POINT('',(-0.0352,-0.0902,-0.0304));
#1889=CARTESIAN_POINT('',(-0.0352,-0.0201,-0.05));
#1890=CARTESIAN_POINT('',(-0.0402,-0.0902,0.0201));
#1891=CARTESIAN_POINT('',(-0.0402,-0.0902,0.0201));
#1892=CARTESIAN_POINT('',(-0.0402,-0.0902,0.0402));
#1893=CARTESIAN_POINT('',(-0.0402,-0.0652,0.06035));
#1894=CARTESIAN_POINT('',(-0.0402,-0.0402,0.0805));
#1895=CARTESIAN_POINT('',(-0.0402,-0.005,0.0805));
#1896=CARTESIAN_POINT('',(-0.0402,-0.0201,-0.05));
#1897=CARTESIAN_POINT('',(-0.0402,-0.0602,0.0201));
#1898=CARTESIAN_POINT('',(-0.0402,-0.0602,0.0232));
#1899=CARTESIAN_POINT('',(-0.0402,-0.0201,-0.02));
#1900=CARTESIAN_POINT('',(-0.0402,-0.0201,-0.0169));
#1901=CARTESIAN_POINT('',(-0.0402,-0.0201,0.0201));
#1902=CARTESIAN_POINT('',(-0.0402,-0.0201,0.0232));
#1903=CARTESIAN_POINT('',(-0.0201,-0.0902,0.0201));
#1904=CARTESIAN_POINT('',(-0.035198,-0.0902,0.0402));
#1905=CARTESIAN_POINT('',(-0.0201,-0.0352,0.040202));
#1906=CARTESIAN_POINT('',(0.0127,-0.0352,-0.0304));
#1907=CARTESIAN_POINT('',(-0.005,-0.0352,-0.0304));
#1908=CARTESIAN_POINT('',(0.0304,-0.0352,-0.0304));
#1909=CARTESIAN_POINT('',(-0.0201,-0.0201,-0.05));
#1910=CARTESIAN_POINT('',(0.0225,-0.0706,0.0201));
#1911=CARTESIAN_POINT('',(0.0304,-0.0706,0.0201));
#1912=CARTESIAN_POINT('',(0.0074,-0.0476,-0.0304));
#1913=CARTESIAN_POINT('',(0.0304,-0.0201,-0.0304));
#1914=CARTESIAN_POINT('',(-0.0024,-0.0627,-0.0304));
#1915=CARTESIAN_POINT('',(-0.005,-0.0529,-0.0304));
#1916=CARTESIAN_POINT('',(-0.005,-0.0529,-0.0304));
#1917=CARTESIAN_POINT('',(-0.005,-0.0706,-0.0304));
#1918=CARTESIAN_POINT('',(-0.0201,-0.0706,-0.0304));
#1919=CARTESIAN_POINT('',(0.02,-0.0201,-0.050002));
#1920=CARTESIAN_POINT('',(-0.0201,-0.0602,-0.050002));
#1921=CARTESIAN_POINT('',(-0.0201,-0.090202,0.0201));
#1922=CARTESIAN_POINT('',(0.02,-0.090202,0.0201));
#1923=CARTESIAN_POINT('',(-0.0201,-0.090202,-0.02));
#1924=CARTESIAN_POINT('',(0.050002,-0.0201,0.0201));
#1925=CARTESIAN_POINT('',(0.050002,-0.0201,-0.02));
#1926=CARTESIAN_POINT('',(0.050002,-0.0602,0.0201));
#1927=CARTESIAN_POINT('',(0.,-0.0201,0.0482));
#1928=CARTESIAN_POINT('',(0.,-0.0352,0.080502));
#1929=CARTESIAN_POINT('',(1.38777878078145E-17,-0.0352,0.0755));
#1930=CARTESIAN_POINT('',(1.38777878078145E-17,-0.005,0.0755));
#1931=CARTESIAN_POINT('',(1.73299738296588E-17,-0.005,0.0805));
#1932=CARTESIAN_POINT('',(-0.0201,-0.0201,0.040198));
#1933=CARTESIAN_POINT('',(-0.0201,-0.0201,0.0402));
#1934=CARTESIAN_POINT('',(-0.0229,-0.0201,0.0402));
#1935=CARTESIAN_POINT('',(0.0074,-0.0476,0.0402));
#1936=CARTESIAN_POINT('',(-0.016,-0.0201,0.0402));
#1937=CARTESIAN_POINT('',(-0.016,-0.0177328638963225,0.0402));
#1938=CARTESIAN_POINT('',(-0.016,-0.0224671361036775,0.0402));
#1939=CARTESIAN_POINT('',(-0.01805,-0.0236507041555162,0.0402));
#1940=CARTESIAN_POINT('',(-0.0201,-0.024834272207355,0.0402));
#1941=CARTESIAN_POINT('',(-0.02215,-0.0236507041555162,0.0402));
#1942=CARTESIAN_POINT('',(-0.0242,-0.0224671361036775,0.0402));
#1943=CARTESIAN_POINT('',(-0.0242,-0.0201,0.0402));
#1944=CARTESIAN_POINT('',(-0.0242,-0.0177328638963225,0.0402));
#1945=CARTESIAN_POINT('',(-0.02215,-0.0165492958444838,0.0402));
#1946=CARTESIAN_POINT('',(-0.0201,-0.0153657277926451,0.0402));
#1947=CARTESIAN_POINT('',(-0.01805,-0.0165492958444838,0.0402));
#1948=CARTESIAN_POINT('',(-0.016,-0.0201,0.0402));
#1949=CARTESIAN_POINT('',(-0.016,-0.0224671361036775,0.0402));
#1950=CARTESIAN_POINT('',(-0.016,-0.0177328638963225,0.0402));
#1951=CARTESIAN_POINT('',(-0.01805,-0.0236507041555162,0.0402));
#1952=CARTESIAN_POINT('',(-0.0201,-0.024834272207355,0.0402));
#1953=CARTESIAN_POINT('',(-0.02215,-0.0236507041555162,0.0402));
#1954=CARTESIAN_POINT('',(-0.0242,-0.0224671361036775,0.0402));
#1955=CARTESIAN_POINT('',(-0.0242,-0.0201,0.0402));
#1956=CARTESIAN_POINT('',(-0.0242,-0.0177328638963225,0.0402));
#1957=CARTESIAN_POINT('',(-0.02215,-0.0165492958444838,0.0402));
#1958=CARTESIAN_POINT('',(-0.0201,-0.0153657277926451,0.0402));
#1959=CARTESIAN_POINT('',(-0.01805,-0.0165492958444838,0.0402));
#1960=CARTESIAN_POINT('',(-0.0352,-0.0451,0.01275));
#1961=CARTESIAN_POINT('',(-0.0352,-0.005,0.0755));
#1962=CARTESIAN_POINT('',(-0.0352,-0.0652,0.06035));
#1963=CARTESIAN_POINT('',(-0.0201,-0.0201,0.0755));
#1964=CARTESIAN_POINT('',(-0.0201,-0.0201,0.0755));
#1965=CARTESIAN_POINT('',(-0.0173,-0.0201,0.0755));
#1966=CARTESIAN_POINT('',(-0.0025,-0.0352,0.0755));
#1967=CARTESIAN_POINT('',(-0.005,-0.0352,0.0755));
#1968=CARTESIAN_POINT('',(-0.005,-0.0377,0.0755));
#1969=CARTESIAN_POINT('',(-0.0201,-0.0201,0.0805));
#1970=CARTESIAN_POINT('',(-0.0201,-0.0201,0.0805));
#1971=CARTESIAN_POINT('',(-0.0173,-0.0201,0.0805));
#1972=CARTESIAN_POINT('',(-0.035198,-0.0402,0.0805));
#1973=CARTESIAN_POINT('',(1.73299738296588E-17,-0.005002,0.0805));
#1974=CARTESIAN_POINT('',(-0.0025,-0.0352,0.080502));
#1975=CARTESIAN_POINT('',(-0.005,-0.0352,0.080502));
#1976=CARTESIAN_POINT('',(-0.005,-0.0377,0.080502));
#1977=CARTESIAN_POINT('',(-0.0201,-0.0201,-0.050002));
#1978=CARTESIAN_POINT('',(-0.035198,-0.0652,0.06035));
#1979=CARTESIAN_POINT('',(0.025,-0.005002,0.06035));
#1980=MECHANICAL_DESIGN_GEOMETRIC_PRESENTATION_REPRESENTATION('',(#1246),
#1981);
#1981=(
GEOMETRIC_REPRESENTATION_CONTEXT(3)
GLOBAL_UNCERTAINTY_ASSIGNED_CONTEXT((#1982))
GLOBAL_UNIT_ASSIGNED_CONTEXT((#1985,#1984,#1983))
REPRESENTATION_CONTEXT('Back Corner Brackets','TOP_LEVEL_ASSEMBLY_PART')
);
#1982=UNCERTAINTY_MEASURE_WITH_UNIT(LENGTH_MEASURE(1.E-8),#1985,
'DISTANCE_ACCURACY_VALUE','Maximum Tolerance applied to model');
#1983=(
NAMED_UNIT(*)
SI_UNIT($,.STERADIAN.)
SOLID_ANGLE_UNIT()
);
#1984=(
NAMED_UNIT(*)
PLANE_ANGLE_UNIT()
SI_UNIT($,.RADIAN.)
);
#1985=(
LENGTH_UNIT()
NAMED_UNIT(*)
SI_UNIT($,.METRE.)
);
#1986=PRODUCT_DEFINITION_SHAPE('','',#1987);
#1987=PRODUCT_DEFINITION('','',#1989,#1988);
#1988=PRODUCT_DEFINITION_CONTEXT('',#1995,'design');
#1989=PRODUCT_DEFINITION_FORMATION_WITH_SPECIFIED_SOURCE('','',#1991,
 .NOT_KNOWN.);
#1990=PRODUCT_RELATED_PRODUCT_CATEGORY('','',(#1991));
#1991=PRODUCT('Back Corner Brackets','Back Corner Brackets',
'Back Corner Brackets',(#1993));
#1992=PRODUCT_CATEGORY('','');
#1993=PRODUCT_CONTEXT('',#1995,'mechanical');
#1994=APPLICATION_PROTOCOL_DEFINITION('international standard',
'automotive_design',2010,#1995);
#1995=APPLICATION_CONTEXT(
'core data for automotive mechanical design processes');
ENDSEC;
END-ISO-10303-21;
