ISO-10303-21;
HEADER;
/* Generated by software containing ST-Developer
 * from STEP Tools, Inc. (www.steptools.com) 
 */
/* OPTION: using custom renumber hook */

FILE_DESCRIPTION(
/* description */ ('STEP AP214',
'CAx-IF Rec.Pracs.---User Defined Attributes---1.5---2016-08-15'),
/* implementation_level */ '2;1');

FILE_NAME(
/* name */ '6a95d9e5d62aea1f597608ec',
/* time_stamp */ '2026-08-31T19:45:42Z',
/* author */ (''),
/* organization */ (''),
/* preprocessor_version */ 'ST-DEVELOPER v20',
/* originating_system */ 'ONSHAPE BY PTC INC, 1.220',
/* authorisation */ '  ');

FILE_SCHEMA (('AUTOMOTIVE_DESIGN {1 0 10303 214 3 1 1}'));
ENDSEC;

DATA;
#10=PROPERTY_DEFINITION_REPRESENTATION(#14,#12);
#11=PROPERTY_DEFINITION_REPRESENTATION(#15,#13);
#12=REPRESENTATION('',(#16),#2163);
#13=REPRESENTATION('',(#17),#2163);
#14=PROPERTY_DEFINITION('pmi validation property','',#2168);
#15=PROPERTY_DEFINITION('pmi validation property','',#2168);
#16=VALUE_REPRESENTATION_ITEM('number of annotations',COUNT_MEASURE(0.));
#17=VALUE_REPRESENTATION_ITEM('number of views',COUNT_MEASURE(0.));
#18=SHAPE_REPRESENTATION_RELATIONSHIP('','',#1373,#19);
#19=ADVANCED_BREP_SHAPE_REPRESENTATION('',(#1371),#2163);
#20=LINE('',#1795,#198);
#21=LINE('',#1798,#199);
#22=LINE('',#1800,#200);
#23=LINE('',#1802,#201);
#24=LINE('',#1804,#202);
#25=LINE('',#1806,#203);
#26=LINE('',#1808,#204);
#27=LINE('',#1811,#205);
#28=LINE('',#1813,#206);
#29=LINE('',#1815,#207);
#30=LINE('',#1817,#208);
#31=LINE('',#1820,#209);
#32=LINE('',#1822,#210);
#33=LINE('',#1824,#211);
#34=LINE('',#1826,#212);
#35=LINE('',#1828,#213);
#36=LINE('',#1830,#214);
#37=LINE('',#1833,#215);
#38=LINE('',#1834,#216);
#39=LINE('',#1836,#217);
#40=LINE('',#1838,#218);
#41=LINE('',#1839,#219);
#42=LINE('',#1841,#220);
#43=LINE('',#1843,#221);
#44=LINE('',#1844,#222);
#45=LINE('',#1849,#223);
#46=LINE('',#1853,#224);
#47=LINE('',#1855,#225);
#48=LINE('',#1857,#226);
#49=LINE('',#1859,#227);
#50=LINE('',#1861,#228);
#51=LINE('',#1862,#229);
#52=LINE('',#1864,#230);
#53=LINE('',#1867,#231);
#54=LINE('',#1869,#232);
#55=LINE('',#1871,#233);
#56=LINE('',#1877,#234);
#57=LINE('',#1879,#235);
#58=LINE('',#1880,#236);
#59=LINE('',#1882,#237);
#60=LINE('',#1884,#238);
#61=LINE('',#1885,#239);
#62=LINE('',#1886,#240);
#63=LINE('',#1888,#241);
#64=LINE('',#1890,#242);
#65=LINE('',#1892,#243);
#66=LINE('',#1894,#244);
#67=LINE('',#1896,#245);
#68=LINE('',#1898,#246);
#69=LINE('',#1900,#247);
#70=LINE('',#1902,#248);
#71=LINE('',#1904,#249);
#72=LINE('',#1906,#250);
#73=LINE('',#1908,#251);
#74=LINE('',#1910,#252);
#75=LINE('',#1912,#253);
#76=LINE('',#1915,#254);
#77=LINE('',#1917,#255);
#78=LINE('',#1919,#256);
#79=LINE('',#1921,#257);
#80=LINE('',#1923,#258);
#81=LINE('',#1924,#259);
#82=LINE('',#1927,#260);
#83=LINE('',#1929,#261);
#84=LINE('',#1931,#262);
#85=LINE('',#1933,#263);
#86=LINE('',#1935,#264);
#87=LINE('',#1936,#265);
#88=LINE('',#1938,#266);
#89=LINE('',#1940,#267);
#90=LINE('',#1942,#268);
#91=LINE('',#1944,#269);
#92=LINE('',#1946,#270);
#93=LINE('',#1948,#271);
#94=LINE('',#1950,#272);
#95=LINE('',#1952,#273);
#96=LINE('',#1954,#274);
#97=LINE('',#1956,#275);
#98=LINE('',#1958,#276);
#99=LINE('',#1960,#277);
#100=LINE('',#1962,#278);
#101=LINE('',#1964,#279);
#102=LINE('',#1966,#280);
#103=LINE('',#1968,#281);
#104=LINE('',#1971,#282);
#105=LINE('',#1973,#283);
#106=LINE('',#1975,#284);
#107=LINE('',#1977,#285);
#108=LINE('',#1979,#286);
#109=LINE('',#1981,#287);
#110=LINE('',#1982,#288);
#111=LINE('',#1984,#289);
#112=LINE('',#1986,#290);
#113=LINE('',#1988,#291);
#114=LINE('',#1990,#292);
#115=LINE('',#1992,#293);
#116=LINE('',#1994,#294);
#117=LINE('',#1996,#295);
#118=LINE('',#1998,#296);
#119=LINE('',#2000,#297);
#120=LINE('',#2002,#298);
#121=LINE('',#2004,#299);
#122=LINE('',#2006,#300);
#123=LINE('',#2008,#301);
#124=LINE('',#2010,#302);
#125=LINE('',#2012,#303);
#126=LINE('',#2014,#304);
#127=LINE('',#2016,#305);
#128=LINE('',#2018,#306);
#129=LINE('',#2019,#307);
#130=LINE('',#2021,#308);
#131=LINE('',#2023,#309);
#132=LINE('',#2025,#310);
#133=LINE('',#2027,#311);
#134=LINE('',#2029,#312);
#135=LINE('',#2031,#313);
#136=LINE('',#2033,#314);
#137=LINE('',#2035,#315);
#138=LINE('',#2037,#316);
#139=LINE('',#2039,#317);
#140=LINE('',#2041,#318);
#141=LINE('',#2043,#319);
#142=LINE('',#2045,#320);
#143=LINE('',#2047,#321);
#144=LINE('',#2049,#322);
#145=LINE('',#2052,#323);
#146=LINE('',#2054,#324);
#147=LINE('',#2056,#325);
#148=LINE('',#2058,#326);
#149=LINE('',#2060,#327);
#150=LINE('',#2062,#328);
#151=LINE('',#2064,#329);
#152=LINE('',#2067,#330);
#153=LINE('',#2069,#331);
#154=LINE('',#2071,#332);
#155=LINE('',#2073,#333);
#156=LINE('',#2075,#334);
#157=LINE('',#2077,#335);
#158=LINE('',#2079,#336);
#159=LINE('',#2080,#337);
#160=LINE('',#2082,#338);
#161=LINE('',#2084,#339);
#162=LINE('',#2086,#340);
#163=LINE('',#2090,#341);
#164=LINE('',#2092,#342);
#165=LINE('',#2094,#343);
#166=LINE('',#2096,#344);
#167=LINE('',#2098,#345);
#168=LINE('',#2100,#346);
#169=LINE('',#2102,#347);
#170=LINE('',#2104,#348);
#171=LINE('',#2106,#349);
#172=LINE('',#2107,#350);
#173=LINE('',#2109,#351);
#174=LINE('',#2113,#352);
#175=LINE('',#2115,#353);
#176=LINE('',#2117,#354);
#177=LINE('',#2119,#355);
#178=LINE('',#2121,#356);
#179=LINE('',#2123,#357);
#180=LINE('',#2125,#358);
#181=LINE('',#2127,#359);
#182=LINE('',#2129,#360);
#183=LINE('',#2131,#361);
#184=LINE('',#2133,#362);
#185=LINE('',#2135,#363);
#186=LINE('',#2138,#364);
#187=LINE('',#2140,#365);
#188=LINE('',#2142,#366);
#189=LINE('',#2144,#367);
#190=LINE('',#2146,#368);
#191=LINE('',#2148,#369);
#192=LINE('',#2150,#370);
#193=LINE('',#2152,#371);
#194=LINE('',#2154,#372);
#195=LINE('',#2156,#373);
#196=LINE('',#2158,#374);
#197=LINE('',#2160,#375);
#198=VECTOR('',#1467,1.);
#199=VECTOR('',#1468,1.);
#200=VECTOR('',#1469,1.);
#201=VECTOR('',#1470,1.);
#202=VECTOR('',#1471,1.);
#203=VECTOR('',#1472,1.);
#204=VECTOR('',#1475,1.);
#205=VECTOR('',#1476,1.);
#206=VECTOR('',#1477,1.);
#207=VECTOR('',#1478,1.);
#208=VECTOR('',#1481,1.);
#209=VECTOR('',#1482,1.);
#210=VECTOR('',#1483,1.);
#211=VECTOR('',#1484,1.);
#212=VECTOR('',#1485,1.);
#213=VECTOR('',#1486,1.);
#214=VECTOR('',#1489,1.);
#215=VECTOR('',#1490,1.);
#216=VECTOR('',#1491,1.);
#217=VECTOR('',#1492,1.);
#218=VECTOR('',#1493,1.);
#219=VECTOR('',#1494,1.);
#220=VECTOR('',#1495,1.);
#221=VECTOR('',#1496,1.);
#222=VECTOR('',#1497,1.);
#223=VECTOR('',#1502,1.);
#224=VECTOR('',#1505,1.);
#225=VECTOR('',#1508,1.);
#226=VECTOR('',#1509,1.);
#227=VECTOR('',#1510,1.);
#228=VECTOR('',#1513,1.);
#229=VECTOR('',#1514,1.);
#230=VECTOR('',#1517,1.);
#231=VECTOR('',#1518,1.);
#232=VECTOR('',#1519,1.);
#233=VECTOR('',#1520,1.);
#234=VECTOR('',#1527,1.);
#235=VECTOR('',#1530,1.);
#236=VECTOR('',#1531,1.);
#237=VECTOR('',#1534,1.);
#238=VECTOR('',#1535,1.);
#239=VECTOR('',#1536,1.);
#240=VECTOR('',#1537,1.);
#241=VECTOR('',#1538,1.);
#242=VECTOR('',#1539,1.);
#243=VECTOR('',#1540,1.);
#244=VECTOR('',#1541,1.);
#245=VECTOR('',#1542,1.);
#246=VECTOR('',#1543,1.);
#247=VECTOR('',#1544,1.);
#248=VECTOR('',#1545,1.);
#249=VECTOR('',#1546,1.);
#250=VECTOR('',#1549,1.);
#251=VECTOR('',#1550,1.);
#252=VECTOR('',#1551,1.);
#253=VECTOR('',#1554,1.);
#254=VECTOR('',#1555,1.);
#255=VECTOR('',#1556,1.);
#256=VECTOR('',#1557,1.);
#257=VECTOR('',#1558,1.);
#258=VECTOR('',#1559,1.);
#259=VECTOR('',#1560,1.);
#260=VECTOR('',#1561,1.);
#261=VECTOR('',#1562,1.);
#262=VECTOR('',#1563,1.);
#263=VECTOR('',#1564,1.);
#264=VECTOR('',#1565,1.);
#265=VECTOR('',#1566,1.);
#266=VECTOR('',#1567,1.);
#267=VECTOR('',#1568,1.);
#268=VECTOR('',#1571,1.);
#269=VECTOR('',#1572,1.);
#270=VECTOR('',#1573,1.);
#271=VECTOR('',#1576,1.);
#272=VECTOR('',#1577,1.);
#273=VECTOR('',#1578,1.);
#274=VECTOR('',#1579,1.);
#275=VECTOR('',#1580,1.);
#276=VECTOR('',#1581,1.);
#277=VECTOR('',#1582,1.);
#278=VECTOR('',#1585,1.);
#279=VECTOR('',#1586,1.);
#280=VECTOR('',#1587,1.);
#281=VECTOR('',#1590,1.);
#282=VECTOR('',#1591,1.);
#283=VECTOR('',#1592,1.);
#284=VECTOR('',#1593,1.);
#285=VECTOR('',#1594,1.);
#286=VECTOR('',#1595,1.);
#287=VECTOR('',#1596,1.);
#288=VECTOR('',#1597,1.);
#289=VECTOR('',#1598,1.);
#290=VECTOR('',#1599,1.);
#291=VECTOR('',#1600,1.);
#292=VECTOR('',#1603,1.);
#293=VECTOR('',#1604,1.);
#294=VECTOR('',#1605,1.);
#295=VECTOR('',#1608,1.);
#296=VECTOR('',#1609,1.);
#297=VECTOR('',#1610,1.);
#298=VECTOR('',#1611,1.);
#299=VECTOR('',#1612,1.);
#300=VECTOR('',#1613,1.);
#301=VECTOR('',#1614,1.);
#302=VECTOR('',#1615,1.);
#303=VECTOR('',#1616,1.);
#304=VECTOR('',#1617,1.);
#305=VECTOR('',#1618,1.);
#306=VECTOR('',#1621,1.);
#307=VECTOR('',#1622,1.);
#308=VECTOR('',#1625,1.);
#309=VECTOR('',#1626,1.);
#310=VECTOR('',#1627,1.);
#311=VECTOR('',#1628,1.);
#312=VECTOR('',#1631,1.);
#313=VECTOR('',#1632,1.);
#314=VECTOR('',#1633,1.);
#315=VECTOR('',#1634,1.);
#316=VECTOR('',#1637,1.);
#317=VECTOR('',#1638,1.);
#318=VECTOR('',#1639,1.);
#319=VECTOR('',#1640,1.);
#320=VECTOR('',#1643,1.);
#321=VECTOR('',#1646,1.);
#322=VECTOR('',#1649,1.);
#323=VECTOR('',#1654,1.);
#324=VECTOR('',#1655,1.);
#325=VECTOR('',#1656,1.);
#326=VECTOR('',#1657,1.);
#327=VECTOR('',#1660,1.);
#328=VECTOR('',#1663,1.);
#329=VECTOR('',#1666,1.);
#330=VECTOR('',#1671,1.);
#331=VECTOR('',#1672,1.);
#332=VECTOR('',#1675,1.);
#333=VECTOR('',#1678,1.);
#334=VECTOR('',#1681,1.);
#335=VECTOR('',#1684,1.);
#336=VECTOR('',#1687,1.);
#337=VECTOR('',#1688,1.);
#338=VECTOR('',#1691,1.);
#339=VECTOR('',#1692,1.);
#340=VECTOR('',#1695,1.);
#341=VECTOR('',#1702,1.);
#342=VECTOR('',#1705,1.);
#343=VECTOR('',#1708,1.);
#344=VECTOR('',#1709,1.);
#345=VECTOR('',#1712,1.);
#346=VECTOR('',#1713,1.);
#347=VECTOR('',#1716,1.);
#348=VECTOR('',#1719,1.);
#349=VECTOR('',#1722,1.);
#350=VECTOR('',#1723,1.);
#351=VECTOR('',#1726,1.);
#352=VECTOR('',#1733,1.);
#353=VECTOR('',#1734,1.);
#354=VECTOR('',#1735,1.);
#355=VECTOR('',#1738,1.);
#356=VECTOR('',#1739,1.);
#357=VECTOR('',#1742,1.);
#358=VECTOR('',#1743,1.);
#359=VECTOR('',#1746,1.);
#360=VECTOR('',#1747,1.);
#361=VECTOR('',#1750,1.);
#362=VECTOR('',#1751,1.);
#363=VECTOR('',#1754,1.);
#364=VECTOR('',#1759,1.);
#365=VECTOR('',#1760,1.);
#366=VECTOR('',#1761,1.);
#367=VECTOR('',#1764,1.);
#368=VECTOR('',#1765,1.);
#369=VECTOR('',#1768,1.);
#370=VECTOR('',#1769,1.);
#371=VECTOR('',#1772,1.);
#372=VECTOR('',#1773,1.);
#373=VECTOR('',#1776,1.);
#374=VECTOR('',#1777,1.);
#375=VECTOR('',#1780,1.);
#376=PLANE('',#1381);
#377=PLANE('',#1382);
#378=PLANE('',#1383);
#379=PLANE('',#1384);
#380=PLANE('',#1388);
#381=PLANE('',#1389);
#382=PLANE('',#1390);
#383=PLANE('',#1394);
#384=PLANE('',#1395);
#385=PLANE('',#1396);
#386=PLANE('',#1397);
#387=PLANE('',#1398);
#388=PLANE('',#1399);
#389=PLANE('',#1400);
#390=PLANE('',#1401);
#391=PLANE('',#1402);
#392=PLANE('',#1403);
#393=PLANE('',#1404);
#394=PLANE('',#1405);
#395=PLANE('',#1406);
#396=PLANE('',#1407);
#397=PLANE('',#1408);
#398=PLANE('',#1409);
#399=PLANE('',#1410);
#400=PLANE('',#1411);
#401=PLANE('',#1412);
#402=PLANE('',#1413);
#403=PLANE('',#1414);
#404=PLANE('',#1415);
#405=PLANE('',#1416);
#406=PLANE('',#1417);
#407=PLANE('',#1418);
#408=PLANE('',#1419);
#409=PLANE('',#1420);
#410=PLANE('',#1421);
#411=PLANE('',#1422);
#412=PLANE('',#1423);
#413=PLANE('',#1424);
#414=PLANE('',#1425);
#415=PLANE('',#1426);
#416=PLANE('',#1427);
#417=PLANE('',#1428);
#418=PLANE('',#1429);
#419=PLANE('',#1430);
#420=PLANE('',#1431);
#421=PLANE('',#1432);
#422=PLANE('',#1433);
#423=PLANE('',#1434);
#424=PLANE('',#1435);
#425=PLANE('',#1436);
#426=PLANE('',#1437);
#427=PLANE('',#1438);
#428=PLANE('',#1439);
#429=PLANE('',#1440);
#430=PLANE('',#1441);
#431=PLANE('',#1442);
#432=PLANE('',#1443);
#433=PLANE('',#1444);
#434=PLANE('',#1445);
#435=PLANE('',#1446);
#436=PLANE('',#1447);
#437=PLANE('',#1448);
#438=PLANE('',#1449);
#439=PLANE('',#1450);
#440=ORIENTED_EDGE('',*,*,#812,.T.);
#441=ORIENTED_EDGE('',*,*,#813,.F.);
#442=ORIENTED_EDGE('',*,*,#814,.T.);
#443=ORIENTED_EDGE('',*,*,#815,.F.);
#444=ORIENTED_EDGE('',*,*,#816,.F.);
#445=ORIENTED_EDGE('',*,*,#817,.T.);
#446=ORIENTED_EDGE('',*,*,#818,.T.);
#447=ORIENTED_EDGE('',*,*,#819,.F.);
#448=ORIENTED_EDGE('',*,*,#820,.T.);
#449=ORIENTED_EDGE('',*,*,#821,.F.);
#450=ORIENTED_EDGE('',*,*,#822,.F.);
#451=ORIENTED_EDGE('',*,*,#823,.F.);
#452=ORIENTED_EDGE('',*,*,#824,.F.);
#453=ORIENTED_EDGE('',*,*,#825,.T.);
#454=ORIENTED_EDGE('',*,*,#826,.F.);
#455=ORIENTED_EDGE('',*,*,#827,.F.);
#456=ORIENTED_EDGE('',*,*,#828,.F.);
#457=ORIENTED_EDGE('',*,*,#829,.T.);
#458=ORIENTED_EDGE('',*,*,#830,.F.);
#459=ORIENTED_EDGE('',*,*,#831,.T.);
#460=ORIENTED_EDGE('',*,*,#832,.T.);
#461=ORIENTED_EDGE('',*,*,#833,.T.);
#462=ORIENTED_EDGE('',*,*,#821,.T.);
#463=ORIENTED_EDGE('',*,*,#834,.F.);
#464=ORIENTED_EDGE('',*,*,#835,.F.);
#465=ORIENTED_EDGE('',*,*,#836,.T.);
#466=ORIENTED_EDGE('',*,*,#827,.T.);
#467=ORIENTED_EDGE('',*,*,#837,.F.);
#468=ORIENTED_EDGE('',*,*,#838,.T.);
#469=ORIENTED_EDGE('',*,*,#839,.T.);
#470=ORIENTED_EDGE('',*,*,#823,.T.);
#471=ORIENTED_EDGE('',*,*,#840,.F.);
#472=ORIENTED_EDGE('',*,*,#841,.F.);
#473=ORIENTED_EDGE('',*,*,#842,.T.);
#474=ORIENTED_EDGE('',*,*,#843,.T.);
#475=ORIENTED_EDGE('',*,*,#844,.F.);
#476=ORIENTED_EDGE('',*,*,#845,.F.);
#477=ORIENTED_EDGE('',*,*,#844,.T.);
#478=ORIENTED_EDGE('',*,*,#846,.T.);
#479=ORIENTED_EDGE('',*,*,#847,.F.);
#480=ORIENTED_EDGE('',*,*,#848,.F.);
#481=ORIENTED_EDGE('',*,*,#847,.T.);
#482=ORIENTED_EDGE('',*,*,#849,.T.);
#483=ORIENTED_EDGE('',*,*,#842,.F.);
#484=ORIENTED_EDGE('',*,*,#850,.F.);
#485=ORIENTED_EDGE('',*,*,#851,.T.);
#486=ORIENTED_EDGE('',*,*,#852,.T.);
#487=ORIENTED_EDGE('',*,*,#853,.F.);
#488=ORIENTED_EDGE('',*,*,#854,.F.);
#489=ORIENTED_EDGE('',*,*,#853,.T.);
#490=ORIENTED_EDGE('',*,*,#855,.T.);
#491=ORIENTED_EDGE('',*,*,#856,.F.);
#492=ORIENTED_EDGE('',*,*,#857,.F.);
#493=ORIENTED_EDGE('',*,*,#856,.T.);
#494=ORIENTED_EDGE('',*,*,#858,.T.);
#495=ORIENTED_EDGE('',*,*,#851,.F.);
#496=ORIENTED_EDGE('',*,*,#814,.F.);
#497=ORIENTED_EDGE('',*,*,#859,.F.);
#498=ORIENTED_EDGE('',*,*,#817,.F.);
#499=ORIENTED_EDGE('',*,*,#860,.F.);
#500=ORIENTED_EDGE('',*,*,#825,.F.);
#501=ORIENTED_EDGE('',*,*,#861,.F.);
#502=ORIENTED_EDGE('',*,*,#831,.F.);
#503=ORIENTED_EDGE('',*,*,#862,.T.);
#504=ORIENTED_EDGE('',*,*,#863,.F.);
#505=ORIENTED_EDGE('',*,*,#864,.T.);
#506=ORIENTED_EDGE('',*,*,#865,.T.);
#507=ORIENTED_EDGE('',*,*,#866,.T.);
#508=ORIENTED_EDGE('',*,*,#867,.T.);
#509=ORIENTED_EDGE('',*,*,#868,.F.);
#510=ORIENTED_EDGE('',*,*,#869,.F.);
#511=ORIENTED_EDGE('',*,*,#870,.F.);
#512=ORIENTED_EDGE('',*,*,#871,.T.);
#513=ORIENTED_EDGE('',*,*,#855,.F.);
#514=ORIENTED_EDGE('',*,*,#852,.F.);
#515=ORIENTED_EDGE('',*,*,#858,.F.);
#516=ORIENTED_EDGE('',*,*,#846,.F.);
#517=ORIENTED_EDGE('',*,*,#843,.F.);
#518=ORIENTED_EDGE('',*,*,#849,.F.);
#519=ORIENTED_EDGE('',*,*,#835,.T.);
#520=ORIENTED_EDGE('',*,*,#872,.T.);
#521=ORIENTED_EDGE('',*,*,#873,.F.);
#522=ORIENTED_EDGE('',*,*,#874,.F.);
#523=ORIENTED_EDGE('',*,*,#875,.F.);
#524=ORIENTED_EDGE('',*,*,#876,.F.);
#525=ORIENTED_EDGE('',*,*,#877,.F.);
#526=ORIENTED_EDGE('',*,*,#878,.F.);
#527=ORIENTED_EDGE('',*,*,#879,.F.);
#528=ORIENTED_EDGE('',*,*,#880,.F.);
#529=ORIENTED_EDGE('',*,*,#881,.F.);
#530=ORIENTED_EDGE('',*,*,#882,.F.);
#531=ORIENTED_EDGE('',*,*,#883,.F.);
#532=ORIENTED_EDGE('',*,*,#884,.F.);
#533=ORIENTED_EDGE('',*,*,#885,.F.);
#534=ORIENTED_EDGE('',*,*,#886,.F.);
#535=ORIENTED_EDGE('',*,*,#873,.T.);
#536=ORIENTED_EDGE('',*,*,#887,.T.);
#537=ORIENTED_EDGE('',*,*,#888,.F.);
#538=ORIENTED_EDGE('',*,*,#889,.F.);
#539=ORIENTED_EDGE('',*,*,#888,.T.);
#540=ORIENTED_EDGE('',*,*,#890,.F.);
#541=ORIENTED_EDGE('',*,*,#891,.F.);
#542=ORIENTED_EDGE('',*,*,#892,.T.);
#543=ORIENTED_EDGE('',*,*,#891,.T.);
#544=ORIENTED_EDGE('',*,*,#893,.F.);
#545=ORIENTED_EDGE('',*,*,#894,.T.);
#546=ORIENTED_EDGE('',*,*,#895,.T.);
#547=ORIENTED_EDGE('',*,*,#896,.F.);
#548=ORIENTED_EDGE('',*,*,#897,.F.);
#549=ORIENTED_EDGE('',*,*,#898,.F.);
#550=ORIENTED_EDGE('',*,*,#899,.T.);
#551=ORIENTED_EDGE('',*,*,#900,.F.);
#552=ORIENTED_EDGE('',*,*,#901,.F.);
#553=ORIENTED_EDGE('',*,*,#902,.T.);
#554=ORIENTED_EDGE('',*,*,#896,.T.);
#555=ORIENTED_EDGE('',*,*,#812,.F.);
#556=ORIENTED_EDGE('',*,*,#903,.F.);
#557=ORIENTED_EDGE('',*,*,#904,.F.);
#558=ORIENTED_EDGE('',*,*,#905,.T.);
#559=ORIENTED_EDGE('',*,*,#906,.F.);
#560=ORIENTED_EDGE('',*,*,#907,.T.);
#561=ORIENTED_EDGE('',*,*,#908,.T.);
#562=ORIENTED_EDGE('',*,*,#909,.T.);
#563=ORIENTED_EDGE('',*,*,#901,.T.);
#564=ORIENTED_EDGE('',*,*,#910,.F.);
#565=ORIENTED_EDGE('',*,*,#911,.F.);
#566=ORIENTED_EDGE('',*,*,#912,.F.);
#567=ORIENTED_EDGE('',*,*,#913,.T.);
#568=ORIENTED_EDGE('',*,*,#914,.T.);
#569=ORIENTED_EDGE('',*,*,#915,.F.);
#570=ORIENTED_EDGE('',*,*,#916,.F.);
#571=ORIENTED_EDGE('',*,*,#904,.T.);
#572=ORIENTED_EDGE('',*,*,#915,.T.);
#573=ORIENTED_EDGE('',*,*,#917,.F.);
#574=ORIENTED_EDGE('',*,*,#918,.F.);
#575=ORIENTED_EDGE('',*,*,#919,.T.);
#576=ORIENTED_EDGE('',*,*,#920,.T.);
#577=ORIENTED_EDGE('',*,*,#921,.F.);
#578=ORIENTED_EDGE('',*,*,#922,.F.);
#579=ORIENTED_EDGE('',*,*,#923,.T.);
#580=ORIENTED_EDGE('',*,*,#924,.F.);
#581=ORIENTED_EDGE('',*,*,#925,.F.);
#582=ORIENTED_EDGE('',*,*,#926,.T.);
#583=ORIENTED_EDGE('',*,*,#927,.T.);
#584=ORIENTED_EDGE('',*,*,#928,.T.);
#585=ORIENTED_EDGE('',*,*,#867,.F.);
#586=ORIENTED_EDGE('',*,*,#929,.F.);
#587=ORIENTED_EDGE('',*,*,#922,.T.);
#588=ORIENTED_EDGE('',*,*,#860,.T.);
#589=ORIENTED_EDGE('',*,*,#930,.F.);
#590=ORIENTED_EDGE('',*,*,#931,.F.);
#591=ORIENTED_EDGE('',*,*,#932,.F.);
#592=ORIENTED_EDGE('',*,*,#933,.F.);
#593=ORIENTED_EDGE('',*,*,#861,.T.);
#594=ORIENTED_EDGE('',*,*,#934,.F.);
#595=ORIENTED_EDGE('',*,*,#935,.F.);
#596=ORIENTED_EDGE('',*,*,#936,.F.);
#597=ORIENTED_EDGE('',*,*,#937,.F.);
#598=ORIENTED_EDGE('',*,*,#938,.T.);
#599=ORIENTED_EDGE('',*,*,#838,.F.);
#600=ORIENTED_EDGE('',*,*,#939,.T.);
#601=ORIENTED_EDGE('',*,*,#940,.T.);
#602=ORIENTED_EDGE('',*,*,#941,.T.);
#603=ORIENTED_EDGE('',*,*,#850,.T.);
#604=ORIENTED_EDGE('',*,*,#854,.T.);
#605=ORIENTED_EDGE('',*,*,#857,.T.);
#606=ORIENTED_EDGE('',*,*,#934,.T.);
#607=ORIENTED_EDGE('',*,*,#824,.T.);
#608=ORIENTED_EDGE('',*,*,#839,.F.);
#609=ORIENTED_EDGE('',*,*,#938,.F.);
#610=ORIENTED_EDGE('',*,*,#942,.T.);
#611=ORIENTED_EDGE('',*,*,#826,.T.);
#612=ORIENTED_EDGE('',*,*,#937,.T.);
#613=ORIENTED_EDGE('',*,*,#943,.F.);
#614=ORIENTED_EDGE('',*,*,#939,.F.);
#615=ORIENTED_EDGE('',*,*,#837,.T.);
#616=ORIENTED_EDGE('',*,*,#936,.T.);
#617=ORIENTED_EDGE('',*,*,#944,.F.);
#618=ORIENTED_EDGE('',*,*,#940,.F.);
#619=ORIENTED_EDGE('',*,*,#943,.T.);
#620=ORIENTED_EDGE('',*,*,#935,.T.);
#621=ORIENTED_EDGE('',*,*,#942,.F.);
#622=ORIENTED_EDGE('',*,*,#941,.F.);
#623=ORIENTED_EDGE('',*,*,#944,.T.);
#624=ORIENTED_EDGE('',*,*,#945,.T.);
#625=ORIENTED_EDGE('',*,*,#832,.F.);
#626=ORIENTED_EDGE('',*,*,#946,.T.);
#627=ORIENTED_EDGE('',*,*,#947,.T.);
#628=ORIENTED_EDGE('',*,*,#948,.T.);
#629=ORIENTED_EDGE('',*,*,#841,.T.);
#630=ORIENTED_EDGE('',*,*,#845,.T.);
#631=ORIENTED_EDGE('',*,*,#848,.T.);
#632=ORIENTED_EDGE('',*,*,#930,.T.);
#633=ORIENTED_EDGE('',*,*,#816,.T.);
#634=ORIENTED_EDGE('',*,*,#833,.F.);
#635=ORIENTED_EDGE('',*,*,#945,.F.);
#636=ORIENTED_EDGE('',*,*,#949,.T.);
#637=ORIENTED_EDGE('',*,*,#822,.T.);
#638=ORIENTED_EDGE('',*,*,#933,.T.);
#639=ORIENTED_EDGE('',*,*,#950,.F.);
#640=ORIENTED_EDGE('',*,*,#946,.F.);
#641=ORIENTED_EDGE('',*,*,#840,.T.);
#642=ORIENTED_EDGE('',*,*,#932,.T.);
#643=ORIENTED_EDGE('',*,*,#951,.F.);
#644=ORIENTED_EDGE('',*,*,#947,.F.);
#645=ORIENTED_EDGE('',*,*,#950,.T.);
#646=ORIENTED_EDGE('',*,*,#931,.T.);
#647=ORIENTED_EDGE('',*,*,#949,.F.);
#648=ORIENTED_EDGE('',*,*,#948,.F.);
#649=ORIENTED_EDGE('',*,*,#951,.T.);
#650=ORIENTED_EDGE('',*,*,#862,.F.);
#651=ORIENTED_EDGE('',*,*,#830,.T.);
#652=ORIENTED_EDGE('',*,*,#952,.F.);
#653=ORIENTED_EDGE('',*,*,#953,.F.);
#654=ORIENTED_EDGE('',*,*,#902,.F.);
#655=ORIENTED_EDGE('',*,*,#909,.F.);
#656=ORIENTED_EDGE('',*,*,#954,.F.);
#657=ORIENTED_EDGE('',*,*,#897,.T.);
#658=ORIENTED_EDGE('',*,*,#905,.F.);
#659=ORIENTED_EDGE('',*,*,#916,.T.);
#660=ORIENTED_EDGE('',*,*,#927,.F.);
#661=ORIENTED_EDGE('',*,*,#955,.F.);
#662=ORIENTED_EDGE('',*,*,#954,.T.);
#663=ORIENTED_EDGE('',*,*,#908,.F.);
#664=ORIENTED_EDGE('',*,*,#956,.F.);
#665=ORIENTED_EDGE('',*,*,#898,.T.);
#666=ORIENTED_EDGE('',*,*,#955,.T.);
#667=ORIENTED_EDGE('',*,*,#926,.F.);
#668=ORIENTED_EDGE('',*,*,#957,.F.);
#669=ORIENTED_EDGE('',*,*,#906,.T.);
#670=ORIENTED_EDGE('',*,*,#958,.T.);
#671=ORIENTED_EDGE('',*,*,#865,.F.);
#672=ORIENTED_EDGE('',*,*,#959,.F.);
#673=ORIENTED_EDGE('',*,*,#924,.T.);
#674=ORIENTED_EDGE('',*,*,#953,.T.);
#675=ORIENTED_EDGE('',*,*,#960,.F.);
#676=ORIENTED_EDGE('',*,*,#961,.F.);
#677=ORIENTED_EDGE('',*,*,#863,.T.);
#678=ORIENTED_EDGE('',*,*,#952,.T.);
#679=ORIENTED_EDGE('',*,*,#829,.F.);
#680=ORIENTED_EDGE('',*,*,#962,.F.);
#681=ORIENTED_EDGE('',*,*,#960,.T.);
#682=ORIENTED_EDGE('',*,*,#899,.F.);
#683=ORIENTED_EDGE('',*,*,#956,.T.);
#684=ORIENTED_EDGE('',*,*,#907,.F.);
#685=ORIENTED_EDGE('',*,*,#957,.T.);
#686=ORIENTED_EDGE('',*,*,#925,.T.);
#687=ORIENTED_EDGE('',*,*,#959,.T.);
#688=ORIENTED_EDGE('',*,*,#864,.F.);
#689=ORIENTED_EDGE('',*,*,#961,.T.);
#690=ORIENTED_EDGE('',*,*,#962,.T.);
#691=ORIENTED_EDGE('',*,*,#828,.T.);
#692=ORIENTED_EDGE('',*,*,#836,.F.);
#693=ORIENTED_EDGE('',*,*,#874,.T.);
#694=ORIENTED_EDGE('',*,*,#889,.T.);
#695=ORIENTED_EDGE('',*,*,#892,.F.);
#696=ORIENTED_EDGE('',*,*,#866,.F.);
#697=ORIENTED_EDGE('',*,*,#958,.F.);
#698=ORIENTED_EDGE('',*,*,#923,.F.);
#699=ORIENTED_EDGE('',*,*,#929,.T.);
#700=ORIENTED_EDGE('',*,*,#963,.T.);
#701=ORIENTED_EDGE('',*,*,#868,.T.);
#702=ORIENTED_EDGE('',*,*,#928,.F.);
#703=ORIENTED_EDGE('',*,*,#921,.T.);
#704=ORIENTED_EDGE('',*,*,#964,.T.);
#705=ORIENTED_EDGE('',*,*,#910,.T.);
#706=ORIENTED_EDGE('',*,*,#900,.T.);
#707=ORIENTED_EDGE('',*,*,#895,.F.);
#708=ORIENTED_EDGE('',*,*,#818,.F.);
#709=ORIENTED_EDGE('',*,*,#859,.T.);
#710=ORIENTED_EDGE('',*,*,#965,.T.);
#711=ORIENTED_EDGE('',*,*,#966,.T.);
#712=ORIENTED_EDGE('',*,*,#966,.F.);
#713=ORIENTED_EDGE('',*,*,#967,.F.);
#714=ORIENTED_EDGE('',*,*,#968,.T.);
#715=ORIENTED_EDGE('',*,*,#819,.T.);
#716=ORIENTED_EDGE('',*,*,#965,.F.);
#717=ORIENTED_EDGE('',*,*,#871,.F.);
#718=ORIENTED_EDGE('',*,*,#969,.T.);
#719=ORIENTED_EDGE('',*,*,#967,.T.);
#720=ORIENTED_EDGE('',*,*,#963,.F.);
#721=ORIENTED_EDGE('',*,*,#920,.F.);
#722=ORIENTED_EDGE('',*,*,#970,.T.);
#723=ORIENTED_EDGE('',*,*,#869,.T.);
#724=ORIENTED_EDGE('',*,*,#971,.F.);
#725=ORIENTED_EDGE('',*,*,#913,.F.);
#726=ORIENTED_EDGE('',*,*,#972,.T.);
#727=ORIENTED_EDGE('',*,*,#918,.T.);
#728=ORIENTED_EDGE('',*,*,#964,.F.);
#729=ORIENTED_EDGE('',*,*,#894,.F.);
#730=ORIENTED_EDGE('',*,*,#973,.T.);
#731=ORIENTED_EDGE('',*,*,#911,.T.);
#732=ORIENTED_EDGE('',*,*,#893,.T.);
#733=ORIENTED_EDGE('',*,*,#890,.T.);
#734=ORIENTED_EDGE('',*,*,#887,.F.);
#735=ORIENTED_EDGE('',*,*,#872,.F.);
#736=ORIENTED_EDGE('',*,*,#834,.T.);
#737=ORIENTED_EDGE('',*,*,#820,.F.);
#738=ORIENTED_EDGE('',*,*,#968,.F.);
#739=ORIENTED_EDGE('',*,*,#969,.F.);
#740=ORIENTED_EDGE('',*,*,#870,.T.);
#741=ORIENTED_EDGE('',*,*,#970,.F.);
#742=ORIENTED_EDGE('',*,*,#919,.F.);
#743=ORIENTED_EDGE('',*,*,#972,.F.);
#744=ORIENTED_EDGE('',*,*,#912,.T.);
#745=ORIENTED_EDGE('',*,*,#973,.F.);
#746=ORIENTED_EDGE('',*,*,#914,.F.);
#747=ORIENTED_EDGE('',*,*,#903,.T.);
#748=ORIENTED_EDGE('',*,*,#971,.T.);
#749=ORIENTED_EDGE('',*,*,#917,.T.);
#750=ORIENTED_EDGE('',*,*,#882,.T.);
#751=ORIENTED_EDGE('',*,*,#974,.F.);
#752=ORIENTED_EDGE('',*,*,#975,.F.);
#753=ORIENTED_EDGE('',*,*,#976,.T.);
#754=ORIENTED_EDGE('',*,*,#881,.T.);
#755=ORIENTED_EDGE('',*,*,#977,.F.);
#756=ORIENTED_EDGE('',*,*,#978,.F.);
#757=ORIENTED_EDGE('',*,*,#974,.T.);
#758=ORIENTED_EDGE('',*,*,#886,.T.);
#759=ORIENTED_EDGE('',*,*,#979,.F.);
#760=ORIENTED_EDGE('',*,*,#980,.F.);
#761=ORIENTED_EDGE('',*,*,#977,.T.);
#762=ORIENTED_EDGE('',*,*,#885,.T.);
#763=ORIENTED_EDGE('',*,*,#981,.F.);
#764=ORIENTED_EDGE('',*,*,#982,.F.);
#765=ORIENTED_EDGE('',*,*,#979,.T.);
#766=ORIENTED_EDGE('',*,*,#884,.T.);
#767=ORIENTED_EDGE('',*,*,#983,.F.);
#768=ORIENTED_EDGE('',*,*,#984,.F.);
#769=ORIENTED_EDGE('',*,*,#981,.T.);
#770=ORIENTED_EDGE('',*,*,#883,.T.);
#771=ORIENTED_EDGE('',*,*,#976,.F.);
#772=ORIENTED_EDGE('',*,*,#985,.F.);
#773=ORIENTED_EDGE('',*,*,#983,.T.);
#774=ORIENTED_EDGE('',*,*,#815,.T.);
#775=ORIENTED_EDGE('',*,*,#975,.T.);
#776=ORIENTED_EDGE('',*,*,#978,.T.);
#777=ORIENTED_EDGE('',*,*,#980,.T.);
#778=ORIENTED_EDGE('',*,*,#982,.T.);
#779=ORIENTED_EDGE('',*,*,#984,.T.);
#780=ORIENTED_EDGE('',*,*,#985,.T.);
#781=ORIENTED_EDGE('',*,*,#876,.T.);
#782=ORIENTED_EDGE('',*,*,#986,.F.);
#783=ORIENTED_EDGE('',*,*,#987,.F.);
#784=ORIENTED_EDGE('',*,*,#988,.T.);
#785=ORIENTED_EDGE('',*,*,#875,.T.);
#786=ORIENTED_EDGE('',*,*,#989,.F.);
#787=ORIENTED_EDGE('',*,*,#990,.F.);
#788=ORIENTED_EDGE('',*,*,#986,.T.);
#789=ORIENTED_EDGE('',*,*,#880,.T.);
#790=ORIENTED_EDGE('',*,*,#991,.F.);
#791=ORIENTED_EDGE('',*,*,#992,.F.);
#792=ORIENTED_EDGE('',*,*,#989,.T.);
#793=ORIENTED_EDGE('',*,*,#879,.T.);
#794=ORIENTED_EDGE('',*,*,#993,.F.);
#795=ORIENTED_EDGE('',*,*,#994,.F.);
#796=ORIENTED_EDGE('',*,*,#991,.T.);
#797=ORIENTED_EDGE('',*,*,#878,.T.);
#798=ORIENTED_EDGE('',*,*,#995,.F.);
#799=ORIENTED_EDGE('',*,*,#996,.F.);
#800=ORIENTED_EDGE('',*,*,#993,.T.);
#801=ORIENTED_EDGE('',*,*,#877,.T.);
#802=ORIENTED_EDGE('',*,*,#988,.F.);
#803=ORIENTED_EDGE('',*,*,#997,.F.);
#804=ORIENTED_EDGE('',*,*,#995,.T.);
#805=ORIENTED_EDGE('',*,*,#813,.T.);
#806=ORIENTED_EDGE('',*,*,#987,.T.);
#807=ORIENTED_EDGE('',*,*,#990,.T.);
#808=ORIENTED_EDGE('',*,*,#992,.T.);
#809=ORIENTED_EDGE('',*,*,#994,.T.);
#810=ORIENTED_EDGE('',*,*,#996,.T.);
#811=ORIENTED_EDGE('',*,*,#997,.T.);
#812=EDGE_CURVE('',#998,#998,#1122,.T.);
#813=EDGE_CURVE('',#999,#999,#1123,.T.);
#814=EDGE_CURVE('',#1000,#1000,#1124,.T.);
#815=EDGE_CURVE('',#1001,#1001,#1125,.T.);
#816=EDGE_CURVE('',#1002,#1003,#20,.T.);
#817=EDGE_CURVE('',#1002,#1004,#21,.T.);
#818=EDGE_CURVE('',#1004,#1005,#22,.T.);
#819=EDGE_CURVE('',#1006,#1005,#23,.T.);
#820=EDGE_CURVE('',#1006,#1007,#24,.T.);
#821=EDGE_CURVE('',#1003,#1007,#25,.T.);
#822=EDGE_CURVE('',#1008,#1009,#26,.T.);
#823=EDGE_CURVE('',#1010,#1008,#27,.T.);
#824=EDGE_CURVE('',#1011,#1010,#28,.T.);
#825=EDGE_CURVE('',#1011,#1009,#29,.T.);
#826=EDGE_CURVE('',#1012,#1013,#30,.T.);
#827=EDGE_CURVE('',#1014,#1012,#31,.T.);
#828=EDGE_CURVE('',#1015,#1014,#32,.T.);
#829=EDGE_CURVE('',#1015,#1016,#33,.T.);
#830=EDGE_CURVE('',#1017,#1016,#34,.T.);
#831=EDGE_CURVE('',#1017,#1013,#35,.T.);
#832=EDGE_CURVE('',#1018,#1019,#36,.T.);
#833=EDGE_CURVE('',#1019,#1003,#37,.T.);
#834=EDGE_CURVE('',#1020,#1007,#38,.T.);
#835=EDGE_CURVE('',#1021,#1020,#39,.T.);
#836=EDGE_CURVE('',#1021,#1014,#40,.T.);
#837=EDGE_CURVE('',#1022,#1012,#41,.T.);
#838=EDGE_CURVE('',#1022,#1023,#42,.T.);
#839=EDGE_CURVE('',#1023,#1010,#43,.T.);
#840=EDGE_CURVE('',#1018,#1008,#44,.T.);
#841=EDGE_CURVE('',#1024,#1025,#1126,.F.);
#842=EDGE_CURVE('',#1024,#1026,#45,.T.);
#843=EDGE_CURVE('',#1026,#1027,#1127,.T.);
#844=EDGE_CURVE('',#1025,#1027,#46,.T.);
#845=EDGE_CURVE('',#1025,#1028,#47,.T.);
#846=EDGE_CURVE('',#1027,#1029,#48,.T.);
#847=EDGE_CURVE('',#1028,#1029,#49,.T.);
#848=EDGE_CURVE('',#1028,#1024,#50,.T.);
#849=EDGE_CURVE('',#1029,#1026,#51,.T.);
#850=EDGE_CURVE('',#1030,#1031,#52,.T.);
#851=EDGE_CURVE('',#1030,#1032,#53,.T.);
#852=EDGE_CURVE('',#1032,#1033,#54,.T.);
#853=EDGE_CURVE('',#1031,#1033,#55,.T.);
#854=EDGE_CURVE('',#1031,#1034,#1128,.F.);
#855=EDGE_CURVE('',#1033,#1035,#1129,.T.);
#856=EDGE_CURVE('',#1034,#1035,#56,.T.);
#857=EDGE_CURVE('',#1034,#1030,#57,.T.);
#858=EDGE_CURVE('',#1035,#1032,#58,.T.);
#859=EDGE_CURVE('',#1004,#1036,#59,.T.);
#860=EDGE_CURVE('',#1009,#1002,#60,.T.);
#861=EDGE_CURVE('',#1013,#1011,#61,.T.);
#862=EDGE_CURVE('',#1017,#1037,#62,.T.);
#863=EDGE_CURVE('',#1038,#1037,#63,.T.);
#864=EDGE_CURVE('',#1038,#1039,#64,.T.);
#865=EDGE_CURVE('',#1039,#1040,#65,.T.);
#866=EDGE_CURVE('',#1040,#1041,#66,.T.);
#867=EDGE_CURVE('',#1041,#1042,#67,.T.);
#868=EDGE_CURVE('',#1043,#1042,#68,.T.);
#869=EDGE_CURVE('',#1044,#1043,#69,.T.);
#870=EDGE_CURVE('',#1045,#1044,#70,.T.);
#871=EDGE_CURVE('',#1045,#1036,#71,.T.);
#872=EDGE_CURVE('',#1020,#1046,#72,.T.);
#873=EDGE_CURVE('',#1047,#1046,#73,.T.);
#874=EDGE_CURVE('',#1021,#1047,#74,.T.);
#875=EDGE_CURVE('',#1048,#1049,#75,.T.);
#876=EDGE_CURVE('',#1050,#1048,#76,.T.);
#877=EDGE_CURVE('',#1051,#1050,#77,.T.);
#878=EDGE_CURVE('',#1052,#1051,#78,.T.);
#879=EDGE_CURVE('',#1053,#1052,#79,.T.);
#880=EDGE_CURVE('',#1049,#1053,#80,.T.);
#881=EDGE_CURVE('',#1054,#1055,#81,.T.);
#882=EDGE_CURVE('',#1056,#1054,#82,.T.);
#883=EDGE_CURVE('',#1057,#1056,#83,.T.);
#884=EDGE_CURVE('',#1058,#1057,#84,.T.);
#885=EDGE_CURVE('',#1059,#1058,#85,.T.);
#886=EDGE_CURVE('',#1055,#1059,#86,.T.);
#887=EDGE_CURVE('',#1046,#1060,#87,.T.);
#888=EDGE_CURVE('',#1061,#1060,#88,.T.);
#889=EDGE_CURVE('',#1047,#1061,#89,.T.);
#890=EDGE_CURVE('',#1062,#1060,#90,.T.);
#891=EDGE_CURVE('',#1063,#1062,#91,.T.);
#892=EDGE_CURVE('',#1063,#1061,#92,.T.);
#893=EDGE_CURVE('',#1064,#1062,#93,.T.);
#894=EDGE_CURVE('',#1064,#1065,#94,.T.);
#895=EDGE_CURVE('',#1065,#1066,#95,.T.);
#896=EDGE_CURVE('',#1067,#1066,#96,.T.);
#897=EDGE_CURVE('',#1068,#1067,#97,.T.);
#898=EDGE_CURVE('',#1069,#1068,#98,.T.);
#899=EDGE_CURVE('',#1069,#1063,#99,.T.);
#900=EDGE_CURVE('',#1070,#1066,#100,.T.);
#901=EDGE_CURVE('',#1071,#1070,#101,.T.);
#902=EDGE_CURVE('',#1071,#1067,#102,.T.);
#903=EDGE_CURVE('',#1072,#1073,#103,.T.);
#904=EDGE_CURVE('',#1074,#1072,#104,.T.);
#905=EDGE_CURVE('',#1074,#1075,#105,.T.);
#906=EDGE_CURVE('',#1076,#1075,#106,.T.);
#907=EDGE_CURVE('',#1076,#1077,#107,.T.);
#908=EDGE_CURVE('',#1077,#1078,#108,.T.);
#909=EDGE_CURVE('',#1078,#1071,#109,.T.);
#910=EDGE_CURVE('',#1079,#1070,#110,.T.);
#911=EDGE_CURVE('',#1080,#1079,#111,.T.);
#912=EDGE_CURVE('',#1081,#1080,#112,.T.);
#913=EDGE_CURVE('',#1081,#1073,#113,.T.);
#914=EDGE_CURVE('',#1072,#1082,#114,.T.);
#915=EDGE_CURVE('',#1083,#1082,#115,.T.);
#916=EDGE_CURVE('',#1074,#1083,#116,.T.);
#917=EDGE_CURVE('',#1084,#1082,#117,.T.);
#918=EDGE_CURVE('',#1085,#1084,#118,.T.);
#919=EDGE_CURVE('',#1085,#1086,#119,.T.);
#920=EDGE_CURVE('',#1086,#1087,#120,.T.);
#921=EDGE_CURVE('',#1088,#1087,#121,.T.);
#922=EDGE_CURVE('',#1089,#1088,#122,.T.);
#923=EDGE_CURVE('',#1089,#1090,#123,.T.);
#924=EDGE_CURVE('',#1091,#1090,#124,.T.);
#925=EDGE_CURVE('',#1092,#1091,#125,.T.);
#926=EDGE_CURVE('',#1092,#1093,#126,.T.);
#927=EDGE_CURVE('',#1093,#1083,#127,.T.);
#928=EDGE_CURVE('',#1088,#1042,#128,.T.);
#929=EDGE_CURVE('',#1089,#1041,#129,.T.);
#930=EDGE_CURVE('',#1094,#1002,#130,.T.);
#931=EDGE_CURVE('',#1095,#1094,#131,.T.);
#932=EDGE_CURVE('',#1096,#1095,#132,.T.);
#933=EDGE_CURVE('',#1009,#1096,#133,.T.);
#934=EDGE_CURVE('',#1097,#1011,#134,.T.);
#935=EDGE_CURVE('',#1098,#1097,#135,.T.);
#936=EDGE_CURVE('',#1099,#1098,#136,.T.);
#937=EDGE_CURVE('',#1013,#1099,#137,.T.);
#938=EDGE_CURVE('',#1100,#1023,#138,.T.);
#939=EDGE_CURVE('',#1022,#1101,#139,.T.);
#940=EDGE_CURVE('',#1101,#1102,#140,.T.);
#941=EDGE_CURVE('',#1102,#1100,#141,.T.);
#942=EDGE_CURVE('',#1100,#1097,#142,.T.);
#943=EDGE_CURVE('',#1101,#1099,#143,.T.);
#944=EDGE_CURVE('',#1102,#1098,#144,.T.);
#945=EDGE_CURVE('',#1103,#1019,#145,.T.);
#946=EDGE_CURVE('',#1018,#1104,#146,.T.);
#947=EDGE_CURVE('',#1104,#1105,#147,.T.);
#948=EDGE_CURVE('',#1105,#1103,#148,.T.);
#949=EDGE_CURVE('',#1103,#1094,#149,.T.);
#950=EDGE_CURVE('',#1104,#1096,#150,.T.);
#951=EDGE_CURVE('',#1105,#1095,#151,.T.);
#952=EDGE_CURVE('',#1106,#1016,#152,.T.);
#953=EDGE_CURVE('',#1037,#1106,#153,.T.);
#954=EDGE_CURVE('',#1068,#1078,#154,.T.);
#955=EDGE_CURVE('',#1075,#1093,#155,.T.);
#956=EDGE_CURVE('',#1069,#1077,#156,.T.);
#957=EDGE_CURVE('',#1076,#1092,#157,.T.);
#958=EDGE_CURVE('',#1090,#1040,#158,.T.);
#959=EDGE_CURVE('',#1091,#1039,#159,.T.);
#960=EDGE_CURVE('',#1107,#1106,#160,.T.);
#961=EDGE_CURVE('',#1038,#1107,#161,.T.);
#962=EDGE_CURVE('',#1107,#1015,#162,.T.);
#963=EDGE_CURVE('',#1087,#1043,#163,.T.);
#964=EDGE_CURVE('',#1065,#1079,#164,.T.);
#965=EDGE_CURVE('',#1036,#1108,#165,.T.);
#966=EDGE_CURVE('',#1108,#1005,#166,.T.);
#967=EDGE_CURVE('',#1109,#1108,#167,.T.);
#968=EDGE_CURVE('',#1109,#1006,#168,.T.);
#969=EDGE_CURVE('',#1045,#1109,#169,.T.);
#970=EDGE_CURVE('',#1086,#1044,#170,.T.);
#971=EDGE_CURVE('',#1073,#1084,#171,.T.);
#972=EDGE_CURVE('',#1081,#1085,#172,.T.);
#973=EDGE_CURVE('',#1064,#1080,#173,.T.);
#974=EDGE_CURVE('',#1110,#1054,#174,.T.);
#975=EDGE_CURVE('',#1111,#1110,#175,.T.);
#976=EDGE_CURVE('',#1111,#1056,#176,.T.);
#977=EDGE_CURVE('',#1112,#1055,#177,.T.);
#978=EDGE_CURVE('',#1110,#1112,#178,.T.);
#979=EDGE_CURVE('',#1113,#1059,#179,.T.);
#980=EDGE_CURVE('',#1112,#1113,#180,.T.);
#981=EDGE_CURVE('',#1114,#1058,#181,.T.);
#982=EDGE_CURVE('',#1113,#1114,#182,.T.);
#983=EDGE_CURVE('',#1115,#1057,#183,.T.);
#984=EDGE_CURVE('',#1114,#1115,#184,.T.);
#985=EDGE_CURVE('',#1115,#1111,#185,.T.);
#986=EDGE_CURVE('',#1116,#1048,#186,.T.);
#987=EDGE_CURVE('',#1117,#1116,#187,.T.);
#988=EDGE_CURVE('',#1117,#1050,#188,.T.);
#989=EDGE_CURVE('',#1118,#1049,#189,.T.);
#990=EDGE_CURVE('',#1116,#1118,#190,.T.);
#991=EDGE_CURVE('',#1119,#1053,#191,.T.);
#992=EDGE_CURVE('',#1118,#1119,#192,.T.);
#993=EDGE_CURVE('',#1120,#1052,#193,.T.);
#994=EDGE_CURVE('',#1119,#1120,#194,.T.);
#995=EDGE_CURVE('',#1121,#1051,#195,.T.);
#996=EDGE_CURVE('',#1120,#1121,#196,.T.);
#997=EDGE_CURVE('',#1121,#1117,#197,.T.);
#998=VERTEX_POINT('',#1786);
#999=VERTEX_POINT('',#1788);
#1000=VERTEX_POINT('',#1791);
#1001=VERTEX_POINT('',#1793);
#1002=VERTEX_POINT('',#1796);
#1003=VERTEX_POINT('',#1797);
#1004=VERTEX_POINT('',#1799);
#1005=VERTEX_POINT('',#1801);
#1006=VERTEX_POINT('',#1803);
#1007=VERTEX_POINT('',#1805);
#1008=VERTEX_POINT('',#1809);
#1009=VERTEX_POINT('',#1810);
#1010=VERTEX_POINT('',#1812);
#1011=VERTEX_POINT('',#1814);
#1012=VERTEX_POINT('',#1818);
#1013=VERTEX_POINT('',#1819);
#1014=VERTEX_POINT('',#1821);
#1015=VERTEX_POINT('',#1823);
#1016=VERTEX_POINT('',#1825);
#1017=VERTEX_POINT('',#1827);
#1018=VERTEX_POINT('',#1831);
#1019=VERTEX_POINT('',#1832);
#1020=VERTEX_POINT('',#1835);
#1021=VERTEX_POINT('',#1837);
#1022=VERTEX_POINT('',#1840);
#1023=VERTEX_POINT('',#1842);
#1024=VERTEX_POINT('',#1847);
#1025=VERTEX_POINT('',#1848);
#1026=VERTEX_POINT('',#1850);
#1027=VERTEX_POINT('',#1852);
#1028=VERTEX_POINT('',#1856);
#1029=VERTEX_POINT('',#1858);
#1030=VERTEX_POINT('',#1865);
#1031=VERTEX_POINT('',#1866);
#1032=VERTEX_POINT('',#1868);
#1033=VERTEX_POINT('',#1870);
#1034=VERTEX_POINT('',#1874);
#1035=VERTEX_POINT('',#1876);
#1036=VERTEX_POINT('',#1883);
#1037=VERTEX_POINT('',#1887);
#1038=VERTEX_POINT('',#1889);
#1039=VERTEX_POINT('',#1891);
#1040=VERTEX_POINT('',#1893);
#1041=VERTEX_POINT('',#1895);
#1042=VERTEX_POINT('',#1897);
#1043=VERTEX_POINT('',#1899);
#1044=VERTEX_POINT('',#1901);
#1045=VERTEX_POINT('',#1903);
#1046=VERTEX_POINT('',#1907);
#1047=VERTEX_POINT('',#1909);
#1048=VERTEX_POINT('',#1913);
#1049=VERTEX_POINT('',#1914);
#1050=VERTEX_POINT('',#1916);
#1051=VERTEX_POINT('',#1918);
#1052=VERTEX_POINT('',#1920);
#1053=VERTEX_POINT('',#1922);
#1054=VERTEX_POINT('',#1925);
#1055=VERTEX_POINT('',#1926);
#1056=VERTEX_POINT('',#1928);
#1057=VERTEX_POINT('',#1930);
#1058=VERTEX_POINT('',#1932);
#1059=VERTEX_POINT('',#1934);
#1060=VERTEX_POINT('',#1937);
#1061=VERTEX_POINT('',#1939);
#1062=VERTEX_POINT('',#1943);
#1063=VERTEX_POINT('',#1945);
#1064=VERTEX_POINT('',#1949);
#1065=VERTEX_POINT('',#1951);
#1066=VERTEX_POINT('',#1953);
#1067=VERTEX_POINT('',#1955);
#1068=VERTEX_POINT('',#1957);
#1069=VERTEX_POINT('',#1959);
#1070=VERTEX_POINT('',#1963);
#1071=VERTEX_POINT('',#1965);
#1072=VERTEX_POINT('',#1969);
#1073=VERTEX_POINT('',#1970);
#1074=VERTEX_POINT('',#1972);
#1075=VERTEX_POINT('',#1974);
#1076=VERTEX_POINT('',#1976);
#1077=VERTEX_POINT('',#1978);
#1078=VERTEX_POINT('',#1980);
#1079=VERTEX_POINT('',#1983);
#1080=VERTEX_POINT('',#1985);
#1081=VERTEX_POINT('',#1987);
#1082=VERTEX_POINT('',#1991);
#1083=VERTEX_POINT('',#1993);
#1084=VERTEX_POINT('',#1997);
#1085=VERTEX_POINT('',#1999);
#1086=VERTEX_POINT('',#2001);
#1087=VERTEX_POINT('',#2003);
#1088=VERTEX_POINT('',#2005);
#1089=VERTEX_POINT('',#2007);
#1090=VERTEX_POINT('',#2009);
#1091=VERTEX_POINT('',#2011);
#1092=VERTEX_POINT('',#2013);
#1093=VERTEX_POINT('',#2015);
#1094=VERTEX_POINT('',#2022);
#1095=VERTEX_POINT('',#2024);
#1096=VERTEX_POINT('',#2026);
#1097=VERTEX_POINT('',#2030);
#1098=VERTEX_POINT('',#2032);
#1099=VERTEX_POINT('',#2034);
#1100=VERTEX_POINT('',#2038);
#1101=VERTEX_POINT('',#2040);
#1102=VERTEX_POINT('',#2042);
#1103=VERTEX_POINT('',#2053);
#1104=VERTEX_POINT('',#2055);
#1105=VERTEX_POINT('',#2057);
#1106=VERTEX_POINT('',#2068);
#1107=VERTEX_POINT('',#2083);
#1108=VERTEX_POINT('',#2095);
#1109=VERTEX_POINT('',#2099);
#1110=VERTEX_POINT('',#2114);
#1111=VERTEX_POINT('',#2116);
#1112=VERTEX_POINT('',#2120);
#1113=VERTEX_POINT('',#2124);
#1114=VERTEX_POINT('',#2128);
#1115=VERTEX_POINT('',#2132);
#1116=VERTEX_POINT('',#2139);
#1117=VERTEX_POINT('',#2141);
#1118=VERTEX_POINT('',#2145);
#1119=VERTEX_POINT('',#2149);
#1120=VERTEX_POINT('',#2153);
#1121=VERTEX_POINT('',#2157);
#1122=CIRCLE('',#1376,0.0022);
#1123=CIRCLE('',#1377,0.0022);
#1124=CIRCLE('',#1379,0.0022);
#1125=CIRCLE('',#1380,0.0022);
#1126=CIRCLE('',#1386,0.0018);
#1127=CIRCLE('',#1387,0.0018);
#1128=CIRCLE('',#1392,0.0018);
#1129=CIRCLE('',#1393,0.0018);
#1130=EDGE_LOOP('',(#440));
#1131=EDGE_LOOP('',(#441));
#1132=EDGE_LOOP('',(#442));
#1133=EDGE_LOOP('',(#443));
#1134=EDGE_LOOP('',(#444,#445,#446,#447,#448,#449));
#1135=EDGE_LOOP('',(#450,#451,#452,#453));
#1136=EDGE_LOOP('',(#454,#455,#456,#457,#458,#459));
#1137=EDGE_LOOP('',(#460,#461,#462,#463,#464,#465,#466,#467,#468,#469,#470,
#471));
#1138=EDGE_LOOP('',(#472,#473,#474,#475));
#1139=EDGE_LOOP('',(#476,#477,#478,#479));
#1140=EDGE_LOOP('',(#480,#481,#482,#483));
#1141=EDGE_LOOP('',(#484,#485,#486,#487));
#1142=EDGE_LOOP('',(#488,#489,#490,#491));
#1143=EDGE_LOOP('',(#492,#493,#494,#495));
#1144=EDGE_LOOP('',(#496));
#1145=EDGE_LOOP('',(#497,#498,#499,#500,#501,#502,#503,#504,#505,#506,#507,
#508,#509,#510,#511,#512));
#1146=EDGE_LOOP('',(#513,#514,#515));
#1147=EDGE_LOOP('',(#516,#517,#518));
#1148=EDGE_LOOP('',(#519,#520,#521,#522));
#1149=EDGE_LOOP('',(#523,#524,#525,#526,#527,#528));
#1150=EDGE_LOOP('',(#529,#530,#531,#532,#533,#534));
#1151=EDGE_LOOP('',(#535,#536,#537,#538));
#1152=EDGE_LOOP('',(#539,#540,#541,#542));
#1153=EDGE_LOOP('',(#543,#544,#545,#546,#547,#548,#549,#550));
#1154=EDGE_LOOP('',(#551,#552,#553,#554));
#1155=EDGE_LOOP('',(#555));
#1156=EDGE_LOOP('',(#556,#557,#558,#559,#560,#561,#562,#563,#564,#565,#566,
#567));
#1157=EDGE_LOOP('',(#568,#569,#570,#571));
#1158=EDGE_LOOP('',(#572,#573,#574,#575,#576,#577,#578,#579,#580,#581,#582,
#583));
#1159=EDGE_LOOP('',(#584,#585,#586,#587));
#1160=EDGE_LOOP('',(#588,#589,#590,#591,#592));
#1161=EDGE_LOOP('',(#593,#594,#595,#596,#597));
#1162=EDGE_LOOP('',(#598,#599,#600,#601,#602));
#1163=EDGE_LOOP('',(#603,#604,#605));
#1164=EDGE_LOOP('',(#606,#607,#608,#609,#610));
#1165=EDGE_LOOP('',(#611,#612,#613,#614,#615));
#1166=EDGE_LOOP('',(#616,#617,#618,#619));
#1167=EDGE_LOOP('',(#620,#621,#622,#623));
#1168=EDGE_LOOP('',(#624,#625,#626,#627,#628));
#1169=EDGE_LOOP('',(#629,#630,#631));
#1170=EDGE_LOOP('',(#632,#633,#634,#635,#636));
#1171=EDGE_LOOP('',(#637,#638,#639,#640,#641));
#1172=EDGE_LOOP('',(#642,#643,#644,#645));
#1173=EDGE_LOOP('',(#646,#647,#648,#649));
#1174=EDGE_LOOP('',(#650,#651,#652,#653));
#1175=EDGE_LOOP('',(#654,#655,#656,#657));
#1176=EDGE_LOOP('',(#658,#659,#660,#661));
#1177=EDGE_LOOP('',(#662,#663,#664,#665));
#1178=EDGE_LOOP('',(#666,#667,#668,#669));
#1179=EDGE_LOOP('',(#670,#671,#672,#673));
#1180=EDGE_LOOP('',(#674,#675,#676,#677));
#1181=EDGE_LOOP('',(#678,#679,#680,#681));
#1182=EDGE_LOOP('',(#682,#683,#684,#685,#686,#687,#688,#689,#690,#691,#692,
#693,#694,#695));
#1183=EDGE_LOOP('',(#696,#697,#698,#699));
#1184=EDGE_LOOP('',(#700,#701,#702,#703));
#1185=EDGE_LOOP('',(#704,#705,#706,#707));
#1186=EDGE_LOOP('',(#708,#709,#710,#711));
#1187=EDGE_LOOP('',(#712,#713,#714,#715));
#1188=EDGE_LOOP('',(#716,#717,#718,#719));
#1189=EDGE_LOOP('',(#720,#721,#722,#723));
#1190=EDGE_LOOP('',(#724,#725,#726,#727));
#1191=EDGE_LOOP('',(#728,#729,#730,#731));
#1192=EDGE_LOOP('',(#732,#733,#734,#735,#736,#737,#738,#739,#740,#741,#742,
#743,#744,#745));
#1193=EDGE_LOOP('',(#746,#747,#748,#749));
#1194=EDGE_LOOP('',(#750,#751,#752,#753));
#1195=EDGE_LOOP('',(#754,#755,#756,#757));
#1196=EDGE_LOOP('',(#758,#759,#760,#761));
#1197=EDGE_LOOP('',(#762,#763,#764,#765));
#1198=EDGE_LOOP('',(#766,#767,#768,#769));
#1199=EDGE_LOOP('',(#770,#771,#772,#773));
#1200=EDGE_LOOP('',(#774));
#1201=EDGE_LOOP('',(#775,#776,#777,#778,#779,#780));
#1202=EDGE_LOOP('',(#781,#782,#783,#784));
#1203=EDGE_LOOP('',(#785,#786,#787,#788));
#1204=EDGE_LOOP('',(#789,#790,#791,#792));
#1205=EDGE_LOOP('',(#793,#794,#795,#796));
#1206=EDGE_LOOP('',(#797,#798,#799,#800));
#1207=EDGE_LOOP('',(#801,#802,#803,#804));
#1208=EDGE_LOOP('',(#805));
#1209=EDGE_LOOP('',(#806,#807,#808,#809,#810,#811));
#1210=FACE_BOUND('',#1130,.T.);
#1211=FACE_BOUND('',#1131,.T.);
#1212=FACE_BOUND('',#1132,.T.);
#1213=FACE_BOUND('',#1133,.T.);
#1214=FACE_BOUND('',#1134,.T.);
#1215=FACE_BOUND('',#1135,.T.);
#1216=FACE_BOUND('',#1136,.T.);
#1217=FACE_BOUND('',#1137,.T.);
#1218=FACE_BOUND('',#1138,.T.);
#1219=FACE_BOUND('',#1139,.T.);
#1220=FACE_BOUND('',#1140,.T.);
#1221=FACE_BOUND('',#1141,.T.);
#1222=FACE_BOUND('',#1142,.T.);
#1223=FACE_BOUND('',#1143,.T.);
#1224=FACE_BOUND('',#1144,.T.);
#1225=FACE_BOUND('',#1145,.T.);
#1226=FACE_BOUND('',#1146,.T.);
#1227=FACE_BOUND('',#1147,.T.);
#1228=FACE_BOUND('',#1148,.T.);
#1229=FACE_BOUND('',#1149,.T.);
#1230=FACE_BOUND('',#1150,.T.);
#1231=FACE_BOUND('',#1151,.T.);
#1232=FACE_BOUND('',#1152,.T.);
#1233=FACE_BOUND('',#1153,.T.);
#1234=FACE_BOUND('',#1154,.T.);
#1235=FACE_BOUND('',#1155,.T.);
#1236=FACE_BOUND('',#1156,.T.);
#1237=FACE_BOUND('',#1157,.T.);
#1238=FACE_BOUND('',#1158,.T.);
#1239=FACE_BOUND('',#1159,.T.);
#1240=FACE_BOUND('',#1160,.T.);
#1241=FACE_BOUND('',#1161,.T.);
#1242=FACE_BOUND('',#1162,.T.);
#1243=FACE_BOUND('',#1163,.T.);
#1244=FACE_BOUND('',#1164,.T.);
#1245=FACE_BOUND('',#1165,.T.);
#1246=FACE_BOUND('',#1166,.T.);
#1247=FACE_BOUND('',#1167,.T.);
#1248=FACE_BOUND('',#1168,.T.);
#1249=FACE_BOUND('',#1169,.T.);
#1250=FACE_BOUND('',#1170,.T.);
#1251=FACE_BOUND('',#1171,.T.);
#1252=FACE_BOUND('',#1172,.T.);
#1253=FACE_BOUND('',#1173,.T.);
#1254=FACE_BOUND('',#1174,.T.);
#1255=FACE_BOUND('',#1175,.T.);
#1256=FACE_BOUND('',#1176,.T.);
#1257=FACE_BOUND('',#1177,.T.);
#1258=FACE_BOUND('',#1178,.T.);
#1259=FACE_BOUND('',#1179,.T.);
#1260=FACE_BOUND('',#1180,.T.);
#1261=FACE_BOUND('',#1181,.T.);
#1262=FACE_BOUND('',#1182,.T.);
#1263=FACE_BOUND('',#1183,.T.);
#1264=FACE_BOUND('',#1184,.T.);
#1265=FACE_BOUND('',#1185,.T.);
#1266=FACE_BOUND('',#1186,.T.);
#1267=FACE_BOUND('',#1187,.T.);
#1268=FACE_BOUND('',#1188,.T.);
#1269=FACE_BOUND('',#1189,.T.);
#1270=FACE_BOUND('',#1190,.T.);
#1271=FACE_BOUND('',#1191,.T.);
#1272=FACE_BOUND('',#1192,.T.);
#1273=FACE_BOUND('',#1193,.T.);
#1274=FACE_BOUND('',#1194,.T.);
#1275=FACE_BOUND('',#1195,.T.);
#1276=FACE_BOUND('',#1196,.T.);
#1277=FACE_BOUND('',#1197,.T.);
#1278=FACE_BOUND('',#1198,.T.);
#1279=FACE_BOUND('',#1199,.T.);
#1280=FACE_BOUND('',#1200,.T.);
#1281=FACE_BOUND('',#1201,.T.);
#1282=FACE_BOUND('',#1202,.T.);
#1283=FACE_BOUND('',#1203,.T.);
#1284=FACE_BOUND('',#1204,.T.);
#1285=FACE_BOUND('',#1205,.T.);
#1286=FACE_BOUND('',#1206,.T.);
#1287=FACE_BOUND('',#1207,.T.);
#1288=FACE_BOUND('',#1208,.T.);
#1289=FACE_BOUND('',#1209,.T.);
#1290=CYLINDRICAL_SURFACE('',#1375,0.0022);
#1291=CYLINDRICAL_SURFACE('',#1378,0.0022);
#1292=CYLINDRICAL_SURFACE('',#1385,0.0018);
#1293=CYLINDRICAL_SURFACE('',#1391,0.0018);
#1294=ADVANCED_FACE('',(#1210,#1211),#1290,.F.);
#1295=ADVANCED_FACE('',(#1212,#1213),#1291,.F.);
#1296=ADVANCED_FACE('',(#1214),#376,.F.);
#1297=ADVANCED_FACE('',(#1215),#377,.F.);
#1298=ADVANCED_FACE('',(#1216),#378,.F.);
#1299=ADVANCED_FACE('',(#1217),#379,.T.);
#1300=ADVANCED_FACE('',(#1218),#1292,.F.);
#1301=ADVANCED_FACE('',(#1219),#380,.F.);
#1302=ADVANCED_FACE('',(#1220),#381,.F.);
#1303=ADVANCED_FACE('',(#1221),#382,.F.);
#1304=ADVANCED_FACE('',(#1222),#1293,.F.);
#1305=ADVANCED_FACE('',(#1223),#383,.F.);
#1306=ADVANCED_FACE('',(#1224,#1225),#384,.T.);
#1307=ADVANCED_FACE('',(#1226,#1227,#1228),#385,.F.);
#1308=ADVANCED_FACE('',(#1229,#1230,#1231),#386,.F.);
#1309=ADVANCED_FACE('',(#1232),#387,.T.);
#1310=ADVANCED_FACE('',(#1233),#388,.T.);
#1311=ADVANCED_FACE('',(#1234),#389,.T.);
#1312=ADVANCED_FACE('',(#1235,#1236),#390,.T.);
#1313=ADVANCED_FACE('',(#1237),#391,.F.);
#1314=ADVANCED_FACE('',(#1238),#392,.F.);
#1315=ADVANCED_FACE('',(#1239),#393,.F.);
#1316=ADVANCED_FACE('',(#1240),#394,.T.);
#1317=ADVANCED_FACE('',(#1241),#395,.T.);
#1318=ADVANCED_FACE('',(#1242,#1243),#396,.T.);
#1319=ADVANCED_FACE('',(#1244),#397,.F.);
#1320=ADVANCED_FACE('',(#1245),#398,.F.);
#1321=ADVANCED_FACE('',(#1246),#399,.F.);
#1322=ADVANCED_FACE('',(#1247),#400,.F.);
#1323=ADVANCED_FACE('',(#1248,#1249),#401,.T.);
#1324=ADVANCED_FACE('',(#1250),#402,.F.);
#1325=ADVANCED_FACE('',(#1251),#403,.F.);
#1326=ADVANCED_FACE('',(#1252),#404,.F.);
#1327=ADVANCED_FACE('',(#1253),#405,.F.);
#1328=ADVANCED_FACE('',(#1254),#406,.F.);
#1329=ADVANCED_FACE('',(#1255),#407,.F.);
#1330=ADVANCED_FACE('',(#1256),#408,.F.);
#1331=ADVANCED_FACE('',(#1257),#409,.F.);
#1332=ADVANCED_FACE('',(#1258),#410,.F.);
#1333=ADVANCED_FACE('',(#1259),#411,.F.);
#1334=ADVANCED_FACE('',(#1260),#412,.F.);
#1335=ADVANCED_FACE('',(#1261),#413,.F.);
#1336=ADVANCED_FACE('',(#1262),#414,.T.);
#1337=ADVANCED_FACE('',(#1263),#415,.F.);
#1338=ADVANCED_FACE('',(#1264),#416,.F.);
#1339=ADVANCED_FACE('',(#1265),#417,.F.);
#1340=ADVANCED_FACE('',(#1266),#418,.F.);
#1341=ADVANCED_FACE('',(#1267),#419,.T.);
#1342=ADVANCED_FACE('',(#1268),#420,.T.);
#1343=ADVANCED_FACE('',(#1269),#421,.T.);
#1344=ADVANCED_FACE('',(#1270),#422,.T.);
#1345=ADVANCED_FACE('',(#1271),#423,.T.);
#1346=ADVANCED_FACE('',(#1272),#424,.T.);
#1347=ADVANCED_FACE('',(#1273),#425,.F.);
#1348=ADVANCED_FACE('',(#1274),#426,.F.);
#1349=ADVANCED_FACE('',(#1275),#427,.F.);
#1350=ADVANCED_FACE('',(#1276),#428,.F.);
#1351=ADVANCED_FACE('',(#1277),#429,.F.);
#1352=ADVANCED_FACE('',(#1278),#430,.F.);
#1353=ADVANCED_FACE('',(#1279),#431,.F.);
#1354=ADVANCED_FACE('',(#1280,#1281),#432,.T.);
#1355=ADVANCED_FACE('',(#1282),#433,.F.);
#1356=ADVANCED_FACE('',(#1283),#434,.F.);
#1357=ADVANCED_FACE('',(#1284),#435,.F.);
#1358=ADVANCED_FACE('',(#1285),#436,.F.);
#1359=ADVANCED_FACE('',(#1286),#437,.F.);
#1360=ADVANCED_FACE('',(#1287),#438,.F.);
#1361=ADVANCED_FACE('',(#1288,#1289),#439,.T.);
#1362=CLOSED_SHELL('',(#1294,#1295,#1296,#1297,#1298,#1299,#1300,#1301,
#1302,#1303,#1304,#1305,#1306,#1307,#1308,#1309,#1310,#1311,#1312,#1313,
#1314,#1315,#1316,#1317,#1318,#1319,#1320,#1321,#1322,#1323,#1324,#1325,
#1326,#1327,#1328,#1329,#1330,#1331,#1332,#1333,#1334,#1335,#1336,#1337,
#1338,#1339,#1340,#1341,#1342,#1343,#1344,#1345,#1346,#1347,#1348,#1349,
#1350,#1351,#1352,#1353,#1354,#1355,#1356,#1357,#1358,#1359,#1360,#1361));
#1363=STYLED_ITEM('',(#1364),#1371);
#1364=PRESENTATION_STYLE_ASSIGNMENT((#1365));
#1365=SURFACE_STYLE_USAGE(.BOTH.,#1366);
#1366=SURFACE_SIDE_STYLE('',(#1367));
#1367=SURFACE_STYLE_FILL_AREA(#1368);
#1368=FILL_AREA_STYLE('',(#1369));
#1369=FILL_AREA_STYLE_COLOUR('',#1370);
#1370=COLOUR_RGB('',0.615686274509804,0.811764705882353,0.929411764705882);
#1371=MANIFOLD_SOLID_BREP('Belt Clamp Mount',#1362);
#1372=SHAPE_DEFINITION_REPRESENTATION(#2168,#1373);
#1373=SHAPE_REPRESENTATION('Belt Clamp Mount',(#1374),#2163);
#1374=AXIS2_PLACEMENT_3D('',#1783,#1451,#1452);
#1375=AXIS2_PLACEMENT_3D('',#1784,#1453,#1454);
#1376=AXIS2_PLACEMENT_3D('',#1785,#1455,#1456);
#1377=AXIS2_PLACEMENT_3D('',#1787,#1457,#1458);
#1378=AXIS2_PLACEMENT_3D('',#1789,#1459,#1460);
#1379=AXIS2_PLACEMENT_3D('',#1790,#1461,#1462);
#1380=AXIS2_PLACEMENT_3D('',#1792,#1463,#1464);
#1381=AXIS2_PLACEMENT_3D('',#1794,#1465,#1466);
#1382=AXIS2_PLACEMENT_3D('',#1807,#1473,#1474);
#1383=AXIS2_PLACEMENT_3D('',#1816,#1479,#1480);
#1384=AXIS2_PLACEMENT_3D('',#1829,#1487,#1488);
#1385=AXIS2_PLACEMENT_3D('',#1845,#1498,#1499);
#1386=AXIS2_PLACEMENT_3D('',#1846,#1500,#1501);
#1387=AXIS2_PLACEMENT_3D('',#1851,#1503,#1504);
#1388=AXIS2_PLACEMENT_3D('',#1854,#1506,#1507);
#1389=AXIS2_PLACEMENT_3D('',#1860,#1511,#1512);
#1390=AXIS2_PLACEMENT_3D('',#1863,#1515,#1516);
#1391=AXIS2_PLACEMENT_3D('',#1872,#1521,#1522);
#1392=AXIS2_PLACEMENT_3D('',#1873,#1523,#1524);
#1393=AXIS2_PLACEMENT_3D('',#1875,#1525,#1526);
#1394=AXIS2_PLACEMENT_3D('',#1878,#1528,#1529);
#1395=AXIS2_PLACEMENT_3D('',#1881,#1532,#1533);
#1396=AXIS2_PLACEMENT_3D('',#1905,#1547,#1548);
#1397=AXIS2_PLACEMENT_3D('',#1911,#1552,#1553);
#1398=AXIS2_PLACEMENT_3D('',#1941,#1569,#1570);
#1399=AXIS2_PLACEMENT_3D('',#1947,#1574,#1575);
#1400=AXIS2_PLACEMENT_3D('',#1961,#1583,#1584);
#1401=AXIS2_PLACEMENT_3D('',#1967,#1588,#1589);
#1402=AXIS2_PLACEMENT_3D('',#1989,#1601,#1602);
#1403=AXIS2_PLACEMENT_3D('',#1995,#1606,#1607);
#1404=AXIS2_PLACEMENT_3D('',#2017,#1619,#1620);
#1405=AXIS2_PLACEMENT_3D('',#2020,#1623,#1624);
#1406=AXIS2_PLACEMENT_3D('',#2028,#1629,#1630);
#1407=AXIS2_PLACEMENT_3D('',#2036,#1635,#1636);
#1408=AXIS2_PLACEMENT_3D('',#2044,#1641,#1642);
#1409=AXIS2_PLACEMENT_3D('',#2046,#1644,#1645);
#1410=AXIS2_PLACEMENT_3D('',#2048,#1647,#1648);
#1411=AXIS2_PLACEMENT_3D('',#2050,#1650,#1651);
#1412=AXIS2_PLACEMENT_3D('',#2051,#1652,#1653);
#1413=AXIS2_PLACEMENT_3D('',#2059,#1658,#1659);
#1414=AXIS2_PLACEMENT_3D('',#2061,#1661,#1662);
#1415=AXIS2_PLACEMENT_3D('',#2063,#1664,#1665);
#1416=AXIS2_PLACEMENT_3D('',#2065,#1667,#1668);
#1417=AXIS2_PLACEMENT_3D('',#2066,#1669,#1670);
#1418=AXIS2_PLACEMENT_3D('',#2070,#1673,#1674);
#1419=AXIS2_PLACEMENT_3D('',#2072,#1676,#1677);
#1420=AXIS2_PLACEMENT_3D('',#2074,#1679,#1680);
#1421=AXIS2_PLACEMENT_3D('',#2076,#1682,#1683);
#1422=AXIS2_PLACEMENT_3D('',#2078,#1685,#1686);
#1423=AXIS2_PLACEMENT_3D('',#2081,#1689,#1690);
#1424=AXIS2_PLACEMENT_3D('',#2085,#1693,#1694);
#1425=AXIS2_PLACEMENT_3D('',#2087,#1696,#1697);
#1426=AXIS2_PLACEMENT_3D('',#2088,#1698,#1699);
#1427=AXIS2_PLACEMENT_3D('',#2089,#1700,#1701);
#1428=AXIS2_PLACEMENT_3D('',#2091,#1703,#1704);
#1429=AXIS2_PLACEMENT_3D('',#2093,#1706,#1707);
#1430=AXIS2_PLACEMENT_3D('',#2097,#1710,#1711);
#1431=AXIS2_PLACEMENT_3D('',#2101,#1714,#1715);
#1432=AXIS2_PLACEMENT_3D('',#2103,#1717,#1718);
#1433=AXIS2_PLACEMENT_3D('',#2105,#1720,#1721);
#1434=AXIS2_PLACEMENT_3D('',#2108,#1724,#1725);
#1435=AXIS2_PLACEMENT_3D('',#2110,#1727,#1728);
#1436=AXIS2_PLACEMENT_3D('',#2111,#1729,#1730);
#1437=AXIS2_PLACEMENT_3D('',#2112,#1731,#1732);
#1438=AXIS2_PLACEMENT_3D('',#2118,#1736,#1737);
#1439=AXIS2_PLACEMENT_3D('',#2122,#1740,#1741);
#1440=AXIS2_PLACEMENT_3D('',#2126,#1744,#1745);
#1441=AXIS2_PLACEMENT_3D('',#2130,#1748,#1749);
#1442=AXIS2_PLACEMENT_3D('',#2134,#1752,#1753);
#1443=AXIS2_PLACEMENT_3D('',#2136,#1755,#1756);
#1444=AXIS2_PLACEMENT_3D('',#2137,#1757,#1758);
#1445=AXIS2_PLACEMENT_3D('',#2143,#1762,#1763);
#1446=AXIS2_PLACEMENT_3D('',#2147,#1766,#1767);
#1447=AXIS2_PLACEMENT_3D('',#2151,#1770,#1771);
#1448=AXIS2_PLACEMENT_3D('',#2155,#1774,#1775);
#1449=AXIS2_PLACEMENT_3D('',#2159,#1778,#1779);
#1450=AXIS2_PLACEMENT_3D('',#2161,#1781,#1782);
#1451=DIRECTION('',(0.,0.,1.));
#1452=DIRECTION('',(1.,0.,0.));
#1453=DIRECTION('',(0.,-1.,-2.4093381610789E-16));
#1454=DIRECTION('',(0.,2.4093381610789E-16,-1.));
#1455=DIRECTION('',(0.,-1.,-2.4093381610789E-16));
#1456=DIRECTION('',(0.,2.4093381610789E-16,-1.));
#1457=DIRECTION('',(0.,-1.,-2.77555756156289E-16));
#1458=DIRECTION('',(0.,2.77555756156289E-16,-1.));
#1459=DIRECTION('',(0.,-1.,-2.4093381610789E-16));
#1460=DIRECTION('',(0.,2.4093381610789E-16,-1.));
#1461=DIRECTION('',(0.,-1.,-2.4093381610789E-16));
#1462=DIRECTION('',(0.,2.4093381610789E-16,-1.));
#1463=DIRECTION('',(0.,-1.,-2.77555756156289E-16));
#1464=DIRECTION('',(0.,2.77555756156289E-16,-1.));
#1465=DIRECTION('',(0.,0.,-1.));
#1466=DIRECTION('',(-1.,0.,0.));
#1467=DIRECTION('',(-1.03607903361184E-15,-1.,0.));
#1468=DIRECTION('',(-1.,0.,0.));
#1469=DIRECTION('',(0.,-1.,0.));
#1470=DIRECTION('',(1.,0.,0.));
#1471=DIRECTION('',(0.,-1.,0.));
#1472=DIRECTION('',(-1.,0.,0.));
#1473=DIRECTION('',(0.,0.,-1.));
#1474=DIRECTION('',(-1.,0.,0.));
#1475=DIRECTION('',(1.03607903361183E-15,1.,0.));
#1476=DIRECTION('',(-1.,0.,0.));
#1477=DIRECTION('',(0.,-1.,0.));
#1478=DIRECTION('',(-1.,0.,0.));
#1479=DIRECTION('',(0.,0.,-1.));
#1480=DIRECTION('',(-1.,0.,0.));
#1481=DIRECTION('',(0.,1.,0.));
#1482=DIRECTION('',(-1.,0.,0.));
#1483=DIRECTION('',(0.,-1.,0.));
#1484=DIRECTION('',(-1.,0.,0.));
#1485=DIRECTION('',(0.,-1.,0.));
#1486=DIRECTION('',(-1.,0.,0.));
#1487=DIRECTION('',(0.,-1.,0.));
#1488=DIRECTION('',(0.,0.,-1.));
#1489=DIRECTION('',(-1.,0.,0.));
#1490=DIRECTION('',(0.,0.,1.));
#1491=DIRECTION('',(0.,0.,1.));
#1492=DIRECTION('',(-1.,0.,0.));
#1493=DIRECTION('',(0.,0.,1.));
#1494=DIRECTION('',(0.,0.,1.));
#1495=DIRECTION('',(-1.,0.,0.));
#1496=DIRECTION('',(0.,0.,1.));
#1497=DIRECTION('',(0.,0.,1.));
#1498=DIRECTION('',(0.,0.,-1.));
#1499=DIRECTION('',(-1.,0.,0.));
#1500=DIRECTION('',(0.,0.,1.));
#1501=DIRECTION('',(1.,0.,0.));
#1502=DIRECTION('',(0.,0.,-1.));
#1503=DIRECTION('',(0.,0.,-1.));
#1504=DIRECTION('',(-1.,0.,0.));
#1505=DIRECTION('',(0.,0.,-1.));
#1506=DIRECTION('',(0.5,-0.866025403784439,0.));
#1507=DIRECTION('',(0.866025403784439,0.5,0.));
#1508=DIRECTION('',(-0.866025403784439,-0.5,0.));
#1509=DIRECTION('',(-0.866025403784439,-0.5,0.));
#1510=DIRECTION('',(0.,0.,-1.));
#1511=DIRECTION('',(-0.5,-0.866025403784438,0.));
#1512=DIRECTION('',(0.866025403784438,-0.5,0.));
#1513=DIRECTION('',(-0.866025403784438,0.5,0.));
#1514=DIRECTION('',(-0.866025403784438,0.5,0.));
#1515=DIRECTION('',(-0.5,-0.866025403784438,0.));
#1516=DIRECTION('',(0.866025403784438,-0.5,0.));
#1517=DIRECTION('',(-0.866025403784438,0.5,0.));
#1518=DIRECTION('',(0.,0.,-1.));
#1519=DIRECTION('',(-0.866025403784438,0.5,0.));
#1520=DIRECTION('',(0.,0.,-1.));
#1521=DIRECTION('',(0.,0.,-1.));
#1522=DIRECTION('',(-1.,0.,0.));
#1523=DIRECTION('',(0.,0.,1.));
#1524=DIRECTION('',(1.,0.,0.));
#1525=DIRECTION('',(0.,0.,-1.));
#1526=DIRECTION('',(-1.,0.,0.));
#1527=DIRECTION('',(0.,0.,-1.));
#1528=DIRECTION('',(0.5,-0.866025403784438,0.));
#1529=DIRECTION('',(0.866025403784438,0.5,0.));
#1530=DIRECTION('',(-0.866025403784438,-0.5,0.));
#1531=DIRECTION('',(-0.866025403784438,-0.5,0.));
#1532=DIRECTION('',(0.,-1.,-2.4093381610789E-16));
#1533=DIRECTION('',(0.,2.4093381610789E-16,-1.));
#1534=DIRECTION('',(0.,-2.4093381610789E-16,1.));
#1535=DIRECTION('',(-1.,0.,0.));
#1536=DIRECTION('',(-1.,0.,0.));
#1537=DIRECTION('',(0.,-2.4093381610789E-16,1.));
#1538=DIRECTION('',(-1.,0.,0.));
#1539=DIRECTION('',(0.,-2.4093381610789E-16,1.));
#1540=DIRECTION('',(-1.,0.,0.));
#1541=DIRECTION('',(0.,-2.4093381610789E-16,1.));
#1542=DIRECTION('',(-1.,0.,0.));
#1543=DIRECTION('',(0.,-2.4093381610789E-16,1.));
#1544=DIRECTION('',(1.,0.,0.));
#1545=DIRECTION('',(0.,-2.4093381610789E-16,1.));
#1546=DIRECTION('',(1.,0.,0.));
#1547=DIRECTION('',(0.,0.,1.));
#1548=DIRECTION('',(1.,0.,0.));
#1549=DIRECTION('',(0.,1.,0.));
#1550=DIRECTION('',(-1.,0.,0.));
#1551=DIRECTION('',(0.,1.,0.));
#1552=DIRECTION('',(0.,-1.,-2.77555756156289E-16));
#1553=DIRECTION('',(0.,2.77555756156289E-16,-1.));
#1554=DIRECTION('',(1.,2.38272036821214E-31,-8.58465484992663E-16));
#1555=DIRECTION('',(0.5,-2.40370335797945E-16,0.866025403784438));
#1556=DIRECTION('',(-0.5,-2.40370335797945E-16,0.866025403784439));
#1557=DIRECTION('',(-1.,-2.38272036821214E-31,8.58465484992663E-16));
#1558=DIRECTION('',(-0.5,2.40370335797945E-16,-0.866025403784438));
#1559=DIRECTION('',(0.5,2.40370335797945E-16,-0.866025403784439));
#1560=DIRECTION('',(1.,0.,0.));
#1561=DIRECTION('',(0.5,-2.40370335797945E-16,0.866025403784439));
#1562=DIRECTION('',(-0.5,-2.40370335797945E-16,0.866025403784438));
#1563=DIRECTION('',(-1.,0.,0.));
#1564=DIRECTION('',(-0.5,2.40370335797945E-16,-0.866025403784439));
#1565=DIRECTION('',(0.5,2.40370335797945E-16,-0.866025403784439));
#1566=DIRECTION('',(0.,-2.77555756156289E-16,1.));
#1567=DIRECTION('',(-1.,0.,0.));
#1568=DIRECTION('',(0.,-2.77555756156289E-16,1.));
#1569=DIRECTION('',(0.,0.,1.));
#1570=DIRECTION('',(1.,0.,0.));
#1571=DIRECTION('',(0.,1.,0.));
#1572=DIRECTION('',(-1.,0.,0.));
#1573=DIRECTION('',(0.,1.,0.));
#1574=DIRECTION('',(0.,-1.,0.));
#1575=DIRECTION('',(0.,0.,-1.));
#1576=DIRECTION('',(0.,0.,1.));
#1577=DIRECTION('',(1.,0.,0.));
#1578=DIRECTION('',(0.,0.,1.));
#1579=DIRECTION('',(-1.,0.,0.));
#1580=DIRECTION('',(0.,0.,1.));
#1581=DIRECTION('',(-1.,0.,0.));
#1582=DIRECTION('',(0.,0.,1.));
#1583=DIRECTION('',(0.,0.,-1.));
#1584=DIRECTION('',(-1.,0.,0.));
#1585=DIRECTION('',(0.,-1.,0.));
#1586=DIRECTION('',(-1.,0.,0.));
#1587=DIRECTION('',(0.,-1.,0.));
#1588=DIRECTION('',(0.,-1.,-2.4093381610789E-16));
#1589=DIRECTION('',(0.,2.4093381610789E-16,-1.));
#1590=DIRECTION('',(0.,-2.4093381610789E-16,1.));
#1591=DIRECTION('',(-1.,0.,0.));
#1592=DIRECTION('',(0.,-2.4093381610789E-16,1.));
#1593=DIRECTION('',(-1.,0.,0.));
#1594=DIRECTION('',(0.,-2.4093381610789E-16,1.));
#1595=DIRECTION('',(-1.,0.,0.));
#1596=DIRECTION('',(0.,-2.4093381610789E-16,1.));
#1597=DIRECTION('',(0.,-2.4093381610789E-16,1.));
#1598=DIRECTION('',(1.,0.,0.));
#1599=DIRECTION('',(0.,-2.4093381610789E-16,1.));
#1600=DIRECTION('',(1.,0.,0.));
#1601=DIRECTION('',(0.,0.,-1.));
#1602=DIRECTION('',(-1.,0.,0.));
#1603=DIRECTION('',(0.,-1.,0.));
#1604=DIRECTION('',(-1.,0.,0.));
#1605=DIRECTION('',(0.,-1.,0.));
#1606=DIRECTION('',(0.,1.,1.22464679914735E-16));
#1607=DIRECTION('',(0.,-1.22464679914735E-16,1.));
#1608=DIRECTION('',(0.,0.,-1.));
#1609=DIRECTION('',(1.,0.,0.));
#1610=DIRECTION('',(0.,0.,-1.));
#1611=DIRECTION('',(1.,0.,0.));
#1612=DIRECTION('',(0.,0.,-1.));
#1613=DIRECTION('',(-1.,0.,0.));
#1614=DIRECTION('',(0.,0.,-1.));
#1615=DIRECTION('',(-1.,0.,0.));
#1616=DIRECTION('',(0.,0.,-1.));
#1617=DIRECTION('',(-1.,0.,0.));
#1618=DIRECTION('',(0.,0.,-1.));
#1619=DIRECTION('',(0.,0.,1.));
#1620=DIRECTION('',(1.,0.,0.));
#1621=DIRECTION('',(0.,1.,0.));
#1622=DIRECTION('',(0.,1.,0.));
#1623=DIRECTION('',(0.,0.,-1.));
#1624=DIRECTION('',(-1.,0.,0.));
#1625=DIRECTION('',(-1.03607903361184E-15,-1.,0.));
#1626=DIRECTION('',(-0.86602540378444,-0.5,0.));
#1627=DIRECTION('',(-0.866025403784438,0.5,0.));
#1628=DIRECTION('',(1.03607903361183E-15,1.,0.));
#1629=DIRECTION('',(0.,0.,-1.));
#1630=DIRECTION('',(-1.,0.,0.));
#1631=DIRECTION('',(0.,-1.,0.));
#1632=DIRECTION('',(-0.866025403784439,-0.5,0.));
#1633=DIRECTION('',(-0.866025403784438,0.5,0.));
#1634=DIRECTION('',(0.,1.,0.));
#1635=DIRECTION('',(0.,0.,1.));
#1636=DIRECTION('',(1.,0.,0.));
#1637=DIRECTION('',(0.,-1.,0.));
#1638=DIRECTION('',(0.,1.,0.));
#1639=DIRECTION('',(-0.866025403784438,0.5,0.));
#1640=DIRECTION('',(-0.866025403784439,-0.5,0.));
#1641=DIRECTION('',(-1.,0.,0.));
#1642=DIRECTION('',(0.,0.,1.));
#1643=DIRECTION('',(0.,0.,1.));
#1644=DIRECTION('',(1.,0.,0.));
#1645=DIRECTION('',(0.,0.,-1.));
#1646=DIRECTION('',(0.,0.,1.));
#1647=DIRECTION('',(0.5,0.866025403784439,0.));
#1648=DIRECTION('',(-0.866025403784439,0.5,0.));
#1649=DIRECTION('',(0.,0.,1.));
#1650=DIRECTION('',(-0.5,0.866025403784439,0.));
#1651=DIRECTION('',(-0.866025403784439,-0.5,0.));
#1652=DIRECTION('',(0.,0.,1.));
#1653=DIRECTION('',(1.,0.,0.));
#1654=DIRECTION('',(-1.03607903361184E-15,-1.,0.));
#1655=DIRECTION('',(1.03607903361183E-15,1.,0.));
#1656=DIRECTION('',(-0.866025403784438,0.5,0.));
#1657=DIRECTION('',(-0.86602540378444,-0.5,0.));
#1658=DIRECTION('',(-1.,1.03607903361184E-15,0.));
#1659=DIRECTION('',(-1.03607903361184E-15,-1.,0.));
#1660=DIRECTION('',(0.,0.,1.));
#1661=DIRECTION('',(1.,-1.03607903361183E-15,0.));
#1662=DIRECTION('',(1.03607903361183E-15,1.,0.));
#1663=DIRECTION('',(0.,0.,1.));
#1664=DIRECTION('',(0.5,0.866025403784438,0.));
#1665=DIRECTION('',(-0.866025403784438,0.5,0.));
#1666=DIRECTION('',(0.,0.,1.));
#1667=DIRECTION('',(-0.5,0.86602540378444,0.));
#1668=DIRECTION('',(-0.86602540378444,-0.5,0.));
#1669=DIRECTION('',(1.,0.,0.));
#1670=DIRECTION('',(0.,1.,0.));
#1671=DIRECTION('',(0.,0.,-1.));
#1672=DIRECTION('',(0.,-1.,0.));
#1673=DIRECTION('',(1.,0.,0.));
#1674=DIRECTION('',(0.,1.,0.));
#1675=DIRECTION('',(0.,1.,0.));
#1676=DIRECTION('',(1.,0.,0.));
#1677=DIRECTION('',(0.,1.,0.));
#1678=DIRECTION('',(0.,-1.,0.));
#1679=DIRECTION('',(0.,0.,1.));
#1680=DIRECTION('',(1.,0.,0.));
#1681=DIRECTION('',(0.,1.,0.));
#1682=DIRECTION('',(0.,0.,-1.));
#1683=DIRECTION('',(-1.,0.,0.));
#1684=DIRECTION('',(0.,-1.,0.));
#1685=DIRECTION('',(0.,0.,1.));
#1686=DIRECTION('',(1.,0.,0.));
#1687=DIRECTION('',(0.,1.,0.));
#1688=DIRECTION('',(0.,1.,0.));
#1689=DIRECTION('',(0.,0.,-1.));
#1690=DIRECTION('',(-1.,0.,0.));
#1691=DIRECTION('',(-1.,0.,0.));
#1692=DIRECTION('',(0.,-1.,0.));
#1693=DIRECTION('',(0.,1.,0.));
#1694=DIRECTION('',(0.,0.,1.));
#1695=DIRECTION('',(0.,0.,-1.));
#1696=DIRECTION('',(1.,0.,0.));
#1697=DIRECTION('',(0.,1.,0.));
#1698=DIRECTION('',(1.,0.,0.));
#1699=DIRECTION('',(0.,1.,0.));
#1700=DIRECTION('',(-1.,0.,0.));
#1701=DIRECTION('',(0.,1.,0.));
#1702=DIRECTION('',(0.,1.,0.));
#1703=DIRECTION('',(-1.,0.,0.));
#1704=DIRECTION('',(0.,1.,0.));
#1705=DIRECTION('',(0.,1.,0.));
#1706=DIRECTION('',(-1.,0.,0.));
#1707=DIRECTION('',(0.,1.,0.));
#1708=DIRECTION('',(0.,-1.,0.));
#1709=DIRECTION('',(0.,0.,-1.));
#1710=DIRECTION('',(0.,-1.,0.));
#1711=DIRECTION('',(0.,0.,-1.));
#1712=DIRECTION('',(1.,0.,0.));
#1713=DIRECTION('',(0.,0.,-1.));
#1714=DIRECTION('',(0.,0.,1.));
#1715=DIRECTION('',(1.,0.,0.));
#1716=DIRECTION('',(0.,-1.,0.));
#1717=DIRECTION('',(0.,0.,-1.));
#1718=DIRECTION('',(-1.,0.,0.));
#1719=DIRECTION('',(0.,1.,0.));
#1720=DIRECTION('',(0.,0.,1.));
#1721=DIRECTION('',(1.,0.,0.));
#1722=DIRECTION('',(0.,-1.,0.));
#1723=DIRECTION('',(0.,-1.,0.));
#1724=DIRECTION('',(0.,0.,-1.));
#1725=DIRECTION('',(-1.,0.,0.));
#1726=DIRECTION('',(0.,1.,0.));
#1727=DIRECTION('',(-1.,0.,0.));
#1728=DIRECTION('',(0.,1.,0.));
#1729=DIRECTION('',(-1.,0.,0.));
#1730=DIRECTION('',(0.,1.,0.));
#1731=DIRECTION('',(-0.866025403784439,-1.38777878078145E-16,0.5));
#1732=DIRECTION('',(0.5,0.,0.866025403784439));
#1733=DIRECTION('',(0.,1.,2.77555756156289E-16));
#1734=DIRECTION('',(0.5,-2.40370335797945E-16,0.866025403784439));
#1735=DIRECTION('',(0.,1.,2.77555756156289E-16));
#1736=DIRECTION('',(0.,-2.77555756156289E-16,1.));
#1737=DIRECTION('',(0.,-1.,-2.77555756156289E-16));
#1738=DIRECTION('',(0.,1.,2.77555756156289E-16));
#1739=DIRECTION('',(1.,0.,0.));
#1740=DIRECTION('',(0.866025403784439,-1.38777878078145E-16,0.5));
#1741=DIRECTION('',(0.5,0.,-0.866025403784439));
#1742=DIRECTION('',(0.,1.,2.77555756156289E-16));
#1743=DIRECTION('',(0.5,2.40370335797945E-16,-0.866025403784439));
#1744=DIRECTION('',(0.866025403784439,1.38777878078144E-16,-0.5));
#1745=DIRECTION('',(-0.5,0.,-0.866025403784439));
#1746=DIRECTION('',(0.,1.,2.77555756156289E-16));
#1747=DIRECTION('',(-0.5,2.40370335797945E-16,-0.866025403784439));
#1748=DIRECTION('',(0.,2.77555756156289E-16,-1.));
#1749=DIRECTION('',(0.,1.,2.77555756156289E-16));
#1750=DIRECTION('',(0.,1.,2.77555756156289E-16));
#1751=DIRECTION('',(-1.,0.,0.));
#1752=DIRECTION('',(-0.866025403784438,1.38777878078145E-16,-0.5));
#1753=DIRECTION('',(-0.5,0.,0.866025403784438));
#1754=DIRECTION('',(-0.5,-2.40370335797945E-16,0.866025403784438));
#1755=DIRECTION('',(0.,1.,2.77555756156289E-16));
#1756=DIRECTION('',(-1.,0.,0.));
#1757=DIRECTION('',(-0.866025403784438,-1.38777878078145E-16,0.5));
#1758=DIRECTION('',(0.5,0.,0.866025403784438));
#1759=DIRECTION('',(0.,1.,2.77555756156289E-16));
#1760=DIRECTION('',(0.5,-2.40370335797945E-16,0.866025403784438));
#1761=DIRECTION('',(0.,1.,2.77555756156289E-16));
#1762=DIRECTION('',(8.58465484992663E-16,-2.77555756156289E-16,1.));
#1763=DIRECTION('',(1.,0.,-8.58465484992663E-16));
#1764=DIRECTION('',(0.,1.,2.77555756156289E-16));
#1765=DIRECTION('',(1.,2.38272036821214E-31,-8.58465484992663E-16));
#1766=DIRECTION('',(0.866025403784439,-1.38777878078144E-16,0.5));
#1767=DIRECTION('',(0.5,0.,-0.866025403784439));
#1768=DIRECTION('',(0.,1.,2.77555756156289E-16));
#1769=DIRECTION('',(0.5,2.40370335797945E-16,-0.866025403784439));
#1770=DIRECTION('',(0.866025403784438,1.38777878078145E-16,-0.5));
#1771=DIRECTION('',(-0.5,0.,-0.866025403784438));
#1772=DIRECTION('',(0.,1.,2.77555756156289E-16));
#1773=DIRECTION('',(-0.5,2.40370335797945E-16,-0.866025403784438));
#1774=DIRECTION('',(-8.58465484992663E-16,2.77555756156289E-16,-1.));
#1775=DIRECTION('',(-1.,0.,8.58465484992663E-16));
#1776=DIRECTION('',(0.,1.,2.77555756156289E-16));
#1777=DIRECTION('',(-1.,-2.38272036821214E-31,8.58465484992663E-16));
#1778=DIRECTION('',(-0.866025403784439,1.38777878078144E-16,-0.5));
#1779=DIRECTION('',(-0.5,0.,0.866025403784439));
#1780=DIRECTION('',(-0.5,-2.40370335797945E-16,0.866025403784439));
#1781=DIRECTION('',(0.,1.,2.77555756156289E-16));
#1782=DIRECTION('',(-1.,0.,0.));
#1783=CARTESIAN_POINT('',(0.,0.,0.));
#1784=CARTESIAN_POINT('',(8.67361737988404E-19,0.0488582538049648,0.0195));
#1785=CARTESIAN_POINT('',(8.67361737988404E-19,0.000629999999999993,0.0195));
#1786=CARTESIAN_POINT('',(8.67361737988404E-19,0.000629999999999994,0.0173));
#1787=CARTESIAN_POINT('',(8.67361737988404E-19,0.003,0.0195));
#1788=CARTESIAN_POINT('',(8.67361737988404E-19,0.003,0.0173));
#1789=CARTESIAN_POINT('',(0.,0.0488582538049648,0.0095));
#1790=CARTESIAN_POINT('',(0.,0.00063,0.0095));
#1791=CARTESIAN_POINT('',(0.,0.000630000000000001,0.0073));
#1792=CARTESIAN_POINT('',(0.,0.003,0.0095));
#1793=CARTESIAN_POINT('',(0.,0.003,0.0073));
#1794=CARTESIAN_POINT('',(0.02,0.000315,0.005));
#1795=CARTESIAN_POINT('',(-0.0149,8.02309607639273E-18,0.005));
#1796=CARTESIAN_POINT('',(-0.0149,0.00063,0.005));
#1797=CARTESIAN_POINT('',(-0.0149,-0.005,0.005));
#1798=CARTESIAN_POINT('',(0.02,0.00063,0.005));
#1799=CARTESIAN_POINT('',(-0.02,0.00063,0.005));
#1800=CARTESIAN_POINT('',(-0.02,0.000315,0.005));
#1801=CARTESIAN_POINT('',(-0.02,0.,0.005));
#1802=CARTESIAN_POINT('',(-0.023,0.,0.005));
#1803=CARTESIAN_POINT('',(-0.023,0.,0.005));
#1804=CARTESIAN_POINT('',(-0.023,0.000315,0.005));
#1805=CARTESIAN_POINT('',(-0.023,-0.005,0.005));
#1806=CARTESIAN_POINT('',(0.02,-0.005,0.005));
#1807=CARTESIAN_POINT('',(0.02,0.000315,0.005));
#1808=CARTESIAN_POINT('',(-0.0091,0.,0.005));
#1809=CARTESIAN_POINT('',(-0.0091,-0.005,0.005));
#1810=CARTESIAN_POINT('',(-0.0091,0.00063,0.005));
#1811=CARTESIAN_POINT('',(0.02,-0.005,0.005));
#1812=CARTESIAN_POINT('',(0.0091,-0.005,0.005));
#1813=CARTESIAN_POINT('',(0.0091,-4.11996825544492E-18,0.005));
#1814=CARTESIAN_POINT('',(0.0091,0.00063,0.005));
#1815=CARTESIAN_POINT('',(0.02,0.00063,0.005));
#1816=CARTESIAN_POINT('',(0.02,0.000315,0.005));
#1817=CARTESIAN_POINT('',(0.0149,-3.46944695195361E-18,0.005));
#1818=CARTESIAN_POINT('',(0.0149,-0.005,0.005));
#1819=CARTESIAN_POINT('',(0.0149,0.00063,0.005));
#1820=CARTESIAN_POINT('',(0.02,-0.005,0.005));
#1821=CARTESIAN_POINT('',(0.023,-0.005,0.005));
#1822=CARTESIAN_POINT('',(0.023,0.000315,0.005));
#1823=CARTESIAN_POINT('',(0.023,0.,0.005));
#1824=CARTESIAN_POINT('',(0.023,0.,0.005));
#1825=CARTESIAN_POINT('',(0.02,0.,0.005));
#1826=CARTESIAN_POINT('',(0.02,0.000315,0.005));
#1827=CARTESIAN_POINT('',(0.02,0.00063,0.005));
#1828=CARTESIAN_POINT('',(0.02,0.00063,0.005));
#1829=CARTESIAN_POINT('',(0.02,-0.005,0.0025));
#1830=CARTESIAN_POINT('',(0.02,-0.005,0.0024));
#1831=CARTESIAN_POINT('',(-0.0091,-0.005,0.0024));
#1832=CARTESIAN_POINT('',(-0.0149,-0.005,0.0024));
#1833=CARTESIAN_POINT('',(-0.0149,-0.005,0.0024));
#1834=CARTESIAN_POINT('',(-0.023,-0.005,0.0025));
#1835=CARTESIAN_POINT('',(-0.023,-0.005,-1.3010426069826E-18));
#1836=CARTESIAN_POINT('',(0.02,-0.005,-1.3010426069826E-18));
#1837=CARTESIAN_POINT('',(0.023,-0.005,-1.3010426069826E-18));
#1838=CARTESIAN_POINT('',(0.023,-0.005,0.0025));
#1839=CARTESIAN_POINT('',(0.0149,-0.005,0.0024));
#1840=CARTESIAN_POINT('',(0.0149,-0.005,0.0024));
#1841=CARTESIAN_POINT('',(0.02,-0.005,0.0024));
#1842=CARTESIAN_POINT('',(0.0091,-0.005,0.0024));
#1843=CARTESIAN_POINT('',(0.0091,-0.005,0.0024));
#1844=CARTESIAN_POINT('',(-0.0091,-0.005,0.0024));
#1845=CARTESIAN_POINT('',(-0.012,4.87890977618477E-18,0.005002));
#1846=CARTESIAN_POINT('',(-0.012,4.87890977618477E-18,0.0024));
#1847=CARTESIAN_POINT('',(-0.0129,-0.00155884572681199,0.0024));
#1848=CARTESIAN_POINT('',(-0.0111,-0.00155884572681199,0.0024));
#1849=CARTESIAN_POINT('',(-0.0129,-0.00155884572681199,0.005002));
#1850=CARTESIAN_POINT('',(-0.0129,-0.00155884572681199,0.));
#1851=CARTESIAN_POINT('',(-0.012,4.87890977618477E-18,0.));
#1852=CARTESIAN_POINT('',(-0.0111,-0.00155884572681199,0.));
#1853=CARTESIAN_POINT('',(-0.0111,-0.00155884572681199,0.005002));
#1854=CARTESIAN_POINT('',(-0.01155,-0.00181865334794732,0.005002));
#1855=CARTESIAN_POINT('',(-0.01155,-0.00181865334794732,0.0024));
#1856=CARTESIAN_POINT('',(-0.012,-0.00207846096908265,0.0024));
#1857=CARTESIAN_POINT('',(-0.01155,-0.00181865334794732,0.));
#1858=CARTESIAN_POINT('',(-0.012,-0.00207846096908265,0.));
#1859=CARTESIAN_POINT('',(-0.012,-0.00207846096908265,0.005002));
#1860=CARTESIAN_POINT('',(-0.01245,-0.00181865334794732,0.005002));
#1861=CARTESIAN_POINT('',(-0.01245,-0.00181865334794732,0.0024));
#1862=CARTESIAN_POINT('',(-0.01245,-0.00181865334794732,0.));
#1863=CARTESIAN_POINT('',(0.01155,-0.00181865334794732,0.005002));
#1864=CARTESIAN_POINT('',(0.01155,-0.00181865334794732,0.0024));
#1865=CARTESIAN_POINT('',(0.012,-0.00207846096908265,0.0024));
#1866=CARTESIAN_POINT('',(0.0111,-0.001558845726812,0.0024));
#1867=CARTESIAN_POINT('',(0.012,-0.00207846096908266,0.005002));
#1868=CARTESIAN_POINT('',(0.012,-0.00207846096908266,0.));
#1869=CARTESIAN_POINT('',(0.01155,-0.00181865334794732,0.));
#1870=CARTESIAN_POINT('',(0.0111,-0.001558845726812,0.));
#1871=CARTESIAN_POINT('',(0.0111,-0.001558845726812,0.005002));
#1872=CARTESIAN_POINT('',(0.012,-4.01154803819636E-18,0.005002));
#1873=CARTESIAN_POINT('',(0.012,-4.01154803819636E-18,0.0024));
#1874=CARTESIAN_POINT('',(0.0129,-0.001558845726812,0.0024));
#1875=CARTESIAN_POINT('',(0.012,-4.01154803819636E-18,0.));
#1876=CARTESIAN_POINT('',(0.0129,-0.001558845726812,0.));
#1877=CARTESIAN_POINT('',(0.0129,-0.001558845726812,0.005002));
#1878=CARTESIAN_POINT('',(0.01245,-0.00181865334794732,0.005002));
#1879=CARTESIAN_POINT('',(0.01245,-0.00181865334794732,0.0024));
#1880=CARTESIAN_POINT('',(0.01245,-0.00181865334794732,0.));
#1881=CARTESIAN_POINT('',(0.02,0.00063,0.0095));
#1882=CARTESIAN_POINT('',(-0.02,0.00063,0.0095));
#1883=CARTESIAN_POINT('',(-0.02,0.00063,0.00645));
#1884=CARTESIAN_POINT('',(0.02,0.00063,0.005));
#1885=CARTESIAN_POINT('',(0.02,0.00063,0.005));
#1886=CARTESIAN_POINT('',(0.02,0.00063,0.0095));
#1887=CARTESIAN_POINT('',(0.02,0.00063,0.00645));
#1888=CARTESIAN_POINT('',(0.023,0.00063,0.00645));
#1889=CARTESIAN_POINT('',(0.023,0.00063,0.00645));
#1890=CARTESIAN_POINT('',(0.023,0.00063,0.0095));
#1891=CARTESIAN_POINT('',(0.023,0.00063,0.01255));
#1892=CARTESIAN_POINT('',(0.023,0.00063,0.01255));
#1893=CARTESIAN_POINT('',(0.02,0.00063,0.01255));
#1894=CARTESIAN_POINT('',(0.02,0.00063,0.0095));
#1895=CARTESIAN_POINT('',(0.02,0.00063,0.014));
#1896=CARTESIAN_POINT('',(0.02,0.00063,0.014));
#1897=CARTESIAN_POINT('',(-0.02,0.00063,0.014));
#1898=CARTESIAN_POINT('',(-0.02,0.00063,0.0095));
#1899=CARTESIAN_POINT('',(-0.02,0.00063,0.01255));
#1900=CARTESIAN_POINT('',(-0.023,0.00063,0.01255));
#1901=CARTESIAN_POINT('',(-0.023,0.00063,0.01255));
#1902=CARTESIAN_POINT('',(-0.023,0.00063,0.0095));
#1903=CARTESIAN_POINT('',(-0.023,0.00063,0.00645));
#1904=CARTESIAN_POINT('',(-0.023,0.00063,0.00645));
#1905=CARTESIAN_POINT('',(0.02,0.002815,0.));
#1906=CARTESIAN_POINT('',(-0.023,0.002815,0.));
#1907=CARTESIAN_POINT('',(-0.023,0.005,-6.93889390390723E-18));
#1908=CARTESIAN_POINT('',(0.02,0.005,-6.93889390390723E-18));
#1909=CARTESIAN_POINT('',(0.023,0.005,-6.93889390390723E-18));
#1910=CARTESIAN_POINT('',(0.023,0.002815,0.));
#1911=CARTESIAN_POINT('',(0.02,0.005,0.0125));
#1912=CARTESIAN_POINT('',(0.,0.005,0.023));
#1913=CARTESIAN_POINT('',(-0.00202072594216369,0.005,0.023));
#1914=CARTESIAN_POINT('',(0.00202072594216369,0.005,0.023));
#1915=CARTESIAN_POINT('',(-0.00303108891324554,0.005,0.02125));
#1916=CARTESIAN_POINT('',(-0.00404145188432738,0.005,0.0195));
#1917=CARTESIAN_POINT('',(-0.00303108891324554,0.005,0.01775));
#1918=CARTESIAN_POINT('',(-0.00202072594216369,0.005,0.016));
#1919=CARTESIAN_POINT('',(2.60208521396521E-18,0.005,0.016));
#1920=CARTESIAN_POINT('',(0.00202072594216369,0.005,0.016));
#1921=CARTESIAN_POINT('',(0.00303108891324554,0.005,0.01775));
#1922=CARTESIAN_POINT('',(0.00404145188432738,0.005,0.0195));
#1923=CARTESIAN_POINT('',(0.00303108891324554,0.005,0.02125));
#1924=CARTESIAN_POINT('',(0.,0.005,0.013));
#1925=CARTESIAN_POINT('',(-0.00202072594216369,0.005,0.013));
#1926=CARTESIAN_POINT('',(0.00202072594216369,0.005,0.013));
#1927=CARTESIAN_POINT('',(-0.00303108891324554,0.005,0.01125));
#1928=CARTESIAN_POINT('',(-0.00404145188432738,0.005,0.0095));
#1929=CARTESIAN_POINT('',(-0.00303108891324554,0.005,0.00775));
#1930=CARTESIAN_POINT('',(-0.00202072594216369,0.005,0.006));
#1931=CARTESIAN_POINT('',(4.33680868994202E-19,0.005,0.006));
#1932=CARTESIAN_POINT('',(0.00202072594216369,0.005,0.006));
#1933=CARTESIAN_POINT('',(0.00303108891324554,0.005,0.00775));
#1934=CARTESIAN_POINT('',(0.00404145188432738,0.005,0.0095));
#1935=CARTESIAN_POINT('',(0.00303108891324554,0.005,0.01125));
#1936=CARTESIAN_POINT('',(-0.023,0.005,0.0125));
#1937=CARTESIAN_POINT('',(-0.023,0.005,0.025));
#1938=CARTESIAN_POINT('',(0.02,0.005,0.025));
#1939=CARTESIAN_POINT('',(0.023,0.005,0.025));
#1940=CARTESIAN_POINT('',(0.023,0.005,0.0125));
#1941=CARTESIAN_POINT('',(0.02,0.002815,0.025));
#1942=CARTESIAN_POINT('',(-0.023,0.002815,0.025));
#1943=CARTESIAN_POINT('',(-0.023,0.,0.025));
#1944=CARTESIAN_POINT('',(0.02,0.,0.025));
#1945=CARTESIAN_POINT('',(0.023,0.,0.025));
#1946=CARTESIAN_POINT('',(0.023,0.002815,0.025));
#1947=CARTESIAN_POINT('',(0.02,0.,0.0245));
#1948=CARTESIAN_POINT('',(-0.023,0.,0.023775));
#1949=CARTESIAN_POINT('',(-0.023,0.,0.02255));
#1950=CARTESIAN_POINT('',(-0.023,0.,0.02255));
#1951=CARTESIAN_POINT('',(-0.02,0.,0.02255));
#1952=CARTESIAN_POINT('',(-0.02,0.,0.023775));
#1953=CARTESIAN_POINT('',(-0.02,0.,0.024));
#1954=CARTESIAN_POINT('',(0.02,0.,0.024));
#1955=CARTESIAN_POINT('',(0.02,0.,0.024));
#1956=CARTESIAN_POINT('',(0.02,0.,0.023775));
#1957=CARTESIAN_POINT('',(0.02,0.,0.02255));
#1958=CARTESIAN_POINT('',(0.023,0.,0.02255));
#1959=CARTESIAN_POINT('',(0.023,0.,0.02255));
#1960=CARTESIAN_POINT('',(0.023,0.,0.023775));
#1961=CARTESIAN_POINT('',(0.02,0.000315,0.024));
#1962=CARTESIAN_POINT('',(-0.02,0.000315,0.024));
#1963=CARTESIAN_POINT('',(-0.02,0.000629999999999992,0.024));
#1964=CARTESIAN_POINT('',(0.02,0.000629999999999992,0.024));
#1965=CARTESIAN_POINT('',(0.02,0.000629999999999992,0.024));
#1966=CARTESIAN_POINT('',(0.02,0.000315,0.024));
#1967=CARTESIAN_POINT('',(0.02,0.000629999999999993,0.0195));
#1968=CARTESIAN_POINT('',(-0.02,0.000629999999999993,0.0195));
#1969=CARTESIAN_POINT('',(-0.02,0.00063,0.015));
#1970=CARTESIAN_POINT('',(-0.02,0.00063,0.01645));
#1971=CARTESIAN_POINT('',(0.02,0.00063,0.015));
#1972=CARTESIAN_POINT('',(0.02,0.00063,0.015));
#1973=CARTESIAN_POINT('',(0.02,0.000629999999999993,0.0195));
#1974=CARTESIAN_POINT('',(0.02,0.00063,0.01645));
#1975=CARTESIAN_POINT('',(0.023,0.00063,0.01645));
#1976=CARTESIAN_POINT('',(0.023,0.00063,0.01645));
#1977=CARTESIAN_POINT('',(0.023,0.000629999999999993,0.0195));
#1978=CARTESIAN_POINT('',(0.023,0.000629999999999992,0.02255));
#1979=CARTESIAN_POINT('',(0.023,0.000629999999999992,0.02255));
#1980=CARTESIAN_POINT('',(0.02,0.000629999999999992,0.02255));
#1981=CARTESIAN_POINT('',(0.02,0.000629999999999993,0.0195));
#1982=CARTESIAN_POINT('',(-0.02,0.000629999999999993,0.0195));
#1983=CARTESIAN_POINT('',(-0.02,0.000629999999999992,0.02255));
#1984=CARTESIAN_POINT('',(-0.023,0.000629999999999992,0.02255));
#1985=CARTESIAN_POINT('',(-0.023,0.000629999999999992,0.02255));
#1986=CARTESIAN_POINT('',(-0.023,0.000629999999999993,0.0195));
#1987=CARTESIAN_POINT('',(-0.023,0.00063,0.01645));
#1988=CARTESIAN_POINT('',(-0.023,0.00063,0.01645));
#1989=CARTESIAN_POINT('',(0.02,0.000315,0.015));
#1990=CARTESIAN_POINT('',(-0.02,0.000315,0.015));
#1991=CARTESIAN_POINT('',(-0.02,0.,0.015));
#1992=CARTESIAN_POINT('',(0.02,-7.75845346211194E-19,0.015));
#1993=CARTESIAN_POINT('',(0.02,-7.75845346211194E-19,0.015));
#1994=CARTESIAN_POINT('',(0.02,0.000315,0.015));
#1995=CARTESIAN_POINT('',(0.02,-7.14613006253827E-19,0.0145));
#1996=CARTESIAN_POINT('',(-0.02,0.,0.0145));
#1997=CARTESIAN_POINT('',(-0.02,0.,0.01645));
#1998=CARTESIAN_POINT('',(-0.023,0.,0.01645));
#1999=CARTESIAN_POINT('',(-0.023,0.,0.01645));
#2000=CARTESIAN_POINT('',(-0.023,0.,0.0145));
#2001=CARTESIAN_POINT('',(-0.023,-1.89735380184964E-18,0.01255));
#2002=CARTESIAN_POINT('',(-0.023,-1.89735380184964E-18,0.01255));
#2003=CARTESIAN_POINT('',(-0.02,-1.89735380184964E-18,0.01255));
#2004=CARTESIAN_POINT('',(-0.02,0.,0.0145));
#2005=CARTESIAN_POINT('',(-0.02,0.,0.014));
#2006=CARTESIAN_POINT('',(0.02,2.16840434497101E-19,0.014));
#2007=CARTESIAN_POINT('',(0.02,2.16840434497101E-19,0.014));
#2008=CARTESIAN_POINT('',(0.02,0.,0.0145));
#2009=CARTESIAN_POINT('',(0.02,-1.89735380184964E-18,0.01255));
#2010=CARTESIAN_POINT('',(0.023,-1.89735380184964E-18,0.01255));
#2011=CARTESIAN_POINT('',(0.023,-1.89735380184964E-18,0.01255));
#2012=CARTESIAN_POINT('',(0.023,0.,0.0145));
#2013=CARTESIAN_POINT('',(0.023,0.,0.01645));
#2014=CARTESIAN_POINT('',(0.023,0.,0.01645));
#2015=CARTESIAN_POINT('',(0.02,0.,0.01645));
#2016=CARTESIAN_POINT('',(0.02,0.,0.0145));
#2017=CARTESIAN_POINT('',(0.02,0.000315,0.014));
#2018=CARTESIAN_POINT('',(-0.02,0.000315,0.014));
#2019=CARTESIAN_POINT('',(0.02,0.000315,0.014));
#2020=CARTESIAN_POINT('',(0.02,0.000315,0.005));
#2021=CARTESIAN_POINT('',(-0.0149,8.02309607639273E-18,0.005));
#2022=CARTESIAN_POINT('',(-0.0149,0.00167431578064992,0.005));
#2023=CARTESIAN_POINT('',(-0.01345,0.00251147367097488,0.005));
#2024=CARTESIAN_POINT('',(-0.012,0.00334863156129983,0.005));
#2025=CARTESIAN_POINT('',(-0.01055,0.00251147367097488,0.005));
#2026=CARTESIAN_POINT('',(-0.0091,0.00167431578064991,0.005));
#2027=CARTESIAN_POINT('',(-0.0091,0.,0.005));
#2028=CARTESIAN_POINT('',(0.02,0.000315,0.005));
#2029=CARTESIAN_POINT('',(0.0091,-4.11996825544492E-18,0.005));
#2030=CARTESIAN_POINT('',(0.0091,0.00167431578064991,0.005));
#2031=CARTESIAN_POINT('',(0.01055,0.00251147367097487,0.005));
#2032=CARTESIAN_POINT('',(0.012,0.00334863156129982,0.005));
#2033=CARTESIAN_POINT('',(0.01345,0.00251147367097487,0.005));
#2034=CARTESIAN_POINT('',(0.0149,0.00167431578064991,0.005));
#2035=CARTESIAN_POINT('',(0.0149,-3.46944695195361E-18,0.005));
#2036=CARTESIAN_POINT('',(0.,-0.000825684219350083,0.0024));
#2037=CARTESIAN_POINT('',(0.0091,-4.11996825544492E-18,0.0024));
#2038=CARTESIAN_POINT('',(0.0091,0.00167431578064991,0.0024));
#2039=CARTESIAN_POINT('',(0.0149,-3.46944695195361E-18,0.0024));
#2040=CARTESIAN_POINT('',(0.0149,0.00167431578064991,0.0024));
#2041=CARTESIAN_POINT('',(0.01345,0.00251147367097487,0.0024));
#2042=CARTESIAN_POINT('',(0.012,0.00334863156129982,0.0024));
#2043=CARTESIAN_POINT('',(0.01055,0.00251147367097487,0.0024));
#2044=CARTESIAN_POINT('',(0.0091,-4.11996825544492E-18,0.0024));
#2045=CARTESIAN_POINT('',(0.0091,0.00167431578064991,0.0024));
#2046=CARTESIAN_POINT('',(0.0149,-3.46944695195361E-18,0.0024));
#2047=CARTESIAN_POINT('',(0.0149,0.00167431578064991,0.0024));
#2048=CARTESIAN_POINT('',(0.01345,0.00251147367097487,0.0024));
#2049=CARTESIAN_POINT('',(0.012,0.00334863156129982,0.0024));
#2050=CARTESIAN_POINT('',(0.01055,0.00251147367097487,0.0024));
#2051=CARTESIAN_POINT('',(0.,-0.000825684219350083,0.0024));
#2052=CARTESIAN_POINT('',(-0.0149,8.02309607639273E-18,0.0024));
#2053=CARTESIAN_POINT('',(-0.0149,0.00167431578064992,0.0024));
#2054=CARTESIAN_POINT('',(-0.0091,0.,0.0024));
#2055=CARTESIAN_POINT('',(-0.0091,0.00167431578064991,0.0024));
#2056=CARTESIAN_POINT('',(-0.01055,0.00251147367097488,0.0024));
#2057=CARTESIAN_POINT('',(-0.012,0.00334863156129983,0.0024));
#2058=CARTESIAN_POINT('',(-0.01345,0.00251147367097488,0.0024));
#2059=CARTESIAN_POINT('',(-0.0149,8.02309607639273E-18,0.0024));
#2060=CARTESIAN_POINT('',(-0.0149,0.00167431578064992,0.0024));
#2061=CARTESIAN_POINT('',(-0.0091,0.,0.0024));
#2062=CARTESIAN_POINT('',(-0.0091,0.00167431578064991,0.0024));
#2063=CARTESIAN_POINT('',(-0.01055,0.00251147367097488,0.0024));
#2064=CARTESIAN_POINT('',(-0.012,0.00334863156129983,0.0024));
#2065=CARTESIAN_POINT('',(-0.01345,0.00251147367097488,0.0024));
#2066=CARTESIAN_POINT('',(0.02,1.7347234759768E-18,0.0125));
#2067=CARTESIAN_POINT('',(0.02,0.,0.005725));
#2068=CARTESIAN_POINT('',(0.02,0.,0.00645));
#2069=CARTESIAN_POINT('',(0.02,0.000315,0.00645));
#2070=CARTESIAN_POINT('',(0.02,1.7347234759768E-18,0.0125));
#2071=CARTESIAN_POINT('',(0.02,0.000314999999999996,0.02255));
#2072=CARTESIAN_POINT('',(0.02,1.7347234759768E-18,0.0125));
#2073=CARTESIAN_POINT('',(0.02,0.000315,0.01645));
#2074=CARTESIAN_POINT('',(0.023,0.000314999999999996,0.02255));
#2075=CARTESIAN_POINT('',(0.023,0.000314999999999996,0.02255));
#2076=CARTESIAN_POINT('',(0.023,0.000315,0.01645));
#2077=CARTESIAN_POINT('',(0.023,0.000315,0.01645));
#2078=CARTESIAN_POINT('',(0.023,0.000314999999999997,0.01255));
#2079=CARTESIAN_POINT('',(0.02,0.000314999999999997,0.01255));
#2080=CARTESIAN_POINT('',(0.023,0.000314999999999997,0.01255));
#2081=CARTESIAN_POINT('',(0.023,0.000315,0.00645));
#2082=CARTESIAN_POINT('',(0.023,0.,0.00645));
#2083=CARTESIAN_POINT('',(0.023,0.,0.00645));
#2084=CARTESIAN_POINT('',(0.023,0.000315,0.00645));
#2085=CARTESIAN_POINT('',(0.023,0.,0.005725));
#2086=CARTESIAN_POINT('',(0.023,0.,0.005725));
#2087=CARTESIAN_POINT('',(0.023,1.7347234759768E-18,0.0125));
#2088=CARTESIAN_POINT('',(0.02,1.7347234759768E-18,0.0125));
#2089=CARTESIAN_POINT('',(-0.02,1.7347234759768E-18,0.0125));
#2090=CARTESIAN_POINT('',(-0.02,0.000314999999999997,0.01255));
#2091=CARTESIAN_POINT('',(-0.02,1.7347234759768E-18,0.0125));
#2092=CARTESIAN_POINT('',(-0.02,0.000314999999999996,0.02255));
#2093=CARTESIAN_POINT('',(-0.02,1.7347234759768E-18,0.0125));
#2094=CARTESIAN_POINT('',(-0.02,0.000315,0.00645));
#2095=CARTESIAN_POINT('',(-0.02,0.,0.00645));
#2096=CARTESIAN_POINT('',(-0.02,0.,0.005725));
#2097=CARTESIAN_POINT('',(-0.023,0.,0.005725));
#2098=CARTESIAN_POINT('',(-0.023,0.,0.00645));
#2099=CARTESIAN_POINT('',(-0.023,0.,0.00645));
#2100=CARTESIAN_POINT('',(-0.023,0.,0.005725));
#2101=CARTESIAN_POINT('',(-0.023,0.000315,0.00645));
#2102=CARTESIAN_POINT('',(-0.023,0.000315,0.00645));
#2103=CARTESIAN_POINT('',(-0.023,0.000314999999999997,0.01255));
#2104=CARTESIAN_POINT('',(-0.023,0.000314999999999997,0.01255));
#2105=CARTESIAN_POINT('',(-0.023,0.000315,0.01645));
#2106=CARTESIAN_POINT('',(-0.02,0.000315,0.01645));
#2107=CARTESIAN_POINT('',(-0.023,0.000315,0.01645));
#2108=CARTESIAN_POINT('',(-0.023,0.000314999999999996,0.02255));
#2109=CARTESIAN_POINT('',(-0.023,0.000314999999999996,0.02255));
#2110=CARTESIAN_POINT('',(-0.023,1.7347234759768E-18,0.0125));
#2111=CARTESIAN_POINT('',(-0.02,1.7347234759768E-18,0.0125));
#2112=CARTESIAN_POINT('',(-0.00303108891324554,0.003,0.01125));
#2113=CARTESIAN_POINT('',(-0.00202072594216369,0.003,0.013));
#2114=CARTESIAN_POINT('',(-0.00202072594216369,0.003,0.013));
#2115=CARTESIAN_POINT('',(-0.00303108891324554,0.003,0.01125));
#2116=CARTESIAN_POINT('',(-0.00404145188432738,0.003,0.0095));
#2117=CARTESIAN_POINT('',(-0.00404145188432738,0.003,0.0095));
#2118=CARTESIAN_POINT('',(0.,0.003,0.013));
#2119=CARTESIAN_POINT('',(0.00202072594216369,0.003,0.013));
#2120=CARTESIAN_POINT('',(0.00202072594216369,0.003,0.013));
#2121=CARTESIAN_POINT('',(0.,0.003,0.013));
#2122=CARTESIAN_POINT('',(0.00303108891324554,0.003,0.01125));
#2123=CARTESIAN_POINT('',(0.00404145188432738,0.003,0.0095));
#2124=CARTESIAN_POINT('',(0.00404145188432738,0.003,0.0095));
#2125=CARTESIAN_POINT('',(0.00303108891324554,0.003,0.01125));
#2126=CARTESIAN_POINT('',(0.00303108891324554,0.003,0.00775));
#2127=CARTESIAN_POINT('',(0.00202072594216369,0.003,0.006));
#2128=CARTESIAN_POINT('',(0.00202072594216369,0.003,0.006));
#2129=CARTESIAN_POINT('',(0.00303108891324554,0.003,0.00775));
#2130=CARTESIAN_POINT('',(4.33680868994202E-19,0.003,0.006));
#2131=CARTESIAN_POINT('',(-0.00202072594216369,0.003,0.006));
#2132=CARTESIAN_POINT('',(-0.00202072594216369,0.003,0.006));
#2133=CARTESIAN_POINT('',(4.33680868994202E-19,0.003,0.006));
#2134=CARTESIAN_POINT('',(-0.00303108891324554,0.003,0.00775));
#2135=CARTESIAN_POINT('',(-0.00303108891324554,0.003,0.00775));
#2136=CARTESIAN_POINT('',(0.,0.003,0.0125));
#2137=CARTESIAN_POINT('',(-0.00303108891324554,0.003,0.02125));
#2138=CARTESIAN_POINT('',(-0.00202072594216369,0.003,0.023));
#2139=CARTESIAN_POINT('',(-0.00202072594216369,0.003,0.023));
#2140=CARTESIAN_POINT('',(-0.00303108891324554,0.003,0.02125));
#2141=CARTESIAN_POINT('',(-0.00404145188432738,0.003,0.0195));
#2142=CARTESIAN_POINT('',(-0.00404145188432738,0.003,0.0195));
#2143=CARTESIAN_POINT('',(0.,0.003,0.023));
#2144=CARTESIAN_POINT('',(0.00202072594216369,0.003,0.023));
#2145=CARTESIAN_POINT('',(0.00202072594216369,0.003,0.023));
#2146=CARTESIAN_POINT('',(0.,0.003,0.023));
#2147=CARTESIAN_POINT('',(0.00303108891324554,0.003,0.02125));
#2148=CARTESIAN_POINT('',(0.00404145188432738,0.003,0.0195));
#2149=CARTESIAN_POINT('',(0.00404145188432738,0.003,0.0195));
#2150=CARTESIAN_POINT('',(0.00303108891324554,0.003,0.02125));
#2151=CARTESIAN_POINT('',(0.00303108891324554,0.003,0.01775));
#2152=CARTESIAN_POINT('',(0.00202072594216369,0.003,0.016));
#2153=CARTESIAN_POINT('',(0.00202072594216369,0.003,0.016));
#2154=CARTESIAN_POINT('',(0.00303108891324554,0.003,0.01775));
#2155=CARTESIAN_POINT('',(2.60208521396521E-18,0.003,0.016));
#2156=CARTESIAN_POINT('',(-0.00202072594216369,0.003,0.016));
#2157=CARTESIAN_POINT('',(-0.00202072594216369,0.003,0.016));
#2158=CARTESIAN_POINT('',(2.60208521396521E-18,0.003,0.016));
#2159=CARTESIAN_POINT('',(-0.00303108891324554,0.003,0.01775));
#2160=CARTESIAN_POINT('',(-0.00303108891324554,0.003,0.01775));
#2161=CARTESIAN_POINT('',(0.,0.003,0.0125));
#2162=MECHANICAL_DESIGN_GEOMETRIC_PRESENTATION_REPRESENTATION('',(#1363),
#2163);
#2163=(
GEOMETRIC_REPRESENTATION_CONTEXT(3)
GLOBAL_UNCERTAINTY_ASSIGNED_CONTEXT((#2164))
GLOBAL_UNIT_ASSIGNED_CONTEXT((#2167,#2166,#2165))
REPRESENTATION_CONTEXT('Belt Clamp Mount','TOP_LEVEL_ASSEMBLY_PART')
);
#2164=UNCERTAINTY_MEASURE_WITH_UNIT(LENGTH_MEASURE(1.E-8),#2167,
'DISTANCE_ACCURACY_VALUE','Maximum Tolerance applied to model');
#2165=(
NAMED_UNIT(*)
SI_UNIT($,.STERADIAN.)
SOLID_ANGLE_UNIT()
);
#2166=(
NAMED_UNIT(*)
PLANE_ANGLE_UNIT()
SI_UNIT($,.RADIAN.)
);
#2167=(
LENGTH_UNIT()
NAMED_UNIT(*)
SI_UNIT($,.METRE.)
);
#2168=PRODUCT_DEFINITION_SHAPE('','',#2169);
#2169=PRODUCT_DEFINITION('','',#2171,#2170);
#2170=PRODUCT_DEFINITION_CONTEXT('',#2177,'design');
#2171=PRODUCT_DEFINITION_FORMATION_WITH_SPECIFIED_SOURCE('','',#2173,
 .NOT_KNOWN.);
#2172=PRODUCT_RELATED_PRODUCT_CATEGORY('','',(#2173));
#2173=PRODUCT('Belt Clamp Mount','Belt Clamp Mount','Belt Clamp Mount',
(#2175));
#2174=PRODUCT_CATEGORY('','');
#2175=PRODUCT_CONTEXT('',#2177,'mechanical');
#2176=APPLICATION_PROTOCOL_DEFINITION('international standard',
'automotive_design',2010,#2177);
#2177=APPLICATION_CONTEXT(
'core data for automotive mechanical design processes');
ENDSEC;
END-ISO-10303-21;
