ISO-10303-21;
HEADER;
/* Generated by software containing ST-Developer
 * from STEP Tools, Inc. (www.steptools.com) 
 */
/* OPTION: using custom renumber hook */

FILE_DESCRIPTION(
/* description */ ('STEP AP214',
'CAx-IF Rec.Pracs.---User Defined Attributes---1.5---2016-08-15'),
/* implementation_level */ '2;1');

FILE_NAME(
/* name */ '6a95d9f6d62aea1f59760931',
/* time_stamp */ '2026-08-31T19:45:59Z',
/* author */ (''),
/* organization */ (''),
/* preprocessor_version */ 'ST-DEVELOPER v20',
/* originating_system */ 'ONSHAPE BY PTC INC, 1.220',
/* authorisation */ '  ');

FILE_SCHEMA (('AUTOMOTIVE_DESIGN {1 0 10303 214 3 1 1}'));
ENDSEC;

DATA;
#10=PROPERTY_DEFINITION_REPRESENTATION(#14,#12);
#11=PROPERTY_DEFINITION_REPRESENTATION(#15,#13);
#12=REPRESENTATION('',(#16),#1144);
#13=REPRESENTATION('',(#17),#1144);
#14=PROPERTY_DEFINITION('pmi validation property','',#1149);
#15=PROPERTY_DEFINITION('pmi validation property','',#1149);
#16=VALUE_REPRESENTATION_ITEM('number of annotations',COUNT_MEASURE(0.));
#17=VALUE_REPRESENTATION_ITEM('number of views',COUNT_MEASURE(0.));
#18=SHAPE_REPRESENTATION_RELATIONSHIP('','',#709,#19);
#19=ADVANCED_BREP_SHAPE_REPRESENTATION('',(#707),#1144);
#20=CYLINDRICAL_SURFACE('',#734,0.0031);
#21=CYLINDRICAL_SURFACE('',#737,0.0031);
#22=CYLINDRICAL_SURFACE('',#739,0.0031);
#23=CYLINDRICAL_SURFACE('',#742,0.0031);
#24=CYLINDRICAL_SURFACE('',#744,0.0031);
#25=CYLINDRICAL_SURFACE('',#747,0.0031);
#26=CYLINDRICAL_SURFACE('',#756,0.0005);
#27=CYLINDRICAL_SURFACE('',#761,0.0005);
#28=CIRCLE('',#715,0.0031);
#29=CIRCLE('',#716,0.0031);
#30=CIRCLE('',#718,0.0031);
#31=CIRCLE('',#719,0.0031);
#32=CIRCLE('',#728,0.0005);
#33=CIRCLE('',#729,0.0005);
#34=CIRCLE('',#731,0.0031);
#35=CIRCLE('',#732,0.0031);
#36=CIRCLE('',#733,0.0005);
#37=CIRCLE('',#735,0.0031);
#38=CIRCLE('',#738,0.0031);
#39=CIRCLE('',#740,0.0031);
#40=CIRCLE('',#743,0.0031);
#41=CIRCLE('',#745,0.0031);
#42=CIRCLE('',#748,0.0031);
#43=CIRCLE('',#754,0.0005);
#44=CIRCLE('',#759,0.0005);
#45=ORIENTED_EDGE('',*,*,#237,.T.);
#46=ORIENTED_EDGE('',*,*,#238,.F.);
#47=ORIENTED_EDGE('',*,*,#239,.F.);
#48=ORIENTED_EDGE('',*,*,#240,.F.);
#49=ORIENTED_EDGE('',*,*,#241,.F.);
#50=ORIENTED_EDGE('',*,*,#242,.T.);
#51=ORIENTED_EDGE('',*,*,#243,.T.);
#52=ORIENTED_EDGE('',*,*,#240,.T.);
#53=ORIENTED_EDGE('',*,*,#244,.F.);
#54=ORIENTED_EDGE('',*,*,#245,.T.);
#55=ORIENTED_EDGE('',*,*,#246,.F.);
#56=ORIENTED_EDGE('',*,*,#247,.F.);
#57=ORIENTED_EDGE('',*,*,#248,.T.);
#58=ORIENTED_EDGE('',*,*,#249,.T.);
#59=ORIENTED_EDGE('',*,*,#250,.T.);
#60=ORIENTED_EDGE('',*,*,#251,.F.);
#61=ORIENTED_EDGE('',*,*,#245,.F.);
#62=ORIENTED_EDGE('',*,*,#252,.T.);
#63=ORIENTED_EDGE('',*,*,#253,.F.);
#64=ORIENTED_EDGE('',*,*,#254,.T.);
#65=ORIENTED_EDGE('',*,*,#255,.T.);
#66=ORIENTED_EDGE('',*,*,#256,.T.);
#67=ORIENTED_EDGE('',*,*,#257,.T.);
#68=ORIENTED_EDGE('',*,*,#258,.F.);
#69=ORIENTED_EDGE('',*,*,#259,.F.);
#70=ORIENTED_EDGE('',*,*,#260,.T.);
#71=ORIENTED_EDGE('',*,*,#261,.F.);
#72=ORIENTED_EDGE('',*,*,#262,.F.);
#73=ORIENTED_EDGE('',*,*,#263,.F.);
#74=ORIENTED_EDGE('',*,*,#264,.F.);
#75=ORIENTED_EDGE('',*,*,#265,.T.);
#76=ORIENTED_EDGE('',*,*,#266,.T.);
#77=ORIENTED_EDGE('',*,*,#267,.F.);
#78=ORIENTED_EDGE('',*,*,#268,.F.);
#79=ORIENTED_EDGE('',*,*,#269,.T.);
#80=ORIENTED_EDGE('',*,*,#262,.T.);
#81=ORIENTED_EDGE('',*,*,#270,.F.);
#82=ORIENTED_EDGE('',*,*,#271,.F.);
#83=ORIENTED_EDGE('',*,*,#272,.T.);
#84=ORIENTED_EDGE('',*,*,#253,.T.);
#85=ORIENTED_EDGE('',*,*,#273,.T.);
#86=ORIENTED_EDGE('',*,*,#274,.T.);
#87=ORIENTED_EDGE('',*,*,#275,.F.);
#88=ORIENTED_EDGE('',*,*,#276,.F.);
#89=ORIENTED_EDGE('',*,*,#275,.T.);
#90=ORIENTED_EDGE('',*,*,#277,.F.);
#91=ORIENTED_EDGE('',*,*,#270,.T.);
#92=ORIENTED_EDGE('',*,*,#261,.T.);
#93=ORIENTED_EDGE('',*,*,#278,.F.);
#94=ORIENTED_EDGE('',*,*,#279,.F.);
#95=ORIENTED_EDGE('',*,*,#280,.T.);
#96=ORIENTED_EDGE('',*,*,#281,.T.);
#97=ORIENTED_EDGE('',*,*,#278,.T.);
#98=ORIENTED_EDGE('',*,*,#260,.F.);
#99=ORIENTED_EDGE('',*,*,#246,.T.);
#100=ORIENTED_EDGE('',*,*,#254,.F.);
#101=ORIENTED_EDGE('',*,*,#272,.F.);
#102=ORIENTED_EDGE('',*,*,#282,.T.);
#103=ORIENTED_EDGE('',*,*,#283,.F.);
#104=ORIENTED_EDGE('',*,*,#284,.F.);
#105=ORIENTED_EDGE('',*,*,#283,.T.);
#106=ORIENTED_EDGE('',*,*,#285,.T.);
#107=ORIENTED_EDGE('',*,*,#286,.F.);
#108=ORIENTED_EDGE('',*,*,#287,.F.);
#109=ORIENTED_EDGE('',*,*,#286,.T.);
#110=ORIENTED_EDGE('',*,*,#288,.T.);
#111=ORIENTED_EDGE('',*,*,#273,.F.);
#112=ORIENTED_EDGE('',*,*,#289,.F.);
#113=ORIENTED_EDGE('',*,*,#290,.F.);
#114=ORIENTED_EDGE('',*,*,#247,.T.);
#115=ORIENTED_EDGE('',*,*,#284,.T.);
#116=ORIENTED_EDGE('',*,*,#287,.T.);
#117=ORIENTED_EDGE('',*,*,#289,.T.);
#118=ORIENTED_EDGE('',*,*,#276,.T.);
#119=ORIENTED_EDGE('',*,*,#279,.T.);
#120=ORIENTED_EDGE('',*,*,#281,.F.);
#121=ORIENTED_EDGE('',*,*,#291,.F.);
#122=ORIENTED_EDGE('',*,*,#237,.F.);
#123=ORIENTED_EDGE('',*,*,#243,.F.);
#124=ORIENTED_EDGE('',*,*,#292,.T.);
#125=ORIENTED_EDGE('',*,*,#293,.T.);
#126=ORIENTED_EDGE('',*,*,#294,.T.);
#127=ORIENTED_EDGE('',*,*,#295,.F.);
#128=ORIENTED_EDGE('',*,*,#296,.F.);
#129=ORIENTED_EDGE('',*,*,#297,.T.);
#130=ORIENTED_EDGE('',*,*,#241,.T.);
#131=ORIENTED_EDGE('',*,*,#239,.T.);
#132=ORIENTED_EDGE('',*,*,#298,.T.);
#133=ORIENTED_EDGE('',*,*,#266,.F.);
#134=ORIENTED_EDGE('',*,*,#248,.F.);
#135=ORIENTED_EDGE('',*,*,#299,.F.);
#136=ORIENTED_EDGE('',*,*,#300,.T.);
#137=ORIENTED_EDGE('',*,*,#301,.T.);
#138=ORIENTED_EDGE('',*,*,#249,.F.);
#139=ORIENTED_EDGE('',*,*,#301,.F.);
#140=ORIENTED_EDGE('',*,*,#302,.T.);
#141=ORIENTED_EDGE('',*,*,#303,.T.);
#142=ORIENTED_EDGE('',*,*,#250,.F.);
#143=ORIENTED_EDGE('',*,*,#303,.F.);
#144=ORIENTED_EDGE('',*,*,#304,.T.);
#145=ORIENTED_EDGE('',*,*,#305,.T.);
#146=ORIENTED_EDGE('',*,*,#255,.F.);
#147=ORIENTED_EDGE('',*,*,#306,.F.);
#148=ORIENTED_EDGE('',*,*,#307,.T.);
#149=ORIENTED_EDGE('',*,*,#308,.T.);
#150=ORIENTED_EDGE('',*,*,#256,.F.);
#151=ORIENTED_EDGE('',*,*,#308,.F.);
#152=ORIENTED_EDGE('',*,*,#309,.T.);
#153=ORIENTED_EDGE('',*,*,#310,.T.);
#154=ORIENTED_EDGE('',*,*,#257,.F.);
#155=ORIENTED_EDGE('',*,*,#310,.F.);
#156=ORIENTED_EDGE('',*,*,#311,.T.);
#157=ORIENTED_EDGE('',*,*,#312,.T.);
#158=ORIENTED_EDGE('',*,*,#292,.F.);
#159=ORIENTED_EDGE('',*,*,#313,.F.);
#160=ORIENTED_EDGE('',*,*,#314,.T.);
#161=ORIENTED_EDGE('',*,*,#315,.T.);
#162=ORIENTED_EDGE('',*,*,#293,.F.);
#163=ORIENTED_EDGE('',*,*,#315,.F.);
#164=ORIENTED_EDGE('',*,*,#316,.T.);
#165=ORIENTED_EDGE('',*,*,#317,.T.);
#166=ORIENTED_EDGE('',*,*,#294,.F.);
#167=ORIENTED_EDGE('',*,*,#317,.F.);
#168=ORIENTED_EDGE('',*,*,#318,.T.);
#169=ORIENTED_EDGE('',*,*,#319,.T.);
#170=ORIENTED_EDGE('',*,*,#258,.T.);
#171=ORIENTED_EDGE('',*,*,#312,.F.);
#172=ORIENTED_EDGE('',*,*,#320,.F.);
#173=ORIENTED_EDGE('',*,*,#306,.T.);
#174=ORIENTED_EDGE('',*,*,#295,.T.);
#175=ORIENTED_EDGE('',*,*,#319,.F.);
#176=ORIENTED_EDGE('',*,*,#321,.F.);
#177=ORIENTED_EDGE('',*,*,#313,.T.);
#178=ORIENTED_EDGE('',*,*,#251,.T.);
#179=ORIENTED_EDGE('',*,*,#305,.F.);
#180=ORIENTED_EDGE('',*,*,#322,.F.);
#181=ORIENTED_EDGE('',*,*,#299,.T.);
#182=ORIENTED_EDGE('',*,*,#271,.T.);
#183=ORIENTED_EDGE('',*,*,#277,.T.);
#184=ORIENTED_EDGE('',*,*,#274,.F.);
#185=ORIENTED_EDGE('',*,*,#288,.F.);
#186=ORIENTED_EDGE('',*,*,#285,.F.);
#187=ORIENTED_EDGE('',*,*,#282,.F.);
#188=ORIENTED_EDGE('',*,*,#314,.F.);
#189=ORIENTED_EDGE('',*,*,#321,.T.);
#190=ORIENTED_EDGE('',*,*,#318,.F.);
#191=ORIENTED_EDGE('',*,*,#316,.F.);
#192=ORIENTED_EDGE('',*,*,#307,.F.);
#193=ORIENTED_EDGE('',*,*,#320,.T.);
#194=ORIENTED_EDGE('',*,*,#311,.F.);
#195=ORIENTED_EDGE('',*,*,#309,.F.);
#196=ORIENTED_EDGE('',*,*,#300,.F.);
#197=ORIENTED_EDGE('',*,*,#322,.T.);
#198=ORIENTED_EDGE('',*,*,#304,.F.);
#199=ORIENTED_EDGE('',*,*,#302,.F.);
#200=ORIENTED_EDGE('',*,*,#268,.T.);
#201=ORIENTED_EDGE('',*,*,#323,.F.);
#202=ORIENTED_EDGE('',*,*,#324,.F.);
#203=ORIENTED_EDGE('',*,*,#325,.T.);
#204=ORIENTED_EDGE('',*,*,#326,.F.);
#205=ORIENTED_EDGE('',*,*,#323,.T.);
#206=ORIENTED_EDGE('',*,*,#267,.T.);
#207=ORIENTED_EDGE('',*,*,#298,.F.);
#208=ORIENTED_EDGE('',*,*,#327,.F.);
#209=ORIENTED_EDGE('',*,*,#324,.T.);
#210=ORIENTED_EDGE('',*,*,#326,.T.);
#211=ORIENTED_EDGE('',*,*,#238,.T.);
#212=ORIENTED_EDGE('',*,*,#291,.T.);
#213=ORIENTED_EDGE('',*,*,#280,.F.);
#214=ORIENTED_EDGE('',*,*,#259,.T.);
#215=ORIENTED_EDGE('',*,*,#269,.F.);
#216=ORIENTED_EDGE('',*,*,#325,.F.);
#217=ORIENTED_EDGE('',*,*,#327,.T.);
#218=ORIENTED_EDGE('',*,*,#264,.T.);
#219=ORIENTED_EDGE('',*,*,#328,.F.);
#220=ORIENTED_EDGE('',*,*,#329,.F.);
#221=ORIENTED_EDGE('',*,*,#330,.T.);
#222=ORIENTED_EDGE('',*,*,#331,.F.);
#223=ORIENTED_EDGE('',*,*,#328,.T.);
#224=ORIENTED_EDGE('',*,*,#263,.T.);
#225=ORIENTED_EDGE('',*,*,#252,.F.);
#226=ORIENTED_EDGE('',*,*,#297,.F.);
#227=ORIENTED_EDGE('',*,*,#332,.F.);
#228=ORIENTED_EDGE('',*,*,#329,.T.);
#229=ORIENTED_EDGE('',*,*,#331,.T.);
#230=ORIENTED_EDGE('',*,*,#244,.T.);
#231=ORIENTED_EDGE('',*,*,#290,.T.);
#232=ORIENTED_EDGE('',*,*,#242,.F.);
#233=ORIENTED_EDGE('',*,*,#296,.T.);
#234=ORIENTED_EDGE('',*,*,#265,.F.);
#235=ORIENTED_EDGE('',*,*,#330,.F.);
#236=ORIENTED_EDGE('',*,*,#332,.T.);
#237=EDGE_CURVE('',#333,#334,#396,.T.);
#238=EDGE_CURVE('',#335,#334,#397,.T.);
#239=EDGE_CURVE('',#336,#335,#398,.T.);
#240=EDGE_CURVE('',#333,#336,#399,.T.);
#241=EDGE_CURVE('',#337,#336,#400,.T.);
#242=EDGE_CURVE('',#337,#338,#401,.T.);
#243=EDGE_CURVE('',#338,#333,#402,.T.);
#244=EDGE_CURVE('',#339,#340,#403,.T.);
#245=EDGE_CURVE('',#339,#341,#404,.T.);
#246=EDGE_CURVE('',#342,#341,#405,.T.);
#247=EDGE_CURVE('',#340,#342,#406,.T.);
#248=EDGE_CURVE('',#343,#344,#28,.T.);
#249=EDGE_CURVE('',#344,#345,#407,.T.);
#250=EDGE_CURVE('',#345,#346,#29,.T.);
#251=EDGE_CURVE('',#343,#346,#408,.T.);
#252=EDGE_CURVE('',#339,#347,#409,.T.);
#253=EDGE_CURVE('',#348,#347,#410,.T.);
#254=EDGE_CURVE('',#348,#341,#411,.T.);
#255=EDGE_CURVE('',#349,#350,#30,.T.);
#256=EDGE_CURVE('',#350,#351,#412,.T.);
#257=EDGE_CURVE('',#351,#352,#31,.T.);
#258=EDGE_CURVE('',#349,#352,#413,.T.);
#259=EDGE_CURVE('',#353,#354,#414,.T.);
#260=EDGE_CURVE('',#353,#355,#415,.T.);
#261=EDGE_CURVE('',#356,#355,#416,.T.);
#262=EDGE_CURVE('',#354,#356,#417,.T.);
#263=EDGE_CURVE('',#357,#347,#418,.T.);
#264=EDGE_CURVE('',#358,#357,#419,.T.);
#265=EDGE_CURVE('',#358,#359,#420,.T.);
#266=EDGE_CURVE('',#359,#360,#421,.T.);
#267=EDGE_CURVE('',#361,#360,#422,.T.);
#268=EDGE_CURVE('',#362,#361,#423,.T.);
#269=EDGE_CURVE('',#362,#354,#424,.T.);
#270=EDGE_CURVE('',#363,#356,#425,.T.);
#271=EDGE_CURVE('',#364,#363,#426,.T.);
#272=EDGE_CURVE('',#364,#348,#427,.T.);
#273=EDGE_CURVE('',#365,#366,#428,.T.);
#274=EDGE_CURVE('',#366,#367,#429,.T.);
#275=EDGE_CURVE('',#368,#367,#430,.T.);
#276=EDGE_CURVE('',#365,#368,#431,.T.);
#277=EDGE_CURVE('',#363,#367,#432,.T.);
#278=EDGE_CURVE('',#369,#355,#433,.T.);
#279=EDGE_CURVE('',#368,#369,#434,.T.);
#280=EDGE_CURVE('',#353,#370,#435,.T.);
#281=EDGE_CURVE('',#370,#369,#436,.T.);
#282=EDGE_CURVE('',#364,#371,#437,.T.);
#283=EDGE_CURVE('',#372,#371,#438,.T.);
#284=EDGE_CURVE('',#342,#372,#439,.T.);
#285=EDGE_CURVE('',#371,#373,#440,.T.);
#286=EDGE_CURVE('',#374,#373,#441,.T.);
#287=EDGE_CURVE('',#372,#374,#442,.T.);
#288=EDGE_CURVE('',#373,#366,#443,.T.);
#289=EDGE_CURVE('',#374,#365,#444,.T.);
#290=EDGE_CURVE('',#340,#338,#32,.T.);
#291=EDGE_CURVE('',#334,#370,#33,.T.);
#292=EDGE_CURVE('',#375,#376,#34,.T.);
#293=EDGE_CURVE('',#376,#377,#445,.T.);
#294=EDGE_CURVE('',#377,#378,#35,.T.);
#295=EDGE_CURVE('',#375,#378,#446,.T.);
#296=EDGE_CURVE('',#379,#359,#447,.T.);
#297=EDGE_CURVE('',#379,#337,#36,.F.);
#298=EDGE_CURVE('',#335,#360,#448,.T.);
#299=EDGE_CURVE('',#380,#343,#449,.T.);
#300=EDGE_CURVE('',#380,#381,#37,.T.);
#301=EDGE_CURVE('',#381,#344,#450,.T.);
#302=EDGE_CURVE('',#381,#382,#451,.T.);
#303=EDGE_CURVE('',#382,#345,#452,.T.);
#304=EDGE_CURVE('',#382,#383,#38,.T.);
#305=EDGE_CURVE('',#383,#346,#453,.T.);
#306=EDGE_CURVE('',#384,#349,#454,.T.);
#307=EDGE_CURVE('',#384,#385,#39,.T.);
#308=EDGE_CURVE('',#385,#350,#455,.T.);
#309=EDGE_CURVE('',#385,#386,#456,.T.);
#310=EDGE_CURVE('',#386,#351,#457,.T.);
#311=EDGE_CURVE('',#386,#387,#40,.T.);
#312=EDGE_CURVE('',#387,#352,#458,.T.);
#313=EDGE_CURVE('',#388,#375,#459,.T.);
#314=EDGE_CURVE('',#388,#389,#41,.T.);
#315=EDGE_CURVE('',#389,#376,#460,.T.);
#316=EDGE_CURVE('',#389,#390,#461,.T.);
#317=EDGE_CURVE('',#390,#377,#462,.T.);
#318=EDGE_CURVE('',#390,#391,#42,.T.);
#319=EDGE_CURVE('',#391,#378,#463,.T.);
#320=EDGE_CURVE('',#384,#387,#464,.T.);
#321=EDGE_CURVE('',#388,#391,#465,.T.);
#322=EDGE_CURVE('',#380,#383,#466,.T.);
#323=EDGE_CURVE('',#392,#361,#467,.T.);
#324=EDGE_CURVE('',#393,#392,#43,.T.);
#325=EDGE_CURVE('',#393,#362,#468,.T.);
#326=EDGE_CURVE('',#392,#335,#469,.T.);
#327=EDGE_CURVE('',#393,#353,#470,.T.);
#328=EDGE_CURVE('',#394,#357,#471,.T.);
#329=EDGE_CURVE('',#395,#394,#44,.T.);
#330=EDGE_CURVE('',#395,#358,#472,.T.);
#331=EDGE_CURVE('',#394,#339,#473,.T.);
#332=EDGE_CURVE('',#395,#379,#474,.T.);
#333=VERTEX_POINT('',#951);
#334=VERTEX_POINT('',#952);
#335=VERTEX_POINT('',#954);
#336=VERTEX_POINT('',#956);
#337=VERTEX_POINT('',#960);
#338=VERTEX_POINT('',#962);
#339=VERTEX_POINT('',#966);
#340=VERTEX_POINT('',#967);
#341=VERTEX_POINT('',#969);
#342=VERTEX_POINT('',#971);
#343=VERTEX_POINT('',#975);
#344=VERTEX_POINT('',#976);
#345=VERTEX_POINT('',#978);
#346=VERTEX_POINT('',#980);
#347=VERTEX_POINT('',#983);
#348=VERTEX_POINT('',#985);
#349=VERTEX_POINT('',#989);
#350=VERTEX_POINT('',#990);
#351=VERTEX_POINT('',#992);
#352=VERTEX_POINT('',#994);
#353=VERTEX_POINT('',#997);
#354=VERTEX_POINT('',#998);
#355=VERTEX_POINT('',#1000);
#356=VERTEX_POINT('',#1002);
#357=VERTEX_POINT('',#1006);
#358=VERTEX_POINT('',#1008);
#359=VERTEX_POINT('',#1010);
#360=VERTEX_POINT('',#1012);
#361=VERTEX_POINT('',#1014);
#362=VERTEX_POINT('',#1016);
#363=VERTEX_POINT('',#1019);
#364=VERTEX_POINT('',#1021);
#365=VERTEX_POINT('',#1025);
#366=VERTEX_POINT('',#1026);
#367=VERTEX_POINT('',#1028);
#368=VERTEX_POINT('',#1030);
#369=VERTEX_POINT('',#1035);
#370=VERTEX_POINT('',#1039);
#371=VERTEX_POINT('',#1043);
#372=VERTEX_POINT('',#1045);
#373=VERTEX_POINT('',#1049);
#374=VERTEX_POINT('',#1051);
#375=VERTEX_POINT('',#1061);
#376=VERTEX_POINT('',#1062);
#377=VERTEX_POINT('',#1064);
#378=VERTEX_POINT('',#1066);
#379=VERTEX_POINT('',#1069);
#380=VERTEX_POINT('',#1074);
#381=VERTEX_POINT('',#1076);
#382=VERTEX_POINT('',#1080);
#383=VERTEX_POINT('',#1084);
#384=VERTEX_POINT('',#1088);
#385=VERTEX_POINT('',#1090);
#386=VERTEX_POINT('',#1094);
#387=VERTEX_POINT('',#1098);
#388=VERTEX_POINT('',#1102);
#389=VERTEX_POINT('',#1104);
#390=VERTEX_POINT('',#1108);
#391=VERTEX_POINT('',#1112);
#392=VERTEX_POINT('',#1123);
#393=VERTEX_POINT('',#1125);
#394=VERTEX_POINT('',#1134);
#395=VERTEX_POINT('',#1136);
#396=LINE('',#950,#475);
#397=LINE('',#953,#476);
#398=LINE('',#955,#477);
#399=LINE('',#957,#478);
#400=LINE('',#959,#479);
#401=LINE('',#961,#480);
#402=LINE('',#963,#481);
#403=LINE('',#965,#482);
#404=LINE('',#968,#483);
#405=LINE('',#970,#484);
#406=LINE('',#972,#485);
#407=LINE('',#977,#486);
#408=LINE('',#981,#487);
#409=LINE('',#982,#488);
#410=LINE('',#984,#489);
#411=LINE('',#986,#490);
#412=LINE('',#991,#491);
#413=LINE('',#995,#492);
#414=LINE('',#996,#493);
#415=LINE('',#999,#494);
#416=LINE('',#1001,#495);
#417=LINE('',#1003,#496);
#418=LINE('',#1005,#497);
#419=LINE('',#1007,#498);
#420=LINE('',#1009,#499);
#421=LINE('',#1011,#500);
#422=LINE('',#1013,#501);
#423=LINE('',#1015,#502);
#424=LINE('',#1017,#503);
#425=LINE('',#1018,#504);
#426=LINE('',#1020,#505);
#427=LINE('',#1022,#506);
#428=LINE('',#1024,#507);
#429=LINE('',#1027,#508);
#430=LINE('',#1029,#509);
#431=LINE('',#1031,#510);
#432=LINE('',#1033,#511);
#433=LINE('',#1034,#512);
#434=LINE('',#1036,#513);
#435=LINE('',#1038,#514);
#436=LINE('',#1040,#515);
#437=LINE('',#1042,#516);
#438=LINE('',#1044,#517);
#439=LINE('',#1046,#518);
#440=LINE('',#1048,#519);
#441=LINE('',#1050,#520);
#442=LINE('',#1052,#521);
#443=LINE('',#1054,#522);
#444=LINE('',#1055,#523);
#445=LINE('',#1063,#524);
#446=LINE('',#1067,#525);
#447=LINE('',#1068,#526);
#448=LINE('',#1071,#527);
#449=LINE('',#1073,#528);
#450=LINE('',#1077,#529);
#451=LINE('',#1079,#530);
#452=LINE('',#1081,#531);
#453=LINE('',#1085,#532);
#454=LINE('',#1087,#533);
#455=LINE('',#1091,#534);
#456=LINE('',#1093,#535);
#457=LINE('',#1095,#536);
#458=LINE('',#1099,#537);
#459=LINE('',#1101,#538);
#460=LINE('',#1105,#539);
#461=LINE('',#1107,#540);
#462=LINE('',#1109,#541);
#463=LINE('',#1113,#542);
#464=LINE('',#1115,#543);
#465=LINE('',#1117,#544);
#466=LINE('',#1119,#545);
#467=LINE('',#1122,#546);
#468=LINE('',#1126,#547);
#469=LINE('',#1128,#548);
#470=LINE('',#1130,#549);
#471=LINE('',#1133,#550);
#472=LINE('',#1137,#551);
#473=LINE('',#1139,#552);
#474=LINE('',#1141,#553);
#475=VECTOR('',#767,1.);
#476=VECTOR('',#768,1.);
#477=VECTOR('',#769,1.);
#478=VECTOR('',#770,1.);
#479=VECTOR('',#773,1.);
#480=VECTOR('',#774,1.);
#481=VECTOR('',#775,1.);
#482=VECTOR('',#778,1.);
#483=VECTOR('',#779,1.);
#484=VECTOR('',#780,1.);
#485=VECTOR('',#781,1.);
#486=VECTOR('',#786,1.);
#487=VECTOR('',#789,1.);
#488=VECTOR('',#790,1.);
#489=VECTOR('',#791,1.);
#490=VECTOR('',#792,1.);
#491=VECTOR('',#797,1.);
#492=VECTOR('',#800,1.);
#493=VECTOR('',#801,1.);
#494=VECTOR('',#802,1.);
#495=VECTOR('',#803,1.);
#496=VECTOR('',#804,1.);
#497=VECTOR('',#807,1.);
#498=VECTOR('',#808,1.);
#499=VECTOR('',#809,1.);
#500=VECTOR('',#810,1.);
#501=VECTOR('',#811,1.);
#502=VECTOR('',#812,1.);
#503=VECTOR('',#813,1.);
#504=VECTOR('',#814,1.);
#505=VECTOR('',#815,1.);
#506=VECTOR('',#816,1.);
#507=VECTOR('',#819,1.);
#508=VECTOR('',#820,1.);
#509=VECTOR('',#821,1.);
#510=VECTOR('',#822,1.);
#511=VECTOR('',#825,1.);
#512=VECTOR('',#826,1.);
#513=VECTOR('',#827,1.);
#514=VECTOR('',#830,1.);
#515=VECTOR('',#831,1.);
#516=VECTOR('',#834,1.);
#517=VECTOR('',#835,1.);
#518=VECTOR('',#836,1.);
#519=VECTOR('',#839,1.);
#520=VECTOR('',#840,1.);
#521=VECTOR('',#841,1.);
#522=VECTOR('',#844,1.);
#523=VECTOR('',#845,1.);
#524=VECTOR('',#856,1.);
#525=VECTOR('',#859,1.);
#526=VECTOR('',#860,1.);
#527=VECTOR('',#863,1.);
#528=VECTOR('',#866,1.);
#529=VECTOR('',#869,1.);
#530=VECTOR('',#872,1.);
#531=VECTOR('',#873,1.);
#532=VECTOR('',#878,1.);
#533=VECTOR('',#881,1.);
#534=VECTOR('',#884,1.);
#535=VECTOR('',#887,1.);
#536=VECTOR('',#888,1.);
#537=VECTOR('',#893,1.);
#538=VECTOR('',#896,1.);
#539=VECTOR('',#899,1.);
#540=VECTOR('',#902,1.);
#541=VECTOR('',#903,1.);
#542=VECTOR('',#908,1.);
#543=VECTOR('',#911,1.);
#544=VECTOR('',#914,1.);
#545=VECTOR('',#917,1.);
#546=VECTOR('',#922,1.);
#547=VECTOR('',#925,1.);
#548=VECTOR('',#928,1.);
#549=VECTOR('',#931,1.);
#550=VECTOR('',#936,1.);
#551=VECTOR('',#939,1.);
#552=VECTOR('',#942,1.);
#553=VECTOR('',#945,1.);
#554=EDGE_LOOP('',(#45,#46,#47,#48));
#555=EDGE_LOOP('',(#49,#50,#51,#52));
#556=EDGE_LOOP('',(#53,#54,#55,#56));
#557=EDGE_LOOP('',(#57,#58,#59,#60));
#558=EDGE_LOOP('',(#61,#62,#63,#64));
#559=EDGE_LOOP('',(#65,#66,#67,#68));
#560=EDGE_LOOP('',(#69,#70,#71,#72));
#561=EDGE_LOOP('',(#73,#74,#75,#76,#77,#78,#79,#80,#81,#82,#83,#84));
#562=EDGE_LOOP('',(#85,#86,#87,#88));
#563=EDGE_LOOP('',(#89,#90,#91,#92,#93,#94));
#564=EDGE_LOOP('',(#95,#96,#97,#98));
#565=EDGE_LOOP('',(#99,#100,#101,#102,#103,#104));
#566=EDGE_LOOP('',(#105,#106,#107,#108));
#567=EDGE_LOOP('',(#109,#110,#111,#112));
#568=EDGE_LOOP('',(#113,#114,#115,#116,#117,#118,#119,#120,#121,#122,#123));
#569=EDGE_LOOP('',(#124,#125,#126,#127));
#570=EDGE_LOOP('',(#128,#129,#130,#131,#132,#133));
#571=EDGE_LOOP('',(#134,#135,#136,#137));
#572=EDGE_LOOP('',(#138,#139,#140,#141));
#573=EDGE_LOOP('',(#142,#143,#144,#145));
#574=EDGE_LOOP('',(#146,#147,#148,#149));
#575=EDGE_LOOP('',(#150,#151,#152,#153));
#576=EDGE_LOOP('',(#154,#155,#156,#157));
#577=EDGE_LOOP('',(#158,#159,#160,#161));
#578=EDGE_LOOP('',(#162,#163,#164,#165));
#579=EDGE_LOOP('',(#166,#167,#168,#169));
#580=EDGE_LOOP('',(#170,#171,#172,#173));
#581=EDGE_LOOP('',(#174,#175,#176,#177));
#582=EDGE_LOOP('',(#178,#179,#180,#181));
#583=EDGE_LOOP('',(#182,#183,#184,#185,#186,#187));
#584=EDGE_LOOP('',(#188,#189,#190,#191));
#585=EDGE_LOOP('',(#192,#193,#194,#195));
#586=EDGE_LOOP('',(#196,#197,#198,#199));
#587=EDGE_LOOP('',(#200,#201,#202,#203));
#588=EDGE_LOOP('',(#204,#205,#206,#207));
#589=EDGE_LOOP('',(#208,#209,#210,#211,#212,#213));
#590=EDGE_LOOP('',(#214,#215,#216,#217));
#591=EDGE_LOOP('',(#218,#219,#220,#221));
#592=EDGE_LOOP('',(#222,#223,#224,#225));
#593=EDGE_LOOP('',(#226,#227,#228,#229,#230,#231,#232));
#594=EDGE_LOOP('',(#233,#234,#235,#236));
#595=FACE_BOUND('',#554,.T.);
#596=FACE_BOUND('',#555,.T.);
#597=FACE_BOUND('',#556,.T.);
#598=FACE_BOUND('',#557,.T.);
#599=FACE_BOUND('',#558,.T.);
#600=FACE_BOUND('',#559,.T.);
#601=FACE_BOUND('',#560,.T.);
#602=FACE_BOUND('',#561,.T.);
#603=FACE_BOUND('',#562,.T.);
#604=FACE_BOUND('',#563,.T.);
#605=FACE_BOUND('',#564,.T.);
#606=FACE_BOUND('',#565,.T.);
#607=FACE_BOUND('',#566,.T.);
#608=FACE_BOUND('',#567,.T.);
#609=FACE_BOUND('',#568,.T.);
#610=FACE_BOUND('',#569,.T.);
#611=FACE_BOUND('',#570,.T.);
#612=FACE_BOUND('',#571,.T.);
#613=FACE_BOUND('',#572,.T.);
#614=FACE_BOUND('',#573,.T.);
#615=FACE_BOUND('',#574,.T.);
#616=FACE_BOUND('',#575,.T.);
#617=FACE_BOUND('',#576,.T.);
#618=FACE_BOUND('',#577,.T.);
#619=FACE_BOUND('',#578,.T.);
#620=FACE_BOUND('',#579,.T.);
#621=FACE_BOUND('',#580,.T.);
#622=FACE_BOUND('',#581,.T.);
#623=FACE_BOUND('',#582,.T.);
#624=FACE_BOUND('',#583,.T.);
#625=FACE_BOUND('',#584,.T.);
#626=FACE_BOUND('',#585,.T.);
#627=FACE_BOUND('',#586,.T.);
#628=FACE_BOUND('',#587,.T.);
#629=FACE_BOUND('',#588,.T.);
#630=FACE_BOUND('',#589,.T.);
#631=FACE_BOUND('',#590,.T.);
#632=FACE_BOUND('',#591,.T.);
#633=FACE_BOUND('',#592,.T.);
#634=FACE_BOUND('',#593,.T.);
#635=FACE_BOUND('',#594,.T.);
#636=PLANE('',#711);
#637=PLANE('',#712);
#638=PLANE('',#713);
#639=PLANE('',#714);
#640=PLANE('',#717);
#641=PLANE('',#720);
#642=PLANE('',#721);
#643=PLANE('',#722);
#644=PLANE('',#723);
#645=PLANE('',#724);
#646=PLANE('',#725);
#647=PLANE('',#726);
#648=PLANE('',#727);
#649=PLANE('',#730);
#650=PLANE('',#736);
#651=PLANE('',#741);
#652=PLANE('',#746);
#653=PLANE('',#749);
#654=PLANE('',#750);
#655=PLANE('',#751);
#656=PLANE('',#752);
#657=PLANE('',#753);
#658=PLANE('',#755);
#659=PLANE('',#757);
#660=PLANE('',#758);
#661=PLANE('',#760);
#662=PLANE('',#762);
#663=ADVANCED_FACE('',(#595),#636,.T.);
#664=ADVANCED_FACE('',(#596),#637,.T.);
#665=ADVANCED_FACE('',(#597),#638,.F.);
#666=ADVANCED_FACE('',(#598,#599),#639,.T.);
#667=ADVANCED_FACE('',(#600,#601),#640,.T.);
#668=ADVANCED_FACE('',(#602),#641,.F.);
#669=ADVANCED_FACE('',(#603),#642,.F.);
#670=ADVANCED_FACE('',(#604),#643,.F.);
#671=ADVANCED_FACE('',(#605),#644,.T.);
#672=ADVANCED_FACE('',(#606),#645,.F.);
#673=ADVANCED_FACE('',(#607),#646,.F.);
#674=ADVANCED_FACE('',(#608),#647,.F.);
#675=ADVANCED_FACE('',(#609),#648,.T.);
#676=ADVANCED_FACE('',(#610,#611),#649,.T.);
#677=ADVANCED_FACE('',(#612),#20,.F.);
#678=ADVANCED_FACE('',(#613),#650,.T.);
#679=ADVANCED_FACE('',(#614),#21,.F.);
#680=ADVANCED_FACE('',(#615),#22,.F.);
#681=ADVANCED_FACE('',(#616),#651,.T.);
#682=ADVANCED_FACE('',(#617),#23,.F.);
#683=ADVANCED_FACE('',(#618),#24,.F.);
#684=ADVANCED_FACE('',(#619),#652,.T.);
#685=ADVANCED_FACE('',(#620),#25,.F.);
#686=ADVANCED_FACE('',(#621),#653,.F.);
#687=ADVANCED_FACE('',(#622),#654,.F.);
#688=ADVANCED_FACE('',(#623),#655,.F.);
#689=ADVANCED_FACE('',(#624,#625,#626,#627),#656,.F.);
#690=ADVANCED_FACE('',(#628),#657,.T.);
#691=ADVANCED_FACE('',(#629),#658,.T.);
#692=ADVANCED_FACE('',(#630),#26,.F.);
#693=ADVANCED_FACE('',(#631),#659,.F.);
#694=ADVANCED_FACE('',(#632),#660,.T.);
#695=ADVANCED_FACE('',(#633),#661,.T.);
#696=ADVANCED_FACE('',(#634),#27,.F.);
#697=ADVANCED_FACE('',(#635),#662,.F.);
#698=CLOSED_SHELL('',(#663,#664,#665,#666,#667,#668,#669,#670,#671,#672,
#673,#674,#675,#676,#677,#678,#679,#680,#681,#682,#683,#684,#685,#686,#687,
#688,#689,#690,#691,#692,#693,#694,#695,#696,#697));
#699=STYLED_ITEM('',(#700),#707);
#700=PRESENTATION_STYLE_ASSIGNMENT((#701));
#701=SURFACE_STYLE_USAGE(.BOTH.,#702);
#702=SURFACE_SIDE_STYLE('',(#703));
#703=SURFACE_STYLE_FILL_AREA(#704);
#704=FILL_AREA_STYLE('',(#705));
#705=FILL_AREA_STYLE_COLOUR('',#706);
#706=COLOUR_RGB('',0.615686274509804,0.811764705882353,0.929411764705882);
#707=MANIFOLD_SOLID_BREP('Part 1',#698);
#708=SHAPE_DEFINITION_REPRESENTATION(#1149,#709);
#709=SHAPE_REPRESENTATION('Part 1',(#710),#1144);
#710=AXIS2_PLACEMENT_3D('',#948,#763,#764);
#711=AXIS2_PLACEMENT_3D('',#949,#765,#766);
#712=AXIS2_PLACEMENT_3D('',#958,#771,#772);
#713=AXIS2_PLACEMENT_3D('',#964,#776,#777);
#714=AXIS2_PLACEMENT_3D('',#973,#782,#783);
#715=AXIS2_PLACEMENT_3D('',#974,#784,#785);
#716=AXIS2_PLACEMENT_3D('',#979,#787,#788);
#717=AXIS2_PLACEMENT_3D('',#987,#793,#794);
#718=AXIS2_PLACEMENT_3D('',#988,#795,#796);
#719=AXIS2_PLACEMENT_3D('',#993,#798,#799);
#720=AXIS2_PLACEMENT_3D('',#1004,#805,#806);
#721=AXIS2_PLACEMENT_3D('',#1023,#817,#818);
#722=AXIS2_PLACEMENT_3D('',#1032,#823,#824);
#723=AXIS2_PLACEMENT_3D('',#1037,#828,#829);
#724=AXIS2_PLACEMENT_3D('',#1041,#832,#833);
#725=AXIS2_PLACEMENT_3D('',#1047,#837,#838);
#726=AXIS2_PLACEMENT_3D('',#1053,#842,#843);
#727=AXIS2_PLACEMENT_3D('',#1056,#846,#847);
#728=AXIS2_PLACEMENT_3D('',#1057,#848,#849);
#729=AXIS2_PLACEMENT_3D('',#1058,#850,#851);
#730=AXIS2_PLACEMENT_3D('',#1059,#852,#853);
#731=AXIS2_PLACEMENT_3D('',#1060,#854,#855);
#732=AXIS2_PLACEMENT_3D('',#1065,#857,#858);
#733=AXIS2_PLACEMENT_3D('',#1070,#861,#862);
#734=AXIS2_PLACEMENT_3D('',#1072,#864,#865);
#735=AXIS2_PLACEMENT_3D('',#1075,#867,#868);
#736=AXIS2_PLACEMENT_3D('',#1078,#870,#871);
#737=AXIS2_PLACEMENT_3D('',#1082,#874,#875);
#738=AXIS2_PLACEMENT_3D('',#1083,#876,#877);
#739=AXIS2_PLACEMENT_3D('',#1086,#879,#880);
#740=AXIS2_PLACEMENT_3D('',#1089,#882,#883);
#741=AXIS2_PLACEMENT_3D('',#1092,#885,#886);
#742=AXIS2_PLACEMENT_3D('',#1096,#889,#890);
#743=AXIS2_PLACEMENT_3D('',#1097,#891,#892);
#744=AXIS2_PLACEMENT_3D('',#1100,#894,#895);
#745=AXIS2_PLACEMENT_3D('',#1103,#897,#898);
#746=AXIS2_PLACEMENT_3D('',#1106,#900,#901);
#747=AXIS2_PLACEMENT_3D('',#1110,#904,#905);
#748=AXIS2_PLACEMENT_3D('',#1111,#906,#907);
#749=AXIS2_PLACEMENT_3D('',#1114,#909,#910);
#750=AXIS2_PLACEMENT_3D('',#1116,#912,#913);
#751=AXIS2_PLACEMENT_3D('',#1118,#915,#916);
#752=AXIS2_PLACEMENT_3D('',#1120,#918,#919);
#753=AXIS2_PLACEMENT_3D('',#1121,#920,#921);
#754=AXIS2_PLACEMENT_3D('',#1124,#923,#924);
#755=AXIS2_PLACEMENT_3D('',#1127,#926,#927);
#756=AXIS2_PLACEMENT_3D('',#1129,#929,#930);
#757=AXIS2_PLACEMENT_3D('',#1131,#932,#933);
#758=AXIS2_PLACEMENT_3D('',#1132,#934,#935);
#759=AXIS2_PLACEMENT_3D('',#1135,#937,#938);
#760=AXIS2_PLACEMENT_3D('',#1138,#940,#941);
#761=AXIS2_PLACEMENT_3D('',#1140,#943,#944);
#762=AXIS2_PLACEMENT_3D('',#1142,#946,#947);
#763=DIRECTION('',(0.,0.,1.));
#764=DIRECTION('',(1.,0.,0.));
#765=DIRECTION('',(0.,1.,0.));
#766=DIRECTION('',(0.,0.,1.));
#767=DIRECTION('',(1.,0.,0.));
#768=DIRECTION('',(0.,0.,1.));
#769=DIRECTION('',(1.,0.,0.));
#770=DIRECTION('',(0.,0.,-1.));
#771=DIRECTION('',(1.,1.19224981166791E-16,0.));
#772=DIRECTION('',(-1.19224981166791E-16,1.,0.));
#773=DIRECTION('',(1.19224981166791E-16,-1.,0.));
#774=DIRECTION('',(0.,0.,1.));
#775=DIRECTION('',(1.19224981166791E-16,-1.,0.));
#776=DIRECTION('',(1.22464679914735E-16,-1.,0.));
#777=DIRECTION('',(1.,1.22464679914735E-16,0.));
#778=DIRECTION('',(0.,0.,1.));
#779=DIRECTION('',(-1.,-1.22464679914735E-16,0.));
#780=DIRECTION('',(0.,0.,-1.));
#781=DIRECTION('',(-1.,-1.22464679914735E-16,0.));
#782=DIRECTION('',(0.,0.,1.));
#783=DIRECTION('',(1.,0.,0.));
#784=DIRECTION('',(0.,0.,-1.));
#785=DIRECTION('',(1.,0.,0.));
#786=DIRECTION('',(0.,-1.,0.));
#787=DIRECTION('',(0.,0.,-1.));
#788=DIRECTION('',(1.,0.,0.));
#789=DIRECTION('',(0.,-1.,0.));
#790=DIRECTION('',(0.,1.,0.));
#791=DIRECTION('',(1.,0.,0.));
#792=DIRECTION('',(0.,-1.,0.));
#793=DIRECTION('',(0.,0.,1.));
#794=DIRECTION('',(1.,0.,0.));
#795=DIRECTION('',(0.,0.,-1.));
#796=DIRECTION('',(1.,0.,0.));
#797=DIRECTION('',(1.18008399726313E-16,-1.,0.));
#798=DIRECTION('',(0.,0.,-1.));
#799=DIRECTION('',(1.,0.,0.));
#800=DIRECTION('',(1.37676466347366E-16,-1.,0.));
#801=DIRECTION('',(-2.47660394730191E-17,1.,0.));
#802=DIRECTION('',(1.,0.,0.));
#803=DIRECTION('',(3.52228116949606E-16,-1.,0.));
#804=DIRECTION('',(1.,0.,0.));
#805=DIRECTION('',(0.,-1.,0.));
#806=DIRECTION('',(0.,0.,-1.));
#807=DIRECTION('',(0.,0.,1.));
#808=DIRECTION('',(-1.,0.,0.));
#809=DIRECTION('',(0.,0.,1.));
#810=DIRECTION('',(1.,0.,0.));
#811=DIRECTION('',(0.,0.,1.));
#812=DIRECTION('',(-1.,0.,0.));
#813=DIRECTION('',(0.,0.,1.));
#814=DIRECTION('',(0.,0.,1.));
#815=DIRECTION('',(1.,0.,0.));
#816=DIRECTION('',(0.,0.,1.));
#817=DIRECTION('',(0.,1.,0.));
#818=DIRECTION('',(0.,0.,1.));
#819=DIRECTION('',(0.,0.,-1.));
#820=DIRECTION('',(1.,0.,0.));
#821=DIRECTION('',(0.,0.,-1.));
#822=DIRECTION('',(1.,0.,0.));
#823=DIRECTION('',(-1.,0.,0.));
#824=DIRECTION('',(0.,0.,1.));
#825=DIRECTION('',(3.52228116949606E-16,-1.,0.));
#826=DIRECTION('',(0.,0.,-1.));
#827=DIRECTION('',(0.,1.,0.));
#828=DIRECTION('',(0.,1.,0.));
#829=DIRECTION('',(0.,0.,1.));
#830=DIRECTION('',(0.,0.,1.));
#831=DIRECTION('',(1.,0.,0.));
#832=DIRECTION('',(1.,0.,0.));
#833=DIRECTION('',(0.,0.,-1.));
#834=DIRECTION('',(0.,-1.,0.));
#835=DIRECTION('',(0.,0.,-1.));
#836=DIRECTION('',(0.,-1.,0.));
#837=DIRECTION('',(-2.42861286636753E-16,1.,0.));
#838=DIRECTION('',(-1.,-2.42861286636753E-16,0.));
#839=DIRECTION('',(1.,2.42861286636753E-16,0.));
#840=DIRECTION('',(0.,0.,-1.));
#841=DIRECTION('',(1.,2.42861286636753E-16,0.));
#842=DIRECTION('',(1.,1.19224981166791E-16,0.));
#843=DIRECTION('',(-1.19224981166791E-16,1.,0.));
#844=DIRECTION('',(1.19224981166791E-16,-1.,0.));
#845=DIRECTION('',(1.19224981166791E-16,-1.,0.));
#846=DIRECTION('',(0.,0.,1.));
#847=DIRECTION('',(1.,0.,0.));
#848=DIRECTION('',(0.,0.,1.));
#849=DIRECTION('',(1.,0.,0.));
#850=DIRECTION('',(0.,0.,1.));
#851=DIRECTION('',(1.,0.,0.));
#852=DIRECTION('',(0.,0.,1.));
#853=DIRECTION('',(1.,0.,0.));
#854=DIRECTION('',(0.,0.,-1.));
#855=DIRECTION('',(1.,0.,0.));
#856=DIRECTION('',(1.20466908053945E-16,-1.,0.));
#857=DIRECTION('',(0.,0.,-1.));
#858=DIRECTION('',(1.,0.,0.));
#859=DIRECTION('',(1.60622544071926E-16,-1.,0.));
#860=DIRECTION('',(0.,1.,0.));
#861=DIRECTION('',(0.,0.,1.));
#862=DIRECTION('',(1.,0.,0.));
#863=DIRECTION('',(-2.47660394730191E-17,1.,0.));
#864=DIRECTION('',(0.,0.,1.));
#865=DIRECTION('',(1.,0.,0.));
#866=DIRECTION('',(0.,0.,1.));
#867=DIRECTION('',(0.,0.,-1.));
#868=DIRECTION('',(1.,0.,0.));
#869=DIRECTION('',(0.,0.,1.));
#870=DIRECTION('',(-1.,0.,0.));
#871=DIRECTION('',(0.,0.,1.));
#872=DIRECTION('',(0.,-1.,0.));
#873=DIRECTION('',(0.,0.,1.));
#874=DIRECTION('',(0.,0.,1.));
#875=DIRECTION('',(1.,0.,0.));
#876=DIRECTION('',(0.,0.,-1.));
#877=DIRECTION('',(1.,0.,0.));
#878=DIRECTION('',(0.,0.,1.));
#879=DIRECTION('',(0.,0.,1.));
#880=DIRECTION('',(1.,0.,0.));
#881=DIRECTION('',(0.,0.,1.));
#882=DIRECTION('',(0.,0.,-1.));
#883=DIRECTION('',(1.,0.,0.));
#884=DIRECTION('',(0.,0.,1.));
#885=DIRECTION('',(-1.,-1.18008399726313E-16,0.));
#886=DIRECTION('',(1.18008399726313E-16,-1.,0.));
#887=DIRECTION('',(1.18008399726313E-16,-1.,0.));
#888=DIRECTION('',(0.,0.,1.));
#889=DIRECTION('',(0.,0.,1.));
#890=DIRECTION('',(1.,0.,0.));
#891=DIRECTION('',(0.,0.,-1.));
#892=DIRECTION('',(1.,0.,0.));
#893=DIRECTION('',(0.,0.,1.));
#894=DIRECTION('',(0.,0.,1.));
#895=DIRECTION('',(1.,0.,0.));
#896=DIRECTION('',(0.,0.,1.));
#897=DIRECTION('',(0.,0.,-1.));
#898=DIRECTION('',(1.,0.,0.));
#899=DIRECTION('',(0.,0.,1.));
#900=DIRECTION('',(-1.,-1.20466908053945E-16,0.));
#901=DIRECTION('',(1.20466908053945E-16,-1.,0.));
#902=DIRECTION('',(1.20466908053945E-16,-1.,0.));
#903=DIRECTION('',(0.,0.,1.));
#904=DIRECTION('',(0.,0.,1.));
#905=DIRECTION('',(1.,0.,0.));
#906=DIRECTION('',(0.,0.,-1.));
#907=DIRECTION('',(1.,0.,0.));
#908=DIRECTION('',(0.,0.,1.));
#909=DIRECTION('',(-1.,-1.37676466347366E-16,0.));
#910=DIRECTION('',(1.37676466347366E-16,-1.,0.));
#911=DIRECTION('',(1.37676466347366E-16,-1.,0.));
#912=DIRECTION('',(-1.,-1.60622544071926E-16,0.));
#913=DIRECTION('',(1.60622544071926E-16,-1.,0.));
#914=DIRECTION('',(1.60622544071926E-16,-1.,0.));
#915=DIRECTION('',(-1.,0.,0.));
#916=DIRECTION('',(0.,0.,1.));
#917=DIRECTION('',(0.,-1.,0.));
#918=DIRECTION('',(0.,0.,1.));
#919=DIRECTION('',(1.,0.,0.));
#920=DIRECTION('',(0.,0.,1.));
#921=DIRECTION('',(1.,0.,0.));
#922=DIRECTION('',(-2.47660394730191E-17,1.,0.));
#923=DIRECTION('',(0.,0.,-1.));
#924=DIRECTION('',(1.,0.,0.));
#925=DIRECTION('',(-2.47660394730191E-17,1.,0.));
#926=DIRECTION('',(1.,2.47660394730191E-17,0.));
#927=DIRECTION('',(-2.47660394730191E-17,1.,0.));
#928=DIRECTION('',(0.,0.,1.));
#929=DIRECTION('',(0.,0.,1.));
#930=DIRECTION('',(1.,0.,0.));
#931=DIRECTION('',(0.,0.,1.));
#932=DIRECTION('',(1.,2.47660394730191E-17,0.));
#933=DIRECTION('',(-2.47660394730191E-17,1.,0.));
#934=DIRECTION('',(0.,0.,1.));
#935=DIRECTION('',(1.,0.,0.));
#936=DIRECTION('',(0.,1.,0.));
#937=DIRECTION('',(0.,0.,-1.));
#938=DIRECTION('',(1.,0.,0.));
#939=DIRECTION('',(0.,1.,0.));
#940=DIRECTION('',(1.,0.,0.));
#941=DIRECTION('',(0.,0.,-1.));
#942=DIRECTION('',(0.,0.,1.));
#943=DIRECTION('',(0.,0.,1.));
#944=DIRECTION('',(1.,0.,0.));
#945=DIRECTION('',(0.,0.,1.));
#946=DIRECTION('',(1.,0.,0.));
#947=DIRECTION('',(0.,0.,-1.));
#948=CARTESIAN_POINT('',(0.,0.,0.));
#949=CARTESIAN_POINT('',(3.12250225675825E-17,-0.0582,0.03));
#950=CARTESIAN_POINT('',(3.12250225675825E-17,-0.0582,0.03));
#951=CARTESIAN_POINT('',(-0.03,-0.0582,0.03));
#952=CARTESIAN_POINT('',(-0.000499999999999969,-0.0582,0.03));
#953=CARTESIAN_POINT('',(-0.000499999999999969,-0.0582,-0.002));
#954=CARTESIAN_POINT('',(-0.000499999999999969,-0.0582,0.));
#955=CARTESIAN_POINT('',(3.12250225675825E-17,-0.0582,0.));
#956=CARTESIAN_POINT('',(-0.03,-0.0582,0.));
#957=CARTESIAN_POINT('',(-0.03,-0.0582,0.03));
#958=CARTESIAN_POINT('',(-0.03,-0.0291,0.03));
#959=CARTESIAN_POINT('',(-0.03,-0.0291,0.));
#960=CARTESIAN_POINT('',(-0.03,-0.0005,0.));
#961=CARTESIAN_POINT('',(-0.03,-0.0005,-0.002));
#962=CARTESIAN_POINT('',(-0.03,-0.0005,0.03));
#963=CARTESIAN_POINT('',(-0.03,-0.0291,0.03));
#964=CARTESIAN_POINT('',(-0.045,-1.83697019872102E-18,0.03));
#965=CARTESIAN_POINT('',(-0.0305,-3.0616169978684E-20,-0.002));
#966=CARTESIAN_POINT('',(-0.0305,-3.0616169978684E-20,0.));
#967=CARTESIAN_POINT('',(-0.0305,-3.0616169978684E-20,0.03));
#968=CARTESIAN_POINT('',(-0.045,-1.83697019872102E-18,0.));
#969=CARTESIAN_POINT('',(-0.06,3.46944695195361E-18,0.));
#970=CARTESIAN_POINT('',(-0.06,3.46944695195361E-18,0.03));
#971=CARTESIAN_POINT('',(-0.06,3.46944695195361E-18,0.03));
#972=CARTESIAN_POINT('',(-0.045,-1.83697019872102E-18,0.03));
#973=CARTESIAN_POINT('',(-0.015,-0.0016,0.));
#974=CARTESIAN_POINT('',(-0.045,0.045,0.));
#975=CARTESIAN_POINT('',(-0.0481,0.045,0.));
#976=CARTESIAN_POINT('',(-0.0419,0.045,0.));
#977=CARTESIAN_POINT('',(-0.0419,0.03,0.));
#978=CARTESIAN_POINT('',(-0.0419,0.015,0.));
#979=CARTESIAN_POINT('',(-0.045,0.015,0.));
#980=CARTESIAN_POINT('',(-0.0481,0.015,0.));
#981=CARTESIAN_POINT('',(-0.0481,0.03,0.));
#982=CARTESIAN_POINT('',(-0.0305,-0.0016,0.));
#983=CARTESIAN_POINT('',(-0.0305,0.06,0.));
#984=CARTESIAN_POINT('',(0.015,0.06,0.));
#985=CARTESIAN_POINT('',(-0.06,0.06,0.));
#986=CARTESIAN_POINT('',(-0.06,-0.0025,0.));
#987=CARTESIAN_POINT('',(-0.015,-0.0016,0.));
#988=CARTESIAN_POINT('',(0.015,0.045,0.));
#989=CARTESIAN_POINT('',(0.0119,0.045,0.));
#990=CARTESIAN_POINT('',(0.0181,0.045,0.));
#991=CARTESIAN_POINT('',(0.0181,0.0009,0.));
#992=CARTESIAN_POINT('',(0.0181,-0.0432,0.));
#993=CARTESIAN_POINT('',(0.015,-0.0432,0.));
#994=CARTESIAN_POINT('',(0.0119,-0.0432,0.));
#995=CARTESIAN_POINT('',(0.0119,0.0009,0.));
#996=CARTESIAN_POINT('',(0.000500000000000013,-0.0016,0.));
#997=CARTESIAN_POINT('',(0.000500000000000014,-0.0582,0.));
#998=CARTESIAN_POINT('',(0.000500000000000011,0.06,0.));
#999=CARTESIAN_POINT('',(3.12250225675825E-17,-0.0582,0.));
#1000=CARTESIAN_POINT('',(0.03,-0.0582,0.));
#1001=CARTESIAN_POINT('',(0.03,0.000900000000000012,0.));
#1002=CARTESIAN_POINT('',(0.03,0.06,0.));
#1003=CARTESIAN_POINT('',(0.015,0.06,0.));
#1004=CARTESIAN_POINT('',(0.015,0.06,-0.005));
#1005=CARTESIAN_POINT('',(-0.0305,0.06,-0.002));
#1006=CARTESIAN_POINT('',(-0.0305,0.06,-0.002));
#1007=CARTESIAN_POINT('',(0.015,0.06,-0.002));
#1008=CARTESIAN_POINT('',(-0.0295,0.06,-0.002));
#1009=CARTESIAN_POINT('',(-0.0295,0.06,-0.002));
#1010=CARTESIAN_POINT('',(-0.0295,0.06,0.));
#1011=CARTESIAN_POINT('',(0.015,0.06,0.));
#1012=CARTESIAN_POINT('',(-0.0005,0.06,0.));
#1013=CARTESIAN_POINT('',(-0.0005,0.06,-0.002));
#1014=CARTESIAN_POINT('',(-0.0005,0.06,-0.002));
#1015=CARTESIAN_POINT('',(0.015,0.06,-0.002));
#1016=CARTESIAN_POINT('',(0.000500000000000032,0.06,-0.002));
#1017=CARTESIAN_POINT('',(0.000500000000000011,0.06,-0.002));
#1018=CARTESIAN_POINT('',(0.03,0.06,-0.005));
#1019=CARTESIAN_POINT('',(0.03,0.06,-0.005));
#1020=CARTESIAN_POINT('',(0.015,0.06,-0.005));
#1021=CARTESIAN_POINT('',(-0.06,0.06,-0.005));
#1022=CARTESIAN_POINT('',(-0.06,0.06,-0.005));
#1023=CARTESIAN_POINT('',(-0.00249999999999997,-0.0632,0.03));
#1024=CARTESIAN_POINT('',(-0.035,-0.0632,0.03));
#1025=CARTESIAN_POINT('',(-0.035,-0.0632,0.03));
#1026=CARTESIAN_POINT('',(-0.035,-0.0632,-0.005));
#1027=CARTESIAN_POINT('',(-0.00249999999999997,-0.0632,-0.005));
#1028=CARTESIAN_POINT('',(0.03,-0.0632,-0.005));
#1029=CARTESIAN_POINT('',(0.03,-0.0632,0.03));
#1030=CARTESIAN_POINT('',(0.03,-0.0632,0.03));
#1031=CARTESIAN_POINT('',(-0.00249999999999997,-0.0632,0.03));
#1032=CARTESIAN_POINT('',(0.03,-0.0607,0.03));
#1033=CARTESIAN_POINT('',(0.03,0.000900000000000012,-0.005));
#1034=CARTESIAN_POINT('',(0.03,-0.0582,0.03));
#1035=CARTESIAN_POINT('',(0.03,-0.0582,0.03));
#1036=CARTESIAN_POINT('',(0.03,-0.0607,0.03));
#1037=CARTESIAN_POINT('',(3.12250225675825E-17,-0.0582,0.03));
#1038=CARTESIAN_POINT('',(0.000500000000000014,-0.0582,-0.002));
#1039=CARTESIAN_POINT('',(0.000500000000000014,-0.0582,0.03));
#1040=CARTESIAN_POINT('',(3.12250225675825E-17,-0.0582,0.03));
#1041=CARTESIAN_POINT('',(-0.06,-0.0025,0.03));
#1042=CARTESIAN_POINT('',(-0.06,-0.0025,-0.005));
#1043=CARTESIAN_POINT('',(-0.06,-0.005,-0.005));
#1044=CARTESIAN_POINT('',(-0.06,-0.005,0.03));
#1045=CARTESIAN_POINT('',(-0.06,-0.005,0.03));
#1046=CARTESIAN_POINT('',(-0.06,-0.0025,0.03));
#1047=CARTESIAN_POINT('',(-0.0475,-0.005,0.03));
#1048=CARTESIAN_POINT('',(-0.0475,-0.005,-0.005));
#1049=CARTESIAN_POINT('',(-0.035,-0.005,-0.005));
#1050=CARTESIAN_POINT('',(-0.035,-0.005,0.03));
#1051=CARTESIAN_POINT('',(-0.035,-0.005,0.03));
#1052=CARTESIAN_POINT('',(-0.0475,-0.005,0.03));
#1053=CARTESIAN_POINT('',(-0.035,-0.0341,0.03));
#1054=CARTESIAN_POINT('',(-0.035,-0.0341,-0.005));
#1055=CARTESIAN_POINT('',(-0.035,-0.0341,0.03));
#1056=CARTESIAN_POINT('',(-0.015,-0.0016,0.03));
#1057=CARTESIAN_POINT('',(-0.03,-3.06161699786839E-20,0.03));
#1058=CARTESIAN_POINT('',(3.12250225675825E-17,-0.0582,0.03));
#1059=CARTESIAN_POINT('',(-0.015,-0.0016,0.));
#1060=CARTESIAN_POINT('',(-0.015,0.045,0.));
#1061=CARTESIAN_POINT('',(-0.0181,0.045,0.));
#1062=CARTESIAN_POINT('',(-0.0119,0.045,0.));
#1063=CARTESIAN_POINT('',(-0.0119,-0.0216,0.));
#1064=CARTESIAN_POINT('',(-0.0119,-0.0432,0.));
#1065=CARTESIAN_POINT('',(-0.015,-0.0432,0.));
#1066=CARTESIAN_POINT('',(-0.0181,-0.0432,0.));
#1067=CARTESIAN_POINT('',(-0.0181,-0.0216,0.));
#1068=CARTESIAN_POINT('',(-0.0295,-0.0016,0.));
#1069=CARTESIAN_POINT('',(-0.0295,0.,0.));
#1070=CARTESIAN_POINT('',(-0.03,-3.06161699786839E-20,0.));
#1071=CARTESIAN_POINT('',(-0.000500000000000023,-0.0016,0.));
#1072=CARTESIAN_POINT('',(-0.045,0.045,-0.005));
#1073=CARTESIAN_POINT('',(-0.0481,0.045,-0.005));
#1074=CARTESIAN_POINT('',(-0.0481,0.045,-0.005));
#1075=CARTESIAN_POINT('',(-0.045,0.045,-0.005));
#1076=CARTESIAN_POINT('',(-0.0419,0.045,-0.005));
#1077=CARTESIAN_POINT('',(-0.0419,0.045,-0.005));
#1078=CARTESIAN_POINT('',(-0.0419,0.03,-0.005));
#1079=CARTESIAN_POINT('',(-0.0419,0.03,-0.005));
#1080=CARTESIAN_POINT('',(-0.0419,0.015,-0.005));
#1081=CARTESIAN_POINT('',(-0.0419,0.015,-0.005));
#1082=CARTESIAN_POINT('',(-0.045,0.015,-0.005));
#1083=CARTESIAN_POINT('',(-0.045,0.015,-0.005));
#1084=CARTESIAN_POINT('',(-0.0481,0.015,-0.005));
#1085=CARTESIAN_POINT('',(-0.0481,0.015,-0.005));
#1086=CARTESIAN_POINT('',(0.015,0.045,-0.005));
#1087=CARTESIAN_POINT('',(0.0119,0.045,-0.005));
#1088=CARTESIAN_POINT('',(0.0119,0.045,-0.005));
#1089=CARTESIAN_POINT('',(0.015,0.045,-0.005));
#1090=CARTESIAN_POINT('',(0.0181,0.045,-0.005));
#1091=CARTESIAN_POINT('',(0.0181,0.045,-0.005));
#1092=CARTESIAN_POINT('',(0.0181,0.0009,-0.005));
#1093=CARTESIAN_POINT('',(0.0181,0.0009,-0.005));
#1094=CARTESIAN_POINT('',(0.0181,-0.0432,-0.005));
#1095=CARTESIAN_POINT('',(0.0181,-0.0432,-0.005));
#1096=CARTESIAN_POINT('',(0.015,-0.0432,-0.005));
#1097=CARTESIAN_POINT('',(0.015,-0.0432,-0.005));
#1098=CARTESIAN_POINT('',(0.0119,-0.0432,-0.005));
#1099=CARTESIAN_POINT('',(0.0119,-0.0432,-0.005));
#1100=CARTESIAN_POINT('',(-0.015,0.045,-0.005));
#1101=CARTESIAN_POINT('',(-0.0181,0.045,-0.005));
#1102=CARTESIAN_POINT('',(-0.0181,0.045,-0.005));
#1103=CARTESIAN_POINT('',(-0.015,0.045,-0.005));
#1104=CARTESIAN_POINT('',(-0.0119,0.045,-0.005));
#1105=CARTESIAN_POINT('',(-0.0119,0.045,-0.005));
#1106=CARTESIAN_POINT('',(-0.0119,-0.0216,-0.005));
#1107=CARTESIAN_POINT('',(-0.0119,-0.0216,-0.005));
#1108=CARTESIAN_POINT('',(-0.0119,-0.0432,-0.005));
#1109=CARTESIAN_POINT('',(-0.0119,-0.0432,-0.005));
#1110=CARTESIAN_POINT('',(-0.015,-0.0432,-0.005));
#1111=CARTESIAN_POINT('',(-0.015,-0.0432,-0.005));
#1112=CARTESIAN_POINT('',(-0.0181,-0.0432,-0.005));
#1113=CARTESIAN_POINT('',(-0.0181,-0.0432,-0.005));
#1114=CARTESIAN_POINT('',(0.0119,0.0009,-0.005));
#1115=CARTESIAN_POINT('',(0.0119,0.0009,-0.005));
#1116=CARTESIAN_POINT('',(-0.0181,-0.0216,-0.005));
#1117=CARTESIAN_POINT('',(-0.0181,-0.0216,-0.005));
#1118=CARTESIAN_POINT('',(-0.0481,0.03,-0.005));
#1119=CARTESIAN_POINT('',(-0.0481,0.03,-0.005));
#1120=CARTESIAN_POINT('',(-0.015,-0.0016,-0.005));
#1121=CARTESIAN_POINT('',(-0.02975,0.000900000000000012,-0.002));
#1122=CARTESIAN_POINT('',(-0.000500000000000024,0.000900000000000012,-0.002));
#1123=CARTESIAN_POINT('',(-0.000499999999999969,-0.0582,-0.002));
#1124=CARTESIAN_POINT('',(3.12250225675825E-17,-0.0582,-0.002));
#1125=CARTESIAN_POINT('',(0.000500000000000014,-0.0582,-0.002));
#1126=CARTESIAN_POINT('',(0.000500000000000012,0.000900000000000012,-0.002));
#1127=CARTESIAN_POINT('',(-0.000500000000000024,0.000900000000000012,-0.002));
#1128=CARTESIAN_POINT('',(-0.000499999999999969,-0.0582,-0.002));
#1129=CARTESIAN_POINT('',(3.12250225675825E-17,-0.0582,-0.002));
#1130=CARTESIAN_POINT('',(0.000500000000000014,-0.0582,-0.002));
#1131=CARTESIAN_POINT('',(0.000500000000000012,0.000900000000000012,-0.002));
#1132=CARTESIAN_POINT('',(-0.02975,0.000900000000000012,-0.002));
#1133=CARTESIAN_POINT('',(-0.0305,0.03,-0.002));
#1134=CARTESIAN_POINT('',(-0.0305,-3.0616169978684E-20,-0.002));
#1135=CARTESIAN_POINT('',(-0.03,-3.06161699786839E-20,-0.002));
#1136=CARTESIAN_POINT('',(-0.0295,0.,-0.002));
#1137=CARTESIAN_POINT('',(-0.0295,0.03,-0.002));
#1138=CARTESIAN_POINT('',(-0.0305,0.03,-0.002));
#1139=CARTESIAN_POINT('',(-0.0305,-3.0616169978684E-20,-0.002));
#1140=CARTESIAN_POINT('',(-0.03,-3.06161699786839E-20,-0.002));
#1141=CARTESIAN_POINT('',(-0.0295,0.,-0.002));
#1142=CARTESIAN_POINT('',(-0.0295,0.03,-0.002));
#1143=MECHANICAL_DESIGN_GEOMETRIC_PRESENTATION_REPRESENTATION('',(#699),
#1144);
#1144=(
GEOMETRIC_REPRESENTATION_CONTEXT(3)
GLOBAL_UNCERTAINTY_ASSIGNED_CONTEXT((#1145))
GLOBAL_UNIT_ASSIGNED_CONTEXT((#1148,#1147,#1146))
REPRESENTATION_CONTEXT('Part 1','TOP_LEVEL_ASSEMBLY_PART')
);
#1145=UNCERTAINTY_MEASURE_WITH_UNIT(LENGTH_MEASURE(1.E-8),#1148,
'DISTANCE_ACCURACY_VALUE','Maximum Tolerance applied to model');
#1146=(
NAMED_UNIT(*)
SI_UNIT($,.STERADIAN.)
SOLID_ANGLE_UNIT()
);
#1147=(
NAMED_UNIT(*)
PLANE_ANGLE_UNIT()
SI_UNIT($,.RADIAN.)
);
#1148=(
LENGTH_UNIT()
NAMED_UNIT(*)
SI_UNIT($,.METRE.)
);
#1149=PRODUCT_DEFINITION_SHAPE('','',#1150);
#1150=PRODUCT_DEFINITION('','',#1152,#1151);
#1151=PRODUCT_DEFINITION_CONTEXT('',#1158,'design');
#1152=PRODUCT_DEFINITION_FORMATION_WITH_SPECIFIED_SOURCE('','',#1154,
 .NOT_KNOWN.);
#1153=PRODUCT_RELATED_PRODUCT_CATEGORY('','',(#1154));
#1154=PRODUCT('Part 1','Part 1','Part 1',(#1156));
#1155=PRODUCT_CATEGORY('','');
#1156=PRODUCT_CONTEXT('',#1158,'mechanical');
#1157=APPLICATION_PROTOCOL_DEFINITION('international standard',
'automotive_design',2010,#1158);
#1158=APPLICATION_CONTEXT(
'core data for automotive mechanical design processes');
ENDSEC;
END-ISO-10303-21;
