ISO-10303-21;
HEADER;
/* Generated by software containing ST-Developer
 * from STEP Tools, Inc. (www.steptools.com) 
 */
/* OPTION: using custom renumber hook */

FILE_DESCRIPTION(
/* description */ ('STEP AP214',
'CAx-IF Rec.Pracs.---User Defined Attributes---1.5---2016-08-15'),
/* implementation_level */ '2;1');

FILE_NAME(
/* name */ '6a95da0cd62aea1f59760a38',
/* time_stamp */ '2026-08-31T19:46:20Z',
/* author */ (''),
/* organization */ (''),
/* preprocessor_version */ 'ST-DEVELOPER v20',
/* originating_system */ 'ONSHAPE BY PTC INC, 1.220',
/* authorisation */ '  ');

FILE_SCHEMA (('AUTOMOTIVE_DESIGN {1 0 10303 214 3 1 1}'));
ENDSEC;

DATA;
#10=PROPERTY_DEFINITION_REPRESENTATION(#14,#12);
#11=PROPERTY_DEFINITION_REPRESENTATION(#15,#13);
#12=REPRESENTATION('',(#16),#1803);
#13=REPRESENTATION('',(#17),#1803);
#14=PROPERTY_DEFINITION('pmi validation property','',#1808);
#15=PROPERTY_DEFINITION('pmi validation property','',#1808);
#16=VALUE_REPRESENTATION_ITEM('number of annotations',COUNT_MEASURE(0.));
#17=VALUE_REPRESENTATION_ITEM('number of views',COUNT_MEASURE(0.));
#18=SHAPE_REPRESENTATION_RELATIONSHIP('','',#1101,#19);
#19=ADVANCED_BREP_SHAPE_REPRESENTATION('',(#1099),#1803);
#20=LINE('',#1515,#124);
#21=LINE('',#1519,#125);
#22=LINE('',#1523,#126);
#23=LINE('',#1527,#127);
#24=LINE('',#1541,#128);
#25=LINE('',#1544,#129);
#26=LINE('',#1546,#130);
#27=LINE('',#1548,#131);
#28=LINE('',#1550,#132);
#29=LINE('',#1554,#133);
#30=LINE('',#1558,#134);
#31=LINE('',#1560,#135);
#32=LINE('',#1564,#136);
#33=LINE('',#1568,#137);
#34=LINE('',#1572,#138);
#35=LINE('',#1576,#139);
#36=LINE('',#1578,#140);
#37=LINE('',#1581,#141);
#38=LINE('',#1582,#142);
#39=LINE('',#1584,#143);
#40=LINE('',#1587,#144);
#41=LINE('',#1588,#145);
#42=LINE('',#1590,#146);
#43=LINE('',#1592,#147);
#44=LINE('',#1596,#148);
#45=LINE('',#1598,#149);
#46=LINE('',#1600,#150);
#47=LINE('',#1604,#151);
#48=LINE('',#1606,#152);
#49=LINE('',#1608,#153);
#50=LINE('',#1619,#154);
#51=LINE('',#1621,#155);
#52=LINE('',#1630,#156);
#53=LINE('',#1633,#157);
#54=LINE('',#1635,#158);
#55=LINE('',#1637,#159);
#56=LINE('',#1639,#160);
#57=LINE('',#1641,#161);
#58=LINE('',#1642,#162);
#59=LINE('',#1645,#163);
#60=LINE('',#1647,#164);
#61=LINE('',#1649,#165);
#62=LINE('',#1651,#166);
#63=LINE('',#1653,#167);
#64=LINE('',#1654,#168);
#65=LINE('',#1656,#169);
#66=LINE('',#1658,#170);
#67=LINE('',#1660,#171);
#68=LINE('',#1661,#172);
#69=LINE('',#1663,#173);
#70=LINE('',#1665,#174);
#71=LINE('',#1667,#175);
#72=LINE('',#1669,#176);
#73=LINE('',#1671,#177);
#74=LINE('',#1672,#178);
#75=LINE('',#1676,#179);
#76=LINE('',#1678,#180);
#77=LINE('',#1680,#181);
#78=LINE('',#1682,#182);
#79=LINE('',#1683,#183);
#80=LINE('',#1687,#184);
#81=LINE('',#1690,#185);
#82=LINE('',#1691,#186);
#83=LINE('',#1692,#187);
#84=LINE('',#1694,#188);
#85=LINE('',#1698,#189);
#86=LINE('',#1700,#190);
#87=LINE('',#1702,#191);
#88=LINE('',#1706,#192);
#89=LINE('',#1708,#193);
#90=LINE('',#1710,#194);
#91=LINE('',#1714,#195);
#92=LINE('',#1716,#196);
#93=LINE('',#1717,#197);
#94=LINE('',#1720,#198);
#95=LINE('',#1724,#199);
#96=LINE('',#1726,#200);
#97=LINE('',#1728,#201);
#98=LINE('',#1730,#202);
#99=LINE('',#1732,#203);
#100=LINE('',#1751,#204);
#101=LINE('',#1753,#205);
#102=LINE('',#1755,#206);
#103=LINE('',#1757,#207);
#104=LINE('',#1759,#208);
#105=LINE('',#1761,#209);
#106=LINE('',#1763,#210);
#107=LINE('',#1765,#211);
#108=LINE('',#1767,#212);
#109=LINE('',#1769,#213);
#110=LINE('',#1771,#214);
#111=LINE('',#1773,#215);
#112=LINE('',#1776,#216);
#113=LINE('',#1778,#217);
#114=LINE('',#1780,#218);
#115=LINE('',#1782,#219);
#116=LINE('',#1784,#220);
#117=LINE('',#1786,#221);
#118=LINE('',#1788,#222);
#119=LINE('',#1790,#223);
#120=LINE('',#1792,#224);
#121=LINE('',#1794,#225);
#122=LINE('',#1796,#226);
#123=LINE('',#1798,#227);
#124=VECTOR('',#1218,1.);
#125=VECTOR('',#1221,1.);
#126=VECTOR('',#1224,1.);
#127=VECTOR('',#1227,1.);
#128=VECTOR('',#1242,1.);
#129=VECTOR('',#1243,1.);
#130=VECTOR('',#1244,1.);
#131=VECTOR('',#1245,1.);
#132=VECTOR('',#1246,1.);
#133=VECTOR('',#1249,1.);
#134=VECTOR('',#1252,1.);
#135=VECTOR('',#1253,1.);
#136=VECTOR('',#1256,1.);
#137=VECTOR('',#1259,1.);
#138=VECTOR('',#1262,1.);
#139=VECTOR('',#1265,1.);
#140=VECTOR('',#1268,1.);
#141=VECTOR('',#1269,1.);
#142=VECTOR('',#1270,1.);
#143=VECTOR('',#1273,1.);
#144=VECTOR('',#1274,1.);
#145=VECTOR('',#1275,1.);
#146=VECTOR('',#1278,1.);
#147=VECTOR('',#1279,1.);
#148=VECTOR('',#1284,1.);
#149=VECTOR('',#1287,1.);
#150=VECTOR('',#1288,1.);
#151=VECTOR('',#1293,1.);
#152=VECTOR('',#1296,1.);
#153=VECTOR('',#1297,1.);
#154=VECTOR('',#1312,1.);
#155=VECTOR('',#1313,1.);
#156=VECTOR('',#1324,1.);
#157=VECTOR('',#1325,1.);
#158=VECTOR('',#1326,1.);
#159=VECTOR('',#1327,1.);
#160=VECTOR('',#1328,1.);
#161=VECTOR('',#1329,1.);
#162=VECTOR('',#1330,1.);
#163=VECTOR('',#1331,1.);
#164=VECTOR('',#1332,1.);
#165=VECTOR('',#1333,1.);
#166=VECTOR('',#1334,1.);
#167=VECTOR('',#1335,1.);
#168=VECTOR('',#1336,1.);
#169=VECTOR('',#1337,1.);
#170=VECTOR('',#1338,1.);
#171=VECTOR('',#1339,1.);
#172=VECTOR('',#1340,1.);
#173=VECTOR('',#1341,1.);
#174=VECTOR('',#1344,1.);
#175=VECTOR('',#1345,1.);
#176=VECTOR('',#1346,1.);
#177=VECTOR('',#1349,1.);
#178=VECTOR('',#1350,1.);
#179=VECTOR('',#1357,1.);
#180=VECTOR('',#1358,1.);
#181=VECTOR('',#1359,1.);
#182=VECTOR('',#1362,1.);
#183=VECTOR('',#1363,1.);
#184=VECTOR('',#1370,1.);
#185=VECTOR('',#1371,1.);
#186=VECTOR('',#1372,1.);
#187=VECTOR('',#1373,1.);
#188=VECTOR('',#1376,1.);
#189=VECTOR('',#1381,1.);
#190=VECTOR('',#1382,1.);
#191=VECTOR('',#1385,1.);
#192=VECTOR('',#1390,1.);
#193=VECTOR('',#1391,1.);
#194=VECTOR('',#1394,1.);
#195=VECTOR('',#1399,1.);
#196=VECTOR('',#1400,1.);
#197=VECTOR('',#1401,1.);
#198=VECTOR('',#1406,1.);
#199=VECTOR('',#1409,1.);
#200=VECTOR('',#1412,1.);
#201=VECTOR('',#1413,1.);
#202=VECTOR('',#1416,1.);
#203=VECTOR('',#1417,1.);
#204=VECTOR('',#1446,1.);
#205=VECTOR('',#1447,1.);
#206=VECTOR('',#1448,1.);
#207=VECTOR('',#1451,1.);
#208=VECTOR('',#1452,1.);
#209=VECTOR('',#1455,1.);
#210=VECTOR('',#1456,1.);
#211=VECTOR('',#1459,1.);
#212=VECTOR('',#1460,1.);
#213=VECTOR('',#1463,1.);
#214=VECTOR('',#1464,1.);
#215=VECTOR('',#1467,1.);
#216=VECTOR('',#1472,1.);
#217=VECTOR('',#1473,1.);
#218=VECTOR('',#1474,1.);
#219=VECTOR('',#1477,1.);
#220=VECTOR('',#1478,1.);
#221=VECTOR('',#1481,1.);
#222=VECTOR('',#1482,1.);
#223=VECTOR('',#1485,1.);
#224=VECTOR('',#1486,1.);
#225=VECTOR('',#1489,1.);
#226=VECTOR('',#1490,1.);
#227=VECTOR('',#1493,1.);
#228=PLANE('',#1109);
#229=PLANE('',#1114);
#230=PLANE('',#1127);
#231=PLANE('',#1128);
#232=PLANE('',#1129);
#233=PLANE('',#1132);
#234=PLANE('',#1135);
#235=PLANE('',#1142);
#236=PLANE('',#1145);
#237=PLANE('',#1148);
#238=PLANE('',#1149);
#239=PLANE('',#1150);
#240=PLANE('',#1151);
#241=PLANE('',#1152);
#242=PLANE('',#1153);
#243=PLANE('',#1154);
#244=PLANE('',#1155);
#245=PLANE('',#1156);
#246=PLANE('',#1159);
#247=PLANE('',#1162);
#248=PLANE('',#1165);
#249=PLANE('',#1169);
#250=PLANE('',#1170);
#251=PLANE('',#1171);
#252=PLANE('',#1176);
#253=PLANE('',#1179);
#254=PLANE('',#1184);
#255=PLANE('',#1185);
#256=PLANE('',#1186);
#257=PLANE('',#1187);
#258=PLANE('',#1188);
#259=PLANE('',#1189);
#260=PLANE('',#1190);
#261=PLANE('',#1191);
#262=PLANE('',#1192);
#263=PLANE('',#1193);
#264=PLANE('',#1194);
#265=PLANE('',#1195);
#266=PLANE('',#1196);
#267=PLANE('',#1197);
#268=ORIENTED_EDGE('',*,*,#552,.T.);
#269=ORIENTED_EDGE('',*,*,#553,.T.);
#270=ORIENTED_EDGE('',*,*,#554,.T.);
#271=ORIENTED_EDGE('',*,*,#555,.T.);
#272=ORIENTED_EDGE('',*,*,#552,.F.);
#273=ORIENTED_EDGE('',*,*,#556,.T.);
#274=ORIENTED_EDGE('',*,*,#557,.T.);
#275=ORIENTED_EDGE('',*,*,#558,.T.);
#276=ORIENTED_EDGE('',*,*,#559,.T.);
#277=ORIENTED_EDGE('',*,*,#560,.F.);
#278=ORIENTED_EDGE('',*,*,#561,.F.);
#279=ORIENTED_EDGE('',*,*,#562,.T.);
#280=ORIENTED_EDGE('',*,*,#563,.F.);
#281=ORIENTED_EDGE('',*,*,#564,.F.);
#282=ORIENTED_EDGE('',*,*,#565,.F.);
#283=ORIENTED_EDGE('',*,*,#566,.F.);
#284=ORIENTED_EDGE('',*,*,#567,.F.);
#285=ORIENTED_EDGE('',*,*,#568,.F.);
#286=ORIENTED_EDGE('',*,*,#569,.F.);
#287=ORIENTED_EDGE('',*,*,#570,.F.);
#288=ORIENTED_EDGE('',*,*,#571,.T.);
#289=ORIENTED_EDGE('',*,*,#572,.F.);
#290=ORIENTED_EDGE('',*,*,#573,.F.);
#291=ORIENTED_EDGE('',*,*,#574,.F.);
#292=ORIENTED_EDGE('',*,*,#575,.T.);
#293=ORIENTED_EDGE('',*,*,#576,.F.);
#294=ORIENTED_EDGE('',*,*,#577,.F.);
#295=ORIENTED_EDGE('',*,*,#578,.T.);
#296=ORIENTED_EDGE('',*,*,#579,.F.);
#297=ORIENTED_EDGE('',*,*,#580,.T.);
#298=ORIENTED_EDGE('',*,*,#581,.T.);
#299=ORIENTED_EDGE('',*,*,#582,.T.);
#300=ORIENTED_EDGE('',*,*,#583,.F.);
#301=ORIENTED_EDGE('',*,*,#584,.T.);
#302=ORIENTED_EDGE('',*,*,#585,.F.);
#303=ORIENTED_EDGE('',*,*,#586,.T.);
#304=ORIENTED_EDGE('',*,*,#587,.T.);
#305=ORIENTED_EDGE('',*,*,#588,.T.);
#306=ORIENTED_EDGE('',*,*,#589,.F.);
#307=ORIENTED_EDGE('',*,*,#571,.F.);
#308=ORIENTED_EDGE('',*,*,#590,.T.);
#309=ORIENTED_EDGE('',*,*,#591,.F.);
#310=ORIENTED_EDGE('',*,*,#592,.F.);
#311=ORIENTED_EDGE('',*,*,#573,.T.);
#312=ORIENTED_EDGE('',*,*,#593,.T.);
#313=ORIENTED_EDGE('',*,*,#594,.F.);
#314=ORIENTED_EDGE('',*,*,#595,.F.);
#315=ORIENTED_EDGE('',*,*,#574,.T.);
#316=ORIENTED_EDGE('',*,*,#592,.T.);
#317=ORIENTED_EDGE('',*,*,#596,.T.);
#318=ORIENTED_EDGE('',*,*,#597,.F.);
#319=ORIENTED_EDGE('',*,*,#575,.F.);
#320=ORIENTED_EDGE('',*,*,#595,.T.);
#321=ORIENTED_EDGE('',*,*,#598,.F.);
#322=ORIENTED_EDGE('',*,*,#599,.F.);
#323=ORIENTED_EDGE('',*,*,#576,.T.);
#324=ORIENTED_EDGE('',*,*,#597,.T.);
#325=ORIENTED_EDGE('',*,*,#600,.F.);
#326=ORIENTED_EDGE('',*,*,#601,.F.);
#327=ORIENTED_EDGE('',*,*,#577,.T.);
#328=ORIENTED_EDGE('',*,*,#599,.T.);
#329=ORIENTED_EDGE('',*,*,#602,.T.);
#330=ORIENTED_EDGE('',*,*,#603,.F.);
#331=ORIENTED_EDGE('',*,*,#578,.F.);
#332=ORIENTED_EDGE('',*,*,#601,.T.);
#333=ORIENTED_EDGE('',*,*,#567,.T.);
#334=ORIENTED_EDGE('',*,*,#604,.F.);
#335=ORIENTED_EDGE('',*,*,#568,.T.);
#336=ORIENTED_EDGE('',*,*,#605,.F.);
#337=ORIENTED_EDGE('',*,*,#569,.T.);
#338=ORIENTED_EDGE('',*,*,#606,.F.);
#339=ORIENTED_EDGE('',*,*,#607,.F.);
#340=ORIENTED_EDGE('',*,*,#608,.F.);
#341=ORIENTED_EDGE('',*,*,#579,.T.);
#342=ORIENTED_EDGE('',*,*,#603,.T.);
#343=ORIENTED_EDGE('',*,*,#566,.T.);
#344=ORIENTED_EDGE('',*,*,#609,.F.);
#345=ORIENTED_EDGE('',*,*,#610,.F.);
#346=ORIENTED_EDGE('',*,*,#611,.F.);
#347=ORIENTED_EDGE('',*,*,#612,.F.);
#348=ORIENTED_EDGE('',*,*,#613,.F.);
#349=ORIENTED_EDGE('',*,*,#614,.F.);
#350=ORIENTED_EDGE('',*,*,#615,.F.);
#351=ORIENTED_EDGE('',*,*,#616,.F.);
#352=ORIENTED_EDGE('',*,*,#617,.F.);
#353=ORIENTED_EDGE('',*,*,#618,.F.);
#354=ORIENTED_EDGE('',*,*,#619,.F.);
#355=ORIENTED_EDGE('',*,*,#620,.F.);
#356=ORIENTED_EDGE('',*,*,#621,.F.);
#357=ORIENTED_EDGE('',*,*,#622,.F.);
#358=ORIENTED_EDGE('',*,*,#623,.F.);
#359=ORIENTED_EDGE('',*,*,#624,.T.);
#360=ORIENTED_EDGE('',*,*,#607,.T.);
#361=ORIENTED_EDGE('',*,*,#602,.F.);
#362=ORIENTED_EDGE('',*,*,#600,.T.);
#363=ORIENTED_EDGE('',*,*,#598,.T.);
#364=ORIENTED_EDGE('',*,*,#596,.F.);
#365=ORIENTED_EDGE('',*,*,#594,.T.);
#366=ORIENTED_EDGE('',*,*,#591,.T.);
#367=ORIENTED_EDGE('',*,*,#625,.F.);
#368=ORIENTED_EDGE('',*,*,#626,.T.);
#369=ORIENTED_EDGE('',*,*,#627,.T.);
#370=ORIENTED_EDGE('',*,*,#588,.F.);
#371=ORIENTED_EDGE('',*,*,#628,.F.);
#372=ORIENTED_EDGE('',*,*,#629,.T.);
#373=ORIENTED_EDGE('',*,*,#606,.T.);
#374=ORIENTED_EDGE('',*,*,#605,.T.);
#375=ORIENTED_EDGE('',*,*,#604,.T.);
#376=ORIENTED_EDGE('',*,*,#609,.T.);
#377=ORIENTED_EDGE('',*,*,#626,.F.);
#378=ORIENTED_EDGE('',*,*,#630,.T.);
#379=ORIENTED_EDGE('',*,*,#631,.T.);
#380=ORIENTED_EDGE('',*,*,#632,.T.);
#381=ORIENTED_EDGE('',*,*,#631,.F.);
#382=ORIENTED_EDGE('',*,*,#633,.T.);
#383=ORIENTED_EDGE('',*,*,#572,.T.);
#384=ORIENTED_EDGE('',*,*,#634,.F.);
#385=ORIENTED_EDGE('',*,*,#634,.T.);
#386=ORIENTED_EDGE('',*,*,#589,.T.);
#387=ORIENTED_EDGE('',*,*,#627,.F.);
#388=ORIENTED_EDGE('',*,*,#632,.F.);
#389=ORIENTED_EDGE('',*,*,#625,.T.);
#390=ORIENTED_EDGE('',*,*,#593,.F.);
#391=ORIENTED_EDGE('',*,*,#633,.F.);
#392=ORIENTED_EDGE('',*,*,#630,.F.);
#393=ORIENTED_EDGE('',*,*,#629,.F.);
#394=ORIENTED_EDGE('',*,*,#635,.T.);
#395=ORIENTED_EDGE('',*,*,#636,.T.);
#396=ORIENTED_EDGE('',*,*,#637,.T.);
#397=ORIENTED_EDGE('',*,*,#636,.F.);
#398=ORIENTED_EDGE('',*,*,#638,.T.);
#399=ORIENTED_EDGE('',*,*,#570,.T.);
#400=ORIENTED_EDGE('',*,*,#639,.F.);
#401=ORIENTED_EDGE('',*,*,#639,.T.);
#402=ORIENTED_EDGE('',*,*,#608,.T.);
#403=ORIENTED_EDGE('',*,*,#624,.F.);
#404=ORIENTED_EDGE('',*,*,#637,.F.);
#405=ORIENTED_EDGE('',*,*,#628,.T.);
#406=ORIENTED_EDGE('',*,*,#590,.F.);
#407=ORIENTED_EDGE('',*,*,#638,.F.);
#408=ORIENTED_EDGE('',*,*,#635,.F.);
#409=ORIENTED_EDGE('',*,*,#640,.T.);
#410=ORIENTED_EDGE('',*,*,#641,.T.);
#411=ORIENTED_EDGE('',*,*,#561,.T.);
#412=ORIENTED_EDGE('',*,*,#642,.T.);
#413=ORIENTED_EDGE('',*,*,#581,.F.);
#414=ORIENTED_EDGE('',*,*,#643,.F.);
#415=ORIENTED_EDGE('',*,*,#580,.F.);
#416=ORIENTED_EDGE('',*,*,#644,.F.);
#417=ORIENTED_EDGE('',*,*,#645,.T.);
#418=ORIENTED_EDGE('',*,*,#643,.T.);
#419=ORIENTED_EDGE('',*,*,#587,.F.);
#420=ORIENTED_EDGE('',*,*,#646,.F.);
#421=ORIENTED_EDGE('',*,*,#647,.T.);
#422=ORIENTED_EDGE('',*,*,#644,.T.);
#423=ORIENTED_EDGE('',*,*,#586,.F.);
#424=ORIENTED_EDGE('',*,*,#648,.F.);
#425=ORIENTED_EDGE('',*,*,#649,.T.);
#426=ORIENTED_EDGE('',*,*,#646,.T.);
#427=ORIENTED_EDGE('',*,*,#585,.T.);
#428=ORIENTED_EDGE('',*,*,#650,.F.);
#429=ORIENTED_EDGE('',*,*,#651,.F.);
#430=ORIENTED_EDGE('',*,*,#648,.T.);
#431=ORIENTED_EDGE('',*,*,#584,.F.);
#432=ORIENTED_EDGE('',*,*,#652,.F.);
#433=ORIENTED_EDGE('',*,*,#653,.T.);
#434=ORIENTED_EDGE('',*,*,#650,.T.);
#435=ORIENTED_EDGE('',*,*,#559,.F.);
#436=ORIENTED_EDGE('',*,*,#654,.T.);
#437=ORIENTED_EDGE('',*,*,#655,.F.);
#438=ORIENTED_EDGE('',*,*,#652,.T.);
#439=ORIENTED_EDGE('',*,*,#583,.T.);
#440=ORIENTED_EDGE('',*,*,#656,.F.);
#441=ORIENTED_EDGE('',*,*,#582,.F.);
#442=ORIENTED_EDGE('',*,*,#642,.F.);
#443=ORIENTED_EDGE('',*,*,#560,.T.);
#444=ORIENTED_EDGE('',*,*,#656,.T.);
#445=ORIENTED_EDGE('',*,*,#556,.F.);
#446=ORIENTED_EDGE('',*,*,#657,.F.);
#447=ORIENTED_EDGE('',*,*,#658,.T.);
#448=ORIENTED_EDGE('',*,*,#659,.T.);
#449=ORIENTED_EDGE('',*,*,#563,.T.);
#450=ORIENTED_EDGE('',*,*,#660,.T.);
#451=ORIENTED_EDGE('',*,*,#661,.F.);
#452=ORIENTED_EDGE('',*,*,#657,.T.);
#453=ORIENTED_EDGE('',*,*,#662,.T.);
#454=ORIENTED_EDGE('',*,*,#663,.T.);
#455=ORIENTED_EDGE('',*,*,#557,.F.);
#456=ORIENTED_EDGE('',*,*,#659,.F.);
#457=ORIENTED_EDGE('',*,*,#661,.T.);
#458=ORIENTED_EDGE('',*,*,#664,.T.);
#459=ORIENTED_EDGE('',*,*,#640,.F.);
#460=ORIENTED_EDGE('',*,*,#645,.F.);
#461=ORIENTED_EDGE('',*,*,#647,.F.);
#462=ORIENTED_EDGE('',*,*,#649,.F.);
#463=ORIENTED_EDGE('',*,*,#651,.T.);
#464=ORIENTED_EDGE('',*,*,#653,.F.);
#465=ORIENTED_EDGE('',*,*,#655,.T.);
#466=ORIENTED_EDGE('',*,*,#665,.T.);
#467=ORIENTED_EDGE('',*,*,#662,.F.);
#468=ORIENTED_EDGE('',*,*,#658,.F.);
#469=ORIENTED_EDGE('',*,*,#666,.F.);
#470=ORIENTED_EDGE('',*,*,#667,.F.);
#471=ORIENTED_EDGE('',*,*,#554,.F.);
#472=ORIENTED_EDGE('',*,*,#668,.T.);
#473=ORIENTED_EDGE('',*,*,#668,.F.);
#474=ORIENTED_EDGE('',*,*,#666,.T.);
#475=ORIENTED_EDGE('',*,*,#669,.T.);
#476=ORIENTED_EDGE('',*,*,#669,.F.);
#477=ORIENTED_EDGE('',*,*,#667,.T.);
#478=ORIENTED_EDGE('',*,*,#664,.F.);
#479=ORIENTED_EDGE('',*,*,#660,.F.);
#480=ORIENTED_EDGE('',*,*,#562,.F.);
#481=ORIENTED_EDGE('',*,*,#641,.F.);
#482=ORIENTED_EDGE('',*,*,#665,.F.);
#483=ORIENTED_EDGE('',*,*,#654,.F.);
#484=ORIENTED_EDGE('',*,*,#558,.F.);
#485=ORIENTED_EDGE('',*,*,#663,.F.);
#486=ORIENTED_EDGE('',*,*,#613,.T.);
#487=ORIENTED_EDGE('',*,*,#670,.F.);
#488=ORIENTED_EDGE('',*,*,#671,.F.);
#489=ORIENTED_EDGE('',*,*,#672,.T.);
#490=ORIENTED_EDGE('',*,*,#612,.T.);
#491=ORIENTED_EDGE('',*,*,#673,.F.);
#492=ORIENTED_EDGE('',*,*,#674,.F.);
#493=ORIENTED_EDGE('',*,*,#670,.T.);
#494=ORIENTED_EDGE('',*,*,#617,.T.);
#495=ORIENTED_EDGE('',*,*,#675,.F.);
#496=ORIENTED_EDGE('',*,*,#676,.F.);
#497=ORIENTED_EDGE('',*,*,#673,.T.);
#498=ORIENTED_EDGE('',*,*,#616,.T.);
#499=ORIENTED_EDGE('',*,*,#677,.F.);
#500=ORIENTED_EDGE('',*,*,#678,.F.);
#501=ORIENTED_EDGE('',*,*,#675,.T.);
#502=ORIENTED_EDGE('',*,*,#615,.T.);
#503=ORIENTED_EDGE('',*,*,#679,.F.);
#504=ORIENTED_EDGE('',*,*,#680,.F.);
#505=ORIENTED_EDGE('',*,*,#677,.T.);
#506=ORIENTED_EDGE('',*,*,#614,.T.);
#507=ORIENTED_EDGE('',*,*,#672,.F.);
#508=ORIENTED_EDGE('',*,*,#681,.F.);
#509=ORIENTED_EDGE('',*,*,#679,.T.);
#510=ORIENTED_EDGE('',*,*,#555,.F.);
#511=ORIENTED_EDGE('',*,*,#671,.T.);
#512=ORIENTED_EDGE('',*,*,#674,.T.);
#513=ORIENTED_EDGE('',*,*,#676,.T.);
#514=ORIENTED_EDGE('',*,*,#678,.T.);
#515=ORIENTED_EDGE('',*,*,#680,.T.);
#516=ORIENTED_EDGE('',*,*,#681,.T.);
#517=ORIENTED_EDGE('',*,*,#619,.T.);
#518=ORIENTED_EDGE('',*,*,#682,.F.);
#519=ORIENTED_EDGE('',*,*,#683,.F.);
#520=ORIENTED_EDGE('',*,*,#684,.T.);
#521=ORIENTED_EDGE('',*,*,#618,.T.);
#522=ORIENTED_EDGE('',*,*,#685,.F.);
#523=ORIENTED_EDGE('',*,*,#686,.F.);
#524=ORIENTED_EDGE('',*,*,#682,.T.);
#525=ORIENTED_EDGE('',*,*,#623,.T.);
#526=ORIENTED_EDGE('',*,*,#687,.F.);
#527=ORIENTED_EDGE('',*,*,#688,.F.);
#528=ORIENTED_EDGE('',*,*,#685,.T.);
#529=ORIENTED_EDGE('',*,*,#622,.T.);
#530=ORIENTED_EDGE('',*,*,#689,.F.);
#531=ORIENTED_EDGE('',*,*,#690,.F.);
#532=ORIENTED_EDGE('',*,*,#687,.T.);
#533=ORIENTED_EDGE('',*,*,#621,.T.);
#534=ORIENTED_EDGE('',*,*,#691,.F.);
#535=ORIENTED_EDGE('',*,*,#692,.F.);
#536=ORIENTED_EDGE('',*,*,#689,.T.);
#537=ORIENTED_EDGE('',*,*,#620,.T.);
#538=ORIENTED_EDGE('',*,*,#684,.F.);
#539=ORIENTED_EDGE('',*,*,#693,.F.);
#540=ORIENTED_EDGE('',*,*,#691,.T.);
#541=ORIENTED_EDGE('',*,*,#553,.F.);
#542=ORIENTED_EDGE('',*,*,#683,.T.);
#543=ORIENTED_EDGE('',*,*,#686,.T.);
#544=ORIENTED_EDGE('',*,*,#688,.T.);
#545=ORIENTED_EDGE('',*,*,#690,.T.);
#546=ORIENTED_EDGE('',*,*,#692,.T.);
#547=ORIENTED_EDGE('',*,*,#693,.T.);
#548=ORIENTED_EDGE('',*,*,#611,.T.);
#549=ORIENTED_EDGE('',*,*,#565,.T.);
#550=ORIENTED_EDGE('',*,*,#610,.T.);
#551=ORIENTED_EDGE('',*,*,#564,.T.);
#552=EDGE_CURVE('',#694,#694,#794,.T.);
#553=EDGE_CURVE('',#695,#695,#795,.F.);
#554=EDGE_CURVE('',#696,#696,#796,.T.);
#555=EDGE_CURVE('',#697,#697,#797,.F.);
#556=EDGE_CURVE('',#698,#699,#798,.T.);
#557=EDGE_CURVE('',#699,#700,#20,.T.);
#558=EDGE_CURVE('',#700,#701,#799,.F.);
#559=EDGE_CURVE('',#701,#702,#21,.T.);
#560=EDGE_CURVE('',#703,#702,#800,.T.);
#561=EDGE_CURVE('',#704,#703,#22,.T.);
#562=EDGE_CURVE('',#704,#705,#801,.F.);
#563=EDGE_CURVE('',#698,#705,#23,.T.);
#564=EDGE_CURVE('',#706,#706,#802,.T.);
#565=EDGE_CURVE('',#707,#707,#803,.T.);
#566=EDGE_CURVE('',#708,#708,#804,.T.);
#567=EDGE_CURVE('',#709,#709,#805,.T.);
#568=EDGE_CURVE('',#710,#710,#806,.T.);
#569=EDGE_CURVE('',#711,#711,#807,.T.);
#570=EDGE_CURVE('',#712,#713,#24,.T.);
#571=EDGE_CURVE('',#712,#714,#25,.T.);
#572=EDGE_CURVE('',#715,#714,#26,.T.);
#573=EDGE_CURVE('',#716,#715,#27,.T.);
#574=EDGE_CURVE('',#717,#716,#28,.T.);
#575=EDGE_CURVE('',#717,#718,#808,.T.);
#576=EDGE_CURVE('',#719,#718,#29,.T.);
#577=EDGE_CURVE('',#720,#719,#809,.T.);
#578=EDGE_CURVE('',#720,#721,#30,.T.);
#579=EDGE_CURVE('',#713,#721,#31,.T.);
#580=EDGE_CURVE('',#722,#723,#810,.T.);
#581=EDGE_CURVE('',#723,#724,#32,.T.);
#582=EDGE_CURVE('',#724,#725,#811,.T.);
#583=EDGE_CURVE('',#726,#725,#33,.T.);
#584=EDGE_CURVE('',#726,#727,#812,.T.);
#585=EDGE_CURVE('',#728,#727,#34,.T.);
#586=EDGE_CURVE('',#728,#729,#813,.T.);
#587=EDGE_CURVE('',#729,#722,#35,.T.);
#588=EDGE_CURVE('',#730,#731,#36,.T.);
#589=EDGE_CURVE('',#714,#731,#37,.T.);
#590=EDGE_CURVE('',#712,#730,#38,.T.);
#591=EDGE_CURVE('',#732,#733,#39,.T.);
#592=EDGE_CURVE('',#716,#732,#40,.T.);
#593=EDGE_CURVE('',#715,#733,#41,.T.);
#594=EDGE_CURVE('',#734,#732,#42,.T.);
#595=EDGE_CURVE('',#717,#734,#43,.T.);
#596=EDGE_CURVE('',#734,#735,#814,.T.);
#597=EDGE_CURVE('',#718,#735,#44,.T.);
#598=EDGE_CURVE('',#736,#735,#45,.T.);
#599=EDGE_CURVE('',#719,#736,#46,.T.);
#600=EDGE_CURVE('',#737,#736,#815,.T.);
#601=EDGE_CURVE('',#720,#737,#47,.T.);
#602=EDGE_CURVE('',#737,#738,#48,.T.);
#603=EDGE_CURVE('',#721,#738,#49,.T.);
#604=EDGE_CURVE('',#739,#739,#816,.T.);
#605=EDGE_CURVE('',#740,#740,#817,.T.);
#606=EDGE_CURVE('',#741,#741,#818,.T.);
#607=EDGE_CURVE('',#742,#738,#50,.T.);
#608=EDGE_CURVE('',#713,#742,#51,.T.);
#609=EDGE_CURVE('',#743,#743,#819,.T.);
#610=EDGE_CURVE('',#744,#744,#820,.F.);
#611=EDGE_CURVE('',#745,#745,#821,.F.);
#612=EDGE_CURVE('',#746,#747,#52,.T.);
#613=EDGE_CURVE('',#748,#746,#53,.T.);
#614=EDGE_CURVE('',#749,#748,#54,.T.);
#615=EDGE_CURVE('',#750,#749,#55,.T.);
#616=EDGE_CURVE('',#751,#750,#56,.T.);
#617=EDGE_CURVE('',#747,#751,#57,.T.);
#618=EDGE_CURVE('',#752,#753,#58,.T.);
#619=EDGE_CURVE('',#754,#752,#59,.T.);
#620=EDGE_CURVE('',#755,#754,#60,.T.);
#621=EDGE_CURVE('',#756,#755,#61,.T.);
#622=EDGE_CURVE('',#757,#756,#62,.T.);
#623=EDGE_CURVE('',#753,#757,#63,.T.);
#624=EDGE_CURVE('',#758,#742,#64,.T.);
#625=EDGE_CURVE('',#759,#733,#65,.T.);
#626=EDGE_CURVE('',#759,#760,#66,.T.);
#627=EDGE_CURVE('',#760,#731,#67,.T.);
#628=EDGE_CURVE('',#761,#730,#68,.T.);
#629=EDGE_CURVE('',#761,#758,#69,.T.);
#630=EDGE_CURVE('',#759,#762,#70,.T.);
#631=EDGE_CURVE('',#762,#763,#71,.T.);
#632=EDGE_CURVE('',#763,#760,#72,.T.);
#633=EDGE_CURVE('',#762,#715,#73,.T.);
#634=EDGE_CURVE('',#763,#714,#74,.T.);
#635=EDGE_CURVE('',#761,#764,#75,.T.);
#636=EDGE_CURVE('',#764,#765,#76,.T.);
#637=EDGE_CURVE('',#765,#758,#77,.T.);
#638=EDGE_CURVE('',#764,#712,#78,.T.);
#639=EDGE_CURVE('',#765,#713,#79,.T.);
#640=EDGE_CURVE('',#766,#767,#80,.T.);
#641=EDGE_CURVE('',#767,#704,#81,.T.);
#642=EDGE_CURVE('',#703,#724,#82,.T.);
#643=EDGE_CURVE('',#766,#723,#83,.T.);
#644=EDGE_CURVE('',#768,#722,#84,.T.);
#645=EDGE_CURVE('',#768,#766,#822,.T.);
#646=EDGE_CURVE('',#769,#729,#85,.T.);
#647=EDGE_CURVE('',#769,#768,#86,.T.);
#648=EDGE_CURVE('',#770,#728,#87,.T.);
#649=EDGE_CURVE('',#770,#769,#823,.T.);
#650=EDGE_CURVE('',#771,#727,#88,.T.);
#651=EDGE_CURVE('',#770,#771,#89,.T.);
#652=EDGE_CURVE('',#772,#726,#90,.T.);
#653=EDGE_CURVE('',#772,#771,#824,.T.);
#654=EDGE_CURVE('',#701,#773,#91,.F.);
#655=EDGE_CURVE('',#772,#773,#92,.T.);
#656=EDGE_CURVE('',#702,#725,#93,.T.);
#657=EDGE_CURVE('',#774,#698,#94,.T.);
#658=EDGE_CURVE('',#774,#775,#825,.T.);
#659=EDGE_CURVE('',#775,#699,#95,.T.);
#660=EDGE_CURVE('',#705,#776,#96,.F.);
#661=EDGE_CURVE('',#774,#776,#97,.T.);
#662=EDGE_CURVE('',#775,#777,#98,.T.);
#663=EDGE_CURVE('',#777,#700,#99,.T.);
#664=EDGE_CURVE('',#776,#767,#826,.T.);
#665=EDGE_CURVE('',#773,#777,#827,.T.);
#666=EDGE_CURVE('',#778,#778,#828,.T.);
#667=EDGE_CURVE('',#779,#779,#829,.T.);
#668=EDGE_CURVE('',#780,#780,#830,.T.);
#669=EDGE_CURVE('',#781,#781,#831,.T.);
#670=EDGE_CURVE('',#782,#746,#100,.T.);
#671=EDGE_CURVE('',#783,#782,#101,.T.);
#672=EDGE_CURVE('',#783,#748,#102,.T.);
#673=EDGE_CURVE('',#784,#747,#103,.T.);
#674=EDGE_CURVE('',#782,#784,#104,.T.);
#675=EDGE_CURVE('',#785,#751,#105,.T.);
#676=EDGE_CURVE('',#784,#785,#106,.T.);
#677=EDGE_CURVE('',#786,#750,#107,.T.);
#678=EDGE_CURVE('',#785,#786,#108,.T.);
#679=EDGE_CURVE('',#787,#749,#109,.T.);
#680=EDGE_CURVE('',#786,#787,#110,.T.);
#681=EDGE_CURVE('',#787,#783,#111,.T.);
#682=EDGE_CURVE('',#788,#752,#112,.T.);
#683=EDGE_CURVE('',#789,#788,#113,.T.);
#684=EDGE_CURVE('',#789,#754,#114,.T.);
#685=EDGE_CURVE('',#790,#753,#115,.T.);
#686=EDGE_CURVE('',#788,#790,#116,.T.);
#687=EDGE_CURVE('',#791,#757,#117,.T.);
#688=EDGE_CURVE('',#790,#791,#118,.T.);
#689=EDGE_CURVE('',#792,#756,#119,.T.);
#690=EDGE_CURVE('',#791,#792,#120,.T.);
#691=EDGE_CURVE('',#793,#755,#121,.T.);
#692=EDGE_CURVE('',#792,#793,#122,.T.);
#693=EDGE_CURVE('',#793,#789,#123,.T.);
#694=VERTEX_POINT('',#1503);
#695=VERTEX_POINT('',#1505);
#696=VERTEX_POINT('',#1508);
#697=VERTEX_POINT('',#1510);
#698=VERTEX_POINT('',#1513);
#699=VERTEX_POINT('',#1514);
#700=VERTEX_POINT('',#1516);
#701=VERTEX_POINT('',#1518);
#702=VERTEX_POINT('',#1520);
#703=VERTEX_POINT('',#1522);
#704=VERTEX_POINT('',#1524);
#705=VERTEX_POINT('',#1526);
#706=VERTEX_POINT('',#1530);
#707=VERTEX_POINT('',#1532);
#708=VERTEX_POINT('',#1534);
#709=VERTEX_POINT('',#1536);
#710=VERTEX_POINT('',#1538);
#711=VERTEX_POINT('',#1540);
#712=VERTEX_POINT('',#1542);
#713=VERTEX_POINT('',#1543);
#714=VERTEX_POINT('',#1545);
#715=VERTEX_POINT('',#1547);
#716=VERTEX_POINT('',#1549);
#717=VERTEX_POINT('',#1551);
#718=VERTEX_POINT('',#1553);
#719=VERTEX_POINT('',#1555);
#720=VERTEX_POINT('',#1557);
#721=VERTEX_POINT('',#1559);
#722=VERTEX_POINT('',#1562);
#723=VERTEX_POINT('',#1563);
#724=VERTEX_POINT('',#1565);
#725=VERTEX_POINT('',#1567);
#726=VERTEX_POINT('',#1569);
#727=VERTEX_POINT('',#1571);
#728=VERTEX_POINT('',#1573);
#729=VERTEX_POINT('',#1575);
#730=VERTEX_POINT('',#1579);
#731=VERTEX_POINT('',#1580);
#732=VERTEX_POINT('',#1585);
#733=VERTEX_POINT('',#1586);
#734=VERTEX_POINT('',#1591);
#735=VERTEX_POINT('',#1595);
#736=VERTEX_POINT('',#1599);
#737=VERTEX_POINT('',#1603);
#738=VERTEX_POINT('',#1607);
#739=VERTEX_POINT('',#1611);
#740=VERTEX_POINT('',#1614);
#741=VERTEX_POINT('',#1617);
#742=VERTEX_POINT('',#1620);
#743=VERTEX_POINT('',#1624);
#744=VERTEX_POINT('',#1627);
#745=VERTEX_POINT('',#1629);
#746=VERTEX_POINT('',#1631);
#747=VERTEX_POINT('',#1632);
#748=VERTEX_POINT('',#1634);
#749=VERTEX_POINT('',#1636);
#750=VERTEX_POINT('',#1638);
#751=VERTEX_POINT('',#1640);
#752=VERTEX_POINT('',#1643);
#753=VERTEX_POINT('',#1644);
#754=VERTEX_POINT('',#1646);
#755=VERTEX_POINT('',#1648);
#756=VERTEX_POINT('',#1650);
#757=VERTEX_POINT('',#1652);
#758=VERTEX_POINT('',#1655);
#759=VERTEX_POINT('',#1657);
#760=VERTEX_POINT('',#1659);
#761=VERTEX_POINT('',#1662);
#762=VERTEX_POINT('',#1666);
#763=VERTEX_POINT('',#1668);
#764=VERTEX_POINT('',#1677);
#765=VERTEX_POINT('',#1679);
#766=VERTEX_POINT('',#1688);
#767=VERTEX_POINT('',#1689);
#768=VERTEX_POINT('',#1695);
#769=VERTEX_POINT('',#1699);
#770=VERTEX_POINT('',#1703);
#771=VERTEX_POINT('',#1707);
#772=VERTEX_POINT('',#1711);
#773=VERTEX_POINT('',#1715);
#774=VERTEX_POINT('',#1721);
#775=VERTEX_POINT('',#1723);
#776=VERTEX_POINT('',#1727);
#777=VERTEX_POINT('',#1731);
#778=VERTEX_POINT('',#1737);
#779=VERTEX_POINT('',#1739);
#780=VERTEX_POINT('',#1742);
#781=VERTEX_POINT('',#1746);
#782=VERTEX_POINT('',#1752);
#783=VERTEX_POINT('',#1754);
#784=VERTEX_POINT('',#1758);
#785=VERTEX_POINT('',#1762);
#786=VERTEX_POINT('',#1766);
#787=VERTEX_POINT('',#1770);
#788=VERTEX_POINT('',#1777);
#789=VERTEX_POINT('',#1779);
#790=VERTEX_POINT('',#1783);
#791=VERTEX_POINT('',#1787);
#792=VERTEX_POINT('',#1791);
#793=VERTEX_POINT('',#1795);
#794=CIRCLE('',#1104,0.0028);
#795=CIRCLE('',#1105,0.0028);
#796=CIRCLE('',#1107,0.0028);
#797=CIRCLE('',#1108,0.0028);
#798=CIRCLE('',#1110,0.01);
#799=CIRCLE('',#1111,0.001);
#800=CIRCLE('',#1112,0.005);
#801=CIRCLE('',#1113,0.001);
#802=CIRCLE('',#1115,0.0018);
#803=CIRCLE('',#1116,0.0018);
#804=CIRCLE('',#1117,0.0028);
#805=CIRCLE('',#1118,0.0028);
#806=CIRCLE('',#1119,0.0028);
#807=CIRCLE('',#1120,0.0028);
#808=CIRCLE('',#1121,0.017);
#809=CIRCLE('',#1122,0.017);
#810=CIRCLE('',#1123,0.005);
#811=CIRCLE('',#1124,0.005);
#812=CIRCLE('',#1125,0.005);
#813=CIRCLE('',#1126,0.005);
#814=CIRCLE('',#1131,0.017);
#815=CIRCLE('',#1134,0.017);
#816=CIRCLE('',#1137,0.0028);
#817=CIRCLE('',#1139,0.0028);
#818=CIRCLE('',#1141,0.0028);
#819=CIRCLE('',#1144,0.0028);
#820=CIRCLE('',#1146,0.0018);
#821=CIRCLE('',#1147,0.0018);
#822=CIRCLE('',#1158,0.005);
#823=CIRCLE('',#1161,0.005);
#824=CIRCLE('',#1164,0.005);
#825=CIRCLE('',#1168,0.01);
#826=CIRCLE('',#1172,0.001);
#827=CIRCLE('',#1173,0.001);
#828=CIRCLE('',#1174,0.0016);
#829=CIRCLE('',#1175,0.0016);
#830=CIRCLE('',#1177,0.0016);
#831=CIRCLE('',#1180,0.0016);
#832=EDGE_LOOP('',(#268));
#833=EDGE_LOOP('',(#269));
#834=EDGE_LOOP('',(#270));
#835=EDGE_LOOP('',(#271));
#836=EDGE_LOOP('',(#272));
#837=EDGE_LOOP('',(#273,#274,#275,#276,#277,#278,#279,#280));
#838=EDGE_LOOP('',(#281));
#839=EDGE_LOOP('',(#282));
#840=EDGE_LOOP('',(#283));
#841=EDGE_LOOP('',(#284));
#842=EDGE_LOOP('',(#285));
#843=EDGE_LOOP('',(#286));
#844=EDGE_LOOP('',(#287,#288,#289,#290,#291,#292,#293,#294,#295,#296));
#845=EDGE_LOOP('',(#297,#298,#299,#300,#301,#302,#303,#304));
#846=EDGE_LOOP('',(#305,#306,#307,#308));
#847=EDGE_LOOP('',(#309,#310,#311,#312));
#848=EDGE_LOOP('',(#313,#314,#315,#316));
#849=EDGE_LOOP('',(#317,#318,#319,#320));
#850=EDGE_LOOP('',(#321,#322,#323,#324));
#851=EDGE_LOOP('',(#325,#326,#327,#328));
#852=EDGE_LOOP('',(#329,#330,#331,#332));
#853=EDGE_LOOP('',(#333));
#854=EDGE_LOOP('',(#334));
#855=EDGE_LOOP('',(#335));
#856=EDGE_LOOP('',(#336));
#857=EDGE_LOOP('',(#337));
#858=EDGE_LOOP('',(#338));
#859=EDGE_LOOP('',(#339,#340,#341,#342));
#860=EDGE_LOOP('',(#343));
#861=EDGE_LOOP('',(#344));
#862=EDGE_LOOP('',(#345));
#863=EDGE_LOOP('',(#346));
#864=EDGE_LOOP('',(#347,#348,#349,#350,#351,#352));
#865=EDGE_LOOP('',(#353,#354,#355,#356,#357,#358));
#866=EDGE_LOOP('',(#359,#360,#361,#362,#363,#364,#365,#366,#367,#368,#369,
#370,#371,#372));
#867=EDGE_LOOP('',(#373));
#868=EDGE_LOOP('',(#374));
#869=EDGE_LOOP('',(#375));
#870=EDGE_LOOP('',(#376));
#871=EDGE_LOOP('',(#377,#378,#379,#380));
#872=EDGE_LOOP('',(#381,#382,#383,#384));
#873=EDGE_LOOP('',(#385,#386,#387,#388));
#874=EDGE_LOOP('',(#389,#390,#391,#392));
#875=EDGE_LOOP('',(#393,#394,#395,#396));
#876=EDGE_LOOP('',(#397,#398,#399,#400));
#877=EDGE_LOOP('',(#401,#402,#403,#404));
#878=EDGE_LOOP('',(#405,#406,#407,#408));
#879=EDGE_LOOP('',(#409,#410,#411,#412,#413,#414));
#880=EDGE_LOOP('',(#415,#416,#417,#418));
#881=EDGE_LOOP('',(#419,#420,#421,#422));
#882=EDGE_LOOP('',(#423,#424,#425,#426));
#883=EDGE_LOOP('',(#427,#428,#429,#430));
#884=EDGE_LOOP('',(#431,#432,#433,#434));
#885=EDGE_LOOP('',(#435,#436,#437,#438,#439,#440));
#886=EDGE_LOOP('',(#441,#442,#443,#444));
#887=EDGE_LOOP('',(#445,#446,#447,#448));
#888=EDGE_LOOP('',(#449,#450,#451,#452));
#889=EDGE_LOOP('',(#453,#454,#455,#456));
#890=EDGE_LOOP('',(#457,#458,#459,#460,#461,#462,#463,#464,#465,#466,#467,
#468));
#891=EDGE_LOOP('',(#469));
#892=EDGE_LOOP('',(#470));
#893=EDGE_LOOP('',(#471));
#894=EDGE_LOOP('',(#472));
#895=EDGE_LOOP('',(#473));
#896=EDGE_LOOP('',(#474));
#897=EDGE_LOOP('',(#475));
#898=EDGE_LOOP('',(#476));
#899=EDGE_LOOP('',(#477));
#900=EDGE_LOOP('',(#478,#479,#480,#481));
#901=EDGE_LOOP('',(#482,#483,#484,#485));
#902=EDGE_LOOP('',(#486,#487,#488,#489));
#903=EDGE_LOOP('',(#490,#491,#492,#493));
#904=EDGE_LOOP('',(#494,#495,#496,#497));
#905=EDGE_LOOP('',(#498,#499,#500,#501));
#906=EDGE_LOOP('',(#502,#503,#504,#505));
#907=EDGE_LOOP('',(#506,#507,#508,#509));
#908=EDGE_LOOP('',(#510));
#909=EDGE_LOOP('',(#511,#512,#513,#514,#515,#516));
#910=EDGE_LOOP('',(#517,#518,#519,#520));
#911=EDGE_LOOP('',(#521,#522,#523,#524));
#912=EDGE_LOOP('',(#525,#526,#527,#528));
#913=EDGE_LOOP('',(#529,#530,#531,#532));
#914=EDGE_LOOP('',(#533,#534,#535,#536));
#915=EDGE_LOOP('',(#537,#538,#539,#540));
#916=EDGE_LOOP('',(#541));
#917=EDGE_LOOP('',(#542,#543,#544,#545,#546,#547));
#918=EDGE_LOOP('',(#548));
#919=EDGE_LOOP('',(#549));
#920=EDGE_LOOP('',(#550));
#921=EDGE_LOOP('',(#551));
#922=FACE_BOUND('',#832,.T.);
#923=FACE_BOUND('',#833,.T.);
#924=FACE_BOUND('',#834,.T.);
#925=FACE_BOUND('',#835,.T.);
#926=FACE_BOUND('',#836,.T.);
#927=FACE_BOUND('',#837,.T.);
#928=FACE_BOUND('',#838,.T.);
#929=FACE_BOUND('',#839,.T.);
#930=FACE_BOUND('',#840,.T.);
#931=FACE_BOUND('',#841,.T.);
#932=FACE_BOUND('',#842,.T.);
#933=FACE_BOUND('',#843,.T.);
#934=FACE_BOUND('',#844,.T.);
#935=FACE_BOUND('',#845,.T.);
#936=FACE_BOUND('',#846,.T.);
#937=FACE_BOUND('',#847,.T.);
#938=FACE_BOUND('',#848,.T.);
#939=FACE_BOUND('',#849,.T.);
#940=FACE_BOUND('',#850,.T.);
#941=FACE_BOUND('',#851,.T.);
#942=FACE_BOUND('',#852,.T.);
#943=FACE_BOUND('',#853,.T.);
#944=FACE_BOUND('',#854,.T.);
#945=FACE_BOUND('',#855,.T.);
#946=FACE_BOUND('',#856,.T.);
#947=FACE_BOUND('',#857,.T.);
#948=FACE_BOUND('',#858,.T.);
#949=FACE_BOUND('',#859,.T.);
#950=FACE_BOUND('',#860,.T.);
#951=FACE_BOUND('',#861,.T.);
#952=FACE_BOUND('',#862,.T.);
#953=FACE_BOUND('',#863,.T.);
#954=FACE_BOUND('',#864,.T.);
#955=FACE_BOUND('',#865,.T.);
#956=FACE_BOUND('',#866,.T.);
#957=FACE_BOUND('',#867,.T.);
#958=FACE_BOUND('',#868,.T.);
#959=FACE_BOUND('',#869,.T.);
#960=FACE_BOUND('',#870,.T.);
#961=FACE_BOUND('',#871,.T.);
#962=FACE_BOUND('',#872,.T.);
#963=FACE_BOUND('',#873,.T.);
#964=FACE_BOUND('',#874,.T.);
#965=FACE_BOUND('',#875,.T.);
#966=FACE_BOUND('',#876,.T.);
#967=FACE_BOUND('',#877,.T.);
#968=FACE_BOUND('',#878,.T.);
#969=FACE_BOUND('',#879,.T.);
#970=FACE_BOUND('',#880,.T.);
#971=FACE_BOUND('',#881,.T.);
#972=FACE_BOUND('',#882,.T.);
#973=FACE_BOUND('',#883,.T.);
#974=FACE_BOUND('',#884,.T.);
#975=FACE_BOUND('',#885,.T.);
#976=FACE_BOUND('',#886,.T.);
#977=FACE_BOUND('',#887,.T.);
#978=FACE_BOUND('',#888,.T.);
#979=FACE_BOUND('',#889,.T.);
#980=FACE_BOUND('',#890,.T.);
#981=FACE_BOUND('',#891,.T.);
#982=FACE_BOUND('',#892,.T.);
#983=FACE_BOUND('',#893,.T.);
#984=FACE_BOUND('',#894,.T.);
#985=FACE_BOUND('',#895,.T.);
#986=FACE_BOUND('',#896,.T.);
#987=FACE_BOUND('',#897,.T.);
#988=FACE_BOUND('',#898,.T.);
#989=FACE_BOUND('',#899,.T.);
#990=FACE_BOUND('',#900,.T.);
#991=FACE_BOUND('',#901,.T.);
#992=FACE_BOUND('',#902,.T.);
#993=FACE_BOUND('',#903,.T.);
#994=FACE_BOUND('',#904,.T.);
#995=FACE_BOUND('',#905,.T.);
#996=FACE_BOUND('',#906,.T.);
#997=FACE_BOUND('',#907,.T.);
#998=FACE_BOUND('',#908,.T.);
#999=FACE_BOUND('',#909,.T.);
#1000=FACE_BOUND('',#910,.T.);
#1001=FACE_BOUND('',#911,.T.);
#1002=FACE_BOUND('',#912,.T.);
#1003=FACE_BOUND('',#913,.T.);
#1004=FACE_BOUND('',#914,.T.);
#1005=FACE_BOUND('',#915,.T.);
#1006=FACE_BOUND('',#916,.T.);
#1007=FACE_BOUND('',#917,.T.);
#1008=FACE_BOUND('',#918,.T.);
#1009=FACE_BOUND('',#919,.T.);
#1010=FACE_BOUND('',#920,.T.);
#1011=FACE_BOUND('',#921,.T.);
#1012=CYLINDRICAL_SURFACE('',#1103,0.0028);
#1013=CYLINDRICAL_SURFACE('',#1106,0.0028);
#1014=CYLINDRICAL_SURFACE('',#1130,0.017);
#1015=CYLINDRICAL_SURFACE('',#1133,0.017);
#1016=CYLINDRICAL_SURFACE('',#1136,0.0028);
#1017=CYLINDRICAL_SURFACE('',#1138,0.0028);
#1018=CYLINDRICAL_SURFACE('',#1140,0.0028);
#1019=CYLINDRICAL_SURFACE('',#1143,0.0028);
#1020=CYLINDRICAL_SURFACE('',#1157,0.005);
#1021=CYLINDRICAL_SURFACE('',#1160,0.005);
#1022=CYLINDRICAL_SURFACE('',#1163,0.005);
#1023=CYLINDRICAL_SURFACE('',#1166,0.005);
#1024=CYLINDRICAL_SURFACE('',#1167,0.01);
#1025=CYLINDRICAL_SURFACE('',#1178,0.0016);
#1026=CYLINDRICAL_SURFACE('',#1181,0.0016);
#1027=CYLINDRICAL_SURFACE('',#1182,0.001);
#1028=CYLINDRICAL_SURFACE('',#1183,0.001);
#1029=CYLINDRICAL_SURFACE('',#1198,0.0018);
#1030=CYLINDRICAL_SURFACE('',#1199,0.0018);
#1031=ADVANCED_FACE('',(#922,#923),#1012,.F.);
#1032=ADVANCED_FACE('',(#924,#925),#1013,.F.);
#1033=ADVANCED_FACE('',(#926,#927),#228,.T.);
#1034=ADVANCED_FACE('',(#928,#929,#930,#931,#932,#933,#934,#935),#229,.T.);
#1035=ADVANCED_FACE('',(#936),#230,.F.);
#1036=ADVANCED_FACE('',(#937),#231,.T.);
#1037=ADVANCED_FACE('',(#938),#232,.T.);
#1038=ADVANCED_FACE('',(#939),#1014,.T.);
#1039=ADVANCED_FACE('',(#940),#233,.T.);
#1040=ADVANCED_FACE('',(#941),#1015,.T.);
#1041=ADVANCED_FACE('',(#942),#234,.F.);
#1042=ADVANCED_FACE('',(#943,#944),#1016,.F.);
#1043=ADVANCED_FACE('',(#945,#946),#1017,.F.);
#1044=ADVANCED_FACE('',(#947,#948),#1018,.F.);
#1045=ADVANCED_FACE('',(#949),#235,.T.);
#1046=ADVANCED_FACE('',(#950,#951),#1019,.F.);
#1047=ADVANCED_FACE('',(#952,#953,#954,#955,#956,#957,#958,#959,#960),#236,
 .F.);
#1048=ADVANCED_FACE('',(#961),#237,.T.);
#1049=ADVANCED_FACE('',(#962),#238,.F.);
#1050=ADVANCED_FACE('',(#963),#239,.F.);
#1051=ADVANCED_FACE('',(#964),#240,.F.);
#1052=ADVANCED_FACE('',(#965),#241,.T.);
#1053=ADVANCED_FACE('',(#966),#242,.F.);
#1054=ADVANCED_FACE('',(#967),#243,.F.);
#1055=ADVANCED_FACE('',(#968),#244,.F.);
#1056=ADVANCED_FACE('',(#969),#245,.T.);
#1057=ADVANCED_FACE('',(#970),#1020,.T.);
#1058=ADVANCED_FACE('',(#971),#246,.T.);
#1059=ADVANCED_FACE('',(#972),#1021,.T.);
#1060=ADVANCED_FACE('',(#973),#247,.F.);
#1061=ADVANCED_FACE('',(#974),#1022,.T.);
#1062=ADVANCED_FACE('',(#975),#248,.F.);
#1063=ADVANCED_FACE('',(#976),#1023,.T.);
#1064=ADVANCED_FACE('',(#977),#1024,.F.);
#1065=ADVANCED_FACE('',(#978),#249,.F.);
#1066=ADVANCED_FACE('',(#979),#250,.T.);
#1067=ADVANCED_FACE('',(#980,#981,#982,#983),#251,.T.);
#1068=ADVANCED_FACE('',(#984),#252,.T.);
#1069=ADVANCED_FACE('',(#985,#986),#1025,.F.);
#1070=ADVANCED_FACE('',(#987),#253,.T.);
#1071=ADVANCED_FACE('',(#988,#989),#1026,.F.);
#1072=ADVANCED_FACE('',(#990),#1027,.T.);
#1073=ADVANCED_FACE('',(#991),#1028,.T.);
#1074=ADVANCED_FACE('',(#992),#254,.F.);
#1075=ADVANCED_FACE('',(#993),#255,.F.);
#1076=ADVANCED_FACE('',(#994),#256,.F.);
#1077=ADVANCED_FACE('',(#995),#257,.F.);
#1078=ADVANCED_FACE('',(#996),#258,.F.);
#1079=ADVANCED_FACE('',(#997),#259,.F.);
#1080=ADVANCED_FACE('',(#998,#999),#260,.T.);
#1081=ADVANCED_FACE('',(#1000),#261,.F.);
#1082=ADVANCED_FACE('',(#1001),#262,.F.);
#1083=ADVANCED_FACE('',(#1002),#263,.F.);
#1084=ADVANCED_FACE('',(#1003),#264,.F.);
#1085=ADVANCED_FACE('',(#1004),#265,.F.);
#1086=ADVANCED_FACE('',(#1005),#266,.F.);
#1087=ADVANCED_FACE('',(#1006,#1007),#267,.T.);
#1088=ADVANCED_FACE('',(#1008,#1009),#1029,.F.);
#1089=ADVANCED_FACE('',(#1010,#1011),#1030,.F.);
#1090=CLOSED_SHELL('',(#1031,#1032,#1033,#1034,#1035,#1036,#1037,#1038,
#1039,#1040,#1041,#1042,#1043,#1044,#1045,#1046,#1047,#1048,#1049,#1050,
#1051,#1052,#1053,#1054,#1055,#1056,#1057,#1058,#1059,#1060,#1061,#1062,
#1063,#1064,#1065,#1066,#1067,#1068,#1069,#1070,#1071,#1072,#1073,#1074,
#1075,#1076,#1077,#1078,#1079,#1080,#1081,#1082,#1083,#1084,#1085,#1086,
#1087,#1088,#1089));
#1091=STYLED_ITEM('',(#1092),#1099);
#1092=PRESENTATION_STYLE_ASSIGNMENT((#1093));
#1093=SURFACE_STYLE_USAGE(.BOTH.,#1094);
#1094=SURFACE_SIDE_STYLE('',(#1095));
#1095=SURFACE_STYLE_FILL_AREA(#1096);
#1096=FILL_AREA_STYLE('',(#1097));
#1097=FILL_AREA_STYLE_COLOUR('',#1098);
#1098=COLOUR_RGB('',0.615686274509804,0.811764705882353,0.929411764705882);
#1099=MANIFOLD_SOLID_BREP('Left Upper Cart Plate',#1090);
#1100=SHAPE_DEFINITION_REPRESENTATION(#1808,#1101);
#1101=SHAPE_REPRESENTATION('Left Upper Cart Plate',(#1102),#1803);
#1102=AXIS2_PLACEMENT_3D('',#1500,#1200,#1201);
#1103=AXIS2_PLACEMENT_3D('',#1501,#1202,#1203);
#1104=AXIS2_PLACEMENT_3D('',#1502,#1204,#1205);
#1105=AXIS2_PLACEMENT_3D('',#1504,#1206,#1207);
#1106=AXIS2_PLACEMENT_3D('',#1506,#1208,#1209);
#1107=AXIS2_PLACEMENT_3D('',#1507,#1210,#1211);
#1108=AXIS2_PLACEMENT_3D('',#1509,#1212,#1213);
#1109=AXIS2_PLACEMENT_3D('',#1511,#1214,#1215);
#1110=AXIS2_PLACEMENT_3D('',#1512,#1216,#1217);
#1111=AXIS2_PLACEMENT_3D('',#1517,#1219,#1220);
#1112=AXIS2_PLACEMENT_3D('',#1521,#1222,#1223);
#1113=AXIS2_PLACEMENT_3D('',#1525,#1225,#1226);
#1114=AXIS2_PLACEMENT_3D('',#1528,#1228,#1229);
#1115=AXIS2_PLACEMENT_3D('',#1529,#1230,#1231);
#1116=AXIS2_PLACEMENT_3D('',#1531,#1232,#1233);
#1117=AXIS2_PLACEMENT_3D('',#1533,#1234,#1235);
#1118=AXIS2_PLACEMENT_3D('',#1535,#1236,#1237);
#1119=AXIS2_PLACEMENT_3D('',#1537,#1238,#1239);
#1120=AXIS2_PLACEMENT_3D('',#1539,#1240,#1241);
#1121=AXIS2_PLACEMENT_3D('',#1552,#1247,#1248);
#1122=AXIS2_PLACEMENT_3D('',#1556,#1250,#1251);
#1123=AXIS2_PLACEMENT_3D('',#1561,#1254,#1255);
#1124=AXIS2_PLACEMENT_3D('',#1566,#1257,#1258);
#1125=AXIS2_PLACEMENT_3D('',#1570,#1260,#1261);
#1126=AXIS2_PLACEMENT_3D('',#1574,#1263,#1264);
#1127=AXIS2_PLACEMENT_3D('',#1577,#1266,#1267);
#1128=AXIS2_PLACEMENT_3D('',#1583,#1271,#1272);
#1129=AXIS2_PLACEMENT_3D('',#1589,#1276,#1277);
#1130=AXIS2_PLACEMENT_3D('',#1593,#1280,#1281);
#1131=AXIS2_PLACEMENT_3D('',#1594,#1282,#1283);
#1132=AXIS2_PLACEMENT_3D('',#1597,#1285,#1286);
#1133=AXIS2_PLACEMENT_3D('',#1601,#1289,#1290);
#1134=AXIS2_PLACEMENT_3D('',#1602,#1291,#1292);
#1135=AXIS2_PLACEMENT_3D('',#1605,#1294,#1295);
#1136=AXIS2_PLACEMENT_3D('',#1609,#1298,#1299);
#1137=AXIS2_PLACEMENT_3D('',#1610,#1300,#1301);
#1138=AXIS2_PLACEMENT_3D('',#1612,#1302,#1303);
#1139=AXIS2_PLACEMENT_3D('',#1613,#1304,#1305);
#1140=AXIS2_PLACEMENT_3D('',#1615,#1306,#1307);
#1141=AXIS2_PLACEMENT_3D('',#1616,#1308,#1309);
#1142=AXIS2_PLACEMENT_3D('',#1618,#1310,#1311);
#1143=AXIS2_PLACEMENT_3D('',#1622,#1314,#1315);
#1144=AXIS2_PLACEMENT_3D('',#1623,#1316,#1317);
#1145=AXIS2_PLACEMENT_3D('',#1625,#1318,#1319);
#1146=AXIS2_PLACEMENT_3D('',#1626,#1320,#1321);
#1147=AXIS2_PLACEMENT_3D('',#1628,#1322,#1323);
#1148=AXIS2_PLACEMENT_3D('',#1664,#1342,#1343);
#1149=AXIS2_PLACEMENT_3D('',#1670,#1347,#1348);
#1150=AXIS2_PLACEMENT_3D('',#1673,#1351,#1352);
#1151=AXIS2_PLACEMENT_3D('',#1674,#1353,#1354);
#1152=AXIS2_PLACEMENT_3D('',#1675,#1355,#1356);
#1153=AXIS2_PLACEMENT_3D('',#1681,#1360,#1361);
#1154=AXIS2_PLACEMENT_3D('',#1684,#1364,#1365);
#1155=AXIS2_PLACEMENT_3D('',#1685,#1366,#1367);
#1156=AXIS2_PLACEMENT_3D('',#1686,#1368,#1369);
#1157=AXIS2_PLACEMENT_3D('',#1693,#1374,#1375);
#1158=AXIS2_PLACEMENT_3D('',#1696,#1377,#1378);
#1159=AXIS2_PLACEMENT_3D('',#1697,#1379,#1380);
#1160=AXIS2_PLACEMENT_3D('',#1701,#1383,#1384);
#1161=AXIS2_PLACEMENT_3D('',#1704,#1386,#1387);
#1162=AXIS2_PLACEMENT_3D('',#1705,#1388,#1389);
#1163=AXIS2_PLACEMENT_3D('',#1709,#1392,#1393);
#1164=AXIS2_PLACEMENT_3D('',#1712,#1395,#1396);
#1165=AXIS2_PLACEMENT_3D('',#1713,#1397,#1398);
#1166=AXIS2_PLACEMENT_3D('',#1718,#1402,#1403);
#1167=AXIS2_PLACEMENT_3D('',#1719,#1404,#1405);
#1168=AXIS2_PLACEMENT_3D('',#1722,#1407,#1408);
#1169=AXIS2_PLACEMENT_3D('',#1725,#1410,#1411);
#1170=AXIS2_PLACEMENT_3D('',#1729,#1414,#1415);
#1171=AXIS2_PLACEMENT_3D('',#1733,#1418,#1419);
#1172=AXIS2_PLACEMENT_3D('',#1734,#1420,#1421);
#1173=AXIS2_PLACEMENT_3D('',#1735,#1422,#1423);
#1174=AXIS2_PLACEMENT_3D('',#1736,#1424,#1425);
#1175=AXIS2_PLACEMENT_3D('',#1738,#1426,#1427);
#1176=AXIS2_PLACEMENT_3D('',#1740,#1428,#1429);
#1177=AXIS2_PLACEMENT_3D('',#1741,#1430,#1431);
#1178=AXIS2_PLACEMENT_3D('',#1743,#1432,#1433);
#1179=AXIS2_PLACEMENT_3D('',#1744,#1434,#1435);
#1180=AXIS2_PLACEMENT_3D('',#1745,#1436,#1437);
#1181=AXIS2_PLACEMENT_3D('',#1747,#1438,#1439);
#1182=AXIS2_PLACEMENT_3D('',#1748,#1440,#1441);
#1183=AXIS2_PLACEMENT_3D('',#1749,#1442,#1443);
#1184=AXIS2_PLACEMENT_3D('',#1750,#1444,#1445);
#1185=AXIS2_PLACEMENT_3D('',#1756,#1449,#1450);
#1186=AXIS2_PLACEMENT_3D('',#1760,#1453,#1454);
#1187=AXIS2_PLACEMENT_3D('',#1764,#1457,#1458);
#1188=AXIS2_PLACEMENT_3D('',#1768,#1461,#1462);
#1189=AXIS2_PLACEMENT_3D('',#1772,#1465,#1466);
#1190=AXIS2_PLACEMENT_3D('',#1774,#1468,#1469);
#1191=AXIS2_PLACEMENT_3D('',#1775,#1470,#1471);
#1192=AXIS2_PLACEMENT_3D('',#1781,#1475,#1476);
#1193=AXIS2_PLACEMENT_3D('',#1785,#1479,#1480);
#1194=AXIS2_PLACEMENT_3D('',#1789,#1483,#1484);
#1195=AXIS2_PLACEMENT_3D('',#1793,#1487,#1488);
#1196=AXIS2_PLACEMENT_3D('',#1797,#1491,#1492);
#1197=AXIS2_PLACEMENT_3D('',#1799,#1494,#1495);
#1198=AXIS2_PLACEMENT_3D('',#1800,#1496,#1497);
#1199=AXIS2_PLACEMENT_3D('',#1801,#1498,#1499);
#1200=DIRECTION('',(0.,0.,1.));
#1201=DIRECTION('',(1.,0.,0.));
#1202=DIRECTION('',(0.,0.,-1.));
#1203=DIRECTION('',(-1.,0.,0.));
#1204=DIRECTION('',(0.,0.,1.));
#1205=DIRECTION('',(1.,0.,0.));
#1206=DIRECTION('',(0.,0.,1.));
#1207=DIRECTION('',(1.,0.,0.));
#1208=DIRECTION('',(0.,0.,-1.));
#1209=DIRECTION('',(-1.,0.,0.));
#1210=DIRECTION('',(0.,0.,1.));
#1211=DIRECTION('',(1.,0.,0.));
#1212=DIRECTION('',(0.,0.,1.));
#1213=DIRECTION('',(1.,0.,0.));
#1214=DIRECTION('',(0.,0.,1.));
#1215=DIRECTION('',(1.,0.,0.));
#1216=DIRECTION('',(0.,0.,1.));
#1217=DIRECTION('',(1.,0.,0.));
#1218=DIRECTION('',(1.,0.,0.));
#1219=DIRECTION('',(0.,0.,1.));
#1220=DIRECTION('',(1.,0.,0.));
#1221=DIRECTION('',(-2.00308613164954E-16,1.,0.));
#1222=DIRECTION('',(0.,0.,-1.));
#1223=DIRECTION('',(1.,0.,0.));
#1224=DIRECTION('',(1.,0.,0.));
#1225=DIRECTION('',(0.,0.,1.));
#1226=DIRECTION('',(1.,0.,0.));
#1227=DIRECTION('',(0.,1.,0.));
#1228=DIRECTION('',(0.,0.,1.));
#1229=DIRECTION('',(1.,0.,0.));
#1230=DIRECTION('',(0.,0.,1.));
#1231=DIRECTION('',(1.,0.,0.));
#1232=DIRECTION('',(0.,0.,1.));
#1233=DIRECTION('',(1.,0.,0.));
#1234=DIRECTION('',(0.,0.,1.));
#1235=DIRECTION('',(1.,0.,0.));
#1236=DIRECTION('',(0.,0.,1.));
#1237=DIRECTION('',(1.,0.,0.));
#1238=DIRECTION('',(0.,0.,1.));
#1239=DIRECTION('',(1.,0.,0.));
#1240=DIRECTION('',(0.,0.,1.));
#1241=DIRECTION('',(1.,0.,0.));
#1242=DIRECTION('',(-3.46944695195364E-15,1.,0.));
#1243=DIRECTION('',(1.,0.,0.));
#1244=DIRECTION('',(9.37688365392869E-17,-1.,0.));
#1245=DIRECTION('',(1.,0.,0.));
#1246=DIRECTION('',(0.,1.,0.));
#1247=DIRECTION('',(0.,0.,1.));
#1248=DIRECTION('',(1.,0.,0.));
#1249=DIRECTION('',(1.,0.,0.));
#1250=DIRECTION('',(0.,0.,-1.));
#1251=DIRECTION('',(1.,0.,0.));
#1252=DIRECTION('',(0.,1.,0.));
#1253=DIRECTION('',(1.,0.,0.));
#1254=DIRECTION('',(0.,0.,-1.));
#1255=DIRECTION('',(1.,0.,0.));
#1256=DIRECTION('',(1.,0.,0.));
#1257=DIRECTION('',(0.,0.,-1.));
#1258=DIRECTION('',(1.,0.,0.));
#1259=DIRECTION('',(-2.00308613164954E-16,1.,0.));
#1260=DIRECTION('',(0.,0.,-1.));
#1261=DIRECTION('',(1.,0.,0.));
#1262=DIRECTION('',(1.,0.,0.));
#1263=DIRECTION('',(0.,0.,-1.));
#1264=DIRECTION('',(1.,0.,0.));
#1265=DIRECTION('',(0.,1.,0.));
#1266=DIRECTION('',(0.,1.,0.));
#1267=DIRECTION('',(0.,0.,1.));
#1268=DIRECTION('',(1.,0.,0.));
#1269=DIRECTION('',(0.,0.,-1.));
#1270=DIRECTION('',(0.,0.,-1.));
#1271=DIRECTION('',(0.,1.,0.));
#1272=DIRECTION('',(0.,0.,1.));
#1273=DIRECTION('',(1.,0.,0.));
#1274=DIRECTION('',(0.,0.,-1.));
#1275=DIRECTION('',(0.,0.,-1.));
#1276=DIRECTION('',(-1.,0.,0.));
#1277=DIRECTION('',(0.,0.,1.));
#1278=DIRECTION('',(0.,1.,0.));
#1279=DIRECTION('',(0.,0.,-1.));
#1280=DIRECTION('',(0.,0.,-1.));
#1281=DIRECTION('',(-1.,0.,0.));
#1282=DIRECTION('',(0.,0.,1.));
#1283=DIRECTION('',(1.,0.,0.));
#1284=DIRECTION('',(0.,0.,-1.));
#1285=DIRECTION('',(0.,1.,0.));
#1286=DIRECTION('',(0.,0.,1.));
#1287=DIRECTION('',(1.,0.,0.));
#1288=DIRECTION('',(0.,0.,-1.));
#1289=DIRECTION('',(0.,0.,-1.));
#1290=DIRECTION('',(-1.,0.,0.));
#1291=DIRECTION('',(0.,0.,-1.));
#1292=DIRECTION('',(1.,0.,0.));
#1293=DIRECTION('',(0.,0.,-1.));
#1294=DIRECTION('',(-1.,0.,0.));
#1295=DIRECTION('',(0.,0.,1.));
#1296=DIRECTION('',(0.,1.,0.));
#1297=DIRECTION('',(0.,0.,-1.));
#1298=DIRECTION('',(0.,0.,-1.));
#1299=DIRECTION('',(-1.,0.,0.));
#1300=DIRECTION('',(0.,0.,1.));
#1301=DIRECTION('',(1.,0.,0.));
#1302=DIRECTION('',(0.,0.,-1.));
#1303=DIRECTION('',(-1.,0.,0.));
#1304=DIRECTION('',(0.,0.,1.));
#1305=DIRECTION('',(1.,0.,0.));
#1306=DIRECTION('',(0.,0.,-1.));
#1307=DIRECTION('',(-1.,0.,0.));
#1308=DIRECTION('',(0.,0.,1.));
#1309=DIRECTION('',(1.,0.,0.));
#1310=DIRECTION('',(0.,1.,0.));
#1311=DIRECTION('',(0.,0.,1.));
#1312=DIRECTION('',(1.,0.,0.));
#1313=DIRECTION('',(0.,0.,-1.));
#1314=DIRECTION('',(0.,0.,-1.));
#1315=DIRECTION('',(-1.,0.,0.));
#1316=DIRECTION('',(0.,0.,1.));
#1317=DIRECTION('',(1.,0.,0.));
#1318=DIRECTION('',(0.,0.,1.));
#1319=DIRECTION('',(1.,0.,0.));
#1320=DIRECTION('',(0.,0.,1.));
#1321=DIRECTION('',(1.,0.,0.));
#1322=DIRECTION('',(0.,0.,1.));
#1323=DIRECTION('',(1.,0.,0.));
#1324=DIRECTION('',(-1.,7.32836389627883E-16,0.));
#1325=DIRECTION('',(-0.5,-0.866025403784438,0.));
#1326=DIRECTION('',(0.5,-0.866025403784439,0.));
#1327=DIRECTION('',(1.,-7.32836389627882E-16,0.));
#1328=DIRECTION('',(0.5,0.866025403784439,0.));
#1329=DIRECTION('',(-0.5,0.866025403784439,0.));
#1330=DIRECTION('',(-1.,0.,0.));
#1331=DIRECTION('',(-0.5,-0.866025403784439,0.));
#1332=DIRECTION('',(0.5,-0.866025403784439,0.));
#1333=DIRECTION('',(1.,0.,0.));
#1334=DIRECTION('',(0.5,0.866025403784439,0.));
#1335=DIRECTION('',(-0.5,0.866025403784439,0.));
#1336=DIRECTION('',(0.333692709977372,0.942681905686089,0.));
#1337=DIRECTION('',(-0.333692709977376,0.942681905686088,0.));
#1338=DIRECTION('',(9.37688365392869E-17,-1.,0.));
#1339=DIRECTION('',(-0.578953995067684,-0.815360209720322,0.));
#1340=DIRECTION('',(0.578953995067686,-0.815360209720321,0.));
#1341=DIRECTION('',(-3.46944695195364E-15,1.,0.));
#1342=DIRECTION('',(1.,9.37688365392869E-17,0.));
#1343=DIRECTION('',(-9.37688365392869E-17,1.,0.));
#1344=DIRECTION('',(0.,0.,1.));
#1345=DIRECTION('',(9.37688365392869E-17,-1.,-1.29456975819165E-16));
#1346=DIRECTION('',(0.,0.,-1.));
#1347=DIRECTION('',(-0.164398987305357,1.12280072577848E-16,-0.986393923832144));
#1348=DIRECTION('',(-0.986393923832144,0.,0.164398987305357));
#1349=DIRECTION('',(-0.333177835213659,0.941227384478589,0.0555296392022766));
#1350=DIRECTION('',(-0.576277417569364,-0.811590696410188,0.0960462362615608));
#1351=DIRECTION('',(-0.815360209720322,0.578953995067684,0.));
#1352=DIRECTION('',(-0.578953995067684,-0.815360209720322,0.));
#1353=DIRECTION('',(-0.942681905686088,-0.333692709977376,0.));
#1354=DIRECTION('',(0.333692709977376,-0.942681905686088,0.));
#1355=DIRECTION('',(-1.,-3.46944695195364E-15,0.));
#1356=DIRECTION('',(3.46944695195364E-15,-1.,0.));
#1357=DIRECTION('',(0.,0.,1.));
#1358=DIRECTION('',(-3.46944695195364E-15,1.,-1.29456975819165E-16));
#1359=DIRECTION('',(2.40741243048406E-30,-6.93889390390723E-16,-1.));
#1360=DIRECTION('',(0.164398987305357,4.42677991065128E-16,-0.986393923832144));
#1361=DIRECTION('',(-0.986393923832144,0.,-0.164398987305357));
#1362=DIRECTION('',(0.576277417569366,-0.811590696410186,0.0960462362615613));
#1363=DIRECTION('',(0.333177835213656,0.94122738447859,0.0555296392022765));
#1364=DIRECTION('',(0.942681905686089,-0.333692709977372,2.3154583110403E-16));
#1365=DIRECTION('',(0.333692709977372,0.942681905686089,0.));
#1366=DIRECTION('',(0.815360209720321,0.578953995067686,0.));
#1367=DIRECTION('',(-0.578953995067686,0.815360209720321,0.));
#1368=DIRECTION('',(0.,1.,0.));
#1369=DIRECTION('',(0.,0.,1.));
#1370=DIRECTION('',(1.,0.,0.));
#1371=DIRECTION('',(0.,0.,-1.));
#1372=DIRECTION('',(0.,0.,-1.));
#1373=DIRECTION('',(0.,0.,-1.));
#1374=DIRECTION('',(0.,0.,-1.));
#1375=DIRECTION('',(-1.,0.,0.));
#1376=DIRECTION('',(0.,0.,-1.));
#1377=DIRECTION('',(0.,0.,-1.));
#1378=DIRECTION('',(1.,0.,0.));
#1379=DIRECTION('',(-1.,0.,0.));
#1380=DIRECTION('',(0.,0.,1.));
#1381=DIRECTION('',(0.,0.,-1.));
#1382=DIRECTION('',(0.,1.,0.));
#1383=DIRECTION('',(0.,0.,-1.));
#1384=DIRECTION('',(-1.,0.,0.));
#1385=DIRECTION('',(0.,0.,-1.));
#1386=DIRECTION('',(0.,0.,-1.));
#1387=DIRECTION('',(1.,0.,0.));
#1388=DIRECTION('',(0.,1.,0.));
#1389=DIRECTION('',(0.,0.,1.));
#1390=DIRECTION('',(0.,0.,-1.));
#1391=DIRECTION('',(1.,0.,0.));
#1392=DIRECTION('',(0.,0.,-1.));
#1393=DIRECTION('',(-1.,0.,0.));
#1394=DIRECTION('',(0.,0.,-1.));
#1395=DIRECTION('',(0.,0.,-1.));
#1396=DIRECTION('',(1.,0.,0.));
#1397=DIRECTION('',(-1.,-2.00308613164954E-16,0.));
#1398=DIRECTION('',(2.00308613164954E-16,-1.,0.));
#1399=DIRECTION('',(0.,0.,-1.));
#1400=DIRECTION('',(0.,1.,0.));
#1401=DIRECTION('',(0.,0.,-1.));
#1402=DIRECTION('',(0.,0.,-1.));
#1403=DIRECTION('',(-1.,0.,0.));
#1404=DIRECTION('',(0.,0.,-1.));
#1405=DIRECTION('',(-1.,0.,0.));
#1406=DIRECTION('',(0.,0.,-1.));
#1407=DIRECTION('',(0.,0.,1.));
#1408=DIRECTION('',(1.,0.,0.));
#1409=DIRECTION('',(0.,0.,-1.));
#1410=DIRECTION('',(-1.,0.,0.));
#1411=DIRECTION('',(0.,0.,1.));
#1412=DIRECTION('',(0.,0.,-1.));
#1413=DIRECTION('',(0.,1.,0.));
#1414=DIRECTION('',(0.,1.,0.));
#1415=DIRECTION('',(0.,0.,1.));
#1416=DIRECTION('',(1.,0.,0.));
#1417=DIRECTION('',(0.,0.,-1.));
#1418=DIRECTION('',(0.,0.,1.));
#1419=DIRECTION('',(1.,0.,0.));
#1420=DIRECTION('',(0.,0.,1.));
#1421=DIRECTION('',(1.,0.,0.));
#1422=DIRECTION('',(0.,0.,1.));
#1423=DIRECTION('',(1.,0.,0.));
#1424=DIRECTION('',(0.,0.,1.));
#1425=DIRECTION('',(1.,0.,0.));
#1426=DIRECTION('',(0.,0.,1.));
#1427=DIRECTION('',(1.,0.,0.));
#1428=DIRECTION('',(0.,0.,1.));
#1429=DIRECTION('',(1.,0.,0.));
#1430=DIRECTION('',(0.,0.,1.));
#1431=DIRECTION('',(1.,0.,0.));
#1432=DIRECTION('',(0.,0.,-1.));
#1433=DIRECTION('',(-1.,0.,0.));
#1434=DIRECTION('',(0.,0.,1.));
#1435=DIRECTION('',(1.,0.,0.));
#1436=DIRECTION('',(0.,0.,1.));
#1437=DIRECTION('',(1.,0.,0.));
#1438=DIRECTION('',(0.,0.,-1.));
#1439=DIRECTION('',(-1.,0.,0.));
#1440=DIRECTION('',(0.,0.,1.));
#1441=DIRECTION('',(1.,0.,0.));
#1442=DIRECTION('',(0.,0.,1.));
#1443=DIRECTION('',(1.,0.,0.));
#1444=DIRECTION('',(0.866025403784439,-0.5,0.));
#1445=DIRECTION('',(0.5,0.866025403784439,0.));
#1446=DIRECTION('',(0.,0.,-1.));
#1447=DIRECTION('',(-0.5,-0.866025403784438,0.));
#1448=DIRECTION('',(0.,0.,-1.));
#1449=DIRECTION('',(-7.32836389627883E-16,-1.,0.));
#1450=DIRECTION('',(1.,-7.32836389627883E-16,0.));
#1451=DIRECTION('',(0.,0.,-1.));
#1452=DIRECTION('',(-1.,7.32836389627883E-16,0.));
#1453=DIRECTION('',(-0.866025403784439,-0.5,0.));
#1454=DIRECTION('',(0.5,-0.866025403784439,0.));
#1455=DIRECTION('',(0.,0.,-1.));
#1456=DIRECTION('',(-0.5,0.866025403784439,0.));
#1457=DIRECTION('',(-0.866025403784439,0.5,0.));
#1458=DIRECTION('',(-0.5,-0.866025403784439,0.));
#1459=DIRECTION('',(0.,0.,-1.));
#1460=DIRECTION('',(0.5,0.866025403784439,0.));
#1461=DIRECTION('',(7.32836389627882E-16,1.,0.));
#1462=DIRECTION('',(-1.,7.32836389627882E-16,0.));
#1463=DIRECTION('',(0.,0.,-1.));
#1464=DIRECTION('',(1.,-7.32836389627882E-16,0.));
#1465=DIRECTION('',(0.866025403784439,0.5,0.));
#1466=DIRECTION('',(-0.5,0.866025403784439,0.));
#1467=DIRECTION('',(0.5,-0.866025403784439,0.));
#1468=DIRECTION('',(0.,0.,-1.));
#1469=DIRECTION('',(1.,0.,0.));
#1470=DIRECTION('',(0.866025403784439,-0.5,0.));
#1471=DIRECTION('',(0.5,0.866025403784439,0.));
#1472=DIRECTION('',(0.,0.,-1.));
#1473=DIRECTION('',(-0.5,-0.866025403784439,0.));
#1474=DIRECTION('',(0.,0.,-1.));
#1475=DIRECTION('',(0.,-1.,0.));
#1476=DIRECTION('',(0.,0.,-1.));
#1477=DIRECTION('',(0.,0.,-1.));
#1478=DIRECTION('',(-1.,0.,0.));
#1479=DIRECTION('',(-0.866025403784439,-0.5,0.));
#1480=DIRECTION('',(0.5,-0.866025403784439,0.));
#1481=DIRECTION('',(0.,0.,-1.));
#1482=DIRECTION('',(-0.5,0.866025403784439,0.));
#1483=DIRECTION('',(-0.866025403784439,0.5,0.));
#1484=DIRECTION('',(-0.5,-0.866025403784439,0.));
#1485=DIRECTION('',(0.,0.,-1.));
#1486=DIRECTION('',(0.5,0.866025403784439,0.));
#1487=DIRECTION('',(0.,1.,0.));
#1488=DIRECTION('',(0.,0.,1.));
#1489=DIRECTION('',(0.,0.,-1.));
#1490=DIRECTION('',(1.,0.,0.));
#1491=DIRECTION('',(0.866025403784439,0.5,0.));
#1492=DIRECTION('',(-0.5,0.866025403784439,0.));
#1493=DIRECTION('',(0.5,-0.866025403784439,0.));
#1494=DIRECTION('',(0.,0.,-1.));
#1495=DIRECTION('',(1.,0.,0.));
#1496=DIRECTION('',(0.,0.,1.));
#1497=DIRECTION('',(1.,0.,0.));
#1498=DIRECTION('',(0.,0.,1.));
#1499=DIRECTION('',(1.,0.,0.));
#1500=CARTESIAN_POINT('',(0.,0.,0.));
#1501=CARTESIAN_POINT('',(0.00663,0.01263,0.01925));
#1502=CARTESIAN_POINT('',(0.00663,0.01263,0.01925));
#1503=CARTESIAN_POINT('',(0.00943,0.01263,0.01925));
#1504=CARTESIAN_POINT('',(0.00663,0.01263,0.005));
#1505=CARTESIAN_POINT('',(0.00943,0.01263,0.005));
#1506=CARTESIAN_POINT('',(-0.006,1.71450551880629E-19,0.01925));
#1507=CARTESIAN_POINT('',(-0.006,1.71450551880629E-19,0.02925));
#1508=CARTESIAN_POINT('',(-0.0032,1.71450551880629E-19,0.02925));
#1509=CARTESIAN_POINT('',(-0.006,1.71450551880629E-19,0.005));
#1510=CARTESIAN_POINT('',(-0.0032,1.71450551880629E-19,0.005));
#1511=CARTESIAN_POINT('',(-2.22044604925032E-16,0.00981494846117935,0.01925));
#1512=CARTESIAN_POINT('',(0.00663,0.01263,0.01925));
#1513=CARTESIAN_POINT('',(-0.00337,0.01263,0.01925));
#1514=CARTESIAN_POINT('',(0.00663,0.00262999999999991,0.01925));
#1515=CARTESIAN_POINT('',(0.00913,0.00263,0.01925));
#1516=CARTESIAN_POINT('',(0.01063,0.00263,0.01925));
#1517=CARTESIAN_POINT('',(0.01063,0.00163,0.01925));
#1518=CARTESIAN_POINT('',(0.01163,0.00163,0.01925));
#1519=CARTESIAN_POINT('',(0.01163,0.00829987298107772,0.01925));
#1520=CARTESIAN_POINT('',(0.01163,0.01263,0.01925));
#1521=CARTESIAN_POINT('',(0.00663,0.01263,0.01925));
#1522=CARTESIAN_POINT('',(0.00663,0.01763,0.01925));
#1523=CARTESIAN_POINT('',(0.004315,0.01763,0.01925));
#1524=CARTESIAN_POINT('',(-0.00437,0.01763,0.01925));
#1525=CARTESIAN_POINT('',(-0.00437,0.01663,0.01925));
#1526=CARTESIAN_POINT('',(-0.00337,0.01663,0.01925));
#1527=CARTESIAN_POINT('',(-0.00337,0.01513,0.01925));
#1528=CARTESIAN_POINT('',(0.,0.0085,0.007));
#1529=CARTESIAN_POINT('',(-0.03,0.049,0.007));
#1530=CARTESIAN_POINT('',(-0.0282,0.049,0.007));
#1531=CARTESIAN_POINT('',(0.03,0.049,0.007));
#1532=CARTESIAN_POINT('',(0.0318,0.049,0.007));
#1533=CARTESIAN_POINT('',(0.025,0.027,0.007));
#1534=CARTESIAN_POINT('',(0.0278,0.027,0.007));
#1535=CARTESIAN_POINT('',(0.025,-0.027,0.007));
#1536=CARTESIAN_POINT('',(0.0278,-0.027,0.007));
#1537=CARTESIAN_POINT('',(-0.025,-0.027,0.007));
#1538=CARTESIAN_POINT('',(-0.0222,-0.027,0.007));
#1539=CARTESIAN_POINT('',(-0.025,0.027,0.007));
#1540=CARTESIAN_POINT('',(-0.0222,0.027,0.007));
#1541=CARTESIAN_POINT('',(-0.035,0.043,0.007));
#1542=CARTESIAN_POINT('',(-0.035,-0.037,0.007));
#1543=CARTESIAN_POINT('',(-0.035,0.054,0.007));
#1544=CARTESIAN_POINT('',(0.,-0.037,0.007));
#1545=CARTESIAN_POINT('',(0.035,-0.037,0.007));
#1546=CARTESIAN_POINT('',(0.035,0.,0.007));
#1547=CARTESIAN_POINT('',(0.035,0.054,0.007));
#1548=CARTESIAN_POINT('',(0.03,0.054,0.007));
#1549=CARTESIAN_POINT('',(0.025,0.054,0.007));
#1550=CARTESIAN_POINT('',(0.025,0.049,0.007));
#1551=CARTESIAN_POINT('',(0.025,0.044,0.007));
#1552=CARTESIAN_POINT('',(0.025,0.027,0.007));
#1553=CARTESIAN_POINT('',(0.0112522729151325,0.037,0.007));
#1554=CARTESIAN_POINT('',(-8.67361737988404E-18,0.037,0.007));
#1555=CARTESIAN_POINT('',(-0.0112522729151325,0.037,0.007));
#1556=CARTESIAN_POINT('',(-0.025,0.027,0.007));
#1557=CARTESIAN_POINT('',(-0.025,0.044,0.007));
#1558=CARTESIAN_POINT('',(-0.025,0.049,0.007));
#1559=CARTESIAN_POINT('',(-0.025,0.054,0.007));
#1560=CARTESIAN_POINT('',(-0.03,0.054,0.007));
#1561=CARTESIAN_POINT('',(-0.006,0.01263,0.007));
#1562=CARTESIAN_POINT('',(-0.011,0.01263,0.007));
#1563=CARTESIAN_POINT('',(-0.006,0.01763,0.007));
#1564=CARTESIAN_POINT('',(0.004315,0.01763,0.007));
#1565=CARTESIAN_POINT('',(0.00663,0.01763,0.007));
#1566=CARTESIAN_POINT('',(0.00663,0.01263,0.007));
#1567=CARTESIAN_POINT('',(0.01163,0.01263,0.007));
#1568=CARTESIAN_POINT('',(0.01163,0.00829987298107772,0.007));
#1569=CARTESIAN_POINT('',(0.01163,8.67361737988404E-19,0.007));
#1570=CARTESIAN_POINT('',(0.00663,3.58175994678254E-18,0.007));
#1571=CARTESIAN_POINT('',(0.00663,-0.005,0.007));
#1572=CARTESIAN_POINT('',(-0.0016698729810778,-0.005,0.007));
#1573=CARTESIAN_POINT('',(-0.006,-0.005,0.007));
#1574=CARTESIAN_POINT('',(-0.006,7.14280888094984E-19,0.007));
#1575=CARTESIAN_POINT('',(-0.011,5.61200038201565E-19,0.007));
#1576=CARTESIAN_POINT('',(-0.011,0.00433012701892219,0.007));
#1577=CARTESIAN_POINT('',(0.,-0.037,0.007));
#1578=CARTESIAN_POINT('',(0.,-0.037,0.));
#1579=CARTESIAN_POINT('',(-0.035,-0.037,0.));
#1580=CARTESIAN_POINT('',(0.035,-0.037,0.));
#1581=CARTESIAN_POINT('',(0.035,-0.037,0.007));
#1582=CARTESIAN_POINT('',(-0.035,-0.037,0.007));
#1583=CARTESIAN_POINT('',(0.03,0.054,0.007));
#1584=CARTESIAN_POINT('',(0.03,0.054,0.));
#1585=CARTESIAN_POINT('',(0.025,0.054,0.));
#1586=CARTESIAN_POINT('',(0.035,0.054,0.));
#1587=CARTESIAN_POINT('',(0.025,0.054,0.007));
#1588=CARTESIAN_POINT('',(0.035,0.054,0.007));
#1589=CARTESIAN_POINT('',(0.025,0.049,0.007));
#1590=CARTESIAN_POINT('',(0.025,0.049,0.));
#1591=CARTESIAN_POINT('',(0.025,0.044,0.));
#1592=CARTESIAN_POINT('',(0.025,0.044,0.007));
#1593=CARTESIAN_POINT('',(0.025,0.027,0.007));
#1594=CARTESIAN_POINT('',(0.025,0.027,0.));
#1595=CARTESIAN_POINT('',(0.0112522729151325,0.037,0.));
#1596=CARTESIAN_POINT('',(0.0112522729151325,0.037,0.007));
#1597=CARTESIAN_POINT('',(-8.67361737988404E-18,0.037,0.007));
#1598=CARTESIAN_POINT('',(-8.67361737988404E-18,0.037,0.));
#1599=CARTESIAN_POINT('',(-0.0112522729151325,0.037,0.));
#1600=CARTESIAN_POINT('',(-0.0112522729151325,0.037,0.007));
#1601=CARTESIAN_POINT('',(-0.025,0.027,0.007));
#1602=CARTESIAN_POINT('',(-0.025,0.027,0.));
#1603=CARTESIAN_POINT('',(-0.025,0.044,0.));
#1604=CARTESIAN_POINT('',(-0.025,0.044,0.007));
#1605=CARTESIAN_POINT('',(-0.025,0.049,0.007));
#1606=CARTESIAN_POINT('',(-0.025,0.049,0.));
#1607=CARTESIAN_POINT('',(-0.025,0.054,0.));
#1608=CARTESIAN_POINT('',(-0.025,0.054,0.007));
#1609=CARTESIAN_POINT('',(0.025,-0.027,0.007));
#1610=CARTESIAN_POINT('',(0.025,-0.027,0.));
#1611=CARTESIAN_POINT('',(0.0278,-0.027,0.));
#1612=CARTESIAN_POINT('',(-0.025,-0.027,0.007));
#1613=CARTESIAN_POINT('',(-0.025,-0.027,0.));
#1614=CARTESIAN_POINT('',(-0.0222,-0.027,0.));
#1615=CARTESIAN_POINT('',(-0.025,0.027,0.007));
#1616=CARTESIAN_POINT('',(-0.025,0.027,0.));
#1617=CARTESIAN_POINT('',(-0.0222,0.027,0.));
#1618=CARTESIAN_POINT('',(-0.03,0.054,0.007));
#1619=CARTESIAN_POINT('',(-0.03,0.054,0.));
#1620=CARTESIAN_POINT('',(-0.035,0.054,0.));
#1621=CARTESIAN_POINT('',(-0.035,0.054,0.007));
#1622=CARTESIAN_POINT('',(0.025,0.027,0.007));
#1623=CARTESIAN_POINT('',(0.025,0.027,0.));
#1624=CARTESIAN_POINT('',(0.0278,0.027,0.));
#1625=CARTESIAN_POINT('',(0.,0.0085,0.));
#1626=CARTESIAN_POINT('',(-0.03,0.049,0.));
#1627=CARTESIAN_POINT('',(-0.0282,0.049,0.));
#1628=CARTESIAN_POINT('',(0.03,0.049,0.));
#1629=CARTESIAN_POINT('',(0.0318,0.049,0.));
#1630=CARTESIAN_POINT('',(-0.006,-0.0041,0.));
#1631=CARTESIAN_POINT('',(-0.00363286389632254,-0.0041,0.));
#1632=CARTESIAN_POINT('',(-0.00836713610367747,-0.0041,0.));
#1633=CARTESIAN_POINT('',(-0.0024492958444838,-0.00205,0.));
#1634=CARTESIAN_POINT('',(-0.00126572779264507,-1.3010426069826E-18,0.));
#1635=CARTESIAN_POINT('',(-0.0024492958444838,0.00205,0.));
#1636=CARTESIAN_POINT('',(-0.00363286389632253,0.0041,0.));
#1637=CARTESIAN_POINT('',(-0.006,0.0041,0.));
#1638=CARTESIAN_POINT('',(-0.00836713610367747,0.0041,0.));
#1639=CARTESIAN_POINT('',(-0.0095507041555162,0.00205,0.));
#1640=CARTESIAN_POINT('',(-0.0107342722073549,-1.3010426069826E-18,0.));
#1641=CARTESIAN_POINT('',(-0.0095507041555162,-0.00205,0.));
#1642=CARTESIAN_POINT('',(0.00663,0.00853,0.));
#1643=CARTESIAN_POINT('',(0.00899713610367747,0.00853,0.));
#1644=CARTESIAN_POINT('',(0.00426286389632254,0.00853,0.));
#1645=CARTESIAN_POINT('',(0.0101807041555162,0.01058,0.));
#1646=CARTESIAN_POINT('',(0.0113642722073549,0.01263,0.));
#1647=CARTESIAN_POINT('',(0.0101807041555162,0.01468,0.));
#1648=CARTESIAN_POINT('',(0.00899713610367747,0.01673,0.));
#1649=CARTESIAN_POINT('',(0.00663,0.01673,0.));
#1650=CARTESIAN_POINT('',(0.00426286389632254,0.01673,0.));
#1651=CARTESIAN_POINT('',(0.0030792958444838,0.01468,0.));
#1652=CARTESIAN_POINT('',(0.00189572779264506,0.01263,0.));
#1653=CARTESIAN_POINT('',(0.0030792958444838,0.01058,0.));
#1654=CARTESIAN_POINT('',(-0.047,0.0201,0.));
#1655=CARTESIAN_POINT('',(-0.047,0.0201,0.));
#1656=CARTESIAN_POINT('',(0.047,0.0201,0.));
#1657=CARTESIAN_POINT('',(0.047,0.0201,0.));
#1658=CARTESIAN_POINT('',(0.047,1.12522603847144E-18,0.));
#1659=CARTESIAN_POINT('',(0.047,-0.0201,0.));
#1660=CARTESIAN_POINT('',(0.047,-0.0201,0.));
#1661=CARTESIAN_POINT('',(-0.047,-0.0201,0.));
#1662=CARTESIAN_POINT('',(-0.047,-0.0201,0.));
#1663=CARTESIAN_POINT('',(-0.047,0.043,0.));
#1664=CARTESIAN_POINT('',(0.047,0.0085,0.0035));
#1665=CARTESIAN_POINT('',(0.047,0.0201,0.0025));
#1666=CARTESIAN_POINT('',(0.047,0.0201,0.005));
#1667=CARTESIAN_POINT('',(0.047,4.59467299042506E-18,0.005));
#1668=CARTESIAN_POINT('',(0.047,-0.0201,0.005));
#1669=CARTESIAN_POINT('',(0.047,-0.0201,0.0025));
#1670=CARTESIAN_POINT('',(0.00208108108108108,-1.42132222743051E-18,0.0124864864864865));
#1671=CARTESIAN_POINT('',(0.047,0.0201,0.005));
#1672=CARTESIAN_POINT('',(0.047,-0.0201,0.005));
#1673=CARTESIAN_POINT('',(0.0407345033867927,-0.0289239077302669,0.));
#1674=CARTESIAN_POINT('',(0.0480892894425499,0.0170227573247965,0.));
#1675=CARTESIAN_POINT('',(-0.047,0.0085,0.0035));
#1676=CARTESIAN_POINT('',(-0.047,-0.0201,0.0025));
#1677=CARTESIAN_POINT('',(-0.047,-0.0201,0.005));
#1678=CARTESIAN_POINT('',(-0.047,-1.6306400674182E-16,0.005));
#1679=CARTESIAN_POINT('',(-0.047,0.0201,0.005));
#1680=CARTESIAN_POINT('',(-0.047,0.0201,0.0025));
#1681=CARTESIAN_POINT('',(-0.00208108108108108,-5.60373763437772E-18,0.0124864864864865));
#1682=CARTESIAN_POINT('',(-0.047,-0.0201,0.005));
#1683=CARTESIAN_POINT('',(-0.047,0.0201,0.005));
#1684=CARTESIAN_POINT('',(-0.0480892894425499,0.0170227573247962,-1.18119107028722E-17));
#1685=CARTESIAN_POINT('',(-0.0407345033867926,-0.028923907730267,0.));
#1686=CARTESIAN_POINT('',(0.004315,0.01763,0.01925));
#1687=CARTESIAN_POINT('',(-0.004685,0.01763,0.02925));
#1688=CARTESIAN_POINT('',(-0.006,0.01763,0.02925));
#1689=CARTESIAN_POINT('',(-0.00437,0.01763,0.02925));
#1690=CARTESIAN_POINT('',(-0.00437,0.01763,0.01925));
#1691=CARTESIAN_POINT('',(0.00663,0.01763,0.01925));
#1692=CARTESIAN_POINT('',(-0.006,0.01763,0.01925));
#1693=CARTESIAN_POINT('',(-0.006,0.01263,0.01925));
#1694=CARTESIAN_POINT('',(-0.011,0.01263,0.01925));
#1695=CARTESIAN_POINT('',(-0.011,0.01263,0.02925));
#1696=CARTESIAN_POINT('',(-0.006,0.01263,0.02925));
#1697=CARTESIAN_POINT('',(-0.011,0.00433012701892219,0.01925));
#1698=CARTESIAN_POINT('',(-0.011,5.61200038201565E-19,0.01925));
#1699=CARTESIAN_POINT('',(-0.011,5.61200038201565E-19,0.02925));
#1700=CARTESIAN_POINT('',(-0.011,0.0106451270189222,0.02925));
#1701=CARTESIAN_POINT('',(-0.006,7.14280888094984E-19,0.01925));
#1702=CARTESIAN_POINT('',(-0.006,-0.005,0.01925));
#1703=CARTESIAN_POINT('',(-0.006,-0.005,0.02925));
#1704=CARTESIAN_POINT('',(-0.006,7.14280888094984E-19,0.02925));
#1705=CARTESIAN_POINT('',(-0.0016698729810778,-0.005,0.01925));
#1706=CARTESIAN_POINT('',(0.00663,-0.005,0.01925));
#1707=CARTESIAN_POINT('',(0.00663,-0.005,0.02925));
#1708=CARTESIAN_POINT('',(0.00464512701892219,-0.005,0.02925));
#1709=CARTESIAN_POINT('',(0.00663,3.58175994678254E-18,0.01925));
#1710=CARTESIAN_POINT('',(0.01163,8.67361737988404E-19,0.01925));
#1711=CARTESIAN_POINT('',(0.01163,8.67361737988404E-19,0.02925));
#1712=CARTESIAN_POINT('',(0.00663,3.58175994678254E-18,0.02925));
#1713=CARTESIAN_POINT('',(0.01163,0.00829987298107772,0.01925));
#1714=CARTESIAN_POINT('',(0.01163,0.00163,0.02925));
#1715=CARTESIAN_POINT('',(0.01163,0.00163,0.02925));
#1716=CARTESIAN_POINT('',(0.01163,0.001315,0.02925));
#1717=CARTESIAN_POINT('',(0.01163,0.01263,0.01925));
#1718=CARTESIAN_POINT('',(0.00663,0.01263,0.01925));
#1719=CARTESIAN_POINT('',(0.00663,0.01263,0.02925));
#1720=CARTESIAN_POINT('',(-0.00337,0.01263,0.02925));
#1721=CARTESIAN_POINT('',(-0.00337,0.01263,0.02925));
#1722=CARTESIAN_POINT('',(0.00663,0.01263,0.02925));
#1723=CARTESIAN_POINT('',(0.00663,0.00262999999999991,0.02925));
#1724=CARTESIAN_POINT('',(0.00663,0.00262999999999991,0.02925));
#1725=CARTESIAN_POINT('',(-0.00337,0.01513,0.02925));
#1726=CARTESIAN_POINT('',(-0.00337,0.01663,0.02925));
#1727=CARTESIAN_POINT('',(-0.00337,0.01663,0.02925));
#1728=CARTESIAN_POINT('',(-0.00337,0.01513,0.02925));
#1729=CARTESIAN_POINT('',(0.00913,0.00263,0.02925));
#1730=CARTESIAN_POINT('',(0.00913,0.00263,0.02925));
#1731=CARTESIAN_POINT('',(0.01063,0.00263,0.02925));
#1732=CARTESIAN_POINT('',(0.01063,0.00263,0.01925));
#1733=CARTESIAN_POINT('',(-2.22044604925032E-16,0.00981494846117935,0.02925));
#1734=CARTESIAN_POINT('',(-0.00437,0.01663,0.02925));
#1735=CARTESIAN_POINT('',(0.01063,0.00163,0.02925));
#1736=CARTESIAN_POINT('',(0.00761168614282425,-0.00098168614282426,0.02925));
#1737=CARTESIAN_POINT('',(0.00921168614282425,-0.00098168614282426,0.02925));
#1738=CARTESIAN_POINT('',(-0.00698168614282421,0.0136116861428242,0.02925));
#1739=CARTESIAN_POINT('',(-0.00538168614282421,0.0136116861428242,0.02925));
#1740=CARTESIAN_POINT('',(0.,0.0085,0.007));
#1741=CARTESIAN_POINT('',(0.00761168614282425,-0.00098168614282426,0.007));
#1742=CARTESIAN_POINT('',(0.00921168614282425,-0.00098168614282426,0.007));
#1743=CARTESIAN_POINT('',(0.00761168614282425,-0.00098168614282426,0.01925));
#1744=CARTESIAN_POINT('',(0.,0.0085,0.007));
#1745=CARTESIAN_POINT('',(-0.00698168614282421,0.0136116861428242,0.007));
#1746=CARTESIAN_POINT('',(-0.00538168614282421,0.0136116861428242,0.007));
#1747=CARTESIAN_POINT('',(-0.00698168614282421,0.0136116861428242,0.01925));
#1748=CARTESIAN_POINT('',(-0.00437,0.01663,0.01925));
#1749=CARTESIAN_POINT('',(0.01063,0.00163,0.02925));
#1750=CARTESIAN_POINT('',(-0.0024492958444838,-0.00205,0.005));
#1751=CARTESIAN_POINT('',(-0.00363286389632254,-0.0041,0.005));
#1752=CARTESIAN_POINT('',(-0.00363286389632254,-0.0041,0.005));
#1753=CARTESIAN_POINT('',(-0.0024492958444838,-0.00205,0.005));
#1754=CARTESIAN_POINT('',(-0.00126572779264507,-1.3010426069826E-18,0.005));
#1755=CARTESIAN_POINT('',(-0.00126572779264507,-1.3010426069826E-18,0.005));
#1756=CARTESIAN_POINT('',(-0.006,-0.0041,0.005));
#1757=CARTESIAN_POINT('',(-0.00836713610367747,-0.0041,0.005));
#1758=CARTESIAN_POINT('',(-0.00836713610367747,-0.0041,0.005));
#1759=CARTESIAN_POINT('',(-0.006,-0.0041,0.005));
#1760=CARTESIAN_POINT('',(-0.0095507041555162,-0.00205,0.005));
#1761=CARTESIAN_POINT('',(-0.0107342722073549,-1.3010426069826E-18,0.005));
#1762=CARTESIAN_POINT('',(-0.0107342722073549,-1.3010426069826E-18,0.005));
#1763=CARTESIAN_POINT('',(-0.0095507041555162,-0.00205,0.005));
#1764=CARTESIAN_POINT('',(-0.0095507041555162,0.00205,0.005));
#1765=CARTESIAN_POINT('',(-0.00836713610367747,0.0041,0.005));
#1766=CARTESIAN_POINT('',(-0.00836713610367747,0.0041,0.005));
#1767=CARTESIAN_POINT('',(-0.0095507041555162,0.00205,0.005));
#1768=CARTESIAN_POINT('',(-0.006,0.0041,0.005));
#1769=CARTESIAN_POINT('',(-0.00363286389632253,0.0041,0.005));
#1770=CARTESIAN_POINT('',(-0.00363286389632253,0.0041,0.005));
#1771=CARTESIAN_POINT('',(-0.006,0.0041,0.005));
#1772=CARTESIAN_POINT('',(-0.0024492958444838,0.00205,0.005));
#1773=CARTESIAN_POINT('',(-0.0024492958444838,0.00205,0.005));
#1774=CARTESIAN_POINT('',(1.38777878078145E-17,0.00849999999999973,0.005));
#1775=CARTESIAN_POINT('',(0.0101807041555162,0.01058,0.005));
#1776=CARTESIAN_POINT('',(0.00899713610367747,0.00853,0.005));
#1777=CARTESIAN_POINT('',(0.00899713610367747,0.00853,0.005));
#1778=CARTESIAN_POINT('',(0.0101807041555162,0.01058,0.005));
#1779=CARTESIAN_POINT('',(0.0113642722073549,0.01263,0.005));
#1780=CARTESIAN_POINT('',(0.0113642722073549,0.01263,0.005));
#1781=CARTESIAN_POINT('',(0.00663,0.00853,0.005));
#1782=CARTESIAN_POINT('',(0.00426286389632254,0.00853,0.005));
#1783=CARTESIAN_POINT('',(0.00426286389632254,0.00853,0.005));
#1784=CARTESIAN_POINT('',(0.00663,0.00853,0.005));
#1785=CARTESIAN_POINT('',(0.0030792958444838,0.01058,0.005));
#1786=CARTESIAN_POINT('',(0.00189572779264506,0.01263,0.005));
#1787=CARTESIAN_POINT('',(0.00189572779264506,0.01263,0.005));
#1788=CARTESIAN_POINT('',(0.0030792958444838,0.01058,0.005));
#1789=CARTESIAN_POINT('',(0.0030792958444838,0.01468,0.005));
#1790=CARTESIAN_POINT('',(0.00426286389632254,0.01673,0.005));
#1791=CARTESIAN_POINT('',(0.00426286389632254,0.01673,0.005));
#1792=CARTESIAN_POINT('',(0.0030792958444838,0.01468,0.005));
#1793=CARTESIAN_POINT('',(0.00663,0.01673,0.005));
#1794=CARTESIAN_POINT('',(0.00899713610367747,0.01673,0.005));
#1795=CARTESIAN_POINT('',(0.00899713610367747,0.01673,0.005));
#1796=CARTESIAN_POINT('',(0.00663,0.01673,0.005));
#1797=CARTESIAN_POINT('',(0.0101807041555162,0.01468,0.005));
#1798=CARTESIAN_POINT('',(0.0101807041555162,0.01468,0.005));
#1799=CARTESIAN_POINT('',(1.38777878078145E-17,0.00849999999999973,0.005));
#1800=CARTESIAN_POINT('',(0.03,0.049,-2.00000000000027E-6));
#1801=CARTESIAN_POINT('',(-0.03,0.049,-2.00000000000027E-6));
#1802=MECHANICAL_DESIGN_GEOMETRIC_PRESENTATION_REPRESENTATION('',(#1091),
#1803);
#1803=(
GEOMETRIC_REPRESENTATION_CONTEXT(3)
GLOBAL_UNCERTAINTY_ASSIGNED_CONTEXT((#1804))
GLOBAL_UNIT_ASSIGNED_CONTEXT((#1807,#1806,#1805))
REPRESENTATION_CONTEXT('Left Upper Cart Plate',
'TOP_LEVEL_ASSEMBLY_PART')
);
#1804=UNCERTAINTY_MEASURE_WITH_UNIT(LENGTH_MEASURE(4.12310565123414E-8),
#1807,'DISTANCE_ACCURACY_VALUE','Maximum Tolerance applied to model');
#1805=(
NAMED_UNIT(*)
SI_UNIT($,.STERADIAN.)
SOLID_ANGLE_UNIT()
);
#1806=(
NAMED_UNIT(*)
PLANE_ANGLE_UNIT()
SI_UNIT($,.RADIAN.)
);
#1807=(
LENGTH_UNIT()
NAMED_UNIT(*)
SI_UNIT($,.METRE.)
);
#1808=PRODUCT_DEFINITION_SHAPE('','',#1809);
#1809=PRODUCT_DEFINITION('','',#1811,#1810);
#1810=PRODUCT_DEFINITION_CONTEXT('',#1817,'design');
#1811=PRODUCT_DEFINITION_FORMATION_WITH_SPECIFIED_SOURCE('','',#1813,
 .NOT_KNOWN.);
#1812=PRODUCT_RELATED_PRODUCT_CATEGORY('','',(#1813));
#1813=PRODUCT('Left Upper Cart Plate','Left Upper Cart Plate',
'Left Upper Cart Plate',(#1815));
#1814=PRODUCT_CATEGORY('','');
#1815=PRODUCT_CONTEXT('',#1817,'mechanical');
#1816=APPLICATION_PROTOCOL_DEFINITION('international standard',
'automotive_design',2010,#1817);
#1817=APPLICATION_CONTEXT(
'core data for automotive mechanical design processes');
ENDSEC;
END-ISO-10303-21;
