ISO-10303-21;
HEADER;
/* Generated by software containing ST-Developer
 * from STEP Tools, Inc. (www.steptools.com) 
 */
/* OPTION: using custom renumber hook */

FILE_DESCRIPTION(
/* description */ ('STEP AP214',
'CAx-IF Rec.Pracs.---User Defined Attributes---1.5---2016-08-15'),
/* implementation_level */ '2;1');

FILE_NAME(
/* name */ '6a95da11d62aea1f59760a4b',
/* time_stamp */ '2026-08-31T19:46:25Z',
/* author */ (''),
/* organization */ (''),
/* preprocessor_version */ 'ST-DEVELOPER v20',
/* originating_system */ 'ONSHAPE BY PTC INC, 1.220',
/* authorisation */ '  ');

FILE_SCHEMA (('AUTOMOTIVE_DESIGN {1 0 10303 214 3 1 1}'));
ENDSEC;

DATA;
#10=PROPERTY_DEFINITION_REPRESENTATION(#14,#12);
#11=PROPERTY_DEFINITION_REPRESENTATION(#15,#13);
#12=REPRESENTATION('',(#16),#848);
#13=REPRESENTATION('',(#17),#848);
#14=PROPERTY_DEFINITION('pmi validation property','',#853);
#15=PROPERTY_DEFINITION('pmi validation property','',#853);
#16=VALUE_REPRESENTATION_ITEM('number of annotations',COUNT_MEASURE(0.));
#17=VALUE_REPRESENTATION_ITEM('number of views',COUNT_MEASURE(0.));
#18=SHAPE_REPRESENTATION_RELATIONSHIP('','',#502,#19);
#19=ADVANCED_BREP_SHAPE_REPRESENTATION('',(#500),#848);
#20=PLANE('',#513);
#21=PLANE('',#514);
#22=PLANE('',#518);
#23=PLANE('',#522);
#24=PLANE('',#526);
#25=PLANE('',#534);
#26=PLANE('',#538);
#27=PLANE('',#541);
#28=PLANE('',#545);
#29=PLANE('',#552);
#30=PLANE('',#557);
#31=PLANE('',#560);
#32=LINE('',#725,#65);
#33=LINE('',#729,#66);
#34=LINE('',#731,#67);
#35=LINE('',#733,#68);
#36=LINE('',#735,#69);
#37=LINE('',#737,#70);
#38=LINE('',#739,#71);
#39=LINE('',#741,#72);
#40=LINE('',#743,#73);
#41=LINE('',#745,#74);
#42=LINE('',#747,#75);
#43=LINE('',#749,#76);
#44=LINE('',#753,#77);
#45=LINE('',#757,#78);
#46=LINE('',#759,#79);
#47=LINE('',#761,#80);
#48=LINE('',#763,#81);
#49=LINE('',#765,#82);
#50=LINE('',#769,#83);
#51=LINE('',#779,#84);
#52=LINE('',#785,#85);
#53=LINE('',#792,#86);
#54=LINE('',#796,#87);
#55=LINE('',#798,#88);
#56=LINE('',#800,#89);
#57=LINE('',#802,#90);
#58=LINE('',#807,#91);
#59=LINE('',#809,#92);
#60=LINE('',#813,#93);
#61=LINE('',#815,#94);
#62=LINE('',#817,#95);
#63=LINE('',#818,#96);
#64=LINE('',#820,#97);
#65=VECTOR('',#579,1.);
#66=VECTOR('',#582,1.);
#67=VECTOR('',#585,1.);
#68=VECTOR('',#586,1.);
#69=VECTOR('',#587,1.);
#70=VECTOR('',#590,1.);
#71=VECTOR('',#591,1.);
#72=VECTOR('',#592,1.);
#73=VECTOR('',#593,1.);
#74=VECTOR('',#594,1.);
#75=VECTOR('',#595,1.);
#76=VECTOR('',#596,1.);
#77=VECTOR('',#601,1.);
#78=VECTOR('',#606,1.);
#79=VECTOR('',#607,1.);
#80=VECTOR('',#608,1.);
#81=VECTOR('',#609,1.);
#82=VECTOR('',#610,1.);
#83=VECTOR('',#615,1.);
#84=VECTOR('',#630,1.);
#85=VECTOR('',#635,1.);
#86=VECTOR('',#642,1.);
#87=VECTOR('',#645,1.);
#88=VECTOR('',#648,1.);
#89=VECTOR('',#649,1.);
#90=VECTOR('',#650,1.);
#91=VECTOR('',#659,1.);
#92=VECTOR('',#660,1.);
#93=VECTOR('',#665,1.);
#94=VECTOR('',#668,1.);
#95=VECTOR('',#669,1.);
#96=VECTOR('',#670,1.);
#97=VECTOR('',#671,1.);
#98=ORIENTED_EDGE('',*,*,#224,.T.);
#99=ORIENTED_EDGE('',*,*,#225,.T.);
#100=ORIENTED_EDGE('',*,*,#226,.T.);
#101=ORIENTED_EDGE('',*,*,#227,.T.);
#102=ORIENTED_EDGE('',*,*,#228,.F.);
#103=ORIENTED_EDGE('',*,*,#229,.F.);
#104=ORIENTED_EDGE('',*,*,#230,.T.);
#105=ORIENTED_EDGE('',*,*,#231,.T.);
#106=ORIENTED_EDGE('',*,*,#232,.T.);
#107=ORIENTED_EDGE('',*,*,#233,.F.);
#108=ORIENTED_EDGE('',*,*,#234,.F.);
#109=ORIENTED_EDGE('',*,*,#229,.T.);
#110=ORIENTED_EDGE('',*,*,#235,.F.);
#111=ORIENTED_EDGE('',*,*,#236,.F.);
#112=ORIENTED_EDGE('',*,*,#237,.T.);
#113=ORIENTED_EDGE('',*,*,#238,.T.);
#114=ORIENTED_EDGE('',*,*,#239,.F.);
#115=ORIENTED_EDGE('',*,*,#240,.F.);
#116=ORIENTED_EDGE('',*,*,#241,.F.);
#117=ORIENTED_EDGE('',*,*,#233,.T.);
#118=ORIENTED_EDGE('',*,*,#242,.F.);
#119=ORIENTED_EDGE('',*,*,#243,.F.);
#120=ORIENTED_EDGE('',*,*,#244,.T.);
#121=ORIENTED_EDGE('',*,*,#236,.T.);
#122=ORIENTED_EDGE('',*,*,#245,.F.);
#123=ORIENTED_EDGE('',*,*,#246,.T.);
#124=ORIENTED_EDGE('',*,*,#247,.F.);
#125=ORIENTED_EDGE('',*,*,#248,.F.);
#126=ORIENTED_EDGE('',*,*,#249,.T.);
#127=ORIENTED_EDGE('',*,*,#243,.T.);
#128=ORIENTED_EDGE('',*,*,#250,.T.);
#129=ORIENTED_EDGE('',*,*,#251,.T.);
#130=ORIENTED_EDGE('',*,*,#252,.F.);
#131=ORIENTED_EDGE('',*,*,#231,.F.);
#132=ORIENTED_EDGE('',*,*,#224,.F.);
#133=ORIENTED_EDGE('',*,*,#252,.T.);
#134=ORIENTED_EDGE('',*,*,#253,.T.);
#135=ORIENTED_EDGE('',*,*,#245,.T.);
#136=ORIENTED_EDGE('',*,*,#242,.T.);
#137=ORIENTED_EDGE('',*,*,#235,.T.);
#138=ORIENTED_EDGE('',*,*,#232,.F.);
#139=ORIENTED_EDGE('',*,*,#228,.T.);
#140=ORIENTED_EDGE('',*,*,#254,.F.);
#141=ORIENTED_EDGE('',*,*,#246,.F.);
#142=ORIENTED_EDGE('',*,*,#253,.F.);
#143=ORIENTED_EDGE('',*,*,#251,.F.);
#144=ORIENTED_EDGE('',*,*,#255,.T.);
#145=ORIENTED_EDGE('',*,*,#247,.T.);
#146=ORIENTED_EDGE('',*,*,#254,.T.);
#147=ORIENTED_EDGE('',*,*,#250,.F.);
#148=ORIENTED_EDGE('',*,*,#230,.F.);
#149=ORIENTED_EDGE('',*,*,#234,.T.);
#150=ORIENTED_EDGE('',*,*,#241,.T.);
#151=ORIENTED_EDGE('',*,*,#256,.F.);
#152=ORIENTED_EDGE('',*,*,#257,.F.);
#153=ORIENTED_EDGE('',*,*,#258,.T.);
#154=ORIENTED_EDGE('',*,*,#259,.F.);
#155=ORIENTED_EDGE('',*,*,#260,.T.);
#156=ORIENTED_EDGE('',*,*,#261,.F.);
#157=ORIENTED_EDGE('',*,*,#262,.F.);
#158=ORIENTED_EDGE('',*,*,#263,.T.);
#159=ORIENTED_EDGE('',*,*,#264,.T.);
#160=ORIENTED_EDGE('',*,*,#265,.T.);
#161=ORIENTED_EDGE('',*,*,#266,.F.);
#162=ORIENTED_EDGE('',*,*,#267,.F.);
#163=ORIENTED_EDGE('',*,*,#262,.T.);
#164=ORIENTED_EDGE('',*,*,#268,.F.);
#165=ORIENTED_EDGE('',*,*,#238,.F.);
#166=ORIENTED_EDGE('',*,*,#269,.T.);
#167=ORIENTED_EDGE('',*,*,#266,.T.);
#168=ORIENTED_EDGE('',*,*,#270,.F.);
#169=ORIENTED_EDGE('',*,*,#271,.F.);
#170=ORIENTED_EDGE('',*,*,#256,.T.);
#171=ORIENTED_EDGE('',*,*,#240,.T.);
#172=ORIENTED_EDGE('',*,*,#272,.F.);
#173=ORIENTED_EDGE('',*,*,#273,.T.);
#174=ORIENTED_EDGE('',*,*,#257,.T.);
#175=ORIENTED_EDGE('',*,*,#271,.T.);
#176=ORIENTED_EDGE('',*,*,#264,.F.);
#177=ORIENTED_EDGE('',*,*,#274,.F.);
#178=ORIENTED_EDGE('',*,*,#275,.T.);
#179=ORIENTED_EDGE('',*,*,#259,.T.);
#180=ORIENTED_EDGE('',*,*,#276,.T.);
#181=ORIENTED_EDGE('',*,*,#277,.T.);
#182=ORIENTED_EDGE('',*,*,#278,.F.);
#183=ORIENTED_EDGE('',*,*,#279,.T.);
#184=ORIENTED_EDGE('',*,*,#226,.F.);
#185=ORIENTED_EDGE('',*,*,#277,.F.);
#186=ORIENTED_EDGE('',*,*,#280,.T.);
#187=ORIENTED_EDGE('',*,*,#272,.T.);
#188=ORIENTED_EDGE('',*,*,#270,.T.);
#189=ORIENTED_EDGE('',*,*,#239,.T.);
#190=ORIENTED_EDGE('',*,*,#268,.T.);
#191=ORIENTED_EDGE('',*,*,#265,.F.);
#192=ORIENTED_EDGE('',*,*,#261,.T.);
#193=ORIENTED_EDGE('',*,*,#278,.T.);
#194=ORIENTED_EDGE('',*,*,#258,.F.);
#195=ORIENTED_EDGE('',*,*,#273,.F.);
#196=ORIENTED_EDGE('',*,*,#280,.F.);
#197=ORIENTED_EDGE('',*,*,#276,.F.);
#198=ORIENTED_EDGE('',*,*,#260,.F.);
#199=ORIENTED_EDGE('',*,*,#275,.F.);
#200=ORIENTED_EDGE('',*,*,#281,.T.);
#201=ORIENTED_EDGE('',*,*,#248,.T.);
#202=ORIENTED_EDGE('',*,*,#282,.T.);
#203=ORIENTED_EDGE('',*,*,#255,.F.);
#204=ORIENTED_EDGE('',*,*,#283,.F.);
#205=ORIENTED_EDGE('',*,*,#284,.F.);
#206=ORIENTED_EDGE('',*,*,#237,.F.);
#207=ORIENTED_EDGE('',*,*,#244,.F.);
#208=ORIENTED_EDGE('',*,*,#249,.F.);
#209=ORIENTED_EDGE('',*,*,#281,.F.);
#210=ORIENTED_EDGE('',*,*,#274,.T.);
#211=ORIENTED_EDGE('',*,*,#263,.F.);
#212=ORIENTED_EDGE('',*,*,#267,.T.);
#213=ORIENTED_EDGE('',*,*,#269,.F.);
#214=ORIENTED_EDGE('',*,*,#279,.F.);
#215=ORIENTED_EDGE('',*,*,#282,.F.);
#216=ORIENTED_EDGE('',*,*,#285,.F.);
#217=ORIENTED_EDGE('',*,*,#283,.T.);
#218=ORIENTED_EDGE('',*,*,#227,.F.);
#219=ORIENTED_EDGE('',*,*,#285,.T.);
#220=ORIENTED_EDGE('',*,*,#286,.F.);
#221=ORIENTED_EDGE('',*,*,#284,.T.);
#222=ORIENTED_EDGE('',*,*,#225,.F.);
#223=ORIENTED_EDGE('',*,*,#286,.T.);
#224=EDGE_CURVE('',#287,#287,#333,.F.);
#225=EDGE_CURVE('',#288,#288,#334,.T.);
#226=EDGE_CURVE('',#289,#289,#335,.F.);
#227=EDGE_CURVE('',#290,#290,#336,.T.);
#228=EDGE_CURVE('',#291,#292,#337,.T.);
#229=EDGE_CURVE('',#293,#291,#32,.T.);
#230=EDGE_CURVE('',#293,#294,#338,.T.);
#231=EDGE_CURVE('',#294,#292,#33,.T.);
#232=EDGE_CURVE('',#291,#295,#34,.T.);
#233=EDGE_CURVE('',#296,#295,#35,.T.);
#234=EDGE_CURVE('',#293,#296,#36,.T.);
#235=EDGE_CURVE('',#297,#295,#37,.T.);
#236=EDGE_CURVE('',#298,#297,#38,.T.);
#237=EDGE_CURVE('',#298,#299,#39,.T.);
#238=EDGE_CURVE('',#299,#300,#40,.T.);
#239=EDGE_CURVE('',#301,#300,#41,.T.);
#240=EDGE_CURVE('',#302,#301,#42,.T.);
#241=EDGE_CURVE('',#296,#302,#43,.T.);
#242=EDGE_CURVE('',#303,#297,#339,.T.);
#243=EDGE_CURVE('',#304,#303,#44,.T.);
#244=EDGE_CURVE('',#304,#298,#340,.T.);
#245=EDGE_CURVE('',#305,#303,#45,.T.);
#246=EDGE_CURVE('',#305,#306,#46,.F.);
#247=EDGE_CURVE('',#307,#306,#47,.T.);
#248=EDGE_CURVE('',#308,#307,#48,.T.);
#249=EDGE_CURVE('',#308,#304,#49,.T.);
#250=EDGE_CURVE('',#294,#309,#341,.T.);
#251=EDGE_CURVE('',#309,#310,#50,.T.);
#252=EDGE_CURVE('',#292,#310,#342,.T.);
#253=EDGE_CURVE('',#310,#305,#343,.F.);
#254=EDGE_CURVE('',#306,#309,#344,.T.);
#255=EDGE_CURVE('',#311,#311,#345,.T.);
#256=EDGE_CURVE('',#312,#302,#51,.T.);
#257=EDGE_CURVE('',#313,#312,#346,.T.);
#258=EDGE_CURVE('',#313,#314,#347,.T.);
#259=EDGE_CURVE('',#315,#314,#52,.T.);
#260=EDGE_CURVE('',#315,#307,#348,.T.);
#261=EDGE_CURVE('',#316,#317,#349,.T.);
#262=EDGE_CURVE('',#318,#316,#53,.T.);
#263=EDGE_CURVE('',#318,#319,#350,.T.);
#264=EDGE_CURVE('',#319,#317,#54,.T.);
#265=EDGE_CURVE('',#316,#320,#55,.T.);
#266=EDGE_CURVE('',#321,#320,#56,.T.);
#267=EDGE_CURVE('',#318,#321,#57,.T.);
#268=EDGE_CURVE('',#300,#320,#351,.T.);
#269=EDGE_CURVE('',#299,#321,#352,.T.);
#270=EDGE_CURVE('',#322,#301,#58,.T.);
#271=EDGE_CURVE('',#312,#322,#59,.T.);
#272=EDGE_CURVE('',#323,#322,#353,.T.);
#273=EDGE_CURVE('',#323,#313,#60,.F.);
#274=EDGE_CURVE('',#324,#319,#61,.T.);
#275=EDGE_CURVE('',#324,#315,#62,.T.);
#276=EDGE_CURVE('',#314,#325,#63,.F.);
#277=EDGE_CURVE('',#325,#317,#64,.T.);
#278=EDGE_CURVE('',#326,#326,#354,.T.);
#279=EDGE_CURVE('',#327,#327,#355,.T.);
#280=EDGE_CURVE('',#325,#323,#356,.F.);
#281=EDGE_CURVE('',#324,#308,#357,.T.);
#282=EDGE_CURVE('',#328,#328,#358,.T.);
#283=EDGE_CURVE('',#329,#329,#359,.T.);
#284=EDGE_CURVE('',#330,#330,#360,.T.);
#285=EDGE_CURVE('',#331,#331,#361,.T.);
#286=EDGE_CURVE('',#332,#332,#362,.T.);
#287=VERTEX_POINT('',#713);
#288=VERTEX_POINT('',#715);
#289=VERTEX_POINT('',#718);
#290=VERTEX_POINT('',#720);
#291=VERTEX_POINT('',#723);
#292=VERTEX_POINT('',#724);
#293=VERTEX_POINT('',#726);
#294=VERTEX_POINT('',#728);
#295=VERTEX_POINT('',#732);
#296=VERTEX_POINT('',#734);
#297=VERTEX_POINT('',#738);
#298=VERTEX_POINT('',#740);
#299=VERTEX_POINT('',#742);
#300=VERTEX_POINT('',#744);
#301=VERTEX_POINT('',#746);
#302=VERTEX_POINT('',#748);
#303=VERTEX_POINT('',#752);
#304=VERTEX_POINT('',#754);
#305=VERTEX_POINT('',#758);
#306=VERTEX_POINT('',#760);
#307=VERTEX_POINT('',#762);
#308=VERTEX_POINT('',#764);
#309=VERTEX_POINT('',#768);
#310=VERTEX_POINT('',#770);
#311=VERTEX_POINT('',#778);
#312=VERTEX_POINT('',#780);
#313=VERTEX_POINT('',#782);
#314=VERTEX_POINT('',#784);
#315=VERTEX_POINT('',#786);
#316=VERTEX_POINT('',#790);
#317=VERTEX_POINT('',#791);
#318=VERTEX_POINT('',#793);
#319=VERTEX_POINT('',#795);
#320=VERTEX_POINT('',#799);
#321=VERTEX_POINT('',#801);
#322=VERTEX_POINT('',#808);
#323=VERTEX_POINT('',#812);
#324=VERTEX_POINT('',#816);
#325=VERTEX_POINT('',#819);
#326=VERTEX_POINT('',#823);
#327=VERTEX_POINT('',#825);
#328=VERTEX_POINT('',#833);
#329=VERTEX_POINT('',#836);
#330=VERTEX_POINT('',#838);
#331=VERTEX_POINT('',#841);
#332=VERTEX_POINT('',#845);
#333=CIRCLE('',#505,0.0018);
#334=CIRCLE('',#506,0.0018);
#335=CIRCLE('',#508,0.0018);
#336=CIRCLE('',#509,0.0018);
#337=CIRCLE('',#511,0.01);
#338=CIRCLE('',#512,0.01);
#339=CIRCLE('',#516,0.005);
#340=CIRCLE('',#517,0.005);
#341=CIRCLE('',#520,0.01);
#342=CIRCLE('',#521,0.01);
#343=CIRCLE('',#523,0.001);
#344=CIRCLE('',#525,0.001);
#345=CIRCLE('',#527,0.0028);
#346=CIRCLE('',#528,0.01);
#347=CIRCLE('',#529,0.001);
#348=CIRCLE('',#530,0.005);
#349=CIRCLE('',#532,0.005);
#350=CIRCLE('',#533,0.005);
#351=CIRCLE('',#536,0.005);
#352=CIRCLE('',#537,0.005);
#353=CIRCLE('',#540,0.01);
#354=CIRCLE('',#543,0.0028);
#355=CIRCLE('',#544,0.0028);
#356=CIRCLE('',#546,0.001);
#357=CIRCLE('',#549,0.005);
#358=CIRCLE('',#551,0.0028);
#359=CIRCLE('',#553,0.0029);
#360=CIRCLE('',#554,0.0029);
#361=CIRCLE('',#556,0.0029);
#362=CIRCLE('',#559,0.0029);
#363=EDGE_LOOP('',(#98));
#364=EDGE_LOOP('',(#99));
#365=EDGE_LOOP('',(#100));
#366=EDGE_LOOP('',(#101));
#367=EDGE_LOOP('',(#102,#103,#104,#105));
#368=EDGE_LOOP('',(#106,#107,#108,#109));
#369=EDGE_LOOP('',(#110,#111,#112,#113,#114,#115,#116,#117));
#370=EDGE_LOOP('',(#118,#119,#120,#121));
#371=EDGE_LOOP('',(#122,#123,#124,#125,#126,#127));
#372=EDGE_LOOP('',(#128,#129,#130,#131));
#373=EDGE_LOOP('',(#132));
#374=EDGE_LOOP('',(#133,#134,#135,#136,#137,#138,#139));
#375=EDGE_LOOP('',(#140,#141,#142,#143));
#376=EDGE_LOOP('',(#144));
#377=EDGE_LOOP('',(#145,#146,#147,#148,#149,#150,#151,#152,#153,#154,#155));
#378=EDGE_LOOP('',(#156,#157,#158,#159));
#379=EDGE_LOOP('',(#160,#161,#162,#163));
#380=EDGE_LOOP('',(#164,#165,#166,#167));
#381=EDGE_LOOP('',(#168,#169,#170,#171));
#382=EDGE_LOOP('',(#172,#173,#174,#175));
#383=EDGE_LOOP('',(#176,#177,#178,#179,#180,#181));
#384=EDGE_LOOP('',(#182));
#385=EDGE_LOOP('',(#183));
#386=EDGE_LOOP('',(#184));
#387=EDGE_LOOP('',(#185,#186,#187,#188,#189,#190,#191,#192));
#388=EDGE_LOOP('',(#193));
#389=EDGE_LOOP('',(#194,#195,#196,#197));
#390=EDGE_LOOP('',(#198,#199,#200,#201));
#391=EDGE_LOOP('',(#202));
#392=EDGE_LOOP('',(#203));
#393=EDGE_LOOP('',(#204));
#394=EDGE_LOOP('',(#205));
#395=EDGE_LOOP('',(#206,#207,#208,#209,#210,#211,#212,#213));
#396=EDGE_LOOP('',(#214));
#397=EDGE_LOOP('',(#215));
#398=EDGE_LOOP('',(#216));
#399=EDGE_LOOP('',(#217));
#400=EDGE_LOOP('',(#218));
#401=EDGE_LOOP('',(#219));
#402=EDGE_LOOP('',(#220));
#403=EDGE_LOOP('',(#221));
#404=EDGE_LOOP('',(#222));
#405=EDGE_LOOP('',(#223));
#406=FACE_BOUND('',#363,.T.);
#407=FACE_BOUND('',#364,.T.);
#408=FACE_BOUND('',#365,.T.);
#409=FACE_BOUND('',#366,.T.);
#410=FACE_BOUND('',#367,.T.);
#411=FACE_BOUND('',#368,.T.);
#412=FACE_BOUND('',#369,.T.);
#413=FACE_BOUND('',#370,.T.);
#414=FACE_BOUND('',#371,.T.);
#415=FACE_BOUND('',#372,.T.);
#416=FACE_BOUND('',#373,.T.);
#417=FACE_BOUND('',#374,.T.);
#418=FACE_BOUND('',#375,.T.);
#419=FACE_BOUND('',#376,.T.);
#420=FACE_BOUND('',#377,.T.);
#421=FACE_BOUND('',#378,.T.);
#422=FACE_BOUND('',#379,.T.);
#423=FACE_BOUND('',#380,.T.);
#424=FACE_BOUND('',#381,.T.);
#425=FACE_BOUND('',#382,.T.);
#426=FACE_BOUND('',#383,.T.);
#427=FACE_BOUND('',#384,.T.);
#428=FACE_BOUND('',#385,.T.);
#429=FACE_BOUND('',#386,.T.);
#430=FACE_BOUND('',#387,.T.);
#431=FACE_BOUND('',#388,.T.);
#432=FACE_BOUND('',#389,.T.);
#433=FACE_BOUND('',#390,.T.);
#434=FACE_BOUND('',#391,.T.);
#435=FACE_BOUND('',#392,.T.);
#436=FACE_BOUND('',#393,.T.);
#437=FACE_BOUND('',#394,.T.);
#438=FACE_BOUND('',#395,.T.);
#439=FACE_BOUND('',#396,.T.);
#440=FACE_BOUND('',#397,.T.);
#441=FACE_BOUND('',#398,.T.);
#442=FACE_BOUND('',#399,.T.);
#443=FACE_BOUND('',#400,.T.);
#444=FACE_BOUND('',#401,.T.);
#445=FACE_BOUND('',#402,.T.);
#446=FACE_BOUND('',#403,.T.);
#447=FACE_BOUND('',#404,.T.);
#448=FACE_BOUND('',#405,.T.);
#449=CYLINDRICAL_SURFACE('',#504,0.0018);
#450=CYLINDRICAL_SURFACE('',#507,0.0018);
#451=CYLINDRICAL_SURFACE('',#510,0.01);
#452=CYLINDRICAL_SURFACE('',#515,0.005);
#453=CYLINDRICAL_SURFACE('',#519,0.01);
#454=CYLINDRICAL_SURFACE('',#524,0.001);
#455=CYLINDRICAL_SURFACE('',#531,0.005);
#456=CYLINDRICAL_SURFACE('',#535,0.005);
#457=CYLINDRICAL_SURFACE('',#539,0.01);
#458=CYLINDRICAL_SURFACE('',#542,0.0028);
#459=CYLINDRICAL_SURFACE('',#547,0.001);
#460=CYLINDRICAL_SURFACE('',#548,0.005);
#461=CYLINDRICAL_SURFACE('',#550,0.0028);
#462=CYLINDRICAL_SURFACE('',#555,0.0029);
#463=CYLINDRICAL_SURFACE('',#558,0.0029);
#464=ADVANCED_FACE('',(#406,#407),#449,.F.);
#465=ADVANCED_FACE('',(#408,#409),#450,.F.);
#466=ADVANCED_FACE('',(#410),#451,.F.);
#467=ADVANCED_FACE('',(#411),#20,.F.);
#468=ADVANCED_FACE('',(#412),#21,.T.);
#469=ADVANCED_FACE('',(#413),#452,.T.);
#470=ADVANCED_FACE('',(#414),#22,.T.);
#471=ADVANCED_FACE('',(#415),#453,.F.);
#472=ADVANCED_FACE('',(#416,#417),#23,.F.);
#473=ADVANCED_FACE('',(#418),#454,.T.);
#474=ADVANCED_FACE('',(#419,#420),#24,.F.);
#475=ADVANCED_FACE('',(#421),#455,.T.);
#476=ADVANCED_FACE('',(#422),#25,.F.);
#477=ADVANCED_FACE('',(#423),#456,.T.);
#478=ADVANCED_FACE('',(#424),#26,.T.);
#479=ADVANCED_FACE('',(#425),#457,.F.);
#480=ADVANCED_FACE('',(#426),#27,.F.);
#481=ADVANCED_FACE('',(#427,#428),#458,.F.);
#482=ADVANCED_FACE('',(#429,#430,#431),#28,.F.);
#483=ADVANCED_FACE('',(#432),#459,.T.);
#484=ADVANCED_FACE('',(#433),#460,.T.);
#485=ADVANCED_FACE('',(#434,#435),#461,.F.);
#486=ADVANCED_FACE('',(#436,#437,#438,#439,#440),#29,.T.);
#487=ADVANCED_FACE('',(#441,#442),#462,.F.);
#488=ADVANCED_FACE('',(#443,#444),#30,.T.);
#489=ADVANCED_FACE('',(#445,#446),#463,.F.);
#490=ADVANCED_FACE('',(#447,#448),#31,.T.);
#491=CLOSED_SHELL('',(#464,#465,#466,#467,#468,#469,#470,#471,#472,#473,
#474,#475,#476,#477,#478,#479,#480,#481,#482,#483,#484,#485,#486,#487,#488,
#489,#490));
#492=STYLED_ITEM('',(#493),#500);
#493=PRESENTATION_STYLE_ASSIGNMENT((#494));
#494=SURFACE_STYLE_USAGE(.BOTH.,#495);
#495=SURFACE_SIDE_STYLE('',(#496));
#496=SURFACE_STYLE_FILL_AREA(#497);
#497=FILL_AREA_STYLE('',(#498));
#498=FILL_AREA_STYLE_COLOUR('',#499);
#499=COLOUR_RGB('',0.231372549019608,0.380392156862745,0.705882352941177);
#500=MANIFOLD_SOLID_BREP('Left Upper Cart Upper Mold',#491);
#501=SHAPE_DEFINITION_REPRESENTATION(#853,#502);
#502=SHAPE_REPRESENTATION('Left Upper Cart Upper Mold',(#503),#848);
#503=AXIS2_PLACEMENT_3D('',#710,#561,#562);
#504=AXIS2_PLACEMENT_3D('',#711,#563,#564);
#505=AXIS2_PLACEMENT_3D('',#712,#565,#566);
#506=AXIS2_PLACEMENT_3D('',#714,#567,#568);
#507=AXIS2_PLACEMENT_3D('',#716,#569,#570);
#508=AXIS2_PLACEMENT_3D('',#717,#571,#572);
#509=AXIS2_PLACEMENT_3D('',#719,#573,#574);
#510=AXIS2_PLACEMENT_3D('',#721,#575,#576);
#511=AXIS2_PLACEMENT_3D('',#722,#577,#578);
#512=AXIS2_PLACEMENT_3D('',#727,#580,#581);
#513=AXIS2_PLACEMENT_3D('',#730,#583,#584);
#514=AXIS2_PLACEMENT_3D('',#736,#588,#589);
#515=AXIS2_PLACEMENT_3D('',#750,#597,#598);
#516=AXIS2_PLACEMENT_3D('',#751,#599,#600);
#517=AXIS2_PLACEMENT_3D('',#755,#602,#603);
#518=AXIS2_PLACEMENT_3D('',#756,#604,#605);
#519=AXIS2_PLACEMENT_3D('',#766,#611,#612);
#520=AXIS2_PLACEMENT_3D('',#767,#613,#614);
#521=AXIS2_PLACEMENT_3D('',#771,#616,#617);
#522=AXIS2_PLACEMENT_3D('',#772,#618,#619);
#523=AXIS2_PLACEMENT_3D('',#773,#620,#621);
#524=AXIS2_PLACEMENT_3D('',#774,#622,#623);
#525=AXIS2_PLACEMENT_3D('',#775,#624,#625);
#526=AXIS2_PLACEMENT_3D('',#776,#626,#627);
#527=AXIS2_PLACEMENT_3D('',#777,#628,#629);
#528=AXIS2_PLACEMENT_3D('',#781,#631,#632);
#529=AXIS2_PLACEMENT_3D('',#783,#633,#634);
#530=AXIS2_PLACEMENT_3D('',#787,#636,#637);
#531=AXIS2_PLACEMENT_3D('',#788,#638,#639);
#532=AXIS2_PLACEMENT_3D('',#789,#640,#641);
#533=AXIS2_PLACEMENT_3D('',#794,#643,#644);
#534=AXIS2_PLACEMENT_3D('',#797,#646,#647);
#535=AXIS2_PLACEMENT_3D('',#803,#651,#652);
#536=AXIS2_PLACEMENT_3D('',#804,#653,#654);
#537=AXIS2_PLACEMENT_3D('',#805,#655,#656);
#538=AXIS2_PLACEMENT_3D('',#806,#657,#658);
#539=AXIS2_PLACEMENT_3D('',#810,#661,#662);
#540=AXIS2_PLACEMENT_3D('',#811,#663,#664);
#541=AXIS2_PLACEMENT_3D('',#814,#666,#667);
#542=AXIS2_PLACEMENT_3D('',#821,#672,#673);
#543=AXIS2_PLACEMENT_3D('',#822,#674,#675);
#544=AXIS2_PLACEMENT_3D('',#824,#676,#677);
#545=AXIS2_PLACEMENT_3D('',#826,#678,#679);
#546=AXIS2_PLACEMENT_3D('',#827,#680,#681);
#547=AXIS2_PLACEMENT_3D('',#828,#682,#683);
#548=AXIS2_PLACEMENT_3D('',#829,#684,#685);
#549=AXIS2_PLACEMENT_3D('',#830,#686,#687);
#550=AXIS2_PLACEMENT_3D('',#831,#688,#689);
#551=AXIS2_PLACEMENT_3D('',#832,#690,#691);
#552=AXIS2_PLACEMENT_3D('',#834,#692,#693);
#553=AXIS2_PLACEMENT_3D('',#835,#694,#695);
#554=AXIS2_PLACEMENT_3D('',#837,#696,#697);
#555=AXIS2_PLACEMENT_3D('',#839,#698,#699);
#556=AXIS2_PLACEMENT_3D('',#840,#700,#701);
#557=AXIS2_PLACEMENT_3D('',#842,#702,#703);
#558=AXIS2_PLACEMENT_3D('',#843,#704,#705);
#559=AXIS2_PLACEMENT_3D('',#844,#706,#707);
#560=AXIS2_PLACEMENT_3D('',#846,#708,#709);
#561=DIRECTION('',(0.,0.,1.));
#562=DIRECTION('',(1.,0.,0.));
#563=DIRECTION('',(0.,0.,1.));
#564=DIRECTION('',(1.,0.,0.));
#565=DIRECTION('',(0.,0.,1.));
#566=DIRECTION('',(1.,0.,0.));
#567=DIRECTION('',(0.,0.,1.));
#568=DIRECTION('',(1.,0.,0.));
#569=DIRECTION('',(0.,0.,1.));
#570=DIRECTION('',(1.,0.,0.));
#571=DIRECTION('',(0.,0.,1.));
#572=DIRECTION('',(1.,0.,0.));
#573=DIRECTION('',(0.,0.,1.));
#574=DIRECTION('',(1.,0.,0.));
#575=DIRECTION('',(0.,0.,-1.));
#576=DIRECTION('',(-1.,0.,0.));
#577=DIRECTION('',(0.,0.,1.));
#578=DIRECTION('',(1.,0.,0.));
#579=DIRECTION('',(0.,0.,-1.));
#580=DIRECTION('',(0.,0.,1.));
#581=DIRECTION('',(1.,0.,0.));
#582=DIRECTION('',(0.,0.,-1.));
#583=DIRECTION('',(-1.,0.,0.));
#584=DIRECTION('',(0.,0.,1.));
#585=DIRECTION('',(0.,1.,0.));
#586=DIRECTION('',(0.,0.,-1.));
#587=DIRECTION('',(0.,1.,0.));
#588=DIRECTION('',(0.,1.,0.));
#589=DIRECTION('',(0.,0.,1.));
#590=DIRECTION('',(1.,0.,0.));
#591=DIRECTION('',(0.,0.,-1.));
#592=DIRECTION('',(1.,0.,0.));
#593=DIRECTION('',(0.,0.,-1.));
#594=DIRECTION('',(1.,0.,0.));
#595=DIRECTION('',(0.,0.,-1.));
#596=DIRECTION('',(1.,0.,0.));
#597=DIRECTION('',(0.,0.,-1.));
#598=DIRECTION('',(-1.,0.,0.));
#599=DIRECTION('',(0.,0.,-1.));
#600=DIRECTION('',(1.,0.,0.));
#601=DIRECTION('',(0.,0.,-1.));
#602=DIRECTION('',(0.,0.,-1.));
#603=DIRECTION('',(1.,0.,0.));
#604=DIRECTION('',(-1.,0.,0.));
#605=DIRECTION('',(0.,0.,1.));
#606=DIRECTION('',(0.,1.,0.));
#607=DIRECTION('',(0.,0.,-1.));
#608=DIRECTION('',(0.,1.,0.));
#609=DIRECTION('',(0.,0.,-1.));
#610=DIRECTION('',(0.,1.,0.));
#611=DIRECTION('',(0.,0.,-1.));
#612=DIRECTION('',(-1.,0.,0.));
#613=DIRECTION('',(0.,0.,1.));
#614=DIRECTION('',(1.,0.,0.));
#615=DIRECTION('',(0.,0.,-1.));
#616=DIRECTION('',(0.,0.,1.));
#617=DIRECTION('',(1.,0.,0.));
#618=DIRECTION('',(0.,0.,1.));
#619=DIRECTION('',(1.,0.,0.));
#620=DIRECTION('',(0.,0.,1.));
#621=DIRECTION('',(1.,0.,0.));
#622=DIRECTION('',(0.,0.,-1.));
#623=DIRECTION('',(-1.,0.,0.));
#624=DIRECTION('',(0.,0.,1.));
#625=DIRECTION('',(1.,0.,0.));
#626=DIRECTION('',(0.,0.,1.));
#627=DIRECTION('',(1.,0.,0.));
#628=DIRECTION('',(0.,0.,1.));
#629=DIRECTION('',(1.,0.,0.));
#630=DIRECTION('',(-1.86449212809201E-16,1.,0.));
#631=DIRECTION('',(0.,0.,1.));
#632=DIRECTION('',(1.,0.,0.));
#633=DIRECTION('',(0.,0.,1.));
#634=DIRECTION('',(1.,0.,0.));
#635=DIRECTION('',(1.,0.,0.));
#636=DIRECTION('',(0.,0.,-1.));
#637=DIRECTION('',(1.,0.,0.));
#638=DIRECTION('',(0.,0.,-1.));
#639=DIRECTION('',(-1.,0.,0.));
#640=DIRECTION('',(0.,0.,-1.));
#641=DIRECTION('',(1.,0.,0.));
#642=DIRECTION('',(0.,0.,-1.));
#643=DIRECTION('',(0.,0.,-1.));
#644=DIRECTION('',(1.,0.,0.));
#645=DIRECTION('',(0.,0.,-1.));
#646=DIRECTION('',(-1.,-2.00308613164954E-16,0.));
#647=DIRECTION('',(2.00308613164954E-16,-1.,0.));
#648=DIRECTION('',(-2.00308613164954E-16,1.,0.));
#649=DIRECTION('',(0.,0.,-1.));
#650=DIRECTION('',(-2.00308613164954E-16,1.,0.));
#651=DIRECTION('',(0.,0.,-1.));
#652=DIRECTION('',(-1.,0.,0.));
#653=DIRECTION('',(0.,0.,-1.));
#654=DIRECTION('',(1.,0.,0.));
#655=DIRECTION('',(0.,0.,-1.));
#656=DIRECTION('',(1.,0.,0.));
#657=DIRECTION('',(-1.,-1.86449212809201E-16,0.));
#658=DIRECTION('',(1.86449212809201E-16,-1.,0.));
#659=DIRECTION('',(-1.86449212809201E-16,1.,0.));
#660=DIRECTION('',(0.,0.,-1.));
#661=DIRECTION('',(0.,0.,-1.));
#662=DIRECTION('',(-1.,0.,0.));
#663=DIRECTION('',(0.,0.,1.));
#664=DIRECTION('',(1.,0.,0.));
#665=DIRECTION('',(0.,0.,-1.));
#666=DIRECTION('',(0.,1.,0.));
#667=DIRECTION('',(0.,0.,1.));
#668=DIRECTION('',(1.,0.,0.));
#669=DIRECTION('',(0.,0.,-1.));
#670=DIRECTION('',(0.,0.,1.));
#671=DIRECTION('',(1.,0.,0.));
#672=DIRECTION('',(0.,0.,-1.));
#673=DIRECTION('',(-1.,0.,0.));
#674=DIRECTION('',(0.,0.,1.));
#675=DIRECTION('',(1.,0.,0.));
#676=DIRECTION('',(0.,0.,1.));
#677=DIRECTION('',(1.,0.,0.));
#678=DIRECTION('',(0.,0.,1.));
#679=DIRECTION('',(1.,0.,0.));
#680=DIRECTION('',(0.,0.,1.));
#681=DIRECTION('',(1.,0.,0.));
#682=DIRECTION('',(0.,0.,-1.));
#683=DIRECTION('',(-1.,0.,0.));
#684=DIRECTION('',(0.,0.,-1.));
#685=DIRECTION('',(-1.,0.,0.));
#686=DIRECTION('',(0.,0.,-1.));
#687=DIRECTION('',(1.,0.,0.));
#688=DIRECTION('',(0.,0.,-1.));
#689=DIRECTION('',(-1.,0.,0.));
#690=DIRECTION('',(0.,0.,1.));
#691=DIRECTION('',(1.,0.,0.));
#692=DIRECTION('',(0.,0.,1.));
#693=DIRECTION('',(1.,0.,0.));
#694=DIRECTION('',(0.,0.,1.));
#695=DIRECTION('',(1.,0.,0.));
#696=DIRECTION('',(0.,0.,1.));
#697=DIRECTION('',(1.,0.,0.));
#698=DIRECTION('',(0.,0.,1.));
#699=DIRECTION('',(1.,0.,0.));
#700=DIRECTION('',(0.,0.,1.));
#701=DIRECTION('',(1.,0.,0.));
#702=DIRECTION('',(0.,0.,1.));
#703=DIRECTION('',(1.,0.,0.));
#704=DIRECTION('',(0.,0.,1.));
#705=DIRECTION('',(1.,0.,0.));
#706=DIRECTION('',(0.,0.,1.));
#707=DIRECTION('',(1.,0.,0.));
#708=DIRECTION('',(0.,0.,1.));
#709=DIRECTION('',(1.,0.,0.));
#710=CARTESIAN_POINT('',(0.,0.,0.));
#711=CARTESIAN_POINT('',(-0.00698168614282421,0.0136116861428242,0.029248));
#712=CARTESIAN_POINT('',(-0.00698168614282421,0.0136116861428242,0.02925));
#713=CARTESIAN_POINT('',(-0.00518168614282421,0.0136116861428242,0.02925));
#714=CARTESIAN_POINT('',(-0.00698168614282421,0.0136116861428242,0.04175));
#715=CARTESIAN_POINT('',(-0.00518168614282421,0.0136116861428242,0.04175));
#716=CARTESIAN_POINT('',(0.00761168614282425,-0.00098168614282426,0.029248));
#717=CARTESIAN_POINT('',(0.00761168614282425,-0.00098168614282426,0.02925));
#718=CARTESIAN_POINT('',(0.00941168614282425,-0.00098168614282426,0.02925));
#719=CARTESIAN_POINT('',(0.00761168614282425,-0.00098168614282426,0.04175));
#720=CARTESIAN_POINT('',(0.00941168614282425,-0.00098168614282426,0.04175));
#721=CARTESIAN_POINT('',(0.00663,0.01263,0.03975));
#722=CARTESIAN_POINT('',(0.00663,0.01263,0.02925));
#723=CARTESIAN_POINT('',(-0.00337,0.01263,0.02925));
#724=CARTESIAN_POINT('',(-0.00286631655136678,0.00949631655136676,0.02925));
#725=CARTESIAN_POINT('',(-0.00337,0.01263,0.03975));
#726=CARTESIAN_POINT('',(-0.00337,0.01263,0.03975));
#727=CARTESIAN_POINT('',(0.00663,0.01263,0.03975));
#728=CARTESIAN_POINT('',(-0.00286631655136678,0.00949631655136676,0.03975));
#729=CARTESIAN_POINT('',(-0.00286631655136678,0.00949631655136676,0.03975));
#730=CARTESIAN_POINT('',(-0.00337,0.01513,0.03975));
#731=CARTESIAN_POINT('',(-0.00337,0.01513,0.02925));
#732=CARTESIAN_POINT('',(-0.00337,0.01763,0.02925));
#733=CARTESIAN_POINT('',(-0.00337,0.01763,0.03975));
#734=CARTESIAN_POINT('',(-0.00337,0.01763,0.03975));
#735=CARTESIAN_POINT('',(-0.00337,0.01513,0.03975));
#736=CARTESIAN_POINT('',(-0.004685,0.01763,0.03975));
#737=CARTESIAN_POINT('',(-0.004685,0.01763,0.02925));
#738=CARTESIAN_POINT('',(-0.006,0.01763,0.02925));
#739=CARTESIAN_POINT('',(-0.006,0.01763,0.03975));
#740=CARTESIAN_POINT('',(-0.006,0.01763,0.04475));
#741=CARTESIAN_POINT('',(0.004315,0.01763,0.04475));
#742=CARTESIAN_POINT('',(0.00663,0.01763,0.04475));
#743=CARTESIAN_POINT('',(0.00663,0.01763,0.03975));
#744=CARTESIAN_POINT('',(0.00663,0.01763,0.02925));
#745=CARTESIAN_POINT('',(0.004315,0.01763,0.02925));
#746=CARTESIAN_POINT('',(0.002,0.01763,0.02925));
#747=CARTESIAN_POINT('',(0.002,0.01763,0.03975));
#748=CARTESIAN_POINT('',(0.002,0.01763,0.03975));
#749=CARTESIAN_POINT('',(0.004315,0.01763,0.03975));
#750=CARTESIAN_POINT('',(-0.006,0.01263,0.03975));
#751=CARTESIAN_POINT('',(-0.006,0.01263,0.02925));
#752=CARTESIAN_POINT('',(-0.011,0.01263,0.02925));
#753=CARTESIAN_POINT('',(-0.011,0.01263,0.03975));
#754=CARTESIAN_POINT('',(-0.011,0.01263,0.04475));
#755=CARTESIAN_POINT('',(-0.006,0.01263,0.04475));
#756=CARTESIAN_POINT('',(-0.011,0.0106451270189222,0.03975));
#757=CARTESIAN_POINT('',(-0.011,0.0106451270189222,0.02925));
#758=CARTESIAN_POINT('',(-0.011,0.0102469507659596,0.02925));
#759=CARTESIAN_POINT('',(-0.011,0.0102469507659596,0.03975));
#760=CARTESIAN_POINT('',(-0.011,0.0102469507659596,0.03975));
#761=CARTESIAN_POINT('',(-0.011,0.00433012701892219,0.03975));
#762=CARTESIAN_POINT('',(-0.011,5.61200038201565E-19,0.03975));
#763=CARTESIAN_POINT('',(-0.011,5.61200038201565E-19,0.04475));
#764=CARTESIAN_POINT('',(-0.011,5.61200038201565E-19,0.04475));
#765=CARTESIAN_POINT('',(-0.011,0.00433012701892219,0.04475));
#766=CARTESIAN_POINT('',(-0.006,-6.07153216591882E-18,0.03975));
#767=CARTESIAN_POINT('',(-0.006,-6.07153216591882E-18,0.03975));
#768=CARTESIAN_POINT('',(-0.00963636363636363,0.009315409787236,0.03975));
#769=CARTESIAN_POINT('',(-0.00963636363636363,0.009315409787236,0.03975));
#770=CARTESIAN_POINT('',(-0.00963636363636363,0.009315409787236,0.02925));
#771=CARTESIAN_POINT('',(-0.006,-6.07153216591882E-18,0.02925));
#772=CARTESIAN_POINT('',(-2.22044604925032E-16,0.00981494846117935,0.02925));
#773=CARTESIAN_POINT('',(-0.01,0.0102469507659596,0.02925));
#774=CARTESIAN_POINT('',(-0.01,0.0102469507659596,0.03975));
#775=CARTESIAN_POINT('',(-0.01,0.0102469507659596,0.03975));
#776=CARTESIAN_POINT('',(-2.22044604925032E-16,0.00981494846117935,0.03975));
#777=CARTESIAN_POINT('',(-0.006,1.71450551880629E-19,0.03975));
#778=CARTESIAN_POINT('',(-0.0032,1.71450551880629E-19,0.03975));
#779=CARTESIAN_POINT('',(0.002,0.011815,0.03975));
#780=CARTESIAN_POINT('',(0.002,0.006,0.03975));
#781=CARTESIAN_POINT('',(-0.006,5.63785129692462E-18,0.03975));
#782=CARTESIAN_POINT('',(0.00331540978723599,-0.00363636363636364,0.03975));
#783=CARTESIAN_POINT('',(0.00424695076595959,-0.004,0.03975));
#784=CARTESIAN_POINT('',(0.00424695076595959,-0.005,0.03975));
#785=CARTESIAN_POINT('',(-0.0016698729810778,-0.005,0.03975));
#786=CARTESIAN_POINT('',(-0.006,-0.005,0.03975));
#787=CARTESIAN_POINT('',(-0.006,7.14280888094984E-19,0.03975));
#788=CARTESIAN_POINT('',(0.00663,3.58175994678254E-18,0.03975));
#789=CARTESIAN_POINT('',(0.00663,3.58175994678254E-18,0.02925));
#790=CARTESIAN_POINT('',(0.01163,8.67361737988404E-19,0.02925));
#791=CARTESIAN_POINT('',(0.00663,-0.005,0.02925));
#792=CARTESIAN_POINT('',(0.01163,8.67361737988404E-19,0.03975));
#793=CARTESIAN_POINT('',(0.01163,8.67361737988404E-19,0.04475));
#794=CARTESIAN_POINT('',(0.00663,3.58175994678254E-18,0.04475));
#795=CARTESIAN_POINT('',(0.00663,-0.005,0.04475));
#796=CARTESIAN_POINT('',(0.00663,-0.005,0.03975));
#797=CARTESIAN_POINT('',(0.01163,0.00829987298107772,0.03975));
#798=CARTESIAN_POINT('',(0.01163,0.00829987298107772,0.02925));
#799=CARTESIAN_POINT('',(0.01163,0.01263,0.02925));
#800=CARTESIAN_POINT('',(0.01163,0.01263,0.03975));
#801=CARTESIAN_POINT('',(0.01163,0.01263,0.04475));
#802=CARTESIAN_POINT('',(0.01163,0.00829987298107772,0.04475));
#803=CARTESIAN_POINT('',(0.00663,0.01263,0.03975));
#804=CARTESIAN_POINT('',(0.00663,0.01263,0.02925));
#805=CARTESIAN_POINT('',(0.00663,0.01263,0.04475));
#806=CARTESIAN_POINT('',(0.002,0.011815,0.03975));
#807=CARTESIAN_POINT('',(0.002,0.011815,0.02925));
#808=CARTESIAN_POINT('',(0.002,0.006,0.02925));
#809=CARTESIAN_POINT('',(0.002,0.006,0.03975));
#810=CARTESIAN_POINT('',(-0.006,5.63785129692462E-18,0.03975));
#811=CARTESIAN_POINT('',(-0.006,5.63785129692462E-18,0.02925));
#812=CARTESIAN_POINT('',(0.00331540978723599,-0.00363636363636364,0.02925));
#813=CARTESIAN_POINT('',(0.00331540978723599,-0.00363636363636364,0.03975));
#814=CARTESIAN_POINT('',(0.00464512701892219,-0.005,0.03975));
#815=CARTESIAN_POINT('',(-0.0016698729810778,-0.005,0.04475));
#816=CARTESIAN_POINT('',(-0.006,-0.005,0.04475));
#817=CARTESIAN_POINT('',(-0.006,-0.005,0.04475));
#818=CARTESIAN_POINT('',(0.00424695076595959,-0.005,0.02925));
#819=CARTESIAN_POINT('',(0.00424695076595959,-0.005,0.02925));
#820=CARTESIAN_POINT('',(0.00464512701892219,-0.005,0.02925));
#821=CARTESIAN_POINT('',(0.00663,0.01263,0.03975));
#822=CARTESIAN_POINT('',(0.00663,0.01263,0.02925));
#823=CARTESIAN_POINT('',(0.00943,0.01263,0.02925));
#824=CARTESIAN_POINT('',(0.00663,0.01263,0.04475));
#825=CARTESIAN_POINT('',(0.00943,0.01263,0.04475));
#826=CARTESIAN_POINT('',(-2.22044604925032E-16,0.00981494846117935,0.02925));
#827=CARTESIAN_POINT('',(0.00424695076595959,-0.004,0.02925));
#828=CARTESIAN_POINT('',(0.00424695076595959,-0.004,0.03975));
#829=CARTESIAN_POINT('',(-0.006,7.14280888094984E-19,0.04475));
#830=CARTESIAN_POINT('',(-0.006,7.14280888094984E-19,0.04475));
#831=CARTESIAN_POINT('',(-0.006,1.71450551880629E-19,0.04475));
#832=CARTESIAN_POINT('',(-0.006,1.71450551880629E-19,0.04475));
#833=CARTESIAN_POINT('',(-0.0032,1.71450551880629E-19,0.04475));
#834=CARTESIAN_POINT('',(-2.22044604925032E-16,0.00981494846117935,0.04475));
#835=CARTESIAN_POINT('',(0.00761168614282425,-0.000981686142824259,0.04475));
#836=CARTESIAN_POINT('',(0.0105116861428242,-0.000981686142824259,0.04475));
#837=CARTESIAN_POINT('',(-0.00698168614282421,0.0136116861428242,0.04475));
#838=CARTESIAN_POINT('',(-0.00408168614282421,0.0136116861428242,0.04475));
#839=CARTESIAN_POINT('',(0.00761168614282425,-0.000981686142824259,0.04175));
#840=CARTESIAN_POINT('',(0.00761168614282425,-0.000981686142824259,0.04175));
#841=CARTESIAN_POINT('',(0.0105116861428242,-0.000981686142824259,0.04175));
#842=CARTESIAN_POINT('',(0.000315,0.006315,0.04175));
#843=CARTESIAN_POINT('',(-0.00698168614282421,0.0136116861428242,0.04175));
#844=CARTESIAN_POINT('',(-0.00698168614282421,0.0136116861428242,0.04175));
#845=CARTESIAN_POINT('',(-0.00408168614282421,0.0136116861428242,0.04175));
#846=CARTESIAN_POINT('',(0.000315,0.006315,0.04175));
#847=MECHANICAL_DESIGN_GEOMETRIC_PRESENTATION_REPRESENTATION('',(#492),
#848);
#848=(
GEOMETRIC_REPRESENTATION_CONTEXT(3)
GLOBAL_UNCERTAINTY_ASSIGNED_CONTEXT((#849))
GLOBAL_UNIT_ASSIGNED_CONTEXT((#852,#851,#850))
REPRESENTATION_CONTEXT('Left Upper Cart Upper Mold',
'TOP_LEVEL_ASSEMBLY_PART')
);
#849=UNCERTAINTY_MEASURE_WITH_UNIT(LENGTH_MEASURE(1.E-8),#852,
'DISTANCE_ACCURACY_VALUE','Maximum Tolerance applied to model');
#850=(
NAMED_UNIT(*)
SI_UNIT($,.STERADIAN.)
SOLID_ANGLE_UNIT()
);
#851=(
NAMED_UNIT(*)
PLANE_ANGLE_UNIT()
SI_UNIT($,.RADIAN.)
);
#852=(
LENGTH_UNIT()
NAMED_UNIT(*)
SI_UNIT($,.METRE.)
);
#853=PRODUCT_DEFINITION_SHAPE('','',#854);
#854=PRODUCT_DEFINITION('','',#856,#855);
#855=PRODUCT_DEFINITION_CONTEXT('',#862,'design');
#856=PRODUCT_DEFINITION_FORMATION_WITH_SPECIFIED_SOURCE('','',#858,
 .NOT_KNOWN.);
#857=PRODUCT_RELATED_PRODUCT_CATEGORY('','',(#858));
#858=PRODUCT('Left Upper Cart Upper Mold','Left Upper Cart Upper Mold',
'Left Upper Cart Upper Mold',(#860));
#859=PRODUCT_CATEGORY('','');
#860=PRODUCT_CONTEXT('',#862,'mechanical');
#861=APPLICATION_PROTOCOL_DEFINITION('international standard',
'automotive_design',2010,#862);
#862=APPLICATION_CONTEXT(
'core data for automotive mechanical design processes');
ENDSEC;
END-ISO-10303-21;
