ISO-10303-21;
HEADER;
/* Generated by software containing ST-Developer
 * from STEP Tools, Inc. (www.steptools.com) 
 */
/* OPTION: using custom renumber hook */

FILE_DESCRIPTION(
/* description */ ('STEP AP214',
'CAx-IF Rec.Pracs.---User Defined Attributes---1.5---2016-08-15'),
/* implementation_level */ '2;1');

FILE_NAME(
/* name */ '6a95da1cd62aea1f59760a7f',
/* time_stamp */ '2026-08-31T19:46:37Z',
/* author */ (''),
/* organization */ (''),
/* preprocessor_version */ 'ST-DEVELOPER v20',
/* originating_system */ 'ONSHAPE BY PTC INC, 1.220',
/* authorisation */ '  ');

FILE_SCHEMA (('AUTOMOTIVE_DESIGN {1 0 10303 214 3 1 1}'));
ENDSEC;

DATA;
#10=PROPERTY_DEFINITION_REPRESENTATION(#14,#12);
#11=PROPERTY_DEFINITION_REPRESENTATION(#15,#13);
#12=REPRESENTATION('',(#16),#325);
#13=REPRESENTATION('',(#17),#325);
#14=PROPERTY_DEFINITION('pmi validation property','',#330);
#15=PROPERTY_DEFINITION('pmi validation property','',#330);
#16=VALUE_REPRESENTATION_ITEM('number of annotations',COUNT_MEASURE(0.));
#17=VALUE_REPRESENTATION_ITEM('number of views',COUNT_MEASURE(0.));
#18=SHAPE_REPRESENTATION_RELATIONSHIP('','',#207,#19);
#19=ADVANCED_BREP_SHAPE_REPRESENTATION('',(#205),#325);
#20=LINE('',#281,#38);
#21=LINE('',#284,#39);
#22=LINE('',#286,#40);
#23=LINE('',#288,#41);
#24=LINE('',#290,#42);
#25=LINE('',#292,#43);
#26=LINE('',#294,#44);
#27=LINE('',#296,#45);
#28=LINE('',#298,#46);
#29=LINE('',#300,#47);
#30=LINE('',#302,#48);
#31=LINE('',#304,#49);
#32=LINE('',#306,#50);
#33=LINE('',#308,#51);
#34=LINE('',#310,#52);
#35=LINE('',#312,#53);
#36=LINE('',#314,#54);
#37=LINE('',#315,#55);
#38=VECTOR('',#234,1.);
#39=VECTOR('',#235,1.);
#40=VECTOR('',#236,1.);
#41=VECTOR('',#237,1.);
#42=VECTOR('',#240,1.);
#43=VECTOR('',#241,1.);
#44=VECTOR('',#242,1.);
#45=VECTOR('',#245,1.);
#46=VECTOR('',#246,1.);
#47=VECTOR('',#247,1.);
#48=VECTOR('',#250,1.);
#49=VECTOR('',#251,1.);
#50=VECTOR('',#252,1.);
#51=VECTOR('',#255,1.);
#52=VECTOR('',#256,1.);
#53=VECTOR('',#257,1.);
#54=VECTOR('',#260,1.);
#55=VECTOR('',#261,1.);
#56=PLANE('',#212);
#57=PLANE('',#213);
#58=PLANE('',#214);
#59=PLANE('',#215);
#60=PLANE('',#216);
#61=PLANE('',#217);
#62=PLANE('',#218);
#63=PLANE('',#219);
#64=PLANE('',#223);
#65=ORIENTED_EDGE('',*,*,#109,.T.);
#66=ORIENTED_EDGE('',*,*,#110,.T.);
#67=ORIENTED_EDGE('',*,*,#111,.T.);
#68=ORIENTED_EDGE('',*,*,#112,.F.);
#69=ORIENTED_EDGE('',*,*,#113,.F.);
#70=ORIENTED_EDGE('',*,*,#114,.T.);
#71=ORIENTED_EDGE('',*,*,#115,.T.);
#72=ORIENTED_EDGE('',*,*,#116,.F.);
#73=ORIENTED_EDGE('',*,*,#117,.F.);
#74=ORIENTED_EDGE('',*,*,#112,.T.);
#75=ORIENTED_EDGE('',*,*,#118,.T.);
#76=ORIENTED_EDGE('',*,*,#119,.F.);
#77=ORIENTED_EDGE('',*,*,#120,.F.);
#78=ORIENTED_EDGE('',*,*,#116,.T.);
#79=ORIENTED_EDGE('',*,*,#121,.T.);
#80=ORIENTED_EDGE('',*,*,#122,.F.);
#81=ORIENTED_EDGE('',*,*,#123,.F.);
#82=ORIENTED_EDGE('',*,*,#119,.T.);
#83=ORIENTED_EDGE('',*,*,#124,.T.);
#84=ORIENTED_EDGE('',*,*,#125,.F.);
#85=ORIENTED_EDGE('',*,*,#126,.F.);
#86=ORIENTED_EDGE('',*,*,#122,.T.);
#87=ORIENTED_EDGE('',*,*,#127,.T.);
#88=ORIENTED_EDGE('',*,*,#114,.F.);
#89=ORIENTED_EDGE('',*,*,#128,.F.);
#90=ORIENTED_EDGE('',*,*,#125,.T.);
#91=ORIENTED_EDGE('',*,*,#109,.F.);
#92=ORIENTED_EDGE('',*,*,#113,.T.);
#93=ORIENTED_EDGE('',*,*,#117,.T.);
#94=ORIENTED_EDGE('',*,*,#120,.T.);
#95=ORIENTED_EDGE('',*,*,#123,.T.);
#96=ORIENTED_EDGE('',*,*,#126,.T.);
#97=ORIENTED_EDGE('',*,*,#128,.T.);
#98=ORIENTED_EDGE('',*,*,#129,.F.);
#99=ORIENTED_EDGE('',*,*,#111,.F.);
#100=ORIENTED_EDGE('',*,*,#127,.F.);
#101=ORIENTED_EDGE('',*,*,#124,.F.);
#102=ORIENTED_EDGE('',*,*,#121,.F.);
#103=ORIENTED_EDGE('',*,*,#118,.F.);
#104=ORIENTED_EDGE('',*,*,#115,.F.);
#105=ORIENTED_EDGE('',*,*,#130,.F.);
#106=ORIENTED_EDGE('',*,*,#129,.T.);
#107=ORIENTED_EDGE('',*,*,#110,.F.);
#108=ORIENTED_EDGE('',*,*,#130,.T.);
#109=EDGE_CURVE('',#131,#131,#147,.T.);
#110=EDGE_CURVE('',#132,#132,#148,.T.);
#111=EDGE_CURVE('',#133,#134,#20,.T.);
#112=EDGE_CURVE('',#135,#134,#21,.T.);
#113=EDGE_CURVE('',#136,#135,#22,.T.);
#114=EDGE_CURVE('',#136,#133,#23,.T.);
#115=EDGE_CURVE('',#134,#137,#24,.T.);
#116=EDGE_CURVE('',#138,#137,#25,.T.);
#117=EDGE_CURVE('',#135,#138,#26,.T.);
#118=EDGE_CURVE('',#137,#139,#27,.T.);
#119=EDGE_CURVE('',#140,#139,#28,.T.);
#120=EDGE_CURVE('',#138,#140,#29,.T.);
#121=EDGE_CURVE('',#139,#141,#30,.T.);
#122=EDGE_CURVE('',#142,#141,#31,.T.);
#123=EDGE_CURVE('',#140,#142,#32,.T.);
#124=EDGE_CURVE('',#141,#143,#33,.T.);
#125=EDGE_CURVE('',#144,#143,#34,.T.);
#126=EDGE_CURVE('',#142,#144,#35,.T.);
#127=EDGE_CURVE('',#143,#133,#36,.T.);
#128=EDGE_CURVE('',#144,#136,#37,.T.);
#129=EDGE_CURVE('',#145,#145,#149,.T.);
#130=EDGE_CURVE('',#146,#146,#150,.T.);
#131=VERTEX_POINT('',#277);
#132=VERTEX_POINT('',#279);
#133=VERTEX_POINT('',#282);
#134=VERTEX_POINT('',#283);
#135=VERTEX_POINT('',#285);
#136=VERTEX_POINT('',#287);
#137=VERTEX_POINT('',#291);
#138=VERTEX_POINT('',#293);
#139=VERTEX_POINT('',#297);
#140=VERTEX_POINT('',#299);
#141=VERTEX_POINT('',#303);
#142=VERTEX_POINT('',#305);
#143=VERTEX_POINT('',#309);
#144=VERTEX_POINT('',#311);
#145=VERTEX_POINT('',#319);
#146=VERTEX_POINT('',#322);
#147=CIRCLE('',#210,0.0016);
#148=CIRCLE('',#211,0.0016);
#149=CIRCLE('',#220,0.002);
#150=CIRCLE('',#222,0.002);
#151=EDGE_LOOP('',(#65));
#152=EDGE_LOOP('',(#66));
#153=EDGE_LOOP('',(#67,#68,#69,#70));
#154=EDGE_LOOP('',(#71,#72,#73,#74));
#155=EDGE_LOOP('',(#75,#76,#77,#78));
#156=EDGE_LOOP('',(#79,#80,#81,#82));
#157=EDGE_LOOP('',(#83,#84,#85,#86));
#158=EDGE_LOOP('',(#87,#88,#89,#90));
#159=EDGE_LOOP('',(#91));
#160=EDGE_LOOP('',(#92,#93,#94,#95,#96,#97));
#161=EDGE_LOOP('',(#98));
#162=EDGE_LOOP('',(#99,#100,#101,#102,#103,#104));
#163=EDGE_LOOP('',(#105));
#164=EDGE_LOOP('',(#106));
#165=EDGE_LOOP('',(#107));
#166=EDGE_LOOP('',(#108));
#167=FACE_BOUND('',#151,.T.);
#168=FACE_BOUND('',#152,.T.);
#169=FACE_BOUND('',#153,.T.);
#170=FACE_BOUND('',#154,.T.);
#171=FACE_BOUND('',#155,.T.);
#172=FACE_BOUND('',#156,.T.);
#173=FACE_BOUND('',#157,.T.);
#174=FACE_BOUND('',#158,.T.);
#175=FACE_BOUND('',#159,.T.);
#176=FACE_BOUND('',#160,.T.);
#177=FACE_BOUND('',#161,.T.);
#178=FACE_BOUND('',#162,.T.);
#179=FACE_BOUND('',#163,.T.);
#180=FACE_BOUND('',#164,.T.);
#181=FACE_BOUND('',#165,.T.);
#182=FACE_BOUND('',#166,.T.);
#183=CYLINDRICAL_SURFACE('',#209,0.0016);
#184=CYLINDRICAL_SURFACE('',#221,0.002);
#185=ADVANCED_FACE('',(#167,#168),#183,.F.);
#186=ADVANCED_FACE('',(#169),#56,.F.);
#187=ADVANCED_FACE('',(#170),#57,.F.);
#188=ADVANCED_FACE('',(#171),#58,.F.);
#189=ADVANCED_FACE('',(#172),#59,.F.);
#190=ADVANCED_FACE('',(#173),#60,.F.);
#191=ADVANCED_FACE('',(#174),#61,.F.);
#192=ADVANCED_FACE('',(#175,#176),#62,.T.);
#193=ADVANCED_FACE('',(#177,#178),#63,.F.);
#194=ADVANCED_FACE('',(#179,#180),#184,.F.);
#195=ADVANCED_FACE('',(#181,#182),#64,.T.);
#196=CLOSED_SHELL('',(#185,#186,#187,#188,#189,#190,#191,#192,#193,#194,
#195));
#197=STYLED_ITEM('',(#198),#205);
#198=PRESENTATION_STYLE_ASSIGNMENT((#199));
#199=SURFACE_STYLE_USAGE(.BOTH.,#200);
#200=SURFACE_SIDE_STYLE('',(#201));
#201=SURFACE_STYLE_FILL_AREA(#202);
#202=FILL_AREA_STYLE('',(#203));
#203=FILL_AREA_STYLE_COLOUR('',#204);
#204=COLOUR_RGB('',0.615686274509804,0.811764705882353,0.929411764705882);
#205=MANIFOLD_SOLID_BREP('Part 1',#196);
#206=SHAPE_DEFINITION_REPRESENTATION(#330,#207);
#207=SHAPE_REPRESENTATION('Part 1',(#208),#325);
#208=AXIS2_PLACEMENT_3D('',#274,#224,#225);
#209=AXIS2_PLACEMENT_3D('',#275,#226,#227);
#210=AXIS2_PLACEMENT_3D('',#276,#228,#229);
#211=AXIS2_PLACEMENT_3D('',#278,#230,#231);
#212=AXIS2_PLACEMENT_3D('',#280,#232,#233);
#213=AXIS2_PLACEMENT_3D('',#289,#238,#239);
#214=AXIS2_PLACEMENT_3D('',#295,#243,#244);
#215=AXIS2_PLACEMENT_3D('',#301,#248,#249);
#216=AXIS2_PLACEMENT_3D('',#307,#253,#254);
#217=AXIS2_PLACEMENT_3D('',#313,#258,#259);
#218=AXIS2_PLACEMENT_3D('',#316,#262,#263);
#219=AXIS2_PLACEMENT_3D('',#317,#264,#265);
#220=AXIS2_PLACEMENT_3D('',#318,#266,#267);
#221=AXIS2_PLACEMENT_3D('',#320,#268,#269);
#222=AXIS2_PLACEMENT_3D('',#321,#270,#271);
#223=AXIS2_PLACEMENT_3D('',#323,#272,#273);
#224=DIRECTION('',(0.,0.,1.));
#225=DIRECTION('',(1.,0.,0.));
#226=DIRECTION('',(0.,0.,-1.));
#227=DIRECTION('',(-1.,0.,0.));
#228=DIRECTION('',(0.,0.,1.));
#229=DIRECTION('',(1.,0.,0.));
#230=DIRECTION('',(0.,0.,-1.));
#231=DIRECTION('',(-1.,0.,0.));
#232=DIRECTION('',(-0.866025403784439,-0.5,0.));
#233=DIRECTION('',(0.5,-0.866025403784439,0.));
#234=DIRECTION('',(-0.5,0.866025403784439,0.));
#235=DIRECTION('',(0.,0.,-1.));
#236=DIRECTION('',(-0.5,0.866025403784439,0.));
#237=DIRECTION('',(0.,0.,-1.));
#238=DIRECTION('',(0.,-1.,0.));
#239=DIRECTION('',(0.,0.,-1.));
#240=DIRECTION('',(-1.,0.,0.));
#241=DIRECTION('',(0.,0.,-1.));
#242=DIRECTION('',(-1.,0.,0.));
#243=DIRECTION('',(0.866025403784439,-0.5,0.));
#244=DIRECTION('',(0.5,0.866025403784439,0.));
#245=DIRECTION('',(-0.5,-0.866025403784439,0.));
#246=DIRECTION('',(0.,0.,-1.));
#247=DIRECTION('',(-0.5,-0.866025403784439,0.));
#248=DIRECTION('',(0.866025403784439,0.5,0.));
#249=DIRECTION('',(-0.5,0.866025403784439,0.));
#250=DIRECTION('',(0.5,-0.866025403784439,0.));
#251=DIRECTION('',(0.,0.,-1.));
#252=DIRECTION('',(0.5,-0.866025403784439,0.));
#253=DIRECTION('',(2.17726753440168E-16,1.,0.));
#254=DIRECTION('',(-1.,2.17726753440168E-16,0.));
#255=DIRECTION('',(1.,-2.17726753440168E-16,0.));
#256=DIRECTION('',(0.,0.,-1.));
#257=DIRECTION('',(1.,-2.17726753440168E-16,0.));
#258=DIRECTION('',(-0.866025403784438,0.5,0.));
#259=DIRECTION('',(-0.5,-0.866025403784438,0.));
#260=DIRECTION('',(0.5,0.866025403784438,0.));
#261=DIRECTION('',(0.5,0.866025403784438,0.));
#262=DIRECTION('',(0.,0.,1.));
#263=DIRECTION('',(1.,0.,0.));
#264=DIRECTION('',(0.,0.,1.));
#265=DIRECTION('',(1.,0.,0.));
#266=DIRECTION('',(0.,0.,-1.));
#267=DIRECTION('',(-1.,0.,0.));
#268=DIRECTION('',(0.,0.,-1.));
#269=DIRECTION('',(-1.,0.,0.));
#270=DIRECTION('',(0.,0.,-1.));
#271=DIRECTION('',(-1.,0.,0.));
#272=DIRECTION('',(0.,0.,-1.));
#273=DIRECTION('',(1.,0.,0.));
#274=CARTESIAN_POINT('',(0.,0.,0.));
#275=CARTESIAN_POINT('',(0.,9.79717439317883E-20,0.06));
#276=CARTESIAN_POINT('',(0.,9.79717439317883E-20,0.06));
#277=CARTESIAN_POINT('',(0.0016,9.79717439317883E-20,0.06));
#278=CARTESIAN_POINT('',(0.,9.79717439317883E-20,0.01));
#279=CARTESIAN_POINT('',(-0.0016,9.79717439317883E-20,0.01));
#280=CARTESIAN_POINT('',(0.00298778764305632,0.001725,0.06));
#281=CARTESIAN_POINT('',(0.00298778764305632,0.001725,0.));
#282=CARTESIAN_POINT('',(0.00398371685740842,-6.50521303491303E-19,0.));
#283=CARTESIAN_POINT('',(0.00199185842870421,0.00345,0.));
#284=CARTESIAN_POINT('',(0.00199185842870421,0.00345,0.06));
#285=CARTESIAN_POINT('',(0.00199185842870421,0.00345,0.06));
#286=CARTESIAN_POINT('',(0.00298778764305632,0.001725,0.06));
#287=CARTESIAN_POINT('',(0.00398371685740842,-6.50521303491303E-19,0.06));
#288=CARTESIAN_POINT('',(0.00398371685740842,-6.50521303491303E-19,0.06));
#289=CARTESIAN_POINT('',(0.,0.00345,0.06));
#290=CARTESIAN_POINT('',(0.,0.00345,0.));
#291=CARTESIAN_POINT('',(-0.00199185842870421,0.00345,0.));
#292=CARTESIAN_POINT('',(-0.00199185842870421,0.00345,0.06));
#293=CARTESIAN_POINT('',(-0.00199185842870421,0.00345,0.06));
#294=CARTESIAN_POINT('',(0.,0.00345,0.06));
#295=CARTESIAN_POINT('',(-0.00298778764305632,0.001725,0.06));
#296=CARTESIAN_POINT('',(-0.00298778764305632,0.001725,0.));
#297=CARTESIAN_POINT('',(-0.00398371685740842,1.0842021724855E-18,0.));
#298=CARTESIAN_POINT('',(-0.00398371685740842,1.0842021724855E-18,0.06));
#299=CARTESIAN_POINT('',(-0.00398371685740842,1.0842021724855E-18,0.06));
#300=CARTESIAN_POINT('',(-0.00298778764305632,0.001725,0.06));
#301=CARTESIAN_POINT('',(-0.00298778764305632,-0.001725,0.06));
#302=CARTESIAN_POINT('',(-0.00298778764305632,-0.001725,0.));
#303=CARTESIAN_POINT('',(-0.00199185842870421,-0.00345,0.));
#304=CARTESIAN_POINT('',(-0.00199185842870421,-0.00345,0.06));
#305=CARTESIAN_POINT('',(-0.00199185842870421,-0.00345,0.06));
#306=CARTESIAN_POINT('',(-0.00298778764305632,-0.001725,0.06));
#307=CARTESIAN_POINT('',(-4.33680868994202E-19,-0.00345,0.06));
#308=CARTESIAN_POINT('',(-4.33680868994202E-19,-0.00345,0.));
#309=CARTESIAN_POINT('',(0.0019918584287042,-0.00345,0.));
#310=CARTESIAN_POINT('',(0.0019918584287042,-0.00345,0.06));
#311=CARTESIAN_POINT('',(0.0019918584287042,-0.00345,0.06));
#312=CARTESIAN_POINT('',(-4.33680868994202E-19,-0.00345,0.06));
#313=CARTESIAN_POINT('',(0.00298778764305632,-0.001725,0.06));
#314=CARTESIAN_POINT('',(0.00298778764305632,-0.001725,0.));
#315=CARTESIAN_POINT('',(0.00298778764305632,-0.001725,0.06));
#316=CARTESIAN_POINT('',(0.,0.,0.06));
#317=CARTESIAN_POINT('',(0.,0.,0.));
#318=CARTESIAN_POINT('',(0.,-1.22464679914735E-19,0.));
#319=CARTESIAN_POINT('',(-0.002,-1.22464679914735E-19,0.));
#320=CARTESIAN_POINT('',(0.,-1.22464679914735E-19,0.01));
#321=CARTESIAN_POINT('',(0.,-1.22464679914735E-19,0.01));
#322=CARTESIAN_POINT('',(-0.002,-1.22464679914735E-19,0.01));
#323=CARTESIAN_POINT('',(0.,8.67361737988404E-19,0.01));
#324=MECHANICAL_DESIGN_GEOMETRIC_PRESENTATION_REPRESENTATION('',(#197),
#325);
#325=(
GEOMETRIC_REPRESENTATION_CONTEXT(3)
GLOBAL_UNCERTAINTY_ASSIGNED_CONTEXT((#326))
GLOBAL_UNIT_ASSIGNED_CONTEXT((#329,#328,#327))
REPRESENTATION_CONTEXT('Part 1','TOP_LEVEL_ASSEMBLY_PART')
);
#326=UNCERTAINTY_MEASURE_WITH_UNIT(LENGTH_MEASURE(1.E-8),#329,
'DISTANCE_ACCURACY_VALUE','Maximum Tolerance applied to model');
#327=(
NAMED_UNIT(*)
SI_UNIT($,.STERADIAN.)
SOLID_ANGLE_UNIT()
);
#328=(
NAMED_UNIT(*)
PLANE_ANGLE_UNIT()
SI_UNIT($,.RADIAN.)
);
#329=(
LENGTH_UNIT()
NAMED_UNIT(*)
SI_UNIT($,.METRE.)
);
#330=PRODUCT_DEFINITION_SHAPE('','',#331);
#331=PRODUCT_DEFINITION('','',#333,#332);
#332=PRODUCT_DEFINITION_CONTEXT('',#339,'design');
#333=PRODUCT_DEFINITION_FORMATION_WITH_SPECIFIED_SOURCE('','',#335,
 .NOT_KNOWN.);
#334=PRODUCT_RELATED_PRODUCT_CATEGORY('','',(#335));
#335=PRODUCT('Part 1','Part 1','Part 1',(#337));
#336=PRODUCT_CATEGORY('','');
#337=PRODUCT_CONTEXT('',#339,'mechanical');
#338=APPLICATION_PROTOCOL_DEFINITION('international standard',
'automotive_design',2010,#339);
#339=APPLICATION_CONTEXT(
'core data for automotive mechanical design processes');
ENDSEC;
END-ISO-10303-21;
