ISO-10303-21;
HEADER;
/* Generated by software containing ST-Developer
 * from STEP Tools, Inc. (www.steptools.com) 
 */
/* OPTION: using custom renumber hook */

FILE_DESCRIPTION(
/* description */ ('STEP AP214',
'CAx-IF Rec.Pracs.---User Defined Attributes---1.5---2016-08-15'),
/* implementation_level */ '2;1');

FILE_NAME(
/* name */ '6a95da2bd62aea1f59761572',
/* time_stamp */ '2026-08-31T19:46:51Z',
/* author */ (''),
/* organization */ (''),
/* preprocessor_version */ 'ST-DEVELOPER v20',
/* originating_system */ 'ONSHAPE BY PTC INC, 1.220',
/* authorisation */ '  ');

FILE_SCHEMA (('AUTOMOTIVE_DESIGN {1 0 10303 214 3 1 1}'));
ENDSEC;

DATA;
#10=PROPERTY_DEFINITION_REPRESENTATION(#14,#12);
#11=PROPERTY_DEFINITION_REPRESENTATION(#15,#13);
#12=REPRESENTATION('',(#16),#826);
#13=REPRESENTATION('',(#17),#826);
#14=PROPERTY_DEFINITION('pmi validation property','',#831);
#15=PROPERTY_DEFINITION('pmi validation property','',#831);
#16=VALUE_REPRESENTATION_ITEM('number of annotations',COUNT_MEASURE(0.));
#17=VALUE_REPRESENTATION_ITEM('number of views',COUNT_MEASURE(0.));
#18=SHAPE_REPRESENTATION_RELATIONSHIP('','',#532,#19);
#19=ADVANCED_BREP_SHAPE_REPRESENTATION('',(#530),#826);
#20=CYLINDRICAL_SURFACE('',#557,0.00398371685740842);
#21=CIRCLE('',#540,0.00398371685740842);
#22=CIRCLE('',#554,0.00398371685740842);
#23=ORIENTED_EDGE('',*,*,#161,.F.);
#24=ORIENTED_EDGE('',*,*,#162,.T.);
#25=ORIENTED_EDGE('',*,*,#163,.T.);
#26=ORIENTED_EDGE('',*,*,#164,.T.);
#27=ORIENTED_EDGE('',*,*,#165,.T.);
#28=ORIENTED_EDGE('',*,*,#166,.T.);
#29=ORIENTED_EDGE('',*,*,#167,.T.);
#30=ORIENTED_EDGE('',*,*,#168,.F.);
#31=ORIENTED_EDGE('',*,*,#169,.F.);
#32=ORIENTED_EDGE('',*,*,#170,.F.);
#33=ORIENTED_EDGE('',*,*,#171,.F.);
#34=ORIENTED_EDGE('',*,*,#172,.F.);
#35=ORIENTED_EDGE('',*,*,#173,.T.);
#36=ORIENTED_EDGE('',*,*,#174,.T.);
#37=ORIENTED_EDGE('',*,*,#175,.T.);
#38=ORIENTED_EDGE('',*,*,#176,.T.);
#39=ORIENTED_EDGE('',*,*,#177,.T.);
#40=ORIENTED_EDGE('',*,*,#178,.F.);
#41=ORIENTED_EDGE('',*,*,#179,.T.);
#42=ORIENTED_EDGE('',*,*,#180,.T.);
#43=ORIENTED_EDGE('',*,*,#181,.F.);
#44=ORIENTED_EDGE('',*,*,#182,.F.);
#45=ORIENTED_EDGE('',*,*,#183,.F.);
#46=ORIENTED_EDGE('',*,*,#184,.F.);
#47=ORIENTED_EDGE('',*,*,#173,.F.);
#48=ORIENTED_EDGE('',*,*,#185,.F.);
#49=ORIENTED_EDGE('',*,*,#186,.T.);
#50=ORIENTED_EDGE('',*,*,#187,.T.);
#51=ORIENTED_EDGE('',*,*,#176,.F.);
#52=ORIENTED_EDGE('',*,*,#188,.F.);
#53=ORIENTED_EDGE('',*,*,#189,.T.);
#54=ORIENTED_EDGE('',*,*,#185,.T.);
#55=ORIENTED_EDGE('',*,*,#175,.F.);
#56=ORIENTED_EDGE('',*,*,#190,.F.);
#57=ORIENTED_EDGE('',*,*,#191,.T.);
#58=ORIENTED_EDGE('',*,*,#188,.T.);
#59=ORIENTED_EDGE('',*,*,#192,.T.);
#60=ORIENTED_EDGE('',*,*,#168,.T.);
#61=ORIENTED_EDGE('',*,*,#193,.F.);
#62=ORIENTED_EDGE('',*,*,#194,.F.);
#63=ORIENTED_EDGE('',*,*,#195,.F.);
#64=ORIENTED_EDGE('',*,*,#172,.T.);
#65=ORIENTED_EDGE('',*,*,#196,.F.);
#66=ORIENTED_EDGE('',*,*,#197,.F.);
#67=ORIENTED_EDGE('',*,*,#198,.F.);
#68=ORIENTED_EDGE('',*,*,#199,.F.);
#69=ORIENTED_EDGE('',*,*,#200,.F.);
#70=ORIENTED_EDGE('',*,*,#196,.T.);
#71=ORIENTED_EDGE('',*,*,#171,.T.);
#72=ORIENTED_EDGE('',*,*,#201,.F.);
#73=ORIENTED_EDGE('',*,*,#202,.F.);
#74=ORIENTED_EDGE('',*,*,#201,.T.);
#75=ORIENTED_EDGE('',*,*,#170,.T.);
#76=ORIENTED_EDGE('',*,*,#203,.F.);
#77=ORIENTED_EDGE('',*,*,#204,.F.);
#78=ORIENTED_EDGE('',*,*,#177,.F.);
#79=ORIENTED_EDGE('',*,*,#205,.F.);
#80=ORIENTED_EDGE('',*,*,#206,.T.);
#81=ORIENTED_EDGE('',*,*,#207,.T.);
#82=ORIENTED_EDGE('',*,*,#180,.F.);
#83=ORIENTED_EDGE('',*,*,#208,.F.);
#84=ORIENTED_EDGE('',*,*,#209,.T.);
#85=ORIENTED_EDGE('',*,*,#205,.T.);
#86=ORIENTED_EDGE('',*,*,#179,.F.);
#87=ORIENTED_EDGE('',*,*,#210,.F.);
#88=ORIENTED_EDGE('',*,*,#211,.T.);
#89=ORIENTED_EDGE('',*,*,#208,.T.);
#90=ORIENTED_EDGE('',*,*,#203,.T.);
#91=ORIENTED_EDGE('',*,*,#169,.T.);
#92=ORIENTED_EDGE('',*,*,#192,.F.);
#93=ORIENTED_EDGE('',*,*,#212,.F.);
#94=ORIENTED_EDGE('',*,*,#178,.T.);
#95=ORIENTED_EDGE('',*,*,#207,.F.);
#96=ORIENTED_EDGE('',*,*,#213,.F.);
#97=ORIENTED_EDGE('',*,*,#210,.T.);
#98=ORIENTED_EDGE('',*,*,#174,.F.);
#99=ORIENTED_EDGE('',*,*,#187,.F.);
#100=ORIENTED_EDGE('',*,*,#214,.T.);
#101=ORIENTED_EDGE('',*,*,#190,.T.);
#102=ORIENTED_EDGE('',*,*,#206,.F.);
#103=ORIENTED_EDGE('',*,*,#209,.F.);
#104=ORIENTED_EDGE('',*,*,#211,.F.);
#105=ORIENTED_EDGE('',*,*,#213,.T.);
#106=ORIENTED_EDGE('',*,*,#197,.T.);
#107=ORIENTED_EDGE('',*,*,#202,.T.);
#108=ORIENTED_EDGE('',*,*,#204,.T.);
#109=ORIENTED_EDGE('',*,*,#212,.T.);
#110=ORIENTED_EDGE('',*,*,#186,.F.);
#111=ORIENTED_EDGE('',*,*,#189,.F.);
#112=ORIENTED_EDGE('',*,*,#191,.F.);
#113=ORIENTED_EDGE('',*,*,#214,.F.);
#114=ORIENTED_EDGE('',*,*,#181,.T.);
#115=ORIENTED_EDGE('',*,*,#215,.F.);
#116=ORIENTED_EDGE('',*,*,#165,.F.);
#117=ORIENTED_EDGE('',*,*,#216,.T.);
#118=ORIENTED_EDGE('',*,*,#182,.T.);
#119=ORIENTED_EDGE('',*,*,#216,.F.);
#120=ORIENTED_EDGE('',*,*,#164,.F.);
#121=ORIENTED_EDGE('',*,*,#217,.T.);
#122=ORIENTED_EDGE('',*,*,#183,.T.);
#123=ORIENTED_EDGE('',*,*,#217,.F.);
#124=ORIENTED_EDGE('',*,*,#163,.F.);
#125=ORIENTED_EDGE('',*,*,#218,.T.);
#126=ORIENTED_EDGE('',*,*,#184,.T.);
#127=ORIENTED_EDGE('',*,*,#218,.F.);
#128=ORIENTED_EDGE('',*,*,#162,.F.);
#129=ORIENTED_EDGE('',*,*,#219,.F.);
#130=ORIENTED_EDGE('',*,*,#220,.F.);
#131=ORIENTED_EDGE('',*,*,#221,.F.);
#132=ORIENTED_EDGE('',*,*,#166,.F.);
#133=ORIENTED_EDGE('',*,*,#215,.T.);
#134=ORIENTED_EDGE('',*,*,#222,.F.);
#135=ORIENTED_EDGE('',*,*,#223,.F.);
#136=ORIENTED_EDGE('',*,*,#224,.F.);
#137=ORIENTED_EDGE('',*,*,#225,.F.);
#138=ORIENTED_EDGE('',*,*,#222,.T.);
#139=ORIENTED_EDGE('',*,*,#226,.T.);
#140=ORIENTED_EDGE('',*,*,#200,.T.);
#141=ORIENTED_EDGE('',*,*,#227,.F.);
#142=ORIENTED_EDGE('',*,*,#223,.T.);
#143=ORIENTED_EDGE('',*,*,#225,.T.);
#144=ORIENTED_EDGE('',*,*,#199,.T.);
#145=ORIENTED_EDGE('',*,*,#226,.F.);
#146=ORIENTED_EDGE('',*,*,#224,.T.);
#147=ORIENTED_EDGE('',*,*,#227,.T.);
#148=ORIENTED_EDGE('',*,*,#198,.T.);
#149=ORIENTED_EDGE('',*,*,#228,.F.);
#150=ORIENTED_EDGE('',*,*,#220,.T.);
#151=ORIENTED_EDGE('',*,*,#229,.T.);
#152=ORIENTED_EDGE('',*,*,#194,.T.);
#153=ORIENTED_EDGE('',*,*,#167,.F.);
#154=ORIENTED_EDGE('',*,*,#221,.T.);
#155=ORIENTED_EDGE('',*,*,#228,.T.);
#156=ORIENTED_EDGE('',*,*,#193,.T.);
#157=ORIENTED_EDGE('',*,*,#229,.F.);
#158=ORIENTED_EDGE('',*,*,#219,.T.);
#159=ORIENTED_EDGE('',*,*,#161,.T.);
#160=ORIENTED_EDGE('',*,*,#195,.T.);
#161=EDGE_CURVE('',#230,#231,#276,.T.);
#162=EDGE_CURVE('',#230,#232,#277,.T.);
#163=EDGE_CURVE('',#232,#233,#278,.T.);
#164=EDGE_CURVE('',#233,#234,#279,.T.);
#165=EDGE_CURVE('',#234,#235,#280,.T.);
#166=EDGE_CURVE('',#235,#236,#281,.T.);
#167=EDGE_CURVE('',#236,#237,#282,.T.);
#168=EDGE_CURVE('',#238,#237,#283,.T.);
#169=EDGE_CURVE('',#239,#238,#284,.T.);
#170=EDGE_CURVE('',#240,#239,#285,.T.);
#171=EDGE_CURVE('',#241,#240,#286,.T.);
#172=EDGE_CURVE('',#231,#241,#287,.T.);
#173=EDGE_CURVE('',#242,#243,#288,.T.);
#174=EDGE_CURVE('',#243,#244,#289,.T.);
#175=EDGE_CURVE('',#244,#245,#290,.T.);
#176=EDGE_CURVE('',#245,#242,#291,.T.);
#177=EDGE_CURVE('',#246,#247,#292,.T.);
#178=EDGE_CURVE('',#248,#247,#293,.T.);
#179=EDGE_CURVE('',#248,#249,#294,.T.);
#180=EDGE_CURVE('',#249,#246,#295,.T.);
#181=EDGE_CURVE('',#250,#251,#296,.T.);
#182=EDGE_CURVE('',#252,#250,#297,.T.);
#183=EDGE_CURVE('',#253,#252,#298,.T.);
#184=EDGE_CURVE('',#251,#253,#299,.T.);
#185=EDGE_CURVE('',#254,#242,#300,.T.);
#186=EDGE_CURVE('',#254,#255,#301,.T.);
#187=EDGE_CURVE('',#255,#243,#302,.T.);
#188=EDGE_CURVE('',#256,#245,#303,.T.);
#189=EDGE_CURVE('',#256,#254,#304,.T.);
#190=EDGE_CURVE('',#257,#244,#305,.T.);
#191=EDGE_CURVE('',#257,#256,#306,.T.);
#192=EDGE_CURVE('',#258,#238,#307,.T.);
#193=EDGE_CURVE('',#259,#237,#308,.T.);
#194=EDGE_CURVE('',#260,#259,#309,.T.);
#195=EDGE_CURVE('',#231,#260,#310,.T.);
#196=EDGE_CURVE('',#261,#241,#311,.T.);
#197=EDGE_CURVE('',#258,#261,#312,.T.);
#198=EDGE_CURVE('',#262,#263,#21,.T.);
#199=EDGE_CURVE('',#264,#262,#313,.T.);
#200=EDGE_CURVE('',#263,#264,#314,.T.);
#201=EDGE_CURVE('',#265,#240,#315,.T.);
#202=EDGE_CURVE('',#261,#265,#316,.T.);
#203=EDGE_CURVE('',#266,#239,#317,.T.);
#204=EDGE_CURVE('',#265,#266,#318,.T.);
#205=EDGE_CURVE('',#267,#246,#319,.T.);
#206=EDGE_CURVE('',#267,#268,#320,.T.);
#207=EDGE_CURVE('',#268,#247,#321,.T.);
#208=EDGE_CURVE('',#269,#249,#322,.T.);
#209=EDGE_CURVE('',#269,#267,#323,.T.);
#210=EDGE_CURVE('',#270,#248,#324,.T.);
#211=EDGE_CURVE('',#270,#269,#325,.T.);
#212=EDGE_CURVE('',#266,#258,#326,.T.);
#213=EDGE_CURVE('',#270,#268,#327,.T.);
#214=EDGE_CURVE('',#255,#257,#328,.T.);
#215=EDGE_CURVE('',#235,#251,#329,.T.);
#216=EDGE_CURVE('',#234,#250,#330,.T.);
#217=EDGE_CURVE('',#233,#252,#331,.T.);
#218=EDGE_CURVE('',#232,#253,#332,.T.);
#219=EDGE_CURVE('',#271,#230,#333,.T.);
#220=EDGE_CURVE('',#272,#271,#334,.T.);
#221=EDGE_CURVE('',#236,#272,#335,.T.);
#222=EDGE_CURVE('',#273,#274,#336,.T.);
#223=EDGE_CURVE('',#275,#273,#337,.T.);
#224=EDGE_CURVE('',#274,#275,#22,.F.);
#225=EDGE_CURVE('',#273,#264,#338,.T.);
#226=EDGE_CURVE('',#274,#263,#339,.T.);
#227=EDGE_CURVE('',#275,#262,#340,.T.);
#228=EDGE_CURVE('',#272,#259,#341,.T.);
#229=EDGE_CURVE('',#271,#260,#342,.T.);
#230=VERTEX_POINT('',#687);
#231=VERTEX_POINT('',#688);
#232=VERTEX_POINT('',#690);
#233=VERTEX_POINT('',#692);
#234=VERTEX_POINT('',#694);
#235=VERTEX_POINT('',#696);
#236=VERTEX_POINT('',#698);
#237=VERTEX_POINT('',#700);
#238=VERTEX_POINT('',#702);
#239=VERTEX_POINT('',#704);
#240=VERTEX_POINT('',#706);
#241=VERTEX_POINT('',#708);
#242=VERTEX_POINT('',#712);
#243=VERTEX_POINT('',#713);
#244=VERTEX_POINT('',#715);
#245=VERTEX_POINT('',#717);
#246=VERTEX_POINT('',#720);
#247=VERTEX_POINT('',#721);
#248=VERTEX_POINT('',#723);
#249=VERTEX_POINT('',#725);
#250=VERTEX_POINT('',#728);
#251=VERTEX_POINT('',#729);
#252=VERTEX_POINT('',#731);
#253=VERTEX_POINT('',#733);
#254=VERTEX_POINT('',#737);
#255=VERTEX_POINT('',#739);
#256=VERTEX_POINT('',#743);
#257=VERTEX_POINT('',#747);
#258=VERTEX_POINT('',#751);
#259=VERTEX_POINT('',#753);
#260=VERTEX_POINT('',#755);
#261=VERTEX_POINT('',#758);
#262=VERTEX_POINT('',#761);
#263=VERTEX_POINT('',#762);
#264=VERTEX_POINT('',#764);
#265=VERTEX_POINT('',#768);
#266=VERTEX_POINT('',#772);
#267=VERTEX_POINT('',#776);
#268=VERTEX_POINT('',#778);
#269=VERTEX_POINT('',#782);
#270=VERTEX_POINT('',#786);
#271=VERTEX_POINT('',#804);
#272=VERTEX_POINT('',#806);
#273=VERTEX_POINT('',#809);
#274=VERTEX_POINT('',#810);
#275=VERTEX_POINT('',#812);
#276=LINE('',#686,#343);
#277=LINE('',#689,#344);
#278=LINE('',#691,#345);
#279=LINE('',#693,#346);
#280=LINE('',#695,#347);
#281=LINE('',#697,#348);
#282=LINE('',#699,#349);
#283=LINE('',#701,#350);
#284=LINE('',#703,#351);
#285=LINE('',#705,#352);
#286=LINE('',#707,#353);
#287=LINE('',#709,#354);
#288=LINE('',#711,#355);
#289=LINE('',#714,#356);
#290=LINE('',#716,#357);
#291=LINE('',#718,#358);
#292=LINE('',#719,#359);
#293=LINE('',#722,#360);
#294=LINE('',#724,#361);
#295=LINE('',#726,#362);
#296=LINE('',#727,#363);
#297=LINE('',#730,#364);
#298=LINE('',#732,#365);
#299=LINE('',#734,#366);
#300=LINE('',#736,#367);
#301=LINE('',#738,#368);
#302=LINE('',#740,#369);
#303=LINE('',#742,#370);
#304=LINE('',#744,#371);
#305=LINE('',#746,#372);
#306=LINE('',#748,#373);
#307=LINE('',#750,#374);
#308=LINE('',#752,#375);
#309=LINE('',#754,#376);
#310=LINE('',#756,#377);
#311=LINE('',#757,#378);
#312=LINE('',#759,#379);
#313=LINE('',#763,#380);
#314=LINE('',#765,#381);
#315=LINE('',#767,#382);
#316=LINE('',#769,#383);
#317=LINE('',#771,#384);
#318=LINE('',#773,#385);
#319=LINE('',#775,#386);
#320=LINE('',#777,#387);
#321=LINE('',#779,#388);
#322=LINE('',#781,#389);
#323=LINE('',#783,#390);
#324=LINE('',#785,#391);
#325=LINE('',#787,#392);
#326=LINE('',#789,#393);
#327=LINE('',#791,#394);
#328=LINE('',#793,#395);
#329=LINE('',#796,#396);
#330=LINE('',#797,#397);
#331=LINE('',#799,#398);
#332=LINE('',#801,#399);
#333=LINE('',#803,#400);
#334=LINE('',#805,#401);
#335=LINE('',#807,#402);
#336=LINE('',#808,#403);
#337=LINE('',#811,#404);
#338=LINE('',#815,#405);
#339=LINE('',#816,#406);
#340=LINE('',#818,#407);
#341=LINE('',#821,#408);
#342=LINE('',#822,#409);
#343=VECTOR('',#565,1.);
#344=VECTOR('',#566,1.);
#345=VECTOR('',#567,1.);
#346=VECTOR('',#568,1.);
#347=VECTOR('',#569,1.);
#348=VECTOR('',#570,1.);
#349=VECTOR('',#571,1.);
#350=VECTOR('',#572,1.);
#351=VECTOR('',#573,1.);
#352=VECTOR('',#574,1.);
#353=VECTOR('',#575,1.);
#354=VECTOR('',#576,1.);
#355=VECTOR('',#579,1.);
#356=VECTOR('',#580,1.);
#357=VECTOR('',#581,1.);
#358=VECTOR('',#582,1.);
#359=VECTOR('',#583,1.);
#360=VECTOR('',#584,1.);
#361=VECTOR('',#585,1.);
#362=VECTOR('',#586,1.);
#363=VECTOR('',#587,1.);
#364=VECTOR('',#588,1.);
#365=VECTOR('',#589,1.);
#366=VECTOR('',#590,1.);
#367=VECTOR('',#593,1.);
#368=VECTOR('',#594,1.);
#369=VECTOR('',#595,1.);
#370=VECTOR('',#598,1.);
#371=VECTOR('',#599,1.);
#372=VECTOR('',#602,1.);
#373=VECTOR('',#603,1.);
#374=VECTOR('',#606,1.);
#375=VECTOR('',#607,1.);
#376=VECTOR('',#608,1.);
#377=VECTOR('',#609,1.);
#378=VECTOR('',#610,1.);
#379=VECTOR('',#611,1.);
#380=VECTOR('',#614,1.);
#381=VECTOR('',#615,1.);
#382=VECTOR('',#618,1.);
#383=VECTOR('',#619,1.);
#384=VECTOR('',#622,1.);
#385=VECTOR('',#623,1.);
#386=VECTOR('',#626,1.);
#387=VECTOR('',#627,1.);
#388=VECTOR('',#628,1.);
#389=VECTOR('',#631,1.);
#390=VECTOR('',#632,1.);
#391=VECTOR('',#635,1.);
#392=VECTOR('',#636,1.);
#393=VECTOR('',#639,1.);
#394=VECTOR('',#642,1.);
#395=VECTOR('',#645,1.);
#396=VECTOR('',#650,1.);
#397=VECTOR('',#651,1.);
#398=VECTOR('',#654,1.);
#399=VECTOR('',#657,1.);
#400=VECTOR('',#660,1.);
#401=VECTOR('',#661,1.);
#402=VECTOR('',#662,1.);
#403=VECTOR('',#663,1.);
#404=VECTOR('',#664,1.);
#405=VECTOR('',#669,1.);
#406=VECTOR('',#670,1.);
#407=VECTOR('',#673,1.);
#408=VECTOR('',#678,1.);
#409=VECTOR('',#679,1.);
#410=EDGE_LOOP('',(#23,#24,#25,#26,#27,#28,#29,#30,#31,#32,#33,#34));
#411=EDGE_LOOP('',(#35,#36,#37,#38));
#412=EDGE_LOOP('',(#39,#40,#41,#42));
#413=EDGE_LOOP('',(#43,#44,#45,#46));
#414=EDGE_LOOP('',(#47,#48,#49,#50));
#415=EDGE_LOOP('',(#51,#52,#53,#54));
#416=EDGE_LOOP('',(#55,#56,#57,#58));
#417=EDGE_LOOP('',(#59,#60,#61,#62,#63,#64,#65,#66));
#418=EDGE_LOOP('',(#67,#68,#69));
#419=EDGE_LOOP('',(#70,#71,#72,#73));
#420=EDGE_LOOP('',(#74,#75,#76,#77));
#421=EDGE_LOOP('',(#78,#79,#80,#81));
#422=EDGE_LOOP('',(#82,#83,#84,#85));
#423=EDGE_LOOP('',(#86,#87,#88,#89));
#424=EDGE_LOOP('',(#90,#91,#92,#93));
#425=EDGE_LOOP('',(#94,#95,#96,#97));
#426=EDGE_LOOP('',(#98,#99,#100,#101));
#427=EDGE_LOOP('',(#102,#103,#104,#105));
#428=EDGE_LOOP('',(#106,#107,#108,#109));
#429=EDGE_LOOP('',(#110,#111,#112,#113));
#430=EDGE_LOOP('',(#114,#115,#116,#117));
#431=EDGE_LOOP('',(#118,#119,#120,#121));
#432=EDGE_LOOP('',(#122,#123,#124,#125));
#433=EDGE_LOOP('',(#126,#127,#128,#129,#130,#131,#132,#133));
#434=EDGE_LOOP('',(#134,#135,#136));
#435=EDGE_LOOP('',(#137,#138,#139,#140));
#436=EDGE_LOOP('',(#141,#142,#143,#144));
#437=EDGE_LOOP('',(#145,#146,#147,#148));
#438=EDGE_LOOP('',(#149,#150,#151,#152));
#439=EDGE_LOOP('',(#153,#154,#155,#156));
#440=EDGE_LOOP('',(#157,#158,#159,#160));
#441=FACE_BOUND('',#410,.T.);
#442=FACE_BOUND('',#411,.T.);
#443=FACE_BOUND('',#412,.T.);
#444=FACE_BOUND('',#413,.T.);
#445=FACE_BOUND('',#414,.T.);
#446=FACE_BOUND('',#415,.T.);
#447=FACE_BOUND('',#416,.T.);
#448=FACE_BOUND('',#417,.T.);
#449=FACE_BOUND('',#418,.T.);
#450=FACE_BOUND('',#419,.T.);
#451=FACE_BOUND('',#420,.T.);
#452=FACE_BOUND('',#421,.T.);
#453=FACE_BOUND('',#422,.T.);
#454=FACE_BOUND('',#423,.T.);
#455=FACE_BOUND('',#424,.T.);
#456=FACE_BOUND('',#425,.T.);
#457=FACE_BOUND('',#426,.T.);
#458=FACE_BOUND('',#427,.T.);
#459=FACE_BOUND('',#428,.T.);
#460=FACE_BOUND('',#429,.T.);
#461=FACE_BOUND('',#430,.T.);
#462=FACE_BOUND('',#431,.T.);
#463=FACE_BOUND('',#432,.T.);
#464=FACE_BOUND('',#433,.T.);
#465=FACE_BOUND('',#434,.T.);
#466=FACE_BOUND('',#435,.T.);
#467=FACE_BOUND('',#436,.T.);
#468=FACE_BOUND('',#437,.T.);
#469=FACE_BOUND('',#438,.T.);
#470=FACE_BOUND('',#439,.T.);
#471=FACE_BOUND('',#440,.T.);
#472=PLANE('',#534);
#473=PLANE('',#535);
#474=PLANE('',#536);
#475=PLANE('',#537);
#476=PLANE('',#538);
#477=PLANE('',#539);
#478=PLANE('',#541);
#479=PLANE('',#542);
#480=PLANE('',#543);
#481=PLANE('',#544);
#482=PLANE('',#545);
#483=PLANE('',#546);
#484=PLANE('',#547);
#485=PLANE('',#548);
#486=PLANE('',#549);
#487=PLANE('',#550);
#488=PLANE('',#551);
#489=PLANE('',#552);
#490=PLANE('',#553);
#491=PLANE('',#555);
#492=PLANE('',#556);
#493=PLANE('',#558);
#494=PLANE('',#559);
#495=PLANE('',#560);
#496=ADVANCED_FACE('',(#441),#472,.F.);
#497=ADVANCED_FACE('',(#442,#443,#444),#473,.F.);
#498=ADVANCED_FACE('',(#445),#474,.T.);
#499=ADVANCED_FACE('',(#446),#475,.T.);
#500=ADVANCED_FACE('',(#447),#476,.T.);
#501=ADVANCED_FACE('',(#448,#449),#477,.F.);
#502=ADVANCED_FACE('',(#450),#478,.F.);
#503=ADVANCED_FACE('',(#451),#479,.F.);
#504=ADVANCED_FACE('',(#452),#480,.T.);
#505=ADVANCED_FACE('',(#453),#481,.T.);
#506=ADVANCED_FACE('',(#454),#482,.T.);
#507=ADVANCED_FACE('',(#455),#483,.F.);
#508=ADVANCED_FACE('',(#456),#484,.F.);
#509=ADVANCED_FACE('',(#457),#485,.T.);
#510=ADVANCED_FACE('',(#458,#459,#460),#486,.T.);
#511=ADVANCED_FACE('',(#461),#487,.F.);
#512=ADVANCED_FACE('',(#462),#488,.F.);
#513=ADVANCED_FACE('',(#463),#489,.F.);
#514=ADVANCED_FACE('',(#464,#465),#490,.F.);
#515=ADVANCED_FACE('',(#466),#491,.F.);
#516=ADVANCED_FACE('',(#467),#492,.F.);
#517=ADVANCED_FACE('',(#468),#20,.F.);
#518=ADVANCED_FACE('',(#469),#493,.F.);
#519=ADVANCED_FACE('',(#470),#494,.F.);
#520=ADVANCED_FACE('',(#471),#495,.F.);
#521=CLOSED_SHELL('',(#496,#497,#498,#499,#500,#501,#502,#503,#504,#505,
#506,#507,#508,#509,#510,#511,#512,#513,#514,#515,#516,#517,#518,#519,#520));
#522=STYLED_ITEM('',(#523),#530);
#523=PRESENTATION_STYLE_ASSIGNMENT((#524));
#524=SURFACE_STYLE_USAGE(.BOTH.,#525);
#525=SURFACE_SIDE_STYLE('',(#526));
#526=SURFACE_STYLE_FILL_AREA(#527);
#527=FILL_AREA_STYLE('',(#528));
#528=FILL_AREA_STYLE_COLOUR('',#529);
#529=COLOUR_RGB('',0.231372549019608,0.380392156862745,0.705882352941177);
#530=MANIFOLD_SOLID_BREP('Pencil Housing Cap',#521);
#531=SHAPE_DEFINITION_REPRESENTATION(#831,#532);
#532=SHAPE_REPRESENTATION('Pencil Housing Cap',(#533),#826);
#533=AXIS2_PLACEMENT_3D('',#684,#561,#562);
#534=AXIS2_PLACEMENT_3D('',#685,#563,#564);
#535=AXIS2_PLACEMENT_3D('',#710,#577,#578);
#536=AXIS2_PLACEMENT_3D('',#735,#591,#592);
#537=AXIS2_PLACEMENT_3D('',#741,#596,#597);
#538=AXIS2_PLACEMENT_3D('',#745,#600,#601);
#539=AXIS2_PLACEMENT_3D('',#749,#604,#605);
#540=AXIS2_PLACEMENT_3D('',#760,#612,#613);
#541=AXIS2_PLACEMENT_3D('',#766,#616,#617);
#542=AXIS2_PLACEMENT_3D('',#770,#620,#621);
#543=AXIS2_PLACEMENT_3D('',#774,#624,#625);
#544=AXIS2_PLACEMENT_3D('',#780,#629,#630);
#545=AXIS2_PLACEMENT_3D('',#784,#633,#634);
#546=AXIS2_PLACEMENT_3D('',#788,#637,#638);
#547=AXIS2_PLACEMENT_3D('',#790,#640,#641);
#548=AXIS2_PLACEMENT_3D('',#792,#643,#644);
#549=AXIS2_PLACEMENT_3D('',#794,#646,#647);
#550=AXIS2_PLACEMENT_3D('',#795,#648,#649);
#551=AXIS2_PLACEMENT_3D('',#798,#652,#653);
#552=AXIS2_PLACEMENT_3D('',#800,#655,#656);
#553=AXIS2_PLACEMENT_3D('',#802,#658,#659);
#554=AXIS2_PLACEMENT_3D('',#813,#665,#666);
#555=AXIS2_PLACEMENT_3D('',#814,#667,#668);
#556=AXIS2_PLACEMENT_3D('',#817,#671,#672);
#557=AXIS2_PLACEMENT_3D('',#819,#674,#675);
#558=AXIS2_PLACEMENT_3D('',#820,#676,#677);
#559=AXIS2_PLACEMENT_3D('',#823,#680,#681);
#560=AXIS2_PLACEMENT_3D('',#824,#682,#683);
#561=DIRECTION('',(0.,0.,1.));
#562=DIRECTION('',(1.,0.,0.));
#563=DIRECTION('',(0.,1.,0.));
#564=DIRECTION('',(-1.,0.,0.));
#565=DIRECTION('',(0.,0.,1.));
#566=DIRECTION('',(1.,0.,0.));
#567=DIRECTION('',(0.,0.,-1.));
#568=DIRECTION('',(-1.,0.,0.));
#569=DIRECTION('',(0.,0.,1.));
#570=DIRECTION('',(1.,0.,0.));
#571=DIRECTION('',(0.,0.,1.));
#572=DIRECTION('',(1.,0.,0.));
#573=DIRECTION('',(0.,0.,1.));
#574=DIRECTION('',(-1.,0.,0.));
#575=DIRECTION('',(0.,0.,-1.));
#576=DIRECTION('',(1.,0.,0.));
#577=DIRECTION('',(0.,1.,0.));
#578=DIRECTION('',(-1.,0.,0.));
#579=DIRECTION('',(0.,0.,1.));
#580=DIRECTION('',(1.,0.,0.));
#581=DIRECTION('',(0.,0.,-1.));
#582=DIRECTION('',(-1.,0.,0.));
#583=DIRECTION('',(0.,0.,1.));
#584=DIRECTION('',(-1.,0.,0.));
#585=DIRECTION('',(1.020425574104E-16,0.,-1.));
#586=DIRECTION('',(-1.,0.,-1.4954512723938E-16));
#587=DIRECTION('',(0.,0.,1.));
#588=DIRECTION('',(-1.,0.,0.));
#589=DIRECTION('',(0.,0.,-1.));
#590=DIRECTION('',(1.,0.,0.));
#591=DIRECTION('',(1.,0.,0.));
#592=DIRECTION('',(0.,0.,-1.));
#593=DIRECTION('',(0.,-1.,0.));
#594=DIRECTION('',(0.,0.,1.));
#595=DIRECTION('',(0.,-1.,0.));
#596=DIRECTION('',(0.,0.,1.));
#597=DIRECTION('',(1.,0.,0.));
#598=DIRECTION('',(0.,-1.,0.));
#599=DIRECTION('',(-1.,0.,0.));
#600=DIRECTION('',(-1.,0.,0.));
#601=DIRECTION('',(0.,0.,1.));
#602=DIRECTION('',(0.,-1.,0.));
#603=DIRECTION('',(0.,0.,-1.));
#604=DIRECTION('',(0.,0.,-1.));
#605=DIRECTION('',(-1.,0.,0.));
#606=DIRECTION('',(0.,-1.,0.));
#607=DIRECTION('',(0.,1.,0.));
#608=DIRECTION('',(-1.,0.,0.));
#609=DIRECTION('',(6.67201336914157E-17,-1.,0.));
#610=DIRECTION('',(0.,-1.,0.));
#611=DIRECTION('',(1.,0.,0.));
#612=DIRECTION('',(0.,0.,1.));
#613=DIRECTION('',(1.,0.,0.));
#614=DIRECTION('',(0.866025403784439,0.5,0.));
#615=DIRECTION('',(0.866025403784438,-0.5,0.));
#616=DIRECTION('',(-1.,0.,0.));
#617=DIRECTION('',(0.,0.,1.));
#618=DIRECTION('',(0.,-1.,0.));
#619=DIRECTION('',(0.,0.,-1.));
#620=DIRECTION('',(0.,0.,1.));
#621=DIRECTION('',(1.,0.,0.));
#622=DIRECTION('',(0.,-1.,0.));
#623=DIRECTION('',(-1.,0.,0.));
#624=DIRECTION('',(1.,0.,0.));
#625=DIRECTION('',(0.,0.,-1.));
#626=DIRECTION('',(0.,-1.,0.));
#627=DIRECTION('',(0.,0.,1.));
#628=DIRECTION('',(0.,-1.,0.));
#629=DIRECTION('',(-1.4954512723938E-16,0.,1.));
#630=DIRECTION('',(1.,0.,1.4954512723938E-16));
#631=DIRECTION('',(0.,-1.,0.));
#632=DIRECTION('',(-1.,0.,-1.4954512723938E-16));
#633=DIRECTION('',(-1.,0.,-1.020425574104E-16));
#634=DIRECTION('',(-1.020425574104E-16,0.,1.));
#635=DIRECTION('',(0.,-1.,0.));
#636=DIRECTION('',(1.020425574104E-16,0.,-1.));
#637=DIRECTION('',(1.,0.,0.));
#638=DIRECTION('',(0.,0.,-1.));
#639=DIRECTION('',(0.,0.,1.));
#640=DIRECTION('',(0.,0.,1.));
#641=DIRECTION('',(1.,0.,0.));
#642=DIRECTION('',(-1.,0.,0.));
#643=DIRECTION('',(0.,0.,-1.));
#644=DIRECTION('',(-1.,0.,0.));
#645=DIRECTION('',(1.,0.,0.));
#646=DIRECTION('',(0.,1.,0.));
#647=DIRECTION('',(-1.,0.,0.));
#648=DIRECTION('',(-1.,0.,0.));
#649=DIRECTION('',(0.,0.,1.));
#650=DIRECTION('',(0.,1.,0.));
#651=DIRECTION('',(0.,1.,0.));
#652=DIRECTION('',(0.,0.,-1.));
#653=DIRECTION('',(-1.,0.,0.));
#654=DIRECTION('',(0.,1.,0.));
#655=DIRECTION('',(1.,0.,0.));
#656=DIRECTION('',(0.,0.,-1.));
#657=DIRECTION('',(0.,1.,0.));
#658=DIRECTION('',(0.,0.,1.));
#659=DIRECTION('',(1.,0.,0.));
#660=DIRECTION('',(-6.67201336914157E-17,1.,0.));
#661=DIRECTION('',(1.,0.,0.));
#662=DIRECTION('',(0.,-1.,0.));
#663=DIRECTION('',(-0.866025403784438,0.5,0.));
#664=DIRECTION('',(-0.866025403784439,-0.5,0.));
#665=DIRECTION('',(0.,0.,1.));
#666=DIRECTION('',(1.,0.,0.));
#667=DIRECTION('',(-0.5,-0.866025403784438,0.));
#668=DIRECTION('',(0.866025403784438,-0.5,0.));
#669=DIRECTION('',(0.,0.,1.));
#670=DIRECTION('',(0.,0.,1.));
#671=DIRECTION('',(0.5,-0.866025403784439,0.));
#672=DIRECTION('',(0.866025403784439,0.5,0.));
#673=DIRECTION('',(0.,0.,1.));
#674=DIRECTION('',(0.,0.,1.));
#675=DIRECTION('',(1.,0.,0.));
#676=DIRECTION('',(0.,1.,0.));
#677=DIRECTION('',(0.,0.,1.));
#678=DIRECTION('',(0.,0.,1.));
#679=DIRECTION('',(0.,0.,1.));
#680=DIRECTION('',(1.,0.,0.));
#681=DIRECTION('',(0.,0.,-1.));
#682=DIRECTION('',(-1.,-6.67201336914157E-17,0.));
#683=DIRECTION('',(6.67201336914157E-17,-1.,0.));
#684=CARTESIAN_POINT('',(0.,0.,0.));
#685=CARTESIAN_POINT('',(0.,0.013,0.022));
#686=CARTESIAN_POINT('',(0.007,0.013,0.044098));
#687=CARTESIAN_POINT('',(0.007,0.013,0.0441));
#688=CARTESIAN_POINT('',(0.007,0.013,0.046));
#689=CARTESIAN_POINT('',(0.,0.013,0.0441));
#690=CARTESIAN_POINT('',(0.0071,0.013,0.0441));
#691=CARTESIAN_POINT('',(0.0071,0.013,0.022));
#692=CARTESIAN_POINT('',(0.0071,0.013,-0.0001));
#693=CARTESIAN_POINT('',(8.67361737988404E-19,0.013,-0.0001));
#694=CARTESIAN_POINT('',(-0.0071,0.013,-0.0001));
#695=CARTESIAN_POINT('',(-0.0071,0.013,0.022));
#696=CARTESIAN_POINT('',(-0.0071,0.013,0.0441));
#697=CARTESIAN_POINT('',(0.,0.013,0.0441));
#698=CARTESIAN_POINT('',(-0.007,0.013,0.0441));
#699=CARTESIAN_POINT('',(-0.007,0.013,0.044098));
#700=CARTESIAN_POINT('',(-0.007,0.013,0.046));
#701=CARTESIAN_POINT('',(0.,0.013,0.046));
#702=CARTESIAN_POINT('',(-0.009,0.013,0.046));
#703=CARTESIAN_POINT('',(-0.009,0.013,0.022));
#704=CARTESIAN_POINT('',(-0.009,0.013,-0.002));
#705=CARTESIAN_POINT('',(0.,0.013,-0.002));
#706=CARTESIAN_POINT('',(0.009,0.013,-0.002));
#707=CARTESIAN_POINT('',(0.009,0.013,0.022));
#708=CARTESIAN_POINT('',(0.009,0.013,0.046));
#709=CARTESIAN_POINT('',(0.,0.013,0.046));
#710=CARTESIAN_POINT('',(0.,0.015,0.022));
#711=CARTESIAN_POINT('',(-0.0056,0.015,0.03225));
#712=CARTESIAN_POINT('',(-0.0056,0.015,0.0305));
#713=CARTESIAN_POINT('',(-0.0056,0.015,0.034));
#714=CARTESIAN_POINT('',(0.0051,0.015,0.034));
#715=CARTESIAN_POINT('',(0.0056,0.015,0.034));
#716=CARTESIAN_POINT('',(0.0056,0.015,0.03225));
#717=CARTESIAN_POINT('',(0.0056,0.015,0.0305));
#718=CARTESIAN_POINT('',(0.0051,0.015,0.0305));
#719=CARTESIAN_POINT('',(-0.0046,0.015,0.01475));
#720=CARTESIAN_POINT('',(-0.0046,0.015,0.002));
#721=CARTESIAN_POINT('',(-0.0046,0.015,0.0275));
#722=CARTESIAN_POINT('',(8.67361737988404E-19,0.015,0.0275));
#723=CARTESIAN_POINT('',(0.0046,0.015,0.0275));
#724=CARTESIAN_POINT('',(0.0046,0.015,0.01475));
#725=CARTESIAN_POINT('',(0.0046,0.015,0.002));
#726=CARTESIAN_POINT('',(2.60208521396521E-18,0.015,0.002));
#727=CARTESIAN_POINT('',(-0.0071,0.015,0.022));
#728=CARTESIAN_POINT('',(-0.0071,0.015,-0.0001));
#729=CARTESIAN_POINT('',(-0.0071,0.015,0.0441));
#730=CARTESIAN_POINT('',(8.67361737988404E-19,0.015,-0.0001));
#731=CARTESIAN_POINT('',(0.0071,0.015,-0.0001));
#732=CARTESIAN_POINT('',(0.0071,0.015,0.022));
#733=CARTESIAN_POINT('',(0.0071,0.015,0.0441));
#734=CARTESIAN_POINT('',(0.,0.015,0.0441));
#735=CARTESIAN_POINT('',(-0.0056,0.017,0.03225));
#736=CARTESIAN_POINT('',(-0.0056,0.017,0.0305));
#737=CARTESIAN_POINT('',(-0.0056,0.017,0.0305));
#738=CARTESIAN_POINT('',(-0.0056,0.017,0.03225));
#739=CARTESIAN_POINT('',(-0.0056,0.017,0.034));
#740=CARTESIAN_POINT('',(-0.0056,0.017,0.034));
#741=CARTESIAN_POINT('',(0.0051,0.017,0.0305));
#742=CARTESIAN_POINT('',(0.0056,0.017,0.0305));
#743=CARTESIAN_POINT('',(0.0056,0.017,0.0305));
#744=CARTESIAN_POINT('',(0.0051,0.017,0.0305));
#745=CARTESIAN_POINT('',(0.0056,0.017,0.03225));
#746=CARTESIAN_POINT('',(0.0056,0.017,0.034));
#747=CARTESIAN_POINT('',(0.0056,0.017,0.034));
#748=CARTESIAN_POINT('',(0.0056,0.017,0.03225));
#749=CARTESIAN_POINT('',(0.,0.017,0.046));
#750=CARTESIAN_POINT('',(-0.009,0.017,0.046));
#751=CARTESIAN_POINT('',(-0.009,0.017,0.046));
#752=CARTESIAN_POINT('',(-0.007,0.0065,0.046));
#753=CARTESIAN_POINT('',(-0.007,-1.7347234759768E-18,0.046));
#754=CARTESIAN_POINT('',(8.67361737988404E-19,0.,0.046));
#755=CARTESIAN_POINT('',(0.007,0.,0.046));
#756=CARTESIAN_POINT('',(0.007,0.0065,0.046));
#757=CARTESIAN_POINT('',(0.009,0.017,0.046));
#758=CARTESIAN_POINT('',(0.009,0.017,0.046));
#759=CARTESIAN_POINT('',(0.,0.017,0.046));
#760=CARTESIAN_POINT('',(-2.16840434497101E-18,0.00528371685740841,0.046));
#761=CARTESIAN_POINT('',(0.0019918584287042,0.00183371685740842,0.046));
#762=CARTESIAN_POINT('',(-0.00199185842870421,0.00183371685740842,0.046));
#763=CARTESIAN_POINT('',(0.000995929214352102,0.00125871685740842,0.046));
#764=CARTESIAN_POINT('',(-1.3010426069826E-18,0.000683716857408417,0.046));
#765=CARTESIAN_POINT('',(-0.000995929214352107,0.00125871685740842,0.046));
#766=CARTESIAN_POINT('',(0.009,0.017,0.022));
#767=CARTESIAN_POINT('',(0.009,0.017,-0.002));
#768=CARTESIAN_POINT('',(0.009,0.017,-0.002));
#769=CARTESIAN_POINT('',(0.009,0.017,0.022));
#770=CARTESIAN_POINT('',(0.,0.017,-0.002));
#771=CARTESIAN_POINT('',(-0.009,0.017,-0.002));
#772=CARTESIAN_POINT('',(-0.009,0.017,-0.002));
#773=CARTESIAN_POINT('',(0.,0.017,-0.002));
#774=CARTESIAN_POINT('',(-0.0046,0.017,0.01475));
#775=CARTESIAN_POINT('',(-0.0046,0.017,0.002));
#776=CARTESIAN_POINT('',(-0.0046,0.017,0.002));
#777=CARTESIAN_POINT('',(-0.0046,0.017,0.01475));
#778=CARTESIAN_POINT('',(-0.0046,0.017,0.0275));
#779=CARTESIAN_POINT('',(-0.0046,0.017,0.0275));
#780=CARTESIAN_POINT('',(2.60208521396521E-18,0.017,0.002));
#781=CARTESIAN_POINT('',(0.0046,0.017,0.002));
#782=CARTESIAN_POINT('',(0.0046,0.017,0.002));
#783=CARTESIAN_POINT('',(2.60208521396521E-18,0.017,0.002));
#784=CARTESIAN_POINT('',(0.0046,0.017,0.01475));
#785=CARTESIAN_POINT('',(0.0046,0.017,0.0275));
#786=CARTESIAN_POINT('',(0.0046,0.017,0.0275));
#787=CARTESIAN_POINT('',(0.0046,0.017,0.01475));
#788=CARTESIAN_POINT('',(-0.009,0.017,0.022));
#789=CARTESIAN_POINT('',(-0.009,0.017,0.022));
#790=CARTESIAN_POINT('',(8.67361737988404E-19,0.017,0.0275));
#791=CARTESIAN_POINT('',(8.67361737988404E-19,0.017,0.0275));
#792=CARTESIAN_POINT('',(0.0051,0.017,0.034));
#793=CARTESIAN_POINT('',(0.0051,0.017,0.034));
#794=CARTESIAN_POINT('',(0.,0.017,0.022));
#795=CARTESIAN_POINT('',(-0.0071,0.013,0.022));
#796=CARTESIAN_POINT('',(-0.0071,0.013,0.0441));
#797=CARTESIAN_POINT('',(-0.0071,0.013,-0.0001));
#798=CARTESIAN_POINT('',(8.67361737988404E-19,0.013,-0.0001));
#799=CARTESIAN_POINT('',(0.0071,0.013,-0.0001));
#800=CARTESIAN_POINT('',(0.0071,0.013,0.022));
#801=CARTESIAN_POINT('',(0.0071,0.013,0.0441));
#802=CARTESIAN_POINT('',(0.,0.013,0.0441));
#803=CARTESIAN_POINT('',(0.007,0.0065,0.0441));
#804=CARTESIAN_POINT('',(0.007,0.,0.0441));
#805=CARTESIAN_POINT('',(8.67361737988404E-19,0.,0.0441));
#806=CARTESIAN_POINT('',(-0.007,-1.7347234759768E-18,0.0441));
#807=CARTESIAN_POINT('',(-0.007,0.0065,0.0441));
#808=CARTESIAN_POINT('',(-0.000995929214352107,0.00125871685740842,0.0441));
#809=CARTESIAN_POINT('',(-1.3010426069826E-18,0.000683716857408417,0.0441));
#810=CARTESIAN_POINT('',(-0.00199185842870421,0.00183371685740842,0.0441));
#811=CARTESIAN_POINT('',(0.000995929214352102,0.00125871685740842,0.0441));
#812=CARTESIAN_POINT('',(0.0019918584287042,0.00183371685740842,0.0441));
#813=CARTESIAN_POINT('',(-2.16840434497101E-18,0.00528371685740841,0.0441));
#814=CARTESIAN_POINT('',(-0.000995929214352107,0.00125871685740842,0.044098));
#815=CARTESIAN_POINT('',(-1.3010426069826E-18,0.000683716857408417,0.044098));
#816=CARTESIAN_POINT('',(-0.00199185842870421,0.00183371685740842,0.044098));
#817=CARTESIAN_POINT('',(0.000995929214352102,0.00125871685740842,0.044098));
#818=CARTESIAN_POINT('',(0.0019918584287042,0.00183371685740842,0.044098));
#819=CARTESIAN_POINT('',(-2.16840434497101E-18,0.00528371685740841,0.044098));
#820=CARTESIAN_POINT('',(8.67361737988404E-19,0.,0.044098));
#821=CARTESIAN_POINT('',(-0.007,-1.7347234759768E-18,0.044098));
#822=CARTESIAN_POINT('',(0.007,0.,0.044098));
#823=CARTESIAN_POINT('',(-0.007,0.0065,0.044098));
#824=CARTESIAN_POINT('',(0.007,0.0065,0.044098));
#825=MECHANICAL_DESIGN_GEOMETRIC_PRESENTATION_REPRESENTATION('',(#522),
#826);
#826=(
GEOMETRIC_REPRESENTATION_CONTEXT(3)
GLOBAL_UNCERTAINTY_ASSIGNED_CONTEXT((#827))
GLOBAL_UNIT_ASSIGNED_CONTEXT((#830,#829,#828))
REPRESENTATION_CONTEXT('Pencil Housing Cap','TOP_LEVEL_ASSEMBLY_PART')
);
#827=UNCERTAINTY_MEASURE_WITH_UNIT(LENGTH_MEASURE(1.E-8),#830,
'DISTANCE_ACCURACY_VALUE','Maximum Tolerance applied to model');
#828=(
NAMED_UNIT(*)
SI_UNIT($,.STERADIAN.)
SOLID_ANGLE_UNIT()
);
#829=(
NAMED_UNIT(*)
PLANE_ANGLE_UNIT()
SI_UNIT($,.RADIAN.)
);
#830=(
LENGTH_UNIT()
NAMED_UNIT(*)
SI_UNIT($,.METRE.)
);
#831=PRODUCT_DEFINITION_SHAPE('','',#832);
#832=PRODUCT_DEFINITION('','',#834,#833);
#833=PRODUCT_DEFINITION_CONTEXT('',#840,'design');
#834=PRODUCT_DEFINITION_FORMATION_WITH_SPECIFIED_SOURCE('','',#836,
 .NOT_KNOWN.);
#835=PRODUCT_RELATED_PRODUCT_CATEGORY('','',(#836));
#836=PRODUCT('Pencil Housing Cap','Pencil Housing Cap',
'Pencil Housing Cap',(#838));
#837=PRODUCT_CATEGORY('','');
#838=PRODUCT_CONTEXT('',#840,'mechanical');
#839=APPLICATION_PROTOCOL_DEFINITION('international standard',
'automotive_design',2010,#840);
#840=APPLICATION_CONTEXT(
'core data for automotive mechanical design processes');
ENDSEC;
END-ISO-10303-21;
