ISO-10303-21;
HEADER;
/* Generated by software containing ST-Developer
 * from STEP Tools, Inc. (www.steptools.com) 
 */
/* OPTION: using custom renumber hook */

FILE_DESCRIPTION(
/* description */ ('STEP AP214',
'CAx-IF Rec.Pracs.---User Defined Attributes---1.5---2016-08-15'),
/* implementation_level */ '2;1');

FILE_NAME(
/* name */ '6a95da26d62aea1f59761567',
/* time_stamp */ '2026-08-31T19:46:47Z',
/* author */ (''),
/* organization */ (''),
/* preprocessor_version */ 'ST-DEVELOPER v20',
/* originating_system */ 'ONSHAPE BY PTC INC, 1.220',
/* authorisation */ '  ');

FILE_SCHEMA (('AUTOMOTIVE_DESIGN {1 0 10303 214 3 1 1}'));
ENDSEC;

DATA;
#10=PROPERTY_DEFINITION_REPRESENTATION(#14,#12);
#11=PROPERTY_DEFINITION_REPRESENTATION(#15,#13);
#12=REPRESENTATION('',(#16),#537);
#13=REPRESENTATION('',(#17),#537);
#14=PROPERTY_DEFINITION('pmi validation property','',#542);
#15=PROPERTY_DEFINITION('pmi validation property','',#542);
#16=VALUE_REPRESENTATION_ITEM('number of annotations',COUNT_MEASURE(0.));
#17=VALUE_REPRESENTATION_ITEM('number of views',COUNT_MEASURE(0.));
#18=SHAPE_REPRESENTATION_RELATIONSHIP('','',#343,#19);
#19=ADVANCED_BREP_SHAPE_REPRESENTATION('',(#341),#537);
#20=CYLINDRICAL_SURFACE('',#359,0.0045);
#21=CYLINDRICAL_SURFACE('',#362,0.0045);
#22=CIRCLE('',#346,0.0045);
#23=CIRCLE('',#349,0.0045);
#24=CIRCLE('',#351,0.0045);
#25=CIRCLE('',#354,0.0045);
#26=ORIENTED_EDGE('',*,*,#110,.T.);
#27=ORIENTED_EDGE('',*,*,#111,.T.);
#28=ORIENTED_EDGE('',*,*,#112,.T.);
#29=ORIENTED_EDGE('',*,*,#113,.T.);
#30=ORIENTED_EDGE('',*,*,#114,.F.);
#31=ORIENTED_EDGE('',*,*,#115,.F.);
#32=ORIENTED_EDGE('',*,*,#116,.T.);
#33=ORIENTED_EDGE('',*,*,#117,.F.);
#34=ORIENTED_EDGE('',*,*,#116,.F.);
#35=ORIENTED_EDGE('',*,*,#118,.T.);
#36=ORIENTED_EDGE('',*,*,#119,.T.);
#37=ORIENTED_EDGE('',*,*,#120,.F.);
#38=ORIENTED_EDGE('',*,*,#121,.F.);
#39=ORIENTED_EDGE('',*,*,#122,.F.);
#40=ORIENTED_EDGE('',*,*,#123,.F.);
#41=ORIENTED_EDGE('',*,*,#119,.F.);
#42=ORIENTED_EDGE('',*,*,#124,.T.);
#43=ORIENTED_EDGE('',*,*,#125,.T.);
#44=ORIENTED_EDGE('',*,*,#126,.F.);
#45=ORIENTED_EDGE('',*,*,#127,.F.);
#46=ORIENTED_EDGE('',*,*,#128,.F.);
#47=ORIENTED_EDGE('',*,*,#129,.T.);
#48=ORIENTED_EDGE('',*,*,#130,.T.);
#49=ORIENTED_EDGE('',*,*,#131,.F.);
#50=ORIENTED_EDGE('',*,*,#132,.F.);
#51=ORIENTED_EDGE('',*,*,#133,.T.);
#52=ORIENTED_EDGE('',*,*,#134,.T.);
#53=ORIENTED_EDGE('',*,*,#129,.F.);
#54=ORIENTED_EDGE('',*,*,#135,.F.);
#55=ORIENTED_EDGE('',*,*,#136,.F.);
#56=ORIENTED_EDGE('',*,*,#137,.F.);
#57=ORIENTED_EDGE('',*,*,#138,.F.);
#58=ORIENTED_EDGE('',*,*,#139,.T.);
#59=ORIENTED_EDGE('',*,*,#140,.F.);
#60=ORIENTED_EDGE('',*,*,#133,.F.);
#61=ORIENTED_EDGE('',*,*,#141,.T.);
#62=ORIENTED_EDGE('',*,*,#131,.T.);
#63=ORIENTED_EDGE('',*,*,#142,.F.);
#64=ORIENTED_EDGE('',*,*,#139,.F.);
#65=ORIENTED_EDGE('',*,*,#143,.T.);
#66=ORIENTED_EDGE('',*,*,#144,.T.);
#67=ORIENTED_EDGE('',*,*,#125,.F.);
#68=ORIENTED_EDGE('',*,*,#145,.F.);
#69=ORIENTED_EDGE('',*,*,#114,.T.);
#70=ORIENTED_EDGE('',*,*,#132,.T.);
#71=ORIENTED_EDGE('',*,*,#143,.F.);
#72=ORIENTED_EDGE('',*,*,#141,.F.);
#73=ORIENTED_EDGE('',*,*,#135,.T.);
#74=ORIENTED_EDGE('',*,*,#115,.T.);
#75=ORIENTED_EDGE('',*,*,#145,.T.);
#76=ORIENTED_EDGE('',*,*,#124,.F.);
#77=ORIENTED_EDGE('',*,*,#118,.F.);
#78=ORIENTED_EDGE('',*,*,#121,.T.);
#79=ORIENTED_EDGE('',*,*,#146,.F.);
#80=ORIENTED_EDGE('',*,*,#138,.T.);
#81=ORIENTED_EDGE('',*,*,#147,.T.);
#82=ORIENTED_EDGE('',*,*,#122,.T.);
#83=ORIENTED_EDGE('',*,*,#147,.F.);
#84=ORIENTED_EDGE('',*,*,#137,.T.);
#85=ORIENTED_EDGE('',*,*,#148,.T.);
#86=ORIENTED_EDGE('',*,*,#120,.T.);
#87=ORIENTED_EDGE('',*,*,#148,.F.);
#88=ORIENTED_EDGE('',*,*,#136,.T.);
#89=ORIENTED_EDGE('',*,*,#146,.T.);
#90=ORIENTED_EDGE('',*,*,#149,.T.);
#91=ORIENTED_EDGE('',*,*,#127,.T.);
#92=ORIENTED_EDGE('',*,*,#150,.F.);
#93=ORIENTED_EDGE('',*,*,#111,.F.);
#94=ORIENTED_EDGE('',*,*,#150,.T.);
#95=ORIENTED_EDGE('',*,*,#126,.T.);
#96=ORIENTED_EDGE('',*,*,#151,.F.);
#97=ORIENTED_EDGE('',*,*,#112,.F.);
#98=ORIENTED_EDGE('',*,*,#151,.T.);
#99=ORIENTED_EDGE('',*,*,#128,.T.);
#100=ORIENTED_EDGE('',*,*,#149,.F.);
#101=ORIENTED_EDGE('',*,*,#110,.F.);
#102=ORIENTED_EDGE('',*,*,#113,.F.);
#103=ORIENTED_EDGE('',*,*,#117,.T.);
#104=ORIENTED_EDGE('',*,*,#123,.T.);
#105=ORIENTED_EDGE('',*,*,#144,.F.);
#106=ORIENTED_EDGE('',*,*,#130,.F.);
#107=ORIENTED_EDGE('',*,*,#134,.F.);
#108=ORIENTED_EDGE('',*,*,#140,.T.);
#109=ORIENTED_EDGE('',*,*,#142,.T.);
#110=EDGE_CURVE('',#152,#153,#180,.T.);
#111=EDGE_CURVE('',#153,#154,#181,.T.);
#112=EDGE_CURVE('',#154,#152,#22,.T.);
#113=EDGE_CURVE('',#155,#156,#182,.T.);
#114=EDGE_CURVE('',#157,#156,#183,.T.);
#115=EDGE_CURVE('',#158,#157,#184,.T.);
#116=EDGE_CURVE('',#158,#155,#185,.T.);
#117=EDGE_CURVE('',#155,#159,#186,.T.);
#118=EDGE_CURVE('',#158,#160,#187,.T.);
#119=EDGE_CURVE('',#160,#159,#188,.T.);
#120=EDGE_CURVE('',#161,#162,#189,.T.);
#121=EDGE_CURVE('',#163,#161,#190,.T.);
#122=EDGE_CURVE('',#162,#163,#23,.T.);
#123=EDGE_CURVE('',#159,#164,#191,.T.);
#124=EDGE_CURVE('',#160,#165,#192,.T.);
#125=EDGE_CURVE('',#165,#164,#193,.T.);
#126=EDGE_CURVE('',#166,#167,#24,.T.);
#127=EDGE_CURVE('',#168,#166,#194,.T.);
#128=EDGE_CURVE('',#167,#168,#195,.T.);
#129=EDGE_CURVE('',#169,#170,#196,.T.);
#130=EDGE_CURVE('',#170,#171,#197,.T.);
#131=EDGE_CURVE('',#172,#171,#198,.T.);
#132=EDGE_CURVE('',#169,#172,#199,.T.);
#133=EDGE_CURVE('',#173,#174,#200,.T.);
#134=EDGE_CURVE('',#174,#170,#201,.T.);
#135=EDGE_CURVE('',#173,#169,#202,.T.);
#136=EDGE_CURVE('',#175,#176,#203,.T.);
#137=EDGE_CURVE('',#177,#175,#25,.T.);
#138=EDGE_CURVE('',#176,#177,#204,.T.);
#139=EDGE_CURVE('',#178,#179,#205,.T.);
#140=EDGE_CURVE('',#174,#179,#206,.T.);
#141=EDGE_CURVE('',#173,#178,#207,.T.);
#142=EDGE_CURVE('',#179,#171,#208,.T.);
#143=EDGE_CURVE('',#178,#172,#209,.T.);
#144=EDGE_CURVE('',#156,#164,#210,.T.);
#145=EDGE_CURVE('',#157,#165,#211,.T.);
#146=EDGE_CURVE('',#176,#161,#212,.T.);
#147=EDGE_CURVE('',#177,#163,#213,.T.);
#148=EDGE_CURVE('',#175,#162,#214,.T.);
#149=EDGE_CURVE('',#153,#168,#215,.T.);
#150=EDGE_CURVE('',#154,#166,#216,.T.);
#151=EDGE_CURVE('',#152,#167,#217,.T.);
#152=VERTEX_POINT('',#451);
#153=VERTEX_POINT('',#452);
#154=VERTEX_POINT('',#454);
#155=VERTEX_POINT('',#457);
#156=VERTEX_POINT('',#458);
#157=VERTEX_POINT('',#460);
#158=VERTEX_POINT('',#462);
#159=VERTEX_POINT('',#466);
#160=VERTEX_POINT('',#468);
#161=VERTEX_POINT('',#472);
#162=VERTEX_POINT('',#473);
#163=VERTEX_POINT('',#475);
#164=VERTEX_POINT('',#478);
#165=VERTEX_POINT('',#480);
#166=VERTEX_POINT('',#484);
#167=VERTEX_POINT('',#485);
#168=VERTEX_POINT('',#487);
#169=VERTEX_POINT('',#490);
#170=VERTEX_POINT('',#491);
#171=VERTEX_POINT('',#493);
#172=VERTEX_POINT('',#495);
#173=VERTEX_POINT('',#499);
#174=VERTEX_POINT('',#500);
#175=VERTEX_POINT('',#505);
#176=VERTEX_POINT('',#506);
#177=VERTEX_POINT('',#508);
#178=VERTEX_POINT('',#511);
#179=VERTEX_POINT('',#512);
#180=LINE('',#450,#218);
#181=LINE('',#453,#219);
#182=LINE('',#456,#220);
#183=LINE('',#459,#221);
#184=LINE('',#461,#222);
#185=LINE('',#463,#223);
#186=LINE('',#465,#224);
#187=LINE('',#467,#225);
#188=LINE('',#469,#226);
#189=LINE('',#471,#227);
#190=LINE('',#474,#228);
#191=LINE('',#477,#229);
#192=LINE('',#479,#230);
#193=LINE('',#481,#231);
#194=LINE('',#486,#232);
#195=LINE('',#488,#233);
#196=LINE('',#489,#234);
#197=LINE('',#492,#235);
#198=LINE('',#494,#236);
#199=LINE('',#496,#237);
#200=LINE('',#498,#238);
#201=LINE('',#501,#239);
#202=LINE('',#502,#240);
#203=LINE('',#504,#241);
#204=LINE('',#509,#242);
#205=LINE('',#510,#243);
#206=LINE('',#513,#244);
#207=LINE('',#514,#245);
#208=LINE('',#516,#246);
#209=LINE('',#517,#247);
#210=LINE('',#519,#248);
#211=LINE('',#520,#249);
#212=LINE('',#523,#250);
#213=LINE('',#524,#251);
#214=LINE('',#526,#252);
#215=LINE('',#529,#253);
#216=LINE('',#530,#254);
#217=LINE('',#532,#255);
#218=VECTOR('',#370,1.);
#219=VECTOR('',#371,1.);
#220=VECTOR('',#374,1.);
#221=VECTOR('',#375,1.);
#222=VECTOR('',#376,1.);
#223=VECTOR('',#377,1.);
#224=VECTOR('',#380,1.);
#225=VECTOR('',#381,1.);
#226=VECTOR('',#382,1.);
#227=VECTOR('',#385,1.);
#228=VECTOR('',#386,1.);
#229=VECTOR('',#389,1.);
#230=VECTOR('',#390,1.);
#231=VECTOR('',#391,1.);
#232=VECTOR('',#396,1.);
#233=VECTOR('',#397,1.);
#234=VECTOR('',#398,1.);
#235=VECTOR('',#399,1.);
#236=VECTOR('',#400,1.);
#237=VECTOR('',#401,1.);
#238=VECTOR('',#404,1.);
#239=VECTOR('',#405,1.);
#240=VECTOR('',#406,1.);
#241=VECTOR('',#409,1.);
#242=VECTOR('',#412,1.);
#243=VECTOR('',#413,1.);
#244=VECTOR('',#414,1.);
#245=VECTOR('',#415,1.);
#246=VECTOR('',#418,1.);
#247=VECTOR('',#419,1.);
#248=VECTOR('',#422,1.);
#249=VECTOR('',#423,1.);
#250=VECTOR('',#428,1.);
#251=VECTOR('',#429,1.);
#252=VECTOR('',#432,1.);
#253=VECTOR('',#437,1.);
#254=VECTOR('',#438,1.);
#255=VECTOR('',#441,1.);
#256=EDGE_LOOP('',(#26,#27,#28));
#257=EDGE_LOOP('',(#29,#30,#31,#32));
#258=EDGE_LOOP('',(#33,#34,#35,#36));
#259=EDGE_LOOP('',(#37,#38,#39));
#260=EDGE_LOOP('',(#40,#41,#42,#43));
#261=EDGE_LOOP('',(#44,#45,#46));
#262=EDGE_LOOP('',(#47,#48,#49,#50));
#263=EDGE_LOOP('',(#51,#52,#53,#54));
#264=EDGE_LOOP('',(#55,#56,#57));
#265=EDGE_LOOP('',(#58,#59,#60,#61));
#266=EDGE_LOOP('',(#62,#63,#64,#65));
#267=EDGE_LOOP('',(#66,#67,#68,#69));
#268=EDGE_LOOP('',(#70,#71,#72,#73));
#269=EDGE_LOOP('',(#74,#75,#76,#77));
#270=EDGE_LOOP('',(#78,#79,#80,#81));
#271=EDGE_LOOP('',(#82,#83,#84,#85));
#272=EDGE_LOOP('',(#86,#87,#88,#89));
#273=EDGE_LOOP('',(#90,#91,#92,#93));
#274=EDGE_LOOP('',(#94,#95,#96,#97));
#275=EDGE_LOOP('',(#98,#99,#100,#101));
#276=EDGE_LOOP('',(#102,#103,#104,#105));
#277=EDGE_LOOP('',(#106,#107,#108,#109));
#278=FACE_BOUND('',#256,.T.);
#279=FACE_BOUND('',#257,.T.);
#280=FACE_BOUND('',#258,.T.);
#281=FACE_BOUND('',#259,.T.);
#282=FACE_BOUND('',#260,.T.);
#283=FACE_BOUND('',#261,.T.);
#284=FACE_BOUND('',#262,.T.);
#285=FACE_BOUND('',#263,.T.);
#286=FACE_BOUND('',#264,.T.);
#287=FACE_BOUND('',#265,.T.);
#288=FACE_BOUND('',#266,.T.);
#289=FACE_BOUND('',#267,.T.);
#290=FACE_BOUND('',#268,.T.);
#291=FACE_BOUND('',#269,.T.);
#292=FACE_BOUND('',#270,.T.);
#293=FACE_BOUND('',#271,.T.);
#294=FACE_BOUND('',#272,.T.);
#295=FACE_BOUND('',#273,.T.);
#296=FACE_BOUND('',#274,.T.);
#297=FACE_BOUND('',#275,.T.);
#298=FACE_BOUND('',#276,.T.);
#299=FACE_BOUND('',#277,.T.);
#300=PLANE('',#345);
#301=PLANE('',#347);
#302=PLANE('',#348);
#303=PLANE('',#350);
#304=PLANE('',#352);
#305=PLANE('',#353);
#306=PLANE('',#355);
#307=PLANE('',#356);
#308=PLANE('',#357);
#309=PLANE('',#358);
#310=PLANE('',#360);
#311=PLANE('',#361);
#312=PLANE('',#363);
#313=PLANE('',#364);
#314=PLANE('',#365);
#315=ADVANCED_FACE('',(#278,#279),#300,.F.);
#316=ADVANCED_FACE('',(#280),#301,.T.);
#317=ADVANCED_FACE('',(#281,#282),#302,.T.);
#318=ADVANCED_FACE('',(#283,#284),#303,.F.);
#319=ADVANCED_FACE('',(#285),#304,.F.);
#320=ADVANCED_FACE('',(#286,#287),#305,.T.);
#321=ADVANCED_FACE('',(#288),#306,.T.);
#322=ADVANCED_FACE('',(#289),#307,.F.);
#323=ADVANCED_FACE('',(#290,#291),#308,.F.);
#324=ADVANCED_FACE('',(#292),#309,.F.);
#325=ADVANCED_FACE('',(#293),#20,.F.);
#326=ADVANCED_FACE('',(#294),#310,.F.);
#327=ADVANCED_FACE('',(#295),#311,.F.);
#328=ADVANCED_FACE('',(#296),#21,.F.);
#329=ADVANCED_FACE('',(#297),#312,.F.);
#330=ADVANCED_FACE('',(#298),#313,.F.);
#331=ADVANCED_FACE('',(#299),#314,.T.);
#332=CLOSED_SHELL('',(#315,#316,#317,#318,#319,#320,#321,#322,#323,#324,
#325,#326,#327,#328,#329,#330,#331));
#333=STYLED_ITEM('',(#334),#341);
#334=PRESENTATION_STYLE_ASSIGNMENT((#335));
#335=SURFACE_STYLE_USAGE(.BOTH.,#336);
#336=SURFACE_SIDE_STYLE('',(#337));
#337=SURFACE_STYLE_FILL_AREA(#338);
#338=FILL_AREA_STYLE('',(#339));
#339=FILL_AREA_STYLE_COLOUR('',#340);
#340=COLOUR_RGB('',0.647058823529412,0.647058823529412,0.647058823529412);
#341=MANIFOLD_SOLID_BREP('Pencil Housing',#332);
#342=SHAPE_DEFINITION_REPRESENTATION(#542,#343);
#343=SHAPE_REPRESENTATION('Pencil Housing',(#344),#537);
#344=AXIS2_PLACEMENT_3D('',#448,#366,#367);
#345=AXIS2_PLACEMENT_3D('',#449,#368,#369);
#346=AXIS2_PLACEMENT_3D('',#455,#372,#373);
#347=AXIS2_PLACEMENT_3D('',#464,#378,#379);
#348=AXIS2_PLACEMENT_3D('',#470,#383,#384);
#349=AXIS2_PLACEMENT_3D('',#476,#387,#388);
#350=AXIS2_PLACEMENT_3D('',#482,#392,#393);
#351=AXIS2_PLACEMENT_3D('',#483,#394,#395);
#352=AXIS2_PLACEMENT_3D('',#497,#402,#403);
#353=AXIS2_PLACEMENT_3D('',#503,#407,#408);
#354=AXIS2_PLACEMENT_3D('',#507,#410,#411);
#355=AXIS2_PLACEMENT_3D('',#515,#416,#417);
#356=AXIS2_PLACEMENT_3D('',#518,#420,#421);
#357=AXIS2_PLACEMENT_3D('',#521,#424,#425);
#358=AXIS2_PLACEMENT_3D('',#522,#426,#427);
#359=AXIS2_PLACEMENT_3D('',#525,#430,#431);
#360=AXIS2_PLACEMENT_3D('',#527,#433,#434);
#361=AXIS2_PLACEMENT_3D('',#528,#435,#436);
#362=AXIS2_PLACEMENT_3D('',#531,#439,#440);
#363=AXIS2_PLACEMENT_3D('',#533,#442,#443);
#364=AXIS2_PLACEMENT_3D('',#534,#444,#445);
#365=AXIS2_PLACEMENT_3D('',#535,#446,#447);
#366=DIRECTION('',(0.,0.,1.));
#367=DIRECTION('',(1.,0.,0.));
#368=DIRECTION('',(0.,0.,1.));
#369=DIRECTION('',(1.,0.,0.));
#370=DIRECTION('',(-0.866025403784439,0.5,0.));
#371=DIRECTION('',(-0.866025403784439,-0.5,0.));
#372=DIRECTION('',(0.,0.,1.));
#373=DIRECTION('',(1.,0.,0.));
#374=DIRECTION('',(-1.,0.,0.));
#375=DIRECTION('',(0.,-1.,0.));
#376=DIRECTION('',(-1.,0.,0.));
#377=DIRECTION('',(0.,-1.,0.));
#378=DIRECTION('',(-1.,0.,-1.0842021724855E-16));
#379=DIRECTION('',(-1.0842021724855E-16,0.,1.));
#380=DIRECTION('',(1.0842021724855E-16,0.,-1.));
#381=DIRECTION('',(1.0842021724855E-16,0.,-1.));
#382=DIRECTION('',(0.,-1.,0.));
#383=DIRECTION('',(-1.4954512723938E-16,0.,1.));
#384=DIRECTION('',(1.,0.,1.4954512723938E-16));
#385=DIRECTION('',(-0.866025403784439,-0.5,-1.29509879201479E-16));
#386=DIRECTION('',(-0.866025403784439,0.5,-1.29509879201479E-16));
#387=DIRECTION('',(-1.4954512723938E-16,0.,1.));
#388=DIRECTION('',(1.,0.,1.4954512723938E-16));
#389=DIRECTION('',(-1.,0.,-1.4954512723938E-16));
#390=DIRECTION('',(-1.,0.,-1.4954512723938E-16));
#391=DIRECTION('',(0.,-1.,0.));
#392=DIRECTION('',(0.,0.,-1.));
#393=DIRECTION('',(-1.,0.,0.));
#394=DIRECTION('',(0.,0.,1.));
#395=DIRECTION('',(1.,0.,0.));
#396=DIRECTION('',(-0.866025403784439,-0.5,0.));
#397=DIRECTION('',(-0.866025403784439,0.5,0.));
#398=DIRECTION('',(0.,-1.,0.));
#399=DIRECTION('',(1.,0.,0.));
#400=DIRECTION('',(0.,-1.,0.));
#401=DIRECTION('',(1.,0.,0.));
#402=DIRECTION('',(1.,0.,0.));
#403=DIRECTION('',(0.,0.,-1.));
#404=DIRECTION('',(0.,-1.,0.));
#405=DIRECTION('',(0.,0.,1.));
#406=DIRECTION('',(0.,0.,1.));
#407=DIRECTION('',(0.,0.,-1.));
#408=DIRECTION('',(-1.,0.,0.));
#409=DIRECTION('',(0.866025403784439,0.5,0.));
#410=DIRECTION('',(0.,0.,-1.));
#411=DIRECTION('',(-1.,0.,0.));
#412=DIRECTION('',(0.866025403784439,-0.5,0.));
#413=DIRECTION('',(0.,-1.,0.));
#414=DIRECTION('',(1.,0.,0.));
#415=DIRECTION('',(1.,0.,0.));
#416=DIRECTION('',(1.,0.,0.));
#417=DIRECTION('',(0.,0.,-1.));
#418=DIRECTION('',(0.,0.,1.));
#419=DIRECTION('',(0.,0.,1.));
#420=DIRECTION('',(-1.,0.,-1.3010426069826E-16));
#421=DIRECTION('',(-1.3010426069826E-16,0.,1.));
#422=DIRECTION('',(1.3010426069826E-16,0.,-1.));
#423=DIRECTION('',(1.3010426069826E-16,0.,-1.));
#424=DIRECTION('',(0.,-1.,0.));
#425=DIRECTION('',(1.,0.,0.));
#426=DIRECTION('',(0.5,0.866025403784439,0.));
#427=DIRECTION('',(-0.866025403784439,0.5,0.));
#428=DIRECTION('',(0.,0.,1.));
#429=DIRECTION('',(0.,0.,1.));
#430=DIRECTION('',(0.,0.,1.));
#431=DIRECTION('',(1.,0.,0.));
#432=DIRECTION('',(0.,0.,1.));
#433=DIRECTION('',(-0.5,0.866025403784439,0.));
#434=DIRECTION('',(-0.866025403784439,-0.5,0.));
#435=DIRECTION('',(-0.5,0.866025403784439,0.));
#436=DIRECTION('',(-0.866025403784439,-0.5,0.));
#437=DIRECTION('',(0.,0.,1.));
#438=DIRECTION('',(0.,0.,1.));
#439=DIRECTION('',(0.,0.,1.));
#440=DIRECTION('',(1.,0.,0.));
#441=DIRECTION('',(0.,0.,1.));
#442=DIRECTION('',(0.5,0.866025403784439,0.));
#443=DIRECTION('',(-0.866025403784439,0.5,0.));
#444=DIRECTION('',(0.,-1.,0.));
#445=DIRECTION('',(1.,0.,0.));
#446=DIRECTION('',(0.,-1.,0.));
#447=DIRECTION('',(1.,0.,0.));
#448=CARTESIAN_POINT('',(0.,0.,0.));
#449=CARTESIAN_POINT('',(-2.60208521396521E-18,0.015,0.042));
#450=CARTESIAN_POINT('',(-0.00173371685740842,0.01199711431703,0.042));
#451=CARTESIAN_POINT('',(0.00225,0.00969711431702997,0.042));
#452=CARTESIAN_POINT('',(4.33680868994202E-19,0.0109961524227066,0.042));
#453=CARTESIAN_POINT('',(0.00173371685740842,0.01199711431703,0.042));
#454=CARTESIAN_POINT('',(-0.00225,0.00969711431702997,0.042));
#455=CARTESIAN_POINT('',(2.16840434497101E-19,0.0058,0.042));
#456=CARTESIAN_POINT('',(-2.60208521396521E-18,0.,0.042));
#457=CARTESIAN_POINT('',(0.0058,0.,0.042));
#458=CARTESIAN_POINT('',(-0.0058,0.,0.042));
#459=CARTESIAN_POINT('',(-0.0058,0.015,0.042));
#460=CARTESIAN_POINT('',(-0.0058,0.015,0.042));
#461=CARTESIAN_POINT('',(-2.60208521396521E-18,0.015,0.042));
#462=CARTESIAN_POINT('',(0.0058,0.015,0.042));
#463=CARTESIAN_POINT('',(0.0058,0.015,0.042));
#464=CARTESIAN_POINT('',(0.0058,0.015,0.022));
#465=CARTESIAN_POINT('',(0.0058,0.,0.022));
#466=CARTESIAN_POINT('',(0.0058,0.,0.002));
#467=CARTESIAN_POINT('',(0.0058,0.015,0.022));
#468=CARTESIAN_POINT('',(0.0058,0.015,0.002));
#469=CARTESIAN_POINT('',(0.0058,0.015,0.002));
#470=CARTESIAN_POINT('',(2.60208521396521E-18,0.015,0.002));
#471=CARTESIAN_POINT('',(0.00173371685740842,0.01199711431703,0.002));
#472=CARTESIAN_POINT('',(4.33680868994202E-19,0.0109961524227066,0.002));
#473=CARTESIAN_POINT('',(-0.00225,0.00969711431702997,0.002));
#474=CARTESIAN_POINT('',(-0.00173371685740842,0.01199711431703,0.002));
#475=CARTESIAN_POINT('',(0.00225,0.00969711431702997,0.002));
#476=CARTESIAN_POINT('',(2.16840434497101E-19,0.0058,0.002));
#477=CARTESIAN_POINT('',(2.60208521396521E-18,0.,0.002));
#478=CARTESIAN_POINT('',(-0.0058,0.,0.002));
#479=CARTESIAN_POINT('',(2.60208521396521E-18,0.015,0.002));
#480=CARTESIAN_POINT('',(-0.0058,0.015,0.002));
#481=CARTESIAN_POINT('',(-0.0058,0.015,0.002));
#482=CARTESIAN_POINT('',(8.67361737988404E-19,0.015,0.044));
#483=CARTESIAN_POINT('',(2.16840434497101E-19,0.0058,0.044));
#484=CARTESIAN_POINT('',(-0.00225,0.00969711431702997,0.044));
#485=CARTESIAN_POINT('',(0.00225,0.00969711431702997,0.044));
#486=CARTESIAN_POINT('',(-0.001125,0.0103466333698683,0.044));
#487=CARTESIAN_POINT('',(4.33680868994202E-19,0.0109961524227066,0.044));
#488=CARTESIAN_POINT('',(0.001125,0.0103466333698683,0.044));
#489=CARTESIAN_POINT('',(-0.007,0.015,0.044));
#490=CARTESIAN_POINT('',(-0.007,0.015,0.044));
#491=CARTESIAN_POINT('',(-0.007,-0.003,0.044));
#492=CARTESIAN_POINT('',(8.67361737988404E-19,-0.003,0.044));
#493=CARTESIAN_POINT('',(0.007,-0.003,0.044));
#494=CARTESIAN_POINT('',(0.007,0.015,0.044));
#495=CARTESIAN_POINT('',(0.007,0.015,0.044));
#496=CARTESIAN_POINT('',(8.67361737988404E-19,0.015,0.044));
#497=CARTESIAN_POINT('',(-0.007,0.015,0.022));
#498=CARTESIAN_POINT('',(-0.007,0.015,0.));
#499=CARTESIAN_POINT('',(-0.007,0.015,0.));
#500=CARTESIAN_POINT('',(-0.007,-0.003,0.));
#501=CARTESIAN_POINT('',(-0.007,-0.003,0.022));
#502=CARTESIAN_POINT('',(-0.007,0.015,0.022));
#503=CARTESIAN_POINT('',(0.,0.015,0.));
#504=CARTESIAN_POINT('',(0.00173371685740842,0.01199711431703,0.));
#505=CARTESIAN_POINT('',(-0.00225,0.00969711431702997,-1.7347234759768E-18));
#506=CARTESIAN_POINT('',(4.33680868994202E-19,0.0109961524227066,0.));
#507=CARTESIAN_POINT('',(2.16840434497101E-19,0.0058,0.));
#508=CARTESIAN_POINT('',(0.00225,0.00969711431702997,-1.7347234759768E-18));
#509=CARTESIAN_POINT('',(-0.00173371685740842,0.01199711431703,0.));
#510=CARTESIAN_POINT('',(0.007,0.015,0.));
#511=CARTESIAN_POINT('',(0.007,0.015,0.));
#512=CARTESIAN_POINT('',(0.007,-0.003,0.));
#513=CARTESIAN_POINT('',(0.,-0.003,0.));
#514=CARTESIAN_POINT('',(0.,0.015,0.));
#515=CARTESIAN_POINT('',(0.007,0.015,0.022));
#516=CARTESIAN_POINT('',(0.007,-0.003,0.022));
#517=CARTESIAN_POINT('',(0.007,0.015,0.022));
#518=CARTESIAN_POINT('',(-0.0058,0.015,0.022));
#519=CARTESIAN_POINT('',(-0.0058,0.,0.022));
#520=CARTESIAN_POINT('',(-0.0058,0.015,0.022));
#521=CARTESIAN_POINT('',(0.,0.015,0.022));
#522=CARTESIAN_POINT('',(0.001125,0.0103466333698683,-0.00455894437575343));
#523=CARTESIAN_POINT('',(4.33680868994202E-19,0.0109961524227066,-0.00455894437575343));
#524=CARTESIAN_POINT('',(0.00225,0.00969711431702997,-0.00455894437575343));
#525=CARTESIAN_POINT('',(2.16840434497101E-19,0.0058,-0.00455894437575343));
#526=CARTESIAN_POINT('',(-0.00225,0.00969711431702997,-0.00455894437575343));
#527=CARTESIAN_POINT('',(-0.001125,0.0103466333698683,-0.00455894437575343));
#528=CARTESIAN_POINT('',(-0.001125,0.0103466333698683,-0.00455894437575343));
#529=CARTESIAN_POINT('',(4.33680868994202E-19,0.0109961524227066,-0.00455894437575343));
#530=CARTESIAN_POINT('',(-0.00225,0.00969711431702997,-0.00455894437575343));
#531=CARTESIAN_POINT('',(2.16840434497101E-19,0.0058,-0.00455894437575343));
#532=CARTESIAN_POINT('',(0.00225,0.00969711431702997,-0.00455894437575343));
#533=CARTESIAN_POINT('',(0.001125,0.0103466333698683,-0.00455894437575343));
#534=CARTESIAN_POINT('',(0.,0.,0.022));
#535=CARTESIAN_POINT('',(0.,-0.003,0.022));
#536=MECHANICAL_DESIGN_GEOMETRIC_PRESENTATION_REPRESENTATION('',(#333),
#537);
#537=(
GEOMETRIC_REPRESENTATION_CONTEXT(3)
GLOBAL_UNCERTAINTY_ASSIGNED_CONTEXT((#538))
GLOBAL_UNIT_ASSIGNED_CONTEXT((#541,#540,#539))
REPRESENTATION_CONTEXT('Pencil Housing','TOP_LEVEL_ASSEMBLY_PART')
);
#538=UNCERTAINTY_MEASURE_WITH_UNIT(LENGTH_MEASURE(1.E-8),#541,
'DISTANCE_ACCURACY_VALUE','Maximum Tolerance applied to model');
#539=(
NAMED_UNIT(*)
SI_UNIT($,.STERADIAN.)
SOLID_ANGLE_UNIT()
);
#540=(
NAMED_UNIT(*)
PLANE_ANGLE_UNIT()
SI_UNIT($,.RADIAN.)
);
#541=(
LENGTH_UNIT()
NAMED_UNIT(*)
SI_UNIT($,.METRE.)
);
#542=PRODUCT_DEFINITION_SHAPE('','',#543);
#543=PRODUCT_DEFINITION('','',#545,#544);
#544=PRODUCT_DEFINITION_CONTEXT('',#551,'design');
#545=PRODUCT_DEFINITION_FORMATION_WITH_SPECIFIED_SOURCE('','',#547,
 .NOT_KNOWN.);
#546=PRODUCT_RELATED_PRODUCT_CATEGORY('','',(#547));
#547=PRODUCT('Pencil Housing','Pencil Housing','Pencil Housing',(#549));
#548=PRODUCT_CATEGORY('','');
#549=PRODUCT_CONTEXT('',#551,'mechanical');
#550=APPLICATION_PROTOCOL_DEFINITION('international standard',
'automotive_design',2010,#551);
#551=APPLICATION_CONTEXT(
'core data for automotive mechanical design processes');
ENDSEC;
END-ISO-10303-21;
