ISO-10303-21;
HEADER;
/* Generated by software containing ST-Developer
 * from STEP Tools, Inc. (www.steptools.com) 
 */
/* OPTION: using custom renumber hook */

FILE_DESCRIPTION(
/* description */ ('STEP AP214',
'CAx-IF Rec.Pracs.---User Defined Attributes---1.5---2016-08-15'),
/* implementation_level */ '2;1');

FILE_NAME(
/* name */ '6a95da22d62aea1f59761193',
/* time_stamp */ '2026-08-31T19:46:42Z',
/* author */ (''),
/* organization */ (''),
/* preprocessor_version */ 'ST-DEVELOPER v20',
/* originating_system */ 'ONSHAPE BY PTC INC, 1.220',
/* authorisation */ '  ');

FILE_SCHEMA (('AUTOMOTIVE_DESIGN {1 0 10303 214 3 1 1}'));
ENDSEC;

DATA;
#10=PROPERTY_DEFINITION_REPRESENTATION(#14,#12);
#11=PROPERTY_DEFINITION_REPRESENTATION(#15,#13);
#12=REPRESENTATION('',(#16),#260);
#13=REPRESENTATION('',(#17),#260);
#14=PROPERTY_DEFINITION('pmi validation property','',#265);
#15=PROPERTY_DEFINITION('pmi validation property','',#265);
#16=VALUE_REPRESENTATION_ITEM('number of annotations',COUNT_MEASURE(0.));
#17=VALUE_REPRESENTATION_ITEM('number of views',COUNT_MEASURE(0.));
#18=SHAPE_REPRESENTATION_RELATIONSHIP('','',#163,#19);
#19=ADVANCED_BREP_SHAPE_REPRESENTATION('',(#161),#260);
#20=B_SPLINE_CURVE_WITH_KNOTS('',3,(#243,#244,#245,#246,#247,#248,#249,
#250,#251,#252,#253),.UNSPECIFIED.,.T.,.F.,(1,1,1,1,1,1,1,1,1,1,1,1,1,1,
1),(-0.00354235084487127,-0.00236156722991418,-0.00118078361495709,8.06240145853097E-21,
0.00118078361495709,0.00236156722991418,0.00354235084487127,0.00472313445982836,
0.00590391807478544,0.00708470168974253,0.00826548530469962,0.00944626891965671,
0.0106270525346138,0.0118078361495709,0.012988619764528),.UNSPECIFIED.);
#21=CYLINDRICAL_SURFACE('',#172,0.0045);
#22=CYLINDRICAL_SURFACE('',#173,0.0015);
#23=CIRCLE('',#168,0.0045);
#24=CIRCLE('',#171,0.0045);
#25=CIRCLE('',#174,0.0015);
#26=ORIENTED_EDGE('',*,*,#58,.F.);
#27=ORIENTED_EDGE('',*,*,#59,.T.);
#28=ORIENTED_EDGE('',*,*,#60,.T.);
#29=ORIENTED_EDGE('',*,*,#61,.T.);
#30=ORIENTED_EDGE('',*,*,#62,.F.);
#31=ORIENTED_EDGE('',*,*,#63,.T.);
#32=ORIENTED_EDGE('',*,*,#61,.F.);
#33=ORIENTED_EDGE('',*,*,#64,.F.);
#34=ORIENTED_EDGE('',*,*,#65,.F.);
#35=ORIENTED_EDGE('',*,*,#64,.T.);
#36=ORIENTED_EDGE('',*,*,#60,.F.);
#37=ORIENTED_EDGE('',*,*,#66,.F.);
#38=ORIENTED_EDGE('',*,*,#67,.T.);
#39=ORIENTED_EDGE('',*,*,#68,.F.);
#40=ORIENTED_EDGE('',*,*,#66,.T.);
#41=ORIENTED_EDGE('',*,*,#59,.F.);
#42=ORIENTED_EDGE('',*,*,#69,.F.);
#43=ORIENTED_EDGE('',*,*,#70,.T.);
#44=ORIENTED_EDGE('',*,*,#63,.F.);
#45=ORIENTED_EDGE('',*,*,#71,.T.);
#46=ORIENTED_EDGE('',*,*,#69,.T.);
#47=ORIENTED_EDGE('',*,*,#58,.T.);
#48=ORIENTED_EDGE('',*,*,#72,.F.);
#49=ORIENTED_EDGE('',*,*,#67,.F.);
#50=ORIENTED_EDGE('',*,*,#70,.F.);
#51=ORIENTED_EDGE('',*,*,#73,.T.);
#52=ORIENTED_EDGE('',*,*,#72,.T.);
#53=ORIENTED_EDGE('',*,*,#73,.F.);
#54=ORIENTED_EDGE('',*,*,#62,.T.);
#55=ORIENTED_EDGE('',*,*,#65,.T.);
#56=ORIENTED_EDGE('',*,*,#68,.T.);
#57=ORIENTED_EDGE('',*,*,#71,.F.);
#58=EDGE_CURVE('',#74,#75,#86,.T.);
#59=EDGE_CURVE('',#74,#76,#87,.T.);
#60=EDGE_CURVE('',#76,#77,#88,.T.);
#61=EDGE_CURVE('',#77,#75,#89,.T.);
#62=EDGE_CURVE('',#78,#79,#90,.T.);
#63=EDGE_CURVE('',#78,#75,#91,.T.);
#64=EDGE_CURVE('',#79,#77,#92,.T.);
#65=EDGE_CURVE('',#79,#80,#93,.T.);
#66=EDGE_CURVE('',#80,#76,#94,.T.);
#67=EDGE_CURVE('',#81,#81,#23,.F.);
#68=EDGE_CURVE('',#80,#82,#95,.T.);
#69=EDGE_CURVE('',#82,#74,#96,.T.);
#70=EDGE_CURVE('',#83,#83,#24,.T.);
#71=EDGE_CURVE('',#78,#82,#97,.T.);
#72=EDGE_CURVE('',#84,#84,#20,.T.);
#73=EDGE_CURVE('',#85,#85,#25,.T.);
#74=VERTEX_POINT('',#215);
#75=VERTEX_POINT('',#216);
#76=VERTEX_POINT('',#218);
#77=VERTEX_POINT('',#220);
#78=VERTEX_POINT('',#224);
#79=VERTEX_POINT('',#225);
#80=VERTEX_POINT('',#230);
#81=VERTEX_POINT('',#233);
#82=VERTEX_POINT('',#236);
#83=VERTEX_POINT('',#240);
#84=VERTEX_POINT('',#254);
#85=VERTEX_POINT('',#257);
#86=LINE('',#214,#98);
#87=LINE('',#217,#99);
#88=LINE('',#219,#100);
#89=LINE('',#221,#101);
#90=LINE('',#223,#102);
#91=LINE('',#226,#103);
#92=LINE('',#227,#104);
#93=LINE('',#229,#105);
#94=LINE('',#231,#106);
#95=LINE('',#235,#107);
#96=LINE('',#237,#108);
#97=LINE('',#241,#109);
#98=VECTOR('',#180,1.);
#99=VECTOR('',#181,1.);
#100=VECTOR('',#182,1.);
#101=VECTOR('',#183,1.);
#102=VECTOR('',#186,1.);
#103=VECTOR('',#187,1.);
#104=VECTOR('',#188,1.);
#105=VECTOR('',#191,1.);
#106=VECTOR('',#192,1.);
#107=VECTOR('',#197,1.);
#108=VECTOR('',#198,1.);
#109=VECTOR('',#203,1.);
#110=EDGE_LOOP('',(#26,#27,#28,#29));
#111=EDGE_LOOP('',(#30,#31,#32,#33));
#112=EDGE_LOOP('',(#34,#35,#36,#37));
#113=EDGE_LOOP('',(#38));
#114=EDGE_LOOP('',(#39,#40,#41,#42));
#115=EDGE_LOOP('',(#43));
#116=EDGE_LOOP('',(#44,#45,#46,#47));
#117=EDGE_LOOP('',(#48));
#118=EDGE_LOOP('',(#49));
#119=EDGE_LOOP('',(#50));
#120=EDGE_LOOP('',(#51));
#121=EDGE_LOOP('',(#52));
#122=EDGE_LOOP('',(#53));
#123=EDGE_LOOP('',(#54,#55,#56,#57));
#124=FACE_BOUND('',#110,.T.);
#125=FACE_BOUND('',#111,.T.);
#126=FACE_BOUND('',#112,.T.);
#127=FACE_BOUND('',#113,.T.);
#128=FACE_BOUND('',#114,.T.);
#129=FACE_BOUND('',#115,.T.);
#130=FACE_BOUND('',#116,.T.);
#131=FACE_BOUND('',#117,.T.);
#132=FACE_BOUND('',#118,.T.);
#133=FACE_BOUND('',#119,.T.);
#134=FACE_BOUND('',#120,.T.);
#135=FACE_BOUND('',#121,.T.);
#136=FACE_BOUND('',#122,.T.);
#137=FACE_BOUND('',#123,.T.);
#138=PLANE('',#165);
#139=PLANE('',#166);
#140=PLANE('',#167);
#141=PLANE('',#169);
#142=PLANE('',#170);
#143=PLANE('',#175);
#144=ADVANCED_FACE('',(#124),#138,.T.);
#145=ADVANCED_FACE('',(#125),#139,.T.);
#146=ADVANCED_FACE('',(#126,#127),#140,.T.);
#147=ADVANCED_FACE('',(#128),#141,.T.);
#148=ADVANCED_FACE('',(#129,#130),#142,.F.);
#149=ADVANCED_FACE('',(#131,#132,#133),#21,.F.);
#150=ADVANCED_FACE('',(#134,#135),#22,.F.);
#151=ADVANCED_FACE('',(#136,#137),#143,.F.);
#152=CLOSED_SHELL('',(#144,#145,#146,#147,#148,#149,#150,#151));
#153=STYLED_ITEM('',(#154),#161);
#154=PRESENTATION_STYLE_ASSIGNMENT((#155));
#155=SURFACE_STYLE_USAGE(.BOTH.,#156);
#156=SURFACE_SIDE_STYLE('',(#157));
#157=SURFACE_STYLE_FILL_AREA(#158);
#158=FILL_AREA_STYLE('',(#159));
#159=FILL_AREA_STYLE_COLOUR('',#160);
#160=COLOUR_RGB('',0.917647058823529,0.917647058823529,0.917647058823529);
#161=MANIFOLD_SOLID_BREP('Pencil Block',#152);
#162=SHAPE_DEFINITION_REPRESENTATION(#265,#163);
#163=SHAPE_REPRESENTATION('Pencil Block',(#164),#260);
#164=AXIS2_PLACEMENT_3D('',#212,#176,#177);
#165=AXIS2_PLACEMENT_3D('',#213,#178,#179);
#166=AXIS2_PLACEMENT_3D('',#222,#184,#185);
#167=AXIS2_PLACEMENT_3D('',#228,#189,#190);
#168=AXIS2_PLACEMENT_3D('',#232,#193,#194);
#169=AXIS2_PLACEMENT_3D('',#234,#195,#196);
#170=AXIS2_PLACEMENT_3D('',#238,#199,#200);
#171=AXIS2_PLACEMENT_3D('',#239,#201,#202);
#172=AXIS2_PLACEMENT_3D('',#242,#204,#205);
#173=AXIS2_PLACEMENT_3D('',#255,#206,#207);
#174=AXIS2_PLACEMENT_3D('',#256,#208,#209);
#175=AXIS2_PLACEMENT_3D('',#258,#210,#211);
#176=DIRECTION('',(0.,0.,1.));
#177=DIRECTION('',(1.,0.,0.));
#178=DIRECTION('',(0.,-1.,0.));
#179=DIRECTION('',(1.,0.,0.));
#180=DIRECTION('',(-1.,0.,-1.52168725962878E-16));
#181=DIRECTION('',(0.,0.,1.));
#182=DIRECTION('',(-1.,0.,0.));
#183=DIRECTION('',(1.0842021724855E-16,0.,-1.));
#184=DIRECTION('',(-1.,0.,-1.0842021724855E-16));
#185=DIRECTION('',(-1.0842021724855E-16,0.,1.));
#186=DIRECTION('',(-1.0842021724855E-16,0.,1.));
#187=DIRECTION('',(0.,-1.,0.));
#188=DIRECTION('',(0.,-1.,0.));
#189=DIRECTION('',(0.,0.,1.));
#190=DIRECTION('',(1.,0.,0.));
#191=DIRECTION('',(1.,0.,0.));
#192=DIRECTION('',(0.,-1.,0.));
#193=DIRECTION('',(0.,0.,1.));
#194=DIRECTION('',(1.,0.,0.));
#195=DIRECTION('',(1.,0.,0.));
#196=DIRECTION('',(0.,0.,-1.));
#197=DIRECTION('',(0.,0.,-1.));
#198=DIRECTION('',(0.,-1.,0.));
#199=DIRECTION('',(-1.52168725962878E-16,0.,1.));
#200=DIRECTION('',(1.,0.,1.52168725962878E-16));
#201=DIRECTION('',(-1.52168725962878E-16,0.,1.));
#202=DIRECTION('',(1.,0.,1.52168725962878E-16));
#203=DIRECTION('',(1.,0.,1.52168725962878E-16));
#204=DIRECTION('',(0.,0.,-1.));
#205=DIRECTION('',(-1.,0.,0.));
#206=DIRECTION('',(0.,1.,0.));
#207=DIRECTION('',(0.,0.,1.));
#208=DIRECTION('',(0.,1.,0.));
#209=DIRECTION('',(0.,0.,1.));
#210=DIRECTION('',(0.,-1.,0.));
#211=DIRECTION('',(1.,0.,0.));
#212=CARTESIAN_POINT('',(0.,0.,0.));
#213=CARTESIAN_POINT('',(1.7347234759768E-18,0.,0.006));
#214=CARTESIAN_POINT('',(8.67361737988404E-19,0.,0.002));
#215=CARTESIAN_POINT('',(0.0057,0.,0.002));
#216=CARTESIAN_POINT('',(-0.0057,0.,0.002));
#217=CARTESIAN_POINT('',(0.0057,0.,0.006));
#218=CARTESIAN_POINT('',(0.0057,0.,0.01));
#219=CARTESIAN_POINT('',(-8.67361737988404E-19,0.,0.01));
#220=CARTESIAN_POINT('',(-0.0057,0.,0.01));
#221=CARTESIAN_POINT('',(-0.0057,0.,0.006));
#222=CARTESIAN_POINT('',(-0.0057,0.259717621135332,0.006));
#223=CARTESIAN_POINT('',(-0.0057,0.0148,0.006));
#224=CARTESIAN_POINT('',(-0.0057,0.0148,0.002));
#225=CARTESIAN_POINT('',(-0.0057,0.0148,0.01));
#226=CARTESIAN_POINT('',(-0.0057,0.259717621135332,0.002));
#227=CARTESIAN_POINT('',(-0.0057,0.259717621135332,0.01));
#228=CARTESIAN_POINT('',(-8.67361737988404E-19,0.259717621135332,0.01));
#229=CARTESIAN_POINT('',(-8.67361737988404E-19,0.0148,0.01));
#230=CARTESIAN_POINT('',(0.0057,0.0148,0.01));
#231=CARTESIAN_POINT('',(0.0057,0.259717621135332,0.01));
#232=CARTESIAN_POINT('',(2.16840434497101E-19,0.0058,0.01));
#233=CARTESIAN_POINT('',(0.0045,0.0058,0.01));
#234=CARTESIAN_POINT('',(0.0057,0.259717621135332,0.006));
#235=CARTESIAN_POINT('',(0.0057,0.0148,0.006));
#236=CARTESIAN_POINT('',(0.0057,0.0148,0.002));
#237=CARTESIAN_POINT('',(0.0057,0.259717621135332,0.002));
#238=CARTESIAN_POINT('',(8.67361737988404E-19,0.259717621135332,0.002));
#239=CARTESIAN_POINT('',(2.16840434497101E-19,0.0058,0.002));
#240=CARTESIAN_POINT('',(0.0045,0.0058,0.002));
#241=CARTESIAN_POINT('',(8.67361737988404E-19,0.0148,0.002));
#242=CARTESIAN_POINT('',(2.16840434497101E-19,0.0058,0.010002));
#243=CARTESIAN_POINT('',(0.00117588553279788,0.010174977520359,0.00717486698325761));
#244=CARTESIAN_POINT('',(2.60568385111954E-8,0.0103625189250089,0.00766272102816084));
#245=CARTESIAN_POINT('',(-0.00117598976015193,0.0101749467796052,0.00717424890409904));
#246=CARTESIAN_POINT('',(-0.00166223885916878,0.00997644118402351,0.00600203280556943));
#247=CARTESIAN_POINT('',(-0.00117505261757676,0.0101751333797413,0.00482389209228447));
#248=CARTESIAN_POINT('',(-1.01832840574893E-6,0.0103624284793837,0.0043379444600627));
#249=CARTESIAN_POINT('',(0.001175518608759,0.0101751524617467,0.00482433079039671));
#250=CARTESIAN_POINT('',(0.00166214895699814,0.00997642853784396,0.00600001547041058));
#251=CARTESIAN_POINT('',(0.00117588553279788,0.010174977520359,0.00717486698325761));
#252=CARTESIAN_POINT('',(2.60568385111954E-8,0.0103625189250089,0.00766272102816084));
#253=CARTESIAN_POINT('',(-0.00117598976015193,0.0101749467796052,0.00717424890409904));
#254=CARTESIAN_POINT('',(-8.30475562122923E-21,0.0103,0.0075));
#255=CARTESIAN_POINT('',(0.,-2.00000000000027E-6,0.006));
#256=CARTESIAN_POINT('',(0.,0.0148,0.006));
#257=CARTESIAN_POINT('',(0.,0.0148,0.0075));
#258=CARTESIAN_POINT('',(0.,0.0148,0.022));
#259=MECHANICAL_DESIGN_GEOMETRIC_PRESENTATION_REPRESENTATION('',(#153),
#260);
#260=(
GEOMETRIC_REPRESENTATION_CONTEXT(3)
GLOBAL_UNCERTAINTY_ASSIGNED_CONTEXT((#261))
GLOBAL_UNIT_ASSIGNED_CONTEXT((#264,#263,#262))
REPRESENTATION_CONTEXT('Pencil Block','TOP_LEVEL_ASSEMBLY_PART')
);
#261=UNCERTAINTY_MEASURE_WITH_UNIT(LENGTH_MEASURE(2.E-5),#264,
'DISTANCE_ACCURACY_VALUE','Maximum Tolerance applied to model');
#262=(
NAMED_UNIT(*)
SI_UNIT($,.STERADIAN.)
SOLID_ANGLE_UNIT()
);
#263=(
NAMED_UNIT(*)
PLANE_ANGLE_UNIT()
SI_UNIT($,.RADIAN.)
);
#264=(
LENGTH_UNIT()
NAMED_UNIT(*)
SI_UNIT($,.METRE.)
);
#265=PRODUCT_DEFINITION_SHAPE('','',#266);
#266=PRODUCT_DEFINITION('','',#268,#267);
#267=PRODUCT_DEFINITION_CONTEXT('',#274,'design');
#268=PRODUCT_DEFINITION_FORMATION_WITH_SPECIFIED_SOURCE('','',#270,
 .NOT_KNOWN.);
#269=PRODUCT_RELATED_PRODUCT_CATEGORY('','',(#270));
#270=PRODUCT('Pencil Block','Pencil Block','Pencil Block',(#272));
#271=PRODUCT_CATEGORY('','');
#272=PRODUCT_CONTEXT('',#274,'mechanical');
#273=APPLICATION_PROTOCOL_DEFINITION('international standard',
'automotive_design',2010,#274);
#274=APPLICATION_CONTEXT(
'core data for automotive mechanical design processes');
ENDSEC;
END-ISO-10303-21;
