ISO-10303-21;
HEADER;
/* Generated by software containing ST-Developer
 * from STEP Tools, Inc. (www.steptools.com) 
 */
/* OPTION: using custom renumber hook */

FILE_DESCRIPTION(
/* description */ ('STEP AP214',
'CAx-IF Rec.Pracs.---User Defined Attributes---1.5---2016-08-15'),
/* implementation_level */ '2;1');

FILE_NAME(
/* name */ '6a95da3cd62aea1f5976164c',
/* time_stamp */ '2026-08-31T19:47:08Z',
/* author */ (''),
/* organization */ (''),
/* preprocessor_version */ 'ST-DEVELOPER v20',
/* originating_system */ 'ONSHAPE BY PTC INC, 1.220',
/* authorisation */ '  ');

FILE_SCHEMA (('AUTOMOTIVE_DESIGN {1 0 10303 214 3 1 1}'));
ENDSEC;

DATA;
#10=PROPERTY_DEFINITION_REPRESENTATION(#14,#12);
#11=PROPERTY_DEFINITION_REPRESENTATION(#15,#13);
#12=REPRESENTATION('',(#16),#1871);
#13=REPRESENTATION('',(#17),#1871);
#14=PROPERTY_DEFINITION('pmi validation property','',#1876);
#15=PROPERTY_DEFINITION('pmi validation property','',#1876);
#16=VALUE_REPRESENTATION_ITEM('number of annotations',COUNT_MEASURE(0.));
#17=VALUE_REPRESENTATION_ITEM('number of views',COUNT_MEASURE(0.));
#18=SHAPE_REPRESENTATION_RELATIONSHIP('','',#1141,#19);
#19=ADVANCED_BREP_SHAPE_REPRESENTATION('',(#1139),#1871);
#20=LINE('',#1580,#128);
#21=LINE('',#1583,#129);
#22=LINE('',#1585,#130);
#23=LINE('',#1587,#131);
#24=LINE('',#1589,#132);
#25=LINE('',#1593,#133);
#26=LINE('',#1597,#134);
#27=LINE('',#1599,#135);
#28=LINE('',#1603,#136);
#29=LINE('',#1607,#137);
#30=LINE('',#1611,#138);
#31=LINE('',#1615,#139);
#32=LINE('',#1617,#140);
#33=LINE('',#1620,#141);
#34=LINE('',#1621,#142);
#35=LINE('',#1623,#143);
#36=LINE('',#1626,#144);
#37=LINE('',#1627,#145);
#38=LINE('',#1629,#146);
#39=LINE('',#1631,#147);
#40=LINE('',#1635,#148);
#41=LINE('',#1637,#149);
#42=LINE('',#1639,#150);
#43=LINE('',#1643,#151);
#44=LINE('',#1645,#152);
#45=LINE('',#1647,#153);
#46=LINE('',#1658,#154);
#47=LINE('',#1660,#155);
#48=LINE('',#1669,#156);
#49=LINE('',#1672,#157);
#50=LINE('',#1674,#158);
#51=LINE('',#1676,#159);
#52=LINE('',#1678,#160);
#53=LINE('',#1680,#161);
#54=LINE('',#1681,#162);
#55=LINE('',#1684,#163);
#56=LINE('',#1686,#164);
#57=LINE('',#1688,#165);
#58=LINE('',#1690,#166);
#59=LINE('',#1692,#167);
#60=LINE('',#1693,#168);
#61=LINE('',#1695,#169);
#62=LINE('',#1697,#170);
#63=LINE('',#1699,#171);
#64=LINE('',#1700,#172);
#65=LINE('',#1702,#173);
#66=LINE('',#1704,#174);
#67=LINE('',#1706,#175);
#68=LINE('',#1708,#176);
#69=LINE('',#1710,#177);
#70=LINE('',#1711,#178);
#71=LINE('',#1715,#179);
#72=LINE('',#1717,#180);
#73=LINE('',#1719,#181);
#74=LINE('',#1721,#182);
#75=LINE('',#1722,#183);
#76=LINE('',#1726,#184);
#77=LINE('',#1730,#185);
#78=LINE('',#1732,#186);
#79=LINE('',#1735,#187);
#80=LINE('',#1737,#188);
#81=LINE('',#1738,#189);
#82=LINE('',#1740,#190);
#83=LINE('',#1744,#191);
#84=LINE('',#1746,#192);
#85=LINE('',#1748,#193);
#86=LINE('',#1750,#194);
#87=LINE('',#1752,#195);
#88=LINE('',#1754,#196);
#89=LINE('',#1756,#197);
#90=LINE('',#1760,#198);
#91=LINE('',#1762,#199);
#92=LINE('',#1764,#200);
#93=LINE('',#1768,#201);
#94=LINE('',#1770,#202);
#95=LINE('',#1772,#203);
#96=LINE('',#1774,#204);
#97=LINE('',#1783,#205);
#98=LINE('',#1785,#206);
#99=LINE('',#1787,#207);
#100=LINE('',#1789,#208);
#101=LINE('',#1800,#209);
#102=LINE('',#1801,#210);
#103=LINE('',#1803,#211);
#104=LINE('',#1819,#212);
#105=LINE('',#1821,#213);
#106=LINE('',#1823,#214);
#107=LINE('',#1825,#215);
#108=LINE('',#1827,#216);
#109=LINE('',#1829,#217);
#110=LINE('',#1831,#218);
#111=LINE('',#1833,#219);
#112=LINE('',#1835,#220);
#113=LINE('',#1837,#221);
#114=LINE('',#1839,#222);
#115=LINE('',#1841,#223);
#116=LINE('',#1844,#224);
#117=LINE('',#1846,#225);
#118=LINE('',#1848,#226);
#119=LINE('',#1850,#227);
#120=LINE('',#1852,#228);
#121=LINE('',#1854,#229);
#122=LINE('',#1856,#230);
#123=LINE('',#1858,#231);
#124=LINE('',#1860,#232);
#125=LINE('',#1862,#233);
#126=LINE('',#1864,#234);
#127=LINE('',#1866,#235);
#128=VECTOR('',#1272,1.);
#129=VECTOR('',#1273,1.);
#130=VECTOR('',#1274,1.);
#131=VECTOR('',#1275,1.);
#132=VECTOR('',#1276,1.);
#133=VECTOR('',#1279,1.);
#134=VECTOR('',#1282,1.);
#135=VECTOR('',#1283,1.);
#136=VECTOR('',#1286,1.);
#137=VECTOR('',#1289,1.);
#138=VECTOR('',#1292,1.);
#139=VECTOR('',#1295,1.);
#140=VECTOR('',#1298,1.);
#141=VECTOR('',#1299,1.);
#142=VECTOR('',#1300,1.);
#143=VECTOR('',#1303,1.);
#144=VECTOR('',#1304,1.);
#145=VECTOR('',#1305,1.);
#146=VECTOR('',#1308,1.);
#147=VECTOR('',#1309,1.);
#148=VECTOR('',#1314,1.);
#149=VECTOR('',#1317,1.);
#150=VECTOR('',#1318,1.);
#151=VECTOR('',#1323,1.);
#152=VECTOR('',#1326,1.);
#153=VECTOR('',#1327,1.);
#154=VECTOR('',#1342,1.);
#155=VECTOR('',#1343,1.);
#156=VECTOR('',#1354,1.);
#157=VECTOR('',#1355,1.);
#158=VECTOR('',#1356,1.);
#159=VECTOR('',#1357,1.);
#160=VECTOR('',#1358,1.);
#161=VECTOR('',#1359,1.);
#162=VECTOR('',#1360,1.);
#163=VECTOR('',#1361,1.);
#164=VECTOR('',#1362,1.);
#165=VECTOR('',#1363,1.);
#166=VECTOR('',#1364,1.);
#167=VECTOR('',#1365,1.);
#168=VECTOR('',#1366,1.);
#169=VECTOR('',#1367,1.);
#170=VECTOR('',#1368,1.);
#171=VECTOR('',#1369,1.);
#172=VECTOR('',#1370,1.);
#173=VECTOR('',#1371,1.);
#174=VECTOR('',#1374,1.);
#175=VECTOR('',#1375,1.);
#176=VECTOR('',#1376,1.);
#177=VECTOR('',#1379,1.);
#178=VECTOR('',#1380,1.);
#179=VECTOR('',#1387,1.);
#180=VECTOR('',#1388,1.);
#181=VECTOR('',#1389,1.);
#182=VECTOR('',#1392,1.);
#183=VECTOR('',#1393,1.);
#184=VECTOR('',#1400,1.);
#185=VECTOR('',#1403,1.);
#186=VECTOR('',#1406,1.);
#187=VECTOR('',#1407,1.);
#188=VECTOR('',#1408,1.);
#189=VECTOR('',#1409,1.);
#190=VECTOR('',#1412,1.);
#191=VECTOR('',#1417,1.);
#192=VECTOR('',#1418,1.);
#193=VECTOR('',#1419,1.);
#194=VECTOR('',#1420,1.);
#195=VECTOR('',#1421,1.);
#196=VECTOR('',#1422,1.);
#197=VECTOR('',#1425,1.);
#198=VECTOR('',#1430,1.);
#199=VECTOR('',#1431,1.);
#200=VECTOR('',#1434,1.);
#201=VECTOR('',#1439,1.);
#202=VECTOR('',#1440,1.);
#203=VECTOR('',#1441,1.);
#204=VECTOR('',#1444,1.);
#205=VECTOR('',#1453,1.);
#206=VECTOR('',#1456,1.);
#207=VECTOR('',#1457,1.);
#208=VECTOR('',#1460,1.);
#209=VECTOR('',#1473,1.);
#210=VECTOR('',#1474,1.);
#211=VECTOR('',#1477,1.);
#212=VECTOR('',#1502,1.);
#213=VECTOR('',#1503,1.);
#214=VECTOR('',#1504,1.);
#215=VECTOR('',#1507,1.);
#216=VECTOR('',#1508,1.);
#217=VECTOR('',#1511,1.);
#218=VECTOR('',#1512,1.);
#219=VECTOR('',#1515,1.);
#220=VECTOR('',#1516,1.);
#221=VECTOR('',#1519,1.);
#222=VECTOR('',#1520,1.);
#223=VECTOR('',#1523,1.);
#224=VECTOR('',#1528,1.);
#225=VECTOR('',#1529,1.);
#226=VECTOR('',#1530,1.);
#227=VECTOR('',#1533,1.);
#228=VECTOR('',#1534,1.);
#229=VECTOR('',#1537,1.);
#230=VECTOR('',#1538,1.);
#231=VECTOR('',#1541,1.);
#232=VECTOR('',#1542,1.);
#233=VECTOR('',#1545,1.);
#234=VECTOR('',#1546,1.);
#235=VECTOR('',#1549,1.);
#236=PLANE('',#1149);
#237=PLANE('',#1162);
#238=PLANE('',#1163);
#239=PLANE('',#1164);
#240=PLANE('',#1167);
#241=PLANE('',#1170);
#242=PLANE('',#1177);
#243=PLANE('',#1180);
#244=PLANE('',#1183);
#245=PLANE('',#1184);
#246=PLANE('',#1185);
#247=PLANE('',#1186);
#248=PLANE('',#1187);
#249=PLANE('',#1188);
#250=PLANE('',#1189);
#251=PLANE('',#1190);
#252=PLANE('',#1193);
#253=PLANE('',#1196);
#254=PLANE('',#1199);
#255=PLANE('',#1202);
#256=PLANE('',#1203);
#257=PLANE('',#1208);
#258=PLANE('',#1211);
#259=PLANE('',#1216);
#260=PLANE('',#1217);
#261=PLANE('',#1220);
#262=PLANE('',#1223);
#263=PLANE('',#1228);
#264=PLANE('',#1229);
#265=PLANE('',#1230);
#266=PLANE('',#1231);
#267=PLANE('',#1232);
#268=PLANE('',#1233);
#269=PLANE('',#1234);
#270=PLANE('',#1235);
#271=PLANE('',#1236);
#272=PLANE('',#1237);
#273=PLANE('',#1238);
#274=PLANE('',#1239);
#275=PLANE('',#1240);
#276=PLANE('',#1241);
#277=ORIENTED_EDGE('',*,*,#573,.F.);
#278=ORIENTED_EDGE('',*,*,#574,.F.);
#279=ORIENTED_EDGE('',*,*,#575,.F.);
#280=ORIENTED_EDGE('',*,*,#576,.F.);
#281=ORIENTED_EDGE('',*,*,#577,.F.);
#282=ORIENTED_EDGE('',*,*,#578,.F.);
#283=ORIENTED_EDGE('',*,*,#579,.F.);
#284=ORIENTED_EDGE('',*,*,#580,.F.);
#285=ORIENTED_EDGE('',*,*,#581,.F.);
#286=ORIENTED_EDGE('',*,*,#582,.F.);
#287=ORIENTED_EDGE('',*,*,#583,.F.);
#288=ORIENTED_EDGE('',*,*,#584,.T.);
#289=ORIENTED_EDGE('',*,*,#585,.F.);
#290=ORIENTED_EDGE('',*,*,#586,.F.);
#291=ORIENTED_EDGE('',*,*,#587,.F.);
#292=ORIENTED_EDGE('',*,*,#588,.T.);
#293=ORIENTED_EDGE('',*,*,#589,.F.);
#294=ORIENTED_EDGE('',*,*,#590,.F.);
#295=ORIENTED_EDGE('',*,*,#591,.T.);
#296=ORIENTED_EDGE('',*,*,#592,.F.);
#297=ORIENTED_EDGE('',*,*,#593,.F.);
#298=ORIENTED_EDGE('',*,*,#594,.T.);
#299=ORIENTED_EDGE('',*,*,#595,.F.);
#300=ORIENTED_EDGE('',*,*,#596,.T.);
#301=ORIENTED_EDGE('',*,*,#597,.F.);
#302=ORIENTED_EDGE('',*,*,#598,.F.);
#303=ORIENTED_EDGE('',*,*,#599,.F.);
#304=ORIENTED_EDGE('',*,*,#600,.F.);
#305=ORIENTED_EDGE('',*,*,#601,.T.);
#306=ORIENTED_EDGE('',*,*,#602,.F.);
#307=ORIENTED_EDGE('',*,*,#584,.F.);
#308=ORIENTED_EDGE('',*,*,#603,.T.);
#309=ORIENTED_EDGE('',*,*,#604,.F.);
#310=ORIENTED_EDGE('',*,*,#605,.F.);
#311=ORIENTED_EDGE('',*,*,#586,.T.);
#312=ORIENTED_EDGE('',*,*,#606,.T.);
#313=ORIENTED_EDGE('',*,*,#607,.F.);
#314=ORIENTED_EDGE('',*,*,#608,.F.);
#315=ORIENTED_EDGE('',*,*,#587,.T.);
#316=ORIENTED_EDGE('',*,*,#605,.T.);
#317=ORIENTED_EDGE('',*,*,#609,.T.);
#318=ORIENTED_EDGE('',*,*,#610,.F.);
#319=ORIENTED_EDGE('',*,*,#588,.F.);
#320=ORIENTED_EDGE('',*,*,#608,.T.);
#321=ORIENTED_EDGE('',*,*,#611,.F.);
#322=ORIENTED_EDGE('',*,*,#612,.F.);
#323=ORIENTED_EDGE('',*,*,#589,.T.);
#324=ORIENTED_EDGE('',*,*,#610,.T.);
#325=ORIENTED_EDGE('',*,*,#613,.F.);
#326=ORIENTED_EDGE('',*,*,#614,.F.);
#327=ORIENTED_EDGE('',*,*,#590,.T.);
#328=ORIENTED_EDGE('',*,*,#612,.T.);
#329=ORIENTED_EDGE('',*,*,#615,.T.);
#330=ORIENTED_EDGE('',*,*,#616,.F.);
#331=ORIENTED_EDGE('',*,*,#591,.F.);
#332=ORIENTED_EDGE('',*,*,#614,.T.);
#333=ORIENTED_EDGE('',*,*,#580,.T.);
#334=ORIENTED_EDGE('',*,*,#617,.F.);
#335=ORIENTED_EDGE('',*,*,#581,.T.);
#336=ORIENTED_EDGE('',*,*,#618,.F.);
#337=ORIENTED_EDGE('',*,*,#582,.T.);
#338=ORIENTED_EDGE('',*,*,#619,.F.);
#339=ORIENTED_EDGE('',*,*,#620,.F.);
#340=ORIENTED_EDGE('',*,*,#621,.F.);
#341=ORIENTED_EDGE('',*,*,#592,.T.);
#342=ORIENTED_EDGE('',*,*,#616,.T.);
#343=ORIENTED_EDGE('',*,*,#579,.T.);
#344=ORIENTED_EDGE('',*,*,#622,.F.);
#345=ORIENTED_EDGE('',*,*,#623,.F.);
#346=ORIENTED_EDGE('',*,*,#624,.F.);
#347=ORIENTED_EDGE('',*,*,#625,.F.);
#348=ORIENTED_EDGE('',*,*,#626,.F.);
#349=ORIENTED_EDGE('',*,*,#627,.F.);
#350=ORIENTED_EDGE('',*,*,#628,.F.);
#351=ORIENTED_EDGE('',*,*,#629,.F.);
#352=ORIENTED_EDGE('',*,*,#630,.F.);
#353=ORIENTED_EDGE('',*,*,#631,.F.);
#354=ORIENTED_EDGE('',*,*,#632,.F.);
#355=ORIENTED_EDGE('',*,*,#633,.F.);
#356=ORIENTED_EDGE('',*,*,#634,.F.);
#357=ORIENTED_EDGE('',*,*,#635,.F.);
#358=ORIENTED_EDGE('',*,*,#636,.F.);
#359=ORIENTED_EDGE('',*,*,#637,.T.);
#360=ORIENTED_EDGE('',*,*,#620,.T.);
#361=ORIENTED_EDGE('',*,*,#615,.F.);
#362=ORIENTED_EDGE('',*,*,#613,.T.);
#363=ORIENTED_EDGE('',*,*,#611,.T.);
#364=ORIENTED_EDGE('',*,*,#609,.F.);
#365=ORIENTED_EDGE('',*,*,#607,.T.);
#366=ORIENTED_EDGE('',*,*,#604,.T.);
#367=ORIENTED_EDGE('',*,*,#638,.F.);
#368=ORIENTED_EDGE('',*,*,#639,.T.);
#369=ORIENTED_EDGE('',*,*,#640,.T.);
#370=ORIENTED_EDGE('',*,*,#601,.F.);
#371=ORIENTED_EDGE('',*,*,#641,.F.);
#372=ORIENTED_EDGE('',*,*,#642,.T.);
#373=ORIENTED_EDGE('',*,*,#619,.T.);
#374=ORIENTED_EDGE('',*,*,#618,.T.);
#375=ORIENTED_EDGE('',*,*,#617,.T.);
#376=ORIENTED_EDGE('',*,*,#622,.T.);
#377=ORIENTED_EDGE('',*,*,#639,.F.);
#378=ORIENTED_EDGE('',*,*,#643,.T.);
#379=ORIENTED_EDGE('',*,*,#644,.T.);
#380=ORIENTED_EDGE('',*,*,#645,.T.);
#381=ORIENTED_EDGE('',*,*,#644,.F.);
#382=ORIENTED_EDGE('',*,*,#646,.T.);
#383=ORIENTED_EDGE('',*,*,#585,.T.);
#384=ORIENTED_EDGE('',*,*,#647,.F.);
#385=ORIENTED_EDGE('',*,*,#647,.T.);
#386=ORIENTED_EDGE('',*,*,#602,.T.);
#387=ORIENTED_EDGE('',*,*,#640,.F.);
#388=ORIENTED_EDGE('',*,*,#645,.F.);
#389=ORIENTED_EDGE('',*,*,#638,.T.);
#390=ORIENTED_EDGE('',*,*,#606,.F.);
#391=ORIENTED_EDGE('',*,*,#646,.F.);
#392=ORIENTED_EDGE('',*,*,#643,.F.);
#393=ORIENTED_EDGE('',*,*,#642,.F.);
#394=ORIENTED_EDGE('',*,*,#648,.T.);
#395=ORIENTED_EDGE('',*,*,#649,.T.);
#396=ORIENTED_EDGE('',*,*,#650,.T.);
#397=ORIENTED_EDGE('',*,*,#649,.F.);
#398=ORIENTED_EDGE('',*,*,#651,.T.);
#399=ORIENTED_EDGE('',*,*,#583,.T.);
#400=ORIENTED_EDGE('',*,*,#652,.F.);
#401=ORIENTED_EDGE('',*,*,#652,.T.);
#402=ORIENTED_EDGE('',*,*,#621,.T.);
#403=ORIENTED_EDGE('',*,*,#637,.F.);
#404=ORIENTED_EDGE('',*,*,#650,.F.);
#405=ORIENTED_EDGE('',*,*,#641,.T.);
#406=ORIENTED_EDGE('',*,*,#603,.F.);
#407=ORIENTED_EDGE('',*,*,#651,.F.);
#408=ORIENTED_EDGE('',*,*,#648,.F.);
#409=ORIENTED_EDGE('',*,*,#593,.T.);
#410=ORIENTED_EDGE('',*,*,#653,.F.);
#411=ORIENTED_EDGE('',*,*,#654,.F.);
#412=ORIENTED_EDGE('',*,*,#655,.T.);
#413=ORIENTED_EDGE('',*,*,#656,.F.);
#414=ORIENTED_EDGE('',*,*,#657,.T.);
#415=ORIENTED_EDGE('',*,*,#658,.F.);
#416=ORIENTED_EDGE('',*,*,#653,.T.);
#417=ORIENTED_EDGE('',*,*,#600,.T.);
#418=ORIENTED_EDGE('',*,*,#659,.F.);
#419=ORIENTED_EDGE('',*,*,#599,.T.);
#420=ORIENTED_EDGE('',*,*,#660,.F.);
#421=ORIENTED_EDGE('',*,*,#661,.F.);
#422=ORIENTED_EDGE('',*,*,#659,.T.);
#423=ORIENTED_EDGE('',*,*,#598,.T.);
#424=ORIENTED_EDGE('',*,*,#662,.F.);
#425=ORIENTED_EDGE('',*,*,#663,.F.);
#426=ORIENTED_EDGE('',*,*,#664,.T.);
#427=ORIENTED_EDGE('',*,*,#665,.F.);
#428=ORIENTED_EDGE('',*,*,#666,.F.);
#429=ORIENTED_EDGE('',*,*,#667,.F.);
#430=ORIENTED_EDGE('',*,*,#660,.T.);
#431=ORIENTED_EDGE('',*,*,#597,.T.);
#432=ORIENTED_EDGE('',*,*,#668,.F.);
#433=ORIENTED_EDGE('',*,*,#669,.F.);
#434=ORIENTED_EDGE('',*,*,#662,.T.);
#435=ORIENTED_EDGE('',*,*,#596,.F.);
#436=ORIENTED_EDGE('',*,*,#670,.F.);
#437=ORIENTED_EDGE('',*,*,#671,.T.);
#438=ORIENTED_EDGE('',*,*,#668,.T.);
#439=ORIENTED_EDGE('',*,*,#595,.T.);
#440=ORIENTED_EDGE('',*,*,#672,.F.);
#441=ORIENTED_EDGE('',*,*,#673,.F.);
#442=ORIENTED_EDGE('',*,*,#670,.T.);
#443=ORIENTED_EDGE('',*,*,#674,.T.);
#444=ORIENTED_EDGE('',*,*,#675,.T.);
#445=ORIENTED_EDGE('',*,*,#676,.T.);
#446=ORIENTED_EDGE('',*,*,#672,.T.);
#447=ORIENTED_EDGE('',*,*,#594,.F.);
#448=ORIENTED_EDGE('',*,*,#655,.F.);
#449=ORIENTED_EDGE('',*,*,#677,.F.);
#450=ORIENTED_EDGE('',*,*,#678,.F.);
#451=ORIENTED_EDGE('',*,*,#679,.T.);
#452=ORIENTED_EDGE('',*,*,#674,.F.);
#453=ORIENTED_EDGE('',*,*,#654,.T.);
#454=ORIENTED_EDGE('',*,*,#658,.T.);
#455=ORIENTED_EDGE('',*,*,#680,.T.);
#456=ORIENTED_EDGE('',*,*,#681,.F.);
#457=ORIENTED_EDGE('',*,*,#682,.T.);
#458=ORIENTED_EDGE('',*,*,#665,.T.);
#459=ORIENTED_EDGE('',*,*,#573,.T.);
#460=ORIENTED_EDGE('',*,*,#682,.F.);
#461=ORIENTED_EDGE('',*,*,#683,.F.);
#462=ORIENTED_EDGE('',*,*,#684,.T.);
#463=ORIENTED_EDGE('',*,*,#666,.T.);
#464=ORIENTED_EDGE('',*,*,#681,.T.);
#465=ORIENTED_EDGE('',*,*,#685,.T.);
#466=ORIENTED_EDGE('',*,*,#686,.F.);
#467=ORIENTED_EDGE('',*,*,#683,.T.);
#468=ORIENTED_EDGE('',*,*,#686,.T.);
#469=ORIENTED_EDGE('',*,*,#687,.T.);
#470=ORIENTED_EDGE('',*,*,#656,.T.);
#471=ORIENTED_EDGE('',*,*,#661,.T.);
#472=ORIENTED_EDGE('',*,*,#667,.T.);
#473=ORIENTED_EDGE('',*,*,#684,.F.);
#474=ORIENTED_EDGE('',*,*,#688,.T.);
#475=ORIENTED_EDGE('',*,*,#689,.F.);
#476=ORIENTED_EDGE('',*,*,#690,.T.);
#477=ORIENTED_EDGE('',*,*,#678,.T.);
#478=ORIENTED_EDGE('',*,*,#691,.F.);
#479=ORIENTED_EDGE('',*,*,#677,.T.);
#480=ORIENTED_EDGE('',*,*,#664,.F.);
#481=ORIENTED_EDGE('',*,*,#692,.F.);
#482=ORIENTED_EDGE('',*,*,#691,.T.);
#483=ORIENTED_EDGE('',*,*,#676,.F.);
#484=ORIENTED_EDGE('',*,*,#693,.T.);
#485=ORIENTED_EDGE('',*,*,#689,.T.);
#486=ORIENTED_EDGE('',*,*,#692,.T.);
#487=ORIENTED_EDGE('',*,*,#663,.T.);
#488=ORIENTED_EDGE('',*,*,#669,.T.);
#489=ORIENTED_EDGE('',*,*,#671,.F.);
#490=ORIENTED_EDGE('',*,*,#673,.T.);
#491=ORIENTED_EDGE('',*,*,#575,.T.);
#492=ORIENTED_EDGE('',*,*,#694,.T.);
#493=ORIENTED_EDGE('',*,*,#695,.F.);
#494=ORIENTED_EDGE('',*,*,#695,.T.);
#495=ORIENTED_EDGE('',*,*,#688,.F.);
#496=ORIENTED_EDGE('',*,*,#696,.F.);
#497=ORIENTED_EDGE('',*,*,#696,.T.);
#498=ORIENTED_EDGE('',*,*,#694,.F.);
#499=ORIENTED_EDGE('',*,*,#693,.F.);
#500=ORIENTED_EDGE('',*,*,#675,.F.);
#501=ORIENTED_EDGE('',*,*,#679,.F.);
#502=ORIENTED_EDGE('',*,*,#690,.F.);
#503=ORIENTED_EDGE('',*,*,#687,.F.);
#504=ORIENTED_EDGE('',*,*,#685,.F.);
#505=ORIENTED_EDGE('',*,*,#680,.F.);
#506=ORIENTED_EDGE('',*,*,#657,.F.);
#507=ORIENTED_EDGE('',*,*,#626,.T.);
#508=ORIENTED_EDGE('',*,*,#697,.F.);
#509=ORIENTED_EDGE('',*,*,#698,.F.);
#510=ORIENTED_EDGE('',*,*,#699,.T.);
#511=ORIENTED_EDGE('',*,*,#625,.T.);
#512=ORIENTED_EDGE('',*,*,#700,.F.);
#513=ORIENTED_EDGE('',*,*,#701,.F.);
#514=ORIENTED_EDGE('',*,*,#697,.T.);
#515=ORIENTED_EDGE('',*,*,#630,.T.);
#516=ORIENTED_EDGE('',*,*,#702,.F.);
#517=ORIENTED_EDGE('',*,*,#703,.F.);
#518=ORIENTED_EDGE('',*,*,#700,.T.);
#519=ORIENTED_EDGE('',*,*,#629,.T.);
#520=ORIENTED_EDGE('',*,*,#704,.F.);
#521=ORIENTED_EDGE('',*,*,#705,.F.);
#522=ORIENTED_EDGE('',*,*,#702,.T.);
#523=ORIENTED_EDGE('',*,*,#628,.T.);
#524=ORIENTED_EDGE('',*,*,#706,.F.);
#525=ORIENTED_EDGE('',*,*,#707,.F.);
#526=ORIENTED_EDGE('',*,*,#704,.T.);
#527=ORIENTED_EDGE('',*,*,#627,.T.);
#528=ORIENTED_EDGE('',*,*,#699,.F.);
#529=ORIENTED_EDGE('',*,*,#708,.F.);
#530=ORIENTED_EDGE('',*,*,#706,.T.);
#531=ORIENTED_EDGE('',*,*,#576,.T.);
#532=ORIENTED_EDGE('',*,*,#698,.T.);
#533=ORIENTED_EDGE('',*,*,#701,.T.);
#534=ORIENTED_EDGE('',*,*,#703,.T.);
#535=ORIENTED_EDGE('',*,*,#705,.T.);
#536=ORIENTED_EDGE('',*,*,#707,.T.);
#537=ORIENTED_EDGE('',*,*,#708,.T.);
#538=ORIENTED_EDGE('',*,*,#632,.T.);
#539=ORIENTED_EDGE('',*,*,#709,.F.);
#540=ORIENTED_EDGE('',*,*,#710,.F.);
#541=ORIENTED_EDGE('',*,*,#711,.T.);
#542=ORIENTED_EDGE('',*,*,#631,.T.);
#543=ORIENTED_EDGE('',*,*,#712,.F.);
#544=ORIENTED_EDGE('',*,*,#713,.F.);
#545=ORIENTED_EDGE('',*,*,#709,.T.);
#546=ORIENTED_EDGE('',*,*,#636,.T.);
#547=ORIENTED_EDGE('',*,*,#714,.F.);
#548=ORIENTED_EDGE('',*,*,#715,.F.);
#549=ORIENTED_EDGE('',*,*,#712,.T.);
#550=ORIENTED_EDGE('',*,*,#635,.T.);
#551=ORIENTED_EDGE('',*,*,#716,.F.);
#552=ORIENTED_EDGE('',*,*,#717,.F.);
#553=ORIENTED_EDGE('',*,*,#714,.T.);
#554=ORIENTED_EDGE('',*,*,#634,.T.);
#555=ORIENTED_EDGE('',*,*,#718,.F.);
#556=ORIENTED_EDGE('',*,*,#719,.F.);
#557=ORIENTED_EDGE('',*,*,#716,.T.);
#558=ORIENTED_EDGE('',*,*,#633,.T.);
#559=ORIENTED_EDGE('',*,*,#711,.F.);
#560=ORIENTED_EDGE('',*,*,#720,.F.);
#561=ORIENTED_EDGE('',*,*,#718,.T.);
#562=ORIENTED_EDGE('',*,*,#574,.T.);
#563=ORIENTED_EDGE('',*,*,#710,.T.);
#564=ORIENTED_EDGE('',*,*,#713,.T.);
#565=ORIENTED_EDGE('',*,*,#715,.T.);
#566=ORIENTED_EDGE('',*,*,#717,.T.);
#567=ORIENTED_EDGE('',*,*,#719,.T.);
#568=ORIENTED_EDGE('',*,*,#720,.T.);
#569=ORIENTED_EDGE('',*,*,#624,.T.);
#570=ORIENTED_EDGE('',*,*,#578,.T.);
#571=ORIENTED_EDGE('',*,*,#623,.T.);
#572=ORIENTED_EDGE('',*,*,#577,.T.);
#573=EDGE_CURVE('',#721,#721,#825,.T.);
#574=EDGE_CURVE('',#722,#722,#826,.T.);
#575=EDGE_CURVE('',#723,#723,#827,.T.);
#576=EDGE_CURVE('',#724,#724,#828,.T.);
#577=EDGE_CURVE('',#725,#725,#829,.T.);
#578=EDGE_CURVE('',#726,#726,#830,.T.);
#579=EDGE_CURVE('',#727,#727,#831,.T.);
#580=EDGE_CURVE('',#728,#728,#832,.T.);
#581=EDGE_CURVE('',#729,#729,#833,.T.);
#582=EDGE_CURVE('',#730,#730,#834,.T.);
#583=EDGE_CURVE('',#731,#732,#20,.T.);
#584=EDGE_CURVE('',#731,#733,#21,.T.);
#585=EDGE_CURVE('',#734,#733,#22,.T.);
#586=EDGE_CURVE('',#735,#734,#23,.T.);
#587=EDGE_CURVE('',#736,#735,#24,.T.);
#588=EDGE_CURVE('',#736,#737,#835,.T.);
#589=EDGE_CURVE('',#738,#737,#25,.T.);
#590=EDGE_CURVE('',#739,#738,#836,.T.);
#591=EDGE_CURVE('',#739,#740,#26,.T.);
#592=EDGE_CURVE('',#732,#740,#27,.T.);
#593=EDGE_CURVE('',#741,#742,#837,.T.);
#594=EDGE_CURVE('',#741,#743,#28,.T.);
#595=EDGE_CURVE('',#744,#743,#838,.T.);
#596=EDGE_CURVE('',#744,#745,#29,.T.);
#597=EDGE_CURVE('',#746,#745,#839,.T.);
#598=EDGE_CURVE('',#747,#746,#30,.T.);
#599=EDGE_CURVE('',#748,#747,#840,.T.);
#600=EDGE_CURVE('',#742,#748,#31,.T.);
#601=EDGE_CURVE('',#749,#750,#32,.T.);
#602=EDGE_CURVE('',#733,#750,#33,.T.);
#603=EDGE_CURVE('',#731,#749,#34,.T.);
#604=EDGE_CURVE('',#751,#752,#35,.T.);
#605=EDGE_CURVE('',#735,#751,#36,.T.);
#606=EDGE_CURVE('',#734,#752,#37,.T.);
#607=EDGE_CURVE('',#753,#751,#38,.T.);
#608=EDGE_CURVE('',#736,#753,#39,.T.);
#609=EDGE_CURVE('',#753,#754,#841,.T.);
#610=EDGE_CURVE('',#737,#754,#40,.T.);
#611=EDGE_CURVE('',#755,#754,#41,.T.);
#612=EDGE_CURVE('',#738,#755,#42,.T.);
#613=EDGE_CURVE('',#756,#755,#842,.T.);
#614=EDGE_CURVE('',#739,#756,#43,.T.);
#615=EDGE_CURVE('',#756,#757,#44,.T.);
#616=EDGE_CURVE('',#740,#757,#45,.T.);
#617=EDGE_CURVE('',#758,#758,#843,.T.);
#618=EDGE_CURVE('',#759,#759,#844,.T.);
#619=EDGE_CURVE('',#760,#760,#845,.T.);
#620=EDGE_CURVE('',#761,#757,#46,.T.);
#621=EDGE_CURVE('',#732,#761,#47,.T.);
#622=EDGE_CURVE('',#762,#762,#846,.T.);
#623=EDGE_CURVE('',#763,#763,#847,.F.);
#624=EDGE_CURVE('',#764,#764,#848,.F.);
#625=EDGE_CURVE('',#765,#766,#48,.T.);
#626=EDGE_CURVE('',#767,#765,#49,.T.);
#627=EDGE_CURVE('',#768,#767,#50,.T.);
#628=EDGE_CURVE('',#769,#768,#51,.T.);
#629=EDGE_CURVE('',#770,#769,#52,.T.);
#630=EDGE_CURVE('',#766,#770,#53,.T.);
#631=EDGE_CURVE('',#771,#772,#54,.T.);
#632=EDGE_CURVE('',#773,#771,#55,.T.);
#633=EDGE_CURVE('',#774,#773,#56,.T.);
#634=EDGE_CURVE('',#775,#774,#57,.T.);
#635=EDGE_CURVE('',#776,#775,#58,.T.);
#636=EDGE_CURVE('',#772,#776,#59,.T.);
#637=EDGE_CURVE('',#777,#761,#60,.T.);
#638=EDGE_CURVE('',#778,#752,#61,.T.);
#639=EDGE_CURVE('',#778,#779,#62,.T.);
#640=EDGE_CURVE('',#779,#750,#63,.T.);
#641=EDGE_CURVE('',#780,#749,#64,.T.);
#642=EDGE_CURVE('',#780,#777,#65,.T.);
#643=EDGE_CURVE('',#778,#781,#66,.T.);
#644=EDGE_CURVE('',#781,#782,#67,.T.);
#645=EDGE_CURVE('',#782,#779,#68,.T.);
#646=EDGE_CURVE('',#781,#734,#69,.T.);
#647=EDGE_CURVE('',#782,#733,#70,.T.);
#648=EDGE_CURVE('',#780,#783,#71,.T.);
#649=EDGE_CURVE('',#783,#784,#72,.T.);
#650=EDGE_CURVE('',#784,#777,#73,.T.);
#651=EDGE_CURVE('',#783,#731,#74,.T.);
#652=EDGE_CURVE('',#784,#732,#75,.T.);
#653=EDGE_CURVE('',#785,#742,#76,.T.);
#654=EDGE_CURVE('',#786,#785,#849,.T.);
#655=EDGE_CURVE('',#786,#741,#77,.T.);
#656=EDGE_CURVE('',#787,#788,#78,.T.);
#657=EDGE_CURVE('',#787,#789,#79,.T.);
#658=EDGE_CURVE('',#785,#789,#80,.T.);
#659=EDGE_CURVE('',#788,#748,#81,.T.);
#660=EDGE_CURVE('',#790,#747,#82,.T.);
#661=EDGE_CURVE('',#788,#790,#850,.T.);
#662=EDGE_CURVE('',#791,#746,#83,.T.);
#663=EDGE_CURVE('',#792,#791,#84,.T.);
#664=EDGE_CURVE('',#792,#793,#85,.T.);
#665=EDGE_CURVE('',#794,#793,#86,.T.);
#666=EDGE_CURVE('',#795,#794,#87,.T.);
#667=EDGE_CURVE('',#790,#795,#88,.T.);
#668=EDGE_CURVE('',#796,#745,#89,.T.);
#669=EDGE_CURVE('',#791,#796,#851,.T.);
#670=EDGE_CURVE('',#797,#744,#90,.T.);
#671=EDGE_CURVE('',#797,#796,#91,.T.);
#672=EDGE_CURVE('',#798,#743,#92,.T.);
#673=EDGE_CURVE('',#797,#798,#852,.T.);
#674=EDGE_CURVE('',#786,#799,#93,.T.);
#675=EDGE_CURVE('',#799,#800,#94,.T.);
#676=EDGE_CURVE('',#800,#798,#95,.T.);
#677=EDGE_CURVE('',#801,#793,#96,.T.);
#678=EDGE_CURVE('',#802,#801,#853,.T.);
#679=EDGE_CURVE('',#802,#799,#854,.F.);
#680=EDGE_CURVE('',#789,#803,#855,.F.);
#681=EDGE_CURVE('',#804,#803,#856,.T.);
#682=EDGE_CURVE('',#804,#794,#97,.T.);
#683=EDGE_CURVE('',#805,#804,#98,.T.);
#684=EDGE_CURVE('',#805,#795,#99,.T.);
#685=EDGE_CURVE('',#803,#806,#100,.F.);
#686=EDGE_CURVE('',#805,#806,#857,.T.);
#687=EDGE_CURVE('',#806,#787,#858,.T.);
#688=EDGE_CURVE('',#807,#807,#859,.T.);
#689=EDGE_CURVE('',#808,#809,#860,.T.);
#690=EDGE_CURVE('',#808,#802,#101,.T.);
#691=EDGE_CURVE('',#809,#801,#102,.T.);
#692=EDGE_CURVE('',#809,#792,#103,.T.);
#693=EDGE_CURVE('',#800,#808,#861,.T.);
#694=EDGE_CURVE('',#810,#810,#862,.T.);
#695=EDGE_CURVE('',#811,#811,#863,.T.);
#696=EDGE_CURVE('',#812,#812,#864,.T.);
#697=EDGE_CURVE('',#813,#765,#104,.T.);
#698=EDGE_CURVE('',#814,#813,#105,.T.);
#699=EDGE_CURVE('',#814,#767,#106,.T.);
#700=EDGE_CURVE('',#815,#766,#107,.T.);
#701=EDGE_CURVE('',#813,#815,#108,.T.);
#702=EDGE_CURVE('',#816,#770,#109,.T.);
#703=EDGE_CURVE('',#815,#816,#110,.T.);
#704=EDGE_CURVE('',#817,#769,#111,.T.);
#705=EDGE_CURVE('',#816,#817,#112,.T.);
#706=EDGE_CURVE('',#818,#768,#113,.T.);
#707=EDGE_CURVE('',#817,#818,#114,.T.);
#708=EDGE_CURVE('',#818,#814,#115,.T.);
#709=EDGE_CURVE('',#819,#771,#116,.T.);
#710=EDGE_CURVE('',#820,#819,#117,.T.);
#711=EDGE_CURVE('',#820,#773,#118,.T.);
#712=EDGE_CURVE('',#821,#772,#119,.T.);
#713=EDGE_CURVE('',#819,#821,#120,.T.);
#714=EDGE_CURVE('',#822,#776,#121,.T.);
#715=EDGE_CURVE('',#821,#822,#122,.T.);
#716=EDGE_CURVE('',#823,#775,#123,.T.);
#717=EDGE_CURVE('',#822,#823,#124,.T.);
#718=EDGE_CURVE('',#824,#774,#125,.T.);
#719=EDGE_CURVE('',#823,#824,#126,.T.);
#720=EDGE_CURVE('',#824,#820,#127,.T.);
#721=VERTEX_POINT('',#1559);
#722=VERTEX_POINT('',#1561);
#723=VERTEX_POINT('',#1564);
#724=VERTEX_POINT('',#1566);
#725=VERTEX_POINT('',#1569);
#726=VERTEX_POINT('',#1571);
#727=VERTEX_POINT('',#1573);
#728=VERTEX_POINT('',#1575);
#729=VERTEX_POINT('',#1577);
#730=VERTEX_POINT('',#1579);
#731=VERTEX_POINT('',#1581);
#732=VERTEX_POINT('',#1582);
#733=VERTEX_POINT('',#1584);
#734=VERTEX_POINT('',#1586);
#735=VERTEX_POINT('',#1588);
#736=VERTEX_POINT('',#1590);
#737=VERTEX_POINT('',#1592);
#738=VERTEX_POINT('',#1594);
#739=VERTEX_POINT('',#1596);
#740=VERTEX_POINT('',#1598);
#741=VERTEX_POINT('',#1601);
#742=VERTEX_POINT('',#1602);
#743=VERTEX_POINT('',#1604);
#744=VERTEX_POINT('',#1606);
#745=VERTEX_POINT('',#1608);
#746=VERTEX_POINT('',#1610);
#747=VERTEX_POINT('',#1612);
#748=VERTEX_POINT('',#1614);
#749=VERTEX_POINT('',#1618);
#750=VERTEX_POINT('',#1619);
#751=VERTEX_POINT('',#1624);
#752=VERTEX_POINT('',#1625);
#753=VERTEX_POINT('',#1630);
#754=VERTEX_POINT('',#1634);
#755=VERTEX_POINT('',#1638);
#756=VERTEX_POINT('',#1642);
#757=VERTEX_POINT('',#1646);
#758=VERTEX_POINT('',#1650);
#759=VERTEX_POINT('',#1653);
#760=VERTEX_POINT('',#1656);
#761=VERTEX_POINT('',#1659);
#762=VERTEX_POINT('',#1663);
#763=VERTEX_POINT('',#1666);
#764=VERTEX_POINT('',#1668);
#765=VERTEX_POINT('',#1670);
#766=VERTEX_POINT('',#1671);
#767=VERTEX_POINT('',#1673);
#768=VERTEX_POINT('',#1675);
#769=VERTEX_POINT('',#1677);
#770=VERTEX_POINT('',#1679);
#771=VERTEX_POINT('',#1682);
#772=VERTEX_POINT('',#1683);
#773=VERTEX_POINT('',#1685);
#774=VERTEX_POINT('',#1687);
#775=VERTEX_POINT('',#1689);
#776=VERTEX_POINT('',#1691);
#777=VERTEX_POINT('',#1694);
#778=VERTEX_POINT('',#1696);
#779=VERTEX_POINT('',#1698);
#780=VERTEX_POINT('',#1701);
#781=VERTEX_POINT('',#1705);
#782=VERTEX_POINT('',#1707);
#783=VERTEX_POINT('',#1716);
#784=VERTEX_POINT('',#1718);
#785=VERTEX_POINT('',#1727);
#786=VERTEX_POINT('',#1729);
#787=VERTEX_POINT('',#1733);
#788=VERTEX_POINT('',#1734);
#789=VERTEX_POINT('',#1736);
#790=VERTEX_POINT('',#1741);
#791=VERTEX_POINT('',#1745);
#792=VERTEX_POINT('',#1747);
#793=VERTEX_POINT('',#1749);
#794=VERTEX_POINT('',#1751);
#795=VERTEX_POINT('',#1753);
#796=VERTEX_POINT('',#1757);
#797=VERTEX_POINT('',#1761);
#798=VERTEX_POINT('',#1765);
#799=VERTEX_POINT('',#1769);
#800=VERTEX_POINT('',#1771);
#801=VERTEX_POINT('',#1775);
#802=VERTEX_POINT('',#1777);
#803=VERTEX_POINT('',#1780);
#804=VERTEX_POINT('',#1782);
#805=VERTEX_POINT('',#1786);
#806=VERTEX_POINT('',#1790);
#807=VERTEX_POINT('',#1795);
#808=VERTEX_POINT('',#1798);
#809=VERTEX_POINT('',#1799);
#810=VERTEX_POINT('',#1807);
#811=VERTEX_POINT('',#1810);
#812=VERTEX_POINT('',#1814);
#813=VERTEX_POINT('',#1820);
#814=VERTEX_POINT('',#1822);
#815=VERTEX_POINT('',#1826);
#816=VERTEX_POINT('',#1830);
#817=VERTEX_POINT('',#1834);
#818=VERTEX_POINT('',#1838);
#819=VERTEX_POINT('',#1845);
#820=VERTEX_POINT('',#1847);
#821=VERTEX_POINT('',#1851);
#822=VERTEX_POINT('',#1855);
#823=VERTEX_POINT('',#1859);
#824=VERTEX_POINT('',#1863);
#825=CIRCLE('',#1144,0.0028);
#826=CIRCLE('',#1145,0.0028);
#827=CIRCLE('',#1147,0.0028);
#828=CIRCLE('',#1148,0.0028);
#829=CIRCLE('',#1150,0.0018);
#830=CIRCLE('',#1151,0.0018);
#831=CIRCLE('',#1152,0.0028);
#832=CIRCLE('',#1153,0.0028);
#833=CIRCLE('',#1154,0.0028);
#834=CIRCLE('',#1155,0.0028);
#835=CIRCLE('',#1156,0.017);
#836=CIRCLE('',#1157,0.017);
#837=CIRCLE('',#1158,0.005);
#838=CIRCLE('',#1159,0.005);
#839=CIRCLE('',#1160,0.005);
#840=CIRCLE('',#1161,0.005);
#841=CIRCLE('',#1166,0.017);
#842=CIRCLE('',#1169,0.017);
#843=CIRCLE('',#1172,0.0028);
#844=CIRCLE('',#1174,0.0028);
#845=CIRCLE('',#1176,0.0028);
#846=CIRCLE('',#1179,0.0028);
#847=CIRCLE('',#1181,0.0018);
#848=CIRCLE('',#1182,0.0018);
#849=CIRCLE('',#1192,0.005);
#850=CIRCLE('',#1195,0.005);
#851=CIRCLE('',#1198,0.005);
#852=CIRCLE('',#1201,0.005);
#853=CIRCLE('',#1204,0.01);
#854=CIRCLE('',#1205,0.001);
#855=CIRCLE('',#1206,0.001);
#856=CIRCLE('',#1207,0.01);
#857=CIRCLE('',#1210,0.01);
#858=CIRCLE('',#1212,0.001);
#859=CIRCLE('',#1213,0.0016);
#860=CIRCLE('',#1215,0.01);
#861=CIRCLE('',#1218,0.001);
#862=CIRCLE('',#1219,0.0016);
#863=CIRCLE('',#1221,0.0016);
#864=CIRCLE('',#1224,0.0016);
#865=EDGE_LOOP('',(#277));
#866=EDGE_LOOP('',(#278));
#867=EDGE_LOOP('',(#279));
#868=EDGE_LOOP('',(#280));
#869=EDGE_LOOP('',(#281));
#870=EDGE_LOOP('',(#282));
#871=EDGE_LOOP('',(#283));
#872=EDGE_LOOP('',(#284));
#873=EDGE_LOOP('',(#285));
#874=EDGE_LOOP('',(#286));
#875=EDGE_LOOP('',(#287,#288,#289,#290,#291,#292,#293,#294,#295,#296));
#876=EDGE_LOOP('',(#297,#298,#299,#300,#301,#302,#303,#304));
#877=EDGE_LOOP('',(#305,#306,#307,#308));
#878=EDGE_LOOP('',(#309,#310,#311,#312));
#879=EDGE_LOOP('',(#313,#314,#315,#316));
#880=EDGE_LOOP('',(#317,#318,#319,#320));
#881=EDGE_LOOP('',(#321,#322,#323,#324));
#882=EDGE_LOOP('',(#325,#326,#327,#328));
#883=EDGE_LOOP('',(#329,#330,#331,#332));
#884=EDGE_LOOP('',(#333));
#885=EDGE_LOOP('',(#334));
#886=EDGE_LOOP('',(#335));
#887=EDGE_LOOP('',(#336));
#888=EDGE_LOOP('',(#337));
#889=EDGE_LOOP('',(#338));
#890=EDGE_LOOP('',(#339,#340,#341,#342));
#891=EDGE_LOOP('',(#343));
#892=EDGE_LOOP('',(#344));
#893=EDGE_LOOP('',(#345));
#894=EDGE_LOOP('',(#346));
#895=EDGE_LOOP('',(#347,#348,#349,#350,#351,#352));
#896=EDGE_LOOP('',(#353,#354,#355,#356,#357,#358));
#897=EDGE_LOOP('',(#359,#360,#361,#362,#363,#364,#365,#366,#367,#368,#369,
#370,#371,#372));
#898=EDGE_LOOP('',(#373));
#899=EDGE_LOOP('',(#374));
#900=EDGE_LOOP('',(#375));
#901=EDGE_LOOP('',(#376));
#902=EDGE_LOOP('',(#377,#378,#379,#380));
#903=EDGE_LOOP('',(#381,#382,#383,#384));
#904=EDGE_LOOP('',(#385,#386,#387,#388));
#905=EDGE_LOOP('',(#389,#390,#391,#392));
#906=EDGE_LOOP('',(#393,#394,#395,#396));
#907=EDGE_LOOP('',(#397,#398,#399,#400));
#908=EDGE_LOOP('',(#401,#402,#403,#404));
#909=EDGE_LOOP('',(#405,#406,#407,#408));
#910=EDGE_LOOP('',(#409,#410,#411,#412));
#911=EDGE_LOOP('',(#413,#414,#415,#416,#417,#418));
#912=EDGE_LOOP('',(#419,#420,#421,#422));
#913=EDGE_LOOP('',(#423,#424,#425,#426,#427,#428,#429,#430));
#914=EDGE_LOOP('',(#431,#432,#433,#434));
#915=EDGE_LOOP('',(#435,#436,#437,#438));
#916=EDGE_LOOP('',(#439,#440,#441,#442));
#917=EDGE_LOOP('',(#443,#444,#445,#446,#447,#448));
#918=EDGE_LOOP('',(#449,#450,#451,#452,#453,#454,#455,#456,#457,#458));
#919=EDGE_LOOP('',(#459));
#920=EDGE_LOOP('',(#460,#461,#462,#463));
#921=EDGE_LOOP('',(#464,#465,#466,#467));
#922=EDGE_LOOP('',(#468,#469,#470,#471,#472,#473));
#923=EDGE_LOOP('',(#474));
#924=EDGE_LOOP('',(#475,#476,#477,#478));
#925=EDGE_LOOP('',(#479,#480,#481,#482));
#926=EDGE_LOOP('',(#483,#484,#485,#486,#487,#488,#489,#490));
#927=EDGE_LOOP('',(#491));
#928=EDGE_LOOP('',(#492));
#929=EDGE_LOOP('',(#493));
#930=EDGE_LOOP('',(#494));
#931=EDGE_LOOP('',(#495));
#932=EDGE_LOOP('',(#496));
#933=EDGE_LOOP('',(#497));
#934=EDGE_LOOP('',(#498));
#935=EDGE_LOOP('',(#499,#500,#501,#502));
#936=EDGE_LOOP('',(#503,#504,#505,#506));
#937=EDGE_LOOP('',(#507,#508,#509,#510));
#938=EDGE_LOOP('',(#511,#512,#513,#514));
#939=EDGE_LOOP('',(#515,#516,#517,#518));
#940=EDGE_LOOP('',(#519,#520,#521,#522));
#941=EDGE_LOOP('',(#523,#524,#525,#526));
#942=EDGE_LOOP('',(#527,#528,#529,#530));
#943=EDGE_LOOP('',(#531));
#944=EDGE_LOOP('',(#532,#533,#534,#535,#536,#537));
#945=EDGE_LOOP('',(#538,#539,#540,#541));
#946=EDGE_LOOP('',(#542,#543,#544,#545));
#947=EDGE_LOOP('',(#546,#547,#548,#549));
#948=EDGE_LOOP('',(#550,#551,#552,#553));
#949=EDGE_LOOP('',(#554,#555,#556,#557));
#950=EDGE_LOOP('',(#558,#559,#560,#561));
#951=EDGE_LOOP('',(#562));
#952=EDGE_LOOP('',(#563,#564,#565,#566,#567,#568));
#953=EDGE_LOOP('',(#569));
#954=EDGE_LOOP('',(#570));
#955=EDGE_LOOP('',(#571));
#956=EDGE_LOOP('',(#572));
#957=FACE_BOUND('',#865,.T.);
#958=FACE_BOUND('',#866,.T.);
#959=FACE_BOUND('',#867,.T.);
#960=FACE_BOUND('',#868,.T.);
#961=FACE_BOUND('',#869,.T.);
#962=FACE_BOUND('',#870,.T.);
#963=FACE_BOUND('',#871,.T.);
#964=FACE_BOUND('',#872,.T.);
#965=FACE_BOUND('',#873,.T.);
#966=FACE_BOUND('',#874,.T.);
#967=FACE_BOUND('',#875,.T.);
#968=FACE_BOUND('',#876,.T.);
#969=FACE_BOUND('',#877,.T.);
#970=FACE_BOUND('',#878,.T.);
#971=FACE_BOUND('',#879,.T.);
#972=FACE_BOUND('',#880,.T.);
#973=FACE_BOUND('',#881,.T.);
#974=FACE_BOUND('',#882,.T.);
#975=FACE_BOUND('',#883,.T.);
#976=FACE_BOUND('',#884,.T.);
#977=FACE_BOUND('',#885,.T.);
#978=FACE_BOUND('',#886,.T.);
#979=FACE_BOUND('',#887,.T.);
#980=FACE_BOUND('',#888,.T.);
#981=FACE_BOUND('',#889,.T.);
#982=FACE_BOUND('',#890,.T.);
#983=FACE_BOUND('',#891,.T.);
#984=FACE_BOUND('',#892,.T.);
#985=FACE_BOUND('',#893,.T.);
#986=FACE_BOUND('',#894,.T.);
#987=FACE_BOUND('',#895,.T.);
#988=FACE_BOUND('',#896,.T.);
#989=FACE_BOUND('',#897,.T.);
#990=FACE_BOUND('',#898,.T.);
#991=FACE_BOUND('',#899,.T.);
#992=FACE_BOUND('',#900,.T.);
#993=FACE_BOUND('',#901,.T.);
#994=FACE_BOUND('',#902,.T.);
#995=FACE_BOUND('',#903,.T.);
#996=FACE_BOUND('',#904,.T.);
#997=FACE_BOUND('',#905,.T.);
#998=FACE_BOUND('',#906,.T.);
#999=FACE_BOUND('',#907,.T.);
#1000=FACE_BOUND('',#908,.T.);
#1001=FACE_BOUND('',#909,.T.);
#1002=FACE_BOUND('',#910,.T.);
#1003=FACE_BOUND('',#911,.T.);
#1004=FACE_BOUND('',#912,.T.);
#1005=FACE_BOUND('',#913,.T.);
#1006=FACE_BOUND('',#914,.T.);
#1007=FACE_BOUND('',#915,.T.);
#1008=FACE_BOUND('',#916,.T.);
#1009=FACE_BOUND('',#917,.T.);
#1010=FACE_BOUND('',#918,.T.);
#1011=FACE_BOUND('',#919,.T.);
#1012=FACE_BOUND('',#920,.T.);
#1013=FACE_BOUND('',#921,.T.);
#1014=FACE_BOUND('',#922,.T.);
#1015=FACE_BOUND('',#923,.T.);
#1016=FACE_BOUND('',#924,.T.);
#1017=FACE_BOUND('',#925,.T.);
#1018=FACE_BOUND('',#926,.T.);
#1019=FACE_BOUND('',#927,.T.);
#1020=FACE_BOUND('',#928,.T.);
#1021=FACE_BOUND('',#929,.T.);
#1022=FACE_BOUND('',#930,.T.);
#1023=FACE_BOUND('',#931,.T.);
#1024=FACE_BOUND('',#932,.T.);
#1025=FACE_BOUND('',#933,.T.);
#1026=FACE_BOUND('',#934,.T.);
#1027=FACE_BOUND('',#935,.T.);
#1028=FACE_BOUND('',#936,.T.);
#1029=FACE_BOUND('',#937,.T.);
#1030=FACE_BOUND('',#938,.T.);
#1031=FACE_BOUND('',#939,.T.);
#1032=FACE_BOUND('',#940,.T.);
#1033=FACE_BOUND('',#941,.T.);
#1034=FACE_BOUND('',#942,.T.);
#1035=FACE_BOUND('',#943,.T.);
#1036=FACE_BOUND('',#944,.T.);
#1037=FACE_BOUND('',#945,.T.);
#1038=FACE_BOUND('',#946,.T.);
#1039=FACE_BOUND('',#947,.T.);
#1040=FACE_BOUND('',#948,.T.);
#1041=FACE_BOUND('',#949,.T.);
#1042=FACE_BOUND('',#950,.T.);
#1043=FACE_BOUND('',#951,.T.);
#1044=FACE_BOUND('',#952,.T.);
#1045=FACE_BOUND('',#953,.T.);
#1046=FACE_BOUND('',#954,.T.);
#1047=FACE_BOUND('',#955,.T.);
#1048=FACE_BOUND('',#956,.T.);
#1049=CYLINDRICAL_SURFACE('',#1143,0.0028);
#1050=CYLINDRICAL_SURFACE('',#1146,0.0028);
#1051=CYLINDRICAL_SURFACE('',#1165,0.017);
#1052=CYLINDRICAL_SURFACE('',#1168,0.017);
#1053=CYLINDRICAL_SURFACE('',#1171,0.0028);
#1054=CYLINDRICAL_SURFACE('',#1173,0.0028);
#1055=CYLINDRICAL_SURFACE('',#1175,0.0028);
#1056=CYLINDRICAL_SURFACE('',#1178,0.0028);
#1057=CYLINDRICAL_SURFACE('',#1191,0.005);
#1058=CYLINDRICAL_SURFACE('',#1194,0.005);
#1059=CYLINDRICAL_SURFACE('',#1197,0.005);
#1060=CYLINDRICAL_SURFACE('',#1200,0.005);
#1061=CYLINDRICAL_SURFACE('',#1209,0.01);
#1062=CYLINDRICAL_SURFACE('',#1214,0.01);
#1063=CYLINDRICAL_SURFACE('',#1222,0.0016);
#1064=CYLINDRICAL_SURFACE('',#1225,0.0016);
#1065=CYLINDRICAL_SURFACE('',#1226,0.001);
#1066=CYLINDRICAL_SURFACE('',#1227,0.001);
#1067=CYLINDRICAL_SURFACE('',#1242,0.0018);
#1068=CYLINDRICAL_SURFACE('',#1243,0.0018);
#1069=ADVANCED_FACE('',(#957,#958),#1049,.F.);
#1070=ADVANCED_FACE('',(#959,#960),#1050,.F.);
#1071=ADVANCED_FACE('',(#961,#962,#963,#964,#965,#966,#967,#968),#236,.T.);
#1072=ADVANCED_FACE('',(#969),#237,.F.);
#1073=ADVANCED_FACE('',(#970),#238,.T.);
#1074=ADVANCED_FACE('',(#971),#239,.T.);
#1075=ADVANCED_FACE('',(#972),#1051,.T.);
#1076=ADVANCED_FACE('',(#973),#240,.T.);
#1077=ADVANCED_FACE('',(#974),#1052,.T.);
#1078=ADVANCED_FACE('',(#975),#241,.F.);
#1079=ADVANCED_FACE('',(#976,#977),#1053,.F.);
#1080=ADVANCED_FACE('',(#978,#979),#1054,.F.);
#1081=ADVANCED_FACE('',(#980,#981),#1055,.F.);
#1082=ADVANCED_FACE('',(#982),#242,.T.);
#1083=ADVANCED_FACE('',(#983,#984),#1056,.F.);
#1084=ADVANCED_FACE('',(#985,#986,#987,#988,#989,#990,#991,#992,#993),#243,
 .F.);
#1085=ADVANCED_FACE('',(#994),#244,.T.);
#1086=ADVANCED_FACE('',(#995),#245,.F.);
#1087=ADVANCED_FACE('',(#996),#246,.F.);
#1088=ADVANCED_FACE('',(#997),#247,.F.);
#1089=ADVANCED_FACE('',(#998),#248,.T.);
#1090=ADVANCED_FACE('',(#999),#249,.F.);
#1091=ADVANCED_FACE('',(#1000),#250,.F.);
#1092=ADVANCED_FACE('',(#1001),#251,.F.);
#1093=ADVANCED_FACE('',(#1002),#1057,.T.);
#1094=ADVANCED_FACE('',(#1003),#252,.F.);
#1095=ADVANCED_FACE('',(#1004),#1058,.T.);
#1096=ADVANCED_FACE('',(#1005),#253,.F.);
#1097=ADVANCED_FACE('',(#1006),#1059,.T.);
#1098=ADVANCED_FACE('',(#1007),#254,.T.);
#1099=ADVANCED_FACE('',(#1008),#1060,.T.);
#1100=ADVANCED_FACE('',(#1009),#255,.T.);
#1101=ADVANCED_FACE('',(#1010,#1011),#256,.T.);
#1102=ADVANCED_FACE('',(#1012),#257,.T.);
#1103=ADVANCED_FACE('',(#1013),#1061,.F.);
#1104=ADVANCED_FACE('',(#1014,#1015),#258,.T.);
#1105=ADVANCED_FACE('',(#1016),#1062,.F.);
#1106=ADVANCED_FACE('',(#1017),#259,.F.);
#1107=ADVANCED_FACE('',(#1018,#1019,#1020),#260,.T.);
#1108=ADVANCED_FACE('',(#1021),#261,.T.);
#1109=ADVANCED_FACE('',(#1022,#1023),#1063,.F.);
#1110=ADVANCED_FACE('',(#1024),#262,.T.);
#1111=ADVANCED_FACE('',(#1025,#1026),#1064,.F.);
#1112=ADVANCED_FACE('',(#1027),#1065,.T.);
#1113=ADVANCED_FACE('',(#1028),#1066,.T.);
#1114=ADVANCED_FACE('',(#1029),#263,.F.);
#1115=ADVANCED_FACE('',(#1030),#264,.F.);
#1116=ADVANCED_FACE('',(#1031),#265,.F.);
#1117=ADVANCED_FACE('',(#1032),#266,.F.);
#1118=ADVANCED_FACE('',(#1033),#267,.F.);
#1119=ADVANCED_FACE('',(#1034),#268,.F.);
#1120=ADVANCED_FACE('',(#1035,#1036),#269,.T.);
#1121=ADVANCED_FACE('',(#1037),#270,.F.);
#1122=ADVANCED_FACE('',(#1038),#271,.F.);
#1123=ADVANCED_FACE('',(#1039),#272,.F.);
#1124=ADVANCED_FACE('',(#1040),#273,.F.);
#1125=ADVANCED_FACE('',(#1041),#274,.F.);
#1126=ADVANCED_FACE('',(#1042),#275,.F.);
#1127=ADVANCED_FACE('',(#1043,#1044),#276,.T.);
#1128=ADVANCED_FACE('',(#1045,#1046),#1067,.F.);
#1129=ADVANCED_FACE('',(#1047,#1048),#1068,.F.);
#1130=CLOSED_SHELL('',(#1069,#1070,#1071,#1072,#1073,#1074,#1075,#1076,
#1077,#1078,#1079,#1080,#1081,#1082,#1083,#1084,#1085,#1086,#1087,#1088,
#1089,#1090,#1091,#1092,#1093,#1094,#1095,#1096,#1097,#1098,#1099,#1100,
#1101,#1102,#1103,#1104,#1105,#1106,#1107,#1108,#1109,#1110,#1111,#1112,
#1113,#1114,#1115,#1116,#1117,#1118,#1119,#1120,#1121,#1122,#1123,#1124,
#1125,#1126,#1127,#1128,#1129));
#1131=STYLED_ITEM('',(#1132),#1139);
#1132=PRESENTATION_STYLE_ASSIGNMENT((#1133));
#1133=SURFACE_STYLE_USAGE(.BOTH.,#1134);
#1134=SURFACE_SIDE_STYLE('',(#1135));
#1135=SURFACE_STYLE_FILL_AREA(#1136);
#1136=FILL_AREA_STYLE('',(#1137));
#1137=FILL_AREA_STYLE_COLOUR('',#1138);
#1138=COLOUR_RGB('',0.615686274509804,0.811764705882353,0.929411764705882);
#1139=MANIFOLD_SOLID_BREP('Right Upper Cart Plate',#1130);
#1140=SHAPE_DEFINITION_REPRESENTATION(#1876,#1141);
#1141=SHAPE_REPRESENTATION('Right Upper Cart Plate',(#1142),#1871);
#1142=AXIS2_PLACEMENT_3D('',#1556,#1244,#1245);
#1143=AXIS2_PLACEMENT_3D('',#1557,#1246,#1247);
#1144=AXIS2_PLACEMENT_3D('',#1558,#1248,#1249);
#1145=AXIS2_PLACEMENT_3D('',#1560,#1250,#1251);
#1146=AXIS2_PLACEMENT_3D('',#1562,#1252,#1253);
#1147=AXIS2_PLACEMENT_3D('',#1563,#1254,#1255);
#1148=AXIS2_PLACEMENT_3D('',#1565,#1256,#1257);
#1149=AXIS2_PLACEMENT_3D('',#1567,#1258,#1259);
#1150=AXIS2_PLACEMENT_3D('',#1568,#1260,#1261);
#1151=AXIS2_PLACEMENT_3D('',#1570,#1262,#1263);
#1152=AXIS2_PLACEMENT_3D('',#1572,#1264,#1265);
#1153=AXIS2_PLACEMENT_3D('',#1574,#1266,#1267);
#1154=AXIS2_PLACEMENT_3D('',#1576,#1268,#1269);
#1155=AXIS2_PLACEMENT_3D('',#1578,#1270,#1271);
#1156=AXIS2_PLACEMENT_3D('',#1591,#1277,#1278);
#1157=AXIS2_PLACEMENT_3D('',#1595,#1280,#1281);
#1158=AXIS2_PLACEMENT_3D('',#1600,#1284,#1285);
#1159=AXIS2_PLACEMENT_3D('',#1605,#1287,#1288);
#1160=AXIS2_PLACEMENT_3D('',#1609,#1290,#1291);
#1161=AXIS2_PLACEMENT_3D('',#1613,#1293,#1294);
#1162=AXIS2_PLACEMENT_3D('',#1616,#1296,#1297);
#1163=AXIS2_PLACEMENT_3D('',#1622,#1301,#1302);
#1164=AXIS2_PLACEMENT_3D('',#1628,#1306,#1307);
#1165=AXIS2_PLACEMENT_3D('',#1632,#1310,#1311);
#1166=AXIS2_PLACEMENT_3D('',#1633,#1312,#1313);
#1167=AXIS2_PLACEMENT_3D('',#1636,#1315,#1316);
#1168=AXIS2_PLACEMENT_3D('',#1640,#1319,#1320);
#1169=AXIS2_PLACEMENT_3D('',#1641,#1321,#1322);
#1170=AXIS2_PLACEMENT_3D('',#1644,#1324,#1325);
#1171=AXIS2_PLACEMENT_3D('',#1648,#1328,#1329);
#1172=AXIS2_PLACEMENT_3D('',#1649,#1330,#1331);
#1173=AXIS2_PLACEMENT_3D('',#1651,#1332,#1333);
#1174=AXIS2_PLACEMENT_3D('',#1652,#1334,#1335);
#1175=AXIS2_PLACEMENT_3D('',#1654,#1336,#1337);
#1176=AXIS2_PLACEMENT_3D('',#1655,#1338,#1339);
#1177=AXIS2_PLACEMENT_3D('',#1657,#1340,#1341);
#1178=AXIS2_PLACEMENT_3D('',#1661,#1344,#1345);
#1179=AXIS2_PLACEMENT_3D('',#1662,#1346,#1347);
#1180=AXIS2_PLACEMENT_3D('',#1664,#1348,#1349);
#1181=AXIS2_PLACEMENT_3D('',#1665,#1350,#1351);
#1182=AXIS2_PLACEMENT_3D('',#1667,#1352,#1353);
#1183=AXIS2_PLACEMENT_3D('',#1703,#1372,#1373);
#1184=AXIS2_PLACEMENT_3D('',#1709,#1377,#1378);
#1185=AXIS2_PLACEMENT_3D('',#1712,#1381,#1382);
#1186=AXIS2_PLACEMENT_3D('',#1713,#1383,#1384);
#1187=AXIS2_PLACEMENT_3D('',#1714,#1385,#1386);
#1188=AXIS2_PLACEMENT_3D('',#1720,#1390,#1391);
#1189=AXIS2_PLACEMENT_3D('',#1723,#1394,#1395);
#1190=AXIS2_PLACEMENT_3D('',#1724,#1396,#1397);
#1191=AXIS2_PLACEMENT_3D('',#1725,#1398,#1399);
#1192=AXIS2_PLACEMENT_3D('',#1728,#1401,#1402);
#1193=AXIS2_PLACEMENT_3D('',#1731,#1404,#1405);
#1194=AXIS2_PLACEMENT_3D('',#1739,#1410,#1411);
#1195=AXIS2_PLACEMENT_3D('',#1742,#1413,#1414);
#1196=AXIS2_PLACEMENT_3D('',#1743,#1415,#1416);
#1197=AXIS2_PLACEMENT_3D('',#1755,#1423,#1424);
#1198=AXIS2_PLACEMENT_3D('',#1758,#1426,#1427);
#1199=AXIS2_PLACEMENT_3D('',#1759,#1428,#1429);
#1200=AXIS2_PLACEMENT_3D('',#1763,#1432,#1433);
#1201=AXIS2_PLACEMENT_3D('',#1766,#1435,#1436);
#1202=AXIS2_PLACEMENT_3D('',#1767,#1437,#1438);
#1203=AXIS2_PLACEMENT_3D('',#1773,#1442,#1443);
#1204=AXIS2_PLACEMENT_3D('',#1776,#1445,#1446);
#1205=AXIS2_PLACEMENT_3D('',#1778,#1447,#1448);
#1206=AXIS2_PLACEMENT_3D('',#1779,#1449,#1450);
#1207=AXIS2_PLACEMENT_3D('',#1781,#1451,#1452);
#1208=AXIS2_PLACEMENT_3D('',#1784,#1454,#1455);
#1209=AXIS2_PLACEMENT_3D('',#1788,#1458,#1459);
#1210=AXIS2_PLACEMENT_3D('',#1791,#1461,#1462);
#1211=AXIS2_PLACEMENT_3D('',#1792,#1463,#1464);
#1212=AXIS2_PLACEMENT_3D('',#1793,#1465,#1466);
#1213=AXIS2_PLACEMENT_3D('',#1794,#1467,#1468);
#1214=AXIS2_PLACEMENT_3D('',#1796,#1469,#1470);
#1215=AXIS2_PLACEMENT_3D('',#1797,#1471,#1472);
#1216=AXIS2_PLACEMENT_3D('',#1802,#1475,#1476);
#1217=AXIS2_PLACEMENT_3D('',#1804,#1478,#1479);
#1218=AXIS2_PLACEMENT_3D('',#1805,#1480,#1481);
#1219=AXIS2_PLACEMENT_3D('',#1806,#1482,#1483);
#1220=AXIS2_PLACEMENT_3D('',#1808,#1484,#1485);
#1221=AXIS2_PLACEMENT_3D('',#1809,#1486,#1487);
#1222=AXIS2_PLACEMENT_3D('',#1811,#1488,#1489);
#1223=AXIS2_PLACEMENT_3D('',#1812,#1490,#1491);
#1224=AXIS2_PLACEMENT_3D('',#1813,#1492,#1493);
#1225=AXIS2_PLACEMENT_3D('',#1815,#1494,#1495);
#1226=AXIS2_PLACEMENT_3D('',#1816,#1496,#1497);
#1227=AXIS2_PLACEMENT_3D('',#1817,#1498,#1499);
#1228=AXIS2_PLACEMENT_3D('',#1818,#1500,#1501);
#1229=AXIS2_PLACEMENT_3D('',#1824,#1505,#1506);
#1230=AXIS2_PLACEMENT_3D('',#1828,#1509,#1510);
#1231=AXIS2_PLACEMENT_3D('',#1832,#1513,#1514);
#1232=AXIS2_PLACEMENT_3D('',#1836,#1517,#1518);
#1233=AXIS2_PLACEMENT_3D('',#1840,#1521,#1522);
#1234=AXIS2_PLACEMENT_3D('',#1842,#1524,#1525);
#1235=AXIS2_PLACEMENT_3D('',#1843,#1526,#1527);
#1236=AXIS2_PLACEMENT_3D('',#1849,#1531,#1532);
#1237=AXIS2_PLACEMENT_3D('',#1853,#1535,#1536);
#1238=AXIS2_PLACEMENT_3D('',#1857,#1539,#1540);
#1239=AXIS2_PLACEMENT_3D('',#1861,#1543,#1544);
#1240=AXIS2_PLACEMENT_3D('',#1865,#1547,#1548);
#1241=AXIS2_PLACEMENT_3D('',#1867,#1550,#1551);
#1242=AXIS2_PLACEMENT_3D('',#1868,#1552,#1553);
#1243=AXIS2_PLACEMENT_3D('',#1869,#1554,#1555);
#1244=DIRECTION('',(0.,0.,1.));
#1245=DIRECTION('',(1.,0.,0.));
#1246=DIRECTION('',(0.,0.,-1.));
#1247=DIRECTION('',(-1.,0.,0.));
#1248=DIRECTION('',(0.,0.,-1.));
#1249=DIRECTION('',(-1.,0.,0.));
#1250=DIRECTION('',(0.,0.,1.));
#1251=DIRECTION('',(1.,0.,0.));
#1252=DIRECTION('',(0.,0.,-1.));
#1253=DIRECTION('',(-1.,0.,0.));
#1254=DIRECTION('',(0.,0.,-1.));
#1255=DIRECTION('',(-1.,0.,0.));
#1256=DIRECTION('',(0.,0.,1.));
#1257=DIRECTION('',(1.,0.,0.));
#1258=DIRECTION('',(0.,0.,1.));
#1259=DIRECTION('',(1.,0.,0.));
#1260=DIRECTION('',(0.,0.,1.));
#1261=DIRECTION('',(1.,0.,0.));
#1262=DIRECTION('',(0.,0.,1.));
#1263=DIRECTION('',(1.,0.,0.));
#1264=DIRECTION('',(0.,0.,1.));
#1265=DIRECTION('',(1.,0.,0.));
#1266=DIRECTION('',(0.,0.,1.));
#1267=DIRECTION('',(1.,0.,0.));
#1268=DIRECTION('',(0.,0.,1.));
#1269=DIRECTION('',(1.,0.,0.));
#1270=DIRECTION('',(0.,0.,1.));
#1271=DIRECTION('',(1.,0.,0.));
#1272=DIRECTION('',(-3.46944695195364E-15,1.,0.));
#1273=DIRECTION('',(1.,0.,0.));
#1274=DIRECTION('',(9.37688365392869E-17,-1.,0.));
#1275=DIRECTION('',(1.,0.,0.));
#1276=DIRECTION('',(0.,1.,0.));
#1277=DIRECTION('',(0.,0.,1.));
#1278=DIRECTION('',(1.,0.,0.));
#1279=DIRECTION('',(1.,0.,0.));
#1280=DIRECTION('',(0.,0.,-1.));
#1281=DIRECTION('',(1.,0.,0.));
#1282=DIRECTION('',(0.,1.,0.));
#1283=DIRECTION('',(1.,0.,0.));
#1284=DIRECTION('',(0.,0.,1.));
#1285=DIRECTION('',(-1.,0.,0.));
#1286=DIRECTION('',(-1.,0.,0.));
#1287=DIRECTION('',(0.,0.,1.));
#1288=DIRECTION('',(-1.,0.,0.));
#1289=DIRECTION('',(0.,1.,0.));
#1290=DIRECTION('',(0.,0.,1.));
#1291=DIRECTION('',(-1.,0.,0.));
#1292=DIRECTION('',(-1.,0.,0.));
#1293=DIRECTION('',(0.,0.,1.));
#1294=DIRECTION('',(-1.,0.,0.));
#1295=DIRECTION('',(0.,1.,0.));
#1296=DIRECTION('',(0.,1.,0.));
#1297=DIRECTION('',(0.,0.,1.));
#1298=DIRECTION('',(1.,0.,0.));
#1299=DIRECTION('',(0.,0.,-1.));
#1300=DIRECTION('',(0.,0.,-1.));
#1301=DIRECTION('',(0.,1.,0.));
#1302=DIRECTION('',(0.,0.,1.));
#1303=DIRECTION('',(1.,0.,0.));
#1304=DIRECTION('',(0.,0.,-1.));
#1305=DIRECTION('',(0.,0.,-1.));
#1306=DIRECTION('',(-1.,0.,0.));
#1307=DIRECTION('',(0.,0.,1.));
#1308=DIRECTION('',(0.,1.,0.));
#1309=DIRECTION('',(0.,0.,-1.));
#1310=DIRECTION('',(0.,0.,-1.));
#1311=DIRECTION('',(-1.,0.,0.));
#1312=DIRECTION('',(0.,0.,1.));
#1313=DIRECTION('',(1.,0.,0.));
#1314=DIRECTION('',(0.,0.,-1.));
#1315=DIRECTION('',(0.,1.,0.));
#1316=DIRECTION('',(0.,0.,1.));
#1317=DIRECTION('',(1.,0.,0.));
#1318=DIRECTION('',(0.,0.,-1.));
#1319=DIRECTION('',(0.,0.,-1.));
#1320=DIRECTION('',(-1.,0.,0.));
#1321=DIRECTION('',(0.,0.,-1.));
#1322=DIRECTION('',(1.,0.,0.));
#1323=DIRECTION('',(0.,0.,-1.));
#1324=DIRECTION('',(-1.,0.,0.));
#1325=DIRECTION('',(0.,0.,1.));
#1326=DIRECTION('',(0.,1.,0.));
#1327=DIRECTION('',(0.,0.,-1.));
#1328=DIRECTION('',(0.,0.,-1.));
#1329=DIRECTION('',(-1.,0.,0.));
#1330=DIRECTION('',(0.,0.,1.));
#1331=DIRECTION('',(1.,0.,0.));
#1332=DIRECTION('',(0.,0.,-1.));
#1333=DIRECTION('',(-1.,0.,0.));
#1334=DIRECTION('',(0.,0.,1.));
#1335=DIRECTION('',(1.,0.,0.));
#1336=DIRECTION('',(0.,0.,-1.));
#1337=DIRECTION('',(-1.,0.,0.));
#1338=DIRECTION('',(0.,0.,1.));
#1339=DIRECTION('',(1.,0.,0.));
#1340=DIRECTION('',(0.,1.,0.));
#1341=DIRECTION('',(0.,0.,1.));
#1342=DIRECTION('',(1.,0.,0.));
#1343=DIRECTION('',(0.,0.,-1.));
#1344=DIRECTION('',(0.,0.,-1.));
#1345=DIRECTION('',(-1.,0.,0.));
#1346=DIRECTION('',(0.,0.,1.));
#1347=DIRECTION('',(1.,0.,0.));
#1348=DIRECTION('',(0.,0.,1.));
#1349=DIRECTION('',(1.,0.,0.));
#1350=DIRECTION('',(0.,0.,1.));
#1351=DIRECTION('',(1.,0.,0.));
#1352=DIRECTION('',(0.,0.,1.));
#1353=DIRECTION('',(1.,0.,0.));
#1354=DIRECTION('',(1.,0.,0.));
#1355=DIRECTION('',(0.5,0.866025403784439,0.));
#1356=DIRECTION('',(-0.5,0.866025403784438,0.));
#1357=DIRECTION('',(-1.,0.,0.));
#1358=DIRECTION('',(-0.5,-0.866025403784439,0.));
#1359=DIRECTION('',(0.5,-0.866025403784438,0.));
#1360=DIRECTION('',(1.,0.,0.));
#1361=DIRECTION('',(0.5,0.866025403784439,0.));
#1362=DIRECTION('',(-0.5,0.866025403784438,0.));
#1363=DIRECTION('',(-1.,0.,0.));
#1364=DIRECTION('',(-0.5,-0.866025403784439,0.));
#1365=DIRECTION('',(0.5,-0.866025403784439,0.));
#1366=DIRECTION('',(0.333692709977372,0.942681905686089,0.));
#1367=DIRECTION('',(-0.333692709977376,0.942681905686088,0.));
#1368=DIRECTION('',(9.37688365392869E-17,-1.,0.));
#1369=DIRECTION('',(-0.578953995067684,-0.815360209720322,0.));
#1370=DIRECTION('',(0.578953995067686,-0.815360209720321,0.));
#1371=DIRECTION('',(-3.46944695195364E-15,1.,0.));
#1372=DIRECTION('',(1.,9.37688365392869E-17,0.));
#1373=DIRECTION('',(-9.37688365392869E-17,1.,0.));
#1374=DIRECTION('',(0.,0.,1.));
#1375=DIRECTION('',(9.37688365392869E-17,-1.,-1.29456975819165E-16));
#1376=DIRECTION('',(0.,0.,-1.));
#1377=DIRECTION('',(-0.164398987305357,1.12280072577848E-16,-0.986393923832144));
#1378=DIRECTION('',(-0.986393923832144,0.,0.164398987305357));
#1379=DIRECTION('',(-0.333177835213659,0.941227384478589,0.0555296392022766));
#1380=DIRECTION('',(-0.576277417569364,-0.811590696410188,0.0960462362615608));
#1381=DIRECTION('',(-0.815360209720322,0.578953995067684,0.));
#1382=DIRECTION('',(-0.578953995067684,-0.815360209720322,0.));
#1383=DIRECTION('',(-0.942681905686088,-0.333692709977376,0.));
#1384=DIRECTION('',(0.333692709977376,-0.942681905686088,0.));
#1385=DIRECTION('',(-1.,-3.46944695195364E-15,0.));
#1386=DIRECTION('',(3.46944695195364E-15,-1.,0.));
#1387=DIRECTION('',(0.,0.,1.));
#1388=DIRECTION('',(-3.46944695195364E-15,1.,-1.29456975819165E-16));
#1389=DIRECTION('',(2.40741243048406E-30,-6.93889390390723E-16,-1.));
#1390=DIRECTION('',(0.164398987305357,4.42677991065128E-16,-0.986393923832144));
#1391=DIRECTION('',(-0.986393923832144,0.,-0.164398987305357));
#1392=DIRECTION('',(0.576277417569366,-0.811590696410186,0.0960462362615613));
#1393=DIRECTION('',(0.333177835213656,0.94122738447859,0.0555296392022765));
#1394=DIRECTION('',(0.942681905686089,-0.333692709977372,2.3154583110403E-16));
#1395=DIRECTION('',(0.333692709977372,0.942681905686089,0.));
#1396=DIRECTION('',(0.815360209720321,0.578953995067686,0.));
#1397=DIRECTION('',(-0.578953995067686,0.815360209720321,0.));
#1398=DIRECTION('',(0.,0.,-1.));
#1399=DIRECTION('',(-1.,0.,0.));
#1400=DIRECTION('',(0.,0.,-1.));
#1401=DIRECTION('',(0.,0.,1.));
#1402=DIRECTION('',(-1.,0.,0.));
#1403=DIRECTION('',(0.,0.,-1.));
#1404=DIRECTION('',(-1.,0.,0.));
#1405=DIRECTION('',(0.,0.,1.));
#1406=DIRECTION('',(0.,1.,0.));
#1407=DIRECTION('',(0.,0.,-1.));
#1408=DIRECTION('',(0.,1.,0.));
#1409=DIRECTION('',(0.,0.,-1.));
#1410=DIRECTION('',(0.,0.,-1.));
#1411=DIRECTION('',(-1.,0.,0.));
#1412=DIRECTION('',(0.,0.,-1.));
#1413=DIRECTION('',(0.,0.,1.));
#1414=DIRECTION('',(-1.,0.,0.));
#1415=DIRECTION('',(0.,-1.,0.));
#1416=DIRECTION('',(0.,0.,-1.));
#1417=DIRECTION('',(0.,0.,-1.));
#1418=DIRECTION('',(-1.,0.,0.));
#1419=DIRECTION('',(0.,0.,-1.));
#1420=DIRECTION('',(-1.,0.,0.));
#1421=DIRECTION('',(0.,0.,-1.));
#1422=DIRECTION('',(-1.,0.,0.));
#1423=DIRECTION('',(0.,0.,-1.));
#1424=DIRECTION('',(-1.,0.,0.));
#1425=DIRECTION('',(0.,0.,-1.));
#1426=DIRECTION('',(0.,0.,1.));
#1427=DIRECTION('',(-1.,0.,0.));
#1428=DIRECTION('',(-1.,0.,0.));
#1429=DIRECTION('',(0.,0.,1.));
#1430=DIRECTION('',(0.,0.,-1.));
#1431=DIRECTION('',(0.,1.,0.));
#1432=DIRECTION('',(0.,0.,-1.));
#1433=DIRECTION('',(-1.,0.,0.));
#1434=DIRECTION('',(0.,0.,-1.));
#1435=DIRECTION('',(0.,0.,1.));
#1436=DIRECTION('',(-1.,0.,0.));
#1437=DIRECTION('',(0.,-1.,0.));
#1438=DIRECTION('',(0.,0.,-1.));
#1439=DIRECTION('',(-1.,0.,0.));
#1440=DIRECTION('',(0.,0.,1.));
#1441=DIRECTION('',(-1.,0.,0.));
#1442=DIRECTION('',(0.,0.,1.));
#1443=DIRECTION('',(-1.,0.,0.));
#1444=DIRECTION('',(1.86449212809201E-16,1.,0.));
#1445=DIRECTION('',(0.,0.,-1.));
#1446=DIRECTION('',(-1.,0.,0.));
#1447=DIRECTION('',(0.,0.,1.));
#1448=DIRECTION('',(1.,0.,0.));
#1449=DIRECTION('',(0.,0.,1.));
#1450=DIRECTION('',(1.,0.,0.));
#1451=DIRECTION('',(0.,0.,-1.));
#1452=DIRECTION('',(-1.,0.,0.));
#1453=DIRECTION('',(0.,1.,0.));
#1454=DIRECTION('',(-1.,0.,0.));
#1455=DIRECTION('',(0.,0.,1.));
#1456=DIRECTION('',(0.,0.,-1.));
#1457=DIRECTION('',(0.,1.,0.));
#1458=DIRECTION('',(0.,0.,-1.));
#1459=DIRECTION('',(-1.,0.,0.));
#1460=DIRECTION('',(0.,0.,-1.));
#1461=DIRECTION('',(0.,0.,-1.));
#1462=DIRECTION('',(-1.,0.,0.));
#1463=DIRECTION('',(0.,0.,1.));
#1464=DIRECTION('',(-1.,0.,0.));
#1465=DIRECTION('',(0.,0.,1.));
#1466=DIRECTION('',(1.,0.,0.));
#1467=DIRECTION('',(0.,0.,-1.));
#1468=DIRECTION('',(-1.,0.,0.));
#1469=DIRECTION('',(0.,0.,-1.));
#1470=DIRECTION('',(-1.,0.,0.));
#1471=DIRECTION('',(0.,0.,-1.));
#1472=DIRECTION('',(-1.,0.,0.));
#1473=DIRECTION('',(0.,0.,-1.));
#1474=DIRECTION('',(0.,0.,-1.));
#1475=DIRECTION('',(-1.,1.86449212809201E-16,0.));
#1476=DIRECTION('',(-1.86449212809201E-16,-1.,0.));
#1477=DIRECTION('',(1.86449212809201E-16,1.,0.));
#1478=DIRECTION('',(0.,0.,1.));
#1479=DIRECTION('',(-1.,0.,0.));
#1480=DIRECTION('',(0.,0.,1.));
#1481=DIRECTION('',(1.,0.,0.));
#1482=DIRECTION('',(0.,0.,-1.));
#1483=DIRECTION('',(-1.,0.,0.));
#1484=DIRECTION('',(0.,0.,1.));
#1485=DIRECTION('',(1.,0.,0.));
#1486=DIRECTION('',(0.,0.,-1.));
#1487=DIRECTION('',(-1.,0.,0.));
#1488=DIRECTION('',(0.,0.,-1.));
#1489=DIRECTION('',(-1.,0.,0.));
#1490=DIRECTION('',(0.,0.,1.));
#1491=DIRECTION('',(1.,0.,0.));
#1492=DIRECTION('',(0.,0.,-1.));
#1493=DIRECTION('',(-1.,0.,0.));
#1494=DIRECTION('',(0.,0.,-1.));
#1495=DIRECTION('',(-1.,0.,0.));
#1496=DIRECTION('',(0.,0.,-1.));
#1497=DIRECTION('',(-1.,0.,0.));
#1498=DIRECTION('',(0.,0.,-1.));
#1499=DIRECTION('',(-1.,0.,0.));
#1500=DIRECTION('',(-0.866025403784439,0.5,0.));
#1501=DIRECTION('',(-0.5,-0.866025403784439,0.));
#1502=DIRECTION('',(0.,0.,-1.));
#1503=DIRECTION('',(0.5,0.866025403784439,0.));
#1504=DIRECTION('',(0.,0.,-1.));
#1505=DIRECTION('',(0.,1.,0.));
#1506=DIRECTION('',(0.,0.,1.));
#1507=DIRECTION('',(0.,0.,-1.));
#1508=DIRECTION('',(1.,0.,0.));
#1509=DIRECTION('',(0.866025403784439,0.5,0.));
#1510=DIRECTION('',(-0.5,0.866025403784439,0.));
#1511=DIRECTION('',(0.,0.,-1.));
#1512=DIRECTION('',(0.5,-0.866025403784438,0.));
#1513=DIRECTION('',(0.866025403784439,-0.5,0.));
#1514=DIRECTION('',(0.5,0.866025403784439,0.));
#1515=DIRECTION('',(0.,0.,-1.));
#1516=DIRECTION('',(-0.5,-0.866025403784439,0.));
#1517=DIRECTION('',(0.,-1.,0.));
#1518=DIRECTION('',(0.,0.,-1.));
#1519=DIRECTION('',(0.,0.,-1.));
#1520=DIRECTION('',(-1.,0.,0.));
#1521=DIRECTION('',(-0.866025403784438,-0.5,0.));
#1522=DIRECTION('',(0.5,-0.866025403784438,0.));
#1523=DIRECTION('',(-0.5,0.866025403784438,0.));
#1524=DIRECTION('',(0.,0.,-1.));
#1525=DIRECTION('',(1.,0.,0.));
#1526=DIRECTION('',(-0.866025403784439,0.5,0.));
#1527=DIRECTION('',(-0.5,-0.866025403784439,0.));
#1528=DIRECTION('',(0.,0.,-1.));
#1529=DIRECTION('',(0.5,0.866025403784439,0.));
#1530=DIRECTION('',(0.,0.,-1.));
#1531=DIRECTION('',(0.,1.,0.));
#1532=DIRECTION('',(0.,0.,1.));
#1533=DIRECTION('',(0.,0.,-1.));
#1534=DIRECTION('',(1.,0.,0.));
#1535=DIRECTION('',(0.866025403784439,0.5,0.));
#1536=DIRECTION('',(-0.5,0.866025403784439,0.));
#1537=DIRECTION('',(0.,0.,-1.));
#1538=DIRECTION('',(0.5,-0.866025403784439,0.));
#1539=DIRECTION('',(0.866025403784439,-0.5,0.));
#1540=DIRECTION('',(0.5,0.866025403784439,0.));
#1541=DIRECTION('',(0.,0.,-1.));
#1542=DIRECTION('',(-0.5,-0.866025403784439,0.));
#1543=DIRECTION('',(0.,-1.,0.));
#1544=DIRECTION('',(0.,0.,-1.));
#1545=DIRECTION('',(0.,0.,-1.));
#1546=DIRECTION('',(-1.,0.,0.));
#1547=DIRECTION('',(-0.866025403784438,-0.5,0.));
#1548=DIRECTION('',(0.5,-0.866025403784438,0.));
#1549=DIRECTION('',(-0.5,0.866025403784438,0.));
#1550=DIRECTION('',(0.,0.,-1.));
#1551=DIRECTION('',(1.,0.,0.));
#1552=DIRECTION('',(0.,0.,1.));
#1553=DIRECTION('',(1.,0.,0.));
#1554=DIRECTION('',(0.,0.,1.));
#1555=DIRECTION('',(1.,0.,0.));
#1556=CARTESIAN_POINT('',(0.,0.,0.));
#1557=CARTESIAN_POINT('',(0.006,1.71450551880629E-19,0.01925));
#1558=CARTESIAN_POINT('',(0.006,1.71450551880629E-19,0.01925));
#1559=CARTESIAN_POINT('',(0.0032,1.71450551880629E-19,0.01925));
#1560=CARTESIAN_POINT('',(0.006,1.71450551880629E-19,0.005));
#1561=CARTESIAN_POINT('',(0.0088,1.71450551880629E-19,0.005));
#1562=CARTESIAN_POINT('',(-0.00663,0.01263,0.01925));
#1563=CARTESIAN_POINT('',(-0.00663,0.01263,0.02925));
#1564=CARTESIAN_POINT('',(-0.00943,0.01263,0.02925));
#1565=CARTESIAN_POINT('',(-0.00663,0.01263,0.005));
#1566=CARTESIAN_POINT('',(-0.00383,0.01263,0.005));
#1567=CARTESIAN_POINT('',(0.,0.0085,0.007));
#1568=CARTESIAN_POINT('',(-0.03,0.049,0.007));
#1569=CARTESIAN_POINT('',(-0.0282,0.049,0.007));
#1570=CARTESIAN_POINT('',(0.03,0.049,0.007));
#1571=CARTESIAN_POINT('',(0.0318,0.049,0.007));
#1572=CARTESIAN_POINT('',(0.025,0.027,0.007));
#1573=CARTESIAN_POINT('',(0.0278,0.027,0.007));
#1574=CARTESIAN_POINT('',(0.025,-0.027,0.007));
#1575=CARTESIAN_POINT('',(0.0278,-0.027,0.007));
#1576=CARTESIAN_POINT('',(-0.025,-0.027,0.007));
#1577=CARTESIAN_POINT('',(-0.0222,-0.027,0.007));
#1578=CARTESIAN_POINT('',(-0.025,0.027,0.007));
#1579=CARTESIAN_POINT('',(-0.0222,0.027,0.007));
#1580=CARTESIAN_POINT('',(-0.035,0.043,0.007));
#1581=CARTESIAN_POINT('',(-0.035,-0.037,0.007));
#1582=CARTESIAN_POINT('',(-0.035,0.054,0.007));
#1583=CARTESIAN_POINT('',(0.,-0.037,0.007));
#1584=CARTESIAN_POINT('',(0.035,-0.037,0.007));
#1585=CARTESIAN_POINT('',(0.035,0.,0.007));
#1586=CARTESIAN_POINT('',(0.035,0.054,0.007));
#1587=CARTESIAN_POINT('',(0.03,0.054,0.007));
#1588=CARTESIAN_POINT('',(0.025,0.054,0.007));
#1589=CARTESIAN_POINT('',(0.025,0.049,0.007));
#1590=CARTESIAN_POINT('',(0.025,0.044,0.007));
#1591=CARTESIAN_POINT('',(0.025,0.027,0.007));
#1592=CARTESIAN_POINT('',(0.0112522729151325,0.037,0.007));
#1593=CARTESIAN_POINT('',(-8.67361737988404E-18,0.037,0.007));
#1594=CARTESIAN_POINT('',(-0.0112522729151325,0.037,0.007));
#1595=CARTESIAN_POINT('',(-0.025,0.027,0.007));
#1596=CARTESIAN_POINT('',(-0.025,0.044,0.007));
#1597=CARTESIAN_POINT('',(-0.025,0.049,0.007));
#1598=CARTESIAN_POINT('',(-0.025,0.054,0.007));
#1599=CARTESIAN_POINT('',(-0.03,0.054,0.007));
#1600=CARTESIAN_POINT('',(0.006,7.14280888094984E-19,0.007));
#1601=CARTESIAN_POINT('',(0.006,-0.005,0.007));
#1602=CARTESIAN_POINT('',(0.011,5.61200038201565E-19,0.007));
#1603=CARTESIAN_POINT('',(-0.00464512701892219,-0.005,0.007));
#1604=CARTESIAN_POINT('',(-0.00663,-0.005,0.007));
#1605=CARTESIAN_POINT('',(-0.00663,6.50723957650102E-19,0.007));
#1606=CARTESIAN_POINT('',(-0.01163,8.67361737988404E-19,0.007));
#1607=CARTESIAN_POINT('',(-0.01163,0.001315,0.007));
#1608=CARTESIAN_POINT('',(-0.01163,0.01263,0.007));
#1609=CARTESIAN_POINT('',(-0.00663,0.01263,0.007));
#1610=CARTESIAN_POINT('',(-0.00663,0.01763,0.007));
#1611=CARTESIAN_POINT('',(0.004685,0.01763,0.007));
#1612=CARTESIAN_POINT('',(0.006,0.01763,0.007));
#1613=CARTESIAN_POINT('',(0.006,0.01263,0.007));
#1614=CARTESIAN_POINT('',(0.011,0.01263,0.007));
#1615=CARTESIAN_POINT('',(0.011,0.0106451270189222,0.007));
#1616=CARTESIAN_POINT('',(0.,-0.037,0.007));
#1617=CARTESIAN_POINT('',(0.,-0.037,0.));
#1618=CARTESIAN_POINT('',(-0.035,-0.037,0.));
#1619=CARTESIAN_POINT('',(0.035,-0.037,0.));
#1620=CARTESIAN_POINT('',(0.035,-0.037,0.007));
#1621=CARTESIAN_POINT('',(-0.035,-0.037,0.007));
#1622=CARTESIAN_POINT('',(0.03,0.054,0.007));
#1623=CARTESIAN_POINT('',(0.03,0.054,0.));
#1624=CARTESIAN_POINT('',(0.025,0.054,0.));
#1625=CARTESIAN_POINT('',(0.035,0.054,0.));
#1626=CARTESIAN_POINT('',(0.025,0.054,0.007));
#1627=CARTESIAN_POINT('',(0.035,0.054,0.007));
#1628=CARTESIAN_POINT('',(0.025,0.049,0.007));
#1629=CARTESIAN_POINT('',(0.025,0.049,0.));
#1630=CARTESIAN_POINT('',(0.025,0.044,0.));
#1631=CARTESIAN_POINT('',(0.025,0.044,0.007));
#1632=CARTESIAN_POINT('',(0.025,0.027,0.007));
#1633=CARTESIAN_POINT('',(0.025,0.027,0.));
#1634=CARTESIAN_POINT('',(0.0112522729151325,0.037,0.));
#1635=CARTESIAN_POINT('',(0.0112522729151325,0.037,0.007));
#1636=CARTESIAN_POINT('',(-8.67361737988404E-18,0.037,0.007));
#1637=CARTESIAN_POINT('',(-8.67361737988404E-18,0.037,0.));
#1638=CARTESIAN_POINT('',(-0.0112522729151325,0.037,0.));
#1639=CARTESIAN_POINT('',(-0.0112522729151325,0.037,0.007));
#1640=CARTESIAN_POINT('',(-0.025,0.027,0.007));
#1641=CARTESIAN_POINT('',(-0.025,0.027,0.));
#1642=CARTESIAN_POINT('',(-0.025,0.044,0.));
#1643=CARTESIAN_POINT('',(-0.025,0.044,0.007));
#1644=CARTESIAN_POINT('',(-0.025,0.049,0.007));
#1645=CARTESIAN_POINT('',(-0.025,0.049,0.));
#1646=CARTESIAN_POINT('',(-0.025,0.054,0.));
#1647=CARTESIAN_POINT('',(-0.025,0.054,0.007));
#1648=CARTESIAN_POINT('',(0.025,-0.027,0.007));
#1649=CARTESIAN_POINT('',(0.025,-0.027,0.));
#1650=CARTESIAN_POINT('',(0.0278,-0.027,0.));
#1651=CARTESIAN_POINT('',(-0.025,-0.027,0.007));
#1652=CARTESIAN_POINT('',(-0.025,-0.027,0.));
#1653=CARTESIAN_POINT('',(-0.0222,-0.027,0.));
#1654=CARTESIAN_POINT('',(-0.025,0.027,0.007));
#1655=CARTESIAN_POINT('',(-0.025,0.027,0.));
#1656=CARTESIAN_POINT('',(-0.0222,0.027,0.));
#1657=CARTESIAN_POINT('',(-0.03,0.054,0.007));
#1658=CARTESIAN_POINT('',(-0.03,0.054,0.));
#1659=CARTESIAN_POINT('',(-0.035,0.054,0.));
#1660=CARTESIAN_POINT('',(-0.035,0.054,0.007));
#1661=CARTESIAN_POINT('',(0.025,0.027,0.007));
#1662=CARTESIAN_POINT('',(0.025,0.027,0.));
#1663=CARTESIAN_POINT('',(0.0278,0.027,0.));
#1664=CARTESIAN_POINT('',(0.,0.0085,0.));
#1665=CARTESIAN_POINT('',(-0.03,0.049,0.));
#1666=CARTESIAN_POINT('',(-0.0282,0.049,0.));
#1667=CARTESIAN_POINT('',(0.03,0.049,0.));
#1668=CARTESIAN_POINT('',(0.0318,0.049,0.));
#1669=CARTESIAN_POINT('',(-0.00663,0.01673,0.));
#1670=CARTESIAN_POINT('',(-0.00899713610367746,0.01673,0.));
#1671=CARTESIAN_POINT('',(-0.00426286389632253,0.01673,0.));
#1672=CARTESIAN_POINT('',(-0.0101807041555162,0.01468,0.));
#1673=CARTESIAN_POINT('',(-0.0113642722073549,0.01263,0.));
#1674=CARTESIAN_POINT('',(-0.0101807041555162,0.01058,0.));
#1675=CARTESIAN_POINT('',(-0.00899713610367746,0.00853,0.));
#1676=CARTESIAN_POINT('',(-0.00663,0.00853,0.));
#1677=CARTESIAN_POINT('',(-0.00426286389632253,0.00853,0.));
#1678=CARTESIAN_POINT('',(-0.00307929584448379,0.01058,0.));
#1679=CARTESIAN_POINT('',(-0.00189572779264506,0.01263,0.));
#1680=CARTESIAN_POINT('',(-0.00307929584448379,0.01468,0.));
#1681=CARTESIAN_POINT('',(0.006,0.0041,0.));
#1682=CARTESIAN_POINT('',(0.00363286389632253,0.0041,0.));
#1683=CARTESIAN_POINT('',(0.00836713610367746,0.0041,0.));
#1684=CARTESIAN_POINT('',(0.0024492958444838,0.00205,0.));
#1685=CARTESIAN_POINT('',(0.00126572779264507,1.3010426069826E-18,0.));
#1686=CARTESIAN_POINT('',(0.0024492958444838,-0.00205,0.));
#1687=CARTESIAN_POINT('',(0.00363286389632253,-0.0041,0.));
#1688=CARTESIAN_POINT('',(0.006,-0.0041,0.));
#1689=CARTESIAN_POINT('',(0.00836713610367747,-0.0041,0.));
#1690=CARTESIAN_POINT('',(0.0095507041555162,-0.00205,0.));
#1691=CARTESIAN_POINT('',(0.0107342722073549,8.67361737988404E-19,0.));
#1692=CARTESIAN_POINT('',(0.0095507041555162,0.00205,0.));
#1693=CARTESIAN_POINT('',(-0.047,0.0201,0.));
#1694=CARTESIAN_POINT('',(-0.047,0.0201,0.));
#1695=CARTESIAN_POINT('',(0.047,0.0201,0.));
#1696=CARTESIAN_POINT('',(0.047,0.0201,0.));
#1697=CARTESIAN_POINT('',(0.047,1.12522603847144E-18,0.));
#1698=CARTESIAN_POINT('',(0.047,-0.0201,0.));
#1699=CARTESIAN_POINT('',(0.047,-0.0201,0.));
#1700=CARTESIAN_POINT('',(-0.047,-0.0201,0.));
#1701=CARTESIAN_POINT('',(-0.047,-0.0201,0.));
#1702=CARTESIAN_POINT('',(-0.047,0.043,0.));
#1703=CARTESIAN_POINT('',(0.047,0.0085,0.0035));
#1704=CARTESIAN_POINT('',(0.047,0.0201,0.0025));
#1705=CARTESIAN_POINT('',(0.047,0.0201,0.005));
#1706=CARTESIAN_POINT('',(0.047,4.59467299042506E-18,0.005));
#1707=CARTESIAN_POINT('',(0.047,-0.0201,0.005));
#1708=CARTESIAN_POINT('',(0.047,-0.0201,0.0025));
#1709=CARTESIAN_POINT('',(0.00208108108108108,-1.42132222743051E-18,0.0124864864864865));
#1710=CARTESIAN_POINT('',(0.047,0.0201,0.005));
#1711=CARTESIAN_POINT('',(0.047,-0.0201,0.005));
#1712=CARTESIAN_POINT('',(0.0407345033867927,-0.0289239077302669,0.));
#1713=CARTESIAN_POINT('',(0.0480892894425499,0.0170227573247965,0.));
#1714=CARTESIAN_POINT('',(-0.047,0.0085,0.0035));
#1715=CARTESIAN_POINT('',(-0.047,-0.0201,0.0025));
#1716=CARTESIAN_POINT('',(-0.047,-0.0201,0.005));
#1717=CARTESIAN_POINT('',(-0.047,-1.6306400674182E-16,0.005));
#1718=CARTESIAN_POINT('',(-0.047,0.0201,0.005));
#1719=CARTESIAN_POINT('',(-0.047,0.0201,0.0025));
#1720=CARTESIAN_POINT('',(-0.00208108108108108,-5.60373763437772E-18,0.0124864864864865));
#1721=CARTESIAN_POINT('',(-0.047,-0.0201,0.005));
#1722=CARTESIAN_POINT('',(-0.047,0.0201,0.005));
#1723=CARTESIAN_POINT('',(-0.0480892894425499,0.0170227573247962,-1.18119107028722E-17));
#1724=CARTESIAN_POINT('',(-0.0407345033867926,-0.028923907730267,0.));
#1725=CARTESIAN_POINT('',(0.006,7.14280888094984E-19,0.01925));
#1726=CARTESIAN_POINT('',(0.011,5.61200038201565E-19,0.01925));
#1727=CARTESIAN_POINT('',(0.011,5.61200038201565E-19,0.01925));
#1728=CARTESIAN_POINT('',(0.006,7.14280888094984E-19,0.01925));
#1729=CARTESIAN_POINT('',(0.006,-0.005,0.01925));
#1730=CARTESIAN_POINT('',(0.006,-0.005,0.01925));
#1731=CARTESIAN_POINT('',(0.011,0.0106451270189222,0.01925));
#1732=CARTESIAN_POINT('',(0.011,0.0106451270189222,0.02925));
#1733=CARTESIAN_POINT('',(0.011,0.0102469507659596,0.02925));
#1734=CARTESIAN_POINT('',(0.011,0.01263,0.02925));
#1735=CARTESIAN_POINT('',(0.011,0.0102469507659596,0.01925));
#1736=CARTESIAN_POINT('',(0.011,0.0102469507659596,0.01925));
#1737=CARTESIAN_POINT('',(0.011,0.0106451270189222,0.01925));
#1738=CARTESIAN_POINT('',(0.011,0.01263,0.01925));
#1739=CARTESIAN_POINT('',(0.006,0.01263,0.01925));
#1740=CARTESIAN_POINT('',(0.006,0.01763,0.01925));
#1741=CARTESIAN_POINT('',(0.006,0.01763,0.02925));
#1742=CARTESIAN_POINT('',(0.006,0.01263,0.02925));
#1743=CARTESIAN_POINT('',(0.004685,0.01763,0.01925));
#1744=CARTESIAN_POINT('',(-0.00663,0.01763,0.01925));
#1745=CARTESIAN_POINT('',(-0.00663,0.01763,0.02925));
#1746=CARTESIAN_POINT('',(-0.004315,0.01763,0.02925));
#1747=CARTESIAN_POINT('',(-0.002,0.01763,0.02925));
#1748=CARTESIAN_POINT('',(-0.002,0.01763,0.02925));
#1749=CARTESIAN_POINT('',(-0.002,0.01763,0.01925));
#1750=CARTESIAN_POINT('',(0.004685,0.01763,0.01925));
#1751=CARTESIAN_POINT('',(0.002,0.01763,0.01925));
#1752=CARTESIAN_POINT('',(0.002,0.01763,0.02925));
#1753=CARTESIAN_POINT('',(0.002,0.01763,0.02925));
#1754=CARTESIAN_POINT('',(0.004685,0.01763,0.02925));
#1755=CARTESIAN_POINT('',(-0.00663,0.01263,0.01925));
#1756=CARTESIAN_POINT('',(-0.01163,0.01263,0.01925));
#1757=CARTESIAN_POINT('',(-0.01163,0.01263,0.02925));
#1758=CARTESIAN_POINT('',(-0.00663,0.01263,0.02925));
#1759=CARTESIAN_POINT('',(-0.01163,0.001315,0.01925));
#1760=CARTESIAN_POINT('',(-0.01163,8.67361737988404E-19,0.01925));
#1761=CARTESIAN_POINT('',(-0.01163,8.67361737988404E-19,0.02925));
#1762=CARTESIAN_POINT('',(-0.01163,0.0082998729810778,0.02925));
#1763=CARTESIAN_POINT('',(-0.00663,6.50723957650102E-19,0.01925));
#1764=CARTESIAN_POINT('',(-0.00663,-0.005,0.01925));
#1765=CARTESIAN_POINT('',(-0.00663,-0.005,0.02925));
#1766=CARTESIAN_POINT('',(-0.00663,6.50723957650102E-19,0.02925));
#1767=CARTESIAN_POINT('',(-0.00464512701892219,-0.005,0.01925));
#1768=CARTESIAN_POINT('',(-0.00464512701892219,-0.005,0.01925));
#1769=CARTESIAN_POINT('',(-0.0042469507659596,-0.005,0.01925));
#1770=CARTESIAN_POINT('',(-0.0042469507659596,-0.005,0.02925));
#1771=CARTESIAN_POINT('',(-0.0042469507659596,-0.005,0.02925));
#1772=CARTESIAN_POINT('',(-0.00464512701892219,-0.005,0.02925));
#1773=CARTESIAN_POINT('',(2.22044604925032E-16,0.00849999999999973,0.01925));
#1774=CARTESIAN_POINT('',(-0.002,0.011815,0.01925));
#1775=CARTESIAN_POINT('',(-0.002,0.006,0.01925));
#1776=CARTESIAN_POINT('',(0.006,-1.7347234759768E-18,0.01925));
#1777=CARTESIAN_POINT('',(-0.003315409787236,-0.00363636363636364,0.01925));
#1778=CARTESIAN_POINT('',(-0.0042469507659596,-0.004,0.01925));
#1779=CARTESIAN_POINT('',(0.01,0.0102469507659596,0.01925));
#1780=CARTESIAN_POINT('',(0.00963636363636364,0.009315409787236,0.01925));
#1781=CARTESIAN_POINT('',(0.006,3.46944695195361E-18,0.01925));
#1782=CARTESIAN_POINT('',(0.002,0.00916515138991168,0.01925));
#1783=CARTESIAN_POINT('',(0.002,0.0133975756949558,0.01925));
#1784=CARTESIAN_POINT('',(0.002,0.0133975756949558,0.02925));
#1785=CARTESIAN_POINT('',(0.002,0.00916515138991168,0.02925));
#1786=CARTESIAN_POINT('',(0.002,0.00916515138991168,0.02925));
#1787=CARTESIAN_POINT('',(0.002,0.0133975756949558,0.02925));
#1788=CARTESIAN_POINT('',(0.006,3.46944695195361E-18,0.02925));
#1789=CARTESIAN_POINT('',(0.00963636363636364,0.009315409787236,0.02925));
#1790=CARTESIAN_POINT('',(0.00963636363636364,0.009315409787236,0.02925));
#1791=CARTESIAN_POINT('',(0.006,3.46944695195361E-18,0.02925));
#1792=CARTESIAN_POINT('',(2.22044604925032E-16,0.00849999999999973,0.02925));
#1793=CARTESIAN_POINT('',(0.01,0.0102469507659596,0.02925));
#1794=CARTESIAN_POINT('',(0.00698168614282426,0.0136116861428243,0.02925));
#1795=CARTESIAN_POINT('',(0.00538168614282426,0.0136116861428243,0.02925));
#1796=CARTESIAN_POINT('',(0.006,-1.7347234759768E-18,0.02925));
#1797=CARTESIAN_POINT('',(0.006,-1.7347234759768E-18,0.02925));
#1798=CARTESIAN_POINT('',(-0.003315409787236,-0.00363636363636364,0.02925));
#1799=CARTESIAN_POINT('',(-0.002,0.006,0.02925));
#1800=CARTESIAN_POINT('',(-0.003315409787236,-0.00363636363636364,0.02925));
#1801=CARTESIAN_POINT('',(-0.002,0.006,0.02925));
#1802=CARTESIAN_POINT('',(-0.002,0.011815,0.02925));
#1803=CARTESIAN_POINT('',(-0.002,0.011815,0.02925));
#1804=CARTESIAN_POINT('',(2.22044604925032E-16,0.00849999999999973,0.02925));
#1805=CARTESIAN_POINT('',(-0.0042469507659596,-0.004,0.02925));
#1806=CARTESIAN_POINT('',(-0.00761168614282408,-0.000981686142824297,0.02925));
#1807=CARTESIAN_POINT('',(-0.00921168614282408,-0.000981686142824297,0.02925));
#1808=CARTESIAN_POINT('',(0.,0.0085,0.007));
#1809=CARTESIAN_POINT('',(0.00698168614282426,0.0136116861428243,0.007));
#1810=CARTESIAN_POINT('',(0.00538168614282426,0.0136116861428243,0.007));
#1811=CARTESIAN_POINT('',(0.00698168614282426,0.0136116861428243,0.01925));
#1812=CARTESIAN_POINT('',(0.,0.0085,0.007));
#1813=CARTESIAN_POINT('',(-0.00761168614282408,-0.000981686142824297,0.007));
#1814=CARTESIAN_POINT('',(-0.00921168614282408,-0.000981686142824297,0.007));
#1815=CARTESIAN_POINT('',(-0.00761168614282408,-0.000981686142824297,0.01925));
#1816=CARTESIAN_POINT('',(-0.0042469507659596,-0.004,0.02925));
#1817=CARTESIAN_POINT('',(0.01,0.0102469507659596,0.02925));
#1818=CARTESIAN_POINT('',(-0.0101807041555162,0.01468,0.005));
#1819=CARTESIAN_POINT('',(-0.00899713610367746,0.01673,0.005));
#1820=CARTESIAN_POINT('',(-0.00899713610367746,0.01673,0.005));
#1821=CARTESIAN_POINT('',(-0.0101807041555162,0.01468,0.005));
#1822=CARTESIAN_POINT('',(-0.0113642722073549,0.01263,0.005));
#1823=CARTESIAN_POINT('',(-0.0113642722073549,0.01263,0.005));
#1824=CARTESIAN_POINT('',(-0.00663,0.01673,0.005));
#1825=CARTESIAN_POINT('',(-0.00426286389632253,0.01673,0.005));
#1826=CARTESIAN_POINT('',(-0.00426286389632253,0.01673,0.005));
#1827=CARTESIAN_POINT('',(-0.00663,0.01673,0.005));
#1828=CARTESIAN_POINT('',(-0.00307929584448379,0.01468,0.005));
#1829=CARTESIAN_POINT('',(-0.00189572779264506,0.01263,0.005));
#1830=CARTESIAN_POINT('',(-0.00189572779264506,0.01263,0.005));
#1831=CARTESIAN_POINT('',(-0.00307929584448379,0.01468,0.005));
#1832=CARTESIAN_POINT('',(-0.00307929584448379,0.01058,0.005));
#1833=CARTESIAN_POINT('',(-0.00426286389632253,0.00853,0.005));
#1834=CARTESIAN_POINT('',(-0.00426286389632253,0.00853,0.005));
#1835=CARTESIAN_POINT('',(-0.00307929584448379,0.01058,0.005));
#1836=CARTESIAN_POINT('',(-0.00663,0.00853,0.005));
#1837=CARTESIAN_POINT('',(-0.00899713610367746,0.00853,0.005));
#1838=CARTESIAN_POINT('',(-0.00899713610367746,0.00853,0.005));
#1839=CARTESIAN_POINT('',(-0.00663,0.00853,0.005));
#1840=CARTESIAN_POINT('',(-0.0101807041555162,0.01058,0.005));
#1841=CARTESIAN_POINT('',(-0.0101807041555162,0.01058,0.005));
#1842=CARTESIAN_POINT('',(1.38777878078145E-17,0.00849999999999973,0.005));
#1843=CARTESIAN_POINT('',(0.0024492958444838,0.00205,0.005));
#1844=CARTESIAN_POINT('',(0.00363286389632253,0.0041,0.005));
#1845=CARTESIAN_POINT('',(0.00363286389632253,0.0041,0.005));
#1846=CARTESIAN_POINT('',(0.0024492958444838,0.00205,0.005));
#1847=CARTESIAN_POINT('',(0.00126572779264507,1.3010426069826E-18,0.005));
#1848=CARTESIAN_POINT('',(0.00126572779264507,1.3010426069826E-18,0.005));
#1849=CARTESIAN_POINT('',(0.006,0.0041,0.005));
#1850=CARTESIAN_POINT('',(0.00836713610367746,0.0041,0.005));
#1851=CARTESIAN_POINT('',(0.00836713610367746,0.0041,0.005));
#1852=CARTESIAN_POINT('',(0.006,0.0041,0.005));
#1853=CARTESIAN_POINT('',(0.0095507041555162,0.00205,0.005));
#1854=CARTESIAN_POINT('',(0.0107342722073549,8.67361737988404E-19,0.005));
#1855=CARTESIAN_POINT('',(0.0107342722073549,8.67361737988404E-19,0.005));
#1856=CARTESIAN_POINT('',(0.0095507041555162,0.00205,0.005));
#1857=CARTESIAN_POINT('',(0.0095507041555162,-0.00205,0.005));
#1858=CARTESIAN_POINT('',(0.00836713610367747,-0.0041,0.005));
#1859=CARTESIAN_POINT('',(0.00836713610367747,-0.0041,0.005));
#1860=CARTESIAN_POINT('',(0.0095507041555162,-0.00205,0.005));
#1861=CARTESIAN_POINT('',(0.006,-0.0041,0.005));
#1862=CARTESIAN_POINT('',(0.00363286389632254,-0.0041,0.005));
#1863=CARTESIAN_POINT('',(0.00363286389632254,-0.0041,0.005));
#1864=CARTESIAN_POINT('',(0.006,-0.0041,0.005));
#1865=CARTESIAN_POINT('',(0.0024492958444838,-0.00205,0.005));
#1866=CARTESIAN_POINT('',(0.0024492958444838,-0.00205,0.005));
#1867=CARTESIAN_POINT('',(1.38777878078145E-17,0.00849999999999973,0.005));
#1868=CARTESIAN_POINT('',(0.03,0.049,-2.00000000000027E-6));
#1869=CARTESIAN_POINT('',(-0.03,0.049,-2.00000000000027E-6));
#1870=MECHANICAL_DESIGN_GEOMETRIC_PRESENTATION_REPRESENTATION('',(#1131),
#1871);
#1871=(
GEOMETRIC_REPRESENTATION_CONTEXT(3)
GLOBAL_UNCERTAINTY_ASSIGNED_CONTEXT((#1872))
GLOBAL_UNIT_ASSIGNED_CONTEXT((#1875,#1874,#1873))
REPRESENTATION_CONTEXT('Right Upper Cart Plate',
'TOP_LEVEL_ASSEMBLY_PART')
);
#1872=UNCERTAINTY_MEASURE_WITH_UNIT(LENGTH_MEASURE(4.12310565123414E-8),
#1875,'DISTANCE_ACCURACY_VALUE','Maximum Tolerance applied to model');
#1873=(
NAMED_UNIT(*)
SI_UNIT($,.STERADIAN.)
SOLID_ANGLE_UNIT()
);
#1874=(
NAMED_UNIT(*)
PLANE_ANGLE_UNIT()
SI_UNIT($,.RADIAN.)
);
#1875=(
LENGTH_UNIT()
NAMED_UNIT(*)
SI_UNIT($,.METRE.)
);
#1876=PRODUCT_DEFINITION_SHAPE('','',#1877);
#1877=PRODUCT_DEFINITION('','',#1879,#1878);
#1878=PRODUCT_DEFINITION_CONTEXT('',#1885,'design');
#1879=PRODUCT_DEFINITION_FORMATION_WITH_SPECIFIED_SOURCE('','',#1881,
 .NOT_KNOWN.);
#1880=PRODUCT_RELATED_PRODUCT_CATEGORY('','',(#1881));
#1881=PRODUCT('Right Upper Cart Plate','Right Upper Cart Plate',
'Right Upper Cart Plate',(#1883));
#1882=PRODUCT_CATEGORY('','');
#1883=PRODUCT_CONTEXT('',#1885,'mechanical');
#1884=APPLICATION_PROTOCOL_DEFINITION('international standard',
'automotive_design',2010,#1885);
#1885=APPLICATION_CONTEXT(
'core data for automotive mechanical design processes');
ENDSEC;
END-ISO-10303-21;
