ISO-10303-21;
HEADER;
/* Generated by software containing ST-Developer
 * from STEP Tools, Inc. (www.steptools.com) 
 */
/* OPTION: using custom renumber hook */

FILE_DESCRIPTION(
/* description */ ('STEP AP214',
'CAx-IF Rec.Pracs.---User Defined Attributes---1.5---2016-08-15'),
/* implementation_level */ '2;1');

FILE_NAME(
/* name */ '6a95da30d62aea1f59761584',
/* time_stamp */ '2026-08-31T19:46:56Z',
/* author */ (''),
/* organization */ (''),
/* preprocessor_version */ 'ST-DEVELOPER v20',
/* originating_system */ 'ONSHAPE BY PTC INC, 1.220',
/* authorisation */ '  ');

FILE_SCHEMA (('AUTOMOTIVE_DESIGN {1 0 10303 214 3 1 1}'));
ENDSEC;

DATA;
#10=PROPERTY_DEFINITION_REPRESENTATION(#14,#12);
#11=PROPERTY_DEFINITION_REPRESENTATION(#15,#13);
#12=REPRESENTATION('',(#16),#1762);
#13=REPRESENTATION('',(#17),#1762);
#14=PROPERTY_DEFINITION('pmi validation property','',#1767);
#15=PROPERTY_DEFINITION('pmi validation property','',#1767);
#16=VALUE_REPRESENTATION_ITEM('number of annotations',COUNT_MEASURE(0.));
#17=VALUE_REPRESENTATION_ITEM('number of views',COUNT_MEASURE(0.));
#18=SHAPE_REPRESENTATION_RELATIONSHIP('','',#1111,#19);
#19=ADVANCED_BREP_SHAPE_REPRESENTATION('',(#1109),#1762);
#20=CYLINDRICAL_SURFACE('',#1168,0.01115);
#21=CYLINDRICAL_SURFACE('',#1171,0.0018);
#22=CYLINDRICAL_SURFACE('',#1172,0.0018);
#23=CYLINDRICAL_SURFACE('',#1173,0.0018);
#24=CYLINDRICAL_SURFACE('',#1174,0.0018);
#25=CYLINDRICAL_SURFACE('',#1183,0.0031);
#26=CYLINDRICAL_SURFACE('',#1184,0.0031);
#27=CYLINDRICAL_SURFACE('',#1185,0.0031);
#28=CYLINDRICAL_SURFACE('',#1186,0.0031);
#29=CYLINDRICAL_SURFACE('',#1187,0.0031);
#30=CYLINDRICAL_SURFACE('',#1188,0.0031);
#31=CYLINDRICAL_SURFACE('',#1189,0.0031);
#32=CYLINDRICAL_SURFACE('',#1190,0.0031);
#33=CIRCLE('',#1118,0.0018);
#34=CIRCLE('',#1119,0.0018);
#35=CIRCLE('',#1120,0.01115);
#36=CIRCLE('',#1121,0.0018);
#37=CIRCLE('',#1122,0.0018);
#38=CIRCLE('',#1124,0.0018);
#39=CIRCLE('',#1125,0.0018);
#40=CIRCLE('',#1126,0.01115);
#41=CIRCLE('',#1127,0.0018);
#42=CIRCLE('',#1128,0.0018);
#43=CIRCLE('',#1130,0.0031);
#44=CIRCLE('',#1134,0.0031);
#45=CIRCLE('',#1136,0.0031);
#46=CIRCLE('',#1137,0.0031);
#47=CIRCLE('',#1140,0.0031);
#48=CIRCLE('',#1141,0.0031);
#49=CIRCLE('',#1142,0.0031);
#50=CIRCLE('',#1144,0.0031);
#51=CIRCLE('',#1145,0.0031);
#52=CIRCLE('',#1146,0.0031);
#53=CIRCLE('',#1154,0.0031);
#54=CIRCLE('',#1155,0.0031);
#55=CIRCLE('',#1156,0.0031);
#56=CIRCLE('',#1158,0.0031);
#57=CIRCLE('',#1159,0.0031);
#58=CIRCLE('',#1160,0.0031);
#59=ORIENTED_EDGE('',*,*,#345,.F.);
#60=ORIENTED_EDGE('',*,*,#346,.T.);
#61=ORIENTED_EDGE('',*,*,#347,.T.);
#62=ORIENTED_EDGE('',*,*,#348,.F.);
#63=ORIENTED_EDGE('',*,*,#349,.F.);
#64=ORIENTED_EDGE('',*,*,#350,.F.);
#65=ORIENTED_EDGE('',*,*,#351,.T.);
#66=ORIENTED_EDGE('',*,*,#349,.T.);
#67=ORIENTED_EDGE('',*,*,#352,.F.);
#68=ORIENTED_EDGE('',*,*,#353,.T.);
#69=ORIENTED_EDGE('',*,*,#354,.T.);
#70=ORIENTED_EDGE('',*,*,#355,.T.);
#71=ORIENTED_EDGE('',*,*,#356,.T.);
#72=ORIENTED_EDGE('',*,*,#357,.T.);
#73=ORIENTED_EDGE('',*,*,#358,.F.);
#74=ORIENTED_EDGE('',*,*,#359,.F.);
#75=ORIENTED_EDGE('',*,*,#360,.T.);
#76=ORIENTED_EDGE('',*,*,#361,.F.);
#77=ORIENTED_EDGE('',*,*,#362,.T.);
#78=ORIENTED_EDGE('',*,*,#363,.T.);
#79=ORIENTED_EDGE('',*,*,#364,.F.);
#80=ORIENTED_EDGE('',*,*,#365,.T.);
#81=ORIENTED_EDGE('',*,*,#366,.T.);
#82=ORIENTED_EDGE('',*,*,#367,.T.);
#83=ORIENTED_EDGE('',*,*,#368,.F.);
#84=ORIENTED_EDGE('',*,*,#369,.F.);
#85=ORIENTED_EDGE('',*,*,#370,.T.);
#86=ORIENTED_EDGE('',*,*,#371,.T.);
#87=ORIENTED_EDGE('',*,*,#372,.F.);
#88=ORIENTED_EDGE('',*,*,#373,.T.);
#89=ORIENTED_EDGE('',*,*,#374,.T.);
#90=ORIENTED_EDGE('',*,*,#375,.T.);
#91=ORIENTED_EDGE('',*,*,#376,.F.);
#92=ORIENTED_EDGE('',*,*,#377,.F.);
#93=ORIENTED_EDGE('',*,*,#378,.T.);
#94=ORIENTED_EDGE('',*,*,#379,.T.);
#95=ORIENTED_EDGE('',*,*,#380,.F.);
#96=ORIENTED_EDGE('',*,*,#381,.F.);
#97=ORIENTED_EDGE('',*,*,#382,.T.);
#98=ORIENTED_EDGE('',*,*,#383,.T.);
#99=ORIENTED_EDGE('',*,*,#384,.F.);
#100=ORIENTED_EDGE('',*,*,#385,.F.);
#101=ORIENTED_EDGE('',*,*,#386,.T.);
#102=ORIENTED_EDGE('',*,*,#387,.T.);
#103=ORIENTED_EDGE('',*,*,#388,.F.);
#104=ORIENTED_EDGE('',*,*,#389,.T.);
#105=ORIENTED_EDGE('',*,*,#390,.T.);
#106=ORIENTED_EDGE('',*,*,#391,.F.);
#107=ORIENTED_EDGE('',*,*,#392,.F.);
#108=ORIENTED_EDGE('',*,*,#393,.F.);
#109=ORIENTED_EDGE('',*,*,#394,.F.);
#110=ORIENTED_EDGE('',*,*,#395,.T.);
#111=ORIENTED_EDGE('',*,*,#396,.F.);
#112=ORIENTED_EDGE('',*,*,#383,.F.);
#113=ORIENTED_EDGE('',*,*,#397,.F.);
#114=ORIENTED_EDGE('',*,*,#398,.T.);
#115=ORIENTED_EDGE('',*,*,#399,.F.);
#116=ORIENTED_EDGE('',*,*,#400,.T.);
#117=ORIENTED_EDGE('',*,*,#401,.T.);
#118=ORIENTED_EDGE('',*,*,#402,.T.);
#119=ORIENTED_EDGE('',*,*,#389,.F.);
#120=ORIENTED_EDGE('',*,*,#403,.F.);
#121=ORIENTED_EDGE('',*,*,#346,.F.);
#122=ORIENTED_EDGE('',*,*,#404,.T.);
#123=ORIENTED_EDGE('',*,*,#405,.T.);
#124=ORIENTED_EDGE('',*,*,#406,.T.);
#125=ORIENTED_EDGE('',*,*,#407,.F.);
#126=ORIENTED_EDGE('',*,*,#401,.F.);
#127=ORIENTED_EDGE('',*,*,#408,.F.);
#128=ORIENTED_EDGE('',*,*,#409,.F.);
#129=ORIENTED_EDGE('',*,*,#410,.F.);
#130=ORIENTED_EDGE('',*,*,#359,.T.);
#131=ORIENTED_EDGE('',*,*,#411,.T.);
#132=ORIENTED_EDGE('',*,*,#412,.F.);
#133=ORIENTED_EDGE('',*,*,#413,.F.);
#134=ORIENTED_EDGE('',*,*,#414,.T.);
#135=ORIENTED_EDGE('',*,*,#361,.T.);
#136=ORIENTED_EDGE('',*,*,#415,.T.);
#137=ORIENTED_EDGE('',*,*,#416,.F.);
#138=ORIENTED_EDGE('',*,*,#395,.F.);
#139=ORIENTED_EDGE('',*,*,#417,.T.);
#140=ORIENTED_EDGE('',*,*,#418,.T.);
#141=ORIENTED_EDGE('',*,*,#419,.F.);
#142=ORIENTED_EDGE('',*,*,#357,.F.);
#143=ORIENTED_EDGE('',*,*,#420,.F.);
#144=ORIENTED_EDGE('',*,*,#421,.F.);
#145=ORIENTED_EDGE('',*,*,#422,.F.);
#146=ORIENTED_EDGE('',*,*,#423,.F.);
#147=ORIENTED_EDGE('',*,*,#424,.F.);
#148=ORIENTED_EDGE('',*,*,#393,.T.);
#149=ORIENTED_EDGE('',*,*,#425,.T.);
#150=ORIENTED_EDGE('',*,*,#426,.T.);
#151=ORIENTED_EDGE('',*,*,#427,.F.);
#152=ORIENTED_EDGE('',*,*,#428,.T.);
#153=ORIENTED_EDGE('',*,*,#429,.T.);
#154=ORIENTED_EDGE('',*,*,#412,.T.);
#155=ORIENTED_EDGE('',*,*,#430,.T.);
#156=ORIENTED_EDGE('',*,*,#418,.F.);
#157=ORIENTED_EDGE('',*,*,#431,.T.);
#158=ORIENTED_EDGE('',*,*,#432,.T.);
#159=ORIENTED_EDGE('',*,*,#433,.T.);
#160=ORIENTED_EDGE('',*,*,#434,.F.);
#161=ORIENTED_EDGE('',*,*,#406,.F.);
#162=ORIENTED_EDGE('',*,*,#435,.F.);
#163=ORIENTED_EDGE('',*,*,#436,.F.);
#164=ORIENTED_EDGE('',*,*,#437,.F.);
#165=ORIENTED_EDGE('',*,*,#438,.T.);
#166=ORIENTED_EDGE('',*,*,#391,.T.);
#167=ORIENTED_EDGE('',*,*,#411,.F.);
#168=ORIENTED_EDGE('',*,*,#358,.T.);
#169=ORIENTED_EDGE('',*,*,#419,.T.);
#170=ORIENTED_EDGE('',*,*,#430,.F.);
#171=ORIENTED_EDGE('',*,*,#390,.F.);
#172=ORIENTED_EDGE('',*,*,#402,.F.);
#173=ORIENTED_EDGE('',*,*,#407,.T.);
#174=ORIENTED_EDGE('',*,*,#434,.T.);
#175=ORIENTED_EDGE('',*,*,#439,.T.);
#176=ORIENTED_EDGE('',*,*,#440,.F.);
#177=ORIENTED_EDGE('',*,*,#425,.F.);
#178=ORIENTED_EDGE('',*,*,#392,.T.);
#179=ORIENTED_EDGE('',*,*,#438,.F.);
#180=ORIENTED_EDGE('',*,*,#441,.F.);
#181=ORIENTED_EDGE('',*,*,#442,.T.);
#182=ORIENTED_EDGE('',*,*,#388,.T.);
#183=ORIENTED_EDGE('',*,*,#416,.T.);
#184=ORIENTED_EDGE('',*,*,#443,.F.);
#185=ORIENTED_EDGE('',*,*,#347,.F.);
#186=ORIENTED_EDGE('',*,*,#403,.T.);
#187=ORIENTED_EDGE('',*,*,#444,.F.);
#188=ORIENTED_EDGE('',*,*,#445,.F.);
#189=ORIENTED_EDGE('',*,*,#384,.T.);
#190=ORIENTED_EDGE('',*,*,#396,.T.);
#191=ORIENTED_EDGE('',*,*,#446,.F.);
#192=ORIENTED_EDGE('',*,*,#447,.T.);
#193=ORIENTED_EDGE('',*,*,#448,.T.);
#194=ORIENTED_EDGE('',*,*,#449,.F.);
#195=ORIENTED_EDGE('',*,*,#448,.F.);
#196=ORIENTED_EDGE('',*,*,#450,.T.);
#197=ORIENTED_EDGE('',*,*,#427,.T.);
#198=ORIENTED_EDGE('',*,*,#451,.F.);
#199=ORIENTED_EDGE('',*,*,#452,.T.);
#200=ORIENTED_EDGE('',*,*,#453,.F.);
#201=ORIENTED_EDGE('',*,*,#354,.F.);
#202=ORIENTED_EDGE('',*,*,#454,.T.);
#203=ORIENTED_EDGE('',*,*,#442,.F.);
#204=ORIENTED_EDGE('',*,*,#455,.F.);
#205=ORIENTED_EDGE('',*,*,#456,.T.);
#206=ORIENTED_EDGE('',*,*,#457,.T.);
#207=ORIENTED_EDGE('',*,*,#458,.T.);
#208=ORIENTED_EDGE('',*,*,#459,.T.);
#209=ORIENTED_EDGE('',*,*,#460,.T.);
#210=ORIENTED_EDGE('',*,*,#456,.F.);
#211=ORIENTED_EDGE('',*,*,#461,.F.);
#212=ORIENTED_EDGE('',*,*,#436,.T.);
#213=ORIENTED_EDGE('',*,*,#462,.T.);
#214=ORIENTED_EDGE('',*,*,#370,.F.);
#215=ORIENTED_EDGE('',*,*,#463,.F.);
#216=ORIENTED_EDGE('',*,*,#377,.T.);
#217=ORIENTED_EDGE('',*,*,#464,.F.);
#218=ORIENTED_EDGE('',*,*,#397,.T.);
#219=ORIENTED_EDGE('',*,*,#386,.F.);
#220=ORIENTED_EDGE('',*,*,#465,.F.);
#221=ORIENTED_EDGE('',*,*,#466,.T.);
#222=ORIENTED_EDGE('',*,*,#467,.T.);
#223=ORIENTED_EDGE('',*,*,#468,.T.);
#224=ORIENTED_EDGE('',*,*,#469,.T.);
#225=ORIENTED_EDGE('',*,*,#429,.F.);
#226=ORIENTED_EDGE('',*,*,#470,.T.);
#227=ORIENTED_EDGE('',*,*,#446,.T.);
#228=ORIENTED_EDGE('',*,*,#471,.F.);
#229=ORIENTED_EDGE('',*,*,#452,.F.);
#230=ORIENTED_EDGE('',*,*,#472,.F.);
#231=ORIENTED_EDGE('',*,*,#473,.T.);
#232=ORIENTED_EDGE('',*,*,#474,.F.);
#233=ORIENTED_EDGE('',*,*,#475,.T.);
#234=ORIENTED_EDGE('',*,*,#413,.T.);
#235=ORIENTED_EDGE('',*,*,#437,.T.);
#236=ORIENTED_EDGE('',*,*,#461,.T.);
#237=ORIENTED_EDGE('',*,*,#455,.T.);
#238=ORIENTED_EDGE('',*,*,#441,.T.);
#239=ORIENTED_EDGE('',*,*,#447,.F.);
#240=ORIENTED_EDGE('',*,*,#470,.F.);
#241=ORIENTED_EDGE('',*,*,#428,.F.);
#242=ORIENTED_EDGE('',*,*,#450,.F.);
#243=ORIENTED_EDGE('',*,*,#363,.F.);
#244=ORIENTED_EDGE('',*,*,#476,.T.);
#245=ORIENTED_EDGE('',*,*,#474,.T.);
#246=ORIENTED_EDGE('',*,*,#477,.F.);
#247=ORIENTED_EDGE('',*,*,#472,.T.);
#248=ORIENTED_EDGE('',*,*,#457,.F.);
#249=ORIENTED_EDGE('',*,*,#466,.F.);
#250=ORIENTED_EDGE('',*,*,#478,.F.);
#251=ORIENTED_EDGE('',*,*,#444,.T.);
#252=ORIENTED_EDGE('',*,*,#454,.F.);
#253=ORIENTED_EDGE('',*,*,#353,.F.);
#254=ORIENTED_EDGE('',*,*,#479,.F.);
#255=ORIENTED_EDGE('',*,*,#362,.F.);
#256=ORIENTED_EDGE('',*,*,#414,.F.);
#257=ORIENTED_EDGE('',*,*,#475,.F.);
#258=ORIENTED_EDGE('',*,*,#476,.F.);
#259=ORIENTED_EDGE('',*,*,#385,.T.);
#260=ORIENTED_EDGE('',*,*,#445,.T.);
#261=ORIENTED_EDGE('',*,*,#478,.T.);
#262=ORIENTED_EDGE('',*,*,#465,.T.);
#263=ORIENTED_EDGE('',*,*,#376,.T.);
#264=ORIENTED_EDGE('',*,*,#480,.T.);
#265=ORIENTED_EDGE('',*,*,#398,.F.);
#266=ORIENTED_EDGE('',*,*,#464,.T.);
#267=ORIENTED_EDGE('',*,*,#435,.T.);
#268=ORIENTED_EDGE('',*,*,#481,.F.);
#269=ORIENTED_EDGE('',*,*,#367,.F.);
#270=ORIENTED_EDGE('',*,*,#462,.F.);
#271=ORIENTED_EDGE('',*,*,#463,.T.);
#272=ORIENTED_EDGE('',*,*,#369,.T.);
#273=ORIENTED_EDGE('',*,*,#482,.T.);
#274=ORIENTED_EDGE('',*,*,#483,.T.);
#275=ORIENTED_EDGE('',*,*,#378,.F.);
#276=ORIENTED_EDGE('',*,*,#375,.F.);
#277=ORIENTED_EDGE('',*,*,#366,.F.);
#278=ORIENTED_EDGE('',*,*,#483,.F.);
#279=ORIENTED_EDGE('',*,*,#484,.T.);
#280=ORIENTED_EDGE('',*,*,#399,.T.);
#281=ORIENTED_EDGE('',*,*,#485,.F.);
#282=ORIENTED_EDGE('',*,*,#482,.F.);
#283=ORIENTED_EDGE('',*,*,#368,.T.);
#284=ORIENTED_EDGE('',*,*,#481,.T.);
#285=ORIENTED_EDGE('',*,*,#408,.T.);
#286=ORIENTED_EDGE('',*,*,#400,.F.);
#287=ORIENTED_EDGE('',*,*,#484,.F.);
#288=ORIENTED_EDGE('',*,*,#374,.F.);
#289=ORIENTED_EDGE('',*,*,#365,.F.);
#290=ORIENTED_EDGE('',*,*,#380,.T.);
#291=ORIENTED_EDGE('',*,*,#364,.T.);
#292=ORIENTED_EDGE('',*,*,#373,.F.);
#293=ORIENTED_EDGE('',*,*,#371,.F.);
#294=ORIENTED_EDGE('',*,*,#381,.T.);
#295=ORIENTED_EDGE('',*,*,#372,.T.);
#296=ORIENTED_EDGE('',*,*,#355,.F.);
#297=ORIENTED_EDGE('',*,*,#453,.T.);
#298=ORIENTED_EDGE('',*,*,#471,.T.);
#299=ORIENTED_EDGE('',*,*,#449,.T.);
#300=ORIENTED_EDGE('',*,*,#473,.F.);
#301=ORIENTED_EDGE('',*,*,#479,.T.);
#302=ORIENTED_EDGE('',*,*,#352,.T.);
#303=ORIENTED_EDGE('',*,*,#477,.T.);
#304=ORIENTED_EDGE('',*,*,#404,.F.);
#305=ORIENTED_EDGE('',*,*,#345,.T.);
#306=ORIENTED_EDGE('',*,*,#356,.F.);
#307=ORIENTED_EDGE('',*,*,#417,.F.);
#308=ORIENTED_EDGE('',*,*,#348,.T.);
#309=ORIENTED_EDGE('',*,*,#443,.T.);
#310=ORIENTED_EDGE('',*,*,#415,.F.);
#311=ORIENTED_EDGE('',*,*,#360,.F.);
#312=ORIENTED_EDGE('',*,*,#426,.F.);
#313=ORIENTED_EDGE('',*,*,#440,.T.);
#314=ORIENTED_EDGE('',*,*,#486,.T.);
#315=ORIENTED_EDGE('',*,*,#451,.T.);
#316=ORIENTED_EDGE('',*,*,#387,.F.);
#317=ORIENTED_EDGE('',*,*,#487,.T.);
#318=ORIENTED_EDGE('',*,*,#350,.T.);
#319=ORIENTED_EDGE('',*,*,#351,.F.);
#320=ORIENTED_EDGE('',*,*,#486,.F.);
#321=ORIENTED_EDGE('',*,*,#439,.F.);
#322=ORIENTED_EDGE('',*,*,#487,.F.);
#323=ORIENTED_EDGE('',*,*,#394,.T.);
#324=ORIENTED_EDGE('',*,*,#424,.T.);
#325=ORIENTED_EDGE('',*,*,#420,.T.);
#326=ORIENTED_EDGE('',*,*,#485,.T.);
#327=ORIENTED_EDGE('',*,*,#480,.F.);
#328=ORIENTED_EDGE('',*,*,#379,.F.);
#329=ORIENTED_EDGE('',*,*,#433,.F.);
#330=ORIENTED_EDGE('',*,*,#423,.T.);
#331=ORIENTED_EDGE('',*,*,#432,.F.);
#332=ORIENTED_EDGE('',*,*,#422,.T.);
#333=ORIENTED_EDGE('',*,*,#431,.F.);
#334=ORIENTED_EDGE('',*,*,#421,.T.);
#335=ORIENTED_EDGE('',*,*,#469,.F.);
#336=ORIENTED_EDGE('',*,*,#460,.F.);
#337=ORIENTED_EDGE('',*,*,#468,.F.);
#338=ORIENTED_EDGE('',*,*,#459,.F.);
#339=ORIENTED_EDGE('',*,*,#467,.F.);
#340=ORIENTED_EDGE('',*,*,#458,.F.);
#341=ORIENTED_EDGE('',*,*,#405,.F.);
#342=ORIENTED_EDGE('',*,*,#410,.T.);
#343=ORIENTED_EDGE('',*,*,#382,.F.);
#344=ORIENTED_EDGE('',*,*,#409,.T.);
#345=EDGE_CURVE('',#488,#489,#587,.T.);
#346=EDGE_CURVE('',#488,#490,#588,.T.);
#347=EDGE_CURVE('',#490,#491,#589,.T.);
#348=EDGE_CURVE('',#492,#491,#590,.T.);
#349=EDGE_CURVE('',#493,#492,#591,.T.);
#350=EDGE_CURVE('',#489,#493,#592,.T.);
#351=EDGE_CURVE('',#494,#493,#593,.T.);
#352=EDGE_CURVE('',#495,#492,#594,.T.);
#353=EDGE_CURVE('',#495,#496,#595,.T.);
#354=EDGE_CURVE('',#496,#497,#596,.T.);
#355=EDGE_CURVE('',#497,#494,#597,.T.);
#356=EDGE_CURVE('',#498,#489,#598,.T.);
#357=EDGE_CURVE('',#489,#499,#599,.T.);
#358=EDGE_CURVE('',#500,#499,#600,.T.);
#359=EDGE_CURVE('',#498,#500,#601,.T.);
#360=EDGE_CURVE('',#492,#501,#602,.T.);
#361=EDGE_CURVE('',#502,#501,#603,.T.);
#362=EDGE_CURVE('',#502,#503,#604,.T.);
#363=EDGE_CURVE('',#503,#492,#605,.T.);
#364=EDGE_CURVE('',#504,#504,#33,.T.);
#365=EDGE_CURVE('',#505,#505,#34,.T.);
#366=EDGE_CURVE('',#506,#506,#35,.T.);
#367=EDGE_CURVE('',#507,#508,#606,.T.);
#368=EDGE_CURVE('',#509,#508,#607,.T.);
#369=EDGE_CURVE('',#510,#509,#608,.T.);
#370=EDGE_CURVE('',#510,#507,#609,.T.);
#371=EDGE_CURVE('',#511,#511,#36,.T.);
#372=EDGE_CURVE('',#512,#512,#37,.T.);
#373=EDGE_CURVE('',#513,#513,#38,.F.);
#374=EDGE_CURVE('',#514,#514,#39,.F.);
#375=EDGE_CURVE('',#515,#515,#40,.F.);
#376=EDGE_CURVE('',#516,#517,#610,.T.);
#377=EDGE_CURVE('',#518,#516,#611,.T.);
#378=EDGE_CURVE('',#518,#519,#612,.T.);
#379=EDGE_CURVE('',#519,#517,#613,.T.);
#380=EDGE_CURVE('',#520,#520,#41,.T.);
#381=EDGE_CURVE('',#521,#521,#42,.T.);
#382=EDGE_CURVE('',#522,#522,#43,.T.);
#383=EDGE_CURVE('',#523,#524,#614,.T.);
#384=EDGE_CURVE('',#525,#524,#615,.T.);
#385=EDGE_CURVE('',#526,#525,#616,.T.);
#386=EDGE_CURVE('',#526,#523,#617,.T.);
#387=EDGE_CURVE('',#527,#528,#618,.T.);
#388=EDGE_CURVE('',#529,#528,#619,.T.);
#389=EDGE_CURVE('',#529,#530,#620,.T.);
#390=EDGE_CURVE('',#530,#531,#621,.T.);
#391=EDGE_CURVE('',#532,#531,#622,.T.);
#392=EDGE_CURVE('',#533,#532,#623,.T.);
#393=EDGE_CURVE('',#534,#533,#624,.T.);
#394=EDGE_CURVE('',#527,#534,#625,.T.);
#395=EDGE_CURVE('',#535,#536,#626,.T.);
#396=EDGE_CURVE('',#524,#536,#627,.T.);
#397=EDGE_CURVE('',#537,#523,#628,.T.);
#398=EDGE_CURVE('',#537,#538,#629,.T.);
#399=EDGE_CURVE('',#539,#538,#630,.T.);
#400=EDGE_CURVE('',#539,#540,#631,.T.);
#401=EDGE_CURVE('',#540,#541,#632,.T.);
#402=EDGE_CURVE('',#541,#530,#633,.T.);
#403=EDGE_CURVE('',#490,#529,#634,.T.);
#404=EDGE_CURVE('',#488,#535,#635,.T.);
#405=EDGE_CURVE('',#542,#542,#44,.T.);
#406=EDGE_CURVE('',#543,#544,#636,.T.);
#407=EDGE_CURVE('',#541,#544,#637,.T.);
#408=EDGE_CURVE('',#543,#540,#638,.T.);
#409=EDGE_CURVE('',#545,#545,#45,.F.);
#410=EDGE_CURVE('',#546,#546,#46,.F.);
#411=EDGE_CURVE('',#500,#547,#639,.T.);
#412=EDGE_CURVE('',#548,#547,#640,.T.);
#413=EDGE_CURVE('',#549,#548,#641,.T.);
#414=EDGE_CURVE('',#549,#502,#642,.T.);
#415=EDGE_CURVE('',#501,#550,#643,.T.);
#416=EDGE_CURVE('',#536,#550,#644,.T.);
#417=EDGE_CURVE('',#535,#498,#645,.T.);
#418=EDGE_CURVE('',#551,#552,#646,.T.);
#419=EDGE_CURVE('',#499,#552,#647,.T.);
#420=EDGE_CURVE('',#551,#489,#648,.T.);
#421=EDGE_CURVE('',#553,#553,#47,.F.);
#422=EDGE_CURVE('',#554,#554,#48,.F.);
#423=EDGE_CURVE('',#555,#555,#49,.F.);
#424=EDGE_CURVE('',#534,#551,#649,.T.);
#425=EDGE_CURVE('',#533,#556,#650,.T.);
#426=EDGE_CURVE('',#556,#557,#651,.T.);
#427=EDGE_CURVE('',#558,#557,#652,.T.);
#428=EDGE_CURVE('',#558,#559,#653,.T.);
#429=EDGE_CURVE('',#559,#548,#654,.T.);
#430=EDGE_CURVE('',#547,#552,#655,.T.);
#431=EDGE_CURVE('',#560,#560,#50,.T.);
#432=EDGE_CURVE('',#561,#561,#51,.T.);
#433=EDGE_CURVE('',#562,#562,#52,.T.);
#434=EDGE_CURVE('',#544,#531,#656,.T.);
#435=EDGE_CURVE('',#563,#543,#657,.T.);
#436=EDGE_CURVE('',#564,#563,#658,.T.);
#437=EDGE_CURVE('',#565,#564,#659,.T.);
#438=EDGE_CURVE('',#565,#532,#660,.T.);
#439=EDGE_CURVE('',#528,#566,#661,.T.);
#440=EDGE_CURVE('',#556,#566,#662,.T.);
#441=EDGE_CURVE('',#567,#565,#663,.T.);
#442=EDGE_CURVE('',#567,#529,#664,.T.);
#443=EDGE_CURVE('',#491,#550,#665,.T.);
#444=EDGE_CURVE('',#568,#529,#666,.T.);
#445=EDGE_CURVE('',#525,#568,#667,.T.);
#446=EDGE_CURVE('',#569,#570,#668,.T.);
#447=EDGE_CURVE('',#569,#571,#669,.T.);
#448=EDGE_CURVE('',#571,#494,#670,.T.);
#449=EDGE_CURVE('',#570,#494,#671,.T.);
#450=EDGE_CURVE('',#571,#558,#672,.T.);
#451=EDGE_CURVE('',#494,#557,#673,.T.);
#452=EDGE_CURVE('',#572,#573,#674,.T.);
#453=EDGE_CURVE('',#497,#573,#675,.T.);
#454=EDGE_CURVE('',#496,#529,#676,.T.);
#455=EDGE_CURVE('',#574,#567,#677,.T.);
#456=EDGE_CURVE('',#574,#575,#678,.T.);
#457=EDGE_CURVE('',#575,#572,#679,.T.);
#458=EDGE_CURVE('',#576,#576,#53,.T.);
#459=EDGE_CURVE('',#577,#577,#54,.T.);
#460=EDGE_CURVE('',#578,#578,#55,.T.);
#461=EDGE_CURVE('',#564,#574,#680,.T.);
#462=EDGE_CURVE('',#563,#507,#681,.T.);
#463=EDGE_CURVE('',#518,#510,#682,.T.);
#464=EDGE_CURVE('',#537,#516,#683,.T.);
#465=EDGE_CURVE('',#579,#526,#684,.T.);
#466=EDGE_CURVE('',#579,#575,#685,.T.);
#467=EDGE_CURVE('',#580,#580,#56,.F.);
#468=EDGE_CURVE('',#581,#581,#57,.F.);
#469=EDGE_CURVE('',#582,#582,#58,.F.);
#470=EDGE_CURVE('',#559,#569,#686,.T.);
#471=EDGE_CURVE('',#573,#570,#687,.T.);
#472=EDGE_CURVE('',#583,#572,#688,.T.);
#473=EDGE_CURVE('',#583,#584,#689,.T.);
#474=EDGE_CURVE('',#585,#584,#690,.T.);
#475=EDGE_CURVE('',#585,#549,#691,.T.);
#476=EDGE_CURVE('',#503,#585,#692,.T.);
#477=EDGE_CURVE('',#492,#584,#693,.T.);
#478=EDGE_CURVE('',#568,#579,#694,.T.);
#479=EDGE_CURVE('',#583,#495,#695,.T.);
#480=EDGE_CURVE('',#517,#538,#696,.T.);
#481=EDGE_CURVE('',#508,#543,#697,.T.);
#482=EDGE_CURVE('',#509,#586,#698,.T.);
#483=EDGE_CURVE('',#586,#519,#699,.T.);
#484=EDGE_CURVE('',#586,#539,#700,.T.);
#485=EDGE_CURVE('',#519,#538,#701,.T.);
#486=EDGE_CURVE('',#566,#494,#702,.T.);
#487=EDGE_CURVE('',#527,#489,#703,.T.);
#488=VERTEX_POINT('',#1469);
#489=VERTEX_POINT('',#1470);
#490=VERTEX_POINT('',#1472);
#491=VERTEX_POINT('',#1474);
#492=VERTEX_POINT('',#1476);
#493=VERTEX_POINT('',#1478);
#494=VERTEX_POINT('',#1482);
#495=VERTEX_POINT('',#1484);
#496=VERTEX_POINT('',#1486);
#497=VERTEX_POINT('',#1488);
#498=VERTEX_POINT('',#1492);
#499=VERTEX_POINT('',#1494);
#500=VERTEX_POINT('',#1496);
#501=VERTEX_POINT('',#1500);
#502=VERTEX_POINT('',#1502);
#503=VERTEX_POINT('',#1504);
#504=VERTEX_POINT('',#1508);
#505=VERTEX_POINT('',#1510);
#506=VERTEX_POINT('',#1512);
#507=VERTEX_POINT('',#1514);
#508=VERTEX_POINT('',#1515);
#509=VERTEX_POINT('',#1517);
#510=VERTEX_POINT('',#1519);
#511=VERTEX_POINT('',#1522);
#512=VERTEX_POINT('',#1524);
#513=VERTEX_POINT('',#1527);
#514=VERTEX_POINT('',#1529);
#515=VERTEX_POINT('',#1531);
#516=VERTEX_POINT('',#1533);
#517=VERTEX_POINT('',#1534);
#518=VERTEX_POINT('',#1536);
#519=VERTEX_POINT('',#1538);
#520=VERTEX_POINT('',#1541);
#521=VERTEX_POINT('',#1543);
#522=VERTEX_POINT('',#1546);
#523=VERTEX_POINT('',#1548);
#524=VERTEX_POINT('',#1549);
#525=VERTEX_POINT('',#1551);
#526=VERTEX_POINT('',#1553);
#527=VERTEX_POINT('',#1557);
#528=VERTEX_POINT('',#1558);
#529=VERTEX_POINT('',#1560);
#530=VERTEX_POINT('',#1562);
#531=VERTEX_POINT('',#1564);
#532=VERTEX_POINT('',#1566);
#533=VERTEX_POINT('',#1568);
#534=VERTEX_POINT('',#1570);
#535=VERTEX_POINT('',#1574);
#536=VERTEX_POINT('',#1575);
#537=VERTEX_POINT('',#1578);
#538=VERTEX_POINT('',#1580);
#539=VERTEX_POINT('',#1582);
#540=VERTEX_POINT('',#1584);
#541=VERTEX_POINT('',#1586);
#542=VERTEX_POINT('',#1592);
#543=VERTEX_POINT('',#1594);
#544=VERTEX_POINT('',#1595);
#545=VERTEX_POINT('',#1600);
#546=VERTEX_POINT('',#1602);
#547=VERTEX_POINT('',#1604);
#548=VERTEX_POINT('',#1606);
#549=VERTEX_POINT('',#1608);
#550=VERTEX_POINT('',#1611);
#551=VERTEX_POINT('',#1616);
#552=VERTEX_POINT('',#1617);
#553=VERTEX_POINT('',#1622);
#554=VERTEX_POINT('',#1624);
#555=VERTEX_POINT('',#1626);
#556=VERTEX_POINT('',#1629);
#557=VERTEX_POINT('',#1631);
#558=VERTEX_POINT('',#1633);
#559=VERTEX_POINT('',#1635);
#560=VERTEX_POINT('',#1640);
#561=VERTEX_POINT('',#1642);
#562=VERTEX_POINT('',#1644);
#563=VERTEX_POINT('',#1647);
#564=VERTEX_POINT('',#1649);
#565=VERTEX_POINT('',#1651);
#566=VERTEX_POINT('',#1656);
#567=VERTEX_POINT('',#1659);
#568=VERTEX_POINT('',#1664);
#569=VERTEX_POINT('',#1668);
#570=VERTEX_POINT('',#1669);
#571=VERTEX_POINT('',#1671);
#572=VERTEX_POINT('',#1679);
#573=VERTEX_POINT('',#1680);
#574=VERTEX_POINT('',#1684);
#575=VERTEX_POINT('',#1686);
#576=VERTEX_POINT('',#1690);
#577=VERTEX_POINT('',#1692);
#578=VERTEX_POINT('',#1694);
#579=VERTEX_POINT('',#1700);
#580=VERTEX_POINT('',#1704);
#581=VERTEX_POINT('',#1706);
#582=VERTEX_POINT('',#1708);
#583=VERTEX_POINT('',#1712);
#584=VERTEX_POINT('',#1714);
#585=VERTEX_POINT('',#1716);
#586=VERTEX_POINT('',#1732);
#587=LINE('',#1468,#704);
#588=LINE('',#1471,#705);
#589=LINE('',#1473,#706);
#590=LINE('',#1475,#707);
#591=LINE('',#1477,#708);
#592=LINE('',#1479,#709);
#593=LINE('',#1481,#710);
#594=LINE('',#1483,#711);
#595=LINE('',#1485,#712);
#596=LINE('',#1487,#713);
#597=LINE('',#1489,#714);
#598=LINE('',#1491,#715);
#599=LINE('',#1493,#716);
#600=LINE('',#1495,#717);
#601=LINE('',#1497,#718);
#602=LINE('',#1499,#719);
#603=LINE('',#1501,#720);
#604=LINE('',#1503,#721);
#605=LINE('',#1505,#722);
#606=LINE('',#1513,#723);
#607=LINE('',#1516,#724);
#608=LINE('',#1518,#725);
#609=LINE('',#1520,#726);
#610=LINE('',#1532,#727);
#611=LINE('',#1535,#728);
#612=LINE('',#1537,#729);
#613=LINE('',#1539,#730);
#614=LINE('',#1547,#731);
#615=LINE('',#1550,#732);
#616=LINE('',#1552,#733);
#617=LINE('',#1554,#734);
#618=LINE('',#1556,#735);
#619=LINE('',#1559,#736);
#620=LINE('',#1561,#737);
#621=LINE('',#1563,#738);
#622=LINE('',#1565,#739);
#623=LINE('',#1567,#740);
#624=LINE('',#1569,#741);
#625=LINE('',#1571,#742);
#626=LINE('',#1573,#743);
#627=LINE('',#1576,#744);
#628=LINE('',#1577,#745);
#629=LINE('',#1579,#746);
#630=LINE('',#1581,#747);
#631=LINE('',#1583,#748);
#632=LINE('',#1585,#749);
#633=LINE('',#1587,#750);
#634=LINE('',#1588,#751);
#635=LINE('',#1589,#752);
#636=LINE('',#1593,#753);
#637=LINE('',#1596,#754);
#638=LINE('',#1597,#755);
#639=LINE('',#1603,#756);
#640=LINE('',#1605,#757);
#641=LINE('',#1607,#758);
#642=LINE('',#1609,#759);
#643=LINE('',#1610,#760);
#644=LINE('',#1612,#761);
#645=LINE('',#1613,#762);
#646=LINE('',#1615,#763);
#647=LINE('',#1618,#764);
#648=LINE('',#1619,#765);
#649=LINE('',#1627,#766);
#650=LINE('',#1628,#767);
#651=LINE('',#1630,#768);
#652=LINE('',#1632,#769);
#653=LINE('',#1634,#770);
#654=LINE('',#1636,#771);
#655=LINE('',#1637,#772);
#656=LINE('',#1645,#773);
#657=LINE('',#1646,#774);
#658=LINE('',#1648,#775);
#659=LINE('',#1650,#776);
#660=LINE('',#1652,#777);
#661=LINE('',#1655,#778);
#662=LINE('',#1657,#779);
#663=LINE('',#1658,#780);
#664=LINE('',#1660,#781);
#665=LINE('',#1662,#782);
#666=LINE('',#1663,#783);
#667=LINE('',#1665,#784);
#668=LINE('',#1667,#785);
#669=LINE('',#1670,#786);
#670=LINE('',#1672,#787);
#671=LINE('',#1673,#788);
#672=LINE('',#1675,#789);
#673=LINE('',#1676,#790);
#674=LINE('',#1678,#791);
#675=LINE('',#1681,#792);
#676=LINE('',#1682,#793);
#677=LINE('',#1683,#794);
#678=LINE('',#1685,#795);
#679=LINE('',#1687,#796);
#680=LINE('',#1695,#797);
#681=LINE('',#1696,#798);
#682=LINE('',#1697,#799);
#683=LINE('',#1698,#800);
#684=LINE('',#1699,#801);
#685=LINE('',#1701,#802);
#686=LINE('',#1709,#803);
#687=LINE('',#1710,#804);
#688=LINE('',#1711,#805);
#689=LINE('',#1713,#806);
#690=LINE('',#1715,#807);
#691=LINE('',#1717,#808);
#692=LINE('',#1720,#809);
#693=LINE('',#1721,#810);
#694=LINE('',#1723,#811);
#695=LINE('',#1724,#812);
#696=LINE('',#1727,#813);
#697=LINE('',#1729,#814);
#698=LINE('',#1731,#815);
#699=LINE('',#1733,#816);
#700=LINE('',#1736,#817);
#701=LINE('',#1737,#818);
#702=LINE('',#1748,#819);
#703=LINE('',#1750,#820);
#704=VECTOR('',#1195,1.);
#705=VECTOR('',#1196,1.);
#706=VECTOR('',#1197,1.);
#707=VECTOR('',#1198,1.);
#708=VECTOR('',#1199,1.);
#709=VECTOR('',#1200,1.);
#710=VECTOR('',#1203,1.);
#711=VECTOR('',#1204,1.);
#712=VECTOR('',#1205,1.);
#713=VECTOR('',#1206,1.);
#714=VECTOR('',#1207,1.);
#715=VECTOR('',#1210,1.);
#716=VECTOR('',#1211,1.);
#717=VECTOR('',#1212,1.);
#718=VECTOR('',#1213,1.);
#719=VECTOR('',#1216,1.);
#720=VECTOR('',#1217,1.);
#721=VECTOR('',#1218,1.);
#722=VECTOR('',#1219,1.);
#723=VECTOR('',#1228,1.);
#724=VECTOR('',#1229,1.);
#725=VECTOR('',#1230,1.);
#726=VECTOR('',#1231,1.);
#727=VECTOR('',#1244,1.);
#728=VECTOR('',#1245,1.);
#729=VECTOR('',#1246,1.);
#730=VECTOR('',#1247,1.);
#731=VECTOR('',#1256,1.);
#732=VECTOR('',#1257,1.);
#733=VECTOR('',#1258,1.);
#734=VECTOR('',#1259,1.);
#735=VECTOR('',#1262,1.);
#736=VECTOR('',#1263,1.);
#737=VECTOR('',#1264,1.);
#738=VECTOR('',#1265,1.);
#739=VECTOR('',#1266,1.);
#740=VECTOR('',#1267,1.);
#741=VECTOR('',#1268,1.);
#742=VECTOR('',#1269,1.);
#743=VECTOR('',#1272,1.);
#744=VECTOR('',#1273,1.);
#745=VECTOR('',#1274,1.);
#746=VECTOR('',#1275,1.);
#747=VECTOR('',#1276,1.);
#748=VECTOR('',#1277,1.);
#749=VECTOR('',#1278,1.);
#750=VECTOR('',#1279,1.);
#751=VECTOR('',#1280,1.);
#752=VECTOR('',#1281,1.);
#753=VECTOR('',#1286,1.);
#754=VECTOR('',#1287,1.);
#755=VECTOR('',#1288,1.);
#756=VECTOR('',#1295,1.);
#757=VECTOR('',#1296,1.);
#758=VECTOR('',#1297,1.);
#759=VECTOR('',#1298,1.);
#760=VECTOR('',#1299,1.);
#761=VECTOR('',#1300,1.);
#762=VECTOR('',#1301,1.);
#763=VECTOR('',#1304,1.);
#764=VECTOR('',#1305,1.);
#765=VECTOR('',#1306,1.);
#766=VECTOR('',#1315,1.);
#767=VECTOR('',#1316,1.);
#768=VECTOR('',#1317,1.);
#769=VECTOR('',#1318,1.);
#770=VECTOR('',#1319,1.);
#771=VECTOR('',#1320,1.);
#772=VECTOR('',#1321,1.);
#773=VECTOR('',#1330,1.);
#774=VECTOR('',#1331,1.);
#775=VECTOR('',#1332,1.);
#776=VECTOR('',#1333,1.);
#777=VECTOR('',#1334,1.);
#778=VECTOR('',#1339,1.);
#779=VECTOR('',#1340,1.);
#780=VECTOR('',#1341,1.);
#781=VECTOR('',#1342,1.);
#782=VECTOR('',#1345,1.);
#783=VECTOR('',#1346,1.);
#784=VECTOR('',#1347,1.);
#785=VECTOR('',#1350,1.);
#786=VECTOR('',#1351,1.);
#787=VECTOR('',#1352,1.);
#788=VECTOR('',#1353,1.);
#789=VECTOR('',#1356,1.);
#790=VECTOR('',#1357,1.);
#791=VECTOR('',#1360,1.);
#792=VECTOR('',#1361,1.);
#793=VECTOR('',#1362,1.);
#794=VECTOR('',#1363,1.);
#795=VECTOR('',#1364,1.);
#796=VECTOR('',#1365,1.);
#797=VECTOR('',#1374,1.);
#798=VECTOR('',#1375,1.);
#799=VECTOR('',#1376,1.);
#800=VECTOR('',#1377,1.);
#801=VECTOR('',#1378,1.);
#802=VECTOR('',#1379,1.);
#803=VECTOR('',#1388,1.);
#804=VECTOR('',#1389,1.);
#805=VECTOR('',#1390,1.);
#806=VECTOR('',#1391,1.);
#807=VECTOR('',#1392,1.);
#808=VECTOR('',#1393,1.);
#809=VECTOR('',#1398,1.);
#810=VECTOR('',#1399,1.);
#811=VECTOR('',#1402,1.);
#812=VECTOR('',#1403,1.);
#813=VECTOR('',#1408,1.);
#814=VECTOR('',#1411,1.);
#815=VECTOR('',#1414,1.);
#816=VECTOR('',#1415,1.);
#817=VECTOR('',#1420,1.);
#818=VECTOR('',#1421,1.);
#819=VECTOR('',#1442,1.);
#820=VECTOR('',#1445,1.);
#821=EDGE_LOOP('',(#59,#60,#61,#62,#63,#64));
#822=EDGE_LOOP('',(#65,#66,#67,#68,#69,#70));
#823=EDGE_LOOP('',(#71,#72,#73,#74));
#824=EDGE_LOOP('',(#75,#76,#77,#78));
#825=EDGE_LOOP('',(#79));
#826=EDGE_LOOP('',(#80));
#827=EDGE_LOOP('',(#81));
#828=EDGE_LOOP('',(#82,#83,#84,#85));
#829=EDGE_LOOP('',(#86));
#830=EDGE_LOOP('',(#87));
#831=EDGE_LOOP('',(#88));
#832=EDGE_LOOP('',(#89));
#833=EDGE_LOOP('',(#90));
#834=EDGE_LOOP('',(#91,#92,#93,#94));
#835=EDGE_LOOP('',(#95));
#836=EDGE_LOOP('',(#96));
#837=EDGE_LOOP('',(#97));
#838=EDGE_LOOP('',(#98,#99,#100,#101));
#839=EDGE_LOOP('',(#102,#103,#104,#105,#106,#107,#108,#109));
#840=EDGE_LOOP('',(#110,#111,#112,#113,#114,#115,#116,#117,#118,#119,#120,
#121,#122));
#841=EDGE_LOOP('',(#123));
#842=EDGE_LOOP('',(#124,#125,#126,#127));
#843=EDGE_LOOP('',(#128));
#844=EDGE_LOOP('',(#129));
#845=EDGE_LOOP('',(#130,#131,#132,#133,#134,#135,#136,#137,#138,#139));
#846=EDGE_LOOP('',(#140,#141,#142,#143));
#847=EDGE_LOOP('',(#144));
#848=EDGE_LOOP('',(#145));
#849=EDGE_LOOP('',(#146));
#850=EDGE_LOOP('',(#147,#148,#149,#150,#151,#152,#153,#154,#155,#156));
#851=EDGE_LOOP('',(#157));
#852=EDGE_LOOP('',(#158));
#853=EDGE_LOOP('',(#159));
#854=EDGE_LOOP('',(#160,#161,#162,#163,#164,#165,#166));
#855=EDGE_LOOP('',(#167,#168,#169,#170));
#856=EDGE_LOOP('',(#171,#172,#173,#174));
#857=EDGE_LOOP('',(#175,#176,#177,#178,#179,#180,#181,#182));
#858=EDGE_LOOP('',(#183,#184,#185,#186,#187,#188,#189,#190));
#859=EDGE_LOOP('',(#191,#192,#193,#194));
#860=EDGE_LOOP('',(#195,#196,#197,#198));
#861=EDGE_LOOP('',(#199,#200,#201,#202,#203,#204,#205,#206));
#862=EDGE_LOOP('',(#207));
#863=EDGE_LOOP('',(#208));
#864=EDGE_LOOP('',(#209));
#865=EDGE_LOOP('',(#210,#211,#212,#213,#214,#215,#216,#217,#218,#219,#220,
#221));
#866=EDGE_LOOP('',(#222));
#867=EDGE_LOOP('',(#223));
#868=EDGE_LOOP('',(#224));
#869=EDGE_LOOP('',(#225,#226,#227,#228,#229,#230,#231,#232,#233,#234));
#870=EDGE_LOOP('',(#235,#236,#237,#238));
#871=EDGE_LOOP('',(#239,#240,#241,#242));
#872=EDGE_LOOP('',(#243,#244,#245,#246));
#873=EDGE_LOOP('',(#247,#248,#249,#250,#251,#252,#253,#254));
#874=EDGE_LOOP('',(#255,#256,#257,#258));
#875=EDGE_LOOP('',(#259,#260,#261,#262));
#876=EDGE_LOOP('',(#263,#264,#265,#266));
#877=EDGE_LOOP('',(#267,#268,#269,#270));
#878=EDGE_LOOP('',(#271,#272,#273,#274,#275));
#879=EDGE_LOOP('',(#276));
#880=EDGE_LOOP('',(#277));
#881=EDGE_LOOP('',(#278,#279,#280,#281));
#882=EDGE_LOOP('',(#282,#283,#284,#285,#286,#287));
#883=EDGE_LOOP('',(#288));
#884=EDGE_LOOP('',(#289));
#885=EDGE_LOOP('',(#290));
#886=EDGE_LOOP('',(#291));
#887=EDGE_LOOP('',(#292));
#888=EDGE_LOOP('',(#293));
#889=EDGE_LOOP('',(#294));
#890=EDGE_LOOP('',(#295));
#891=EDGE_LOOP('',(#296,#297,#298,#299));
#892=EDGE_LOOP('',(#300,#301,#302,#303));
#893=EDGE_LOOP('',(#304,#305,#306,#307));
#894=EDGE_LOOP('',(#308,#309,#310,#311));
#895=EDGE_LOOP('',(#312,#313,#314,#315));
#896=EDGE_LOOP('',(#316,#317,#318,#319,#320,#321));
#897=EDGE_LOOP('',(#322,#323,#324,#325));
#898=EDGE_LOOP('',(#326,#327,#328));
#899=EDGE_LOOP('',(#329));
#900=EDGE_LOOP('',(#330));
#901=EDGE_LOOP('',(#331));
#902=EDGE_LOOP('',(#332));
#903=EDGE_LOOP('',(#333));
#904=EDGE_LOOP('',(#334));
#905=EDGE_LOOP('',(#335));
#906=EDGE_LOOP('',(#336));
#907=EDGE_LOOP('',(#337));
#908=EDGE_LOOP('',(#338));
#909=EDGE_LOOP('',(#339));
#910=EDGE_LOOP('',(#340));
#911=EDGE_LOOP('',(#341));
#912=EDGE_LOOP('',(#342));
#913=EDGE_LOOP('',(#343));
#914=EDGE_LOOP('',(#344));
#915=FACE_BOUND('',#821,.T.);
#916=FACE_BOUND('',#822,.T.);
#917=FACE_BOUND('',#823,.T.);
#918=FACE_BOUND('',#824,.T.);
#919=FACE_BOUND('',#825,.T.);
#920=FACE_BOUND('',#826,.T.);
#921=FACE_BOUND('',#827,.T.);
#922=FACE_BOUND('',#828,.T.);
#923=FACE_BOUND('',#829,.T.);
#924=FACE_BOUND('',#830,.T.);
#925=FACE_BOUND('',#831,.T.);
#926=FACE_BOUND('',#832,.T.);
#927=FACE_BOUND('',#833,.T.);
#928=FACE_BOUND('',#834,.T.);
#929=FACE_BOUND('',#835,.T.);
#930=FACE_BOUND('',#836,.T.);
#931=FACE_BOUND('',#837,.T.);
#932=FACE_BOUND('',#838,.T.);
#933=FACE_BOUND('',#839,.T.);
#934=FACE_BOUND('',#840,.T.);
#935=FACE_BOUND('',#841,.T.);
#936=FACE_BOUND('',#842,.T.);
#937=FACE_BOUND('',#843,.T.);
#938=FACE_BOUND('',#844,.T.);
#939=FACE_BOUND('',#845,.T.);
#940=FACE_BOUND('',#846,.T.);
#941=FACE_BOUND('',#847,.T.);
#942=FACE_BOUND('',#848,.T.);
#943=FACE_BOUND('',#849,.T.);
#944=FACE_BOUND('',#850,.T.);
#945=FACE_BOUND('',#851,.T.);
#946=FACE_BOUND('',#852,.T.);
#947=FACE_BOUND('',#853,.T.);
#948=FACE_BOUND('',#854,.T.);
#949=FACE_BOUND('',#855,.T.);
#950=FACE_BOUND('',#856,.T.);
#951=FACE_BOUND('',#857,.T.);
#952=FACE_BOUND('',#858,.T.);
#953=FACE_BOUND('',#859,.T.);
#954=FACE_BOUND('',#860,.T.);
#955=FACE_BOUND('',#861,.T.);
#956=FACE_BOUND('',#862,.T.);
#957=FACE_BOUND('',#863,.T.);
#958=FACE_BOUND('',#864,.T.);
#959=FACE_BOUND('',#865,.T.);
#960=FACE_BOUND('',#866,.T.);
#961=FACE_BOUND('',#867,.T.);
#962=FACE_BOUND('',#868,.T.);
#963=FACE_BOUND('',#869,.T.);
#964=FACE_BOUND('',#870,.T.);
#965=FACE_BOUND('',#871,.T.);
#966=FACE_BOUND('',#872,.T.);
#967=FACE_BOUND('',#873,.T.);
#968=FACE_BOUND('',#874,.T.);
#969=FACE_BOUND('',#875,.T.);
#970=FACE_BOUND('',#876,.T.);
#971=FACE_BOUND('',#877,.T.);
#972=FACE_BOUND('',#878,.T.);
#973=FACE_BOUND('',#879,.T.);
#974=FACE_BOUND('',#880,.T.);
#975=FACE_BOUND('',#881,.T.);
#976=FACE_BOUND('',#882,.T.);
#977=FACE_BOUND('',#883,.T.);
#978=FACE_BOUND('',#884,.T.);
#979=FACE_BOUND('',#885,.T.);
#980=FACE_BOUND('',#886,.T.);
#981=FACE_BOUND('',#887,.T.);
#982=FACE_BOUND('',#888,.T.);
#983=FACE_BOUND('',#889,.T.);
#984=FACE_BOUND('',#890,.T.);
#985=FACE_BOUND('',#891,.T.);
#986=FACE_BOUND('',#892,.T.);
#987=FACE_BOUND('',#893,.T.);
#988=FACE_BOUND('',#894,.T.);
#989=FACE_BOUND('',#895,.T.);
#990=FACE_BOUND('',#896,.T.);
#991=FACE_BOUND('',#897,.T.);
#992=FACE_BOUND('',#898,.T.);
#993=FACE_BOUND('',#899,.T.);
#994=FACE_BOUND('',#900,.T.);
#995=FACE_BOUND('',#901,.T.);
#996=FACE_BOUND('',#902,.T.);
#997=FACE_BOUND('',#903,.T.);
#998=FACE_BOUND('',#904,.T.);
#999=FACE_BOUND('',#905,.T.);
#1000=FACE_BOUND('',#906,.T.);
#1001=FACE_BOUND('',#907,.T.);
#1002=FACE_BOUND('',#908,.T.);
#1003=FACE_BOUND('',#909,.T.);
#1004=FACE_BOUND('',#910,.T.);
#1005=FACE_BOUND('',#911,.T.);
#1006=FACE_BOUND('',#912,.T.);
#1007=FACE_BOUND('',#913,.T.);
#1008=FACE_BOUND('',#914,.T.);
#1009=PLANE('',#1113);
#1010=PLANE('',#1114);
#1011=PLANE('',#1115);
#1012=PLANE('',#1116);
#1013=PLANE('',#1117);
#1014=PLANE('',#1123);
#1015=PLANE('',#1129);
#1016=PLANE('',#1131);
#1017=PLANE('',#1132);
#1018=PLANE('',#1133);
#1019=PLANE('',#1135);
#1020=PLANE('',#1138);
#1021=PLANE('',#1139);
#1022=PLANE('',#1143);
#1023=PLANE('',#1147);
#1024=PLANE('',#1148);
#1025=PLANE('',#1149);
#1026=PLANE('',#1150);
#1027=PLANE('',#1151);
#1028=PLANE('',#1152);
#1029=PLANE('',#1153);
#1030=PLANE('',#1157);
#1031=PLANE('',#1161);
#1032=PLANE('',#1162);
#1033=PLANE('',#1163);
#1034=PLANE('',#1164);
#1035=PLANE('',#1165);
#1036=PLANE('',#1166);
#1037=PLANE('',#1167);
#1038=PLANE('',#1169);
#1039=PLANE('',#1170);
#1040=PLANE('',#1175);
#1041=PLANE('',#1176);
#1042=PLANE('',#1177);
#1043=PLANE('',#1178);
#1044=PLANE('',#1179);
#1045=PLANE('',#1180);
#1046=PLANE('',#1181);
#1047=PLANE('',#1182);
#1048=ADVANCED_FACE('',(#915),#1009,.F.);
#1049=ADVANCED_FACE('',(#916),#1010,.F.);
#1050=ADVANCED_FACE('',(#917),#1011,.F.);
#1051=ADVANCED_FACE('',(#918),#1012,.F.);
#1052=ADVANCED_FACE('',(#919,#920,#921,#922,#923,#924),#1013,.T.);
#1053=ADVANCED_FACE('',(#925,#926,#927,#928,#929,#930),#1014,.F.);
#1054=ADVANCED_FACE('',(#931,#932),#1015,.F.);
#1055=ADVANCED_FACE('',(#933),#1016,.T.);
#1056=ADVANCED_FACE('',(#934),#1017,.T.);
#1057=ADVANCED_FACE('',(#935,#936),#1018,.F.);
#1058=ADVANCED_FACE('',(#937,#938,#939),#1019,.T.);
#1059=ADVANCED_FACE('',(#940),#1020,.F.);
#1060=ADVANCED_FACE('',(#941,#942,#943,#944),#1021,.T.);
#1061=ADVANCED_FACE('',(#945,#946,#947,#948),#1022,.F.);
#1062=ADVANCED_FACE('',(#949,#950),#1023,.F.);
#1063=ADVANCED_FACE('',(#951),#1024,.T.);
#1064=ADVANCED_FACE('',(#952),#1025,.T.);
#1065=ADVANCED_FACE('',(#953),#1026,.F.);
#1066=ADVANCED_FACE('',(#954),#1027,.F.);
#1067=ADVANCED_FACE('',(#955),#1028,.T.);
#1068=ADVANCED_FACE('',(#956,#957,#958,#959),#1029,.T.);
#1069=ADVANCED_FACE('',(#960,#961,#962,#963),#1030,.F.);
#1070=ADVANCED_FACE('',(#964,#965),#1031,.T.);
#1071=ADVANCED_FACE('',(#966),#1032,.F.);
#1072=ADVANCED_FACE('',(#967),#1033,.T.);
#1073=ADVANCED_FACE('',(#968,#969),#1034,.F.);
#1074=ADVANCED_FACE('',(#970),#1035,.T.);
#1075=ADVANCED_FACE('',(#971),#1036,.F.);
#1076=ADVANCED_FACE('',(#972),#1037,.T.);
#1077=ADVANCED_FACE('',(#973,#974),#20,.F.);
#1078=ADVANCED_FACE('',(#975),#1038,.F.);
#1079=ADVANCED_FACE('',(#976),#1039,.T.);
#1080=ADVANCED_FACE('',(#977,#978),#21,.F.);
#1081=ADVANCED_FACE('',(#979,#980),#22,.F.);
#1082=ADVANCED_FACE('',(#981,#982),#23,.F.);
#1083=ADVANCED_FACE('',(#983,#984),#24,.F.);
#1084=ADVANCED_FACE('',(#985),#1040,.T.);
#1085=ADVANCED_FACE('',(#986),#1041,.T.);
#1086=ADVANCED_FACE('',(#987),#1042,.F.);
#1087=ADVANCED_FACE('',(#988),#1043,.T.);
#1088=ADVANCED_FACE('',(#989),#1044,.T.);
#1089=ADVANCED_FACE('',(#990),#1045,.F.);
#1090=ADVANCED_FACE('',(#991),#1046,.T.);
#1091=ADVANCED_FACE('',(#992),#1047,.F.);
#1092=ADVANCED_FACE('',(#993,#994),#25,.F.);
#1093=ADVANCED_FACE('',(#995,#996),#26,.F.);
#1094=ADVANCED_FACE('',(#997,#998),#27,.F.);
#1095=ADVANCED_FACE('',(#999,#1000),#28,.F.);
#1096=ADVANCED_FACE('',(#1001,#1002),#29,.F.);
#1097=ADVANCED_FACE('',(#1003,#1004),#30,.F.);
#1098=ADVANCED_FACE('',(#1005,#1006),#31,.F.);
#1099=ADVANCED_FACE('',(#1007,#1008),#32,.F.);
#1100=CLOSED_SHELL('',(#1048,#1049,#1050,#1051,#1052,#1053,#1054,#1055,
#1056,#1057,#1058,#1059,#1060,#1061,#1062,#1063,#1064,#1065,#1066,#1067,
#1068,#1069,#1070,#1071,#1072,#1073,#1074,#1075,#1076,#1077,#1078,#1079,
#1080,#1081,#1082,#1083,#1084,#1085,#1086,#1087,#1088,#1089,#1090,#1091,
#1092,#1093,#1094,#1095,#1096,#1097,#1098,#1099));
#1101=STYLED_ITEM('',(#1102),#1109);
#1102=PRESENTATION_STYLE_ASSIGNMENT((#1103));
#1103=SURFACE_STYLE_USAGE(.BOTH.,#1104);
#1104=SURFACE_SIDE_STYLE('',(#1105));
#1105=SURFACE_STYLE_FILL_AREA(#1106);
#1106=FILL_AREA_STYLE('',(#1107));
#1107=FILL_AREA_STYLE_COLOUR('',#1108);
#1108=COLOUR_RGB('',0.901960784313726,0.87843137254902,0.811764705882353);
#1109=MANIFOLD_SOLID_BREP('Right Corner Bracket',#1100);
#1110=SHAPE_DEFINITION_REPRESENTATION(#1767,#1111);
#1111=SHAPE_REPRESENTATION('Right Corner Bracket',(#1112),#1762);
#1112=AXIS2_PLACEMENT_3D('',#1466,#1191,#1192);
#1113=AXIS2_PLACEMENT_3D('',#1467,#1193,#1194);
#1114=AXIS2_PLACEMENT_3D('',#1480,#1201,#1202);
#1115=AXIS2_PLACEMENT_3D('',#1490,#1208,#1209);
#1116=AXIS2_PLACEMENT_3D('',#1498,#1214,#1215);
#1117=AXIS2_PLACEMENT_3D('',#1506,#1220,#1221);
#1118=AXIS2_PLACEMENT_3D('',#1507,#1222,#1223);
#1119=AXIS2_PLACEMENT_3D('',#1509,#1224,#1225);
#1120=AXIS2_PLACEMENT_3D('',#1511,#1226,#1227);
#1121=AXIS2_PLACEMENT_3D('',#1521,#1232,#1233);
#1122=AXIS2_PLACEMENT_3D('',#1523,#1234,#1235);
#1123=AXIS2_PLACEMENT_3D('',#1525,#1236,#1237);
#1124=AXIS2_PLACEMENT_3D('',#1526,#1238,#1239);
#1125=AXIS2_PLACEMENT_3D('',#1528,#1240,#1241);
#1126=AXIS2_PLACEMENT_3D('',#1530,#1242,#1243);
#1127=AXIS2_PLACEMENT_3D('',#1540,#1248,#1249);
#1128=AXIS2_PLACEMENT_3D('',#1542,#1250,#1251);
#1129=AXIS2_PLACEMENT_3D('',#1544,#1252,#1253);
#1130=AXIS2_PLACEMENT_3D('',#1545,#1254,#1255);
#1131=AXIS2_PLACEMENT_3D('',#1555,#1260,#1261);
#1132=AXIS2_PLACEMENT_3D('',#1572,#1270,#1271);
#1133=AXIS2_PLACEMENT_3D('',#1590,#1282,#1283);
#1134=AXIS2_PLACEMENT_3D('',#1591,#1284,#1285);
#1135=AXIS2_PLACEMENT_3D('',#1598,#1289,#1290);
#1136=AXIS2_PLACEMENT_3D('',#1599,#1291,#1292);
#1137=AXIS2_PLACEMENT_3D('',#1601,#1293,#1294);
#1138=AXIS2_PLACEMENT_3D('',#1614,#1302,#1303);
#1139=AXIS2_PLACEMENT_3D('',#1620,#1307,#1308);
#1140=AXIS2_PLACEMENT_3D('',#1621,#1309,#1310);
#1141=AXIS2_PLACEMENT_3D('',#1623,#1311,#1312);
#1142=AXIS2_PLACEMENT_3D('',#1625,#1313,#1314);
#1143=AXIS2_PLACEMENT_3D('',#1638,#1322,#1323);
#1144=AXIS2_PLACEMENT_3D('',#1639,#1324,#1325);
#1145=AXIS2_PLACEMENT_3D('',#1641,#1326,#1327);
#1146=AXIS2_PLACEMENT_3D('',#1643,#1328,#1329);
#1147=AXIS2_PLACEMENT_3D('',#1653,#1335,#1336);
#1148=AXIS2_PLACEMENT_3D('',#1654,#1337,#1338);
#1149=AXIS2_PLACEMENT_3D('',#1661,#1343,#1344);
#1150=AXIS2_PLACEMENT_3D('',#1666,#1348,#1349);
#1151=AXIS2_PLACEMENT_3D('',#1674,#1354,#1355);
#1152=AXIS2_PLACEMENT_3D('',#1677,#1358,#1359);
#1153=AXIS2_PLACEMENT_3D('',#1688,#1366,#1367);
#1154=AXIS2_PLACEMENT_3D('',#1689,#1368,#1369);
#1155=AXIS2_PLACEMENT_3D('',#1691,#1370,#1371);
#1156=AXIS2_PLACEMENT_3D('',#1693,#1372,#1373);
#1157=AXIS2_PLACEMENT_3D('',#1702,#1380,#1381);
#1158=AXIS2_PLACEMENT_3D('',#1703,#1382,#1383);
#1159=AXIS2_PLACEMENT_3D('',#1705,#1384,#1385);
#1160=AXIS2_PLACEMENT_3D('',#1707,#1386,#1387);
#1161=AXIS2_PLACEMENT_3D('',#1718,#1394,#1395);
#1162=AXIS2_PLACEMENT_3D('',#1719,#1396,#1397);
#1163=AXIS2_PLACEMENT_3D('',#1722,#1400,#1401);
#1164=AXIS2_PLACEMENT_3D('',#1725,#1404,#1405);
#1165=AXIS2_PLACEMENT_3D('',#1726,#1406,#1407);
#1166=AXIS2_PLACEMENT_3D('',#1728,#1409,#1410);
#1167=AXIS2_PLACEMENT_3D('',#1730,#1412,#1413);
#1168=AXIS2_PLACEMENT_3D('',#1734,#1416,#1417);
#1169=AXIS2_PLACEMENT_3D('',#1735,#1418,#1419);
#1170=AXIS2_PLACEMENT_3D('',#1738,#1422,#1423);
#1171=AXIS2_PLACEMENT_3D('',#1739,#1424,#1425);
#1172=AXIS2_PLACEMENT_3D('',#1740,#1426,#1427);
#1173=AXIS2_PLACEMENT_3D('',#1741,#1428,#1429);
#1174=AXIS2_PLACEMENT_3D('',#1742,#1430,#1431);
#1175=AXIS2_PLACEMENT_3D('',#1743,#1432,#1433);
#1176=AXIS2_PLACEMENT_3D('',#1744,#1434,#1435);
#1177=AXIS2_PLACEMENT_3D('',#1745,#1436,#1437);
#1178=AXIS2_PLACEMENT_3D('',#1746,#1438,#1439);
#1179=AXIS2_PLACEMENT_3D('',#1747,#1440,#1441);
#1180=AXIS2_PLACEMENT_3D('',#1749,#1443,#1444);
#1181=AXIS2_PLACEMENT_3D('',#1751,#1446,#1447);
#1182=AXIS2_PLACEMENT_3D('',#1752,#1448,#1449);
#1183=AXIS2_PLACEMENT_3D('',#1753,#1450,#1451);
#1184=AXIS2_PLACEMENT_3D('',#1754,#1452,#1453);
#1185=AXIS2_PLACEMENT_3D('',#1755,#1454,#1455);
#1186=AXIS2_PLACEMENT_3D('',#1756,#1456,#1457);
#1187=AXIS2_PLACEMENT_3D('',#1757,#1458,#1459);
#1188=AXIS2_PLACEMENT_3D('',#1758,#1460,#1461);
#1189=AXIS2_PLACEMENT_3D('',#1759,#1462,#1463);
#1190=AXIS2_PLACEMENT_3D('',#1760,#1464,#1465);
#1191=DIRECTION('',(0.,0.,1.));
#1192=DIRECTION('',(1.,0.,0.));
#1193=DIRECTION('',(1.,0.,-1.72323524103656E-16));
#1194=DIRECTION('',(-1.72323524103656E-16,0.,-1.));
#1195=DIRECTION('',(0.,0.,-1.));
#1196=DIRECTION('',(0.,1.,0.));
#1197=DIRECTION('',(0.,0.,1.));
#1198=DIRECTION('',(0.,-1.,0.));
#1199=DIRECTION('',(2.29764698804875E-16,8.63046505461098E-17,1.));
#1200=DIRECTION('',(0.,1.,0.));
#1201=DIRECTION('',(0.,-1.,0.));
#1202=DIRECTION('',(0.,0.,1.));
#1203=DIRECTION('',(-1.,0.,-1.96013952087775E-16));
#1204=DIRECTION('',(-1.,0.,1.72609301092219E-16));
#1205=DIRECTION('',(-1.72609301092219E-16,-2.29764698804875E-16,-1.));
#1206=DIRECTION('',(1.,5.47382212626882E-48,-1.72609301092219E-16));
#1207=DIRECTION('',(-1.72609301092219E-16,-2.29764698804875E-16,-1.));
#1208=DIRECTION('',(0.,0.,1.));
#1209=DIRECTION('',(1.,0.,0.));
#1210=DIRECTION('',(1.,2.29764698804875E-16,0.));
#1211=DIRECTION('',(0.,-1.,0.));
#1212=DIRECTION('',(1.,0.,0.));
#1213=DIRECTION('',(0.,-1.,0.));
#1214=DIRECTION('',(0.,-1.,0.));
#1215=DIRECTION('',(0.,0.,1.));
#1216=DIRECTION('',(-1.,-1.98297620381869E-32,1.71140068311823E-48));
#1217=DIRECTION('',(-1.72609301092219E-16,-8.63046505461098E-17,-1.));
#1218=DIRECTION('',(1.,4.93277662641466E-33,-1.72609301092219E-16));
#1219=DIRECTION('',(-1.72609301092219E-16,-8.63046505461098E-17,-1.));
#1220=DIRECTION('',(-1.72609301092219E-16,0.,-1.));
#1221=DIRECTION('',(-1.,0.,1.72609301092219E-16));
#1222=DIRECTION('',(-1.72609301092219E-16,0.,-1.));
#1223=DIRECTION('',(-1.,0.,1.72609301092219E-16));
#1224=DIRECTION('',(1.72609301092219E-16,0.,1.));
#1225=DIRECTION('',(-1.,0.,1.72609301092219E-16));
#1226=DIRECTION('',(1.72609301092219E-16,0.,1.));
#1227=DIRECTION('',(-1.,0.,1.72609301092219E-16));
#1228=DIRECTION('',(0.,-1.,0.));
#1229=DIRECTION('',(1.,0.,-1.72609301092219E-16));
#1230=DIRECTION('',(0.,-1.,0.));
#1231=DIRECTION('',(1.,0.,-1.72609301092219E-16));
#1232=DIRECTION('',(1.72609301092219E-16,0.,1.));
#1233=DIRECTION('',(-1.,0.,1.72609301092219E-16));
#1234=DIRECTION('',(-1.72609301092219E-16,0.,-1.));
#1235=DIRECTION('',(-1.,0.,1.72609301092219E-16));
#1236=DIRECTION('',(-1.72609301092219E-16,0.,-1.));
#1237=DIRECTION('',(-1.,0.,1.72609301092219E-16));
#1238=DIRECTION('',(1.72609301092219E-16,0.,1.));
#1239=DIRECTION('',(-1.,0.,1.72609301092219E-16));
#1240=DIRECTION('',(1.72609301092219E-16,0.,1.));
#1241=DIRECTION('',(-1.,0.,1.72609301092219E-16));
#1242=DIRECTION('',(1.72609301092219E-16,0.,1.));
#1243=DIRECTION('',(-1.,0.,1.72609301092219E-16));
#1244=DIRECTION('',(0.,-1.,0.));
#1245=DIRECTION('',(1.,0.,-1.72609301092219E-16));
#1246=DIRECTION('',(0.,-1.,0.));
#1247=DIRECTION('',(1.,0.,-1.72609301092219E-16));
#1248=DIRECTION('',(1.72609301092219E-16,0.,1.));
#1249=DIRECTION('',(-1.,0.,1.72609301092219E-16));
#1250=DIRECTION('',(1.72609301092219E-16,0.,1.));
#1251=DIRECTION('',(-1.,0.,1.72609301092219E-16));
#1252=DIRECTION('',(1.,0.,-1.72609301092219E-16));
#1253=DIRECTION('',(-1.72609301092219E-16,0.,-1.));
#1254=DIRECTION('',(1.,0.,-1.72609301092219E-16));
#1255=DIRECTION('',(1.72609301092219E-16,0.,1.));
#1256=DIRECTION('',(-2.97939708235445E-32,-1.,-1.72609301092219E-16));
#1257=DIRECTION('',(-1.72609301092219E-16,-8.63046505461098E-17,-1.));
#1258=DIRECTION('',(3.45218602184439E-16,-1.,8.63046505461098E-17));
#1259=DIRECTION('',(-1.72609301092219E-16,-8.63046505461098E-17,-1.));
#1260=DIRECTION('',(1.,0.,-1.72609301092219E-16));
#1261=DIRECTION('',(-1.72609301092219E-16,0.,-1.));
#1262=DIRECTION('',(0.,1.,0.));
#1263=DIRECTION('',(-1.72609301092219E-16,0.,-1.));
#1264=DIRECTION('',(0.,-1.,0.));
#1265=DIRECTION('',(-1.72609301092219E-16,0.,-1.));
#1266=DIRECTION('',(0.,-1.,0.));
#1267=DIRECTION('',(-1.72609301092219E-16,0.,-1.));
#1268=DIRECTION('',(0.,1.,0.));
#1269=DIRECTION('',(-1.72609301092219E-16,0.,-1.));
#1270=DIRECTION('',(0.,0.,1.));
#1271=DIRECTION('',(1.,0.,0.));
#1272=DIRECTION('',(0.,1.,0.));
#1273=DIRECTION('',(1.,0.,0.));
#1274=DIRECTION('',(1.,0.,-1.72609301092219E-16));
#1275=DIRECTION('',(-2.97939708235445E-32,-1.,-1.72609301092219E-16));
#1276=DIRECTION('',(4.11586813438657E-32,1.,2.38449962333582E-16));
#1277=DIRECTION('',(1.,0.,-1.72609301092219E-16));
#1278=DIRECTION('',(0.,-1.,0.));
#1279=DIRECTION('',(1.,0.,0.));
#1280=DIRECTION('',(1.,0.,0.));
#1281=DIRECTION('',(-1.,-2.29764698804875E-16,0.));
#1282=DIRECTION('',(1.,0.,-1.72609301092219E-16));
#1283=DIRECTION('',(-1.72609301092219E-16,0.,-1.));
#1284=DIRECTION('',(1.,0.,-1.72609301092219E-16));
#1285=DIRECTION('',(1.72609301092219E-16,0.,1.));
#1286=DIRECTION('',(0.,-1.,0.));
#1287=DIRECTION('',(-1.72609301092219E-16,0.,-1.));
#1288=DIRECTION('',(1.72609301092219E-16,-2.38449962333582E-16,1.));
#1289=DIRECTION('',(1.,0.,-1.72323524103656E-16));
#1290=DIRECTION('',(-1.72323524103656E-16,0.,-1.));
#1291=DIRECTION('',(-1.,0.,1.72323524103656E-16));
#1292=DIRECTION('',(-1.72323524103656E-16,0.,-1.));
#1293=DIRECTION('',(-1.,0.,1.72323524103656E-16));
#1294=DIRECTION('',(-1.72323524103656E-16,0.,-1.));
#1295=DIRECTION('',(-1.72323524103656E-16,0.,-1.));
#1296=DIRECTION('',(0.,-1.,0.));
#1297=DIRECTION('',(-1.72609301092219E-16,-8.63046505461098E-17,-1.));
#1298=DIRECTION('',(3.44647048207313E-16,-1.,8.63046505461098E-17));
#1299=DIRECTION('',(0.,-1.,0.));
#1300=DIRECTION('',(0.,0.,1.));
#1301=DIRECTION('',(0.,0.,-1.));
#1302=DIRECTION('',(1.,0.,-1.72323524103656E-16));
#1303=DIRECTION('',(-1.72323524103656E-16,0.,-1.));
#1304=DIRECTION('',(0.,-1.,0.));
#1305=DIRECTION('',(-1.72323524103656E-16,0.,-1.));
#1306=DIRECTION('',(2.29764698804875E-16,8.63046505461098E-17,1.));
#1307=DIRECTION('',(0.,0.,1.));
#1308=DIRECTION('',(1.,0.,0.));
#1309=DIRECTION('',(0.,0.,-1.));
#1310=DIRECTION('',(1.,0.,0.));
#1311=DIRECTION('',(0.,0.,-1.));
#1312=DIRECTION('',(1.,0.,0.));
#1313=DIRECTION('',(0.,0.,-1.));
#1314=DIRECTION('',(1.,0.,0.));
#1315=DIRECTION('',(-1.,0.,1.72609301092219E-16));
#1316=DIRECTION('',(1.,0.,-1.72609301092219E-16));
#1317=DIRECTION('',(0.,1.,0.));
#1318=DIRECTION('',(-1.,0.,1.72609301092219E-16));
#1319=DIRECTION('',(-9.91488101909346E-33,1.,-5.74411747012188E-17));
#1320=DIRECTION('',(-1.,0.,1.72609301092219E-16));
#1321=DIRECTION('',(1.,0.,0.));
#1322=DIRECTION('',(0.,0.,1.));
#1323=DIRECTION('',(1.,0.,0.));
#1324=DIRECTION('',(0.,0.,1.));
#1325=DIRECTION('',(-1.,0.,0.));
#1326=DIRECTION('',(0.,0.,1.));
#1327=DIRECTION('',(-1.,0.,0.));
#1328=DIRECTION('',(0.,0.,1.));
#1329=DIRECTION('',(-1.,0.,0.));
#1330=DIRECTION('',(1.,0.,0.));
#1331=DIRECTION('',(0.,-1.,0.));
#1332=DIRECTION('',(-1.,0.,1.72609301092219E-16));
#1333=DIRECTION('',(-1.48969854117723E-32,1.,-8.63046505461098E-17));
#1334=DIRECTION('',(-1.,0.,1.72609301092219E-16));
#1335=DIRECTION('',(0.,1.,0.));
#1336=DIRECTION('',(1.,0.,0.));
#1337=DIRECTION('',(0.,-1.,0.));
#1338=DIRECTION('',(0.,0.,1.));
#1339=DIRECTION('',(1.,0.,1.96013952087775E-16));
#1340=DIRECTION('',(0.,0.,1.));
#1341=DIRECTION('',(-1.72609301092219E-16,0.,-1.));
#1342=DIRECTION('',(-1.,0.,1.72609301092219E-16));
#1343=DIRECTION('',(0.,-1.,0.));
#1344=DIRECTION('',(0.,0.,1.));
#1345=DIRECTION('',(-1.,0.,0.));
#1346=DIRECTION('',(-1.72609301092219E-16,-8.63046505461098E-17,-1.));
#1347=DIRECTION('',(1.,0.,-1.72609301092219E-16));
#1348=DIRECTION('',(1.72609301092219E-16,2.29764698804875E-16,1.));
#1349=DIRECTION('',(0.,1.,-2.29764698804875E-16));
#1350=DIRECTION('',(-1.,0.,1.72609301092219E-16));
#1351=DIRECTION('',(3.96595240763738E-32,-1.,2.29764698804875E-16));
#1352=DIRECTION('',(-1.,0.,1.72609301092219E-16));
#1353=DIRECTION('',(-8.51029559432341E-48,-1.,2.29764698804875E-16));
#1354=DIRECTION('',(0.,-1.,0.));
#1355=DIRECTION('',(0.,0.,1.));
#1356=DIRECTION('',(-1.72609301092219E-16,0.,-1.));
#1357=DIRECTION('',(0.,0.,-1.));
#1358=DIRECTION('',(1.72609301092219E-16,2.58913951638329E-16,1.));
#1359=DIRECTION('',(0.,1.,-2.58913951638329E-16));
#1360=DIRECTION('',(1.,5.47382212626882E-48,-1.72609301092219E-16));
#1361=DIRECTION('',(-5.03143215894294E-33,1.,-2.58913951638329E-16));
#1362=DIRECTION('',(4.46909562353168E-32,-1.,2.58913951638329E-16));
#1363=DIRECTION('',(4.46909562353168E-32,-1.,2.58913951638329E-16));
#1364=DIRECTION('',(-1.,0.,1.72609301092219E-16));
#1365=DIRECTION('',(4.46909562353168E-32,-1.,2.58913951638329E-16));
#1366=DIRECTION('',(0.,1.,0.));
#1367=DIRECTION('',(0.,0.,-1.));
#1368=DIRECTION('',(0.,-1.,0.));
#1369=DIRECTION('',(0.,0.,-1.));
#1370=DIRECTION('',(0.,-1.,0.));
#1371=DIRECTION('',(0.,0.,-1.));
#1372=DIRECTION('',(0.,-1.,0.));
#1373=DIRECTION('',(0.,0.,-1.));
#1374=DIRECTION('',(1.72609301092219E-16,0.,1.));
#1375=DIRECTION('',(-1.72609301092219E-16,-8.63046505461098E-17,-1.));
#1376=DIRECTION('',(-1.72609301092219E-16,-8.63046505461098E-17,-1.));
#1377=DIRECTION('',(-1.72609301092219E-16,-8.63046505461098E-17,-1.));
#1378=DIRECTION('',(-1.,2.12757389858085E-48,1.72609301092219E-16));
#1379=DIRECTION('',(-1.72609301092219E-16,-8.63046505461098E-17,-1.));
#1380=DIRECTION('',(0.,1.,0.));
#1381=DIRECTION('',(0.,0.,-1.));
#1382=DIRECTION('',(0.,-1.,0.));
#1383=DIRECTION('',(0.,0.,-1.));
#1384=DIRECTION('',(0.,-1.,0.));
#1385=DIRECTION('',(0.,0.,-1.));
#1386=DIRECTION('',(0.,-1.,0.));
#1387=DIRECTION('',(0.,0.,-1.));
#1388=DIRECTION('',(1.72609301092219E-16,0.,1.));
#1389=DIRECTION('',(-1.72609301092219E-16,-2.29764698804875E-16,-1.));
#1390=DIRECTION('',(-1.72609301092219E-16,-2.29764698804875E-16,-1.));
#1391=DIRECTION('',(-1.,0.,1.72609301092219E-16));
#1392=DIRECTION('',(-1.72609301092219E-16,-8.63046505461098E-17,-1.));
#1393=DIRECTION('',(-1.,-4.93277662641466E-33,1.72609301092219E-16));
#1394=DIRECTION('',(1.,0.,-1.72609301092219E-16));
#1395=DIRECTION('',(0.,-1.,0.));
#1396=DIRECTION('',(1.,2.29764698804875E-16,-1.72609301092219E-16));
#1397=DIRECTION('',(2.29764698804876E-16,-1.,0.));
#1398=DIRECTION('',(-2.29764698804875E-16,1.,-8.63046505461098E-17));
#1399=DIRECTION('',(-2.29764698804876E-16,1.,-2.29764698804875E-16));
#1400=DIRECTION('',(1.,-1.90063268273223E-48,-1.72609301092219E-16));
#1401=DIRECTION('',(-1.72609301092219E-16,0.,-1.));
#1402=DIRECTION('',(-1.48969854117723E-32,1.,-8.63046505461098E-17));
#1403=DIRECTION('',(3.96595240763738E-32,-1.,2.29764698804875E-16));
#1404=DIRECTION('',(-1.72609301092219E-16,-8.63046505461098E-17,-1.));
#1405=DIRECTION('',(1.,-1.48969854117723E-32,-1.72609301092219E-16));
#1406=DIRECTION('',(-1.,0.,1.72609301092219E-16));
#1407=DIRECTION('',(0.,1.,0.));
#1408=DIRECTION('',(1.72609301092219E-16,-2.38449962333582E-16,1.));
#1409=DIRECTION('',(-1.,0.,1.72609301092219E-16));
#1410=DIRECTION('',(0.,1.,0.));
#1411=DIRECTION('',(1.72609301092219E-16,-2.38449962333582E-16,1.));
#1412=DIRECTION('',(-1.,0.,1.72609301092219E-16));
#1413=DIRECTION('',(0.,1.,0.));
#1414=DIRECTION('',(1.72609301092219E-16,-2.38449962333582E-16,1.));
#1415=DIRECTION('',(4.11586813438657E-32,1.,2.38449962333582E-16));
#1416=DIRECTION('',(-1.72609301092219E-16,0.,-1.));
#1417=DIRECTION('',(-1.,0.,1.72609301092219E-16));
#1418=DIRECTION('',(0.781298460534024,1.48830357342838E-16,-0.624157604749925));
#1419=DIRECTION('',(-0.624157604749925,0.,-0.781298460534024));
#1420=DIRECTION('',(0.624157604749925,-1.86300588485623E-16,0.781298460534024));
#1421=DIRECTION('',(0.624157604749925,-1.86300588485623E-16,0.781298460534024));
#1422=DIRECTION('',(-4.11586813438657E-32,-1.,-2.38449962333582E-16));
#1423=DIRECTION('',(-1.,4.11586813438657E-32,9.81428601614465E-48));
#1424=DIRECTION('',(-1.72609301092219E-16,0.,-1.));
#1425=DIRECTION('',(-1.,0.,1.72609301092219E-16));
#1426=DIRECTION('',(-1.72609301092219E-16,0.,-1.));
#1427=DIRECTION('',(-1.,0.,1.72609301092219E-16));
#1428=DIRECTION('',(-1.72609301092219E-16,0.,-1.));
#1429=DIRECTION('',(-1.,0.,1.72609301092219E-16));
#1430=DIRECTION('',(-1.72609301092219E-16,0.,-1.));
#1431=DIRECTION('',(-1.,0.,1.72609301092219E-16));
#1432=DIRECTION('',(-1.,3.96595240763738E-32,1.72609301092219E-16));
#1433=DIRECTION('',(1.72609301092219E-16,0.,1.));
#1434=DIRECTION('',(-1.72609301092219E-16,-2.29764698804875E-16,-1.));
#1435=DIRECTION('',(1.,-3.96595240763738E-32,-1.72609301092219E-16));
#1436=DIRECTION('',(2.29764698804875E-16,-1.,0.));
#1437=DIRECTION('',(-1.,-2.29764698804875E-16,0.));
#1438=DIRECTION('',(0.,0.,-1.));
#1439=DIRECTION('',(1.,0.,0.));
#1440=DIRECTION('',(-1.,0.,0.));
#1441=DIRECTION('',(0.,0.,1.));
#1442=DIRECTION('',(0.,1.,0.));
#1443=DIRECTION('',(-1.96013952087775E-16,0.,1.));
#1444=DIRECTION('',(1.,0.,1.96013952087775E-16));
#1445=DIRECTION('',(-1.,0.,-1.96013952087775E-16));
#1446=DIRECTION('',(0.,1.,0.));
#1447=DIRECTION('',(1.,0.,0.));
#1448=DIRECTION('',(-4.11586813438657E-32,-1.,-2.38449962333582E-16));
#1449=DIRECTION('',(-1.,4.11586813438657E-32,9.81428601614465E-48));
#1450=DIRECTION('',(0.,0.,-1.));
#1451=DIRECTION('',(-1.,0.,0.));
#1452=DIRECTION('',(0.,0.,-1.));
#1453=DIRECTION('',(-1.,0.,0.));
#1454=DIRECTION('',(0.,0.,-1.));
#1455=DIRECTION('',(-1.,0.,0.));
#1456=DIRECTION('',(0.,1.,0.));
#1457=DIRECTION('',(0.,0.,-1.));
#1458=DIRECTION('',(0.,1.,0.));
#1459=DIRECTION('',(0.,0.,-1.));
#1460=DIRECTION('',(0.,1.,0.));
#1461=DIRECTION('',(0.,0.,-1.));
#1462=DIRECTION('',(-1.,0.,1.72609301092219E-16));
#1463=DIRECTION('',(1.72609301092219E-16,0.,1.));
#1464=DIRECTION('',(-1.,0.,1.72609301092219E-16));
#1465=DIRECTION('',(1.72609301092219E-16,0.,1.));
#1466=CARTESIAN_POINT('',(0.,0.,0.));
#1467=CARTESIAN_POINT('',(0.0151,0.05,8.67361737988404E-19));
#1468=CARTESIAN_POINT('',(0.0151,0.0196,0.0505));
#1469=CARTESIAN_POINT('',(0.0151,0.0196,0.0201));
#1470=CARTESIAN_POINT('',(0.0151,0.0196,0.0151));
#1471=CARTESIAN_POINT('',(0.0151,0.05,0.0201));
#1472=CARTESIAN_POINT('',(0.0151,0.05,0.0201));
#1473=CARTESIAN_POINT('',(0.0151,0.05,-8.63046505461098E-18));
#1474=CARTESIAN_POINT('',(0.0151,0.05,0.0505));
#1475=CARTESIAN_POINT('',(0.0151,0.05,0.0505));
#1476=CARTESIAN_POINT('',(0.0151,0.055,0.0505));
#1477=CARTESIAN_POINT('',(0.0151,0.055,-4.31523252730549E-19));
#1478=CARTESIAN_POINT('',(0.0151,0.055,0.0151));
#1479=CARTESIAN_POINT('',(0.0151,0.0196,0.0151));
#1480=CARTESIAN_POINT('',(0.0701,0.055,-6.89574157863417E-18));
#1481=CARTESIAN_POINT('',(0.0328,0.055,0.0151));
#1482=CARTESIAN_POINT('',(0.0505,0.055,0.0151));
#1483=CARTESIAN_POINT('',(0.0701,0.055,0.0505));
#1484=CARTESIAN_POINT('',(0.0201,0.055,0.0505));
#1485=CARTESIAN_POINT('',(0.0201,0.055,0.0699));
#1486=CARTESIAN_POINT('',(0.0201,0.055,0.0201));
#1487=CARTESIAN_POINT('',(0.0701,0.055,0.0201));
#1488=CARTESIAN_POINT('',(0.0505,0.055,0.0201));
#1489=CARTESIAN_POINT('',(0.0505,0.055,0.0505));
#1490=CARTESIAN_POINT('',(1.7347234759768E-18,0.05,0.0151));
#1491=CARTESIAN_POINT('',(1.7347234759768E-18,0.0196,0.0151));
#1492=CARTESIAN_POINT('',(-0.0151,0.0196,0.0151));
#1493=CARTESIAN_POINT('',(0.0151,0.05,0.0151));
#1494=CARTESIAN_POINT('',(0.0151,0.,0.0151));
#1495=CARTESIAN_POINT('',(1.7347234759768E-18,0.,0.0151));
#1496=CARTESIAN_POINT('',(-0.0151,0.,0.0151));
#1497=CARTESIAN_POINT('',(-0.0151,0.05,0.0151));
#1498=CARTESIAN_POINT('',(0.0701,0.055,-6.89574157863417E-18));
#1499=CARTESIAN_POINT('',(5.20417042793042E-18,0.055,0.0505));
#1500=CARTESIAN_POINT('',(-0.0151,0.055,0.0505));
#1501=CARTESIAN_POINT('',(-0.0151,0.055,0.0699));
#1502=CARTESIAN_POINT('',(-0.0151,0.055,0.0699));
#1503=CARTESIAN_POINT('',(1.03306666703693E-17,0.055,0.0699));
#1504=CARTESIAN_POINT('',(0.0151,0.055,0.0699));
#1505=CARTESIAN_POINT('',(0.0151,0.055,0.0699));
#1506=CARTESIAN_POINT('',(-0.0251,0.0701,-0.0381));
#1507=CARTESIAN_POINT('',(-0.06185,0.0546,-0.0381));
#1508=CARTESIAN_POINT('',(-0.06365,0.0546,-0.0381));
#1509=CARTESIAN_POINT('',(-0.03085,0.0546,-0.0381));
#1510=CARTESIAN_POINT('',(-0.03265,0.0546,-0.0381));
#1511=CARTESIAN_POINT('',(-0.04635,0.0701,-0.0381));
#1512=CARTESIAN_POINT('',(-0.0575,0.0701,-0.0381));
#1513=CARTESIAN_POINT('',(-0.0201,0.0701,-0.0381));
#1514=CARTESIAN_POINT('',(-0.0201,0.0902,-0.0381));
#1515=CARTESIAN_POINT('',(-0.0201,0.045,-0.0381));
#1516=CARTESIAN_POINT('',(-0.0251,0.045,-0.0381));
#1517=CARTESIAN_POINT('',(-0.0676,0.045,-0.0381));
#1518=CARTESIAN_POINT('',(-0.0676,0.0701,-0.0381));
#1519=CARTESIAN_POINT('',(-0.0676,0.0902,-0.0381));
#1520=CARTESIAN_POINT('',(-0.0251,0.0902,-0.0381));
#1521=CARTESIAN_POINT('',(-0.06185,0.0856,-0.0381));
#1522=CARTESIAN_POINT('',(-0.06365,0.0856,-0.0381));
#1523=CARTESIAN_POINT('',(-0.03085,0.0856,-0.0381));
#1524=CARTESIAN_POINT('',(-0.03265,0.0856,-0.0381));
#1525=CARTESIAN_POINT('',(-0.0676,0.0701,-0.0331));
#1526=CARTESIAN_POINT('',(-0.06185,0.0856,-0.0331));
#1527=CARTESIAN_POINT('',(-0.06365,0.0856,-0.0331));
#1528=CARTESIAN_POINT('',(-0.03085,0.0546,-0.0331));
#1529=CARTESIAN_POINT('',(-0.03265,0.0546,-0.0331));
#1530=CARTESIAN_POINT('',(-0.04635,0.0701,-0.0331));
#1531=CARTESIAN_POINT('',(-0.0575,0.0701,-0.0331));
#1532=CARTESIAN_POINT('',(-0.0251,0.0701,-0.0331));
#1533=CARTESIAN_POINT('',(-0.0251,0.0902,-0.0331));
#1534=CARTESIAN_POINT('',(-0.0251,0.04885,-0.0331));
#1535=CARTESIAN_POINT('',(-0.0676,0.0902,-0.0331));
#1536=CARTESIAN_POINT('',(-0.0676,0.0902,-0.0331));
#1537=CARTESIAN_POINT('',(-0.0676,0.0701,-0.0331));
#1538=CARTESIAN_POINT('',(-0.0676,0.04885,-0.0331));
#1539=CARTESIAN_POINT('',(-0.0676,0.04885,-0.0331));
#1540=CARTESIAN_POINT('',(-0.06185,0.0546,-0.0331));
#1541=CARTESIAN_POINT('',(-0.06365,0.0546,-0.0331));
#1542=CARTESIAN_POINT('',(-0.03085,0.0856,-0.0331));
#1543=CARTESIAN_POINT('',(-0.03265,0.0856,-0.0331));
#1544=CARTESIAN_POINT('',(-0.0201,0.05,0.));
#1545=CARTESIAN_POINT('',(-0.0201,0.0701,0.0401));
#1546=CARTESIAN_POINT('',(-0.0201,0.0701,0.0432));
#1547=CARTESIAN_POINT('',(-0.0201,0.0701,0.0201));
#1548=CARTESIAN_POINT('',(-0.0201,0.0902,0.0201));
#1549=CARTESIAN_POINT('',(-0.0201,0.05,0.0201));
#1550=CARTESIAN_POINT('',(-0.0201,0.05,0.0699));
#1551=CARTESIAN_POINT('',(-0.0201,0.05,0.0699));
#1552=CARTESIAN_POINT('',(-0.0201,0.0701,0.0699));
#1553=CARTESIAN_POINT('',(-0.0201,0.0902,0.0699));
#1554=CARTESIAN_POINT('',(-0.0201,0.0902,0.0699));
#1555=CARTESIAN_POINT('',(0.0201,0.05,0.));
#1556=CARTESIAN_POINT('',(0.0201,0.05,0.0151));
#1557=CARTESIAN_POINT('',(0.0201,0.0196,0.0151));
#1558=CARTESIAN_POINT('',(0.0201,0.05,0.0151));
#1559=CARTESIAN_POINT('',(0.0201,0.05,0.));
#1560=CARTESIAN_POINT('',(0.0201,0.05,0.0201));
#1561=CARTESIAN_POINT('',(0.0201,0.05,0.0201));
#1562=CARTESIAN_POINT('',(0.0201,0.,0.0201));
#1563=CARTESIAN_POINT('',(0.0201,0.,0.));
#1564=CARTESIAN_POINT('',(0.0201,0.,-0.0201));
#1565=CARTESIAN_POINT('',(0.0201,0.05,-0.0201));
#1566=CARTESIAN_POINT('',(0.0201,0.05,-0.0201));
#1567=CARTESIAN_POINT('',(0.0201,0.05,0.));
#1568=CARTESIAN_POINT('',(0.0201,0.05,-0.0151));
#1569=CARTESIAN_POINT('',(0.0201,0.05,-0.0151));
#1570=CARTESIAN_POINT('',(0.0201,0.0196,-0.0151));
#1571=CARTESIAN_POINT('',(0.0201,0.0196,0.));
#1572=CARTESIAN_POINT('',(3.46944695195361E-18,0.05,0.0201));
#1573=CARTESIAN_POINT('',(-0.0151,0.05,0.0201));
#1574=CARTESIAN_POINT('',(-0.0151,0.0196,0.0201));
#1575=CARTESIAN_POINT('',(-0.0151,0.05,0.0201));
#1576=CARTESIAN_POINT('',(3.46944695195361E-18,0.05,0.0201));
#1577=CARTESIAN_POINT('',(-0.0251,0.0902,0.0201));
#1578=CARTESIAN_POINT('',(-0.0251,0.0902,0.0201));
#1579=CARTESIAN_POINT('',(-0.0251,0.0701,0.0201));
#1580=CARTESIAN_POINT('',(-0.0251,0.04885,0.0201));
#1581=CARTESIAN_POINT('',(-0.0251,0.045,0.0201));
#1582=CARTESIAN_POINT('',(-0.0251,0.045,0.0201));
#1583=CARTESIAN_POINT('',(-0.0251,0.045,0.0201));
#1584=CARTESIAN_POINT('',(-0.0201,0.045,0.0201));
#1585=CARTESIAN_POINT('',(-0.0201,0.05,0.0201));
#1586=CARTESIAN_POINT('',(-0.0201,0.,0.0201));
#1587=CARTESIAN_POINT('',(3.46944695195361E-18,0.,0.0201));
#1588=CARTESIAN_POINT('',(3.46944695195361E-18,0.05,0.0201));
#1589=CARTESIAN_POINT('',(1.04542937956218E-17,0.0196,0.0201));
#1590=CARTESIAN_POINT('',(-0.0201,0.05,0.));
#1591=CARTESIAN_POINT('',(-0.0201,0.03,3.33057228560986E-18));
#1592=CARTESIAN_POINT('',(-0.0201,0.03,0.0031));
#1593=CARTESIAN_POINT('',(-0.0201,0.05,-0.0201));
#1594=CARTESIAN_POINT('',(-0.0201,0.045,-0.0201));
#1595=CARTESIAN_POINT('',(-0.0201,0.,-0.0201));
#1596=CARTESIAN_POINT('',(-0.0201,0.,0.));
#1597=CARTESIAN_POINT('',(-0.0201,0.045,-0.009));
#1598=CARTESIAN_POINT('',(-0.0151,0.05,-8.67361737988404E-19));
#1599=CARTESIAN_POINT('',(-0.0151,0.0701,0.0401));
#1600=CARTESIAN_POINT('',(-0.0151,0.0701,0.037));
#1601=CARTESIAN_POINT('',(-0.0151,0.03,2.46752578014876E-18));
#1602=CARTESIAN_POINT('',(-0.0151,0.03,-0.0031));
#1603=CARTESIAN_POINT('',(-0.0151,0.,-8.67361737988404E-19));
#1604=CARTESIAN_POINT('',(-0.0151,0.,-0.0151));
#1605=CARTESIAN_POINT('',(-0.0151,0.05,-0.0151));
#1606=CARTESIAN_POINT('',(-0.0151,0.0852,-0.0151));
#1607=CARTESIAN_POINT('',(-0.0151,0.0852,0.0699));
#1608=CARTESIAN_POINT('',(-0.0151,0.0852,0.0699));
#1609=CARTESIAN_POINT('',(-0.0151,0.0701,0.0699));
#1610=CARTESIAN_POINT('',(-0.0151,0.05,0.0505));
#1611=CARTESIAN_POINT('',(-0.0151,0.05,0.0505));
#1612=CARTESIAN_POINT('',(-0.0151,0.05,-8.63046505461098E-18));
#1613=CARTESIAN_POINT('',(-0.0151,0.0196,0.0505));
#1614=CARTESIAN_POINT('',(0.0151,0.05,8.67361737988404E-19));
#1615=CARTESIAN_POINT('',(0.0151,0.05,-0.0151));
#1616=CARTESIAN_POINT('',(0.0151,0.0196,-0.0151));
#1617=CARTESIAN_POINT('',(0.0151,0.,-0.0151));
#1618=CARTESIAN_POINT('',(0.0151,0.,8.67361737988404E-19));
#1619=CARTESIAN_POINT('',(0.0151,0.0196,-4.31523252730549E-19));
#1620=CARTESIAN_POINT('',(-1.7347234759768E-18,0.05,-0.0151));
#1621=CARTESIAN_POINT('',(0.0401,0.0701,-0.0151));
#1622=CARTESIAN_POINT('',(0.0432,0.0701,-0.0151));
#1623=CARTESIAN_POINT('',(0.,0.03,-0.0151));
#1624=CARTESIAN_POINT('',(0.0031,0.03,-0.0151));
#1625=CARTESIAN_POINT('',(0.,0.0701,-0.0151));
#1626=CARTESIAN_POINT('',(0.0031,0.0701,-0.0151));
#1627=CARTESIAN_POINT('',(0.0701,0.0196,-0.0151));
#1628=CARTESIAN_POINT('',(0.0701,0.05,-0.0151));
#1629=CARTESIAN_POINT('',(0.0505,0.05,-0.0151));
#1630=CARTESIAN_POINT('',(0.0505,0.0196,-0.0151));
#1631=CARTESIAN_POINT('',(0.0505,0.055,-0.0151));
#1632=CARTESIAN_POINT('',(0.0701,0.055,-0.0151));
#1633=CARTESIAN_POINT('',(0.0701,0.055,-0.0151));
#1634=CARTESIAN_POINT('',(0.0701,0.0701,-0.0151));
#1635=CARTESIAN_POINT('',(0.0701,0.0852,-0.0151));
#1636=CARTESIAN_POINT('',(0.0701,0.0852,-0.0151));
#1637=CARTESIAN_POINT('',(-1.7347234759768E-18,0.,-0.0151));
#1638=CARTESIAN_POINT('',(-3.46944695195361E-18,0.05,-0.0201));
#1639=CARTESIAN_POINT('',(0.0401,0.0701,-0.0201));
#1640=CARTESIAN_POINT('',(0.037,0.0701,-0.0201));
#1641=CARTESIAN_POINT('',(0.,0.03,-0.0201));
#1642=CARTESIAN_POINT('',(-0.0031,0.03,-0.0201));
#1643=CARTESIAN_POINT('',(0.,0.0701,-0.0201));
#1644=CARTESIAN_POINT('',(-0.0031,0.0701,-0.0201));
#1645=CARTESIAN_POINT('',(-3.46944695195361E-18,0.,-0.0201));
#1646=CARTESIAN_POINT('',(-0.0201,0.05,-0.0201));
#1647=CARTESIAN_POINT('',(-0.0201,0.0902,-0.0201));
#1648=CARTESIAN_POINT('',(0.0701,0.0902,-0.0201));
#1649=CARTESIAN_POINT('',(0.0701,0.0902,-0.0201));
#1650=CARTESIAN_POINT('',(0.0701,0.0701,-0.0201));
#1651=CARTESIAN_POINT('',(0.0701,0.05,-0.0201));
#1652=CARTESIAN_POINT('',(0.0701,0.05,-0.0201));
#1653=CARTESIAN_POINT('',(0.,0.,0.));
#1654=CARTESIAN_POINT('',(0.0701,0.05,-8.63046505461098E-18));
#1655=CARTESIAN_POINT('',(0.0701,0.05,0.0151));
#1656=CARTESIAN_POINT('',(0.0505,0.05,0.0151));
#1657=CARTESIAN_POINT('',(0.0505,0.05,-8.63046505461098E-18));
#1658=CARTESIAN_POINT('',(0.0701,0.05,-8.63046505461098E-18));
#1659=CARTESIAN_POINT('',(0.0701,0.05,0.0201));
#1660=CARTESIAN_POINT('',(0.0701,0.05,0.0201));
#1661=CARTESIAN_POINT('',(0.0701,0.05,-8.63046505461098E-18));
#1662=CARTESIAN_POINT('',(0.0701,0.05,0.0505));
#1663=CARTESIAN_POINT('',(0.0201,0.05,0.0699));
#1664=CARTESIAN_POINT('',(0.0201,0.05,0.0699));
#1665=CARTESIAN_POINT('',(1.20653901463461E-17,0.05,0.0699));
#1666=CARTESIAN_POINT('',(0.0701,0.0701,0.0151));
#1667=CARTESIAN_POINT('',(0.0701,0.0852,0.0151));
#1668=CARTESIAN_POINT('',(0.0701,0.0852,0.0151));
#1669=CARTESIAN_POINT('',(0.0505,0.0852,0.0151));
#1670=CARTESIAN_POINT('',(0.0701,0.0701,0.0151));
#1671=CARTESIAN_POINT('',(0.0701,0.055,0.0151));
#1672=CARTESIAN_POINT('',(0.0701,0.055,0.0151));
#1673=CARTESIAN_POINT('',(0.0505,0.0701,0.0151));
#1674=CARTESIAN_POINT('',(0.0701,0.055,-6.89574157863417E-18));
#1675=CARTESIAN_POINT('',(0.0701,0.055,-6.89574157863417E-18));
#1676=CARTESIAN_POINT('',(0.0505,0.055,-3.46944695195361E-18));
#1677=CARTESIAN_POINT('',(0.0701,0.0701,0.0201));
#1678=CARTESIAN_POINT('',(0.0701,0.0852,0.0201));
#1679=CARTESIAN_POINT('',(0.0201,0.0852,0.0201));
#1680=CARTESIAN_POINT('',(0.0505,0.0852,0.0201));
#1681=CARTESIAN_POINT('',(0.0505,0.0701,0.0201));
#1682=CARTESIAN_POINT('',(0.0201,0.0701,0.0201));
#1683=CARTESIAN_POINT('',(0.0701,0.0701,0.0201));
#1684=CARTESIAN_POINT('',(0.0701,0.0902,0.0201));
#1685=CARTESIAN_POINT('',(0.0701,0.0902,0.0201));
#1686=CARTESIAN_POINT('',(0.0201,0.0902,0.0201));
#1687=CARTESIAN_POINT('',(0.0201,0.0701,0.0201));
#1688=CARTESIAN_POINT('',(0.0701,0.0902,-1.55693589585182E-17));
#1689=CARTESIAN_POINT('',(0.0401,0.0902,-3.05258626471848E-18));
#1690=CARTESIAN_POINT('',(0.0401,0.0902,-0.0031));
#1691=CARTESIAN_POINT('',(1.7347234759768E-18,0.0902,0.0401));
#1692=CARTESIAN_POINT('',(1.7347234759768E-18,0.0902,0.037));
#1693=CARTESIAN_POINT('',(3.46944695195361E-18,0.0902,-1.54490322210896E-18));
#1694=CARTESIAN_POINT('',(3.46944695195361E-18,0.0902,-0.0031));
#1695=CARTESIAN_POINT('',(0.0701,0.0902,-1.55693589585182E-17));
#1696=CARTESIAN_POINT('',(-0.0201,0.0902,0.0699));
#1697=CARTESIAN_POINT('',(-0.0676,0.0902,0.0699));
#1698=CARTESIAN_POINT('',(-0.0251,0.0902,0.0699));
#1699=CARTESIAN_POINT('',(1.65704929048531E-18,0.0902,0.0699));
#1700=CARTESIAN_POINT('',(0.0201,0.0902,0.0699));
#1701=CARTESIAN_POINT('',(0.0201,0.0902,0.0699));
#1702=CARTESIAN_POINT('',(0.0701,0.0852,-1.38346354825414E-17));
#1703=CARTESIAN_POINT('',(0.0401,0.0852,-3.05258626471848E-18));
#1704=CARTESIAN_POINT('',(0.0401,0.0852,-0.0031));
#1705=CARTESIAN_POINT('',(1.7347234759768E-18,0.0852,0.0401));
#1706=CARTESIAN_POINT('',(1.7347234759768E-18,0.0852,0.037));
#1707=CARTESIAN_POINT('',(3.46944695195361E-18,0.0852,-1.54490322210896E-18));
#1708=CARTESIAN_POINT('',(3.46944695195361E-18,0.0852,-0.0031));
#1709=CARTESIAN_POINT('',(0.0701,0.0852,-1.38346354825414E-17));
#1710=CARTESIAN_POINT('',(0.0505,0.0852,0.0505));
#1711=CARTESIAN_POINT('',(0.0201,0.0852,0.0699));
#1712=CARTESIAN_POINT('',(0.0201,0.0852,0.0505));
#1713=CARTESIAN_POINT('',(0.0701,0.0852,0.0505));
#1714=CARTESIAN_POINT('',(0.0151,0.0852,0.0505));
#1715=CARTESIAN_POINT('',(0.0151,0.0852,0.0699));
#1716=CARTESIAN_POINT('',(0.0151,0.0852,0.0699));
#1717=CARTESIAN_POINT('',(1.65704929048531E-18,0.0852,0.0699));
#1718=CARTESIAN_POINT('',(0.0701,0.0451,-8.63046505461098E-18));
#1719=CARTESIAN_POINT('',(0.0151,0.0701,0.0699));
#1720=CARTESIAN_POINT('',(0.0151,0.0701,0.0699));
#1721=CARTESIAN_POINT('',(0.0151,0.0701,0.0505));
#1722=CARTESIAN_POINT('',(0.0201,0.0701,0.0699));
#1723=CARTESIAN_POINT('',(0.0201,0.0701,0.0699));
#1724=CARTESIAN_POINT('',(0.0201,0.0701,0.0505));
#1725=CARTESIAN_POINT('',(0.025,0.0701,0.0699));
#1726=CARTESIAN_POINT('',(-0.0251,0.0451,0.0159));
#1727=CARTESIAN_POINT('',(-0.0251,0.04885,-0.009));
#1728=CARTESIAN_POINT('',(-0.0201,0.0451,0.0159));
#1729=CARTESIAN_POINT('',(-0.0201,0.045,-0.009));
#1730=CARTESIAN_POINT('',(-0.0676,0.0701,-0.009));
#1731=CARTESIAN_POINT('',(-0.0676,0.045,-0.009));
#1732=CARTESIAN_POINT('',(-0.0676,0.045,-0.0331));
#1733=CARTESIAN_POINT('',(-0.0676,0.045,-0.0331));
#1734=CARTESIAN_POINT('',(-0.04635,0.0701,0.069902));
#1735=CARTESIAN_POINT('',(-0.04635,0.045,-0.0065));
#1736=CARTESIAN_POINT('',(-0.04635,0.045,-0.0065));
#1737=CARTESIAN_POINT('',(-0.04635,0.04885,-0.0065));
#1738=CARTESIAN_POINT('',(-0.04385,0.045,-0.009));
#1739=CARTESIAN_POINT('',(-0.03085,0.0546,0.069902));
#1740=CARTESIAN_POINT('',(-0.06185,0.0546,0.069902));
#1741=CARTESIAN_POINT('',(-0.06185,0.0856,0.069902));
#1742=CARTESIAN_POINT('',(-0.03085,0.0856,0.069902));
#1743=CARTESIAN_POINT('',(0.0505,0.0701,0.0505));
#1744=CARTESIAN_POINT('',(0.0426,0.0701,0.0505));
#1745=CARTESIAN_POINT('',(1.7347234759768E-18,0.0196,0.0505));
#1746=CARTESIAN_POINT('',(3.46944695195361E-18,0.0275,0.0505));
#1747=CARTESIAN_POINT('',(0.0505,0.0196,-3.46944695195361E-18));
#1748=CARTESIAN_POINT('',(0.0505,0.0196,0.0151));
#1749=CARTESIAN_POINT('',(0.0328,0.0196,0.0151));
#1750=CARTESIAN_POINT('',(0.0328,0.0196,0.0151));
#1751=CARTESIAN_POINT('',(0.0426,0.0196,0.0177));
#1752=CARTESIAN_POINT('',(-0.04385,0.04885,-0.009));
#1753=CARTESIAN_POINT('',(0.,0.0701,0.069902));
#1754=CARTESIAN_POINT('',(0.,0.03,0.069902));
#1755=CARTESIAN_POINT('',(0.0401,0.0701,0.069902));
#1756=CARTESIAN_POINT('',(3.46944695195361E-18,-2.000000000002E-6,-1.54490322210896E-18));
#1757=CARTESIAN_POINT('',(1.7347234759768E-18,-2.000000000002E-6,0.0401));
#1758=CARTESIAN_POINT('',(0.0401,-2.000000000002E-6,-3.05258626471848E-18));
#1759=CARTESIAN_POINT('',(0.070102,0.03,-1.22391318915105E-17));
#1760=CARTESIAN_POINT('',(0.070102,0.0701,0.0401));
#1761=MECHANICAL_DESIGN_GEOMETRIC_PRESENTATION_REPRESENTATION('',(#1101),
#1762);
#1762=(
GEOMETRIC_REPRESENTATION_CONTEXT(3)
GLOBAL_UNCERTAINTY_ASSIGNED_CONTEXT((#1763))
GLOBAL_UNIT_ASSIGNED_CONTEXT((#1766,#1765,#1764))
REPRESENTATION_CONTEXT('Right Corner Bracket','TOP_LEVEL_ASSEMBLY_PART')
);
#1763=UNCERTAINTY_MEASURE_WITH_UNIT(LENGTH_MEASURE(1.E-8),#1766,
'DISTANCE_ACCURACY_VALUE','Maximum Tolerance applied to model');
#1764=(
NAMED_UNIT(*)
SI_UNIT($,.STERADIAN.)
SOLID_ANGLE_UNIT()
);
#1765=(
NAMED_UNIT(*)
PLANE_ANGLE_UNIT()
SI_UNIT($,.RADIAN.)
);
#1766=(
LENGTH_UNIT()
NAMED_UNIT(*)
SI_UNIT($,.METRE.)
);
#1767=PRODUCT_DEFINITION_SHAPE('','',#1768);
#1768=PRODUCT_DEFINITION('','',#1770,#1769);
#1769=PRODUCT_DEFINITION_CONTEXT('',#1776,'design');
#1770=PRODUCT_DEFINITION_FORMATION_WITH_SPECIFIED_SOURCE('','',#1772,
 .NOT_KNOWN.);
#1771=PRODUCT_RELATED_PRODUCT_CATEGORY('','',(#1772));
#1772=PRODUCT('Right Corner Bracket','Right Corner Bracket',
'Right Corner Bracket',(#1774));
#1773=PRODUCT_CATEGORY('','');
#1774=PRODUCT_CONTEXT('',#1776,'mechanical');
#1775=APPLICATION_PROTOCOL_DEFINITION('international standard',
'automotive_design',2010,#1776);
#1776=APPLICATION_CONTEXT(
'core data for automotive mechanical design processes');
ENDSEC;
END-ISO-10303-21;
