ISO-10303-21;
HEADER;
/* Generated by software containing ST-Developer
 * from STEP Tools, Inc. (www.steptools.com) 
 */
/* OPTION: using custom renumber hook */

FILE_DESCRIPTION(
/* description */ ('STEP AP214',
'CAx-IF Rec.Pracs.---User Defined Attributes---1.5---2016-08-15'),
/* implementation_level */ '2;1');

FILE_NAME(
/* name */ '6a95da93b3b9f08b1d2c4fcc',
/* time_stamp */ '2026-08-31T19:48:35Z',
/* author */ (''),
/* organization */ (''),
/* preprocessor_version */ 'ST-DEVELOPER v20',
/* originating_system */ 'ONSHAPE BY PTC INC, 1.220',
/* authorisation */ '  ');

FILE_SCHEMA (('AUTOMOTIVE_DESIGN {1 0 10303 214 3 1 1}'));
ENDSEC;

DATA;
#10=PROPERTY_DEFINITION_REPRESENTATION(#14,#12);
#11=PROPERTY_DEFINITION_REPRESENTATION(#15,#13);
#12=REPRESENTATION('',(#16),#745);
#13=REPRESENTATION('',(#17),#745);
#14=PROPERTY_DEFINITION('pmi validation property','',#750);
#15=PROPERTY_DEFINITION('pmi validation property','',#750);
#16=VALUE_REPRESENTATION_ITEM('number of annotations',COUNT_MEASURE(0.));
#17=VALUE_REPRESENTATION_ITEM('number of views',COUNT_MEASURE(0.));
#18=SHAPE_REPRESENTATION_RELATIONSHIP('','',#443,#19);
#19=ADVANCED_BREP_SHAPE_REPRESENTATION('',(#441),#745);
#20=PLANE('',#454);
#21=PLANE('',#455);
#22=PLANE('',#459);
#23=PLANE('',#463);
#24=PLANE('',#467);
#25=PLANE('',#471);
#26=PLANE('',#472);
#27=PLANE('',#479);
#28=PLANE('',#486);
#29=PLANE('',#491);
#30=PLANE('',#494);
#31=LINE('',#640,#59);
#32=LINE('',#644,#60);
#33=LINE('',#646,#61);
#34=LINE('',#648,#62);
#35=LINE('',#650,#63);
#36=LINE('',#652,#64);
#37=LINE('',#655,#65);
#38=LINE('',#657,#66);
#39=LINE('',#659,#67);
#40=LINE('',#661,#68);
#41=LINE('',#663,#69);
#42=LINE('',#667,#70);
#43=LINE('',#671,#71);
#44=LINE('',#673,#72);
#45=LINE('',#675,#73);
#46=LINE('',#679,#74);
#47=LINE('',#683,#75);
#48=LINE('',#685,#76);
#49=LINE('',#687,#77);
#50=LINE('',#691,#78);
#51=LINE('',#695,#79);
#52=LINE('',#697,#80);
#53=LINE('',#699,#81);
#54=LINE('',#701,#82);
#55=LINE('',#703,#83);
#56=LINE('',#710,#84);
#57=LINE('',#712,#85);
#58=LINE('',#714,#86);
#59=VECTOR('',#513,1.);
#60=VECTOR('',#516,1.);
#61=VECTOR('',#519,1.);
#62=VECTOR('',#520,1.);
#63=VECTOR('',#521,1.);
#64=VECTOR('',#524,1.);
#65=VECTOR('',#525,1.);
#66=VECTOR('',#526,1.);
#67=VECTOR('',#527,1.);
#68=VECTOR('',#528,1.);
#69=VECTOR('',#529,1.);
#70=VECTOR('',#534,1.);
#71=VECTOR('',#539,1.);
#72=VECTOR('',#540,1.);
#73=VECTOR('',#541,1.);
#74=VECTOR('',#546,1.);
#75=VECTOR('',#551,1.);
#76=VECTOR('',#552,1.);
#77=VECTOR('',#553,1.);
#78=VECTOR('',#558,1.);
#79=VECTOR('',#563,1.);
#80=VECTOR('',#564,1.);
#81=VECTOR('',#565,1.);
#82=VECTOR('',#566,1.);
#83=VECTOR('',#567,1.);
#84=VECTOR('',#576,1.);
#85=VECTOR('',#577,1.);
#86=VECTOR('',#578,1.);
#87=ORIENTED_EDGE('',*,*,#195,.T.);
#88=ORIENTED_EDGE('',*,*,#196,.T.);
#89=ORIENTED_EDGE('',*,*,#197,.T.);
#90=ORIENTED_EDGE('',*,*,#198,.T.);
#91=ORIENTED_EDGE('',*,*,#199,.T.);
#92=ORIENTED_EDGE('',*,*,#200,.F.);
#93=ORIENTED_EDGE('',*,*,#201,.F.);
#94=ORIENTED_EDGE('',*,*,#202,.T.);
#95=ORIENTED_EDGE('',*,*,#203,.T.);
#96=ORIENTED_EDGE('',*,*,#204,.T.);
#97=ORIENTED_EDGE('',*,*,#205,.F.);
#98=ORIENTED_EDGE('',*,*,#200,.T.);
#99=ORIENTED_EDGE('',*,*,#206,.F.);
#100=ORIENTED_EDGE('',*,*,#207,.T.);
#101=ORIENTED_EDGE('',*,*,#208,.T.);
#102=ORIENTED_EDGE('',*,*,#209,.F.);
#103=ORIENTED_EDGE('',*,*,#210,.T.);
#104=ORIENTED_EDGE('',*,*,#211,.F.);
#105=ORIENTED_EDGE('',*,*,#212,.T.);
#106=ORIENTED_EDGE('',*,*,#213,.F.);
#107=ORIENTED_EDGE('',*,*,#214,.F.);
#108=ORIENTED_EDGE('',*,*,#206,.T.);
#109=ORIENTED_EDGE('',*,*,#215,.F.);
#110=ORIENTED_EDGE('',*,*,#216,.F.);
#111=ORIENTED_EDGE('',*,*,#217,.T.);
#112=ORIENTED_EDGE('',*,*,#213,.T.);
#113=ORIENTED_EDGE('',*,*,#218,.T.);
#114=ORIENTED_EDGE('',*,*,#219,.F.);
#115=ORIENTED_EDGE('',*,*,#220,.F.);
#116=ORIENTED_EDGE('',*,*,#216,.T.);
#117=ORIENTED_EDGE('',*,*,#221,.T.);
#118=ORIENTED_EDGE('',*,*,#222,.F.);
#119=ORIENTED_EDGE('',*,*,#223,.F.);
#120=ORIENTED_EDGE('',*,*,#219,.T.);
#121=ORIENTED_EDGE('',*,*,#224,.T.);
#122=ORIENTED_EDGE('',*,*,#225,.F.);
#123=ORIENTED_EDGE('',*,*,#226,.F.);
#124=ORIENTED_EDGE('',*,*,#222,.T.);
#125=ORIENTED_EDGE('',*,*,#227,.T.);
#126=ORIENTED_EDGE('',*,*,#228,.T.);
#127=ORIENTED_EDGE('',*,*,#229,.T.);
#128=ORIENTED_EDGE('',*,*,#230,.F.);
#129=ORIENTED_EDGE('',*,*,#231,.F.);
#130=ORIENTED_EDGE('',*,*,#225,.T.);
#131=ORIENTED_EDGE('',*,*,#232,.T.);
#132=ORIENTED_EDGE('',*,*,#233,.F.);
#133=ORIENTED_EDGE('',*,*,#234,.T.);
#134=ORIENTED_EDGE('',*,*,#235,.T.);
#135=ORIENTED_EDGE('',*,*,#236,.F.);
#136=ORIENTED_EDGE('',*,*,#202,.F.);
#137=ORIENTED_EDGE('',*,*,#197,.F.);
#138=ORIENTED_EDGE('',*,*,#195,.F.);
#139=ORIENTED_EDGE('',*,*,#211,.T.);
#140=ORIENTED_EDGE('',*,*,#237,.T.);
#141=ORIENTED_EDGE('',*,*,#203,.F.);
#142=ORIENTED_EDGE('',*,*,#199,.F.);
#143=ORIENTED_EDGE('',*,*,#236,.T.);
#144=ORIENTED_EDGE('',*,*,#238,.T.);
#145=ORIENTED_EDGE('',*,*,#227,.F.);
#146=ORIENTED_EDGE('',*,*,#224,.F.);
#147=ORIENTED_EDGE('',*,*,#221,.F.);
#148=ORIENTED_EDGE('',*,*,#218,.F.);
#149=ORIENTED_EDGE('',*,*,#215,.T.);
#150=ORIENTED_EDGE('',*,*,#212,.F.);
#151=ORIENTED_EDGE('',*,*,#232,.F.);
#152=ORIENTED_EDGE('',*,*,#239,.F.);
#153=ORIENTED_EDGE('',*,*,#204,.F.);
#154=ORIENTED_EDGE('',*,*,#237,.F.);
#155=ORIENTED_EDGE('',*,*,#210,.F.);
#156=ORIENTED_EDGE('',*,*,#240,.F.);
#157=ORIENTED_EDGE('',*,*,#228,.F.);
#158=ORIENTED_EDGE('',*,*,#238,.F.);
#159=ORIENTED_EDGE('',*,*,#235,.F.);
#160=ORIENTED_EDGE('',*,*,#241,.F.);
#161=ORIENTED_EDGE('',*,*,#205,.T.);
#162=ORIENTED_EDGE('',*,*,#239,.T.);
#163=ORIENTED_EDGE('',*,*,#209,.T.);
#164=ORIENTED_EDGE('',*,*,#242,.F.);
#165=ORIENTED_EDGE('',*,*,#229,.F.);
#166=ORIENTED_EDGE('',*,*,#240,.T.);
#167=ORIENTED_EDGE('',*,*,#234,.F.);
#168=ORIENTED_EDGE('',*,*,#201,.T.);
#169=ORIENTED_EDGE('',*,*,#242,.T.);
#170=ORIENTED_EDGE('',*,*,#208,.F.);
#171=ORIENTED_EDGE('',*,*,#243,.F.);
#172=ORIENTED_EDGE('',*,*,#230,.T.);
#173=ORIENTED_EDGE('',*,*,#244,.F.);
#174=ORIENTED_EDGE('',*,*,#241,.T.);
#175=ORIENTED_EDGE('',*,*,#245,.F.);
#176=ORIENTED_EDGE('',*,*,#246,.F.);
#177=ORIENTED_EDGE('',*,*,#223,.T.);
#178=ORIENTED_EDGE('',*,*,#226,.T.);
#179=ORIENTED_EDGE('',*,*,#231,.T.);
#180=ORIENTED_EDGE('',*,*,#243,.T.);
#181=ORIENTED_EDGE('',*,*,#207,.F.);
#182=ORIENTED_EDGE('',*,*,#214,.T.);
#183=ORIENTED_EDGE('',*,*,#217,.F.);
#184=ORIENTED_EDGE('',*,*,#220,.T.);
#185=ORIENTED_EDGE('',*,*,#233,.T.);
#186=ORIENTED_EDGE('',*,*,#244,.T.);
#187=ORIENTED_EDGE('',*,*,#247,.F.);
#188=ORIENTED_EDGE('',*,*,#246,.T.);
#189=ORIENTED_EDGE('',*,*,#198,.F.);
#190=ORIENTED_EDGE('',*,*,#247,.T.);
#191=ORIENTED_EDGE('',*,*,#248,.F.);
#192=ORIENTED_EDGE('',*,*,#245,.T.);
#193=ORIENTED_EDGE('',*,*,#196,.F.);
#194=ORIENTED_EDGE('',*,*,#248,.T.);
#195=EDGE_CURVE('',#249,#249,#289,.F.);
#196=EDGE_CURVE('',#250,#250,#290,.T.);
#197=EDGE_CURVE('',#251,#251,#291,.F.);
#198=EDGE_CURVE('',#252,#252,#292,.T.);
#199=EDGE_CURVE('',#253,#254,#293,.T.);
#200=EDGE_CURVE('',#255,#254,#31,.T.);
#201=EDGE_CURVE('',#256,#255,#294,.T.);
#202=EDGE_CURVE('',#256,#253,#32,.T.);
#203=EDGE_CURVE('',#254,#257,#33,.T.);
#204=EDGE_CURVE('',#257,#258,#34,.F.);
#205=EDGE_CURVE('',#255,#258,#35,.T.);
#206=EDGE_CURVE('',#259,#260,#36,.T.);
#207=EDGE_CURVE('',#259,#261,#37,.T.);
#208=EDGE_CURVE('',#261,#262,#38,.T.);
#209=EDGE_CURVE('',#263,#262,#39,.T.);
#210=EDGE_CURVE('',#263,#264,#40,.T.);
#211=EDGE_CURVE('',#260,#264,#41,.T.);
#212=EDGE_CURVE('',#260,#265,#295,.T.);
#213=EDGE_CURVE('',#266,#265,#42,.T.);
#214=EDGE_CURVE('',#259,#266,#296,.T.);
#215=EDGE_CURVE('',#267,#265,#43,.T.);
#216=EDGE_CURVE('',#268,#267,#44,.T.);
#217=EDGE_CURVE('',#268,#266,#45,.T.);
#218=EDGE_CURVE('',#267,#269,#297,.T.);
#219=EDGE_CURVE('',#270,#269,#46,.T.);
#220=EDGE_CURVE('',#268,#270,#298,.T.);
#221=EDGE_CURVE('',#269,#271,#47,.T.);
#222=EDGE_CURVE('',#272,#271,#48,.T.);
#223=EDGE_CURVE('',#270,#272,#49,.T.);
#224=EDGE_CURVE('',#271,#273,#299,.T.);
#225=EDGE_CURVE('',#274,#273,#50,.T.);
#226=EDGE_CURVE('',#272,#274,#300,.T.);
#227=EDGE_CURVE('',#273,#275,#51,.T.);
#228=EDGE_CURVE('',#275,#276,#52,.F.);
#229=EDGE_CURVE('',#276,#277,#53,.T.);
#230=EDGE_CURVE('',#278,#277,#54,.T.);
#231=EDGE_CURVE('',#274,#278,#55,.T.);
#232=EDGE_CURVE('',#279,#279,#301,.T.);
#233=EDGE_CURVE('',#280,#280,#302,.T.);
#234=EDGE_CURVE('',#256,#281,#56,.T.);
#235=EDGE_CURVE('',#281,#282,#57,.T.);
#236=EDGE_CURVE('',#253,#282,#58,.T.);
#237=EDGE_CURVE('',#264,#257,#303,.F.);
#238=EDGE_CURVE('',#282,#275,#304,.F.);
#239=EDGE_CURVE('',#258,#263,#305,.T.);
#240=EDGE_CURVE('',#276,#281,#306,.T.);
#241=EDGE_CURVE('',#283,#283,#307,.T.);
#242=EDGE_CURVE('',#277,#262,#308,.T.);
#243=EDGE_CURVE('',#278,#261,#309,.T.);
#244=EDGE_CURVE('',#284,#284,#310,.T.);
#245=EDGE_CURVE('',#285,#285,#311,.T.);
#246=EDGE_CURVE('',#286,#286,#312,.T.);
#247=EDGE_CURVE('',#287,#287,#313,.T.);
#248=EDGE_CURVE('',#288,#288,#314,.T.);
#249=VERTEX_POINT('',#628);
#250=VERTEX_POINT('',#630);
#251=VERTEX_POINT('',#633);
#252=VERTEX_POINT('',#635);
#253=VERTEX_POINT('',#638);
#254=VERTEX_POINT('',#639);
#255=VERTEX_POINT('',#641);
#256=VERTEX_POINT('',#643);
#257=VERTEX_POINT('',#647);
#258=VERTEX_POINT('',#649);
#259=VERTEX_POINT('',#653);
#260=VERTEX_POINT('',#654);
#261=VERTEX_POINT('',#656);
#262=VERTEX_POINT('',#658);
#263=VERTEX_POINT('',#660);
#264=VERTEX_POINT('',#662);
#265=VERTEX_POINT('',#666);
#266=VERTEX_POINT('',#668);
#267=VERTEX_POINT('',#672);
#268=VERTEX_POINT('',#674);
#269=VERTEX_POINT('',#678);
#270=VERTEX_POINT('',#680);
#271=VERTEX_POINT('',#684);
#272=VERTEX_POINT('',#686);
#273=VERTEX_POINT('',#690);
#274=VERTEX_POINT('',#692);
#275=VERTEX_POINT('',#696);
#276=VERTEX_POINT('',#698);
#277=VERTEX_POINT('',#700);
#278=VERTEX_POINT('',#702);
#279=VERTEX_POINT('',#706);
#280=VERTEX_POINT('',#708);
#281=VERTEX_POINT('',#711);
#282=VERTEX_POINT('',#713);
#283=VERTEX_POINT('',#724);
#284=VERTEX_POINT('',#730);
#285=VERTEX_POINT('',#733);
#286=VERTEX_POINT('',#735);
#287=VERTEX_POINT('',#738);
#288=VERTEX_POINT('',#742);
#289=CIRCLE('',#446,0.0018);
#290=CIRCLE('',#447,0.0018);
#291=CIRCLE('',#449,0.0018);
#292=CIRCLE('',#450,0.0018);
#293=CIRCLE('',#452,0.01);
#294=CIRCLE('',#453,0.01);
#295=CIRCLE('',#457,0.005);
#296=CIRCLE('',#458,0.005);
#297=CIRCLE('',#461,0.005);
#298=CIRCLE('',#462,0.005);
#299=CIRCLE('',#465,0.005);
#300=CIRCLE('',#466,0.005);
#301=CIRCLE('',#469,0.0028);
#302=CIRCLE('',#470,0.0028);
#303=CIRCLE('',#473,0.001);
#304=CIRCLE('',#474,0.001);
#305=CIRCLE('',#476,0.001);
#306=CIRCLE('',#478,0.001);
#307=CIRCLE('',#480,0.0028);
#308=CIRCLE('',#481,0.005);
#309=CIRCLE('',#483,0.005);
#310=CIRCLE('',#485,0.0028);
#311=CIRCLE('',#487,0.0029);
#312=CIRCLE('',#488,0.0029);
#313=CIRCLE('',#490,0.0029);
#314=CIRCLE('',#493,0.0029);
#315=EDGE_LOOP('',(#87));
#316=EDGE_LOOP('',(#88));
#317=EDGE_LOOP('',(#89));
#318=EDGE_LOOP('',(#90));
#319=EDGE_LOOP('',(#91,#92,#93,#94));
#320=EDGE_LOOP('',(#95,#96,#97,#98));
#321=EDGE_LOOP('',(#99,#100,#101,#102,#103,#104));
#322=EDGE_LOOP('',(#105,#106,#107,#108));
#323=EDGE_LOOP('',(#109,#110,#111,#112));
#324=EDGE_LOOP('',(#113,#114,#115,#116));
#325=EDGE_LOOP('',(#117,#118,#119,#120));
#326=EDGE_LOOP('',(#121,#122,#123,#124));
#327=EDGE_LOOP('',(#125,#126,#127,#128,#129,#130));
#328=EDGE_LOOP('',(#131));
#329=EDGE_LOOP('',(#132));
#330=EDGE_LOOP('',(#133,#134,#135,#136));
#331=EDGE_LOOP('',(#137));
#332=EDGE_LOOP('',(#138));
#333=EDGE_LOOP('',(#139,#140,#141,#142,#143,#144,#145,#146,#147,#148,#149,
#150));
#334=EDGE_LOOP('',(#151));
#335=EDGE_LOOP('',(#152,#153,#154,#155));
#336=EDGE_LOOP('',(#156,#157,#158,#159));
#337=EDGE_LOOP('',(#160));
#338=EDGE_LOOP('',(#161,#162,#163,#164,#165,#166,#167,#168));
#339=EDGE_LOOP('',(#169,#170,#171,#172));
#340=EDGE_LOOP('',(#173));
#341=EDGE_LOOP('',(#174));
#342=EDGE_LOOP('',(#175));
#343=EDGE_LOOP('',(#176));
#344=EDGE_LOOP('',(#177,#178,#179,#180,#181,#182,#183,#184));
#345=EDGE_LOOP('',(#185));
#346=EDGE_LOOP('',(#186));
#347=EDGE_LOOP('',(#187));
#348=EDGE_LOOP('',(#188));
#349=EDGE_LOOP('',(#189));
#350=EDGE_LOOP('',(#190));
#351=EDGE_LOOP('',(#191));
#352=EDGE_LOOP('',(#192));
#353=EDGE_LOOP('',(#193));
#354=EDGE_LOOP('',(#194));
#355=FACE_BOUND('',#315,.T.);
#356=FACE_BOUND('',#316,.T.);
#357=FACE_BOUND('',#317,.T.);
#358=FACE_BOUND('',#318,.T.);
#359=FACE_BOUND('',#319,.T.);
#360=FACE_BOUND('',#320,.T.);
#361=FACE_BOUND('',#321,.T.);
#362=FACE_BOUND('',#322,.T.);
#363=FACE_BOUND('',#323,.T.);
#364=FACE_BOUND('',#324,.T.);
#365=FACE_BOUND('',#325,.T.);
#366=FACE_BOUND('',#326,.T.);
#367=FACE_BOUND('',#327,.T.);
#368=FACE_BOUND('',#328,.T.);
#369=FACE_BOUND('',#329,.T.);
#370=FACE_BOUND('',#330,.T.);
#371=FACE_BOUND('',#331,.T.);
#372=FACE_BOUND('',#332,.T.);
#373=FACE_BOUND('',#333,.T.);
#374=FACE_BOUND('',#334,.T.);
#375=FACE_BOUND('',#335,.T.);
#376=FACE_BOUND('',#336,.T.);
#377=FACE_BOUND('',#337,.T.);
#378=FACE_BOUND('',#338,.T.);
#379=FACE_BOUND('',#339,.T.);
#380=FACE_BOUND('',#340,.T.);
#381=FACE_BOUND('',#341,.T.);
#382=FACE_BOUND('',#342,.T.);
#383=FACE_BOUND('',#343,.T.);
#384=FACE_BOUND('',#344,.T.);
#385=FACE_BOUND('',#345,.T.);
#386=FACE_BOUND('',#346,.T.);
#387=FACE_BOUND('',#347,.T.);
#388=FACE_BOUND('',#348,.T.);
#389=FACE_BOUND('',#349,.T.);
#390=FACE_BOUND('',#350,.T.);
#391=FACE_BOUND('',#351,.T.);
#392=FACE_BOUND('',#352,.T.);
#393=FACE_BOUND('',#353,.T.);
#394=FACE_BOUND('',#354,.T.);
#395=CYLINDRICAL_SURFACE('',#445,0.0018);
#396=CYLINDRICAL_SURFACE('',#448,0.0018);
#397=CYLINDRICAL_SURFACE('',#451,0.01);
#398=CYLINDRICAL_SURFACE('',#456,0.005);
#399=CYLINDRICAL_SURFACE('',#460,0.005);
#400=CYLINDRICAL_SURFACE('',#464,0.005);
#401=CYLINDRICAL_SURFACE('',#468,0.0028);
#402=CYLINDRICAL_SURFACE('',#475,0.001);
#403=CYLINDRICAL_SURFACE('',#477,0.001);
#404=CYLINDRICAL_SURFACE('',#482,0.005);
#405=CYLINDRICAL_SURFACE('',#484,0.0028);
#406=CYLINDRICAL_SURFACE('',#489,0.0029);
#407=CYLINDRICAL_SURFACE('',#492,0.0029);
#408=ADVANCED_FACE('',(#355,#356),#395,.F.);
#409=ADVANCED_FACE('',(#357,#358),#396,.F.);
#410=ADVANCED_FACE('',(#359),#397,.F.);
#411=ADVANCED_FACE('',(#360),#20,.F.);
#412=ADVANCED_FACE('',(#361),#21,.T.);
#413=ADVANCED_FACE('',(#362),#398,.T.);
#414=ADVANCED_FACE('',(#363),#22,.T.);
#415=ADVANCED_FACE('',(#364),#399,.T.);
#416=ADVANCED_FACE('',(#365),#23,.F.);
#417=ADVANCED_FACE('',(#366),#400,.T.);
#418=ADVANCED_FACE('',(#367),#24,.F.);
#419=ADVANCED_FACE('',(#368,#369),#401,.F.);
#420=ADVANCED_FACE('',(#370),#25,.T.);
#421=ADVANCED_FACE('',(#371,#372,#373,#374),#26,.F.);
#422=ADVANCED_FACE('',(#375),#402,.T.);
#423=ADVANCED_FACE('',(#376),#403,.T.);
#424=ADVANCED_FACE('',(#377,#378),#27,.F.);
#425=ADVANCED_FACE('',(#379),#404,.T.);
#426=ADVANCED_FACE('',(#380,#381),#405,.F.);
#427=ADVANCED_FACE('',(#382,#383,#384,#385,#386),#28,.T.);
#428=ADVANCED_FACE('',(#387,#388),#406,.F.);
#429=ADVANCED_FACE('',(#389,#390),#29,.T.);
#430=ADVANCED_FACE('',(#391,#392),#407,.F.);
#431=ADVANCED_FACE('',(#393,#394),#30,.T.);
#432=CLOSED_SHELL('',(#408,#409,#410,#411,#412,#413,#414,#415,#416,#417,
#418,#419,#420,#421,#422,#423,#424,#425,#426,#427,#428,#429,#430,#431));
#433=STYLED_ITEM('',(#434),#441);
#434=PRESENTATION_STYLE_ASSIGNMENT((#435));
#435=SURFACE_STYLE_USAGE(.BOTH.,#436);
#436=SURFACE_SIDE_STYLE('',(#437));
#437=SURFACE_STYLE_FILL_AREA(#438);
#438=FILL_AREA_STYLE('',(#439));
#439=FILL_AREA_STYLE_COLOUR('',#440);
#440=COLOUR_RGB('',0.647058823529412,0.647058823529412,0.647058823529412);
#441=MANIFOLD_SOLID_BREP('Right Upper Cart Upper Mold',#432);
#442=SHAPE_DEFINITION_REPRESENTATION(#750,#443);
#443=SHAPE_REPRESENTATION('Right Upper Cart Upper Mold',(#444),#745);
#444=AXIS2_PLACEMENT_3D('',#625,#495,#496);
#445=AXIS2_PLACEMENT_3D('',#626,#497,#498);
#446=AXIS2_PLACEMENT_3D('',#627,#499,#500);
#447=AXIS2_PLACEMENT_3D('',#629,#501,#502);
#448=AXIS2_PLACEMENT_3D('',#631,#503,#504);
#449=AXIS2_PLACEMENT_3D('',#632,#505,#506);
#450=AXIS2_PLACEMENT_3D('',#634,#507,#508);
#451=AXIS2_PLACEMENT_3D('',#636,#509,#510);
#452=AXIS2_PLACEMENT_3D('',#637,#511,#512);
#453=AXIS2_PLACEMENT_3D('',#642,#514,#515);
#454=AXIS2_PLACEMENT_3D('',#645,#517,#518);
#455=AXIS2_PLACEMENT_3D('',#651,#522,#523);
#456=AXIS2_PLACEMENT_3D('',#664,#530,#531);
#457=AXIS2_PLACEMENT_3D('',#665,#532,#533);
#458=AXIS2_PLACEMENT_3D('',#669,#535,#536);
#459=AXIS2_PLACEMENT_3D('',#670,#537,#538);
#460=AXIS2_PLACEMENT_3D('',#676,#542,#543);
#461=AXIS2_PLACEMENT_3D('',#677,#544,#545);
#462=AXIS2_PLACEMENT_3D('',#681,#547,#548);
#463=AXIS2_PLACEMENT_3D('',#682,#549,#550);
#464=AXIS2_PLACEMENT_3D('',#688,#554,#555);
#465=AXIS2_PLACEMENT_3D('',#689,#556,#557);
#466=AXIS2_PLACEMENT_3D('',#693,#559,#560);
#467=AXIS2_PLACEMENT_3D('',#694,#561,#562);
#468=AXIS2_PLACEMENT_3D('',#704,#568,#569);
#469=AXIS2_PLACEMENT_3D('',#705,#570,#571);
#470=AXIS2_PLACEMENT_3D('',#707,#572,#573);
#471=AXIS2_PLACEMENT_3D('',#709,#574,#575);
#472=AXIS2_PLACEMENT_3D('',#715,#579,#580);
#473=AXIS2_PLACEMENT_3D('',#716,#581,#582);
#474=AXIS2_PLACEMENT_3D('',#717,#583,#584);
#475=AXIS2_PLACEMENT_3D('',#718,#585,#586);
#476=AXIS2_PLACEMENT_3D('',#719,#587,#588);
#477=AXIS2_PLACEMENT_3D('',#720,#589,#590);
#478=AXIS2_PLACEMENT_3D('',#721,#591,#592);
#479=AXIS2_PLACEMENT_3D('',#722,#593,#594);
#480=AXIS2_PLACEMENT_3D('',#723,#595,#596);
#481=AXIS2_PLACEMENT_3D('',#725,#597,#598);
#482=AXIS2_PLACEMENT_3D('',#726,#599,#600);
#483=AXIS2_PLACEMENT_3D('',#727,#601,#602);
#484=AXIS2_PLACEMENT_3D('',#728,#603,#604);
#485=AXIS2_PLACEMENT_3D('',#729,#605,#606);
#486=AXIS2_PLACEMENT_3D('',#731,#607,#608);
#487=AXIS2_PLACEMENT_3D('',#732,#609,#610);
#488=AXIS2_PLACEMENT_3D('',#734,#611,#612);
#489=AXIS2_PLACEMENT_3D('',#736,#613,#614);
#490=AXIS2_PLACEMENT_3D('',#737,#615,#616);
#491=AXIS2_PLACEMENT_3D('',#739,#617,#618);
#492=AXIS2_PLACEMENT_3D('',#740,#619,#620);
#493=AXIS2_PLACEMENT_3D('',#741,#621,#622);
#494=AXIS2_PLACEMENT_3D('',#743,#623,#624);
#495=DIRECTION('',(0.,0.,1.));
#496=DIRECTION('',(1.,0.,0.));
#497=DIRECTION('',(0.,0.,1.));
#498=DIRECTION('',(1.,0.,0.));
#499=DIRECTION('',(0.,0.,1.));
#500=DIRECTION('',(1.,0.,0.));
#501=DIRECTION('',(0.,0.,1.));
#502=DIRECTION('',(1.,0.,0.));
#503=DIRECTION('',(0.,0.,1.));
#504=DIRECTION('',(1.,0.,0.));
#505=DIRECTION('',(0.,0.,1.));
#506=DIRECTION('',(1.,0.,0.));
#507=DIRECTION('',(0.,0.,1.));
#508=DIRECTION('',(1.,0.,0.));
#509=DIRECTION('',(0.,0.,-1.));
#510=DIRECTION('',(-1.,0.,0.));
#511=DIRECTION('',(0.,0.,-1.));
#512=DIRECTION('',(-1.,0.,0.));
#513=DIRECTION('',(0.,0.,-1.));
#514=DIRECTION('',(0.,0.,-1.));
#515=DIRECTION('',(-1.,0.,0.));
#516=DIRECTION('',(0.,0.,-1.));
#517=DIRECTION('',(0.,-1.,0.));
#518=DIRECTION('',(0.,0.,-1.));
#519=DIRECTION('',(-1.,0.,0.));
#520=DIRECTION('',(0.,0.,-1.));
#521=DIRECTION('',(-1.,0.,0.));
#522=DIRECTION('',(-1.,0.,0.));
#523=DIRECTION('',(0.,0.,1.));
#524=DIRECTION('',(0.,0.,-1.));
#525=DIRECTION('',(0.,1.,0.));
#526=DIRECTION('',(0.,0.,-1.));
#527=DIRECTION('',(0.,1.,0.));
#528=DIRECTION('',(0.,0.,-1.));
#529=DIRECTION('',(0.,1.,0.));
#530=DIRECTION('',(0.,0.,-1.));
#531=DIRECTION('',(-1.,0.,0.));
#532=DIRECTION('',(0.,0.,1.));
#533=DIRECTION('',(-1.,0.,0.));
#534=DIRECTION('',(0.,0.,-1.));
#535=DIRECTION('',(0.,0.,1.));
#536=DIRECTION('',(-1.,0.,0.));
#537=DIRECTION('',(0.,-1.,0.));
#538=DIRECTION('',(0.,0.,-1.));
#539=DIRECTION('',(-1.,0.,0.));
#540=DIRECTION('',(0.,0.,-1.));
#541=DIRECTION('',(-1.,0.,0.));
#542=DIRECTION('',(0.,0.,-1.));
#543=DIRECTION('',(-1.,0.,0.));
#544=DIRECTION('',(0.,0.,1.));
#545=DIRECTION('',(-1.,0.,0.));
#546=DIRECTION('',(0.,0.,-1.));
#547=DIRECTION('',(0.,0.,1.));
#548=DIRECTION('',(-1.,0.,0.));
#549=DIRECTION('',(-1.,0.,0.));
#550=DIRECTION('',(0.,0.,1.));
#551=DIRECTION('',(0.,1.,0.));
#552=DIRECTION('',(0.,0.,-1.));
#553=DIRECTION('',(0.,1.,0.));
#554=DIRECTION('',(0.,0.,-1.));
#555=DIRECTION('',(-1.,0.,0.));
#556=DIRECTION('',(0.,0.,1.));
#557=DIRECTION('',(-1.,0.,0.));
#558=DIRECTION('',(0.,0.,-1.));
#559=DIRECTION('',(0.,0.,1.));
#560=DIRECTION('',(-1.,0.,0.));
#561=DIRECTION('',(0.,-1.,0.));
#562=DIRECTION('',(0.,0.,-1.));
#563=DIRECTION('',(-1.,0.,0.));
#564=DIRECTION('',(0.,0.,-1.));
#565=DIRECTION('',(-1.,0.,0.));
#566=DIRECTION('',(0.,0.,-1.));
#567=DIRECTION('',(-1.,0.,0.));
#568=DIRECTION('',(0.,0.,-1.));
#569=DIRECTION('',(-1.,0.,0.));
#570=DIRECTION('',(0.,0.,-1.));
#571=DIRECTION('',(-1.,0.,0.));
#572=DIRECTION('',(0.,0.,-1.));
#573=DIRECTION('',(-1.,0.,0.));
#574=DIRECTION('',(-1.,0.,0.));
#575=DIRECTION('',(0.,0.,1.));
#576=DIRECTION('',(0.,1.,0.));
#577=DIRECTION('',(0.,0.,-1.));
#578=DIRECTION('',(0.,1.,0.));
#579=DIRECTION('',(0.,0.,1.));
#580=DIRECTION('',(-1.,0.,0.));
#581=DIRECTION('',(0.,0.,1.));
#582=DIRECTION('',(1.,0.,0.));
#583=DIRECTION('',(0.,0.,1.));
#584=DIRECTION('',(1.,0.,0.));
#585=DIRECTION('',(0.,0.,1.));
#586=DIRECTION('',(1.,0.,0.));
#587=DIRECTION('',(0.,0.,1.));
#588=DIRECTION('',(1.,0.,0.));
#589=DIRECTION('',(0.,0.,1.));
#590=DIRECTION('',(1.,0.,0.));
#591=DIRECTION('',(0.,0.,1.));
#592=DIRECTION('',(1.,0.,0.));
#593=DIRECTION('',(0.,0.,1.));
#594=DIRECTION('',(-1.,0.,0.));
#595=DIRECTION('',(0.,0.,-1.));
#596=DIRECTION('',(-1.,0.,0.));
#597=DIRECTION('',(0.,0.,1.));
#598=DIRECTION('',(-1.,0.,0.));
#599=DIRECTION('',(0.,0.,-1.));
#600=DIRECTION('',(-1.,0.,0.));
#601=DIRECTION('',(0.,0.,1.));
#602=DIRECTION('',(-1.,0.,0.));
#603=DIRECTION('',(0.,0.,-1.));
#604=DIRECTION('',(-1.,0.,0.));
#605=DIRECTION('',(0.,0.,-1.));
#606=DIRECTION('',(-1.,0.,0.));
#607=DIRECTION('',(0.,0.,1.));
#608=DIRECTION('',(-1.,0.,0.));
#609=DIRECTION('',(0.,0.,1.));
#610=DIRECTION('',(1.,0.,0.));
#611=DIRECTION('',(0.,0.,1.));
#612=DIRECTION('',(1.,0.,0.));
#613=DIRECTION('',(0.,0.,1.));
#614=DIRECTION('',(1.,0.,0.));
#615=DIRECTION('',(0.,0.,1.));
#616=DIRECTION('',(1.,0.,0.));
#617=DIRECTION('',(0.,0.,1.));
#618=DIRECTION('',(1.,0.,0.));
#619=DIRECTION('',(0.,0.,1.));
#620=DIRECTION('',(1.,0.,0.));
#621=DIRECTION('',(0.,0.,1.));
#622=DIRECTION('',(1.,0.,0.));
#623=DIRECTION('',(0.,0.,1.));
#624=DIRECTION('',(1.,0.,0.));
#625=CARTESIAN_POINT('',(0.,0.,0.));
#626=CARTESIAN_POINT('',(0.00698168614282426,0.0136116861428243,0.029248));
#627=CARTESIAN_POINT('',(0.00698168614282426,0.0136116861428243,0.02925));
#628=CARTESIAN_POINT('',(0.00878168614282426,0.0136116861428243,0.02925));
#629=CARTESIAN_POINT('',(0.00698168614282426,0.0136116861428243,0.04175));
#630=CARTESIAN_POINT('',(0.00878168614282426,0.0136116861428243,0.04175));
#631=CARTESIAN_POINT('',(-0.00761168614282408,-0.000981686142824297,0.029248));
#632=CARTESIAN_POINT('',(-0.00761168614282408,-0.000981686142824297,0.02925));
#633=CARTESIAN_POINT('',(-0.00581168614282408,-0.000981686142824297,0.02925));
#634=CARTESIAN_POINT('',(-0.00761168614282408,-0.000981686142824297,0.04175));
#635=CARTESIAN_POINT('',(-0.00581168614282408,-0.000981686142824297,0.04175));
#636=CARTESIAN_POINT('',(-0.00663,0.01263,0.03975));
#637=CARTESIAN_POINT('',(-0.00663,0.01263,0.02925));
#638=CARTESIAN_POINT('',(0.00337,0.01263,0.02925));
#639=CARTESIAN_POINT('',(-0.00663,0.00263,0.02925));
#640=CARTESIAN_POINT('',(-0.00663,0.00263,0.03975));
#641=CARTESIAN_POINT('',(-0.00663,0.00263,0.03975));
#642=CARTESIAN_POINT('',(-0.00663,0.01263,0.03975));
#643=CARTESIAN_POINT('',(0.00337,0.01263,0.03975));
#644=CARTESIAN_POINT('',(0.00337,0.01263,0.03975));
#645=CARTESIAN_POINT('',(-0.00913,0.00263,0.03975));
#646=CARTESIAN_POINT('',(-0.00913,0.00263,0.02925));
#647=CARTESIAN_POINT('',(-0.01063,0.00263,0.02925));
#648=CARTESIAN_POINT('',(-0.01063,0.00263,0.03975));
#649=CARTESIAN_POINT('',(-0.01063,0.00263,0.03975));
#650=CARTESIAN_POINT('',(-0.00913,0.00263,0.03975));
#651=CARTESIAN_POINT('',(-0.01163,0.001315,0.03975));
#652=CARTESIAN_POINT('',(-0.01163,8.67361737988404E-19,0.03975));
#653=CARTESIAN_POINT('',(-0.01163,8.67361737988404E-19,0.04475));
#654=CARTESIAN_POINT('',(-0.01163,8.67361737988404E-19,0.02925));
#655=CARTESIAN_POINT('',(-0.01163,0.001315,0.04475));
#656=CARTESIAN_POINT('',(-0.01163,0.01263,0.04475));
#657=CARTESIAN_POINT('',(-0.01163,0.01263,0.04475));
#658=CARTESIAN_POINT('',(-0.01163,0.01263,0.03975));
#659=CARTESIAN_POINT('',(-0.01163,0.001315,0.03975));
#660=CARTESIAN_POINT('',(-0.01163,0.00163,0.03975));
#661=CARTESIAN_POINT('',(-0.01163,0.00163,0.02925));
#662=CARTESIAN_POINT('',(-0.01163,0.00163,0.02925));
#663=CARTESIAN_POINT('',(-0.01163,0.001315,0.02925));
#664=CARTESIAN_POINT('',(-0.00663,6.50723957650102E-19,0.03975));
#665=CARTESIAN_POINT('',(-0.00663,6.50723957650102E-19,0.02925));
#666=CARTESIAN_POINT('',(-0.00663,-0.005,0.02925));
#667=CARTESIAN_POINT('',(-0.00663,-0.005,0.03975));
#668=CARTESIAN_POINT('',(-0.00663,-0.005,0.04475));
#669=CARTESIAN_POINT('',(-0.00663,6.50723957650102E-19,0.04475));
#670=CARTESIAN_POINT('',(0.0016698729810778,-0.005,0.03975));
#671=CARTESIAN_POINT('',(0.0016698729810778,-0.005,0.02925));
#672=CARTESIAN_POINT('',(0.006,-0.005,0.02925));
#673=CARTESIAN_POINT('',(0.006,-0.005,0.03975));
#674=CARTESIAN_POINT('',(0.006,-0.005,0.04475));
#675=CARTESIAN_POINT('',(0.0016698729810778,-0.005,0.04475));
#676=CARTESIAN_POINT('',(0.006,7.14280888094984E-19,0.03975));
#677=CARTESIAN_POINT('',(0.006,7.14280888094984E-19,0.02925));
#678=CARTESIAN_POINT('',(0.011,5.61200038201565E-19,0.02925));
#679=CARTESIAN_POINT('',(0.011,5.61200038201565E-19,0.03975));
#680=CARTESIAN_POINT('',(0.011,5.61200038201565E-19,0.04475));
#681=CARTESIAN_POINT('',(0.006,7.14280888094984E-19,0.04475));
#682=CARTESIAN_POINT('',(0.011,0.0106451270189222,0.03975));
#683=CARTESIAN_POINT('',(0.011,0.0106451270189222,0.02925));
#684=CARTESIAN_POINT('',(0.011,0.01263,0.02925));
#685=CARTESIAN_POINT('',(0.011,0.01263,0.03975));
#686=CARTESIAN_POINT('',(0.011,0.01263,0.04475));
#687=CARTESIAN_POINT('',(0.011,0.00433012701892219,0.04475));
#688=CARTESIAN_POINT('',(0.006,0.01263,0.03975));
#689=CARTESIAN_POINT('',(0.006,0.01263,0.02925));
#690=CARTESIAN_POINT('',(0.006,0.01763,0.02925));
#691=CARTESIAN_POINT('',(0.006,0.01763,0.03975));
#692=CARTESIAN_POINT('',(0.006,0.01763,0.04475));
#693=CARTESIAN_POINT('',(0.006,0.01263,0.04475));
#694=CARTESIAN_POINT('',(0.004685,0.01763,0.03975));
#695=CARTESIAN_POINT('',(0.004685,0.01763,0.02925));
#696=CARTESIAN_POINT('',(0.00437,0.01763,0.02925));
#697=CARTESIAN_POINT('',(0.00437,0.01763,0.03975));
#698=CARTESIAN_POINT('',(0.00437,0.01763,0.03975));
#699=CARTESIAN_POINT('',(0.004685,0.01763,0.03975));
#700=CARTESIAN_POINT('',(-0.00663,0.01763,0.03975));
#701=CARTESIAN_POINT('',(-0.00663,0.01763,0.04475));
#702=CARTESIAN_POINT('',(-0.00663,0.01763,0.04475));
#703=CARTESIAN_POINT('',(0.004685,0.01763,0.04475));
#704=CARTESIAN_POINT('',(0.006,1.71450551880629E-19,0.03975));
#705=CARTESIAN_POINT('',(0.006,1.71450551880629E-19,0.02925));
#706=CARTESIAN_POINT('',(0.0032,1.71450551880629E-19,0.02925));
#707=CARTESIAN_POINT('',(0.006,1.71450551880629E-19,0.04475));
#708=CARTESIAN_POINT('',(0.0032,1.71450551880629E-19,0.04475));
#709=CARTESIAN_POINT('',(0.00337,0.01513,0.03975));
#710=CARTESIAN_POINT('',(0.00337,0.01513,0.03975));
#711=CARTESIAN_POINT('',(0.00337,0.01663,0.03975));
#712=CARTESIAN_POINT('',(0.00337,0.01663,0.02925));
#713=CARTESIAN_POINT('',(0.00337,0.01663,0.02925));
#714=CARTESIAN_POINT('',(0.00337,0.01513,0.02925));
#715=CARTESIAN_POINT('',(2.22044604925032E-16,0.00849999999999973,0.02925));
#716=CARTESIAN_POINT('',(-0.01063,0.00163,0.02925));
#717=CARTESIAN_POINT('',(0.00437,0.01663,0.02925));
#718=CARTESIAN_POINT('',(-0.01063,0.00163,0.03975));
#719=CARTESIAN_POINT('',(-0.01063,0.00163,0.03975));
#720=CARTESIAN_POINT('',(0.00437,0.01663,0.03975));
#721=CARTESIAN_POINT('',(0.00437,0.01663,0.03975));
#722=CARTESIAN_POINT('',(2.22044604925032E-16,0.00849999999999973,0.03975));
#723=CARTESIAN_POINT('',(-0.00663,0.01263,0.03975));
#724=CARTESIAN_POINT('',(-0.00943,0.01263,0.03975));
#725=CARTESIAN_POINT('',(-0.00663,0.01263,0.03975));
#726=CARTESIAN_POINT('',(-0.00663,0.01263,0.04475));
#727=CARTESIAN_POINT('',(-0.00663,0.01263,0.04475));
#728=CARTESIAN_POINT('',(-0.00663,0.01263,0.04475));
#729=CARTESIAN_POINT('',(-0.00663,0.01263,0.04475));
#730=CARTESIAN_POINT('',(-0.00943,0.01263,0.04475));
#731=CARTESIAN_POINT('',(2.22044604925032E-16,0.00849999999999973,0.04475));
#732=CARTESIAN_POINT('',(0.00698168614282426,0.0136116861428243,0.04475));
#733=CARTESIAN_POINT('',(0.00988168614282426,0.0136116861428243,0.04475));
#734=CARTESIAN_POINT('',(-0.00761168614282408,-0.000981686142824296,0.04475));
#735=CARTESIAN_POINT('',(-0.00471168614282408,-0.000981686142824296,0.04475));
#736=CARTESIAN_POINT('',(-0.00761168614282408,-0.000981686142824296,0.04175));
#737=CARTESIAN_POINT('',(-0.00761168614282408,-0.000981686142824296,0.04175));
#738=CARTESIAN_POINT('',(-0.00471168614282408,-0.000981686142824296,0.04175));
#739=CARTESIAN_POINT('',(-0.000314999999999996,0.006315,0.04175));
#740=CARTESIAN_POINT('',(0.00698168614282426,0.0136116861428243,0.04175));
#741=CARTESIAN_POINT('',(0.00698168614282426,0.0136116861428243,0.04175));
#742=CARTESIAN_POINT('',(0.00988168614282426,0.0136116861428243,0.04175));
#743=CARTESIAN_POINT('',(-0.000314999999999996,0.006315,0.04175));
#744=MECHANICAL_DESIGN_GEOMETRIC_PRESENTATION_REPRESENTATION('',(#433),
#745);
#745=(
GEOMETRIC_REPRESENTATION_CONTEXT(3)
GLOBAL_UNCERTAINTY_ASSIGNED_CONTEXT((#746))
GLOBAL_UNIT_ASSIGNED_CONTEXT((#749,#748,#747))
REPRESENTATION_CONTEXT('Right Upper Cart Upper Mold',
'TOP_LEVEL_ASSEMBLY_PART')
);
#746=UNCERTAINTY_MEASURE_WITH_UNIT(LENGTH_MEASURE(1.E-8),#749,
'DISTANCE_ACCURACY_VALUE','Maximum Tolerance applied to model');
#747=(
NAMED_UNIT(*)
SI_UNIT($,.STERADIAN.)
SOLID_ANGLE_UNIT()
);
#748=(
NAMED_UNIT(*)
PLANE_ANGLE_UNIT()
SI_UNIT($,.RADIAN.)
);
#749=(
LENGTH_UNIT()
NAMED_UNIT(*)
SI_UNIT($,.METRE.)
);
#750=PRODUCT_DEFINITION_SHAPE('','',#751);
#751=PRODUCT_DEFINITION('','',#753,#752);
#752=PRODUCT_DEFINITION_CONTEXT('',#759,'design');
#753=PRODUCT_DEFINITION_FORMATION_WITH_SPECIFIED_SOURCE('','',#755,
 .NOT_KNOWN.);
#754=PRODUCT_RELATED_PRODUCT_CATEGORY('','',(#755));
#755=PRODUCT('Right Upper Cart Upper Mold',
'Right Upper Cart Upper Mold','Right Upper Cart Upper Mold',(#757));
#756=PRODUCT_CATEGORY('','');
#757=PRODUCT_CONTEXT('',#759,'mechanical');
#758=APPLICATION_PROTOCOL_DEFINITION('international standard',
'automotive_design',2010,#759);
#759=APPLICATION_CONTEXT(
'core data for automotive mechanical design processes');
ENDSEC;
END-ISO-10303-21;
