ISO-10303-21;
HEADER;
/* Generated by software containing ST-Developer
 * from STEP Tools, Inc. (www.steptools.com) 
 */
/* OPTION: using custom renumber hook */

FILE_DESCRIPTION(
/* description */ ('STEP AP214',
'CAx-IF Rec.Pracs.---User Defined Attributes---1.5---2016-08-15'),
/* implementation_level */ '2;1');

FILE_NAME(
/* name */ '6a95da36d62aea1f597615b7',
/* time_stamp */ '2026-08-31T19:47:02Z',
/* author */ (''),
/* organization */ (''),
/* preprocessor_version */ 'ST-DEVELOPER v20',
/* originating_system */ 'ONSHAPE BY PTC INC, 1.220',
/* authorisation */ '  ');

FILE_SCHEMA (('AUTOMOTIVE_DESIGN {1 0 10303 214 3 1 1}'));
ENDSEC;

DATA;
#10=PROPERTY_DEFINITION_REPRESENTATION(#14,#12);
#11=PROPERTY_DEFINITION_REPRESENTATION(#15,#13);
#12=REPRESENTATION('',(#16),#2417);
#13=REPRESENTATION('',(#17),#2417);
#14=PROPERTY_DEFINITION('pmi validation property','',#2422);
#15=PROPERTY_DEFINITION('pmi validation property','',#2422);
#16=VALUE_REPRESENTATION_ITEM('number of annotations',COUNT_MEASURE(0.));
#17=VALUE_REPRESENTATION_ITEM('number of views',COUNT_MEASURE(0.));
#18=SHAPE_REPRESENTATION_RELATIONSHIP('','',#1523,#19);
#19=ADVANCED_BREP_SHAPE_REPRESENTATION('',(#1521),#2417);
#20=CYLINDRICAL_SURFACE('',#1530,0.0028);
#21=CYLINDRICAL_SURFACE('',#1533,0.0028);
#22=CYLINDRICAL_SURFACE('',#1536,0.0028);
#23=CYLINDRICAL_SURFACE('',#1539,0.0028);
#24=CYLINDRICAL_SURFACE('',#1542,0.017);
#25=CYLINDRICAL_SURFACE('',#1549,0.017);
#26=CYLINDRICAL_SURFACE('',#1619,0.0018);
#27=CYLINDRICAL_SURFACE('',#1620,0.0018);
#28=LINE('',#2005,#212);
#29=LINE('',#2008,#213);
#30=LINE('',#2010,#214);
#31=LINE('',#2012,#215);
#32=LINE('',#2014,#216);
#33=LINE('',#2016,#217);
#34=LINE('',#2017,#218);
#35=LINE('',#2020,#219);
#36=LINE('',#2022,#220);
#37=LINE('',#2024,#221);
#38=LINE('',#2026,#222);
#39=LINE('',#2028,#223);
#40=LINE('',#2032,#224);
#41=LINE('',#2036,#225);
#42=LINE('',#2038,#226);
#43=LINE('',#2040,#227);
#44=LINE('',#2042,#228);
#45=LINE('',#2044,#229);
#46=LINE('',#2046,#230);
#47=LINE('',#2048,#231);
#48=LINE('',#2049,#232);
#49=LINE('',#2052,#233);
#50=LINE('',#2054,#234);
#51=LINE('',#2056,#235);
#52=LINE('',#2058,#236);
#53=LINE('',#2060,#237);
#54=LINE('',#2061,#238);
#55=LINE('',#2064,#239);
#56=LINE('',#2066,#240);
#57=LINE('',#2068,#241);
#58=LINE('',#2070,#242);
#59=LINE('',#2072,#243);
#60=LINE('',#2097,#244);
#61=LINE('',#2098,#245);
#62=LINE('',#2100,#246);
#63=LINE('',#2102,#247);
#64=LINE('',#2104,#248);
#65=LINE('',#2106,#249);
#66=LINE('',#2108,#250);
#67=LINE('',#2111,#251);
#68=LINE('',#2112,#252);
#69=LINE('',#2114,#253);
#70=LINE('',#2117,#254);
#71=LINE('',#2118,#255);
#72=LINE('',#2120,#256);
#73=LINE('',#2122,#257);
#74=LINE('',#2126,#258);
#75=LINE('',#2128,#259);
#76=LINE('',#2134,#260);
#77=LINE('',#2136,#261);
#78=LINE('',#2138,#262);
#79=LINE('',#2139,#263);
#80=LINE('',#2141,#264);
#81=LINE('',#2143,#265);
#82=LINE('',#2145,#266);
#83=LINE('',#2148,#267);
#84=LINE('',#2150,#268);
#85=LINE('',#2152,#269);
#86=LINE('',#2154,#270);
#87=LINE('',#2156,#271);
#88=LINE('',#2158,#272);
#89=LINE('',#2160,#273);
#90=LINE('',#2162,#274);
#91=LINE('',#2164,#275);
#92=LINE('',#2166,#276);
#93=LINE('',#2168,#277);
#94=LINE('',#2170,#278);
#95=LINE('',#2172,#279);
#96=LINE('',#2174,#280);
#97=LINE('',#2176,#281);
#98=LINE('',#2178,#282);
#99=LINE('',#2179,#283);
#100=LINE('',#2182,#284);
#101=LINE('',#2185,#285);
#102=LINE('',#2187,#286);
#103=LINE('',#2189,#287);
#104=LINE('',#2191,#288);
#105=LINE('',#2193,#289);
#106=LINE('',#2195,#290);
#107=LINE('',#2197,#291);
#108=LINE('',#2199,#292);
#109=LINE('',#2201,#293);
#110=LINE('',#2203,#294);
#111=LINE('',#2205,#295);
#112=LINE('',#2207,#296);
#113=LINE('',#2209,#297);
#114=LINE('',#2211,#298);
#115=LINE('',#2213,#299);
#116=LINE('',#2215,#300);
#117=LINE('',#2216,#301);
#118=LINE('',#2219,#302);
#119=LINE('',#2222,#303);
#120=LINE('',#2224,#304);
#121=LINE('',#2226,#305);
#122=LINE('',#2228,#306);
#123=LINE('',#2230,#307);
#124=LINE('',#2232,#308);
#125=LINE('',#2234,#309);
#126=LINE('',#2236,#310);
#127=LINE('',#2238,#311);
#128=LINE('',#2240,#312);
#129=LINE('',#2242,#313);
#130=LINE('',#2244,#314);
#131=LINE('',#2246,#315);
#132=LINE('',#2248,#316);
#133=LINE('',#2250,#317);
#134=LINE('',#2252,#318);
#135=LINE('',#2253,#319);
#136=LINE('',#2256,#320);
#137=LINE('',#2259,#321);
#138=LINE('',#2261,#322);
#139=LINE('',#2263,#323);
#140=LINE('',#2265,#324);
#141=LINE('',#2267,#325);
#142=LINE('',#2269,#326);
#143=LINE('',#2271,#327);
#144=LINE('',#2273,#328);
#145=LINE('',#2275,#329);
#146=LINE('',#2277,#330);
#147=LINE('',#2279,#331);
#148=LINE('',#2281,#332);
#149=LINE('',#2283,#333);
#150=LINE('',#2285,#334);
#151=LINE('',#2287,#335);
#152=LINE('',#2289,#336);
#153=LINE('',#2290,#337);
#154=LINE('',#2293,#338);
#155=LINE('',#2295,#339);
#156=LINE('',#2297,#340);
#157=LINE('',#2299,#341);
#158=LINE('',#2301,#342);
#159=LINE('',#2303,#343);
#160=LINE('',#2305,#344);
#161=LINE('',#2307,#345);
#162=LINE('',#2309,#346);
#163=LINE('',#2311,#347);
#164=LINE('',#2313,#348);
#165=LINE('',#2315,#349);
#166=LINE('',#2318,#350);
#167=LINE('',#2320,#351);
#168=LINE('',#2322,#352);
#169=LINE('',#2324,#353);
#170=LINE('',#2326,#354);
#171=LINE('',#2328,#355);
#172=LINE('',#2330,#356);
#173=LINE('',#2332,#357);
#174=LINE('',#2334,#358);
#175=LINE('',#2336,#359);
#176=LINE('',#2338,#360);
#177=LINE('',#2340,#361);
#178=LINE('',#2343,#362);
#179=LINE('',#2345,#363);
#180=LINE('',#2347,#364);
#181=LINE('',#2349,#365);
#182=LINE('',#2351,#366);
#183=LINE('',#2353,#367);
#184=LINE('',#2355,#368);
#185=LINE('',#2357,#369);
#186=LINE('',#2359,#370);
#187=LINE('',#2361,#371);
#188=LINE('',#2363,#372);
#189=LINE('',#2365,#373);
#190=LINE('',#2368,#374);
#191=LINE('',#2370,#375);
#192=LINE('',#2372,#376);
#193=LINE('',#2374,#377);
#194=LINE('',#2376,#378);
#195=LINE('',#2378,#379);
#196=LINE('',#2380,#380);
#197=LINE('',#2382,#381);
#198=LINE('',#2384,#382);
#199=LINE('',#2386,#383);
#200=LINE('',#2388,#384);
#201=LINE('',#2390,#385);
#202=LINE('',#2393,#386);
#203=LINE('',#2395,#387);
#204=LINE('',#2397,#388);
#205=LINE('',#2399,#389);
#206=LINE('',#2401,#390);
#207=LINE('',#2403,#391);
#208=LINE('',#2405,#392);
#209=LINE('',#2407,#393);
#210=LINE('',#2410,#394);
#211=LINE('',#2412,#395);
#212=VECTOR('',#1629,1.);
#213=VECTOR('',#1630,1.);
#214=VECTOR('',#1631,1.);
#215=VECTOR('',#1632,1.);
#216=VECTOR('',#1633,1.);
#217=VECTOR('',#1634,1.);
#218=VECTOR('',#1635,1.);
#219=VECTOR('',#1636,1.);
#220=VECTOR('',#1637,1.);
#221=VECTOR('',#1638,1.);
#222=VECTOR('',#1639,1.);
#223=VECTOR('',#1640,1.);
#224=VECTOR('',#1643,1.);
#225=VECTOR('',#1646,1.);
#226=VECTOR('',#1647,1.);
#227=VECTOR('',#1648,1.);
#228=VECTOR('',#1649,1.);
#229=VECTOR('',#1650,1.);
#230=VECTOR('',#1651,1.);
#231=VECTOR('',#1652,1.);
#232=VECTOR('',#1653,1.);
#233=VECTOR('',#1654,1.);
#234=VECTOR('',#1655,1.);
#235=VECTOR('',#1656,1.);
#236=VECTOR('',#1657,1.);
#237=VECTOR('',#1658,1.);
#238=VECTOR('',#1659,1.);
#239=VECTOR('',#1660,1.);
#240=VECTOR('',#1661,1.);
#241=VECTOR('',#1662,1.);
#242=VECTOR('',#1663,1.);
#243=VECTOR('',#1664,1.);
#244=VECTOR('',#1693,1.);
#245=VECTOR('',#1694,1.);
#246=VECTOR('',#1697,1.);
#247=VECTOR('',#1698,1.);
#248=VECTOR('',#1701,1.);
#249=VECTOR('',#1702,1.);
#250=VECTOR('',#1705,1.);
#251=VECTOR('',#1706,1.);
#252=VECTOR('',#1707,1.);
#253=VECTOR('',#1710,1.);
#254=VECTOR('',#1711,1.);
#255=VECTOR('',#1712,1.);
#256=VECTOR('',#1715,1.);
#257=VECTOR('',#1716,1.);
#258=VECTOR('',#1721,1.);
#259=VECTOR('',#1724,1.);
#260=VECTOR('',#1731,1.);
#261=VECTOR('',#1732,1.);
#262=VECTOR('',#1733,1.);
#263=VECTOR('',#1734,1.);
#264=VECTOR('',#1735,1.);
#265=VECTOR('',#1736,1.);
#266=VECTOR('',#1739,1.);
#267=VECTOR('',#1740,1.);
#268=VECTOR('',#1741,1.);
#269=VECTOR('',#1742,1.);
#270=VECTOR('',#1745,1.);
#271=VECTOR('',#1746,1.);
#272=VECTOR('',#1747,1.);
#273=VECTOR('',#1750,1.);
#274=VECTOR('',#1751,1.);
#275=VECTOR('',#1752,1.);
#276=VECTOR('',#1755,1.);
#277=VECTOR('',#1756,1.);
#278=VECTOR('',#1757,1.);
#279=VECTOR('',#1760,1.);
#280=VECTOR('',#1761,1.);
#281=VECTOR('',#1762,1.);
#282=VECTOR('',#1765,1.);
#283=VECTOR('',#1766,1.);
#284=VECTOR('',#1771,1.);
#285=VECTOR('',#1772,1.);
#286=VECTOR('',#1773,1.);
#287=VECTOR('',#1774,1.);
#288=VECTOR('',#1777,1.);
#289=VECTOR('',#1778,1.);
#290=VECTOR('',#1779,1.);
#291=VECTOR('',#1782,1.);
#292=VECTOR('',#1783,1.);
#293=VECTOR('',#1784,1.);
#294=VECTOR('',#1787,1.);
#295=VECTOR('',#1788,1.);
#296=VECTOR('',#1789,1.);
#297=VECTOR('',#1792,1.);
#298=VECTOR('',#1793,1.);
#299=VECTOR('',#1794,1.);
#300=VECTOR('',#1797,1.);
#301=VECTOR('',#1798,1.);
#302=VECTOR('',#1803,1.);
#303=VECTOR('',#1804,1.);
#304=VECTOR('',#1805,1.);
#305=VECTOR('',#1806,1.);
#306=VECTOR('',#1809,1.);
#307=VECTOR('',#1810,1.);
#308=VECTOR('',#1811,1.);
#309=VECTOR('',#1814,1.);
#310=VECTOR('',#1815,1.);
#311=VECTOR('',#1816,1.);
#312=VECTOR('',#1819,1.);
#313=VECTOR('',#1820,1.);
#314=VECTOR('',#1821,1.);
#315=VECTOR('',#1824,1.);
#316=VECTOR('',#1825,1.);
#317=VECTOR('',#1826,1.);
#318=VECTOR('',#1829,1.);
#319=VECTOR('',#1830,1.);
#320=VECTOR('',#1835,1.);
#321=VECTOR('',#1836,1.);
#322=VECTOR('',#1837,1.);
#323=VECTOR('',#1838,1.);
#324=VECTOR('',#1841,1.);
#325=VECTOR('',#1842,1.);
#326=VECTOR('',#1843,1.);
#327=VECTOR('',#1846,1.);
#328=VECTOR('',#1847,1.);
#329=VECTOR('',#1848,1.);
#330=VECTOR('',#1851,1.);
#331=VECTOR('',#1852,1.);
#332=VECTOR('',#1853,1.);
#333=VECTOR('',#1856,1.);
#334=VECTOR('',#1857,1.);
#335=VECTOR('',#1858,1.);
#336=VECTOR('',#1861,1.);
#337=VECTOR('',#1862,1.);
#338=VECTOR('',#1867,1.);
#339=VECTOR('',#1868,1.);
#340=VECTOR('',#1869,1.);
#341=VECTOR('',#1872,1.);
#342=VECTOR('',#1873,1.);
#343=VECTOR('',#1876,1.);
#344=VECTOR('',#1877,1.);
#345=VECTOR('',#1880,1.);
#346=VECTOR('',#1881,1.);
#347=VECTOR('',#1884,1.);
#348=VECTOR('',#1885,1.);
#349=VECTOR('',#1888,1.);
#350=VECTOR('',#1893,1.);
#351=VECTOR('',#1894,1.);
#352=VECTOR('',#1895,1.);
#353=VECTOR('',#1898,1.);
#354=VECTOR('',#1899,1.);
#355=VECTOR('',#1902,1.);
#356=VECTOR('',#1903,1.);
#357=VECTOR('',#1906,1.);
#358=VECTOR('',#1907,1.);
#359=VECTOR('',#1910,1.);
#360=VECTOR('',#1911,1.);
#361=VECTOR('',#1914,1.);
#362=VECTOR('',#1919,1.);
#363=VECTOR('',#1920,1.);
#364=VECTOR('',#1921,1.);
#365=VECTOR('',#1924,1.);
#366=VECTOR('',#1925,1.);
#367=VECTOR('',#1928,1.);
#368=VECTOR('',#1929,1.);
#369=VECTOR('',#1932,1.);
#370=VECTOR('',#1933,1.);
#371=VECTOR('',#1936,1.);
#372=VECTOR('',#1937,1.);
#373=VECTOR('',#1940,1.);
#374=VECTOR('',#1945,1.);
#375=VECTOR('',#1946,1.);
#376=VECTOR('',#1947,1.);
#377=VECTOR('',#1950,1.);
#378=VECTOR('',#1951,1.);
#379=VECTOR('',#1954,1.);
#380=VECTOR('',#1955,1.);
#381=VECTOR('',#1958,1.);
#382=VECTOR('',#1959,1.);
#383=VECTOR('',#1962,1.);
#384=VECTOR('',#1963,1.);
#385=VECTOR('',#1966,1.);
#386=VECTOR('',#1971,1.);
#387=VECTOR('',#1972,1.);
#388=VECTOR('',#1973,1.);
#389=VECTOR('',#1976,1.);
#390=VECTOR('',#1977,1.);
#391=VECTOR('',#1978,1.);
#392=VECTOR('',#1981,1.);
#393=VECTOR('',#1984,1.);
#394=VECTOR('',#1989,1.);
#395=VECTOR('',#1992,1.);
#396=ORIENTED_EDGE('',*,*,#796,.F.);
#397=ORIENTED_EDGE('',*,*,#797,.F.);
#398=ORIENTED_EDGE('',*,*,#798,.T.);
#399=ORIENTED_EDGE('',*,*,#799,.T.);
#400=ORIENTED_EDGE('',*,*,#800,.T.);
#401=ORIENTED_EDGE('',*,*,#801,.T.);
#402=ORIENTED_EDGE('',*,*,#802,.T.);
#403=ORIENTED_EDGE('',*,*,#803,.T.);
#404=ORIENTED_EDGE('',*,*,#804,.T.);
#405=ORIENTED_EDGE('',*,*,#805,.T.);
#406=ORIENTED_EDGE('',*,*,#806,.T.);
#407=ORIENTED_EDGE('',*,*,#807,.T.);
#408=ORIENTED_EDGE('',*,*,#808,.T.);
#409=ORIENTED_EDGE('',*,*,#809,.T.);
#410=ORIENTED_EDGE('',*,*,#810,.T.);
#411=ORIENTED_EDGE('',*,*,#811,.F.);
#412=ORIENTED_EDGE('',*,*,#812,.F.);
#413=ORIENTED_EDGE('',*,*,#813,.T.);
#414=ORIENTED_EDGE('',*,*,#814,.F.);
#415=ORIENTED_EDGE('',*,*,#815,.F.);
#416=ORIENTED_EDGE('',*,*,#816,.F.);
#417=ORIENTED_EDGE('',*,*,#817,.F.);
#418=ORIENTED_EDGE('',*,*,#818,.F.);
#419=ORIENTED_EDGE('',*,*,#819,.F.);
#420=ORIENTED_EDGE('',*,*,#820,.T.);
#421=ORIENTED_EDGE('',*,*,#821,.T.);
#422=ORIENTED_EDGE('',*,*,#822,.T.);
#423=ORIENTED_EDGE('',*,*,#823,.T.);
#424=ORIENTED_EDGE('',*,*,#824,.T.);
#425=ORIENTED_EDGE('',*,*,#825,.T.);
#426=ORIENTED_EDGE('',*,*,#826,.T.);
#427=ORIENTED_EDGE('',*,*,#827,.T.);
#428=ORIENTED_EDGE('',*,*,#828,.T.);
#429=ORIENTED_EDGE('',*,*,#829,.T.);
#430=ORIENTED_EDGE('',*,*,#830,.T.);
#431=ORIENTED_EDGE('',*,*,#831,.T.);
#432=ORIENTED_EDGE('',*,*,#832,.T.);
#433=ORIENTED_EDGE('',*,*,#833,.F.);
#434=ORIENTED_EDGE('',*,*,#834,.T.);
#435=ORIENTED_EDGE('',*,*,#835,.F.);
#436=ORIENTED_EDGE('',*,*,#836,.T.);
#437=ORIENTED_EDGE('',*,*,#837,.F.);
#438=ORIENTED_EDGE('',*,*,#838,.T.);
#439=ORIENTED_EDGE('',*,*,#839,.F.);
#440=ORIENTED_EDGE('',*,*,#840,.T.);
#441=ORIENTED_EDGE('',*,*,#841,.F.);
#442=ORIENTED_EDGE('',*,*,#810,.F.);
#443=ORIENTED_EDGE('',*,*,#842,.T.);
#444=ORIENTED_EDGE('',*,*,#843,.F.);
#445=ORIENTED_EDGE('',*,*,#842,.F.);
#446=ORIENTED_EDGE('',*,*,#819,.T.);
#447=ORIENTED_EDGE('',*,*,#844,.T.);
#448=ORIENTED_EDGE('',*,*,#845,.F.);
#449=ORIENTED_EDGE('',*,*,#844,.F.);
#450=ORIENTED_EDGE('',*,*,#818,.T.);
#451=ORIENTED_EDGE('',*,*,#846,.T.);
#452=ORIENTED_EDGE('',*,*,#847,.F.);
#453=ORIENTED_EDGE('',*,*,#848,.F.);
#454=ORIENTED_EDGE('',*,*,#816,.T.);
#455=ORIENTED_EDGE('',*,*,#849,.T.);
#456=ORIENTED_EDGE('',*,*,#850,.F.);
#457=ORIENTED_EDGE('',*,*,#851,.F.);
#458=ORIENTED_EDGE('',*,*,#814,.T.);
#459=ORIENTED_EDGE('',*,*,#852,.T.);
#460=ORIENTED_EDGE('',*,*,#853,.T.);
#461=ORIENTED_EDGE('',*,*,#852,.F.);
#462=ORIENTED_EDGE('',*,*,#813,.F.);
#463=ORIENTED_EDGE('',*,*,#854,.T.);
#464=ORIENTED_EDGE('',*,*,#855,.F.);
#465=ORIENTED_EDGE('',*,*,#854,.F.);
#466=ORIENTED_EDGE('',*,*,#812,.T.);
#467=ORIENTED_EDGE('',*,*,#856,.T.);
#468=ORIENTED_EDGE('',*,*,#857,.F.);
#469=ORIENTED_EDGE('',*,*,#856,.F.);
#470=ORIENTED_EDGE('',*,*,#811,.T.);
#471=ORIENTED_EDGE('',*,*,#841,.T.);
#472=ORIENTED_EDGE('',*,*,#858,.F.);
#473=ORIENTED_EDGE('',*,*,#859,.F.);
#474=ORIENTED_EDGE('',*,*,#847,.T.);
#475=ORIENTED_EDGE('',*,*,#860,.F.);
#476=ORIENTED_EDGE('',*,*,#861,.T.);
#477=ORIENTED_EDGE('',*,*,#862,.T.);
#478=ORIENTED_EDGE('',*,*,#850,.T.);
#479=ORIENTED_EDGE('',*,*,#853,.F.);
#480=ORIENTED_EDGE('',*,*,#855,.T.);
#481=ORIENTED_EDGE('',*,*,#857,.T.);
#482=ORIENTED_EDGE('',*,*,#840,.F.);
#483=ORIENTED_EDGE('',*,*,#843,.T.);
#484=ORIENTED_EDGE('',*,*,#845,.T.);
#485=ORIENTED_EDGE('',*,*,#863,.F.);
#486=ORIENTED_EDGE('',*,*,#864,.T.);
#487=ORIENTED_EDGE('',*,*,#865,.T.);
#488=ORIENTED_EDGE('',*,*,#838,.F.);
#489=ORIENTED_EDGE('',*,*,#836,.F.);
#490=ORIENTED_EDGE('',*,*,#834,.F.);
#491=ORIENTED_EDGE('',*,*,#832,.F.);
#492=ORIENTED_EDGE('',*,*,#866,.F.);
#493=ORIENTED_EDGE('',*,*,#867,.T.);
#494=ORIENTED_EDGE('',*,*,#868,.T.);
#495=ORIENTED_EDGE('',*,*,#869,.F.);
#496=ORIENTED_EDGE('',*,*,#868,.F.);
#497=ORIENTED_EDGE('',*,*,#870,.T.);
#498=ORIENTED_EDGE('',*,*,#871,.T.);
#499=ORIENTED_EDGE('',*,*,#872,.F.);
#500=ORIENTED_EDGE('',*,*,#871,.F.);
#501=ORIENTED_EDGE('',*,*,#873,.T.);
#502=ORIENTED_EDGE('',*,*,#874,.T.);
#503=ORIENTED_EDGE('',*,*,#875,.F.);
#504=ORIENTED_EDGE('',*,*,#874,.F.);
#505=ORIENTED_EDGE('',*,*,#876,.T.);
#506=ORIENTED_EDGE('',*,*,#877,.T.);
#507=ORIENTED_EDGE('',*,*,#878,.F.);
#508=ORIENTED_EDGE('',*,*,#877,.F.);
#509=ORIENTED_EDGE('',*,*,#879,.T.);
#510=ORIENTED_EDGE('',*,*,#880,.T.);
#511=ORIENTED_EDGE('',*,*,#881,.F.);
#512=ORIENTED_EDGE('',*,*,#880,.F.);
#513=ORIENTED_EDGE('',*,*,#882,.T.);
#514=ORIENTED_EDGE('',*,*,#866,.T.);
#515=ORIENTED_EDGE('',*,*,#883,.F.);
#516=ORIENTED_EDGE('',*,*,#837,.T.);
#517=ORIENTED_EDGE('',*,*,#867,.F.);
#518=ORIENTED_EDGE('',*,*,#882,.F.);
#519=ORIENTED_EDGE('',*,*,#879,.F.);
#520=ORIENTED_EDGE('',*,*,#876,.F.);
#521=ORIENTED_EDGE('',*,*,#873,.F.);
#522=ORIENTED_EDGE('',*,*,#870,.F.);
#523=ORIENTED_EDGE('',*,*,#884,.F.);
#524=ORIENTED_EDGE('',*,*,#885,.T.);
#525=ORIENTED_EDGE('',*,*,#886,.T.);
#526=ORIENTED_EDGE('',*,*,#887,.F.);
#527=ORIENTED_EDGE('',*,*,#886,.F.);
#528=ORIENTED_EDGE('',*,*,#888,.T.);
#529=ORIENTED_EDGE('',*,*,#889,.T.);
#530=ORIENTED_EDGE('',*,*,#890,.F.);
#531=ORIENTED_EDGE('',*,*,#889,.F.);
#532=ORIENTED_EDGE('',*,*,#891,.T.);
#533=ORIENTED_EDGE('',*,*,#892,.T.);
#534=ORIENTED_EDGE('',*,*,#893,.F.);
#535=ORIENTED_EDGE('',*,*,#892,.F.);
#536=ORIENTED_EDGE('',*,*,#894,.T.);
#537=ORIENTED_EDGE('',*,*,#895,.T.);
#538=ORIENTED_EDGE('',*,*,#896,.F.);
#539=ORIENTED_EDGE('',*,*,#895,.F.);
#540=ORIENTED_EDGE('',*,*,#897,.T.);
#541=ORIENTED_EDGE('',*,*,#898,.T.);
#542=ORIENTED_EDGE('',*,*,#899,.F.);
#543=ORIENTED_EDGE('',*,*,#898,.F.);
#544=ORIENTED_EDGE('',*,*,#900,.T.);
#545=ORIENTED_EDGE('',*,*,#884,.T.);
#546=ORIENTED_EDGE('',*,*,#901,.F.);
#547=ORIENTED_EDGE('',*,*,#835,.T.);
#548=ORIENTED_EDGE('',*,*,#885,.F.);
#549=ORIENTED_EDGE('',*,*,#900,.F.);
#550=ORIENTED_EDGE('',*,*,#897,.F.);
#551=ORIENTED_EDGE('',*,*,#894,.F.);
#552=ORIENTED_EDGE('',*,*,#891,.F.);
#553=ORIENTED_EDGE('',*,*,#888,.F.);
#554=ORIENTED_EDGE('',*,*,#902,.F.);
#555=ORIENTED_EDGE('',*,*,#903,.T.);
#556=ORIENTED_EDGE('',*,*,#904,.T.);
#557=ORIENTED_EDGE('',*,*,#905,.F.);
#558=ORIENTED_EDGE('',*,*,#904,.F.);
#559=ORIENTED_EDGE('',*,*,#906,.T.);
#560=ORIENTED_EDGE('',*,*,#907,.T.);
#561=ORIENTED_EDGE('',*,*,#908,.F.);
#562=ORIENTED_EDGE('',*,*,#907,.F.);
#563=ORIENTED_EDGE('',*,*,#909,.T.);
#564=ORIENTED_EDGE('',*,*,#910,.T.);
#565=ORIENTED_EDGE('',*,*,#911,.F.);
#566=ORIENTED_EDGE('',*,*,#910,.F.);
#567=ORIENTED_EDGE('',*,*,#912,.T.);
#568=ORIENTED_EDGE('',*,*,#913,.T.);
#569=ORIENTED_EDGE('',*,*,#914,.F.);
#570=ORIENTED_EDGE('',*,*,#913,.F.);
#571=ORIENTED_EDGE('',*,*,#915,.T.);
#572=ORIENTED_EDGE('',*,*,#916,.T.);
#573=ORIENTED_EDGE('',*,*,#917,.F.);
#574=ORIENTED_EDGE('',*,*,#916,.F.);
#575=ORIENTED_EDGE('',*,*,#918,.T.);
#576=ORIENTED_EDGE('',*,*,#902,.T.);
#577=ORIENTED_EDGE('',*,*,#919,.F.);
#578=ORIENTED_EDGE('',*,*,#833,.T.);
#579=ORIENTED_EDGE('',*,*,#903,.F.);
#580=ORIENTED_EDGE('',*,*,#918,.F.);
#581=ORIENTED_EDGE('',*,*,#915,.F.);
#582=ORIENTED_EDGE('',*,*,#912,.F.);
#583=ORIENTED_EDGE('',*,*,#909,.F.);
#584=ORIENTED_EDGE('',*,*,#906,.F.);
#585=ORIENTED_EDGE('',*,*,#920,.F.);
#586=ORIENTED_EDGE('',*,*,#921,.T.);
#587=ORIENTED_EDGE('',*,*,#922,.T.);
#588=ORIENTED_EDGE('',*,*,#923,.F.);
#589=ORIENTED_EDGE('',*,*,#922,.F.);
#590=ORIENTED_EDGE('',*,*,#924,.T.);
#591=ORIENTED_EDGE('',*,*,#925,.T.);
#592=ORIENTED_EDGE('',*,*,#926,.F.);
#593=ORIENTED_EDGE('',*,*,#925,.F.);
#594=ORIENTED_EDGE('',*,*,#927,.T.);
#595=ORIENTED_EDGE('',*,*,#928,.T.);
#596=ORIENTED_EDGE('',*,*,#929,.F.);
#597=ORIENTED_EDGE('',*,*,#928,.F.);
#598=ORIENTED_EDGE('',*,*,#930,.T.);
#599=ORIENTED_EDGE('',*,*,#931,.T.);
#600=ORIENTED_EDGE('',*,*,#932,.F.);
#601=ORIENTED_EDGE('',*,*,#931,.F.);
#602=ORIENTED_EDGE('',*,*,#933,.T.);
#603=ORIENTED_EDGE('',*,*,#934,.T.);
#604=ORIENTED_EDGE('',*,*,#935,.F.);
#605=ORIENTED_EDGE('',*,*,#934,.F.);
#606=ORIENTED_EDGE('',*,*,#936,.T.);
#607=ORIENTED_EDGE('',*,*,#920,.T.);
#608=ORIENTED_EDGE('',*,*,#937,.F.);
#609=ORIENTED_EDGE('',*,*,#839,.T.);
#610=ORIENTED_EDGE('',*,*,#921,.F.);
#611=ORIENTED_EDGE('',*,*,#936,.F.);
#612=ORIENTED_EDGE('',*,*,#933,.F.);
#613=ORIENTED_EDGE('',*,*,#930,.F.);
#614=ORIENTED_EDGE('',*,*,#927,.F.);
#615=ORIENTED_EDGE('',*,*,#924,.F.);
#616=ORIENTED_EDGE('',*,*,#809,.F.);
#617=ORIENTED_EDGE('',*,*,#938,.F.);
#618=ORIENTED_EDGE('',*,*,#939,.T.);
#619=ORIENTED_EDGE('',*,*,#940,.T.);
#620=ORIENTED_EDGE('',*,*,#804,.F.);
#621=ORIENTED_EDGE('',*,*,#940,.F.);
#622=ORIENTED_EDGE('',*,*,#941,.T.);
#623=ORIENTED_EDGE('',*,*,#942,.T.);
#624=ORIENTED_EDGE('',*,*,#805,.F.);
#625=ORIENTED_EDGE('',*,*,#942,.F.);
#626=ORIENTED_EDGE('',*,*,#943,.T.);
#627=ORIENTED_EDGE('',*,*,#944,.T.);
#628=ORIENTED_EDGE('',*,*,#806,.F.);
#629=ORIENTED_EDGE('',*,*,#944,.F.);
#630=ORIENTED_EDGE('',*,*,#945,.T.);
#631=ORIENTED_EDGE('',*,*,#946,.T.);
#632=ORIENTED_EDGE('',*,*,#807,.F.);
#633=ORIENTED_EDGE('',*,*,#946,.F.);
#634=ORIENTED_EDGE('',*,*,#947,.T.);
#635=ORIENTED_EDGE('',*,*,#948,.T.);
#636=ORIENTED_EDGE('',*,*,#808,.F.);
#637=ORIENTED_EDGE('',*,*,#948,.F.);
#638=ORIENTED_EDGE('',*,*,#949,.T.);
#639=ORIENTED_EDGE('',*,*,#938,.T.);
#640=ORIENTED_EDGE('',*,*,#872,.T.);
#641=ORIENTED_EDGE('',*,*,#875,.T.);
#642=ORIENTED_EDGE('',*,*,#878,.T.);
#643=ORIENTED_EDGE('',*,*,#881,.T.);
#644=ORIENTED_EDGE('',*,*,#883,.T.);
#645=ORIENTED_EDGE('',*,*,#869,.T.);
#646=ORIENTED_EDGE('',*,*,#939,.F.);
#647=ORIENTED_EDGE('',*,*,#949,.F.);
#648=ORIENTED_EDGE('',*,*,#947,.F.);
#649=ORIENTED_EDGE('',*,*,#945,.F.);
#650=ORIENTED_EDGE('',*,*,#943,.F.);
#651=ORIENTED_EDGE('',*,*,#941,.F.);
#652=ORIENTED_EDGE('',*,*,#825,.F.);
#653=ORIENTED_EDGE('',*,*,#950,.F.);
#654=ORIENTED_EDGE('',*,*,#951,.T.);
#655=ORIENTED_EDGE('',*,*,#952,.T.);
#656=ORIENTED_EDGE('',*,*,#820,.F.);
#657=ORIENTED_EDGE('',*,*,#952,.F.);
#658=ORIENTED_EDGE('',*,*,#953,.T.);
#659=ORIENTED_EDGE('',*,*,#954,.T.);
#660=ORIENTED_EDGE('',*,*,#821,.F.);
#661=ORIENTED_EDGE('',*,*,#954,.F.);
#662=ORIENTED_EDGE('',*,*,#955,.T.);
#663=ORIENTED_EDGE('',*,*,#956,.T.);
#664=ORIENTED_EDGE('',*,*,#822,.F.);
#665=ORIENTED_EDGE('',*,*,#956,.F.);
#666=ORIENTED_EDGE('',*,*,#957,.T.);
#667=ORIENTED_EDGE('',*,*,#958,.T.);
#668=ORIENTED_EDGE('',*,*,#823,.F.);
#669=ORIENTED_EDGE('',*,*,#958,.F.);
#670=ORIENTED_EDGE('',*,*,#959,.T.);
#671=ORIENTED_EDGE('',*,*,#960,.T.);
#672=ORIENTED_EDGE('',*,*,#824,.F.);
#673=ORIENTED_EDGE('',*,*,#960,.F.);
#674=ORIENTED_EDGE('',*,*,#961,.T.);
#675=ORIENTED_EDGE('',*,*,#950,.T.);
#676=ORIENTED_EDGE('',*,*,#890,.T.);
#677=ORIENTED_EDGE('',*,*,#893,.T.);
#678=ORIENTED_EDGE('',*,*,#896,.T.);
#679=ORIENTED_EDGE('',*,*,#899,.T.);
#680=ORIENTED_EDGE('',*,*,#901,.T.);
#681=ORIENTED_EDGE('',*,*,#887,.T.);
#682=ORIENTED_EDGE('',*,*,#951,.F.);
#683=ORIENTED_EDGE('',*,*,#961,.F.);
#684=ORIENTED_EDGE('',*,*,#959,.F.);
#685=ORIENTED_EDGE('',*,*,#957,.F.);
#686=ORIENTED_EDGE('',*,*,#955,.F.);
#687=ORIENTED_EDGE('',*,*,#953,.F.);
#688=ORIENTED_EDGE('',*,*,#803,.F.);
#689=ORIENTED_EDGE('',*,*,#962,.F.);
#690=ORIENTED_EDGE('',*,*,#963,.T.);
#691=ORIENTED_EDGE('',*,*,#964,.T.);
#692=ORIENTED_EDGE('',*,*,#798,.F.);
#693=ORIENTED_EDGE('',*,*,#964,.F.);
#694=ORIENTED_EDGE('',*,*,#965,.T.);
#695=ORIENTED_EDGE('',*,*,#966,.T.);
#696=ORIENTED_EDGE('',*,*,#799,.F.);
#697=ORIENTED_EDGE('',*,*,#966,.F.);
#698=ORIENTED_EDGE('',*,*,#967,.T.);
#699=ORIENTED_EDGE('',*,*,#968,.T.);
#700=ORIENTED_EDGE('',*,*,#800,.F.);
#701=ORIENTED_EDGE('',*,*,#968,.F.);
#702=ORIENTED_EDGE('',*,*,#969,.T.);
#703=ORIENTED_EDGE('',*,*,#970,.T.);
#704=ORIENTED_EDGE('',*,*,#801,.F.);
#705=ORIENTED_EDGE('',*,*,#970,.F.);
#706=ORIENTED_EDGE('',*,*,#971,.T.);
#707=ORIENTED_EDGE('',*,*,#972,.T.);
#708=ORIENTED_EDGE('',*,*,#802,.F.);
#709=ORIENTED_EDGE('',*,*,#972,.F.);
#710=ORIENTED_EDGE('',*,*,#973,.T.);
#711=ORIENTED_EDGE('',*,*,#962,.T.);
#712=ORIENTED_EDGE('',*,*,#908,.T.);
#713=ORIENTED_EDGE('',*,*,#911,.T.);
#714=ORIENTED_EDGE('',*,*,#914,.T.);
#715=ORIENTED_EDGE('',*,*,#917,.T.);
#716=ORIENTED_EDGE('',*,*,#919,.T.);
#717=ORIENTED_EDGE('',*,*,#905,.T.);
#718=ORIENTED_EDGE('',*,*,#963,.F.);
#719=ORIENTED_EDGE('',*,*,#973,.F.);
#720=ORIENTED_EDGE('',*,*,#971,.F.);
#721=ORIENTED_EDGE('',*,*,#969,.F.);
#722=ORIENTED_EDGE('',*,*,#967,.F.);
#723=ORIENTED_EDGE('',*,*,#965,.F.);
#724=ORIENTED_EDGE('',*,*,#831,.F.);
#725=ORIENTED_EDGE('',*,*,#974,.F.);
#726=ORIENTED_EDGE('',*,*,#975,.T.);
#727=ORIENTED_EDGE('',*,*,#976,.T.);
#728=ORIENTED_EDGE('',*,*,#826,.F.);
#729=ORIENTED_EDGE('',*,*,#976,.F.);
#730=ORIENTED_EDGE('',*,*,#977,.T.);
#731=ORIENTED_EDGE('',*,*,#978,.T.);
#732=ORIENTED_EDGE('',*,*,#827,.F.);
#733=ORIENTED_EDGE('',*,*,#978,.F.);
#734=ORIENTED_EDGE('',*,*,#979,.T.);
#735=ORIENTED_EDGE('',*,*,#980,.T.);
#736=ORIENTED_EDGE('',*,*,#828,.F.);
#737=ORIENTED_EDGE('',*,*,#980,.F.);
#738=ORIENTED_EDGE('',*,*,#981,.T.);
#739=ORIENTED_EDGE('',*,*,#982,.T.);
#740=ORIENTED_EDGE('',*,*,#829,.F.);
#741=ORIENTED_EDGE('',*,*,#982,.F.);
#742=ORIENTED_EDGE('',*,*,#983,.T.);
#743=ORIENTED_EDGE('',*,*,#984,.T.);
#744=ORIENTED_EDGE('',*,*,#830,.F.);
#745=ORIENTED_EDGE('',*,*,#984,.F.);
#746=ORIENTED_EDGE('',*,*,#985,.T.);
#747=ORIENTED_EDGE('',*,*,#974,.T.);
#748=ORIENTED_EDGE('',*,*,#926,.T.);
#749=ORIENTED_EDGE('',*,*,#929,.T.);
#750=ORIENTED_EDGE('',*,*,#932,.T.);
#751=ORIENTED_EDGE('',*,*,#935,.T.);
#752=ORIENTED_EDGE('',*,*,#937,.T.);
#753=ORIENTED_EDGE('',*,*,#923,.T.);
#754=ORIENTED_EDGE('',*,*,#975,.F.);
#755=ORIENTED_EDGE('',*,*,#985,.F.);
#756=ORIENTED_EDGE('',*,*,#983,.F.);
#757=ORIENTED_EDGE('',*,*,#981,.F.);
#758=ORIENTED_EDGE('',*,*,#979,.F.);
#759=ORIENTED_EDGE('',*,*,#977,.F.);
#760=ORIENTED_EDGE('',*,*,#861,.F.);
#761=ORIENTED_EDGE('',*,*,#986,.F.);
#762=ORIENTED_EDGE('',*,*,#987,.F.);
#763=ORIENTED_EDGE('',*,*,#988,.F.);
#764=ORIENTED_EDGE('',*,*,#864,.F.);
#765=ORIENTED_EDGE('',*,*,#989,.F.);
#766=ORIENTED_EDGE('',*,*,#990,.F.);
#767=ORIENTED_EDGE('',*,*,#991,.F.);
#768=ORIENTED_EDGE('',*,*,#862,.F.);
#769=ORIENTED_EDGE('',*,*,#988,.T.);
#770=ORIENTED_EDGE('',*,*,#992,.T.);
#771=ORIENTED_EDGE('',*,*,#851,.T.);
#772=ORIENTED_EDGE('',*,*,#993,.F.);
#773=ORIENTED_EDGE('',*,*,#986,.T.);
#774=ORIENTED_EDGE('',*,*,#860,.T.);
#775=ORIENTED_EDGE('',*,*,#849,.F.);
#776=ORIENTED_EDGE('',*,*,#987,.T.);
#777=ORIENTED_EDGE('',*,*,#993,.T.);
#778=ORIENTED_EDGE('',*,*,#815,.T.);
#779=ORIENTED_EDGE('',*,*,#992,.F.);
#780=ORIENTED_EDGE('',*,*,#865,.F.);
#781=ORIENTED_EDGE('',*,*,#991,.T.);
#782=ORIENTED_EDGE('',*,*,#994,.T.);
#783=ORIENTED_EDGE('',*,*,#848,.T.);
#784=ORIENTED_EDGE('',*,*,#995,.F.);
#785=ORIENTED_EDGE('',*,*,#989,.T.);
#786=ORIENTED_EDGE('',*,*,#863,.T.);
#787=ORIENTED_EDGE('',*,*,#846,.F.);
#788=ORIENTED_EDGE('',*,*,#990,.T.);
#789=ORIENTED_EDGE('',*,*,#995,.T.);
#790=ORIENTED_EDGE('',*,*,#817,.T.);
#791=ORIENTED_EDGE('',*,*,#994,.F.);
#792=ORIENTED_EDGE('',*,*,#859,.T.);
#793=ORIENTED_EDGE('',*,*,#797,.T.);
#794=ORIENTED_EDGE('',*,*,#858,.T.);
#795=ORIENTED_EDGE('',*,*,#796,.T.);
#796=EDGE_CURVE('',#996,#996,#1132,.T.);
#797=EDGE_CURVE('',#997,#997,#1133,.T.);
#798=EDGE_CURVE('',#998,#999,#28,.T.);
#799=EDGE_CURVE('',#999,#1000,#29,.T.);
#800=EDGE_CURVE('',#1000,#1001,#30,.T.);
#801=EDGE_CURVE('',#1001,#1002,#31,.T.);
#802=EDGE_CURVE('',#1002,#1003,#32,.T.);
#803=EDGE_CURVE('',#1003,#998,#33,.T.);
#804=EDGE_CURVE('',#1004,#1005,#34,.T.);
#805=EDGE_CURVE('',#1005,#1006,#35,.T.);
#806=EDGE_CURVE('',#1006,#1007,#36,.T.);
#807=EDGE_CURVE('',#1007,#1008,#37,.T.);
#808=EDGE_CURVE('',#1008,#1009,#38,.T.);
#809=EDGE_CURVE('',#1009,#1004,#39,.T.);
#810=EDGE_CURVE('',#1010,#1011,#1134,.T.);
#811=EDGE_CURVE('',#1012,#1011,#40,.T.);
#812=EDGE_CURVE('',#1013,#1012,#1135,.T.);
#813=EDGE_CURVE('',#1013,#1014,#41,.T.);
#814=EDGE_CURVE('',#1015,#1014,#42,.T.);
#815=EDGE_CURVE('',#1016,#1015,#43,.T.);
#816=EDGE_CURVE('',#1017,#1016,#44,.T.);
#817=EDGE_CURVE('',#1018,#1017,#45,.T.);
#818=EDGE_CURVE('',#1019,#1018,#46,.T.);
#819=EDGE_CURVE('',#1010,#1019,#47,.T.);
#820=EDGE_CURVE('',#1020,#1021,#48,.T.);
#821=EDGE_CURVE('',#1021,#1022,#49,.T.);
#822=EDGE_CURVE('',#1022,#1023,#50,.T.);
#823=EDGE_CURVE('',#1023,#1024,#51,.T.);
#824=EDGE_CURVE('',#1024,#1025,#52,.T.);
#825=EDGE_CURVE('',#1025,#1020,#53,.T.);
#826=EDGE_CURVE('',#1026,#1027,#54,.T.);
#827=EDGE_CURVE('',#1027,#1028,#55,.T.);
#828=EDGE_CURVE('',#1028,#1029,#56,.T.);
#829=EDGE_CURVE('',#1029,#1030,#57,.T.);
#830=EDGE_CURVE('',#1030,#1031,#58,.T.);
#831=EDGE_CURVE('',#1031,#1026,#59,.T.);
#832=EDGE_CURVE('',#1032,#1032,#1136,.T.);
#833=EDGE_CURVE('',#1033,#1033,#1137,.T.);
#834=EDGE_CURVE('',#1034,#1034,#1138,.T.);
#835=EDGE_CURVE('',#1035,#1035,#1139,.T.);
#836=EDGE_CURVE('',#1036,#1036,#1140,.T.);
#837=EDGE_CURVE('',#1037,#1037,#1141,.T.);
#838=EDGE_CURVE('',#1038,#1038,#1142,.T.);
#839=EDGE_CURVE('',#1039,#1039,#1143,.T.);
#840=EDGE_CURVE('',#1040,#1041,#1144,.T.);
#841=EDGE_CURVE('',#1011,#1041,#60,.T.);
#842=EDGE_CURVE('',#1010,#1040,#61,.T.);
#843=EDGE_CURVE('',#1040,#1042,#62,.T.);
#844=EDGE_CURVE('',#1019,#1042,#63,.T.);
#845=EDGE_CURVE('',#1042,#1043,#64,.T.);
#846=EDGE_CURVE('',#1018,#1043,#65,.T.);
#847=EDGE_CURVE('',#1044,#1045,#66,.T.);
#848=EDGE_CURVE('',#1017,#1044,#67,.T.);
#849=EDGE_CURVE('',#1016,#1045,#68,.T.);
#850=EDGE_CURVE('',#1046,#1047,#69,.T.);
#851=EDGE_CURVE('',#1015,#1046,#70,.T.);
#852=EDGE_CURVE('',#1014,#1047,#71,.T.);
#853=EDGE_CURVE('',#1048,#1047,#72,.T.);
#854=EDGE_CURVE('',#1013,#1048,#73,.T.);
#855=EDGE_CURVE('',#1048,#1049,#1145,.T.);
#856=EDGE_CURVE('',#1012,#1049,#74,.T.);
#857=EDGE_CURVE('',#1049,#1041,#75,.T.);
#858=EDGE_CURVE('',#1050,#1050,#1146,.F.);
#859=EDGE_CURVE('',#1051,#1051,#1147,.F.);
#860=EDGE_CURVE('',#1052,#1045,#76,.T.);
#861=EDGE_CURVE('',#1052,#1053,#77,.T.);
#862=EDGE_CURVE('',#1053,#1046,#78,.T.);
#863=EDGE_CURVE('',#1054,#1043,#79,.T.);
#864=EDGE_CURVE('',#1054,#1055,#80,.T.);
#865=EDGE_CURVE('',#1055,#1044,#81,.T.);
#866=EDGE_CURVE('',#1056,#1057,#82,.T.);
#867=EDGE_CURVE('',#1056,#1058,#83,.T.);
#868=EDGE_CURVE('',#1058,#1059,#84,.T.);
#869=EDGE_CURVE('',#1057,#1059,#85,.T.);
#870=EDGE_CURVE('',#1058,#1060,#86,.T.);
#871=EDGE_CURVE('',#1060,#1061,#87,.T.);
#872=EDGE_CURVE('',#1059,#1061,#88,.T.);
#873=EDGE_CURVE('',#1060,#1062,#89,.T.);
#874=EDGE_CURVE('',#1062,#1063,#90,.T.);
#875=EDGE_CURVE('',#1061,#1063,#91,.T.);
#876=EDGE_CURVE('',#1062,#1064,#92,.T.);
#877=EDGE_CURVE('',#1064,#1065,#93,.T.);
#878=EDGE_CURVE('',#1063,#1065,#94,.T.);
#879=EDGE_CURVE('',#1064,#1066,#95,.T.);
#880=EDGE_CURVE('',#1066,#1067,#96,.T.);
#881=EDGE_CURVE('',#1065,#1067,#97,.T.);
#882=EDGE_CURVE('',#1066,#1056,#98,.T.);
#883=EDGE_CURVE('',#1067,#1057,#99,.T.);
#884=EDGE_CURVE('',#1068,#1069,#100,.T.);
#885=EDGE_CURVE('',#1068,#1070,#101,.T.);
#886=EDGE_CURVE('',#1070,#1071,#102,.T.);
#887=EDGE_CURVE('',#1069,#1071,#103,.T.);
#888=EDGE_CURVE('',#1070,#1072,#104,.T.);
#889=EDGE_CURVE('',#1072,#1073,#105,.T.);
#890=EDGE_CURVE('',#1071,#1073,#106,.T.);
#891=EDGE_CURVE('',#1072,#1074,#107,.T.);
#892=EDGE_CURVE('',#1074,#1075,#108,.T.);
#893=EDGE_CURVE('',#1073,#1075,#109,.T.);
#894=EDGE_CURVE('',#1074,#1076,#110,.T.);
#895=EDGE_CURVE('',#1076,#1077,#111,.T.);
#896=EDGE_CURVE('',#1075,#1077,#112,.T.);
#897=EDGE_CURVE('',#1076,#1078,#113,.T.);
#898=EDGE_CURVE('',#1078,#1079,#114,.T.);
#899=EDGE_CURVE('',#1077,#1079,#115,.T.);
#900=EDGE_CURVE('',#1078,#1068,#116,.T.);
#901=EDGE_CURVE('',#1079,#1069,#117,.T.);
#902=EDGE_CURVE('',#1080,#1081,#118,.T.);
#903=EDGE_CURVE('',#1080,#1082,#119,.T.);
#904=EDGE_CURVE('',#1082,#1083,#120,.T.);
#905=EDGE_CURVE('',#1081,#1083,#121,.T.);
#906=EDGE_CURVE('',#1082,#1084,#122,.T.);
#907=EDGE_CURVE('',#1084,#1085,#123,.T.);
#908=EDGE_CURVE('',#1083,#1085,#124,.T.);
#909=EDGE_CURVE('',#1084,#1086,#125,.T.);
#910=EDGE_CURVE('',#1086,#1087,#126,.T.);
#911=EDGE_CURVE('',#1085,#1087,#127,.T.);
#912=EDGE_CURVE('',#1086,#1088,#128,.T.);
#913=EDGE_CURVE('',#1088,#1089,#129,.T.);
#914=EDGE_CURVE('',#1087,#1089,#130,.T.);
#915=EDGE_CURVE('',#1088,#1090,#131,.T.);
#916=EDGE_CURVE('',#1090,#1091,#132,.T.);
#917=EDGE_CURVE('',#1089,#1091,#133,.T.);
#918=EDGE_CURVE('',#1090,#1080,#134,.T.);
#919=EDGE_CURVE('',#1091,#1081,#135,.T.);
#920=EDGE_CURVE('',#1092,#1093,#136,.T.);
#921=EDGE_CURVE('',#1092,#1094,#137,.T.);
#922=EDGE_CURVE('',#1094,#1095,#138,.T.);
#923=EDGE_CURVE('',#1093,#1095,#139,.T.);
#924=EDGE_CURVE('',#1094,#1096,#140,.T.);
#925=EDGE_CURVE('',#1096,#1097,#141,.T.);
#926=EDGE_CURVE('',#1095,#1097,#142,.T.);
#927=EDGE_CURVE('',#1096,#1098,#143,.T.);
#928=EDGE_CURVE('',#1098,#1099,#144,.T.);
#929=EDGE_CURVE('',#1097,#1099,#145,.T.);
#930=EDGE_CURVE('',#1098,#1100,#146,.T.);
#931=EDGE_CURVE('',#1100,#1101,#147,.T.);
#932=EDGE_CURVE('',#1099,#1101,#148,.T.);
#933=EDGE_CURVE('',#1100,#1102,#149,.T.);
#934=EDGE_CURVE('',#1102,#1103,#150,.T.);
#935=EDGE_CURVE('',#1101,#1103,#151,.T.);
#936=EDGE_CURVE('',#1102,#1092,#152,.T.);
#937=EDGE_CURVE('',#1103,#1093,#153,.T.);
#938=EDGE_CURVE('',#1104,#1009,#154,.T.);
#939=EDGE_CURVE('',#1104,#1105,#155,.T.);
#940=EDGE_CURVE('',#1105,#1004,#156,.T.);
#941=EDGE_CURVE('',#1105,#1106,#157,.T.);
#942=EDGE_CURVE('',#1106,#1005,#158,.T.);
#943=EDGE_CURVE('',#1106,#1107,#159,.T.);
#944=EDGE_CURVE('',#1107,#1006,#160,.T.);
#945=EDGE_CURVE('',#1107,#1108,#161,.T.);
#946=EDGE_CURVE('',#1108,#1007,#162,.T.);
#947=EDGE_CURVE('',#1108,#1109,#163,.T.);
#948=EDGE_CURVE('',#1109,#1008,#164,.T.);
#949=EDGE_CURVE('',#1109,#1104,#165,.T.);
#950=EDGE_CURVE('',#1110,#1025,#166,.T.);
#951=EDGE_CURVE('',#1110,#1111,#167,.T.);
#952=EDGE_CURVE('',#1111,#1020,#168,.T.);
#953=EDGE_CURVE('',#1111,#1112,#169,.T.);
#954=EDGE_CURVE('',#1112,#1021,#170,.T.);
#955=EDGE_CURVE('',#1112,#1113,#171,.T.);
#956=EDGE_CURVE('',#1113,#1022,#172,.T.);
#957=EDGE_CURVE('',#1113,#1114,#173,.T.);
#958=EDGE_CURVE('',#1114,#1023,#174,.T.);
#959=EDGE_CURVE('',#1114,#1115,#175,.T.);
#960=EDGE_CURVE('',#1115,#1024,#176,.T.);
#961=EDGE_CURVE('',#1115,#1110,#177,.T.);
#962=EDGE_CURVE('',#1116,#1003,#178,.T.);
#963=EDGE_CURVE('',#1116,#1117,#179,.T.);
#964=EDGE_CURVE('',#1117,#998,#180,.T.);
#965=EDGE_CURVE('',#1117,#1118,#181,.T.);
#966=EDGE_CURVE('',#1118,#999,#182,.T.);
#967=EDGE_CURVE('',#1118,#1119,#183,.T.);
#968=EDGE_CURVE('',#1119,#1000,#184,.T.);
#969=EDGE_CURVE('',#1119,#1120,#185,.T.);
#970=EDGE_CURVE('',#1120,#1001,#186,.T.);
#971=EDGE_CURVE('',#1120,#1121,#187,.T.);
#972=EDGE_CURVE('',#1121,#1002,#188,.T.);
#973=EDGE_CURVE('',#1121,#1116,#189,.T.);
#974=EDGE_CURVE('',#1122,#1031,#190,.T.);
#975=EDGE_CURVE('',#1122,#1123,#191,.T.);
#976=EDGE_CURVE('',#1123,#1026,#192,.T.);
#977=EDGE_CURVE('',#1123,#1124,#193,.T.);
#978=EDGE_CURVE('',#1124,#1027,#194,.T.);
#979=EDGE_CURVE('',#1124,#1125,#195,.T.);
#980=EDGE_CURVE('',#1125,#1028,#196,.T.);
#981=EDGE_CURVE('',#1125,#1126,#197,.T.);
#982=EDGE_CURVE('',#1126,#1029,#198,.T.);
#983=EDGE_CURVE('',#1126,#1127,#199,.T.);
#984=EDGE_CURVE('',#1127,#1030,#200,.T.);
#985=EDGE_CURVE('',#1127,#1122,#201,.T.);
#986=EDGE_CURVE('',#1128,#1052,#202,.T.);
#987=EDGE_CURVE('',#1129,#1128,#203,.T.);
#988=EDGE_CURVE('',#1053,#1129,#204,.T.);
#989=EDGE_CURVE('',#1130,#1054,#205,.T.);
#990=EDGE_CURVE('',#1131,#1130,#206,.T.);
#991=EDGE_CURVE('',#1055,#1131,#207,.T.);
#992=EDGE_CURVE('',#1129,#1015,#208,.T.);
#993=EDGE_CURVE('',#1128,#1016,#209,.T.);
#994=EDGE_CURVE('',#1131,#1017,#210,.T.);
#995=EDGE_CURVE('',#1130,#1018,#211,.T.);
#996=VERTEX_POINT('',#2002);
#997=VERTEX_POINT('',#2004);
#998=VERTEX_POINT('',#2006);
#999=VERTEX_POINT('',#2007);
#1000=VERTEX_POINT('',#2009);
#1001=VERTEX_POINT('',#2011);
#1002=VERTEX_POINT('',#2013);
#1003=VERTEX_POINT('',#2015);
#1004=VERTEX_POINT('',#2018);
#1005=VERTEX_POINT('',#2019);
#1006=VERTEX_POINT('',#2021);
#1007=VERTEX_POINT('',#2023);
#1008=VERTEX_POINT('',#2025);
#1009=VERTEX_POINT('',#2027);
#1010=VERTEX_POINT('',#2030);
#1011=VERTEX_POINT('',#2031);
#1012=VERTEX_POINT('',#2033);
#1013=VERTEX_POINT('',#2035);
#1014=VERTEX_POINT('',#2037);
#1015=VERTEX_POINT('',#2039);
#1016=VERTEX_POINT('',#2041);
#1017=VERTEX_POINT('',#2043);
#1018=VERTEX_POINT('',#2045);
#1019=VERTEX_POINT('',#2047);
#1020=VERTEX_POINT('',#2050);
#1021=VERTEX_POINT('',#2051);
#1022=VERTEX_POINT('',#2053);
#1023=VERTEX_POINT('',#2055);
#1024=VERTEX_POINT('',#2057);
#1025=VERTEX_POINT('',#2059);
#1026=VERTEX_POINT('',#2062);
#1027=VERTEX_POINT('',#2063);
#1028=VERTEX_POINT('',#2065);
#1029=VERTEX_POINT('',#2067);
#1030=VERTEX_POINT('',#2069);
#1031=VERTEX_POINT('',#2071);
#1032=VERTEX_POINT('',#2075);
#1033=VERTEX_POINT('',#2077);
#1034=VERTEX_POINT('',#2080);
#1035=VERTEX_POINT('',#2082);
#1036=VERTEX_POINT('',#2085);
#1037=VERTEX_POINT('',#2087);
#1038=VERTEX_POINT('',#2090);
#1039=VERTEX_POINT('',#2092);
#1040=VERTEX_POINT('',#2095);
#1041=VERTEX_POINT('',#2096);
#1042=VERTEX_POINT('',#2101);
#1043=VERTEX_POINT('',#2105);
#1044=VERTEX_POINT('',#2109);
#1045=VERTEX_POINT('',#2110);
#1046=VERTEX_POINT('',#2115);
#1047=VERTEX_POINT('',#2116);
#1048=VERTEX_POINT('',#2121);
#1049=VERTEX_POINT('',#2125);
#1050=VERTEX_POINT('',#2131);
#1051=VERTEX_POINT('',#2133);
#1052=VERTEX_POINT('',#2135);
#1053=VERTEX_POINT('',#2137);
#1054=VERTEX_POINT('',#2140);
#1055=VERTEX_POINT('',#2142);
#1056=VERTEX_POINT('',#2146);
#1057=VERTEX_POINT('',#2147);
#1058=VERTEX_POINT('',#2149);
#1059=VERTEX_POINT('',#2151);
#1060=VERTEX_POINT('',#2155);
#1061=VERTEX_POINT('',#2157);
#1062=VERTEX_POINT('',#2161);
#1063=VERTEX_POINT('',#2163);
#1064=VERTEX_POINT('',#2167);
#1065=VERTEX_POINT('',#2169);
#1066=VERTEX_POINT('',#2173);
#1067=VERTEX_POINT('',#2175);
#1068=VERTEX_POINT('',#2183);
#1069=VERTEX_POINT('',#2184);
#1070=VERTEX_POINT('',#2186);
#1071=VERTEX_POINT('',#2188);
#1072=VERTEX_POINT('',#2192);
#1073=VERTEX_POINT('',#2194);
#1074=VERTEX_POINT('',#2198);
#1075=VERTEX_POINT('',#2200);
#1076=VERTEX_POINT('',#2204);
#1077=VERTEX_POINT('',#2206);
#1078=VERTEX_POINT('',#2210);
#1079=VERTEX_POINT('',#2212);
#1080=VERTEX_POINT('',#2220);
#1081=VERTEX_POINT('',#2221);
#1082=VERTEX_POINT('',#2223);
#1083=VERTEX_POINT('',#2225);
#1084=VERTEX_POINT('',#2229);
#1085=VERTEX_POINT('',#2231);
#1086=VERTEX_POINT('',#2235);
#1087=VERTEX_POINT('',#2237);
#1088=VERTEX_POINT('',#2241);
#1089=VERTEX_POINT('',#2243);
#1090=VERTEX_POINT('',#2247);
#1091=VERTEX_POINT('',#2249);
#1092=VERTEX_POINT('',#2257);
#1093=VERTEX_POINT('',#2258);
#1094=VERTEX_POINT('',#2260);
#1095=VERTEX_POINT('',#2262);
#1096=VERTEX_POINT('',#2266);
#1097=VERTEX_POINT('',#2268);
#1098=VERTEX_POINT('',#2272);
#1099=VERTEX_POINT('',#2274);
#1100=VERTEX_POINT('',#2278);
#1101=VERTEX_POINT('',#2280);
#1102=VERTEX_POINT('',#2284);
#1103=VERTEX_POINT('',#2286);
#1104=VERTEX_POINT('',#2294);
#1105=VERTEX_POINT('',#2296);
#1106=VERTEX_POINT('',#2300);
#1107=VERTEX_POINT('',#2304);
#1108=VERTEX_POINT('',#2308);
#1109=VERTEX_POINT('',#2312);
#1110=VERTEX_POINT('',#2319);
#1111=VERTEX_POINT('',#2321);
#1112=VERTEX_POINT('',#2325);
#1113=VERTEX_POINT('',#2329);
#1114=VERTEX_POINT('',#2333);
#1115=VERTEX_POINT('',#2337);
#1116=VERTEX_POINT('',#2344);
#1117=VERTEX_POINT('',#2346);
#1118=VERTEX_POINT('',#2350);
#1119=VERTEX_POINT('',#2354);
#1120=VERTEX_POINT('',#2358);
#1121=VERTEX_POINT('',#2362);
#1122=VERTEX_POINT('',#2369);
#1123=VERTEX_POINT('',#2371);
#1124=VERTEX_POINT('',#2375);
#1125=VERTEX_POINT('',#2379);
#1126=VERTEX_POINT('',#2383);
#1127=VERTEX_POINT('',#2387);
#1128=VERTEX_POINT('',#2394);
#1129=VERTEX_POINT('',#2396);
#1130=VERTEX_POINT('',#2400);
#1131=VERTEX_POINT('',#2402);
#1132=CIRCLE('',#1526,0.0018);
#1133=CIRCLE('',#1527,0.0018);
#1134=CIRCLE('',#1528,0.017);
#1135=CIRCLE('',#1529,0.017);
#1136=CIRCLE('',#1531,0.0028);
#1137=CIRCLE('',#1532,0.0028);
#1138=CIRCLE('',#1534,0.0028);
#1139=CIRCLE('',#1535,0.0028);
#1140=CIRCLE('',#1537,0.0028);
#1141=CIRCLE('',#1538,0.0028);
#1142=CIRCLE('',#1540,0.0028);
#1143=CIRCLE('',#1541,0.0028);
#1144=CIRCLE('',#1543,0.017);
#1145=CIRCLE('',#1550,0.017);
#1146=CIRCLE('',#1553,0.0018);
#1147=CIRCLE('',#1554,0.0018);
#1148=EDGE_LOOP('',(#396));
#1149=EDGE_LOOP('',(#397));
#1150=EDGE_LOOP('',(#398,#399,#400,#401,#402,#403));
#1151=EDGE_LOOP('',(#404,#405,#406,#407,#408,#409));
#1152=EDGE_LOOP('',(#410,#411,#412,#413,#414,#415,#416,#417,#418,#419));
#1153=EDGE_LOOP('',(#420,#421,#422,#423,#424,#425));
#1154=EDGE_LOOP('',(#426,#427,#428,#429,#430,#431));
#1155=EDGE_LOOP('',(#432));
#1156=EDGE_LOOP('',(#433));
#1157=EDGE_LOOP('',(#434));
#1158=EDGE_LOOP('',(#435));
#1159=EDGE_LOOP('',(#436));
#1160=EDGE_LOOP('',(#437));
#1161=EDGE_LOOP('',(#438));
#1162=EDGE_LOOP('',(#439));
#1163=EDGE_LOOP('',(#440,#441,#442,#443));
#1164=EDGE_LOOP('',(#444,#445,#446,#447));
#1165=EDGE_LOOP('',(#448,#449,#450,#451));
#1166=EDGE_LOOP('',(#452,#453,#454,#455));
#1167=EDGE_LOOP('',(#456,#457,#458,#459));
#1168=EDGE_LOOP('',(#460,#461,#462,#463));
#1169=EDGE_LOOP('',(#464,#465,#466,#467));
#1170=EDGE_LOOP('',(#468,#469,#470,#471));
#1171=EDGE_LOOP('',(#472));
#1172=EDGE_LOOP('',(#473));
#1173=EDGE_LOOP('',(#474,#475,#476,#477,#478,#479,#480,#481,#482,#483,#484,
#485,#486,#487));
#1174=EDGE_LOOP('',(#488));
#1175=EDGE_LOOP('',(#489));
#1176=EDGE_LOOP('',(#490));
#1177=EDGE_LOOP('',(#491));
#1178=EDGE_LOOP('',(#492,#493,#494,#495));
#1179=EDGE_LOOP('',(#496,#497,#498,#499));
#1180=EDGE_LOOP('',(#500,#501,#502,#503));
#1181=EDGE_LOOP('',(#504,#505,#506,#507));
#1182=EDGE_LOOP('',(#508,#509,#510,#511));
#1183=EDGE_LOOP('',(#512,#513,#514,#515));
#1184=EDGE_LOOP('',(#516));
#1185=EDGE_LOOP('',(#517,#518,#519,#520,#521,#522));
#1186=EDGE_LOOP('',(#523,#524,#525,#526));
#1187=EDGE_LOOP('',(#527,#528,#529,#530));
#1188=EDGE_LOOP('',(#531,#532,#533,#534));
#1189=EDGE_LOOP('',(#535,#536,#537,#538));
#1190=EDGE_LOOP('',(#539,#540,#541,#542));
#1191=EDGE_LOOP('',(#543,#544,#545,#546));
#1192=EDGE_LOOP('',(#547));
#1193=EDGE_LOOP('',(#548,#549,#550,#551,#552,#553));
#1194=EDGE_LOOP('',(#554,#555,#556,#557));
#1195=EDGE_LOOP('',(#558,#559,#560,#561));
#1196=EDGE_LOOP('',(#562,#563,#564,#565));
#1197=EDGE_LOOP('',(#566,#567,#568,#569));
#1198=EDGE_LOOP('',(#570,#571,#572,#573));
#1199=EDGE_LOOP('',(#574,#575,#576,#577));
#1200=EDGE_LOOP('',(#578));
#1201=EDGE_LOOP('',(#579,#580,#581,#582,#583,#584));
#1202=EDGE_LOOP('',(#585,#586,#587,#588));
#1203=EDGE_LOOP('',(#589,#590,#591,#592));
#1204=EDGE_LOOP('',(#593,#594,#595,#596));
#1205=EDGE_LOOP('',(#597,#598,#599,#600));
#1206=EDGE_LOOP('',(#601,#602,#603,#604));
#1207=EDGE_LOOP('',(#605,#606,#607,#608));
#1208=EDGE_LOOP('',(#609));
#1209=EDGE_LOOP('',(#610,#611,#612,#613,#614,#615));
#1210=EDGE_LOOP('',(#616,#617,#618,#619));
#1211=EDGE_LOOP('',(#620,#621,#622,#623));
#1212=EDGE_LOOP('',(#624,#625,#626,#627));
#1213=EDGE_LOOP('',(#628,#629,#630,#631));
#1214=EDGE_LOOP('',(#632,#633,#634,#635));
#1215=EDGE_LOOP('',(#636,#637,#638,#639));
#1216=EDGE_LOOP('',(#640,#641,#642,#643,#644,#645));
#1217=EDGE_LOOP('',(#646,#647,#648,#649,#650,#651));
#1218=EDGE_LOOP('',(#652,#653,#654,#655));
#1219=EDGE_LOOP('',(#656,#657,#658,#659));
#1220=EDGE_LOOP('',(#660,#661,#662,#663));
#1221=EDGE_LOOP('',(#664,#665,#666,#667));
#1222=EDGE_LOOP('',(#668,#669,#670,#671));
#1223=EDGE_LOOP('',(#672,#673,#674,#675));
#1224=EDGE_LOOP('',(#676,#677,#678,#679,#680,#681));
#1225=EDGE_LOOP('',(#682,#683,#684,#685,#686,#687));
#1226=EDGE_LOOP('',(#688,#689,#690,#691));
#1227=EDGE_LOOP('',(#692,#693,#694,#695));
#1228=EDGE_LOOP('',(#696,#697,#698,#699));
#1229=EDGE_LOOP('',(#700,#701,#702,#703));
#1230=EDGE_LOOP('',(#704,#705,#706,#707));
#1231=EDGE_LOOP('',(#708,#709,#710,#711));
#1232=EDGE_LOOP('',(#712,#713,#714,#715,#716,#717));
#1233=EDGE_LOOP('',(#718,#719,#720,#721,#722,#723));
#1234=EDGE_LOOP('',(#724,#725,#726,#727));
#1235=EDGE_LOOP('',(#728,#729,#730,#731));
#1236=EDGE_LOOP('',(#732,#733,#734,#735));
#1237=EDGE_LOOP('',(#736,#737,#738,#739));
#1238=EDGE_LOOP('',(#740,#741,#742,#743));
#1239=EDGE_LOOP('',(#744,#745,#746,#747));
#1240=EDGE_LOOP('',(#748,#749,#750,#751,#752,#753));
#1241=EDGE_LOOP('',(#754,#755,#756,#757,#758,#759));
#1242=EDGE_LOOP('',(#760,#761,#762,#763));
#1243=EDGE_LOOP('',(#764,#765,#766,#767));
#1244=EDGE_LOOP('',(#768,#769,#770,#771));
#1245=EDGE_LOOP('',(#772,#773,#774,#775));
#1246=EDGE_LOOP('',(#776,#777,#778,#779));
#1247=EDGE_LOOP('',(#780,#781,#782,#783));
#1248=EDGE_LOOP('',(#784,#785,#786,#787));
#1249=EDGE_LOOP('',(#788,#789,#790,#791));
#1250=EDGE_LOOP('',(#792));
#1251=EDGE_LOOP('',(#793));
#1252=EDGE_LOOP('',(#794));
#1253=EDGE_LOOP('',(#795));
#1254=FACE_BOUND('',#1148,.T.);
#1255=FACE_BOUND('',#1149,.T.);
#1256=FACE_BOUND('',#1150,.T.);
#1257=FACE_BOUND('',#1151,.T.);
#1258=FACE_BOUND('',#1152,.T.);
#1259=FACE_BOUND('',#1153,.T.);
#1260=FACE_BOUND('',#1154,.T.);
#1261=FACE_BOUND('',#1155,.T.);
#1262=FACE_BOUND('',#1156,.T.);
#1263=FACE_BOUND('',#1157,.T.);
#1264=FACE_BOUND('',#1158,.T.);
#1265=FACE_BOUND('',#1159,.T.);
#1266=FACE_BOUND('',#1160,.T.);
#1267=FACE_BOUND('',#1161,.T.);
#1268=FACE_BOUND('',#1162,.T.);
#1269=FACE_BOUND('',#1163,.T.);
#1270=FACE_BOUND('',#1164,.T.);
#1271=FACE_BOUND('',#1165,.T.);
#1272=FACE_BOUND('',#1166,.T.);
#1273=FACE_BOUND('',#1167,.T.);
#1274=FACE_BOUND('',#1168,.T.);
#1275=FACE_BOUND('',#1169,.T.);
#1276=FACE_BOUND('',#1170,.T.);
#1277=FACE_BOUND('',#1171,.T.);
#1278=FACE_BOUND('',#1172,.T.);
#1279=FACE_BOUND('',#1173,.T.);
#1280=FACE_BOUND('',#1174,.T.);
#1281=FACE_BOUND('',#1175,.T.);
#1282=FACE_BOUND('',#1176,.T.);
#1283=FACE_BOUND('',#1177,.T.);
#1284=FACE_BOUND('',#1178,.T.);
#1285=FACE_BOUND('',#1179,.T.);
#1286=FACE_BOUND('',#1180,.T.);
#1287=FACE_BOUND('',#1181,.T.);
#1288=FACE_BOUND('',#1182,.T.);
#1289=FACE_BOUND('',#1183,.T.);
#1290=FACE_BOUND('',#1184,.T.);
#1291=FACE_BOUND('',#1185,.T.);
#1292=FACE_BOUND('',#1186,.T.);
#1293=FACE_BOUND('',#1187,.T.);
#1294=FACE_BOUND('',#1188,.T.);
#1295=FACE_BOUND('',#1189,.T.);
#1296=FACE_BOUND('',#1190,.T.);
#1297=FACE_BOUND('',#1191,.T.);
#1298=FACE_BOUND('',#1192,.T.);
#1299=FACE_BOUND('',#1193,.T.);
#1300=FACE_BOUND('',#1194,.T.);
#1301=FACE_BOUND('',#1195,.T.);
#1302=FACE_BOUND('',#1196,.T.);
#1303=FACE_BOUND('',#1197,.T.);
#1304=FACE_BOUND('',#1198,.T.);
#1305=FACE_BOUND('',#1199,.T.);
#1306=FACE_BOUND('',#1200,.T.);
#1307=FACE_BOUND('',#1201,.T.);
#1308=FACE_BOUND('',#1202,.T.);
#1309=FACE_BOUND('',#1203,.T.);
#1310=FACE_BOUND('',#1204,.T.);
#1311=FACE_BOUND('',#1205,.T.);
#1312=FACE_BOUND('',#1206,.T.);
#1313=FACE_BOUND('',#1207,.T.);
#1314=FACE_BOUND('',#1208,.T.);
#1315=FACE_BOUND('',#1209,.T.);
#1316=FACE_BOUND('',#1210,.T.);
#1317=FACE_BOUND('',#1211,.T.);
#1318=FACE_BOUND('',#1212,.T.);
#1319=FACE_BOUND('',#1213,.T.);
#1320=FACE_BOUND('',#1214,.T.);
#1321=FACE_BOUND('',#1215,.T.);
#1322=FACE_BOUND('',#1216,.T.);
#1323=FACE_BOUND('',#1217,.T.);
#1324=FACE_BOUND('',#1218,.T.);
#1325=FACE_BOUND('',#1219,.T.);
#1326=FACE_BOUND('',#1220,.T.);
#1327=FACE_BOUND('',#1221,.T.);
#1328=FACE_BOUND('',#1222,.T.);
#1329=FACE_BOUND('',#1223,.T.);
#1330=FACE_BOUND('',#1224,.T.);
#1331=FACE_BOUND('',#1225,.T.);
#1332=FACE_BOUND('',#1226,.T.);
#1333=FACE_BOUND('',#1227,.T.);
#1334=FACE_BOUND('',#1228,.T.);
#1335=FACE_BOUND('',#1229,.T.);
#1336=FACE_BOUND('',#1230,.T.);
#1337=FACE_BOUND('',#1231,.T.);
#1338=FACE_BOUND('',#1232,.T.);
#1339=FACE_BOUND('',#1233,.T.);
#1340=FACE_BOUND('',#1234,.T.);
#1341=FACE_BOUND('',#1235,.T.);
#1342=FACE_BOUND('',#1236,.T.);
#1343=FACE_BOUND('',#1237,.T.);
#1344=FACE_BOUND('',#1238,.T.);
#1345=FACE_BOUND('',#1239,.T.);
#1346=FACE_BOUND('',#1240,.T.);
#1347=FACE_BOUND('',#1241,.T.);
#1348=FACE_BOUND('',#1242,.T.);
#1349=FACE_BOUND('',#1243,.T.);
#1350=FACE_BOUND('',#1244,.T.);
#1351=FACE_BOUND('',#1245,.T.);
#1352=FACE_BOUND('',#1246,.T.);
#1353=FACE_BOUND('',#1247,.T.);
#1354=FACE_BOUND('',#1248,.T.);
#1355=FACE_BOUND('',#1249,.T.);
#1356=FACE_BOUND('',#1250,.T.);
#1357=FACE_BOUND('',#1251,.T.);
#1358=FACE_BOUND('',#1252,.T.);
#1359=FACE_BOUND('',#1253,.T.);
#1360=PLANE('',#1525);
#1361=PLANE('',#1544);
#1362=PLANE('',#1545);
#1363=PLANE('',#1546);
#1364=PLANE('',#1547);
#1365=PLANE('',#1548);
#1366=PLANE('',#1551);
#1367=PLANE('',#1552);
#1368=PLANE('',#1555);
#1369=PLANE('',#1556);
#1370=PLANE('',#1557);
#1371=PLANE('',#1558);
#1372=PLANE('',#1559);
#1373=PLANE('',#1560);
#1374=PLANE('',#1561);
#1375=PLANE('',#1562);
#1376=PLANE('',#1563);
#1377=PLANE('',#1564);
#1378=PLANE('',#1565);
#1379=PLANE('',#1566);
#1380=PLANE('',#1567);
#1381=PLANE('',#1568);
#1382=PLANE('',#1569);
#1383=PLANE('',#1570);
#1384=PLANE('',#1571);
#1385=PLANE('',#1572);
#1386=PLANE('',#1573);
#1387=PLANE('',#1574);
#1388=PLANE('',#1575);
#1389=PLANE('',#1576);
#1390=PLANE('',#1577);
#1391=PLANE('',#1578);
#1392=PLANE('',#1579);
#1393=PLANE('',#1580);
#1394=PLANE('',#1581);
#1395=PLANE('',#1582);
#1396=PLANE('',#1583);
#1397=PLANE('',#1584);
#1398=PLANE('',#1585);
#1399=PLANE('',#1586);
#1400=PLANE('',#1587);
#1401=PLANE('',#1588);
#1402=PLANE('',#1589);
#1403=PLANE('',#1590);
#1404=PLANE('',#1591);
#1405=PLANE('',#1592);
#1406=PLANE('',#1593);
#1407=PLANE('',#1594);
#1408=PLANE('',#1595);
#1409=PLANE('',#1596);
#1410=PLANE('',#1597);
#1411=PLANE('',#1598);
#1412=PLANE('',#1599);
#1413=PLANE('',#1600);
#1414=PLANE('',#1601);
#1415=PLANE('',#1602);
#1416=PLANE('',#1603);
#1417=PLANE('',#1604);
#1418=PLANE('',#1605);
#1419=PLANE('',#1606);
#1420=PLANE('',#1607);
#1421=PLANE('',#1608);
#1422=PLANE('',#1609);
#1423=PLANE('',#1610);
#1424=PLANE('',#1611);
#1425=PLANE('',#1612);
#1426=PLANE('',#1613);
#1427=PLANE('',#1614);
#1428=PLANE('',#1615);
#1429=PLANE('',#1616);
#1430=PLANE('',#1617);
#1431=PLANE('',#1618);
#1432=ADVANCED_FACE('',(#1254,#1255,#1256,#1257,#1258,#1259,#1260),#1360,
 .T.);
#1433=ADVANCED_FACE('',(#1261,#1262),#20,.F.);
#1434=ADVANCED_FACE('',(#1263,#1264),#21,.F.);
#1435=ADVANCED_FACE('',(#1265,#1266),#22,.F.);
#1436=ADVANCED_FACE('',(#1267,#1268),#23,.F.);
#1437=ADVANCED_FACE('',(#1269),#24,.T.);
#1438=ADVANCED_FACE('',(#1270),#1361,.F.);
#1439=ADVANCED_FACE('',(#1271),#1362,.F.);
#1440=ADVANCED_FACE('',(#1272),#1363,.F.);
#1441=ADVANCED_FACE('',(#1273),#1364,.F.);
#1442=ADVANCED_FACE('',(#1274),#1365,.T.);
#1443=ADVANCED_FACE('',(#1275),#25,.T.);
#1444=ADVANCED_FACE('',(#1276),#1366,.F.);
#1445=ADVANCED_FACE('',(#1277,#1278,#1279,#1280,#1281,#1282,#1283),#1367,
 .F.);
#1446=ADVANCED_FACE('',(#1284),#1368,.F.);
#1447=ADVANCED_FACE('',(#1285),#1369,.F.);
#1448=ADVANCED_FACE('',(#1286),#1370,.F.);
#1449=ADVANCED_FACE('',(#1287),#1371,.F.);
#1450=ADVANCED_FACE('',(#1288),#1372,.F.);
#1451=ADVANCED_FACE('',(#1289),#1373,.F.);
#1452=ADVANCED_FACE('',(#1290,#1291),#1374,.T.);
#1453=ADVANCED_FACE('',(#1292),#1375,.F.);
#1454=ADVANCED_FACE('',(#1293),#1376,.F.);
#1455=ADVANCED_FACE('',(#1294),#1377,.F.);
#1456=ADVANCED_FACE('',(#1295),#1378,.F.);
#1457=ADVANCED_FACE('',(#1296),#1379,.F.);
#1458=ADVANCED_FACE('',(#1297),#1380,.F.);
#1459=ADVANCED_FACE('',(#1298,#1299),#1381,.T.);
#1460=ADVANCED_FACE('',(#1300),#1382,.F.);
#1461=ADVANCED_FACE('',(#1301),#1383,.F.);
#1462=ADVANCED_FACE('',(#1302),#1384,.F.);
#1463=ADVANCED_FACE('',(#1303),#1385,.F.);
#1464=ADVANCED_FACE('',(#1304),#1386,.F.);
#1465=ADVANCED_FACE('',(#1305),#1387,.F.);
#1466=ADVANCED_FACE('',(#1306,#1307),#1388,.T.);
#1467=ADVANCED_FACE('',(#1308),#1389,.F.);
#1468=ADVANCED_FACE('',(#1309),#1390,.F.);
#1469=ADVANCED_FACE('',(#1310),#1391,.F.);
#1470=ADVANCED_FACE('',(#1311),#1392,.F.);
#1471=ADVANCED_FACE('',(#1312),#1393,.F.);
#1472=ADVANCED_FACE('',(#1313),#1394,.F.);
#1473=ADVANCED_FACE('',(#1314,#1315),#1395,.T.);
#1474=ADVANCED_FACE('',(#1316),#1396,.F.);
#1475=ADVANCED_FACE('',(#1317),#1397,.F.);
#1476=ADVANCED_FACE('',(#1318),#1398,.F.);
#1477=ADVANCED_FACE('',(#1319),#1399,.F.);
#1478=ADVANCED_FACE('',(#1320),#1400,.F.);
#1479=ADVANCED_FACE('',(#1321),#1401,.F.);
#1480=ADVANCED_FACE('',(#1322,#1323),#1402,.T.);
#1481=ADVANCED_FACE('',(#1324),#1403,.F.);
#1482=ADVANCED_FACE('',(#1325),#1404,.F.);
#1483=ADVANCED_FACE('',(#1326),#1405,.F.);
#1484=ADVANCED_FACE('',(#1327),#1406,.F.);
#1485=ADVANCED_FACE('',(#1328),#1407,.F.);
#1486=ADVANCED_FACE('',(#1329),#1408,.F.);
#1487=ADVANCED_FACE('',(#1330,#1331),#1409,.T.);
#1488=ADVANCED_FACE('',(#1332),#1410,.F.);
#1489=ADVANCED_FACE('',(#1333),#1411,.F.);
#1490=ADVANCED_FACE('',(#1334),#1412,.F.);
#1491=ADVANCED_FACE('',(#1335),#1413,.F.);
#1492=ADVANCED_FACE('',(#1336),#1414,.F.);
#1493=ADVANCED_FACE('',(#1337),#1415,.F.);
#1494=ADVANCED_FACE('',(#1338,#1339),#1416,.T.);
#1495=ADVANCED_FACE('',(#1340),#1417,.F.);
#1496=ADVANCED_FACE('',(#1341),#1418,.F.);
#1497=ADVANCED_FACE('',(#1342),#1419,.F.);
#1498=ADVANCED_FACE('',(#1343),#1420,.F.);
#1499=ADVANCED_FACE('',(#1344),#1421,.F.);
#1500=ADVANCED_FACE('',(#1345),#1422,.F.);
#1501=ADVANCED_FACE('',(#1346,#1347),#1423,.T.);
#1502=ADVANCED_FACE('',(#1348),#1424,.T.);
#1503=ADVANCED_FACE('',(#1349),#1425,.T.);
#1504=ADVANCED_FACE('',(#1350),#1426,.F.);
#1505=ADVANCED_FACE('',(#1351),#1427,.F.);
#1506=ADVANCED_FACE('',(#1352),#1428,.F.);
#1507=ADVANCED_FACE('',(#1353),#1429,.F.);
#1508=ADVANCED_FACE('',(#1354),#1430,.F.);
#1509=ADVANCED_FACE('',(#1355),#1431,.F.);
#1510=ADVANCED_FACE('',(#1356,#1357),#26,.F.);
#1511=ADVANCED_FACE('',(#1358,#1359),#27,.F.);
#1512=CLOSED_SHELL('',(#1432,#1433,#1434,#1435,#1436,#1437,#1438,#1439,
#1440,#1441,#1442,#1443,#1444,#1445,#1446,#1447,#1448,#1449,#1450,#1451,
#1452,#1453,#1454,#1455,#1456,#1457,#1458,#1459,#1460,#1461,#1462,#1463,
#1464,#1465,#1466,#1467,#1468,#1469,#1470,#1471,#1472,#1473,#1474,#1475,
#1476,#1477,#1478,#1479,#1480,#1481,#1482,#1483,#1484,#1485,#1486,#1487,
#1488,#1489,#1490,#1491,#1492,#1493,#1494,#1495,#1496,#1497,#1498,#1499,
#1500,#1501,#1502,#1503,#1504,#1505,#1506,#1507,#1508,#1509,#1510,#1511));
#1513=STYLED_ITEM('',(#1514),#1521);
#1514=PRESENTATION_STYLE_ASSIGNMENT((#1515));
#1515=SURFACE_STYLE_USAGE(.BOTH.,#1516);
#1516=SURFACE_SIDE_STYLE('',(#1517));
#1517=SURFACE_STYLE_FILL_AREA(#1518);
#1518=FILL_AREA_STYLE('',(#1519));
#1519=FILL_AREA_STYLE_COLOUR('',#1520);
#1520=COLOUR_RGB('',0.615686274509804,0.811764705882353,0.929411764705882);
#1521=MANIFOLD_SOLID_BREP('Right lower Cart Bottom',#1512);
#1522=SHAPE_DEFINITION_REPRESENTATION(#2422,#1523);
#1523=SHAPE_REPRESENTATION('Right lower Cart Bottom',(#1524),#2417);
#1524=AXIS2_PLACEMENT_3D('',#1999,#1621,#1622);
#1525=AXIS2_PLACEMENT_3D('',#2000,#1623,#1624);
#1526=AXIS2_PLACEMENT_3D('',#2001,#1625,#1626);
#1527=AXIS2_PLACEMENT_3D('',#2003,#1627,#1628);
#1528=AXIS2_PLACEMENT_3D('',#2029,#1641,#1642);
#1529=AXIS2_PLACEMENT_3D('',#2034,#1644,#1645);
#1530=AXIS2_PLACEMENT_3D('',#2073,#1665,#1666);
#1531=AXIS2_PLACEMENT_3D('',#2074,#1667,#1668);
#1532=AXIS2_PLACEMENT_3D('',#2076,#1669,#1670);
#1533=AXIS2_PLACEMENT_3D('',#2078,#1671,#1672);
#1534=AXIS2_PLACEMENT_3D('',#2079,#1673,#1674);
#1535=AXIS2_PLACEMENT_3D('',#2081,#1675,#1676);
#1536=AXIS2_PLACEMENT_3D('',#2083,#1677,#1678);
#1537=AXIS2_PLACEMENT_3D('',#2084,#1679,#1680);
#1538=AXIS2_PLACEMENT_3D('',#2086,#1681,#1682);
#1539=AXIS2_PLACEMENT_3D('',#2088,#1683,#1684);
#1540=AXIS2_PLACEMENT_3D('',#2089,#1685,#1686);
#1541=AXIS2_PLACEMENT_3D('',#2091,#1687,#1688);
#1542=AXIS2_PLACEMENT_3D('',#2093,#1689,#1690);
#1543=AXIS2_PLACEMENT_3D('',#2094,#1691,#1692);
#1544=AXIS2_PLACEMENT_3D('',#2099,#1695,#1696);
#1545=AXIS2_PLACEMENT_3D('',#2103,#1699,#1700);
#1546=AXIS2_PLACEMENT_3D('',#2107,#1703,#1704);
#1547=AXIS2_PLACEMENT_3D('',#2113,#1708,#1709);
#1548=AXIS2_PLACEMENT_3D('',#2119,#1713,#1714);
#1549=AXIS2_PLACEMENT_3D('',#2123,#1717,#1718);
#1550=AXIS2_PLACEMENT_3D('',#2124,#1719,#1720);
#1551=AXIS2_PLACEMENT_3D('',#2127,#1722,#1723);
#1552=AXIS2_PLACEMENT_3D('',#2129,#1725,#1726);
#1553=AXIS2_PLACEMENT_3D('',#2130,#1727,#1728);
#1554=AXIS2_PLACEMENT_3D('',#2132,#1729,#1730);
#1555=AXIS2_PLACEMENT_3D('',#2144,#1737,#1738);
#1556=AXIS2_PLACEMENT_3D('',#2153,#1743,#1744);
#1557=AXIS2_PLACEMENT_3D('',#2159,#1748,#1749);
#1558=AXIS2_PLACEMENT_3D('',#2165,#1753,#1754);
#1559=AXIS2_PLACEMENT_3D('',#2171,#1758,#1759);
#1560=AXIS2_PLACEMENT_3D('',#2177,#1763,#1764);
#1561=AXIS2_PLACEMENT_3D('',#2180,#1767,#1768);
#1562=AXIS2_PLACEMENT_3D('',#2181,#1769,#1770);
#1563=AXIS2_PLACEMENT_3D('',#2190,#1775,#1776);
#1564=AXIS2_PLACEMENT_3D('',#2196,#1780,#1781);
#1565=AXIS2_PLACEMENT_3D('',#2202,#1785,#1786);
#1566=AXIS2_PLACEMENT_3D('',#2208,#1790,#1791);
#1567=AXIS2_PLACEMENT_3D('',#2214,#1795,#1796);
#1568=AXIS2_PLACEMENT_3D('',#2217,#1799,#1800);
#1569=AXIS2_PLACEMENT_3D('',#2218,#1801,#1802);
#1570=AXIS2_PLACEMENT_3D('',#2227,#1807,#1808);
#1571=AXIS2_PLACEMENT_3D('',#2233,#1812,#1813);
#1572=AXIS2_PLACEMENT_3D('',#2239,#1817,#1818);
#1573=AXIS2_PLACEMENT_3D('',#2245,#1822,#1823);
#1574=AXIS2_PLACEMENT_3D('',#2251,#1827,#1828);
#1575=AXIS2_PLACEMENT_3D('',#2254,#1831,#1832);
#1576=AXIS2_PLACEMENT_3D('',#2255,#1833,#1834);
#1577=AXIS2_PLACEMENT_3D('',#2264,#1839,#1840);
#1578=AXIS2_PLACEMENT_3D('',#2270,#1844,#1845);
#1579=AXIS2_PLACEMENT_3D('',#2276,#1849,#1850);
#1580=AXIS2_PLACEMENT_3D('',#2282,#1854,#1855);
#1581=AXIS2_PLACEMENT_3D('',#2288,#1859,#1860);
#1582=AXIS2_PLACEMENT_3D('',#2291,#1863,#1864);
#1583=AXIS2_PLACEMENT_3D('',#2292,#1865,#1866);
#1584=AXIS2_PLACEMENT_3D('',#2298,#1870,#1871);
#1585=AXIS2_PLACEMENT_3D('',#2302,#1874,#1875);
#1586=AXIS2_PLACEMENT_3D('',#2306,#1878,#1879);
#1587=AXIS2_PLACEMENT_3D('',#2310,#1882,#1883);
#1588=AXIS2_PLACEMENT_3D('',#2314,#1886,#1887);
#1589=AXIS2_PLACEMENT_3D('',#2316,#1889,#1890);
#1590=AXIS2_PLACEMENT_3D('',#2317,#1891,#1892);
#1591=AXIS2_PLACEMENT_3D('',#2323,#1896,#1897);
#1592=AXIS2_PLACEMENT_3D('',#2327,#1900,#1901);
#1593=AXIS2_PLACEMENT_3D('',#2331,#1904,#1905);
#1594=AXIS2_PLACEMENT_3D('',#2335,#1908,#1909);
#1595=AXIS2_PLACEMENT_3D('',#2339,#1912,#1913);
#1596=AXIS2_PLACEMENT_3D('',#2341,#1915,#1916);
#1597=AXIS2_PLACEMENT_3D('',#2342,#1917,#1918);
#1598=AXIS2_PLACEMENT_3D('',#2348,#1922,#1923);
#1599=AXIS2_PLACEMENT_3D('',#2352,#1926,#1927);
#1600=AXIS2_PLACEMENT_3D('',#2356,#1930,#1931);
#1601=AXIS2_PLACEMENT_3D('',#2360,#1934,#1935);
#1602=AXIS2_PLACEMENT_3D('',#2364,#1938,#1939);
#1603=AXIS2_PLACEMENT_3D('',#2366,#1941,#1942);
#1604=AXIS2_PLACEMENT_3D('',#2367,#1943,#1944);
#1605=AXIS2_PLACEMENT_3D('',#2373,#1948,#1949);
#1606=AXIS2_PLACEMENT_3D('',#2377,#1952,#1953);
#1607=AXIS2_PLACEMENT_3D('',#2381,#1956,#1957);
#1608=AXIS2_PLACEMENT_3D('',#2385,#1960,#1961);
#1609=AXIS2_PLACEMENT_3D('',#2389,#1964,#1965);
#1610=AXIS2_PLACEMENT_3D('',#2391,#1967,#1968);
#1611=AXIS2_PLACEMENT_3D('',#2392,#1969,#1970);
#1612=AXIS2_PLACEMENT_3D('',#2398,#1974,#1975);
#1613=AXIS2_PLACEMENT_3D('',#2404,#1979,#1980);
#1614=AXIS2_PLACEMENT_3D('',#2406,#1982,#1983);
#1615=AXIS2_PLACEMENT_3D('',#2408,#1985,#1986);
#1616=AXIS2_PLACEMENT_3D('',#2409,#1987,#1988);
#1617=AXIS2_PLACEMENT_3D('',#2411,#1990,#1991);
#1618=AXIS2_PLACEMENT_3D('',#2413,#1993,#1994);
#1619=AXIS2_PLACEMENT_3D('',#2414,#1995,#1996);
#1620=AXIS2_PLACEMENT_3D('',#2415,#1997,#1998);
#1621=DIRECTION('',(0.,0.,1.));
#1622=DIRECTION('',(1.,0.,0.));
#1623=DIRECTION('',(0.,0.,1.));
#1624=DIRECTION('',(1.,0.,0.));
#1625=DIRECTION('',(0.,0.,1.));
#1626=DIRECTION('',(1.,0.,0.));
#1627=DIRECTION('',(0.,0.,1.));
#1628=DIRECTION('',(1.,0.,0.));
#1629=DIRECTION('',(0.5,-0.866025403784439,0.));
#1630=DIRECTION('',(-0.5,-0.866025403784438,0.));
#1631=DIRECTION('',(-1.,0.,0.));
#1632=DIRECTION('',(-0.5,0.866025403784438,0.));
#1633=DIRECTION('',(0.5,0.866025403784439,0.));
#1634=DIRECTION('',(1.,0.,0.));
#1635=DIRECTION('',(0.5,0.866025403784439,0.));
#1636=DIRECTION('',(1.,0.,0.));
#1637=DIRECTION('',(0.5,-0.866025403784438,0.));
#1638=DIRECTION('',(-0.5,-0.866025403784439,0.));
#1639=DIRECTION('',(-1.,0.,0.));
#1640=DIRECTION('',(-0.5,0.866025403784438,0.));
#1641=DIRECTION('',(0.,0.,1.));
#1642=DIRECTION('',(1.,0.,0.));
#1643=DIRECTION('',(0.,-1.,0.));
#1644=DIRECTION('',(0.,0.,-1.));
#1645=DIRECTION('',(1.,0.,0.));
#1646=DIRECTION('',(1.,0.,0.));
#1647=DIRECTION('',(0.,-1.,0.));
#1648=DIRECTION('',(1.,0.,0.));
#1649=DIRECTION('',(0.,1.,0.));
#1650=DIRECTION('',(-1.,0.,0.));
#1651=DIRECTION('',(0.,-1.,0.));
#1652=DIRECTION('',(1.,0.,0.));
#1653=DIRECTION('',(-0.5,0.866025403784438,0.));
#1654=DIRECTION('',(0.5,0.866025403784439,0.));
#1655=DIRECTION('',(1.,0.,0.));
#1656=DIRECTION('',(0.5,-0.866025403784438,0.));
#1657=DIRECTION('',(-0.5,-0.866025403784439,0.));
#1658=DIRECTION('',(-1.,-9.1049369620434E-16,0.));
#1659=DIRECTION('',(0.5,-0.866025403784439,0.));
#1660=DIRECTION('',(-0.5,-0.866025403784438,0.));
#1661=DIRECTION('',(-1.,1.82098739240868E-15,0.));
#1662=DIRECTION('',(-0.5,0.866025403784439,0.));
#1663=DIRECTION('',(0.5,0.866025403784438,0.));
#1664=DIRECTION('',(1.,-9.10493696204339E-16,0.));
#1665=DIRECTION('',(0.,0.,-1.));
#1666=DIRECTION('',(-1.,0.,0.));
#1667=DIRECTION('',(0.,0.,-1.));
#1668=DIRECTION('',(1.,0.,0.));
#1669=DIRECTION('',(0.,0.,-1.));
#1670=DIRECTION('',(1.,0.,0.));
#1671=DIRECTION('',(0.,0.,-1.));
#1672=DIRECTION('',(-1.,0.,0.));
#1673=DIRECTION('',(0.,0.,-1.));
#1674=DIRECTION('',(1.,0.,0.));
#1675=DIRECTION('',(0.,0.,-1.));
#1676=DIRECTION('',(1.,0.,0.));
#1677=DIRECTION('',(0.,0.,-1.));
#1678=DIRECTION('',(-1.,0.,0.));
#1679=DIRECTION('',(0.,0.,-1.));
#1680=DIRECTION('',(1.,0.,0.));
#1681=DIRECTION('',(0.,0.,-1.));
#1682=DIRECTION('',(1.,0.,0.));
#1683=DIRECTION('',(0.,0.,-1.));
#1684=DIRECTION('',(-1.,0.,0.));
#1685=DIRECTION('',(0.,0.,-1.));
#1686=DIRECTION('',(1.,0.,0.));
#1687=DIRECTION('',(0.,0.,-1.));
#1688=DIRECTION('',(1.,0.,0.));
#1689=DIRECTION('',(0.,0.,-1.));
#1690=DIRECTION('',(-1.,0.,0.));
#1691=DIRECTION('',(0.,0.,1.));
#1692=DIRECTION('',(1.,0.,0.));
#1693=DIRECTION('',(0.,0.,-1.));
#1694=DIRECTION('',(0.,0.,-1.));
#1695=DIRECTION('',(0.,-1.,0.));
#1696=DIRECTION('',(0.,0.,1.));
#1697=DIRECTION('',(1.,0.,0.));
#1698=DIRECTION('',(0.,0.,-1.));
#1699=DIRECTION('',(-1.,0.,0.));
#1700=DIRECTION('',(0.,0.,1.));
#1701=DIRECTION('',(0.,-1.,0.));
#1702=DIRECTION('',(0.,0.,-1.));
#1703=DIRECTION('',(1.,0.,0.));
#1704=DIRECTION('',(0.,0.,-1.));
#1705=DIRECTION('',(0.,1.,0.));
#1706=DIRECTION('',(0.,0.,-1.));
#1707=DIRECTION('',(0.,0.,-1.));
#1708=DIRECTION('',(-1.,0.,0.));
#1709=DIRECTION('',(0.,0.,1.));
#1710=DIRECTION('',(0.,-1.,0.));
#1711=DIRECTION('',(0.,0.,-1.));
#1712=DIRECTION('',(0.,0.,-1.));
#1713=DIRECTION('',(0.,-1.,0.));
#1714=DIRECTION('',(0.,0.,1.));
#1715=DIRECTION('',(1.,0.,0.));
#1716=DIRECTION('',(0.,0.,-1.));
#1717=DIRECTION('',(0.,0.,-1.));
#1718=DIRECTION('',(-1.,0.,0.));
#1719=DIRECTION('',(0.,0.,-1.));
#1720=DIRECTION('',(1.,0.,0.));
#1721=DIRECTION('',(0.,0.,-1.));
#1722=DIRECTION('',(-1.,0.,0.));
#1723=DIRECTION('',(0.,0.,1.));
#1724=DIRECTION('',(0.,-1.,0.));
#1725=DIRECTION('',(0.,0.,1.));
#1726=DIRECTION('',(1.,0.,0.));
#1727=DIRECTION('',(0.,0.,1.));
#1728=DIRECTION('',(1.,0.,0.));
#1729=DIRECTION('',(0.,0.,1.));
#1730=DIRECTION('',(1.,0.,0.));
#1731=DIRECTION('',(-0.815360209720322,-0.578953995067684,0.));
#1732=DIRECTION('',(1.,0.,0.));
#1733=DIRECTION('',(0.942681905686088,-0.333692709977376,0.));
#1734=DIRECTION('',(0.942681905686088,0.333692709977376,0.));
#1735=DIRECTION('',(-1.,0.,0.));
#1736=DIRECTION('',(-0.815360209720322,0.578953995067685,0.));
#1737=DIRECTION('',(-0.866025403784439,0.5,0.));
#1738=DIRECTION('',(0.5,0.866025403784439,0.));
#1739=DIRECTION('',(0.,0.,1.));
#1740=DIRECTION('',(0.5,0.866025403784439,0.));
#1741=DIRECTION('',(0.,0.,1.));
#1742=DIRECTION('',(0.5,0.866025403784439,0.));
#1743=DIRECTION('',(0.,1.,0.));
#1744=DIRECTION('',(0.,0.,-1.));
#1745=DIRECTION('',(1.,0.,0.));
#1746=DIRECTION('',(0.,0.,1.));
#1747=DIRECTION('',(1.,0.,0.));
#1748=DIRECTION('',(0.866025403784439,0.5,0.));
#1749=DIRECTION('',(0.5,-0.866025403784439,0.));
#1750=DIRECTION('',(0.5,-0.866025403784439,0.));
#1751=DIRECTION('',(0.,0.,1.));
#1752=DIRECTION('',(0.5,-0.866025403784439,0.));
#1753=DIRECTION('',(0.866025403784439,-0.5,0.));
#1754=DIRECTION('',(-0.5,-0.866025403784439,0.));
#1755=DIRECTION('',(-0.5,-0.866025403784439,0.));
#1756=DIRECTION('',(0.,0.,1.));
#1757=DIRECTION('',(-0.5,-0.866025403784439,0.));
#1758=DIRECTION('',(0.,-1.,0.));
#1759=DIRECTION('',(0.,0.,1.));
#1760=DIRECTION('',(-1.,0.,0.));
#1761=DIRECTION('',(0.,0.,1.));
#1762=DIRECTION('',(-1.,0.,0.));
#1763=DIRECTION('',(-0.866025403784438,-0.5,0.));
#1764=DIRECTION('',(-0.5,0.866025403784438,0.));
#1765=DIRECTION('',(-0.5,0.866025403784438,0.));
#1766=DIRECTION('',(-0.5,0.866025403784438,0.));
#1767=DIRECTION('',(0.,0.,1.));
#1768=DIRECTION('',(1.,0.,0.));
#1769=DIRECTION('',(-0.866025403784439,0.5,0.));
#1770=DIRECTION('',(0.5,0.866025403784439,0.));
#1771=DIRECTION('',(0.,0.,1.));
#1772=DIRECTION('',(0.5,0.866025403784439,0.));
#1773=DIRECTION('',(0.,0.,1.));
#1774=DIRECTION('',(0.5,0.866025403784439,0.));
#1775=DIRECTION('',(-1.46567277925577E-15,1.,0.));
#1776=DIRECTION('',(1.,1.46567277925577E-15,0.));
#1777=DIRECTION('',(1.,1.46567277925577E-15,0.));
#1778=DIRECTION('',(0.,0.,1.));
#1779=DIRECTION('',(1.,1.46567277925577E-15,0.));
#1780=DIRECTION('',(0.866025403784438,0.5,0.));
#1781=DIRECTION('',(0.5,-0.866025403784438,0.));
#1782=DIRECTION('',(0.5,-0.866025403784438,0.));
#1783=DIRECTION('',(0.,0.,1.));
#1784=DIRECTION('',(0.5,-0.866025403784438,0.));
#1785=DIRECTION('',(0.866025403784439,-0.5,0.));
#1786=DIRECTION('',(-0.5,-0.866025403784439,0.));
#1787=DIRECTION('',(-0.5,-0.866025403784439,0.));
#1788=DIRECTION('',(0.,0.,1.));
#1789=DIRECTION('',(-0.5,-0.866025403784439,0.));
#1790=DIRECTION('',(1.46567277925577E-15,-1.,0.));
#1791=DIRECTION('',(-1.,-1.46567277925577E-15,0.));
#1792=DIRECTION('',(-1.,-1.46567277925577E-15,0.));
#1793=DIRECTION('',(0.,0.,1.));
#1794=DIRECTION('',(-1.,-1.46567277925577E-15,0.));
#1795=DIRECTION('',(-0.866025403784438,-0.5,0.));
#1796=DIRECTION('',(-0.5,0.866025403784438,0.));
#1797=DIRECTION('',(-0.5,0.866025403784438,0.));
#1798=DIRECTION('',(-0.5,0.866025403784438,0.));
#1799=DIRECTION('',(0.,0.,1.));
#1800=DIRECTION('',(1.,0.,0.));
#1801=DIRECTION('',(-0.866025403784439,0.5,0.));
#1802=DIRECTION('',(0.5,0.866025403784439,0.));
#1803=DIRECTION('',(0.,0.,1.));
#1804=DIRECTION('',(0.5,0.866025403784439,0.));
#1805=DIRECTION('',(0.,0.,1.));
#1806=DIRECTION('',(0.5,0.866025403784439,0.));
#1807=DIRECTION('',(0.,1.,0.));
#1808=DIRECTION('',(0.,0.,-1.));
#1809=DIRECTION('',(1.,0.,0.));
#1810=DIRECTION('',(0.,0.,1.));
#1811=DIRECTION('',(1.,0.,0.));
#1812=DIRECTION('',(0.866025403784439,0.5,0.));
#1813=DIRECTION('',(0.5,-0.866025403784439,0.));
#1814=DIRECTION('',(0.5,-0.866025403784439,0.));
#1815=DIRECTION('',(0.,0.,1.));
#1816=DIRECTION('',(0.5,-0.866025403784439,0.));
#1817=DIRECTION('',(0.866025403784439,-0.5,0.));
#1818=DIRECTION('',(-0.5,-0.866025403784439,0.));
#1819=DIRECTION('',(-0.5,-0.866025403784439,0.));
#1820=DIRECTION('',(0.,0.,1.));
#1821=DIRECTION('',(-0.5,-0.866025403784439,0.));
#1822=DIRECTION('',(0.,-1.,0.));
#1823=DIRECTION('',(0.,0.,1.));
#1824=DIRECTION('',(-1.,0.,0.));
#1825=DIRECTION('',(0.,0.,1.));
#1826=DIRECTION('',(-1.,0.,0.));
#1827=DIRECTION('',(-0.866025403784439,-0.5,0.));
#1828=DIRECTION('',(-0.5,0.866025403784439,0.));
#1829=DIRECTION('',(-0.5,0.866025403784439,0.));
#1830=DIRECTION('',(-0.5,0.866025403784439,0.));
#1831=DIRECTION('',(0.,0.,1.));
#1832=DIRECTION('',(1.,0.,0.));
#1833=DIRECTION('',(-0.866025403784438,0.5,0.));
#1834=DIRECTION('',(0.5,0.866025403784438,0.));
#1835=DIRECTION('',(0.,0.,1.));
#1836=DIRECTION('',(0.5,0.866025403784438,0.));
#1837=DIRECTION('',(0.,0.,1.));
#1838=DIRECTION('',(0.5,0.866025403784438,0.));
#1839=DIRECTION('',(1.46567277925576E-15,1.,0.));
#1840=DIRECTION('',(1.,-1.46567277925576E-15,0.));
#1841=DIRECTION('',(1.,-1.46567277925576E-15,0.));
#1842=DIRECTION('',(0.,0.,1.));
#1843=DIRECTION('',(1.,-1.46567277925576E-15,0.));
#1844=DIRECTION('',(0.866025403784439,0.5,0.));
#1845=DIRECTION('',(0.5,-0.866025403784439,0.));
#1846=DIRECTION('',(0.5,-0.866025403784439,0.));
#1847=DIRECTION('',(0.,0.,1.));
#1848=DIRECTION('',(0.5,-0.866025403784439,0.));
#1849=DIRECTION('',(0.866025403784438,-0.5,0.));
#1850=DIRECTION('',(-0.5,-0.866025403784438,0.));
#1851=DIRECTION('',(-0.5,-0.866025403784438,0.));
#1852=DIRECTION('',(0.,0.,1.));
#1853=DIRECTION('',(-0.5,-0.866025403784438,0.));
#1854=DIRECTION('',(-1.46567277925576E-15,-1.,0.));
#1855=DIRECTION('',(-1.,1.46567277925576E-15,0.));
#1856=DIRECTION('',(-1.,1.46567277925576E-15,0.));
#1857=DIRECTION('',(0.,0.,1.));
#1858=DIRECTION('',(-1.,1.46567277925576E-15,0.));
#1859=DIRECTION('',(-0.866025403784439,-0.5,0.));
#1860=DIRECTION('',(-0.5,0.866025403784439,0.));
#1861=DIRECTION('',(-0.5,0.866025403784439,0.));
#1862=DIRECTION('',(-0.5,0.866025403784439,0.));
#1863=DIRECTION('',(0.,0.,1.));
#1864=DIRECTION('',(1.,0.,0.));
#1865=DIRECTION('',(0.866025403784438,0.5,0.));
#1866=DIRECTION('',(0.5,-0.866025403784438,0.));
#1867=DIRECTION('',(0.,0.,-1.));
#1868=DIRECTION('',(-0.5,0.866025403784438,0.));
#1869=DIRECTION('',(0.,0.,-1.));
#1870=DIRECTION('',(0.866025403784439,-0.5,0.));
#1871=DIRECTION('',(-0.5,-0.866025403784439,0.));
#1872=DIRECTION('',(0.5,0.866025403784439,0.));
#1873=DIRECTION('',(0.,0.,-1.));
#1874=DIRECTION('',(0.,-1.,0.));
#1875=DIRECTION('',(0.,0.,1.));
#1876=DIRECTION('',(1.,0.,0.));
#1877=DIRECTION('',(0.,0.,-1.));
#1878=DIRECTION('',(-0.866025403784438,-0.5,0.));
#1879=DIRECTION('',(-0.5,0.866025403784438,0.));
#1880=DIRECTION('',(0.5,-0.866025403784438,0.));
#1881=DIRECTION('',(0.,0.,-1.));
#1882=DIRECTION('',(-0.866025403784439,0.5,0.));
#1883=DIRECTION('',(0.5,0.866025403784439,0.));
#1884=DIRECTION('',(-0.5,-0.866025403784439,0.));
#1885=DIRECTION('',(0.,0.,-1.));
#1886=DIRECTION('',(0.,1.,0.));
#1887=DIRECTION('',(0.,0.,-1.));
#1888=DIRECTION('',(-1.,0.,0.));
#1889=DIRECTION('',(0.,0.,1.));
#1890=DIRECTION('',(1.,0.,0.));
#1891=DIRECTION('',(-9.1049369620434E-16,1.,0.));
#1892=DIRECTION('',(1.,9.1049369620434E-16,0.));
#1893=DIRECTION('',(0.,0.,-1.));
#1894=DIRECTION('',(-1.,-9.1049369620434E-16,0.));
#1895=DIRECTION('',(0.,0.,-1.));
#1896=DIRECTION('',(0.866025403784438,0.5,0.));
#1897=DIRECTION('',(0.5,-0.866025403784438,0.));
#1898=DIRECTION('',(-0.5,0.866025403784438,0.));
#1899=DIRECTION('',(0.,0.,-1.));
#1900=DIRECTION('',(0.866025403784439,-0.5,0.));
#1901=DIRECTION('',(-0.5,-0.866025403784439,0.));
#1902=DIRECTION('',(0.5,0.866025403784439,0.));
#1903=DIRECTION('',(0.,0.,-1.));
#1904=DIRECTION('',(0.,-1.,0.));
#1905=DIRECTION('',(0.,0.,1.));
#1906=DIRECTION('',(1.,0.,0.));
#1907=DIRECTION('',(0.,0.,-1.));
#1908=DIRECTION('',(-0.866025403784438,-0.5,0.));
#1909=DIRECTION('',(-0.5,0.866025403784438,0.));
#1910=DIRECTION('',(0.5,-0.866025403784438,0.));
#1911=DIRECTION('',(0.,0.,-1.));
#1912=DIRECTION('',(-0.866025403784439,0.5,0.));
#1913=DIRECTION('',(0.5,0.866025403784439,0.));
#1914=DIRECTION('',(-0.5,-0.866025403784439,0.));
#1915=DIRECTION('',(0.,0.,1.));
#1916=DIRECTION('',(1.,0.,0.));
#1917=DIRECTION('',(0.,-1.,0.));
#1918=DIRECTION('',(0.,0.,1.));
#1919=DIRECTION('',(0.,0.,-1.));
#1920=DIRECTION('',(1.,0.,0.));
#1921=DIRECTION('',(0.,0.,-1.));
#1922=DIRECTION('',(-0.866025403784439,-0.5,0.));
#1923=DIRECTION('',(-0.5,0.866025403784439,0.));
#1924=DIRECTION('',(0.5,-0.866025403784439,0.));
#1925=DIRECTION('',(0.,0.,-1.));
#1926=DIRECTION('',(-0.866025403784438,0.5,0.));
#1927=DIRECTION('',(0.5,0.866025403784438,0.));
#1928=DIRECTION('',(-0.5,-0.866025403784438,0.));
#1929=DIRECTION('',(0.,0.,-1.));
#1930=DIRECTION('',(0.,1.,0.));
#1931=DIRECTION('',(0.,0.,-1.));
#1932=DIRECTION('',(-1.,0.,0.));
#1933=DIRECTION('',(0.,0.,-1.));
#1934=DIRECTION('',(0.866025403784438,0.5,0.));
#1935=DIRECTION('',(0.5,-0.866025403784438,0.));
#1936=DIRECTION('',(-0.5,0.866025403784438,0.));
#1937=DIRECTION('',(0.,0.,-1.));
#1938=DIRECTION('',(0.866025403784439,-0.5,0.));
#1939=DIRECTION('',(-0.5,-0.866025403784439,0.));
#1940=DIRECTION('',(0.5,0.866025403784439,0.));
#1941=DIRECTION('',(0.,0.,1.));
#1942=DIRECTION('',(1.,0.,0.));
#1943=DIRECTION('',(-9.10493696204339E-16,-1.,0.));
#1944=DIRECTION('',(-1.,9.10493696204339E-16,0.));
#1945=DIRECTION('',(0.,0.,-1.));
#1946=DIRECTION('',(1.,-9.10493696204339E-16,0.));
#1947=DIRECTION('',(0.,0.,-1.));
#1948=DIRECTION('',(-0.866025403784439,-0.5,0.));
#1949=DIRECTION('',(-0.5,0.866025403784439,0.));
#1950=DIRECTION('',(0.5,-0.866025403784439,0.));
#1951=DIRECTION('',(0.,0.,-1.));
#1952=DIRECTION('',(-0.866025403784438,0.5,0.));
#1953=DIRECTION('',(0.5,0.866025403784438,0.));
#1954=DIRECTION('',(-0.5,-0.866025403784438,0.));
#1955=DIRECTION('',(0.,0.,-1.));
#1956=DIRECTION('',(1.82098739240868E-15,1.,0.));
#1957=DIRECTION('',(1.,-1.82098739240868E-15,0.));
#1958=DIRECTION('',(-1.,1.82098739240868E-15,0.));
#1959=DIRECTION('',(0.,0.,-1.));
#1960=DIRECTION('',(0.86602540378444,0.5,0.));
#1961=DIRECTION('',(0.5,-0.866025403784439,0.));
#1962=DIRECTION('',(-0.5,0.866025403784439,0.));
#1963=DIRECTION('',(0.,0.,-1.));
#1964=DIRECTION('',(0.866025403784438,-0.5,0.));
#1965=DIRECTION('',(-0.5,-0.866025403784438,0.));
#1966=DIRECTION('',(0.5,0.866025403784438,0.));
#1967=DIRECTION('',(0.,0.,1.));
#1968=DIRECTION('',(1.,0.,0.));
#1969=DIRECTION('',(0.,1.,0.));
#1970=DIRECTION('',(1.,0.,0.));
#1971=DIRECTION('',(0.,0.,-1.));
#1972=DIRECTION('',(-1.,0.,-8.63046505461098E-17));
#1973=DIRECTION('',(0.,0.,1.));
#1974=DIRECTION('',(0.,-1.,0.));
#1975=DIRECTION('',(-1.,0.,0.));
#1976=DIRECTION('',(0.,0.,-1.));
#1977=DIRECTION('',(1.,0.,-2.58913951638329E-16));
#1978=DIRECTION('',(0.,0.,1.));
#1979=DIRECTION('',(-0.333692709977376,-0.942681905686088,0.));
#1980=DIRECTION('',(-0.942681905686088,0.333692709977376,0.));
#1981=DIRECTION('',(0.941227384478589,-0.333177835213659,0.0555296392022765));
#1982=DIRECTION('',(0.578953995067684,-0.815360209720322,0.));
#1983=DIRECTION('',(-0.815360209720322,-0.578953995067684,0.));
#1984=DIRECTION('',(-0.811590696410188,-0.576277417569364,0.0960462362615608));
#1985=DIRECTION('',(8.51303828971392E-17,-0.164398987305357,-0.986393923832144));
#1986=DIRECTION('',(0.,-0.986393923832144,0.164398987305357));
#1987=DIRECTION('',(0.578953995067685,0.815360209720322,0.));
#1988=DIRECTION('',(0.815360209720322,-0.578953995067685,0.));
#1989=DIRECTION('',(-0.811590696410187,0.576277417569364,0.0960462362615605));
#1990=DIRECTION('',(-0.333692709977376,0.942681905686088,0.));
#1991=DIRECTION('',(0.942681905686088,0.333692709977376,0.));
#1992=DIRECTION('',(0.941227384478589,0.333177835213659,0.0555296392022767));
#1993=DIRECTION('',(-2.55391148691417E-16,0.164398987305357,-0.986393923832144));
#1994=DIRECTION('',(0.,-0.986393923832144,-0.164398987305357));
#1995=DIRECTION('',(0.,0.,1.));
#1996=DIRECTION('',(1.,0.,0.));
#1997=DIRECTION('',(0.,0.,1.));
#1998=DIRECTION('',(1.,0.,0.));
#1999=CARTESIAN_POINT('',(0.,0.,0.));
#2000=CARTESIAN_POINT('',(0.006,0.,0.007));
#2001=CARTESIAN_POINT('',(0.049,0.03,0.007));
#2002=CARTESIAN_POINT('',(0.0508,0.03,0.007));
#2003=CARTESIAN_POINT('',(0.049,-0.03,0.007));
#2004=CARTESIAN_POINT('',(0.0508,-0.03,0.007));
#2005=CARTESIAN_POINT('',(-0.0212842323350227,-0.0217,0.007));
#2006=CARTESIAN_POINT('',(-0.0231894882233485,-0.0184,0.007));
#2007=CARTESIAN_POINT('',(-0.0193789764466969,-0.025,0.007));
#2008=CARTESIAN_POINT('',(-0.0212842323350227,-0.0283,0.007));
#2009=CARTESIAN_POINT('',(-0.0231894882233485,-0.0316,0.007));
#2010=CARTESIAN_POINT('',(-0.027,-0.0316,0.007));
#2011=CARTESIAN_POINT('',(-0.0308105117766516,-0.0316,0.007));
#2012=CARTESIAN_POINT('',(-0.0327157676649773,-0.0283,0.007));
#2013=CARTESIAN_POINT('',(-0.034621023553303,-0.025,0.007));
#2014=CARTESIAN_POINT('',(-0.0327157676649773,-0.0217,0.007));
#2015=CARTESIAN_POINT('',(-0.0308105117766515,-0.0184,0.007));
#2016=CARTESIAN_POINT('',(-0.027,-0.0184,0.007));
#2017=CARTESIAN_POINT('',(0.0212842323350227,0.0283,0.007));
#2018=CARTESIAN_POINT('',(0.0193789764466969,0.025,0.007));
#2019=CARTESIAN_POINT('',(0.0231894882233485,0.0316,0.007));
#2020=CARTESIAN_POINT('',(0.027,0.0316,0.007));
#2021=CARTESIAN_POINT('',(0.0308105117766515,0.0316,0.007));
#2022=CARTESIAN_POINT('',(0.0327157676649773,0.0283,0.007));
#2023=CARTESIAN_POINT('',(0.034621023553303,0.025,0.007));
#2024=CARTESIAN_POINT('',(0.0327157676649773,0.0217,0.007));
#2025=CARTESIAN_POINT('',(0.0308105117766515,0.0184,0.007));
#2026=CARTESIAN_POINT('',(0.027,0.0184,0.007));
#2027=CARTESIAN_POINT('',(0.0231894882233485,0.0184,0.007));
#2028=CARTESIAN_POINT('',(0.0212842323350227,0.0217,0.007));
#2029=CARTESIAN_POINT('',(0.027,-0.025,0.007));
#2030=CARTESIAN_POINT('',(0.044,-0.025,0.007));
#2031=CARTESIAN_POINT('',(0.037,-0.0112522729151325,0.007));
#2032=CARTESIAN_POINT('',(0.037,-1.04083408558608E-17,0.007));
#2033=CARTESIAN_POINT('',(0.037,0.0112522729151325,0.007));
#2034=CARTESIAN_POINT('',(0.027,0.025,0.007));
#2035=CARTESIAN_POINT('',(0.044,0.025,0.007));
#2036=CARTESIAN_POINT('',(0.049,0.025,0.007));
#2037=CARTESIAN_POINT('',(0.054,0.025,0.007));
#2038=CARTESIAN_POINT('',(0.054,0.03,0.007));
#2039=CARTESIAN_POINT('',(0.054,0.035,0.007));
#2040=CARTESIAN_POINT('',(0.,0.035,0.007));
#2041=CARTESIAN_POINT('',(-0.037,0.035,0.007));
#2042=CARTESIAN_POINT('',(-0.037,0.,0.007));
#2043=CARTESIAN_POINT('',(-0.037,-0.035,0.007));
#2044=CARTESIAN_POINT('',(0.0405,-0.035,0.007));
#2045=CARTESIAN_POINT('',(0.054,-0.035,0.007));
#2046=CARTESIAN_POINT('',(0.054,-0.03,0.007));
#2047=CARTESIAN_POINT('',(0.054,-0.025,0.007));
#2048=CARTESIAN_POINT('',(0.049,-0.025,0.007));
#2049=CARTESIAN_POINT('',(-0.0327157676649773,0.0217,0.007));
#2050=CARTESIAN_POINT('',(-0.0308105117766515,0.0184,0.007));
#2051=CARTESIAN_POINT('',(-0.034621023553303,0.025,0.007));
#2052=CARTESIAN_POINT('',(-0.0327157676649773,0.0283,0.007));
#2053=CARTESIAN_POINT('',(-0.0308105117766516,0.0316,0.007));
#2054=CARTESIAN_POINT('',(-0.027,0.0316,0.007));
#2055=CARTESIAN_POINT('',(-0.0231894882233485,0.0316,0.007));
#2056=CARTESIAN_POINT('',(-0.0212842323350227,0.0283,0.007));
#2057=CARTESIAN_POINT('',(-0.0193789764466969,0.025,0.007));
#2058=CARTESIAN_POINT('',(-0.0212842323350227,0.0217,0.007));
#2059=CARTESIAN_POINT('',(-0.0231894882233485,0.0184,0.007));
#2060=CARTESIAN_POINT('',(-0.027,0.0184,0.007));
#2061=CARTESIAN_POINT('',(0.0327157676649773,-0.0217,0.007));
#2062=CARTESIAN_POINT('',(0.0308105117766516,-0.0184,0.007));
#2063=CARTESIAN_POINT('',(0.034621023553303,-0.025,0.007));
#2064=CARTESIAN_POINT('',(0.0327157676649773,-0.0283,0.007));
#2065=CARTESIAN_POINT('',(0.0308105117766515,-0.0316,0.007));
#2066=CARTESIAN_POINT('',(0.027,-0.0316,0.007));
#2067=CARTESIAN_POINT('',(0.0231894882233485,-0.0316,0.007));
#2068=CARTESIAN_POINT('',(0.0212842323350227,-0.0283,0.007));
#2069=CARTESIAN_POINT('',(0.0193789764466969,-0.025,0.007));
#2070=CARTESIAN_POINT('',(0.0212842323350227,-0.0217,0.007));
#2071=CARTESIAN_POINT('',(0.0231894882233485,-0.0184,0.007));
#2072=CARTESIAN_POINT('',(0.027,-0.0184,0.007));
#2073=CARTESIAN_POINT('',(-0.027,-0.025,0.007));
#2074=CARTESIAN_POINT('',(-0.027,-0.025,0.));
#2075=CARTESIAN_POINT('',(-0.0242,-0.025,0.));
#2076=CARTESIAN_POINT('',(-0.027,-0.025,0.005));
#2077=CARTESIAN_POINT('',(-0.0242,-0.025,0.005));
#2078=CARTESIAN_POINT('',(-0.027,0.025,0.007));
#2079=CARTESIAN_POINT('',(-0.027,0.025,0.));
#2080=CARTESIAN_POINT('',(-0.0242,0.025,0.));
#2081=CARTESIAN_POINT('',(-0.027,0.025,0.005));
#2082=CARTESIAN_POINT('',(-0.0242,0.025,0.005));
#2083=CARTESIAN_POINT('',(0.027,0.025,0.007));
#2084=CARTESIAN_POINT('',(0.027,0.025,0.));
#2085=CARTESIAN_POINT('',(0.0298,0.025,0.));
#2086=CARTESIAN_POINT('',(0.027,0.025,0.005));
#2087=CARTESIAN_POINT('',(0.0298,0.025,0.005));
#2088=CARTESIAN_POINT('',(0.027,-0.025,0.007));
#2089=CARTESIAN_POINT('',(0.027,-0.025,0.));
#2090=CARTESIAN_POINT('',(0.0298,-0.025,0.));
#2091=CARTESIAN_POINT('',(0.027,-0.025,0.005));
#2092=CARTESIAN_POINT('',(0.0298,-0.025,0.005));
#2093=CARTESIAN_POINT('',(0.027,-0.025,0.007));
#2094=CARTESIAN_POINT('',(0.027,-0.025,0.));
#2095=CARTESIAN_POINT('',(0.044,-0.025,0.));
#2096=CARTESIAN_POINT('',(0.037,-0.0112522729151325,0.));
#2097=CARTESIAN_POINT('',(0.037,-0.0112522729151325,0.007));
#2098=CARTESIAN_POINT('',(0.044,-0.025,0.007));
#2099=CARTESIAN_POINT('',(0.049,-0.025,0.007));
#2100=CARTESIAN_POINT('',(0.049,-0.025,0.));
#2101=CARTESIAN_POINT('',(0.054,-0.025,0.));
#2102=CARTESIAN_POINT('',(0.054,-0.025,0.007));
#2103=CARTESIAN_POINT('',(0.054,-0.03,0.007));
#2104=CARTESIAN_POINT('',(0.054,-0.03,0.));
#2105=CARTESIAN_POINT('',(0.054,-0.035,0.));
#2106=CARTESIAN_POINT('',(0.054,-0.035,0.007));
#2107=CARTESIAN_POINT('',(-0.037,0.,0.007));
#2108=CARTESIAN_POINT('',(-0.037,0.,0.));
#2109=CARTESIAN_POINT('',(-0.037,-0.035,0.));
#2110=CARTESIAN_POINT('',(-0.037,0.035,0.));
#2111=CARTESIAN_POINT('',(-0.037,-0.035,0.007));
#2112=CARTESIAN_POINT('',(-0.037,0.035,0.007));
#2113=CARTESIAN_POINT('',(0.054,0.03,0.007));
#2114=CARTESIAN_POINT('',(0.054,0.03,0.));
#2115=CARTESIAN_POINT('',(0.054,0.035,0.));
#2116=CARTESIAN_POINT('',(0.054,0.025,0.));
#2117=CARTESIAN_POINT('',(0.054,0.035,0.007));
#2118=CARTESIAN_POINT('',(0.054,0.025,0.007));
#2119=CARTESIAN_POINT('',(0.049,0.025,0.007));
#2120=CARTESIAN_POINT('',(0.049,0.025,0.));
#2121=CARTESIAN_POINT('',(0.044,0.025,0.));
#2122=CARTESIAN_POINT('',(0.044,0.025,0.007));
#2123=CARTESIAN_POINT('',(0.027,0.025,0.007));
#2124=CARTESIAN_POINT('',(0.027,0.025,0.));
#2125=CARTESIAN_POINT('',(0.037,0.0112522729151325,0.));
#2126=CARTESIAN_POINT('',(0.037,0.0112522729151325,0.007));
#2127=CARTESIAN_POINT('',(0.037,-1.04083408558608E-17,0.007));
#2128=CARTESIAN_POINT('',(0.037,-1.04083408558608E-17,0.));
#2129=CARTESIAN_POINT('',(0.006,0.,0.));
#2130=CARTESIAN_POINT('',(0.049,0.03,0.));
#2131=CARTESIAN_POINT('',(0.0508,0.03,0.));
#2132=CARTESIAN_POINT('',(0.049,-0.03,0.));
#2133=CARTESIAN_POINT('',(0.0508,-0.03,0.));
#2134=CARTESIAN_POINT('',(-0.0201,0.047,0.));
#2135=CARTESIAN_POINT('',(-0.0201,0.047,0.));
#2136=CARTESIAN_POINT('',(0.,0.047,0.));
#2137=CARTESIAN_POINT('',(0.0201,0.047,0.));
#2138=CARTESIAN_POINT('',(0.0201,0.047,0.));
#2139=CARTESIAN_POINT('',(0.0201,-0.047,0.));
#2140=CARTESIAN_POINT('',(0.0201,-0.047,0.));
#2141=CARTESIAN_POINT('',(0.0405,-0.047,0.));
#2142=CARTESIAN_POINT('',(-0.0201,-0.047,0.));
#2143=CARTESIAN_POINT('',(-0.0201,-0.047,0.));
#2144=CARTESIAN_POINT('',(0.0234492958444838,0.02705,0.005));
#2145=CARTESIAN_POINT('',(0.0222657277926451,0.025,0.005));
#2146=CARTESIAN_POINT('',(0.0222657277926451,0.025,0.005));
#2147=CARTESIAN_POINT('',(0.0222657277926451,0.025,0.009));
#2148=CARTESIAN_POINT('',(0.0234492958444838,0.02705,0.005));
#2149=CARTESIAN_POINT('',(0.0246328638963226,0.0291,0.005));
#2150=CARTESIAN_POINT('',(0.0246328638963226,0.0291,0.005));
#2151=CARTESIAN_POINT('',(0.0246328638963226,0.0291,0.009));
#2152=CARTESIAN_POINT('',(0.0234492958444838,0.02705,0.009));
#2153=CARTESIAN_POINT('',(0.027,0.0291,0.005));
#2154=CARTESIAN_POINT('',(0.027,0.0291,0.005));
#2155=CARTESIAN_POINT('',(0.0293671361036775,0.0291,0.005));
#2156=CARTESIAN_POINT('',(0.0293671361036775,0.0291,0.005));
#2157=CARTESIAN_POINT('',(0.0293671361036775,0.0291,0.009));
#2158=CARTESIAN_POINT('',(0.027,0.0291,0.009));
#2159=CARTESIAN_POINT('',(0.0305507041555162,0.02705,0.005));
#2160=CARTESIAN_POINT('',(0.0305507041555162,0.02705,0.005));
#2161=CARTESIAN_POINT('',(0.0317342722073549,0.025,0.005));
#2162=CARTESIAN_POINT('',(0.0317342722073549,0.025,0.005));
#2163=CARTESIAN_POINT('',(0.0317342722073549,0.025,0.009));
#2164=CARTESIAN_POINT('',(0.0305507041555162,0.02705,0.009));
#2165=CARTESIAN_POINT('',(0.0305507041555162,0.02295,0.005));
#2166=CARTESIAN_POINT('',(0.0305507041555162,0.02295,0.005));
#2167=CARTESIAN_POINT('',(0.0293671361036775,0.0209,0.005));
#2168=CARTESIAN_POINT('',(0.0293671361036775,0.0209,0.005));
#2169=CARTESIAN_POINT('',(0.0293671361036775,0.0209,0.009));
#2170=CARTESIAN_POINT('',(0.0305507041555162,0.02295,0.009));
#2171=CARTESIAN_POINT('',(0.027,0.0209,0.005));
#2172=CARTESIAN_POINT('',(0.027,0.0209,0.005));
#2173=CARTESIAN_POINT('',(0.0246328638963226,0.0209,0.005));
#2174=CARTESIAN_POINT('',(0.0246328638963226,0.0209,0.005));
#2175=CARTESIAN_POINT('',(0.0246328638963226,0.0209,0.009));
#2176=CARTESIAN_POINT('',(0.027,0.0209,0.009));
#2177=CARTESIAN_POINT('',(0.0234492958444838,0.02295,0.005));
#2178=CARTESIAN_POINT('',(0.0234492958444838,0.02295,0.005));
#2179=CARTESIAN_POINT('',(0.0234492958444838,0.02295,0.009));
#2180=CARTESIAN_POINT('',(0.0085,0.,0.005));
#2181=CARTESIAN_POINT('',(-0.0305507041555162,0.02705,0.005));
#2182=CARTESIAN_POINT('',(-0.0317342722073549,0.025,0.005));
#2183=CARTESIAN_POINT('',(-0.0317342722073549,0.025,0.005));
#2184=CARTESIAN_POINT('',(-0.0317342722073549,0.025,0.009));
#2185=CARTESIAN_POINT('',(-0.0305507041555162,0.02705,0.005));
#2186=CARTESIAN_POINT('',(-0.0293671361036775,0.0291,0.005));
#2187=CARTESIAN_POINT('',(-0.0293671361036775,0.0291,0.005));
#2188=CARTESIAN_POINT('',(-0.0293671361036775,0.0291,0.009));
#2189=CARTESIAN_POINT('',(-0.0305507041555162,0.02705,0.009));
#2190=CARTESIAN_POINT('',(-0.027,0.0291,0.005));
#2191=CARTESIAN_POINT('',(-0.027,0.0291,0.005));
#2192=CARTESIAN_POINT('',(-0.0246328638963226,0.0291,0.005));
#2193=CARTESIAN_POINT('',(-0.0246328638963226,0.0291,0.005));
#2194=CARTESIAN_POINT('',(-0.0246328638963226,0.0291,0.009));
#2195=CARTESIAN_POINT('',(-0.027,0.0291,0.009));
#2196=CARTESIAN_POINT('',(-0.0234492958444838,0.02705,0.005));
#2197=CARTESIAN_POINT('',(-0.0234492958444838,0.02705,0.005));
#2198=CARTESIAN_POINT('',(-0.0222657277926451,0.025,0.005));
#2199=CARTESIAN_POINT('',(-0.0222657277926451,0.025,0.005));
#2200=CARTESIAN_POINT('',(-0.0222657277926451,0.025,0.009));
#2201=CARTESIAN_POINT('',(-0.0234492958444838,0.02705,0.009));
#2202=CARTESIAN_POINT('',(-0.0234492958444838,0.02295,0.005));
#2203=CARTESIAN_POINT('',(-0.0234492958444838,0.02295,0.005));
#2204=CARTESIAN_POINT('',(-0.0246328638963226,0.0209,0.005));
#2205=CARTESIAN_POINT('',(-0.0246328638963226,0.0209,0.005));
#2206=CARTESIAN_POINT('',(-0.0246328638963226,0.0209,0.009));
#2207=CARTESIAN_POINT('',(-0.0234492958444838,0.02295,0.009));
#2208=CARTESIAN_POINT('',(-0.027,0.0209,0.005));
#2209=CARTESIAN_POINT('',(-0.027,0.0209,0.005));
#2210=CARTESIAN_POINT('',(-0.0293671361036775,0.0209,0.005));
#2211=CARTESIAN_POINT('',(-0.0293671361036775,0.0209,0.005));
#2212=CARTESIAN_POINT('',(-0.0293671361036775,0.0209,0.009));
#2213=CARTESIAN_POINT('',(-0.027,0.0209,0.009));
#2214=CARTESIAN_POINT('',(-0.0305507041555162,0.02295,0.005));
#2215=CARTESIAN_POINT('',(-0.0305507041555162,0.02295,0.005));
#2216=CARTESIAN_POINT('',(-0.0305507041555162,0.02295,0.009));
#2217=CARTESIAN_POINT('',(0.0085,0.,0.005));
#2218=CARTESIAN_POINT('',(-0.0305507041555162,-0.02295,0.005));
#2219=CARTESIAN_POINT('',(-0.0317342722073549,-0.025,0.005));
#2220=CARTESIAN_POINT('',(-0.0317342722073549,-0.025,0.005));
#2221=CARTESIAN_POINT('',(-0.0317342722073549,-0.025,0.009));
#2222=CARTESIAN_POINT('',(-0.0305507041555162,-0.02295,0.005));
#2223=CARTESIAN_POINT('',(-0.0293671361036775,-0.0209,0.005));
#2224=CARTESIAN_POINT('',(-0.0293671361036775,-0.0209,0.005));
#2225=CARTESIAN_POINT('',(-0.0293671361036775,-0.0209,0.009));
#2226=CARTESIAN_POINT('',(-0.0305507041555162,-0.02295,0.009));
#2227=CARTESIAN_POINT('',(-0.027,-0.0209,0.005));
#2228=CARTESIAN_POINT('',(-0.027,-0.0209,0.005));
#2229=CARTESIAN_POINT('',(-0.0246328638963226,-0.0209,0.005));
#2230=CARTESIAN_POINT('',(-0.0246328638963226,-0.0209,0.005));
#2231=CARTESIAN_POINT('',(-0.0246328638963226,-0.0209,0.009));
#2232=CARTESIAN_POINT('',(-0.027,-0.0209,0.009));
#2233=CARTESIAN_POINT('',(-0.0234492958444838,-0.02295,0.005));
#2234=CARTESIAN_POINT('',(-0.0234492958444838,-0.02295,0.005));
#2235=CARTESIAN_POINT('',(-0.0222657277926451,-0.025,0.005));
#2236=CARTESIAN_POINT('',(-0.0222657277926451,-0.025,0.005));
#2237=CARTESIAN_POINT('',(-0.0222657277926451,-0.025,0.009));
#2238=CARTESIAN_POINT('',(-0.0234492958444838,-0.02295,0.009));
#2239=CARTESIAN_POINT('',(-0.0234492958444838,-0.02705,0.005));
#2240=CARTESIAN_POINT('',(-0.0234492958444838,-0.02705,0.005));
#2241=CARTESIAN_POINT('',(-0.0246328638963226,-0.0291,0.005));
#2242=CARTESIAN_POINT('',(-0.0246328638963226,-0.0291,0.005));
#2243=CARTESIAN_POINT('',(-0.0246328638963226,-0.0291,0.009));
#2244=CARTESIAN_POINT('',(-0.0234492958444838,-0.02705,0.009));
#2245=CARTESIAN_POINT('',(-0.027,-0.0291,0.005));
#2246=CARTESIAN_POINT('',(-0.027,-0.0291,0.005));
#2247=CARTESIAN_POINT('',(-0.0293671361036775,-0.0291,0.005));
#2248=CARTESIAN_POINT('',(-0.0293671361036775,-0.0291,0.005));
#2249=CARTESIAN_POINT('',(-0.0293671361036775,-0.0291,0.009));
#2250=CARTESIAN_POINT('',(-0.027,-0.0291,0.009));
#2251=CARTESIAN_POINT('',(-0.0305507041555162,-0.02705,0.005));
#2252=CARTESIAN_POINT('',(-0.0305507041555162,-0.02705,0.005));
#2253=CARTESIAN_POINT('',(-0.0305507041555162,-0.02705,0.009));
#2254=CARTESIAN_POINT('',(0.0085,0.,0.005));
#2255=CARTESIAN_POINT('',(0.0234492958444838,-0.02295,0.005));
#2256=CARTESIAN_POINT('',(0.0222657277926451,-0.025,0.005));
#2257=CARTESIAN_POINT('',(0.0222657277926451,-0.025,0.005));
#2258=CARTESIAN_POINT('',(0.0222657277926451,-0.025,0.009));
#2259=CARTESIAN_POINT('',(0.0234492958444838,-0.02295,0.005));
#2260=CARTESIAN_POINT('',(0.0246328638963226,-0.0209,0.005));
#2261=CARTESIAN_POINT('',(0.0246328638963226,-0.0209,0.005));
#2262=CARTESIAN_POINT('',(0.0246328638963226,-0.0209,0.009));
#2263=CARTESIAN_POINT('',(0.0234492958444838,-0.02295,0.009));
#2264=CARTESIAN_POINT('',(0.027,-0.0209,0.005));
#2265=CARTESIAN_POINT('',(0.027,-0.0209,0.005));
#2266=CARTESIAN_POINT('',(0.0293671361036775,-0.0209,0.005));
#2267=CARTESIAN_POINT('',(0.0293671361036775,-0.0209,0.005));
#2268=CARTESIAN_POINT('',(0.0293671361036775,-0.0209,0.009));
#2269=CARTESIAN_POINT('',(0.027,-0.0209,0.009));
#2270=CARTESIAN_POINT('',(0.0305507041555162,-0.02295,0.005));
#2271=CARTESIAN_POINT('',(0.0305507041555162,-0.02295,0.005));
#2272=CARTESIAN_POINT('',(0.0317342722073549,-0.025,0.005));
#2273=CARTESIAN_POINT('',(0.0317342722073549,-0.025,0.005));
#2274=CARTESIAN_POINT('',(0.0317342722073549,-0.025,0.009));
#2275=CARTESIAN_POINT('',(0.0305507041555162,-0.02295,0.009));
#2276=CARTESIAN_POINT('',(0.0305507041555162,-0.02705,0.005));
#2277=CARTESIAN_POINT('',(0.0305507041555162,-0.02705,0.005));
#2278=CARTESIAN_POINT('',(0.0293671361036775,-0.0291,0.005));
#2279=CARTESIAN_POINT('',(0.0293671361036775,-0.0291,0.005));
#2280=CARTESIAN_POINT('',(0.0293671361036775,-0.0291,0.009));
#2281=CARTESIAN_POINT('',(0.0305507041555162,-0.02705,0.009));
#2282=CARTESIAN_POINT('',(0.027,-0.0291,0.005));
#2283=CARTESIAN_POINT('',(0.027,-0.0291,0.005));
#2284=CARTESIAN_POINT('',(0.0246328638963226,-0.0291,0.005));
#2285=CARTESIAN_POINT('',(0.0246328638963226,-0.0291,0.005));
#2286=CARTESIAN_POINT('',(0.0246328638963226,-0.0291,0.009));
#2287=CARTESIAN_POINT('',(0.027,-0.0291,0.009));
#2288=CARTESIAN_POINT('',(0.0234492958444838,-0.02705,0.005));
#2289=CARTESIAN_POINT('',(0.0234492958444838,-0.02705,0.005));
#2290=CARTESIAN_POINT('',(0.0234492958444838,-0.02705,0.009));
#2291=CARTESIAN_POINT('',(0.0085,0.,0.005));
#2292=CARTESIAN_POINT('',(0.0212842323350227,0.0217,0.009));
#2293=CARTESIAN_POINT('',(0.0231894882233485,0.0184,0.009));
#2294=CARTESIAN_POINT('',(0.0231894882233485,0.0184,0.009));
#2295=CARTESIAN_POINT('',(0.0212842323350227,0.0217,0.009));
#2296=CARTESIAN_POINT('',(0.0193789764466969,0.025,0.009));
#2297=CARTESIAN_POINT('',(0.0193789764466969,0.025,0.009));
#2298=CARTESIAN_POINT('',(0.0212842323350227,0.0283,0.009));
#2299=CARTESIAN_POINT('',(0.0212842323350227,0.0283,0.009));
#2300=CARTESIAN_POINT('',(0.0231894882233485,0.0316,0.009));
#2301=CARTESIAN_POINT('',(0.0231894882233485,0.0316,0.009));
#2302=CARTESIAN_POINT('',(0.027,0.0316,0.009));
#2303=CARTESIAN_POINT('',(0.027,0.0316,0.009));
#2304=CARTESIAN_POINT('',(0.0308105117766515,0.0316,0.009));
#2305=CARTESIAN_POINT('',(0.0308105117766515,0.0316,0.009));
#2306=CARTESIAN_POINT('',(0.0327157676649773,0.0283,0.009));
#2307=CARTESIAN_POINT('',(0.0327157676649773,0.0283,0.009));
#2308=CARTESIAN_POINT('',(0.034621023553303,0.025,0.009));
#2309=CARTESIAN_POINT('',(0.034621023553303,0.025,0.009));
#2310=CARTESIAN_POINT('',(0.0327157676649773,0.0217,0.009));
#2311=CARTESIAN_POINT('',(0.0327157676649773,0.0217,0.009));
#2312=CARTESIAN_POINT('',(0.0308105117766515,0.0184,0.009));
#2313=CARTESIAN_POINT('',(0.0308105117766515,0.0184,0.009));
#2314=CARTESIAN_POINT('',(0.027,0.0184,0.009));
#2315=CARTESIAN_POINT('',(0.027,0.0184,0.009));
#2316=CARTESIAN_POINT('',(0.0085,0.,0.009));
#2317=CARTESIAN_POINT('',(-0.027,0.0184,0.009));
#2318=CARTESIAN_POINT('',(-0.0231894882233485,0.0184,0.009));
#2319=CARTESIAN_POINT('',(-0.0231894882233485,0.0184,0.009));
#2320=CARTESIAN_POINT('',(-0.027,0.0184,0.009));
#2321=CARTESIAN_POINT('',(-0.0308105117766515,0.0184,0.009));
#2322=CARTESIAN_POINT('',(-0.0308105117766515,0.0184,0.009));
#2323=CARTESIAN_POINT('',(-0.0327157676649773,0.0217,0.009));
#2324=CARTESIAN_POINT('',(-0.0327157676649773,0.0217,0.009));
#2325=CARTESIAN_POINT('',(-0.034621023553303,0.025,0.009));
#2326=CARTESIAN_POINT('',(-0.034621023553303,0.025,0.009));
#2327=CARTESIAN_POINT('',(-0.0327157676649773,0.0283,0.009));
#2328=CARTESIAN_POINT('',(-0.0327157676649773,0.0283,0.009));
#2329=CARTESIAN_POINT('',(-0.0308105117766516,0.0316,0.009));
#2330=CARTESIAN_POINT('',(-0.0308105117766516,0.0316,0.009));
#2331=CARTESIAN_POINT('',(-0.027,0.0316,0.009));
#2332=CARTESIAN_POINT('',(-0.027,0.0316,0.009));
#2333=CARTESIAN_POINT('',(-0.0231894882233485,0.0316,0.009));
#2334=CARTESIAN_POINT('',(-0.0231894882233485,0.0316,0.009));
#2335=CARTESIAN_POINT('',(-0.0212842323350227,0.0283,0.009));
#2336=CARTESIAN_POINT('',(-0.0212842323350227,0.0283,0.009));
#2337=CARTESIAN_POINT('',(-0.0193789764466969,0.025,0.009));
#2338=CARTESIAN_POINT('',(-0.0193789764466969,0.025,0.009));
#2339=CARTESIAN_POINT('',(-0.0212842323350227,0.0217,0.009));
#2340=CARTESIAN_POINT('',(-0.0212842323350227,0.0217,0.009));
#2341=CARTESIAN_POINT('',(0.0085,0.,0.009));
#2342=CARTESIAN_POINT('',(-0.027,-0.0184,0.009));
#2343=CARTESIAN_POINT('',(-0.0308105117766515,-0.0184,0.009));
#2344=CARTESIAN_POINT('',(-0.0308105117766515,-0.0184,0.009));
#2345=CARTESIAN_POINT('',(-0.027,-0.0184,0.009));
#2346=CARTESIAN_POINT('',(-0.0231894882233485,-0.0184,0.009));
#2347=CARTESIAN_POINT('',(-0.0231894882233485,-0.0184,0.009));
#2348=CARTESIAN_POINT('',(-0.0212842323350227,-0.0217,0.009));
#2349=CARTESIAN_POINT('',(-0.0212842323350227,-0.0217,0.009));
#2350=CARTESIAN_POINT('',(-0.0193789764466969,-0.025,0.009));
#2351=CARTESIAN_POINT('',(-0.0193789764466969,-0.025,0.009));
#2352=CARTESIAN_POINT('',(-0.0212842323350227,-0.0283,0.009));
#2353=CARTESIAN_POINT('',(-0.0212842323350227,-0.0283,0.009));
#2354=CARTESIAN_POINT('',(-0.0231894882233485,-0.0316,0.009));
#2355=CARTESIAN_POINT('',(-0.0231894882233485,-0.0316,0.009));
#2356=CARTESIAN_POINT('',(-0.027,-0.0316,0.009));
#2357=CARTESIAN_POINT('',(-0.027,-0.0316,0.009));
#2358=CARTESIAN_POINT('',(-0.0308105117766516,-0.0316,0.009));
#2359=CARTESIAN_POINT('',(-0.0308105117766516,-0.0316,0.009));
#2360=CARTESIAN_POINT('',(-0.0327157676649773,-0.0283,0.009));
#2361=CARTESIAN_POINT('',(-0.0327157676649773,-0.0283,0.009));
#2362=CARTESIAN_POINT('',(-0.034621023553303,-0.025,0.009));
#2363=CARTESIAN_POINT('',(-0.034621023553303,-0.025,0.009));
#2364=CARTESIAN_POINT('',(-0.0327157676649773,-0.0217,0.009));
#2365=CARTESIAN_POINT('',(-0.0327157676649773,-0.0217,0.009));
#2366=CARTESIAN_POINT('',(0.0085,0.,0.009));
#2367=CARTESIAN_POINT('',(0.027,-0.0184,0.009));
#2368=CARTESIAN_POINT('',(0.0231894882233485,-0.0184,0.009));
#2369=CARTESIAN_POINT('',(0.0231894882233485,-0.0184,0.009));
#2370=CARTESIAN_POINT('',(0.027,-0.0184,0.009));
#2371=CARTESIAN_POINT('',(0.0308105117766516,-0.0184,0.009));
#2372=CARTESIAN_POINT('',(0.0308105117766516,-0.0184,0.009));
#2373=CARTESIAN_POINT('',(0.0327157676649773,-0.0217,0.009));
#2374=CARTESIAN_POINT('',(0.0327157676649773,-0.0217,0.009));
#2375=CARTESIAN_POINT('',(0.034621023553303,-0.025,0.009));
#2376=CARTESIAN_POINT('',(0.034621023553303,-0.025,0.009));
#2377=CARTESIAN_POINT('',(0.0327157676649773,-0.0283,0.009));
#2378=CARTESIAN_POINT('',(0.0327157676649773,-0.0283,0.009));
#2379=CARTESIAN_POINT('',(0.0308105117766515,-0.0316,0.009));
#2380=CARTESIAN_POINT('',(0.0308105117766515,-0.0316,0.009));
#2381=CARTESIAN_POINT('',(0.027,-0.0316,0.009));
#2382=CARTESIAN_POINT('',(0.027,-0.0316,0.009));
#2383=CARTESIAN_POINT('',(0.0231894882233485,-0.0316,0.009));
#2384=CARTESIAN_POINT('',(0.0231894882233485,-0.0316,0.009));
#2385=CARTESIAN_POINT('',(0.0212842323350227,-0.0283,0.009));
#2386=CARTESIAN_POINT('',(0.0212842323350227,-0.0283,0.009));
#2387=CARTESIAN_POINT('',(0.0193789764466969,-0.025,0.009));
#2388=CARTESIAN_POINT('',(0.0193789764466969,-0.025,0.009));
#2389=CARTESIAN_POINT('',(0.0212842323350227,-0.0217,0.009));
#2390=CARTESIAN_POINT('',(0.0212842323350227,-0.0217,0.009));
#2391=CARTESIAN_POINT('',(0.0085,0.,0.009));
#2392=CARTESIAN_POINT('',(0.0085,0.047,0.0035));
#2393=CARTESIAN_POINT('',(-0.0201,0.047,0.0025));
#2394=CARTESIAN_POINT('',(-0.0201,0.047,0.005));
#2395=CARTESIAN_POINT('',(0.,0.047,0.005));
#2396=CARTESIAN_POINT('',(0.0201,0.047,0.005));
#2397=CARTESIAN_POINT('',(0.0201,0.047,0.0025));
#2398=CARTESIAN_POINT('',(0.0085,-0.047,0.0035));
#2399=CARTESIAN_POINT('',(0.0201,-0.047,0.0025));
#2400=CARTESIAN_POINT('',(0.0201,-0.047,0.005));
#2401=CARTESIAN_POINT('',(-1.38777878078145E-17,-0.047,0.005));
#2402=CARTESIAN_POINT('',(-0.0201,-0.047,0.005));
#2403=CARTESIAN_POINT('',(-0.0201,-0.047,0.0025));
#2404=CARTESIAN_POINT('',(0.0170227573247964,0.0480892894425499,0.));
#2405=CARTESIAN_POINT('',(0.0201,0.047,0.005));
#2406=CARTESIAN_POINT('',(-0.028923907730267,0.0407345033867927,0.));
#2407=CARTESIAN_POINT('',(-0.0201,0.047,0.005));
#2408=CARTESIAN_POINT('',(-1.07764185276494E-18,0.00208108108108108,0.0124864864864865));
#2409=CARTESIAN_POINT('',(-0.028923907730267,-0.0407345033867927,0.));
#2410=CARTESIAN_POINT('',(-0.0201,-0.047,0.005));
#2411=CARTESIAN_POINT('',(0.0170227573247964,-0.0480892894425499,0.));
#2412=CARTESIAN_POINT('',(0.0201,-0.047,0.005));
#2413=CARTESIAN_POINT('',(3.23292555829482E-18,-0.00208108108108108,0.0124864864864865));
#2414=CARTESIAN_POINT('',(0.049,-0.03,-2.00000000000027E-6));
#2415=CARTESIAN_POINT('',(0.049,0.03,-2.00000000000027E-6));
#2416=MECHANICAL_DESIGN_GEOMETRIC_PRESENTATION_REPRESENTATION('',(#1513),
#2417);
#2417=(
GEOMETRIC_REPRESENTATION_CONTEXT(3)
GLOBAL_UNCERTAINTY_ASSIGNED_CONTEXT((#2418))
GLOBAL_UNIT_ASSIGNED_CONTEXT((#2421,#2420,#2419))
REPRESENTATION_CONTEXT('Right lower Cart Bottom',
'TOP_LEVEL_ASSEMBLY_PART')
);
#2418=UNCERTAINTY_MEASURE_WITH_UNIT(LENGTH_MEASURE(4.12310562862818E-8),
#2421,'DISTANCE_ACCURACY_VALUE','Maximum Tolerance applied to model');
#2419=(
NAMED_UNIT(*)
SI_UNIT($,.STERADIAN.)
SOLID_ANGLE_UNIT()
);
#2420=(
NAMED_UNIT(*)
PLANE_ANGLE_UNIT()
SI_UNIT($,.RADIAN.)
);
#2421=(
LENGTH_UNIT()
NAMED_UNIT(*)
SI_UNIT($,.METRE.)
);
#2422=PRODUCT_DEFINITION_SHAPE('','',#2423);
#2423=PRODUCT_DEFINITION('','',#2425,#2424);
#2424=PRODUCT_DEFINITION_CONTEXT('',#2431,'design');
#2425=PRODUCT_DEFINITION_FORMATION_WITH_SPECIFIED_SOURCE('','',#2427,
 .NOT_KNOWN.);
#2426=PRODUCT_RELATED_PRODUCT_CATEGORY('','',(#2427));
#2427=PRODUCT('Right lower Cart Bottom','Right lower Cart Bottom',
'Right lower Cart Bottom',(#2429));
#2428=PRODUCT_CATEGORY('','');
#2429=PRODUCT_CONTEXT('',#2431,'mechanical');
#2430=APPLICATION_PROTOCOL_DEFINITION('international standard',
'automotive_design',2010,#2431);
#2431=APPLICATION_CONTEXT(
'core data for automotive mechanical design processes');
ENDSEC;
END-ISO-10303-21;
