ISO-10303-21;
HEADER;
/* Generated by software containing ST-Developer
 * from STEP Tools, Inc. (www.steptools.com) 
 */
/* OPTION: using custom renumber hook */

FILE_DESCRIPTION(
/* description */ ('STEP AP214',
'CAx-IF Rec.Pracs.---User Defined Attributes---1.5---2016-08-15'),
/* implementation_level */ '2;1');

FILE_NAME(
/* name */ '6a95da98b3b9f08b1d2c500d',
/* time_stamp */ '2026-08-31T19:48:40Z',
/* author */ (''),
/* organization */ (''),
/* preprocessor_version */ 'ST-DEVELOPER v20',
/* originating_system */ 'ONSHAPE BY PTC INC, 1.220',
/* authorisation */ '  ');

FILE_SCHEMA (('AUTOMOTIVE_DESIGN {1 0 10303 214 3 1 1}'));
ENDSEC;

DATA;
#10=PROPERTY_DEFINITION_REPRESENTATION(#14,#12);
#11=PROPERTY_DEFINITION_REPRESENTATION(#15,#13);
#12=REPRESENTATION('',(#16),#567);
#13=REPRESENTATION('',(#17),#567);
#14=PROPERTY_DEFINITION('pmi validation property','',#572);
#15=PROPERTY_DEFINITION('pmi validation property','',#572);
#16=VALUE_REPRESENTATION_ITEM('number of annotations',COUNT_MEASURE(0.));
#17=VALUE_REPRESENTATION_ITEM('number of views',COUNT_MEASURE(0.));
#18=SHAPE_REPRESENTATION_RELATIONSHIP('','',#367,#19);
#19=ADVANCED_BREP_SHAPE_REPRESENTATION('',(#365),#567);
#20=ORIENTED_EDGE('',*,*,#112,.F.);
#21=ORIENTED_EDGE('',*,*,#113,.F.);
#22=ORIENTED_EDGE('',*,*,#114,.T.);
#23=ORIENTED_EDGE('',*,*,#115,.T.);
#24=ORIENTED_EDGE('',*,*,#116,.F.);
#25=ORIENTED_EDGE('',*,*,#117,.F.);
#26=ORIENTED_EDGE('',*,*,#118,.F.);
#27=ORIENTED_EDGE('',*,*,#119,.F.);
#28=ORIENTED_EDGE('',*,*,#120,.T.);
#29=ORIENTED_EDGE('',*,*,#121,.F.);
#30=ORIENTED_EDGE('',*,*,#122,.T.);
#31=ORIENTED_EDGE('',*,*,#123,.T.);
#32=ORIENTED_EDGE('',*,*,#117,.T.);
#33=ORIENTED_EDGE('',*,*,#124,.F.);
#34=ORIENTED_EDGE('',*,*,#125,.F.);
#35=ORIENTED_EDGE('',*,*,#116,.T.);
#36=ORIENTED_EDGE('',*,*,#126,.F.);
#37=ORIENTED_EDGE('',*,*,#127,.F.);
#38=ORIENTED_EDGE('',*,*,#128,.F.);
#39=ORIENTED_EDGE('',*,*,#124,.T.);
#40=ORIENTED_EDGE('',*,*,#129,.F.);
#41=ORIENTED_EDGE('',*,*,#130,.T.);
#42=ORIENTED_EDGE('',*,*,#131,.T.);
#43=ORIENTED_EDGE('',*,*,#132,.F.);
#44=ORIENTED_EDGE('',*,*,#133,.F.);
#45=ORIENTED_EDGE('',*,*,#120,.F.);
#46=ORIENTED_EDGE('',*,*,#134,.T.);
#47=ORIENTED_EDGE('',*,*,#118,.T.);
#48=ORIENTED_EDGE('',*,*,#123,.F.);
#49=ORIENTED_EDGE('',*,*,#135,.T.);
#50=ORIENTED_EDGE('',*,*,#136,.F.);
#51=ORIENTED_EDGE('',*,*,#137,.T.);
#52=ORIENTED_EDGE('',*,*,#138,.T.);
#53=ORIENTED_EDGE('',*,*,#139,.F.);
#54=ORIENTED_EDGE('',*,*,#133,.T.);
#55=ORIENTED_EDGE('',*,*,#140,.F.);
#56=ORIENTED_EDGE('',*,*,#141,.F.);
#57=ORIENTED_EDGE('',*,*,#142,.T.);
#58=ORIENTED_EDGE('',*,*,#143,.T.);
#59=ORIENTED_EDGE('',*,*,#121,.T.);
#60=ORIENTED_EDGE('',*,*,#144,.F.);
#61=ORIENTED_EDGE('',*,*,#145,.F.);
#62=ORIENTED_EDGE('',*,*,#141,.T.);
#63=ORIENTED_EDGE('',*,*,#146,.T.);
#64=ORIENTED_EDGE('',*,*,#147,.T.);
#65=ORIENTED_EDGE('',*,*,#148,.F.);
#66=ORIENTED_EDGE('',*,*,#142,.F.);
#67=ORIENTED_EDGE('',*,*,#145,.T.);
#68=ORIENTED_EDGE('',*,*,#149,.T.);
#69=ORIENTED_EDGE('',*,*,#114,.F.);
#70=ORIENTED_EDGE('',*,*,#150,.F.);
#71=ORIENTED_EDGE('',*,*,#143,.F.);
#72=ORIENTED_EDGE('',*,*,#148,.T.);
#73=ORIENTED_EDGE('',*,*,#151,.F.);
#74=ORIENTED_EDGE('',*,*,#146,.F.);
#75=ORIENTED_EDGE('',*,*,#140,.T.);
#76=ORIENTED_EDGE('',*,*,#152,.T.);
#77=ORIENTED_EDGE('',*,*,#127,.T.);
#78=ORIENTED_EDGE('',*,*,#126,.T.);
#79=ORIENTED_EDGE('',*,*,#115,.F.);
#80=ORIENTED_EDGE('',*,*,#149,.F.);
#81=ORIENTED_EDGE('',*,*,#147,.F.);
#82=ORIENTED_EDGE('',*,*,#144,.T.);
#83=ORIENTED_EDGE('',*,*,#151,.T.);
#84=ORIENTED_EDGE('',*,*,#113,.T.);
#85=ORIENTED_EDGE('',*,*,#153,.F.);
#86=ORIENTED_EDGE('',*,*,#122,.F.);
#87=ORIENTED_EDGE('',*,*,#150,.T.);
#88=ORIENTED_EDGE('',*,*,#128,.T.);
#89=ORIENTED_EDGE('',*,*,#152,.F.);
#90=ORIENTED_EDGE('',*,*,#135,.F.);
#91=ORIENTED_EDGE('',*,*,#125,.T.);
#92=ORIENTED_EDGE('',*,*,#136,.T.);
#93=ORIENTED_EDGE('',*,*,#154,.T.);
#94=ORIENTED_EDGE('',*,*,#130,.F.);
#95=ORIENTED_EDGE('',*,*,#155,.F.);
#96=ORIENTED_EDGE('',*,*,#155,.T.);
#97=ORIENTED_EDGE('',*,*,#129,.T.);
#98=ORIENTED_EDGE('',*,*,#156,.F.);
#99=ORIENTED_EDGE('',*,*,#137,.F.);
#100=ORIENTED_EDGE('',*,*,#156,.T.);
#101=ORIENTED_EDGE('',*,*,#132,.T.);
#102=ORIENTED_EDGE('',*,*,#157,.F.);
#103=ORIENTED_EDGE('',*,*,#138,.F.);
#104=ORIENTED_EDGE('',*,*,#139,.T.);
#105=ORIENTED_EDGE('',*,*,#157,.T.);
#106=ORIENTED_EDGE('',*,*,#131,.F.);
#107=ORIENTED_EDGE('',*,*,#154,.F.);
#108=ORIENTED_EDGE('',*,*,#119,.T.);
#109=ORIENTED_EDGE('',*,*,#153,.T.);
#110=ORIENTED_EDGE('',*,*,#112,.T.);
#111=ORIENTED_EDGE('',*,*,#134,.F.);
#112=EDGE_CURVE('',#158,#159,#188,.T.);
#113=EDGE_CURVE('',#160,#158,#189,.T.);
#114=EDGE_CURVE('',#160,#161,#190,.T.);
#115=EDGE_CURVE('',#161,#162,#191,.T.);
#116=EDGE_CURVE('',#163,#162,#192,.T.);
#117=EDGE_CURVE('',#164,#163,#193,.T.);
#118=EDGE_CURVE('',#159,#164,#194,.T.);
#119=EDGE_CURVE('',#165,#166,#195,.T.);
#120=EDGE_CURVE('',#165,#167,#196,.T.);
#121=EDGE_CURVE('',#168,#167,#197,.T.);
#122=EDGE_CURVE('',#168,#166,#198,.T.);
#123=EDGE_CURVE('',#169,#164,#199,.T.);
#124=EDGE_CURVE('',#170,#163,#200,.T.);
#125=EDGE_CURVE('',#169,#170,#201,.T.);
#126=EDGE_CURVE('',#171,#162,#202,.T.);
#127=EDGE_CURVE('',#172,#171,#203,.T.);
#128=EDGE_CURVE('',#170,#172,#204,.T.);
#129=EDGE_CURVE('',#173,#174,#205,.T.);
#130=EDGE_CURVE('',#173,#175,#206,.T.);
#131=EDGE_CURVE('',#175,#176,#207,.T.);
#132=EDGE_CURVE('',#174,#176,#208,.T.);
#133=EDGE_CURVE('',#167,#177,#209,.T.);
#134=EDGE_CURVE('',#165,#159,#210,.T.);
#135=EDGE_CURVE('',#169,#177,#211,.T.);
#136=EDGE_CURVE('',#178,#179,#212,.T.);
#137=EDGE_CURVE('',#178,#180,#213,.T.);
#138=EDGE_CURVE('',#180,#181,#214,.T.);
#139=EDGE_CURVE('',#179,#181,#215,.T.);
#140=EDGE_CURVE('',#182,#177,#216,.T.);
#141=EDGE_CURVE('',#183,#182,#217,.T.);
#142=EDGE_CURVE('',#183,#184,#218,.T.);
#143=EDGE_CURVE('',#184,#168,#219,.T.);
#144=EDGE_CURVE('',#185,#186,#220,.T.);
#145=EDGE_CURVE('',#183,#185,#221,.T.);
#146=EDGE_CURVE('',#182,#186,#222,.T.);
#147=EDGE_CURVE('',#185,#187,#223,.T.);
#148=EDGE_CURVE('',#184,#187,#224,.T.);
#149=EDGE_CURVE('',#187,#161,#225,.T.);
#150=EDGE_CURVE('',#168,#160,#226,.T.);
#151=EDGE_CURVE('',#186,#171,#227,.T.);
#152=EDGE_CURVE('',#177,#172,#228,.T.);
#153=EDGE_CURVE('',#166,#158,#229,.T.);
#154=EDGE_CURVE('',#179,#175,#230,.T.);
#155=EDGE_CURVE('',#178,#173,#231,.T.);
#156=EDGE_CURVE('',#180,#174,#232,.T.);
#157=EDGE_CURVE('',#181,#176,#233,.T.);
#158=VERTEX_POINT('',#474);
#159=VERTEX_POINT('',#475);
#160=VERTEX_POINT('',#477);
#161=VERTEX_POINT('',#479);
#162=VERTEX_POINT('',#481);
#163=VERTEX_POINT('',#483);
#164=VERTEX_POINT('',#485);
#165=VERTEX_POINT('',#489);
#166=VERTEX_POINT('',#490);
#167=VERTEX_POINT('',#492);
#168=VERTEX_POINT('',#494);
#169=VERTEX_POINT('',#498);
#170=VERTEX_POINT('',#500);
#171=VERTEX_POINT('',#504);
#172=VERTEX_POINT('',#506);
#173=VERTEX_POINT('',#509);
#174=VERTEX_POINT('',#510);
#175=VERTEX_POINT('',#512);
#176=VERTEX_POINT('',#514);
#177=VERTEX_POINT('',#518);
#178=VERTEX_POINT('',#522);
#179=VERTEX_POINT('',#523);
#180=VERTEX_POINT('',#525);
#181=VERTEX_POINT('',#527);
#182=VERTEX_POINT('',#531);
#183=VERTEX_POINT('',#533);
#184=VERTEX_POINT('',#535);
#185=VERTEX_POINT('',#539);
#186=VERTEX_POINT('',#540);
#187=VERTEX_POINT('',#545);
#188=LINE('',#473,#234);
#189=LINE('',#476,#235);
#190=LINE('',#478,#236);
#191=LINE('',#480,#237);
#192=LINE('',#482,#238);
#193=LINE('',#484,#239);
#194=LINE('',#486,#240);
#195=LINE('',#488,#241);
#196=LINE('',#491,#242);
#197=LINE('',#493,#243);
#198=LINE('',#495,#244);
#199=LINE('',#497,#245);
#200=LINE('',#499,#246);
#201=LINE('',#501,#247);
#202=LINE('',#503,#248);
#203=LINE('',#505,#249);
#204=LINE('',#507,#250);
#205=LINE('',#508,#251);
#206=LINE('',#511,#252);
#207=LINE('',#513,#253);
#208=LINE('',#515,#254);
#209=LINE('',#517,#255);
#210=LINE('',#519,#256);
#211=LINE('',#520,#257);
#212=LINE('',#521,#258);
#213=LINE('',#524,#259);
#214=LINE('',#526,#260);
#215=LINE('',#528,#261);
#216=LINE('',#530,#262);
#217=LINE('',#532,#263);
#218=LINE('',#534,#264);
#219=LINE('',#536,#265);
#220=LINE('',#538,#266);
#221=LINE('',#541,#267);
#222=LINE('',#542,#268);
#223=LINE('',#544,#269);
#224=LINE('',#546,#270);
#225=LINE('',#548,#271);
#226=LINE('',#549,#272);
#227=LINE('',#551,#273);
#228=LINE('',#552,#274);
#229=LINE('',#555,#275);
#230=LINE('',#558,#276);
#231=LINE('',#559,#277);
#232=LINE('',#561,#278);
#233=LINE('',#563,#279);
#234=VECTOR('',#391,1.);
#235=VECTOR('',#392,1.);
#236=VECTOR('',#393,1.);
#237=VECTOR('',#394,1.);
#238=VECTOR('',#395,1.);
#239=VECTOR('',#396,1.);
#240=VECTOR('',#397,1.);
#241=VECTOR('',#400,1.);
#242=VECTOR('',#401,1.);
#243=VECTOR('',#402,1.);
#244=VECTOR('',#403,1.);
#245=VECTOR('',#406,1.);
#246=VECTOR('',#407,1.);
#247=VECTOR('',#408,1.);
#248=VECTOR('',#411,1.);
#249=VECTOR('',#412,1.);
#250=VECTOR('',#413,1.);
#251=VECTOR('',#414,1.);
#252=VECTOR('',#415,1.);
#253=VECTOR('',#416,1.);
#254=VECTOR('',#417,1.);
#255=VECTOR('',#420,1.);
#256=VECTOR('',#421,1.);
#257=VECTOR('',#422,1.);
#258=VECTOR('',#423,1.);
#259=VECTOR('',#424,1.);
#260=VECTOR('',#425,1.);
#261=VECTOR('',#426,1.);
#262=VECTOR('',#429,1.);
#263=VECTOR('',#430,1.);
#264=VECTOR('',#431,1.);
#265=VECTOR('',#432,1.);
#266=VECTOR('',#435,1.);
#267=VECTOR('',#436,1.);
#268=VECTOR('',#437,1.);
#269=VECTOR('',#440,1.);
#270=VECTOR('',#441,1.);
#271=VECTOR('',#444,1.);
#272=VECTOR('',#445,1.);
#273=VECTOR('',#448,1.);
#274=VECTOR('',#449,1.);
#275=VECTOR('',#454,1.);
#276=VECTOR('',#459,1.);
#277=VECTOR('',#460,1.);
#278=VECTOR('',#463,1.);
#279=VECTOR('',#466,1.);
#280=EDGE_LOOP('',(#20,#21,#22,#23,#24,#25,#26));
#281=EDGE_LOOP('',(#27,#28,#29,#30));
#282=EDGE_LOOP('',(#31,#32,#33,#34));
#283=EDGE_LOOP('',(#35,#36,#37,#38,#39));
#284=EDGE_LOOP('',(#40,#41,#42,#43));
#285=EDGE_LOOP('',(#44,#45,#46,#47,#48,#49));
#286=EDGE_LOOP('',(#50,#51,#52,#53));
#287=EDGE_LOOP('',(#54,#55,#56,#57,#58,#59));
#288=EDGE_LOOP('',(#60,#61,#62,#63));
#289=EDGE_LOOP('',(#64,#65,#66,#67));
#290=EDGE_LOOP('',(#68,#69,#70,#71,#72));
#291=EDGE_LOOP('',(#73,#74,#75,#76,#77));
#292=EDGE_LOOP('',(#78,#79,#80,#81,#82,#83));
#293=EDGE_LOOP('',(#84,#85,#86,#87));
#294=EDGE_LOOP('',(#88,#89,#90,#91));
#295=EDGE_LOOP('',(#92,#93,#94,#95));
#296=EDGE_LOOP('',(#96,#97,#98,#99));
#297=EDGE_LOOP('',(#100,#101,#102,#103));
#298=EDGE_LOOP('',(#104,#105,#106,#107));
#299=EDGE_LOOP('',(#108,#109,#110,#111));
#300=FACE_BOUND('',#280,.T.);
#301=FACE_BOUND('',#281,.T.);
#302=FACE_BOUND('',#282,.T.);
#303=FACE_BOUND('',#283,.T.);
#304=FACE_BOUND('',#284,.T.);
#305=FACE_BOUND('',#285,.T.);
#306=FACE_BOUND('',#286,.T.);
#307=FACE_BOUND('',#287,.T.);
#308=FACE_BOUND('',#288,.T.);
#309=FACE_BOUND('',#289,.T.);
#310=FACE_BOUND('',#290,.T.);
#311=FACE_BOUND('',#291,.T.);
#312=FACE_BOUND('',#292,.T.);
#313=FACE_BOUND('',#293,.T.);
#314=FACE_BOUND('',#294,.T.);
#315=FACE_BOUND('',#295,.T.);
#316=FACE_BOUND('',#296,.T.);
#317=FACE_BOUND('',#297,.T.);
#318=FACE_BOUND('',#298,.T.);
#319=FACE_BOUND('',#299,.T.);
#320=PLANE('',#369);
#321=PLANE('',#370);
#322=PLANE('',#371);
#323=PLANE('',#372);
#324=PLANE('',#373);
#325=PLANE('',#374);
#326=PLANE('',#375);
#327=PLANE('',#376);
#328=PLANE('',#377);
#329=PLANE('',#378);
#330=PLANE('',#379);
#331=PLANE('',#380);
#332=PLANE('',#381);
#333=PLANE('',#382);
#334=PLANE('',#383);
#335=PLANE('',#384);
#336=PLANE('',#385);
#337=PLANE('',#386);
#338=ADVANCED_FACE('',(#300),#320,.F.);
#339=ADVANCED_FACE('',(#301),#321,.F.);
#340=ADVANCED_FACE('',(#302),#322,.T.);
#341=ADVANCED_FACE('',(#303,#304),#323,.T.);
#342=ADVANCED_FACE('',(#305,#306),#324,.F.);
#343=ADVANCED_FACE('',(#307),#325,.T.);
#344=ADVANCED_FACE('',(#308),#326,.T.);
#345=ADVANCED_FACE('',(#309),#327,.F.);
#346=ADVANCED_FACE('',(#310),#328,.F.);
#347=ADVANCED_FACE('',(#311),#329,.T.);
#348=ADVANCED_FACE('',(#312),#330,.F.);
#349=ADVANCED_FACE('',(#313),#331,.F.);
#350=ADVANCED_FACE('',(#314),#332,.F.);
#351=ADVANCED_FACE('',(#315),#333,.T.);
#352=ADVANCED_FACE('',(#316),#334,.F.);
#353=ADVANCED_FACE('',(#317),#335,.F.);
#354=ADVANCED_FACE('',(#318),#336,.T.);
#355=ADVANCED_FACE('',(#319),#337,.F.);
#356=CLOSED_SHELL('',(#338,#339,#340,#341,#342,#343,#344,#345,#346,#347,
#348,#349,#350,#351,#352,#353,#354,#355));
#357=STYLED_ITEM('',(#358),#365);
#358=PRESENTATION_STYLE_ASSIGNMENT((#359));
#359=SURFACE_STYLE_USAGE(.BOTH.,#360);
#360=SURFACE_SIDE_STYLE('',(#361));
#361=SURFACE_STYLE_FILL_AREA(#362);
#362=FILL_AREA_STYLE('',(#363));
#363=FILL_AREA_STYLE_COLOUR('',#364);
#364=COLOUR_RGB('',0.231372549019608,0.380392156862745,0.705882352941177);
#365=MANIFOLD_SOLID_BREP('Servo Wire Aligner',#356);
#366=SHAPE_DEFINITION_REPRESENTATION(#572,#367);
#367=SHAPE_REPRESENTATION('Servo Wire Aligner',(#368),#567);
#368=AXIS2_PLACEMENT_3D('',#471,#387,#388);
#369=AXIS2_PLACEMENT_3D('',#472,#389,#390);
#370=AXIS2_PLACEMENT_3D('',#487,#398,#399);
#371=AXIS2_PLACEMENT_3D('',#496,#404,#405);
#372=AXIS2_PLACEMENT_3D('',#502,#409,#410);
#373=AXIS2_PLACEMENT_3D('',#516,#418,#419);
#374=AXIS2_PLACEMENT_3D('',#529,#427,#428);
#375=AXIS2_PLACEMENT_3D('',#537,#433,#434);
#376=AXIS2_PLACEMENT_3D('',#543,#438,#439);
#377=AXIS2_PLACEMENT_3D('',#547,#442,#443);
#378=AXIS2_PLACEMENT_3D('',#550,#446,#447);
#379=AXIS2_PLACEMENT_3D('',#553,#450,#451);
#380=AXIS2_PLACEMENT_3D('',#554,#452,#453);
#381=AXIS2_PLACEMENT_3D('',#556,#455,#456);
#382=AXIS2_PLACEMENT_3D('',#557,#457,#458);
#383=AXIS2_PLACEMENT_3D('',#560,#461,#462);
#384=AXIS2_PLACEMENT_3D('',#562,#464,#465);
#385=AXIS2_PLACEMENT_3D('',#564,#467,#468);
#386=AXIS2_PLACEMENT_3D('',#565,#469,#470);
#387=DIRECTION('',(0.,0.,1.));
#388=DIRECTION('',(1.,0.,0.));
#389=DIRECTION('',(1.,0.,1.72609301092219E-16));
#390=DIRECTION('',(1.72609301092219E-16,0.,-1.));
#391=DIRECTION('',(0.,-1.,0.));
#392=DIRECTION('',(-1.70094197774343E-16,-0.170087732014319,0.985428923575021));
#393=DIRECTION('',(1.72609301092219E-16,0.,-1.));
#394=DIRECTION('',(0.,-1.,0.));
#395=DIRECTION('',(1.72609301092219E-16,0.,-1.));
#396=DIRECTION('',(0.,-1.,0.));
#397=DIRECTION('',(-1.72609301092219E-16,0.,1.));
#398=DIRECTION('',(-1.,0.,-1.72609301092219E-16));
#399=DIRECTION('',(-1.72609301092219E-16,0.,1.));
#400=DIRECTION('',(0.,1.,0.));
#401=DIRECTION('',(1.72609301092219E-16,0.,-1.));
#402=DIRECTION('',(0.,-1.,0.));
#403=DIRECTION('',(-1.70094197774343E-16,-0.170087732014319,0.985428923575021));
#404=DIRECTION('',(-1.72609301092219E-16,0.,1.));
#405=DIRECTION('',(1.,0.,1.72609301092219E-16));
#406=DIRECTION('',(-1.,0.,-1.72609301092219E-16));
#407=DIRECTION('',(-1.,-1.72609301092219E-16,-1.72609301092219E-16));
#408=DIRECTION('',(-1.87537673078573E-16,-1.,-3.23707466785537E-32));
#409=DIRECTION('',(-1.87537673078573E-16,-1.,-3.23707466785537E-32));
#410=DIRECTION('',(1.,-1.87537673078573E-16,0.));
#411=DIRECTION('',(-1.,1.87537673078573E-16,-1.72609301092219E-16));
#412=DIRECTION('',(1.72609301092219E-16,0.,-1.));
#413=DIRECTION('',(0.212949665458365,-3.99360847429224E-17,-0.977063170926614));
#414=DIRECTION('',(-6.07073450791194E-48,-3.23707466785537E-32,1.));
#415=DIRECTION('',(-1.,1.87537673078573E-16,6.07073450791194E-48));
#416=DIRECTION('',(-6.07073450791194E-48,-3.23707466785537E-32,1.));
#417=DIRECTION('',(-1.,1.87537673078573E-16,6.07073450791194E-48));
#418=DIRECTION('',(0.,-1.,0.));
#419=DIRECTION('',(0.,0.,-1.));
#420=DIRECTION('',(1.,0.,1.72609301092219E-16));
#421=DIRECTION('',(-1.,0.,-1.72609301092219E-16));
#422=DIRECTION('',(0.212949665458365,-3.99360847429224E-17,-0.977063170926614));
#423=DIRECTION('',(-1.,0.,0.));
#424=DIRECTION('',(7.65420006115906E-64,0.,1.));
#425=DIRECTION('',(-1.,0.,0.));
#426=DIRECTION('',(7.65420006115906E-64,0.,1.));
#427=DIRECTION('',(-1.72609301092219E-16,0.,1.));
#428=DIRECTION('',(1.,0.,1.72609301092219E-16));
#429=DIRECTION('',(1.12937726300573E-16,-1.,1.94941020036864E-32));
#430=DIRECTION('',(1.,0.,1.72609301092219E-16));
#431=DIRECTION('',(-5.50705865389463E-16,1.,-9.50569545322611E-32));
#432=DIRECTION('',(-1.,0.,-1.72609301092219E-16));
#433=DIRECTION('',(0.,1.,0.));
#434=DIRECTION('',(0.,0.,1.));
#435=DIRECTION('',(1.,0.,1.72609301092219E-16));
#436=DIRECTION('',(1.72609301092219E-16,0.,-1.));
#437=DIRECTION('',(1.72609301092219E-16,0.,-1.));
#438=DIRECTION('',(-1.,-5.50705865389463E-16,-1.72609301092219E-16));
#439=DIRECTION('',(5.50705865389463E-16,-1.,0.));
#440=DIRECTION('',(-5.50705865389463E-16,1.,-9.50569545322611E-32));
#441=DIRECTION('',(1.72609301092219E-16,0.,-1.));
#442=DIRECTION('',(0.,-1.,0.));
#443=DIRECTION('',(0.,0.,-1.));
#444=DIRECTION('',(-1.,0.,-1.72609301092219E-16));
#445=DIRECTION('',(-1.,0.,-1.72609301092219E-16));
#446=DIRECTION('',(1.,1.12937726300573E-16,1.72609301092219E-16));
#447=DIRECTION('',(1.72609301092219E-16,0.,-1.));
#448=DIRECTION('',(1.12937726300573E-16,-1.,1.94941020036864E-32));
#449=DIRECTION('',(-1.87537673078573E-16,-1.,-3.23707466785537E-32));
#450=DIRECTION('',(-1.72609301092219E-16,0.,1.));
#451=DIRECTION('',(1.,0.,1.72609301092219E-16));
#452=DIRECTION('',(2.93587245473523E-17,-0.985428923575021,-0.170087732014318));
#453=DIRECTION('',(0.,0.170087732014319,-0.985428923575022));
#454=DIRECTION('',(-1.,0.,-1.72609301092219E-16));
#455=DIRECTION('',(-0.977063170926614,1.8323615352635E-16,-0.212949665458365));
#456=DIRECTION('',(-0.212949665458365,0.,0.977063170926614));
#457=DIRECTION('',(0.,-3.23707466785537E-32,1.));
#458=DIRECTION('',(0.,-1.,-3.23707466785537E-32));
#459=DIRECTION('',(-1.87537673078573E-16,-1.,-3.23707466785537E-32));
#460=DIRECTION('',(-1.87537673078573E-16,-1.,-3.23707466785537E-32));
#461=DIRECTION('',(1.,-1.87537673078573E-16,-7.65420006115906E-64));
#462=DIRECTION('',(1.87537673078573E-16,1.,0.));
#463=DIRECTION('',(-1.87537673078573E-16,-1.,-3.23707466785537E-32));
#464=DIRECTION('',(0.,-3.23707466785537E-32,1.));
#465=DIRECTION('',(0.,-1.,-3.23707466785537E-32));
#466=DIRECTION('',(-1.87537673078573E-16,-1.,-3.23707466785537E-32));
#467=DIRECTION('',(1.,-1.87537673078573E-16,-7.65420006115906E-64));
#468=DIRECTION('',(1.87537673078573E-16,1.,0.));
#469=DIRECTION('',(1.72609301092219E-16,0.,-1.));
#470=DIRECTION('',(1.,0.,1.72609301092219E-16));
#471=CARTESIAN_POINT('',(0.,0.,0.));
#472=CARTESIAN_POINT('',(-0.02355,0.0167,0.032));
#473=CARTESIAN_POINT('',(-0.02355,0.0092,0.105));
#474=CARTESIAN_POINT('',(-0.02355,0.0104,0.105));
#475=CARTESIAN_POINT('',(-0.02355,0.0092,0.105));
#476=CARTESIAN_POINT('',(-0.02355,0.0167,0.0685));
#477=CARTESIAN_POINT('',(-0.02355,0.023,0.032));
#478=CARTESIAN_POINT('',(-0.02355,0.023,0.032));
#479=CARTESIAN_POINT('',(-0.02355,0.023,0.03));
#480=CARTESIAN_POINT('',(-0.02355,0.0167,0.03));
#481=CARTESIAN_POINT('',(-0.02355,0.008,0.03));
#482=CARTESIAN_POINT('',(-0.02355,0.008,0.032));
#483=CARTESIAN_POINT('',(-0.02355,0.008,0.11));
#484=CARTESIAN_POINT('',(-0.02355,0.0092,0.11));
#485=CARTESIAN_POINT('',(-0.02355,0.0092,0.11));
#486=CARTESIAN_POINT('',(-0.02355,0.0092,0.104998));
#487=CARTESIAN_POINT('',(-0.02235,0.0098,0.11));
#488=CARTESIAN_POINT('',(-0.02235,0.0098,0.105));
#489=CARTESIAN_POINT('',(-0.02235,0.0092,0.105));
#490=CARTESIAN_POINT('',(-0.02235,0.0104,0.105));
#491=CARTESIAN_POINT('',(-0.02235,0.0092,0.11));
#492=CARTESIAN_POINT('',(-0.02235,0.0092,0.032));
#493=CARTESIAN_POINT('',(-0.02235,0.0141,0.032));
#494=CARTESIAN_POINT('',(-0.02235,0.023,0.032));
#495=CARTESIAN_POINT('',(-0.02235,0.0167,0.0685));
#496=CARTESIAN_POINT('',(-0.010025,0.0141,0.11));
#497=CARTESIAN_POINT('',(-0.02045,0.0092,0.11));
#498=CARTESIAN_POINT('',(-0.01705,0.0092,0.11));
#499=CARTESIAN_POINT('',(-0.02105,0.008,0.11));
#500=CARTESIAN_POINT('',(-0.01705,0.008,0.11));
#501=CARTESIAN_POINT('',(-0.01705,0.0092,0.11));
#502=CARTESIAN_POINT('',(-0.0093,0.008,0.032));
#503=CARTESIAN_POINT('',(-0.0093,0.008,0.03));
#504=CARTESIAN_POINT('',(-4.99999999999934E-5,0.008,0.03));
#505=CARTESIAN_POINT('',(-4.99999999999937E-5,0.008,0.032));
#506=CARTESIAN_POINT('',(-4.99999999999937E-5,0.008,0.032));
#507=CARTESIAN_POINT('',(-0.00855,0.008,0.071));
#508=CARTESIAN_POINT('',(-0.01795,0.008,0.1075));
#509=CARTESIAN_POINT('',(-0.01795,0.008,0.1059));
#510=CARTESIAN_POINT('',(-0.01795,0.008,0.1091));
#511=CARTESIAN_POINT('',(-0.01855,0.008,0.1059));
#512=CARTESIAN_POINT('',(-0.01915,0.008,0.1059));
#513=CARTESIAN_POINT('',(-0.01915,0.008,0.1075));
#514=CARTESIAN_POINT('',(-0.01915,0.008,0.1091));
#515=CARTESIAN_POINT('',(-0.01855,0.008,0.1091));
#516=CARTESIAN_POINT('',(-0.02045,0.0092,0.11));
#517=CARTESIAN_POINT('',(-0.010025,0.0092,0.032));
#518=CARTESIAN_POINT('',(-4.99999999999938E-5,0.0092,0.032));
#519=CARTESIAN_POINT('',(-0.02295,0.0092,0.105));
#520=CARTESIAN_POINT('',(-0.00855,0.0092,0.071));
#521=CARTESIAN_POINT('',(-0.02045,0.0092,0.1059));
#522=CARTESIAN_POINT('',(-0.01795,0.0092,0.1059));
#523=CARTESIAN_POINT('',(-0.01915,0.0092,0.1059));
#524=CARTESIAN_POINT('',(-0.01795,0.0092,0.11));
#525=CARTESIAN_POINT('',(-0.01795,0.0092,0.1091));
#526=CARTESIAN_POINT('',(-0.02045,0.0092,0.1091));
#527=CARTESIAN_POINT('',(-0.01915,0.0092,0.1091));
#528=CARTESIAN_POINT('',(-0.01915,0.0092,0.11));
#529=CARTESIAN_POINT('',(-0.010025,0.0141,0.032));
#530=CARTESIAN_POINT('',(-4.99999999999938E-5,0.0092,0.032));
#531=CARTESIAN_POINT('',(-4.9999999999994E-5,0.0104,0.032));
#532=CARTESIAN_POINT('',(-0.0093,0.0104,0.032));
#533=CARTESIAN_POINT('',(-0.01855,0.0104,0.032));
#534=CARTESIAN_POINT('',(-0.01855,0.0167,0.032));
#535=CARTESIAN_POINT('',(-0.01855,0.023,0.032));
#536=CARTESIAN_POINT('',(-0.02105,0.023,0.032));
#537=CARTESIAN_POINT('',(-0.0093,0.0104,0.032));
#538=CARTESIAN_POINT('',(-0.0093,0.0104,0.03));
#539=CARTESIAN_POINT('',(-0.01855,0.0104,0.03));
#540=CARTESIAN_POINT('',(-4.99999999999936E-5,0.0104,0.03));
#541=CARTESIAN_POINT('',(-0.01855,0.0104,0.032));
#542=CARTESIAN_POINT('',(-4.9999999999994E-5,0.0104,0.032));
#543=CARTESIAN_POINT('',(-0.01855,0.0167,0.032));
#544=CARTESIAN_POINT('',(-0.01855,0.0167,0.03));
#545=CARTESIAN_POINT('',(-0.01855,0.023,0.03));
#546=CARTESIAN_POINT('',(-0.01855,0.023,0.032));
#547=CARTESIAN_POINT('',(-0.02105,0.023,0.032));
#548=CARTESIAN_POINT('',(-0.02105,0.023,0.03));
#549=CARTESIAN_POINT('',(-0.02235,0.023,0.032));
#550=CARTESIAN_POINT('',(-4.99999999999938E-5,0.0092,0.032));
#551=CARTESIAN_POINT('',(-4.99999999999935E-5,0.0092,0.03));
#552=CARTESIAN_POINT('',(-4.99999999999935E-5,0.0092,0.032));
#553=CARTESIAN_POINT('',(-0.010025,0.0141,0.03));
#554=CARTESIAN_POINT('',(-0.02235,0.0167,0.0685));
#555=CARTESIAN_POINT('',(-0.02235,0.0104,0.105));
#556=CARTESIAN_POINT('',(-0.00855,0.0092,0.071));
#557=CARTESIAN_POINT('',(-0.01855,0.206491132604588,0.1059));
#558=CARTESIAN_POINT('',(-0.01915,0.206491132604588,0.1059));
#559=CARTESIAN_POINT('',(-0.01795,0.206491132604588,0.1059));
#560=CARTESIAN_POINT('',(-0.01795,0.206491132604588,0.1075));
#561=CARTESIAN_POINT('',(-0.01795,0.206491132604588,0.1091));
#562=CARTESIAN_POINT('',(-0.01855,0.206491132604588,0.1091));
#563=CARTESIAN_POINT('',(-0.01915,0.206491132604588,0.1091));
#564=CARTESIAN_POINT('',(-0.01915,0.206491132604588,0.1075));
#565=CARTESIAN_POINT('',(-0.02355,0.0104,0.105));
#566=MECHANICAL_DESIGN_GEOMETRIC_PRESENTATION_REPRESENTATION('',(#357),
#567);
#567=(
GEOMETRIC_REPRESENTATION_CONTEXT(3)
GLOBAL_UNCERTAINTY_ASSIGNED_CONTEXT((#568))
GLOBAL_UNIT_ASSIGNED_CONTEXT((#571,#570,#569))
REPRESENTATION_CONTEXT('Servo Wire Aligner','TOP_LEVEL_ASSEMBLY_PART')
);
#568=UNCERTAINTY_MEASURE_WITH_UNIT(LENGTH_MEASURE(1.E-8),#571,
'DISTANCE_ACCURACY_VALUE','Maximum Tolerance applied to model');
#569=(
NAMED_UNIT(*)
SI_UNIT($,.STERADIAN.)
SOLID_ANGLE_UNIT()
);
#570=(
NAMED_UNIT(*)
PLANE_ANGLE_UNIT()
SI_UNIT($,.RADIAN.)
);
#571=(
LENGTH_UNIT()
NAMED_UNIT(*)
SI_UNIT($,.METRE.)
);
#572=PRODUCT_DEFINITION_SHAPE('','',#573);
#573=PRODUCT_DEFINITION('','',#575,#574);
#574=PRODUCT_DEFINITION_CONTEXT('',#581,'design');
#575=PRODUCT_DEFINITION_FORMATION_WITH_SPECIFIED_SOURCE('','',#577,
 .NOT_KNOWN.);
#576=PRODUCT_RELATED_PRODUCT_CATEGORY('','',(#577));
#577=PRODUCT('Servo Wire Aligner','Servo Wire Aligner',
'Servo Wire Aligner',(#579));
#578=PRODUCT_CATEGORY('','');
#579=PRODUCT_CONTEXT('',#581,'mechanical');
#580=APPLICATION_PROTOCOL_DEFINITION('international standard',
'automotive_design',2010,#581);
#581=APPLICATION_CONTEXT(
'core data for automotive mechanical design processes');
ENDSEC;
END-ISO-10303-21;
