ISO-10303-21;
HEADER;
/* Generated by software containing ST-Developer
 * from STEP Tools, Inc. (www.steptools.com) 
 */
/* OPTION: using custom renumber hook */

FILE_DESCRIPTION(
/* description */ ('STEP AP214',
'CAx-IF Rec.Pracs.---User Defined Attributes---1.5---2016-08-15'),
/* implementation_level */ '2;1');

FILE_NAME(
/* name */ '6a95daa2b3b9f08b1d2c5028',
/* time_stamp */ '2026-08-31T19:48:51Z',
/* author */ (''),
/* organization */ (''),
/* preprocessor_version */ 'ST-DEVELOPER v20',
/* originating_system */ 'ONSHAPE BY PTC INC, 1.220',
/* authorisation */ '  ');

FILE_SCHEMA (('AUTOMOTIVE_DESIGN {1 0 10303 214 3 1 1}'));
ENDSEC;

DATA;
#10=PROPERTY_DEFINITION_REPRESENTATION(#14,#12);
#11=PROPERTY_DEFINITION_REPRESENTATION(#15,#13);
#12=REPRESENTATION('',(#16),#277);
#13=REPRESENTATION('',(#17),#277);
#14=PROPERTY_DEFINITION('pmi validation property','',#282);
#15=PROPERTY_DEFINITION('pmi validation property','',#282);
#16=VALUE_REPRESENTATION_ITEM('number of annotations',COUNT_MEASURE(0.));
#17=VALUE_REPRESENTATION_ITEM('number of views',COUNT_MEASURE(0.));
#18=SHAPE_REPRESENTATION_RELATIONSHIP('','',#163,#19);
#19=ADVANCED_BREP_SHAPE_REPRESENTATION('',(#161),#277);
#20=PLANE('',#171);
#21=PLANE('',#173);
#22=PLANE('',#182);
#23=PLANE('',#183);
#24=PLANE('',#187);
#25=PLANE('',#188);
#26=ORIENTED_EDGE('',*,*,#50,.F.);
#27=ORIENTED_EDGE('',*,*,#51,.T.);
#28=ORIENTED_EDGE('',*,*,#52,.F.);
#29=ORIENTED_EDGE('',*,*,#53,.T.);
#30=ORIENTED_EDGE('',*,*,#54,.F.);
#31=ORIENTED_EDGE('',*,*,#52,.T.);
#32=ORIENTED_EDGE('',*,*,#55,.F.);
#33=ORIENTED_EDGE('',*,*,#53,.F.);
#34=ORIENTED_EDGE('',*,*,#56,.T.);
#35=ORIENTED_EDGE('',*,*,#55,.T.);
#36=ORIENTED_EDGE('',*,*,#57,.F.);
#37=ORIENTED_EDGE('',*,*,#58,.T.);
#38=ORIENTED_EDGE('',*,*,#54,.T.);
#39=ORIENTED_EDGE('',*,*,#59,.F.);
#40=ORIENTED_EDGE('',*,*,#58,.F.);
#41=ORIENTED_EDGE('',*,*,#59,.T.);
#42=ORIENTED_EDGE('',*,*,#50,.T.);
#43=ORIENTED_EDGE('',*,*,#56,.F.);
#44=ORIENTED_EDGE('',*,*,#60,.T.);
#45=ORIENTED_EDGE('',*,*,#61,.F.);
#46=ORIENTED_EDGE('',*,*,#60,.F.);
#47=ORIENTED_EDGE('',*,*,#57,.T.);
#48=ORIENTED_EDGE('',*,*,#61,.T.);
#49=ORIENTED_EDGE('',*,*,#51,.F.);
#50=EDGE_CURVE('',#62,#62,#74,.T.);
#51=EDGE_CURVE('',#63,#63,#75,.T.);
#52=EDGE_CURVE('',#64,#64,#76,.T.);
#53=EDGE_CURVE('',#65,#65,#77,.T.);
#54=EDGE_CURVE('',#66,#66,#78,.T.);
#55=EDGE_CURVE('',#67,#67,#79,.F.);
#56=EDGE_CURVE('',#68,#68,#80,.T.);
#57=EDGE_CURVE('',#69,#69,#81,.T.);
#58=EDGE_CURVE('',#70,#70,#82,.T.);
#59=EDGE_CURVE('',#71,#71,#83,.T.);
#60=EDGE_CURVE('',#72,#72,#84,.T.);
#61=EDGE_CURVE('',#73,#73,#85,.T.);
#62=VERTEX_POINT('',#242);
#63=VERTEX_POINT('',#244);
#64=VERTEX_POINT('',#247);
#65=VERTEX_POINT('',#249);
#66=VERTEX_POINT('',#252);
#67=VERTEX_POINT('',#255);
#68=VERTEX_POINT('',#258);
#69=VERTEX_POINT('',#261);
#70=VERTEX_POINT('',#263);
#71=VERTEX_POINT('',#266);
#72=VERTEX_POINT('',#271);
#73=VERTEX_POINT('',#273);
#74=CIRCLE('',#166,0.0081);
#75=CIRCLE('',#167,0.0081);
#76=CIRCLE('',#169,0.015);
#77=CIRCLE('',#170,0.015);
#78=CIRCLE('',#172,0.012);
#79=CIRCLE('',#174,0.012);
#80=CIRCLE('',#176,0.012);
#81=CIRCLE('',#178,0.0081);
#82=CIRCLE('',#179,0.0081);
#83=CIRCLE('',#181,0.012);
#84=CIRCLE('',#185,0.007);
#85=CIRCLE('',#186,0.007);
#86=EDGE_LOOP('',(#26));
#87=EDGE_LOOP('',(#27));
#88=EDGE_LOOP('',(#28));
#89=EDGE_LOOP('',(#29));
#90=EDGE_LOOP('',(#30));
#91=EDGE_LOOP('',(#31));
#92=EDGE_LOOP('',(#32));
#93=EDGE_LOOP('',(#33));
#94=EDGE_LOOP('',(#34));
#95=EDGE_LOOP('',(#35));
#96=EDGE_LOOP('',(#36));
#97=EDGE_LOOP('',(#37));
#98=EDGE_LOOP('',(#38));
#99=EDGE_LOOP('',(#39));
#100=EDGE_LOOP('',(#40));
#101=EDGE_LOOP('',(#41));
#102=EDGE_LOOP('',(#42));
#103=EDGE_LOOP('',(#43));
#104=EDGE_LOOP('',(#44));
#105=EDGE_LOOP('',(#45));
#106=EDGE_LOOP('',(#46));
#107=EDGE_LOOP('',(#47));
#108=EDGE_LOOP('',(#48));
#109=EDGE_LOOP('',(#49));
#110=FACE_BOUND('',#86,.T.);
#111=FACE_BOUND('',#87,.T.);
#112=FACE_BOUND('',#88,.T.);
#113=FACE_BOUND('',#89,.T.);
#114=FACE_BOUND('',#90,.T.);
#115=FACE_BOUND('',#91,.T.);
#116=FACE_BOUND('',#92,.T.);
#117=FACE_BOUND('',#93,.T.);
#118=FACE_BOUND('',#94,.T.);
#119=FACE_BOUND('',#95,.T.);
#120=FACE_BOUND('',#96,.T.);
#121=FACE_BOUND('',#97,.T.);
#122=FACE_BOUND('',#98,.T.);
#123=FACE_BOUND('',#99,.T.);
#124=FACE_BOUND('',#100,.T.);
#125=FACE_BOUND('',#101,.T.);
#126=FACE_BOUND('',#102,.T.);
#127=FACE_BOUND('',#103,.T.);
#128=FACE_BOUND('',#104,.T.);
#129=FACE_BOUND('',#105,.T.);
#130=FACE_BOUND('',#106,.T.);
#131=FACE_BOUND('',#107,.T.);
#132=FACE_BOUND('',#108,.T.);
#133=FACE_BOUND('',#109,.T.);
#134=CYLINDRICAL_SURFACE('',#165,0.0081);
#135=CYLINDRICAL_SURFACE('',#168,0.015);
#136=CYLINDRICAL_SURFACE('',#175,0.012);
#137=CYLINDRICAL_SURFACE('',#177,0.0081);
#138=CYLINDRICAL_SURFACE('',#180,0.012);
#139=CYLINDRICAL_SURFACE('',#184,0.007);
#140=ADVANCED_FACE('',(#110,#111),#134,.F.);
#141=ADVANCED_FACE('',(#112,#113),#135,.T.);
#142=ADVANCED_FACE('',(#114,#115),#20,.T.);
#143=ADVANCED_FACE('',(#116,#117),#21,.F.);
#144=ADVANCED_FACE('',(#118,#119),#136,.T.);
#145=ADVANCED_FACE('',(#120,#121),#137,.F.);
#146=ADVANCED_FACE('',(#122,#123),#138,.T.);
#147=ADVANCED_FACE('',(#124,#125),#22,.T.);
#148=ADVANCED_FACE('',(#126,#127),#23,.F.);
#149=ADVANCED_FACE('',(#128,#129),#139,.F.);
#150=ADVANCED_FACE('',(#130,#131),#24,.T.);
#151=ADVANCED_FACE('',(#132,#133),#25,.F.);
#152=CLOSED_SHELL('',(#140,#141,#142,#143,#144,#145,#146,#147,#148,#149,
#150,#151));
#153=STYLED_ITEM('',(#154),#161);
#154=PRESENTATION_STYLE_ASSIGNMENT((#155));
#155=SURFACE_STYLE_USAGE(.BOTH.,#156);
#156=SURFACE_SIDE_STYLE('',(#157));
#157=SURFACE_STYLE_FILL_AREA(#158);
#158=FILL_AREA_STYLE('',(#159));
#159=FILL_AREA_STYLE_COLOUR('',#160);
#160=COLOUR_RGB('',0.850980392156863,0.756862745098039,0.866666666666667);
#161=MANIFOLD_SOLID_BREP('Surface Roller',#152);
#162=SHAPE_DEFINITION_REPRESENTATION(#282,#163);
#163=SHAPE_REPRESENTATION('Surface Roller',(#164),#277);
#164=AXIS2_PLACEMENT_3D('',#239,#189,#190);
#165=AXIS2_PLACEMENT_3D('',#240,#191,#192);
#166=AXIS2_PLACEMENT_3D('',#241,#193,#194);
#167=AXIS2_PLACEMENT_3D('',#243,#195,#196);
#168=AXIS2_PLACEMENT_3D('',#245,#197,#198);
#169=AXIS2_PLACEMENT_3D('',#246,#199,#200);
#170=AXIS2_PLACEMENT_3D('',#248,#201,#202);
#171=AXIS2_PLACEMENT_3D('',#250,#203,#204);
#172=AXIS2_PLACEMENT_3D('',#251,#205,#206);
#173=AXIS2_PLACEMENT_3D('',#253,#207,#208);
#174=AXIS2_PLACEMENT_3D('',#254,#209,#210);
#175=AXIS2_PLACEMENT_3D('',#256,#211,#212);
#176=AXIS2_PLACEMENT_3D('',#257,#213,#214);
#177=AXIS2_PLACEMENT_3D('',#259,#215,#216);
#178=AXIS2_PLACEMENT_3D('',#260,#217,#218);
#179=AXIS2_PLACEMENT_3D('',#262,#219,#220);
#180=AXIS2_PLACEMENT_3D('',#264,#221,#222);
#181=AXIS2_PLACEMENT_3D('',#265,#223,#224);
#182=AXIS2_PLACEMENT_3D('',#267,#225,#226);
#183=AXIS2_PLACEMENT_3D('',#268,#227,#228);
#184=AXIS2_PLACEMENT_3D('',#269,#229,#230);
#185=AXIS2_PLACEMENT_3D('',#270,#231,#232);
#186=AXIS2_PLACEMENT_3D('',#272,#233,#234);
#187=AXIS2_PLACEMENT_3D('',#274,#235,#236);
#188=AXIS2_PLACEMENT_3D('',#275,#237,#238);
#189=DIRECTION('',(0.,0.,1.));
#190=DIRECTION('',(1.,0.,0.));
#191=DIRECTION('',(0.,1.,0.));
#192=DIRECTION('',(0.,0.,1.));
#193=DIRECTION('',(0.,-1.,0.));
#194=DIRECTION('',(0.,0.,-1.));
#195=DIRECTION('',(0.,-1.,0.));
#196=DIRECTION('',(0.,0.,-1.));
#197=DIRECTION('',(0.,1.,0.));
#198=DIRECTION('',(0.,0.,1.));
#199=DIRECTION('',(0.,-1.,0.));
#200=DIRECTION('',(0.,0.,-1.));
#201=DIRECTION('',(0.,-1.,0.));
#202=DIRECTION('',(0.,0.,-1.));
#203=DIRECTION('',(0.,-1.,0.));
#204=DIRECTION('',(1.,0.,0.));
#205=DIRECTION('',(0.,-1.,0.));
#206=DIRECTION('',(0.,0.,-1.));
#207=DIRECTION('',(0.,-1.,0.));
#208=DIRECTION('',(1.,0.,0.));
#209=DIRECTION('',(0.,-1.,0.));
#210=DIRECTION('',(0.,0.,-1.));
#211=DIRECTION('',(0.,1.,0.));
#212=DIRECTION('',(0.,0.,1.));
#213=DIRECTION('',(0.,-1.,0.));
#214=DIRECTION('',(0.,0.,-1.));
#215=DIRECTION('',(0.,1.,0.));
#216=DIRECTION('',(0.,0.,1.));
#217=DIRECTION('',(0.,-1.,0.));
#218=DIRECTION('',(0.,0.,-1.));
#219=DIRECTION('',(0.,-1.,0.));
#220=DIRECTION('',(0.,0.,-1.));
#221=DIRECTION('',(0.,1.,0.));
#222=DIRECTION('',(0.,0.,1.));
#223=DIRECTION('',(0.,-1.,0.));
#224=DIRECTION('',(0.,0.,-1.));
#225=DIRECTION('',(0.,-1.,0.));
#226=DIRECTION('',(1.,0.,0.));
#227=DIRECTION('',(0.,-1.,0.));
#228=DIRECTION('',(1.,0.,0.));
#229=DIRECTION('',(0.,1.,0.));
#230=DIRECTION('',(0.,0.,1.));
#231=DIRECTION('',(0.,-1.,0.));
#232=DIRECTION('',(0.,0.,-1.));
#233=DIRECTION('',(0.,-1.,0.));
#234=DIRECTION('',(0.,0.,-1.));
#235=DIRECTION('',(0.,-1.,0.));
#236=DIRECTION('',(1.,0.,0.));
#237=DIRECTION('',(0.,-1.,0.));
#238=DIRECTION('',(1.,0.,0.));
#239=CARTESIAN_POINT('',(0.,0.,0.));
#240=CARTESIAN_POINT('',(0.,-0.01,4.95981953654678E-19));
#241=CARTESIAN_POINT('',(0.,0.01,4.95981953654678E-19));
#242=CARTESIAN_POINT('',(0.,0.01,-0.0081));
#243=CARTESIAN_POINT('',(0.,0.00495,4.95981953654678E-19));
#244=CARTESIAN_POINT('',(0.,0.00495,-0.0081));
#245=CARTESIAN_POINT('',(0.,-0.00395,9.18485099360515E-19));
#246=CARTESIAN_POINT('',(0.,-0.00395,9.18485099360515E-19));
#247=CARTESIAN_POINT('',(0.,-0.00395,-0.015));
#248=CARTESIAN_POINT('',(0.,0.00395,9.18485099360515E-19));
#249=CARTESIAN_POINT('',(0.,0.00395,-0.015));
#250=CARTESIAN_POINT('',(0.,-0.00395,0.));
#251=CARTESIAN_POINT('',(0.,-0.00395,7.34788079488412E-19));
#252=CARTESIAN_POINT('',(0.,-0.00395,-0.012));
#253=CARTESIAN_POINT('',(0.,0.00395,0.));
#254=CARTESIAN_POINT('',(0.,0.00395,7.34788079488412E-19));
#255=CARTESIAN_POINT('',(0.,0.00395,-0.012));
#256=CARTESIAN_POINT('',(0.,-0.01,7.34788079488412E-19));
#257=CARTESIAN_POINT('',(0.,0.01,7.34788079488412E-19));
#258=CARTESIAN_POINT('',(0.,0.01,-0.012));
#259=CARTESIAN_POINT('',(0.,-0.01,4.95981953654678E-19));
#260=CARTESIAN_POINT('',(0.,-0.00495,4.95981953654678E-19));
#261=CARTESIAN_POINT('',(0.,-0.00495,-0.0081));
#262=CARTESIAN_POINT('',(0.,-0.01,4.95981953654678E-19));
#263=CARTESIAN_POINT('',(0.,-0.01,-0.0081));
#264=CARTESIAN_POINT('',(0.,-0.01,7.34788079488412E-19));
#265=CARTESIAN_POINT('',(0.,-0.01,7.34788079488412E-19));
#266=CARTESIAN_POINT('',(0.,-0.01,-0.012));
#267=CARTESIAN_POINT('',(0.,-0.01,0.));
#268=CARTESIAN_POINT('',(0.,0.01,0.));
#269=CARTESIAN_POINT('',(0.,-0.00495,4.28626379701574E-19));
#270=CARTESIAN_POINT('',(0.,-0.00495,4.28626379701574E-19));
#271=CARTESIAN_POINT('',(0.,-0.00495,-0.007));
#272=CARTESIAN_POINT('',(0.,0.00495,4.28626379701574E-19));
#273=CARTESIAN_POINT('',(0.,0.00495,-0.007));
#274=CARTESIAN_POINT('',(0.,-0.00495,0.));
#275=CARTESIAN_POINT('',(0.,0.00495,0.));
#276=MECHANICAL_DESIGN_GEOMETRIC_PRESENTATION_REPRESENTATION('',(#153),
#277);
#277=(
GEOMETRIC_REPRESENTATION_CONTEXT(3)
GLOBAL_UNCERTAINTY_ASSIGNED_CONTEXT((#278))
GLOBAL_UNIT_ASSIGNED_CONTEXT((#281,#280,#279))
REPRESENTATION_CONTEXT('Surface Roller','TOP_LEVEL_ASSEMBLY_PART')
);
#278=UNCERTAINTY_MEASURE_WITH_UNIT(LENGTH_MEASURE(1.E-8),#281,
'DISTANCE_ACCURACY_VALUE','Maximum Tolerance applied to model');
#279=(
NAMED_UNIT(*)
SI_UNIT($,.STERADIAN.)
SOLID_ANGLE_UNIT()
);
#280=(
NAMED_UNIT(*)
PLANE_ANGLE_UNIT()
SI_UNIT($,.RADIAN.)
);
#281=(
LENGTH_UNIT()
NAMED_UNIT(*)
SI_UNIT($,.METRE.)
);
#282=PRODUCT_DEFINITION_SHAPE('','',#283);
#283=PRODUCT_DEFINITION('','',#285,#284);
#284=PRODUCT_DEFINITION_CONTEXT('',#291,'design');
#285=PRODUCT_DEFINITION_FORMATION_WITH_SPECIFIED_SOURCE('','',#287,
 .NOT_KNOWN.);
#286=PRODUCT_RELATED_PRODUCT_CATEGORY('','',(#287));
#287=PRODUCT('Surface Roller','Surface Roller','Surface Roller',(#289));
#288=PRODUCT_CATEGORY('','');
#289=PRODUCT_CONTEXT('',#291,'mechanical');
#290=APPLICATION_PROTOCOL_DEFINITION('international standard',
'automotive_design',2010,#291);
#291=APPLICATION_CONTEXT(
'core data for automotive mechanical design processes');
ENDSEC;
END-ISO-10303-21;
