ISO-10303-21;
HEADER;
/* Generated by software containing ST-Developer
 * from STEP Tools, Inc. (www.steptools.com) 
 */
/* OPTION: using custom renumber hook */

FILE_DESCRIPTION(
/* description */ ('STEP AP214',
'CAx-IF Rec.Pracs.---User Defined Attributes---1.5---2016-08-15'),
/* implementation_level */ '2;1');

FILE_NAME(
/* name */ '6a95daa8b3b9f08b1d2c5037',
/* time_stamp */ '2026-08-31T19:48:56Z',
/* author */ (''),
/* organization */ (''),
/* preprocessor_version */ 'ST-DEVELOPER v20',
/* originating_system */ 'ONSHAPE BY PTC INC, 1.220',
/* authorisation */ '  ');

FILE_SCHEMA (('AUTOMOTIVE_DESIGN {1 0 10303 214 3 1 1}'));
ENDSEC;

DATA;
#10=PROPERTY_DEFINITION_REPRESENTATION(#14,#12);
#11=PROPERTY_DEFINITION_REPRESENTATION(#15,#13);
#12=REPRESENTATION('',(#16),#1285);
#13=REPRESENTATION('',(#17),#1285);
#14=PROPERTY_DEFINITION('pmi validation property','',#1290);
#15=PROPERTY_DEFINITION('pmi validation property','',#1290);
#16=VALUE_REPRESENTATION_ITEM('number of annotations',COUNT_MEASURE(0.));
#17=VALUE_REPRESENTATION_ITEM('number of views',COUNT_MEASURE(0.));
#18=SHAPE_REPRESENTATION_RELATIONSHIP('','',#815,#19);
#19=ADVANCED_BREP_SHAPE_REPRESENTATION('',(#813),#1285);
#20=CYLINDRICAL_SURFACE('',#854,0.0028);
#21=CYLINDRICAL_SURFACE('',#856,0.0028);
#22=CYLINDRICAL_SURFACE('',#858,0.0028);
#23=CYLINDRICAL_SURFACE('',#862,0.0028);
#24=LINE('',#1069,#120);
#25=LINE('',#1072,#121);
#26=LINE('',#1074,#122);
#27=LINE('',#1076,#123);
#28=LINE('',#1078,#124);
#29=LINE('',#1080,#125);
#30=LINE('',#1084,#126);
#31=LINE('',#1087,#127);
#32=LINE('',#1089,#128);
#33=LINE('',#1091,#129);
#34=LINE('',#1093,#130);
#35=LINE('',#1095,#131);
#36=LINE('',#1097,#132);
#37=LINE('',#1100,#133);
#38=LINE('',#1102,#134);
#39=LINE('',#1104,#135);
#40=LINE('',#1106,#136);
#41=LINE('',#1108,#137);
#42=LINE('',#1110,#138);
#43=LINE('',#1112,#139);
#44=LINE('',#1114,#140);
#45=LINE('',#1116,#141);
#46=LINE('',#1118,#142);
#47=LINE('',#1120,#143);
#48=LINE('',#1122,#144);
#49=LINE('',#1124,#145);
#50=LINE('',#1126,#146);
#51=LINE('',#1128,#147);
#52=LINE('',#1130,#148);
#53=LINE('',#1131,#149);
#54=LINE('',#1133,#150);
#55=LINE('',#1135,#151);
#56=LINE('',#1137,#152);
#57=LINE('',#1139,#153);
#58=LINE('',#1141,#154);
#59=LINE('',#1143,#155);
#60=LINE('',#1145,#156);
#61=LINE('',#1147,#157);
#62=LINE('',#1149,#158);
#63=LINE('',#1151,#159);
#64=LINE('',#1153,#160);
#65=LINE('',#1155,#161);
#66=LINE('',#1158,#162);
#67=LINE('',#1161,#163);
#68=LINE('',#1163,#164);
#69=LINE('',#1165,#165);
#70=LINE('',#1167,#166);
#71=LINE('',#1169,#167);
#72=LINE('',#1171,#168);
#73=LINE('',#1173,#169);
#74=LINE('',#1175,#170);
#75=LINE('',#1177,#171);
#76=LINE('',#1179,#172);
#77=LINE('',#1181,#173);
#78=LINE('',#1183,#174);
#79=LINE('',#1185,#175);
#80=LINE('',#1187,#176);
#81=LINE('',#1189,#177);
#82=LINE('',#1191,#178);
#83=LINE('',#1192,#179);
#84=LINE('',#1194,#180);
#85=LINE('',#1196,#181);
#86=LINE('',#1198,#182);
#87=LINE('',#1200,#183);
#88=LINE('',#1202,#184);
#89=LINE('',#1204,#185);
#90=LINE('',#1206,#186);
#91=LINE('',#1208,#187);
#92=LINE('',#1210,#188);
#93=LINE('',#1212,#189);
#94=LINE('',#1214,#190);
#95=LINE('',#1216,#191);
#96=LINE('',#1219,#192);
#97=LINE('',#1222,#193);
#98=LINE('',#1224,#194);
#99=LINE('',#1226,#195);
#100=LINE('',#1228,#196);
#101=LINE('',#1230,#197);
#102=LINE('',#1232,#198);
#103=LINE('',#1234,#199);
#104=LINE('',#1236,#200);
#105=LINE('',#1238,#201);
#106=LINE('',#1240,#202);
#107=LINE('',#1242,#203);
#108=LINE('',#1244,#204);
#109=LINE('',#1246,#205);
#110=LINE('',#1248,#206);
#111=LINE('',#1250,#207);
#112=LINE('',#1252,#208);
#113=LINE('',#1254,#209);
#114=LINE('',#1256,#210);
#115=LINE('',#1258,#211);
#116=LINE('',#1260,#212);
#117=LINE('',#1262,#213);
#118=LINE('',#1275,#214);
#119=LINE('',#1276,#215);
#120=VECTOR('',#873,1.);
#121=VECTOR('',#874,1.);
#122=VECTOR('',#875,1.);
#123=VECTOR('',#876,1.);
#124=VECTOR('',#877,1.);
#125=VECTOR('',#878,1.);
#126=VECTOR('',#883,1.);
#127=VECTOR('',#884,1.);
#128=VECTOR('',#885,1.);
#129=VECTOR('',#886,1.);
#130=VECTOR('',#887,1.);
#131=VECTOR('',#888,1.);
#132=VECTOR('',#891,1.);
#133=VECTOR('',#892,1.);
#134=VECTOR('',#893,1.);
#135=VECTOR('',#894,1.);
#136=VECTOR('',#897,1.);
#137=VECTOR('',#898,1.);
#138=VECTOR('',#899,1.);
#139=VECTOR('',#902,1.);
#140=VECTOR('',#903,1.);
#141=VECTOR('',#904,1.);
#142=VECTOR('',#907,1.);
#143=VECTOR('',#908,1.);
#144=VECTOR('',#909,1.);
#145=VECTOR('',#912,1.);
#146=VECTOR('',#913,1.);
#147=VECTOR('',#914,1.);
#148=VECTOR('',#917,1.);
#149=VECTOR('',#918,1.);
#150=VECTOR('',#921,1.);
#151=VECTOR('',#922,1.);
#152=VECTOR('',#923,1.);
#153=VECTOR('',#926,1.);
#154=VECTOR('',#927,1.);
#155=VECTOR('',#930,1.);
#156=VECTOR('',#931,1.);
#157=VECTOR('',#934,1.);
#158=VECTOR('',#935,1.);
#159=VECTOR('',#938,1.);
#160=VECTOR('',#939,1.);
#161=VECTOR('',#942,1.);
#162=VECTOR('',#947,1.);
#163=VECTOR('',#948,1.);
#164=VECTOR('',#949,1.);
#165=VECTOR('',#950,1.);
#166=VECTOR('',#953,1.);
#167=VECTOR('',#954,1.);
#168=VECTOR('',#955,1.);
#169=VECTOR('',#958,1.);
#170=VECTOR('',#959,1.);
#171=VECTOR('',#960,1.);
#172=VECTOR('',#963,1.);
#173=VECTOR('',#964,1.);
#174=VECTOR('',#965,1.);
#175=VECTOR('',#968,1.);
#176=VECTOR('',#969,1.);
#177=VECTOR('',#970,1.);
#178=VECTOR('',#973,1.);
#179=VECTOR('',#974,1.);
#180=VECTOR('',#977,1.);
#181=VECTOR('',#978,1.);
#182=VECTOR('',#979,1.);
#183=VECTOR('',#982,1.);
#184=VECTOR('',#983,1.);
#185=VECTOR('',#986,1.);
#186=VECTOR('',#987,1.);
#187=VECTOR('',#990,1.);
#188=VECTOR('',#991,1.);
#189=VECTOR('',#994,1.);
#190=VECTOR('',#995,1.);
#191=VECTOR('',#998,1.);
#192=VECTOR('',#1003,1.);
#193=VECTOR('',#1004,1.);
#194=VECTOR('',#1005,1.);
#195=VECTOR('',#1006,1.);
#196=VECTOR('',#1009,1.);
#197=VECTOR('',#1010,1.);
#198=VECTOR('',#1011,1.);
#199=VECTOR('',#1014,1.);
#200=VECTOR('',#1015,1.);
#201=VECTOR('',#1016,1.);
#202=VECTOR('',#1019,1.);
#203=VECTOR('',#1020,1.);
#204=VECTOR('',#1021,1.);
#205=VECTOR('',#1024,1.);
#206=VECTOR('',#1025,1.);
#207=VECTOR('',#1026,1.);
#208=VECTOR('',#1029,1.);
#209=VECTOR('',#1030,1.);
#210=VECTOR('',#1031,1.);
#211=VECTOR('',#1034,1.);
#212=VECTOR('',#1035,1.);
#213=VECTOR('',#1036,1.);
#214=VECTOR('',#1053,1.);
#215=VECTOR('',#1054,1.);
#216=ORIENTED_EDGE('',*,*,#424,.F.);
#217=ORIENTED_EDGE('',*,*,#425,.T.);
#218=ORIENTED_EDGE('',*,*,#426,.T.);
#219=ORIENTED_EDGE('',*,*,#427,.T.);
#220=ORIENTED_EDGE('',*,*,#428,.T.);
#221=ORIENTED_EDGE('',*,*,#429,.T.);
#222=ORIENTED_EDGE('',*,*,#430,.T.);
#223=ORIENTED_EDGE('',*,*,#431,.T.);
#224=ORIENTED_EDGE('',*,*,#432,.F.);
#225=ORIENTED_EDGE('',*,*,#433,.F.);
#226=ORIENTED_EDGE('',*,*,#434,.F.);
#227=ORIENTED_EDGE('',*,*,#435,.F.);
#228=ORIENTED_EDGE('',*,*,#436,.F.);
#229=ORIENTED_EDGE('',*,*,#437,.F.);
#230=ORIENTED_EDGE('',*,*,#438,.T.);
#231=ORIENTED_EDGE('',*,*,#439,.F.);
#232=ORIENTED_EDGE('',*,*,#440,.F.);
#233=ORIENTED_EDGE('',*,*,#441,.T.);
#234=ORIENTED_EDGE('',*,*,#442,.T.);
#235=ORIENTED_EDGE('',*,*,#441,.F.);
#236=ORIENTED_EDGE('',*,*,#443,.F.);
#237=ORIENTED_EDGE('',*,*,#444,.T.);
#238=ORIENTED_EDGE('',*,*,#445,.T.);
#239=ORIENTED_EDGE('',*,*,#444,.F.);
#240=ORIENTED_EDGE('',*,*,#446,.F.);
#241=ORIENTED_EDGE('',*,*,#447,.T.);
#242=ORIENTED_EDGE('',*,*,#448,.T.);
#243=ORIENTED_EDGE('',*,*,#447,.F.);
#244=ORIENTED_EDGE('',*,*,#449,.F.);
#245=ORIENTED_EDGE('',*,*,#450,.T.);
#246=ORIENTED_EDGE('',*,*,#451,.T.);
#247=ORIENTED_EDGE('',*,*,#450,.F.);
#248=ORIENTED_EDGE('',*,*,#452,.F.);
#249=ORIENTED_EDGE('',*,*,#453,.T.);
#250=ORIENTED_EDGE('',*,*,#454,.T.);
#251=ORIENTED_EDGE('',*,*,#453,.F.);
#252=ORIENTED_EDGE('',*,*,#455,.F.);
#253=ORIENTED_EDGE('',*,*,#439,.T.);
#254=ORIENTED_EDGE('',*,*,#425,.F.);
#255=ORIENTED_EDGE('',*,*,#456,.F.);
#256=ORIENTED_EDGE('',*,*,#457,.T.);
#257=ORIENTED_EDGE('',*,*,#458,.T.);
#258=ORIENTED_EDGE('',*,*,#430,.F.);
#259=ORIENTED_EDGE('',*,*,#459,.F.);
#260=ORIENTED_EDGE('',*,*,#460,.T.);
#261=ORIENTED_EDGE('',*,*,#456,.T.);
#262=ORIENTED_EDGE('',*,*,#429,.F.);
#263=ORIENTED_EDGE('',*,*,#461,.F.);
#264=ORIENTED_EDGE('',*,*,#462,.T.);
#265=ORIENTED_EDGE('',*,*,#459,.T.);
#266=ORIENTED_EDGE('',*,*,#428,.F.);
#267=ORIENTED_EDGE('',*,*,#463,.F.);
#268=ORIENTED_EDGE('',*,*,#464,.T.);
#269=ORIENTED_EDGE('',*,*,#461,.T.);
#270=ORIENTED_EDGE('',*,*,#427,.F.);
#271=ORIENTED_EDGE('',*,*,#465,.F.);
#272=ORIENTED_EDGE('',*,*,#466,.T.);
#273=ORIENTED_EDGE('',*,*,#463,.T.);
#274=ORIENTED_EDGE('',*,*,#467,.F.);
#275=ORIENTED_EDGE('',*,*,#457,.F.);
#276=ORIENTED_EDGE('',*,*,#460,.F.);
#277=ORIENTED_EDGE('',*,*,#462,.F.);
#278=ORIENTED_EDGE('',*,*,#464,.F.);
#279=ORIENTED_EDGE('',*,*,#466,.F.);
#280=ORIENTED_EDGE('',*,*,#440,.T.);
#281=ORIENTED_EDGE('',*,*,#455,.T.);
#282=ORIENTED_EDGE('',*,*,#452,.T.);
#283=ORIENTED_EDGE('',*,*,#449,.T.);
#284=ORIENTED_EDGE('',*,*,#446,.T.);
#285=ORIENTED_EDGE('',*,*,#443,.T.);
#286=ORIENTED_EDGE('',*,*,#426,.F.);
#287=ORIENTED_EDGE('',*,*,#458,.F.);
#288=ORIENTED_EDGE('',*,*,#467,.T.);
#289=ORIENTED_EDGE('',*,*,#465,.T.);
#290=ORIENTED_EDGE('',*,*,#468,.F.);
#291=ORIENTED_EDGE('',*,*,#469,.F.);
#292=ORIENTED_EDGE('',*,*,#470,.T.);
#293=ORIENTED_EDGE('',*,*,#471,.T.);
#294=ORIENTED_EDGE('',*,*,#472,.F.);
#295=ORIENTED_EDGE('',*,*,#473,.F.);
#296=ORIENTED_EDGE('',*,*,#474,.T.);
#297=ORIENTED_EDGE('',*,*,#469,.T.);
#298=ORIENTED_EDGE('',*,*,#475,.F.);
#299=ORIENTED_EDGE('',*,*,#476,.F.);
#300=ORIENTED_EDGE('',*,*,#477,.T.);
#301=ORIENTED_EDGE('',*,*,#473,.T.);
#302=ORIENTED_EDGE('',*,*,#478,.F.);
#303=ORIENTED_EDGE('',*,*,#479,.F.);
#304=ORIENTED_EDGE('',*,*,#480,.T.);
#305=ORIENTED_EDGE('',*,*,#476,.T.);
#306=ORIENTED_EDGE('',*,*,#481,.F.);
#307=ORIENTED_EDGE('',*,*,#482,.F.);
#308=ORIENTED_EDGE('',*,*,#483,.T.);
#309=ORIENTED_EDGE('',*,*,#479,.T.);
#310=ORIENTED_EDGE('',*,*,#484,.F.);
#311=ORIENTED_EDGE('',*,*,#471,.F.);
#312=ORIENTED_EDGE('',*,*,#485,.T.);
#313=ORIENTED_EDGE('',*,*,#482,.T.);
#314=ORIENTED_EDGE('',*,*,#432,.T.);
#315=ORIENTED_EDGE('',*,*,#486,.F.);
#316=ORIENTED_EDGE('',*,*,#487,.F.);
#317=ORIENTED_EDGE('',*,*,#488,.T.);
#318=ORIENTED_EDGE('',*,*,#433,.T.);
#319=ORIENTED_EDGE('',*,*,#488,.F.);
#320=ORIENTED_EDGE('',*,*,#489,.F.);
#321=ORIENTED_EDGE('',*,*,#490,.T.);
#322=ORIENTED_EDGE('',*,*,#434,.T.);
#323=ORIENTED_EDGE('',*,*,#490,.F.);
#324=ORIENTED_EDGE('',*,*,#491,.F.);
#325=ORIENTED_EDGE('',*,*,#492,.T.);
#326=ORIENTED_EDGE('',*,*,#435,.T.);
#327=ORIENTED_EDGE('',*,*,#492,.F.);
#328=ORIENTED_EDGE('',*,*,#493,.F.);
#329=ORIENTED_EDGE('',*,*,#494,.T.);
#330=ORIENTED_EDGE('',*,*,#436,.T.);
#331=ORIENTED_EDGE('',*,*,#494,.F.);
#332=ORIENTED_EDGE('',*,*,#495,.F.);
#333=ORIENTED_EDGE('',*,*,#496,.T.);
#334=ORIENTED_EDGE('',*,*,#497,.T.);
#335=ORIENTED_EDGE('',*,*,#495,.T.);
#336=ORIENTED_EDGE('',*,*,#493,.T.);
#337=ORIENTED_EDGE('',*,*,#491,.T.);
#338=ORIENTED_EDGE('',*,*,#489,.T.);
#339=ORIENTED_EDGE('',*,*,#487,.T.);
#340=ORIENTED_EDGE('',*,*,#470,.F.);
#341=ORIENTED_EDGE('',*,*,#474,.F.);
#342=ORIENTED_EDGE('',*,*,#477,.F.);
#343=ORIENTED_EDGE('',*,*,#480,.F.);
#344=ORIENTED_EDGE('',*,*,#483,.F.);
#345=ORIENTED_EDGE('',*,*,#485,.F.);
#346=ORIENTED_EDGE('',*,*,#437,.T.);
#347=ORIENTED_EDGE('',*,*,#496,.F.);
#348=ORIENTED_EDGE('',*,*,#497,.F.);
#349=ORIENTED_EDGE('',*,*,#486,.T.);
#350=ORIENTED_EDGE('',*,*,#498,.T.);
#351=ORIENTED_EDGE('',*,*,#499,.F.);
#352=ORIENTED_EDGE('',*,*,#500,.F.);
#353=ORIENTED_EDGE('',*,*,#501,.T.);
#354=ORIENTED_EDGE('',*,*,#502,.F.);
#355=ORIENTED_EDGE('',*,*,#503,.F.);
#356=ORIENTED_EDGE('',*,*,#504,.T.);
#357=ORIENTED_EDGE('',*,*,#499,.T.);
#358=ORIENTED_EDGE('',*,*,#505,.F.);
#359=ORIENTED_EDGE('',*,*,#506,.F.);
#360=ORIENTED_EDGE('',*,*,#507,.T.);
#361=ORIENTED_EDGE('',*,*,#503,.T.);
#362=ORIENTED_EDGE('',*,*,#508,.F.);
#363=ORIENTED_EDGE('',*,*,#509,.F.);
#364=ORIENTED_EDGE('',*,*,#510,.T.);
#365=ORIENTED_EDGE('',*,*,#506,.T.);
#366=ORIENTED_EDGE('',*,*,#511,.F.);
#367=ORIENTED_EDGE('',*,*,#512,.F.);
#368=ORIENTED_EDGE('',*,*,#513,.T.);
#369=ORIENTED_EDGE('',*,*,#509,.T.);
#370=ORIENTED_EDGE('',*,*,#514,.T.);
#371=ORIENTED_EDGE('',*,*,#515,.F.);
#372=ORIENTED_EDGE('',*,*,#516,.F.);
#373=ORIENTED_EDGE('',*,*,#512,.T.);
#374=ORIENTED_EDGE('',*,*,#517,.T.);
#375=ORIENTED_EDGE('',*,*,#518,.F.);
#376=ORIENTED_EDGE('',*,*,#519,.F.);
#377=ORIENTED_EDGE('',*,*,#515,.T.);
#378=ORIENTED_EDGE('',*,*,#424,.T.);
#379=ORIENTED_EDGE('',*,*,#520,.F.);
#380=ORIENTED_EDGE('',*,*,#431,.F.);
#381=ORIENTED_EDGE('',*,*,#521,.T.);
#382=ORIENTED_EDGE('',*,*,#522,.T.);
#383=ORIENTED_EDGE('',*,*,#523,.F.);
#384=ORIENTED_EDGE('',*,*,#524,.T.);
#385=ORIENTED_EDGE('',*,*,#501,.F.);
#386=ORIENTED_EDGE('',*,*,#525,.F.);
#387=ORIENTED_EDGE('',*,*,#518,.T.);
#388=ORIENTED_EDGE('',*,*,#526,.F.);
#389=ORIENTED_EDGE('',*,*,#527,.T.);
#390=ORIENTED_EDGE('',*,*,#510,.F.);
#391=ORIENTED_EDGE('',*,*,#513,.F.);
#392=ORIENTED_EDGE('',*,*,#516,.T.);
#393=ORIENTED_EDGE('',*,*,#519,.T.);
#394=ORIENTED_EDGE('',*,*,#525,.T.);
#395=ORIENTED_EDGE('',*,*,#500,.T.);
#396=ORIENTED_EDGE('',*,*,#504,.F.);
#397=ORIENTED_EDGE('',*,*,#507,.F.);
#398=ORIENTED_EDGE('',*,*,#468,.T.);
#399=ORIENTED_EDGE('',*,*,#484,.T.);
#400=ORIENTED_EDGE('',*,*,#481,.T.);
#401=ORIENTED_EDGE('',*,*,#478,.T.);
#402=ORIENTED_EDGE('',*,*,#475,.T.);
#403=ORIENTED_EDGE('',*,*,#472,.T.);
#404=ORIENTED_EDGE('',*,*,#438,.F.);
#405=ORIENTED_EDGE('',*,*,#442,.F.);
#406=ORIENTED_EDGE('',*,*,#445,.F.);
#407=ORIENTED_EDGE('',*,*,#448,.F.);
#408=ORIENTED_EDGE('',*,*,#451,.F.);
#409=ORIENTED_EDGE('',*,*,#454,.F.);
#410=ORIENTED_EDGE('',*,*,#522,.F.);
#411=ORIENTED_EDGE('',*,*,#526,.T.);
#412=ORIENTED_EDGE('',*,*,#498,.F.);
#413=ORIENTED_EDGE('',*,*,#524,.F.);
#414=ORIENTED_EDGE('',*,*,#517,.F.);
#415=ORIENTED_EDGE('',*,*,#514,.F.);
#416=ORIENTED_EDGE('',*,*,#511,.T.);
#417=ORIENTED_EDGE('',*,*,#508,.T.);
#418=ORIENTED_EDGE('',*,*,#505,.T.);
#419=ORIENTED_EDGE('',*,*,#502,.T.);
#420=ORIENTED_EDGE('',*,*,#523,.T.);
#421=ORIENTED_EDGE('',*,*,#521,.F.);
#422=ORIENTED_EDGE('',*,*,#520,.T.);
#423=ORIENTED_EDGE('',*,*,#527,.F.);
#424=EDGE_CURVE('',#528,#528,#600,.T.);
#425=EDGE_CURVE('',#529,#530,#24,.T.);
#426=EDGE_CURVE('',#530,#531,#25,.T.);
#427=EDGE_CURVE('',#531,#532,#26,.T.);
#428=EDGE_CURVE('',#532,#533,#27,.T.);
#429=EDGE_CURVE('',#533,#534,#28,.T.);
#430=EDGE_CURVE('',#534,#529,#29,.T.);
#431=EDGE_CURVE('',#535,#535,#601,.T.);
#432=EDGE_CURVE('',#536,#537,#30,.T.);
#433=EDGE_CURVE('',#538,#536,#31,.T.);
#434=EDGE_CURVE('',#539,#538,#32,.T.);
#435=EDGE_CURVE('',#540,#539,#33,.T.);
#436=EDGE_CURVE('',#541,#540,#34,.T.);
#437=EDGE_CURVE('',#537,#541,#35,.T.);
#438=EDGE_CURVE('',#542,#543,#36,.T.);
#439=EDGE_CURVE('',#544,#543,#37,.T.);
#440=EDGE_CURVE('',#545,#544,#38,.T.);
#441=EDGE_CURVE('',#545,#542,#39,.T.);
#442=EDGE_CURVE('',#546,#542,#40,.T.);
#443=EDGE_CURVE('',#547,#545,#41,.T.);
#444=EDGE_CURVE('',#547,#546,#42,.T.);
#445=EDGE_CURVE('',#548,#546,#43,.T.);
#446=EDGE_CURVE('',#549,#547,#44,.T.);
#447=EDGE_CURVE('',#549,#548,#45,.T.);
#448=EDGE_CURVE('',#550,#548,#46,.T.);
#449=EDGE_CURVE('',#551,#549,#47,.T.);
#450=EDGE_CURVE('',#551,#550,#48,.T.);
#451=EDGE_CURVE('',#552,#550,#49,.T.);
#452=EDGE_CURVE('',#553,#551,#50,.T.);
#453=EDGE_CURVE('',#553,#552,#51,.T.);
#454=EDGE_CURVE('',#543,#552,#52,.T.);
#455=EDGE_CURVE('',#544,#553,#53,.T.);
#456=EDGE_CURVE('',#554,#529,#54,.T.);
#457=EDGE_CURVE('',#554,#555,#55,.T.);
#458=EDGE_CURVE('',#555,#530,#56,.T.);
#459=EDGE_CURVE('',#556,#534,#57,.T.);
#460=EDGE_CURVE('',#556,#554,#58,.T.);
#461=EDGE_CURVE('',#557,#533,#59,.T.);
#462=EDGE_CURVE('',#557,#556,#60,.T.);
#463=EDGE_CURVE('',#558,#532,#61,.T.);
#464=EDGE_CURVE('',#558,#557,#62,.T.);
#465=EDGE_CURVE('',#559,#531,#63,.T.);
#466=EDGE_CURVE('',#559,#558,#64,.T.);
#467=EDGE_CURVE('',#555,#559,#65,.T.);
#468=EDGE_CURVE('',#560,#561,#66,.T.);
#469=EDGE_CURVE('',#562,#560,#67,.T.);
#470=EDGE_CURVE('',#562,#563,#68,.T.);
#471=EDGE_CURVE('',#563,#561,#69,.T.);
#472=EDGE_CURVE('',#564,#560,#70,.T.);
#473=EDGE_CURVE('',#565,#564,#71,.T.);
#474=EDGE_CURVE('',#565,#562,#72,.T.);
#475=EDGE_CURVE('',#566,#564,#73,.T.);
#476=EDGE_CURVE('',#567,#566,#74,.T.);
#477=EDGE_CURVE('',#567,#565,#75,.T.);
#478=EDGE_CURVE('',#568,#566,#76,.T.);
#479=EDGE_CURVE('',#569,#568,#77,.T.);
#480=EDGE_CURVE('',#569,#567,#78,.T.);
#481=EDGE_CURVE('',#570,#568,#79,.T.);
#482=EDGE_CURVE('',#571,#570,#80,.T.);
#483=EDGE_CURVE('',#571,#569,#81,.T.);
#484=EDGE_CURVE('',#561,#570,#82,.T.);
#485=EDGE_CURVE('',#563,#571,#83,.T.);
#486=EDGE_CURVE('',#572,#537,#84,.T.);
#487=EDGE_CURVE('',#573,#572,#85,.T.);
#488=EDGE_CURVE('',#573,#536,#86,.T.);
#489=EDGE_CURVE('',#574,#573,#87,.T.);
#490=EDGE_CURVE('',#574,#538,#88,.T.);
#491=EDGE_CURVE('',#575,#574,#89,.T.);
#492=EDGE_CURVE('',#575,#539,#90,.T.);
#493=EDGE_CURVE('',#576,#575,#91,.T.);
#494=EDGE_CURVE('',#576,#540,#92,.T.);
#495=EDGE_CURVE('',#577,#576,#93,.T.);
#496=EDGE_CURVE('',#577,#541,#94,.T.);
#497=EDGE_CURVE('',#572,#577,#95,.T.);
#498=EDGE_CURVE('',#578,#579,#96,.T.);
#499=EDGE_CURVE('',#580,#579,#97,.T.);
#500=EDGE_CURVE('',#581,#580,#98,.T.);
#501=EDGE_CURVE('',#581,#578,#99,.T.);
#502=EDGE_CURVE('',#582,#579,#100,.T.);
#503=EDGE_CURVE('',#583,#582,#101,.T.);
#504=EDGE_CURVE('',#583,#580,#102,.T.);
#505=EDGE_CURVE('',#584,#582,#103,.T.);
#506=EDGE_CURVE('',#585,#584,#104,.T.);
#507=EDGE_CURVE('',#585,#583,#105,.T.);
#508=EDGE_CURVE('',#586,#584,#106,.T.);
#509=EDGE_CURVE('',#587,#586,#107,.T.);
#510=EDGE_CURVE('',#587,#585,#108,.T.);
#511=EDGE_CURVE('',#588,#586,#109,.T.);
#512=EDGE_CURVE('',#589,#588,#110,.T.);
#513=EDGE_CURVE('',#589,#587,#111,.T.);
#514=EDGE_CURVE('',#588,#590,#112,.T.);
#515=EDGE_CURVE('',#591,#590,#113,.T.);
#516=EDGE_CURVE('',#589,#591,#114,.T.);
#517=EDGE_CURVE('',#590,#592,#115,.T.);
#518=EDGE_CURVE('',#593,#592,#116,.T.);
#519=EDGE_CURVE('',#591,#593,#117,.T.);
#520=EDGE_CURVE('',#594,#594,#602,.T.);
#521=EDGE_CURVE('',#595,#595,#603,.T.);
#522=EDGE_CURVE('',#596,#596,#604,.T.);
#523=EDGE_CURVE('',#597,#597,#605,.T.);
#524=EDGE_CURVE('',#592,#578,#118,.T.);
#525=EDGE_CURVE('',#593,#581,#119,.T.);
#526=EDGE_CURVE('',#598,#598,#606,.T.);
#527=EDGE_CURVE('',#599,#599,#607,.T.);
#528=VERTEX_POINT('',#1068);
#529=VERTEX_POINT('',#1070);
#530=VERTEX_POINT('',#1071);
#531=VERTEX_POINT('',#1073);
#532=VERTEX_POINT('',#1075);
#533=VERTEX_POINT('',#1077);
#534=VERTEX_POINT('',#1079);
#535=VERTEX_POINT('',#1083);
#536=VERTEX_POINT('',#1085);
#537=VERTEX_POINT('',#1086);
#538=VERTEX_POINT('',#1088);
#539=VERTEX_POINT('',#1090);
#540=VERTEX_POINT('',#1092);
#541=VERTEX_POINT('',#1094);
#542=VERTEX_POINT('',#1098);
#543=VERTEX_POINT('',#1099);
#544=VERTEX_POINT('',#1101);
#545=VERTEX_POINT('',#1103);
#546=VERTEX_POINT('',#1107);
#547=VERTEX_POINT('',#1109);
#548=VERTEX_POINT('',#1113);
#549=VERTEX_POINT('',#1115);
#550=VERTEX_POINT('',#1119);
#551=VERTEX_POINT('',#1121);
#552=VERTEX_POINT('',#1125);
#553=VERTEX_POINT('',#1127);
#554=VERTEX_POINT('',#1134);
#555=VERTEX_POINT('',#1136);
#556=VERTEX_POINT('',#1140);
#557=VERTEX_POINT('',#1144);
#558=VERTEX_POINT('',#1148);
#559=VERTEX_POINT('',#1152);
#560=VERTEX_POINT('',#1159);
#561=VERTEX_POINT('',#1160);
#562=VERTEX_POINT('',#1162);
#563=VERTEX_POINT('',#1164);
#564=VERTEX_POINT('',#1168);
#565=VERTEX_POINT('',#1170);
#566=VERTEX_POINT('',#1174);
#567=VERTEX_POINT('',#1176);
#568=VERTEX_POINT('',#1180);
#569=VERTEX_POINT('',#1182);
#570=VERTEX_POINT('',#1186);
#571=VERTEX_POINT('',#1188);
#572=VERTEX_POINT('',#1195);
#573=VERTEX_POINT('',#1197);
#574=VERTEX_POINT('',#1201);
#575=VERTEX_POINT('',#1205);
#576=VERTEX_POINT('',#1209);
#577=VERTEX_POINT('',#1213);
#578=VERTEX_POINT('',#1220);
#579=VERTEX_POINT('',#1221);
#580=VERTEX_POINT('',#1223);
#581=VERTEX_POINT('',#1225);
#582=VERTEX_POINT('',#1229);
#583=VERTEX_POINT('',#1231);
#584=VERTEX_POINT('',#1235);
#585=VERTEX_POINT('',#1237);
#586=VERTEX_POINT('',#1241);
#587=VERTEX_POINT('',#1243);
#588=VERTEX_POINT('',#1247);
#589=VERTEX_POINT('',#1249);
#590=VERTEX_POINT('',#1253);
#591=VERTEX_POINT('',#1255);
#592=VERTEX_POINT('',#1259);
#593=VERTEX_POINT('',#1261);
#594=VERTEX_POINT('',#1265);
#595=VERTEX_POINT('',#1268);
#596=VERTEX_POINT('',#1271);
#597=VERTEX_POINT('',#1273);
#598=VERTEX_POINT('',#1279);
#599=VERTEX_POINT('',#1281);
#600=CIRCLE('',#818,0.0028);
#601=CIRCLE('',#820,0.0028);
#602=CIRCLE('',#855,0.0028);
#603=CIRCLE('',#857,0.0028);
#604=CIRCLE('',#859,0.0028);
#605=CIRCLE('',#860,0.0028);
#606=CIRCLE('',#863,0.0028);
#607=CIRCLE('',#864,0.0028);
#608=EDGE_LOOP('',(#216));
#609=EDGE_LOOP('',(#217,#218,#219,#220,#221,#222));
#610=EDGE_LOOP('',(#223));
#611=EDGE_LOOP('',(#224,#225,#226,#227,#228,#229));
#612=EDGE_LOOP('',(#230,#231,#232,#233));
#613=EDGE_LOOP('',(#234,#235,#236,#237));
#614=EDGE_LOOP('',(#238,#239,#240,#241));
#615=EDGE_LOOP('',(#242,#243,#244,#245));
#616=EDGE_LOOP('',(#246,#247,#248,#249));
#617=EDGE_LOOP('',(#250,#251,#252,#253));
#618=EDGE_LOOP('',(#254,#255,#256,#257));
#619=EDGE_LOOP('',(#258,#259,#260,#261));
#620=EDGE_LOOP('',(#262,#263,#264,#265));
#621=EDGE_LOOP('',(#266,#267,#268,#269));
#622=EDGE_LOOP('',(#270,#271,#272,#273));
#623=EDGE_LOOP('',(#274,#275,#276,#277,#278,#279));
#624=EDGE_LOOP('',(#280,#281,#282,#283,#284,#285));
#625=EDGE_LOOP('',(#286,#287,#288,#289));
#626=EDGE_LOOP('',(#290,#291,#292,#293));
#627=EDGE_LOOP('',(#294,#295,#296,#297));
#628=EDGE_LOOP('',(#298,#299,#300,#301));
#629=EDGE_LOOP('',(#302,#303,#304,#305));
#630=EDGE_LOOP('',(#306,#307,#308,#309));
#631=EDGE_LOOP('',(#310,#311,#312,#313));
#632=EDGE_LOOP('',(#314,#315,#316,#317));
#633=EDGE_LOOP('',(#318,#319,#320,#321));
#634=EDGE_LOOP('',(#322,#323,#324,#325));
#635=EDGE_LOOP('',(#326,#327,#328,#329));
#636=EDGE_LOOP('',(#330,#331,#332,#333));
#637=EDGE_LOOP('',(#334,#335,#336,#337,#338,#339));
#638=EDGE_LOOP('',(#340,#341,#342,#343,#344,#345));
#639=EDGE_LOOP('',(#346,#347,#348,#349));
#640=EDGE_LOOP('',(#350,#351,#352,#353));
#641=EDGE_LOOP('',(#354,#355,#356,#357));
#642=EDGE_LOOP('',(#358,#359,#360,#361));
#643=EDGE_LOOP('',(#362,#363,#364,#365));
#644=EDGE_LOOP('',(#366,#367,#368,#369));
#645=EDGE_LOOP('',(#370,#371,#372,#373));
#646=EDGE_LOOP('',(#374,#375,#376,#377));
#647=EDGE_LOOP('',(#378));
#648=EDGE_LOOP('',(#379));
#649=EDGE_LOOP('',(#380));
#650=EDGE_LOOP('',(#381));
#651=EDGE_LOOP('',(#382));
#652=EDGE_LOOP('',(#383));
#653=EDGE_LOOP('',(#384,#385,#386,#387));
#654=EDGE_LOOP('',(#388));
#655=EDGE_LOOP('',(#389));
#656=EDGE_LOOP('',(#390,#391,#392,#393,#394,#395,#396,#397));
#657=EDGE_LOOP('',(#398,#399,#400,#401,#402,#403));
#658=EDGE_LOOP('',(#404,#405,#406,#407,#408,#409));
#659=EDGE_LOOP('',(#410));
#660=EDGE_LOOP('',(#411));
#661=EDGE_LOOP('',(#412,#413,#414,#415,#416,#417,#418,#419));
#662=EDGE_LOOP('',(#420));
#663=EDGE_LOOP('',(#421));
#664=EDGE_LOOP('',(#422));
#665=EDGE_LOOP('',(#423));
#666=FACE_BOUND('',#608,.T.);
#667=FACE_BOUND('',#609,.T.);
#668=FACE_BOUND('',#610,.T.);
#669=FACE_BOUND('',#611,.T.);
#670=FACE_BOUND('',#612,.T.);
#671=FACE_BOUND('',#613,.T.);
#672=FACE_BOUND('',#614,.T.);
#673=FACE_BOUND('',#615,.T.);
#674=FACE_BOUND('',#616,.T.);
#675=FACE_BOUND('',#617,.T.);
#676=FACE_BOUND('',#618,.T.);
#677=FACE_BOUND('',#619,.T.);
#678=FACE_BOUND('',#620,.T.);
#679=FACE_BOUND('',#621,.T.);
#680=FACE_BOUND('',#622,.T.);
#681=FACE_BOUND('',#623,.T.);
#682=FACE_BOUND('',#624,.T.);
#683=FACE_BOUND('',#625,.T.);
#684=FACE_BOUND('',#626,.T.);
#685=FACE_BOUND('',#627,.T.);
#686=FACE_BOUND('',#628,.T.);
#687=FACE_BOUND('',#629,.T.);
#688=FACE_BOUND('',#630,.T.);
#689=FACE_BOUND('',#631,.T.);
#690=FACE_BOUND('',#632,.T.);
#691=FACE_BOUND('',#633,.T.);
#692=FACE_BOUND('',#634,.T.);
#693=FACE_BOUND('',#635,.T.);
#694=FACE_BOUND('',#636,.T.);
#695=FACE_BOUND('',#637,.T.);
#696=FACE_BOUND('',#638,.T.);
#697=FACE_BOUND('',#639,.T.);
#698=FACE_BOUND('',#640,.T.);
#699=FACE_BOUND('',#641,.T.);
#700=FACE_BOUND('',#642,.T.);
#701=FACE_BOUND('',#643,.T.);
#702=FACE_BOUND('',#644,.T.);
#703=FACE_BOUND('',#645,.T.);
#704=FACE_BOUND('',#646,.T.);
#705=FACE_BOUND('',#647,.T.);
#706=FACE_BOUND('',#648,.T.);
#707=FACE_BOUND('',#649,.T.);
#708=FACE_BOUND('',#650,.T.);
#709=FACE_BOUND('',#651,.T.);
#710=FACE_BOUND('',#652,.T.);
#711=FACE_BOUND('',#653,.T.);
#712=FACE_BOUND('',#654,.T.);
#713=FACE_BOUND('',#655,.T.);
#714=FACE_BOUND('',#656,.T.);
#715=FACE_BOUND('',#657,.T.);
#716=FACE_BOUND('',#658,.T.);
#717=FACE_BOUND('',#659,.T.);
#718=FACE_BOUND('',#660,.T.);
#719=FACE_BOUND('',#661,.T.);
#720=FACE_BOUND('',#662,.T.);
#721=FACE_BOUND('',#663,.T.);
#722=FACE_BOUND('',#664,.T.);
#723=FACE_BOUND('',#665,.T.);
#724=PLANE('',#817);
#725=PLANE('',#819);
#726=PLANE('',#821);
#727=PLANE('',#822);
#728=PLANE('',#823);
#729=PLANE('',#824);
#730=PLANE('',#825);
#731=PLANE('',#826);
#732=PLANE('',#827);
#733=PLANE('',#828);
#734=PLANE('',#829);
#735=PLANE('',#830);
#736=PLANE('',#831);
#737=PLANE('',#832);
#738=PLANE('',#833);
#739=PLANE('',#834);
#740=PLANE('',#835);
#741=PLANE('',#836);
#742=PLANE('',#837);
#743=PLANE('',#838);
#744=PLANE('',#839);
#745=PLANE('',#840);
#746=PLANE('',#841);
#747=PLANE('',#842);
#748=PLANE('',#843);
#749=PLANE('',#844);
#750=PLANE('',#845);
#751=PLANE('',#846);
#752=PLANE('',#847);
#753=PLANE('',#848);
#754=PLANE('',#849);
#755=PLANE('',#850);
#756=PLANE('',#851);
#757=PLANE('',#852);
#758=PLANE('',#853);
#759=PLANE('',#861);
#760=PLANE('',#865);
#761=PLANE('',#866);
#762=ADVANCED_FACE('',(#666,#667),#724,.T.);
#763=ADVANCED_FACE('',(#668,#669),#725,.T.);
#764=ADVANCED_FACE('',(#670),#726,.F.);
#765=ADVANCED_FACE('',(#671),#727,.F.);
#766=ADVANCED_FACE('',(#672),#728,.F.);
#767=ADVANCED_FACE('',(#673),#729,.F.);
#768=ADVANCED_FACE('',(#674),#730,.F.);
#769=ADVANCED_FACE('',(#675),#731,.F.);
#770=ADVANCED_FACE('',(#676),#732,.T.);
#771=ADVANCED_FACE('',(#677),#733,.T.);
#772=ADVANCED_FACE('',(#678),#734,.T.);
#773=ADVANCED_FACE('',(#679),#735,.T.);
#774=ADVANCED_FACE('',(#680),#736,.T.);
#775=ADVANCED_FACE('',(#681,#682),#737,.T.);
#776=ADVANCED_FACE('',(#683),#738,.T.);
#777=ADVANCED_FACE('',(#684),#739,.F.);
#778=ADVANCED_FACE('',(#685),#740,.F.);
#779=ADVANCED_FACE('',(#686),#741,.F.);
#780=ADVANCED_FACE('',(#687),#742,.F.);
#781=ADVANCED_FACE('',(#688),#743,.F.);
#782=ADVANCED_FACE('',(#689),#744,.F.);
#783=ADVANCED_FACE('',(#690),#745,.T.);
#784=ADVANCED_FACE('',(#691),#746,.T.);
#785=ADVANCED_FACE('',(#692),#747,.T.);
#786=ADVANCED_FACE('',(#693),#748,.T.);
#787=ADVANCED_FACE('',(#694),#749,.T.);
#788=ADVANCED_FACE('',(#695,#696),#750,.T.);
#789=ADVANCED_FACE('',(#697),#751,.T.);
#790=ADVANCED_FACE('',(#698),#752,.F.);
#791=ADVANCED_FACE('',(#699),#753,.T.);
#792=ADVANCED_FACE('',(#700),#754,.T.);
#793=ADVANCED_FACE('',(#701),#755,.T.);
#794=ADVANCED_FACE('',(#702),#756,.T.);
#795=ADVANCED_FACE('',(#703),#757,.F.);
#796=ADVANCED_FACE('',(#704),#758,.F.);
#797=ADVANCED_FACE('',(#705,#706),#20,.F.);
#798=ADVANCED_FACE('',(#707,#708),#21,.F.);
#799=ADVANCED_FACE('',(#709,#710),#22,.F.);
#800=ADVANCED_FACE('',(#711),#759,.F.);
#801=ADVANCED_FACE('',(#712,#713),#23,.F.);
#802=ADVANCED_FACE('',(#714,#715,#716,#717,#718),#760,.T.);
#803=ADVANCED_FACE('',(#719,#720,#721,#722,#723),#761,.F.);
#804=CLOSED_SHELL('',(#762,#763,#764,#765,#766,#767,#768,#769,#770,#771,
#772,#773,#774,#775,#776,#777,#778,#779,#780,#781,#782,#783,#784,#785,#786,
#787,#788,#789,#790,#791,#792,#793,#794,#795,#796,#797,#798,#799,#800,#801,
#802,#803));
#805=STYLED_ITEM('',(#806),#813);
#806=PRESENTATION_STYLE_ASSIGNMENT((#807));
#807=SURFACE_STYLE_USAGE(.BOTH.,#808);
#808=SURFACE_SIDE_STYLE('',(#809));
#809=SURFACE_STYLE_FILL_AREA(#810);
#810=FILL_AREA_STYLE('',(#811));
#811=FILL_AREA_STYLE_COLOUR('',#812);
#812=COLOUR_RGB('',0.615686274509804,0.811764705882353,0.929411764705882);
#813=MANIFOLD_SOLID_BREP('Toolhead Cart Back',#804);
#814=SHAPE_DEFINITION_REPRESENTATION(#1290,#815);
#815=SHAPE_REPRESENTATION('Toolhead Cart Back',(#816),#1285);
#816=AXIS2_PLACEMENT_3D('',#1065,#867,#868);
#817=AXIS2_PLACEMENT_3D('',#1066,#869,#870);
#818=AXIS2_PLACEMENT_3D('',#1067,#871,#872);
#819=AXIS2_PLACEMENT_3D('',#1081,#879,#880);
#820=AXIS2_PLACEMENT_3D('',#1082,#881,#882);
#821=AXIS2_PLACEMENT_3D('',#1096,#889,#890);
#822=AXIS2_PLACEMENT_3D('',#1105,#895,#896);
#823=AXIS2_PLACEMENT_3D('',#1111,#900,#901);
#824=AXIS2_PLACEMENT_3D('',#1117,#905,#906);
#825=AXIS2_PLACEMENT_3D('',#1123,#910,#911);
#826=AXIS2_PLACEMENT_3D('',#1129,#915,#916);
#827=AXIS2_PLACEMENT_3D('',#1132,#919,#920);
#828=AXIS2_PLACEMENT_3D('',#1138,#924,#925);
#829=AXIS2_PLACEMENT_3D('',#1142,#928,#929);
#830=AXIS2_PLACEMENT_3D('',#1146,#932,#933);
#831=AXIS2_PLACEMENT_3D('',#1150,#936,#937);
#832=AXIS2_PLACEMENT_3D('',#1154,#940,#941);
#833=AXIS2_PLACEMENT_3D('',#1156,#943,#944);
#834=AXIS2_PLACEMENT_3D('',#1157,#945,#946);
#835=AXIS2_PLACEMENT_3D('',#1166,#951,#952);
#836=AXIS2_PLACEMENT_3D('',#1172,#956,#957);
#837=AXIS2_PLACEMENT_3D('',#1178,#961,#962);
#838=AXIS2_PLACEMENT_3D('',#1184,#966,#967);
#839=AXIS2_PLACEMENT_3D('',#1190,#971,#972);
#840=AXIS2_PLACEMENT_3D('',#1193,#975,#976);
#841=AXIS2_PLACEMENT_3D('',#1199,#980,#981);
#842=AXIS2_PLACEMENT_3D('',#1203,#984,#985);
#843=AXIS2_PLACEMENT_3D('',#1207,#988,#989);
#844=AXIS2_PLACEMENT_3D('',#1211,#992,#993);
#845=AXIS2_PLACEMENT_3D('',#1215,#996,#997);
#846=AXIS2_PLACEMENT_3D('',#1217,#999,#1000);
#847=AXIS2_PLACEMENT_3D('',#1218,#1001,#1002);
#848=AXIS2_PLACEMENT_3D('',#1227,#1007,#1008);
#849=AXIS2_PLACEMENT_3D('',#1233,#1012,#1013);
#850=AXIS2_PLACEMENT_3D('',#1239,#1017,#1018);
#851=AXIS2_PLACEMENT_3D('',#1245,#1022,#1023);
#852=AXIS2_PLACEMENT_3D('',#1251,#1027,#1028);
#853=AXIS2_PLACEMENT_3D('',#1257,#1032,#1033);
#854=AXIS2_PLACEMENT_3D('',#1263,#1037,#1038);
#855=AXIS2_PLACEMENT_3D('',#1264,#1039,#1040);
#856=AXIS2_PLACEMENT_3D('',#1266,#1041,#1042);
#857=AXIS2_PLACEMENT_3D('',#1267,#1043,#1044);
#858=AXIS2_PLACEMENT_3D('',#1269,#1045,#1046);
#859=AXIS2_PLACEMENT_3D('',#1270,#1047,#1048);
#860=AXIS2_PLACEMENT_3D('',#1272,#1049,#1050);
#861=AXIS2_PLACEMENT_3D('',#1274,#1051,#1052);
#862=AXIS2_PLACEMENT_3D('',#1277,#1055,#1056);
#863=AXIS2_PLACEMENT_3D('',#1278,#1057,#1058);
#864=AXIS2_PLACEMENT_3D('',#1280,#1059,#1060);
#865=AXIS2_PLACEMENT_3D('',#1282,#1061,#1062);
#866=AXIS2_PLACEMENT_3D('',#1283,#1063,#1064);
#867=DIRECTION('',(0.,0.,1.));
#868=DIRECTION('',(1.,0.,0.));
#869=DIRECTION('',(0.,-1.,0.));
#870=DIRECTION('',(1.,0.,0.));
#871=DIRECTION('',(0.,-1.,0.));
#872=DIRECTION('',(0.,0.,-1.));
#873=DIRECTION('',(0.5,0.,-0.866025403784439));
#874=DIRECTION('',(1.,0.,0.));
#875=DIRECTION('',(0.5,0.,0.866025403784439));
#876=DIRECTION('',(-0.5,0.,0.866025403784438));
#877=DIRECTION('',(-1.,0.,0.));
#878=DIRECTION('',(-0.5,0.,-0.866025403784439));
#879=DIRECTION('',(0.,-1.,0.));
#880=DIRECTION('',(1.,0.,0.));
#881=DIRECTION('',(0.,1.,0.));
#882=DIRECTION('',(0.,0.,-1.));
#883=DIRECTION('',(-0.5,0.,-0.866025403784439));
#884=DIRECTION('',(0.5,0.,-0.866025403784439));
#885=DIRECTION('',(1.,0.,0.));
#886=DIRECTION('',(0.5,0.,0.866025403784438));
#887=DIRECTION('',(-0.5,0.,0.866025403784439));
#888=DIRECTION('',(-1.,0.,0.));
#889=DIRECTION('',(0.866025403784438,0.,0.5));
#890=DIRECTION('',(0.5,0.,-0.866025403784439));
#891=DIRECTION('',(0.5,0.,-0.866025403784439));
#892=DIRECTION('',(0.,1.,0.));
#893=DIRECTION('',(0.5,0.,-0.866025403784439));
#894=DIRECTION('',(0.,1.,0.));
#895=DIRECTION('',(0.866025403784439,0.,-0.5));
#896=DIRECTION('',(-0.5,0.,-0.866025403784439));
#897=DIRECTION('',(-0.5,0.,-0.866025403784439));
#898=DIRECTION('',(-0.5,0.,-0.866025403784439));
#899=DIRECTION('',(0.,1.,0.));
#900=DIRECTION('',(4.5524684810217E-16,0.,-1.));
#901=DIRECTION('',(-1.,0.,-4.5524684810217E-16));
#902=DIRECTION('',(-1.,0.,-4.5524684810217E-16));
#903=DIRECTION('',(-1.,0.,-4.5524684810217E-16));
#904=DIRECTION('',(0.,1.,0.));
#905=DIRECTION('',(-0.866025403784438,0.,-0.5));
#906=DIRECTION('',(-0.5,0.,0.866025403784438));
#907=DIRECTION('',(-0.5,0.,0.866025403784438));
#908=DIRECTION('',(-0.5,0.,0.866025403784438));
#909=DIRECTION('',(0.,1.,0.));
#910=DIRECTION('',(-0.866025403784439,0.,0.5));
#911=DIRECTION('',(0.5,0.,0.866025403784439));
#912=DIRECTION('',(0.5,0.,0.866025403784439));
#913=DIRECTION('',(0.5,0.,0.866025403784439));
#914=DIRECTION('',(0.,1.,0.));
#915=DIRECTION('',(0.,0.,1.));
#916=DIRECTION('',(1.,0.,0.));
#917=DIRECTION('',(1.,0.,0.));
#918=DIRECTION('',(1.,0.,0.));
#919=DIRECTION('',(0.866025403784438,0.,0.5));
#920=DIRECTION('',(0.5,0.,-0.866025403784439));
#921=DIRECTION('',(0.,1.,0.));
#922=DIRECTION('',(0.5,0.,-0.866025403784439));
#923=DIRECTION('',(0.,1.,0.));
#924=DIRECTION('',(0.866025403784439,0.,-0.5));
#925=DIRECTION('',(-0.5,0.,-0.866025403784439));
#926=DIRECTION('',(0.,1.,0.));
#927=DIRECTION('',(-0.5,0.,-0.866025403784439));
#928=DIRECTION('',(0.,0.,-1.));
#929=DIRECTION('',(-1.,0.,0.));
#930=DIRECTION('',(0.,1.,0.));
#931=DIRECTION('',(-1.,0.,0.));
#932=DIRECTION('',(-0.866025403784439,0.,-0.5));
#933=DIRECTION('',(-0.5,0.,0.866025403784439));
#934=DIRECTION('',(0.,1.,0.));
#935=DIRECTION('',(-0.5,0.,0.866025403784438));
#936=DIRECTION('',(-0.86602540378444,0.,0.5));
#937=DIRECTION('',(0.5,0.,0.86602540378444));
#938=DIRECTION('',(0.,1.,0.));
#939=DIRECTION('',(0.5,0.,0.866025403784439));
#940=DIRECTION('',(0.,-1.,0.));
#941=DIRECTION('',(-1.,0.,0.));
#942=DIRECTION('',(1.,0.,0.));
#943=DIRECTION('',(0.,0.,1.));
#944=DIRECTION('',(1.,0.,0.));
#945=DIRECTION('',(-0.866025403784438,0.,0.5));
#946=DIRECTION('',(-0.5,0.,-0.866025403784439));
#947=DIRECTION('',(-0.5,0.,-0.866025403784439));
#948=DIRECTION('',(0.,1.,0.));
#949=DIRECTION('',(-0.5,0.,-0.866025403784439));
#950=DIRECTION('',(0.,1.,0.));
#951=DIRECTION('',(-0.866025403784439,0.,-0.5));
#952=DIRECTION('',(0.5,0.,-0.866025403784439));
#953=DIRECTION('',(0.5,0.,-0.866025403784439));
#954=DIRECTION('',(0.,1.,0.));
#955=DIRECTION('',(0.5,0.,-0.866025403784439));
#956=DIRECTION('',(-4.5524684810217E-16,0.,-1.));
#957=DIRECTION('',(1.,0.,-4.5524684810217E-16));
#958=DIRECTION('',(1.,0.,-4.5524684810217E-16));
#959=DIRECTION('',(0.,1.,0.));
#960=DIRECTION('',(1.,0.,-4.5524684810217E-16));
#961=DIRECTION('',(0.866025403784438,0.,-0.5));
#962=DIRECTION('',(0.5,0.,0.866025403784438));
#963=DIRECTION('',(0.5,0.,0.866025403784438));
#964=DIRECTION('',(0.,1.,0.));
#965=DIRECTION('',(0.5,0.,0.866025403784438));
#966=DIRECTION('',(0.866025403784439,0.,0.5));
#967=DIRECTION('',(-0.5,0.,0.866025403784439));
#968=DIRECTION('',(-0.5,0.,0.866025403784439));
#969=DIRECTION('',(0.,1.,0.));
#970=DIRECTION('',(-0.5,0.,0.866025403784439));
#971=DIRECTION('',(0.,0.,1.));
#972=DIRECTION('',(-1.,0.,0.));
#973=DIRECTION('',(-1.,0.,0.));
#974=DIRECTION('',(-1.,0.,0.));
#975=DIRECTION('',(-0.866025403784438,0.,0.5));
#976=DIRECTION('',(-0.5,0.,-0.866025403784439));
#977=DIRECTION('',(0.,1.,0.));
#978=DIRECTION('',(-0.5,0.,-0.866025403784439));
#979=DIRECTION('',(0.,1.,0.));
#980=DIRECTION('',(-0.866025403784439,0.,-0.5));
#981=DIRECTION('',(0.5,0.,-0.866025403784439));
#982=DIRECTION('',(0.5,0.,-0.866025403784439));
#983=DIRECTION('',(0.,1.,0.));
#984=DIRECTION('',(0.,0.,-1.));
#985=DIRECTION('',(1.,0.,0.));
#986=DIRECTION('',(1.,0.,0.));
#987=DIRECTION('',(0.,1.,0.));
#988=DIRECTION('',(0.866025403784439,0.,-0.5));
#989=DIRECTION('',(0.5,0.,0.866025403784439));
#990=DIRECTION('',(0.5,0.,0.866025403784438));
#991=DIRECTION('',(0.,1.,0.));
#992=DIRECTION('',(0.86602540378444,0.,0.5));
#993=DIRECTION('',(-0.5,0.,0.86602540378444));
#994=DIRECTION('',(-0.5,0.,0.866025403784439));
#995=DIRECTION('',(0.,1.,0.));
#996=DIRECTION('',(0.,-1.,0.));
#997=DIRECTION('',(1.,0.,0.));
#998=DIRECTION('',(-1.,0.,0.));
#999=DIRECTION('',(0.,0.,1.));
#1000=DIRECTION('',(-1.,0.,0.));
#1001=DIRECTION('',(0.,0.,1.));
#1002=DIRECTION('',(1.,0.,0.));
#1003=DIRECTION('',(1.,0.,0.));
#1004=DIRECTION('',(0.,1.,0.));
#1005=DIRECTION('',(1.,0.,0.));
#1006=DIRECTION('',(0.,1.,0.));
#1007=DIRECTION('',(0.882352941176471,0.,-0.470588235294118));
#1008=DIRECTION('',(-0.470588235294118,0.,-0.882352941176471));
#1009=DIRECTION('',(-0.470588235294118,0.,-0.882352941176471));
#1010=DIRECTION('',(0.,1.,0.));
#1011=DIRECTION('',(-0.470588235294118,0.,-0.882352941176471));
#1012=DIRECTION('',(1.,0.,0.));
#1013=DIRECTION('',(0.,0.,-1.));
#1014=DIRECTION('',(0.,0.,-1.));
#1015=DIRECTION('',(0.,1.,0.));
#1016=DIRECTION('',(0.,0.,-1.));
#1017=DIRECTION('',(0.882352941176471,0.,0.470588235294118));
#1018=DIRECTION('',(0.470588235294118,0.,-0.882352941176471));
#1019=DIRECTION('',(0.470588235294118,0.,-0.882352941176471));
#1020=DIRECTION('',(0.,1.,0.));
#1021=DIRECTION('',(0.470588235294118,0.,-0.882352941176471));
#1022=DIRECTION('',(0.,0.,1.));
#1023=DIRECTION('',(1.,0.,0.));
#1024=DIRECTION('',(1.,0.,0.));
#1025=DIRECTION('',(0.,1.,0.));
#1026=DIRECTION('',(1.,0.,0.));
#1027=DIRECTION('',(0.882352941176471,0.,-0.470588235294118));
#1028=DIRECTION('',(-0.470588235294118,0.,-0.882352941176471));
#1029=DIRECTION('',(-0.470588235294118,0.,-0.882352941176471));
#1030=DIRECTION('',(0.,1.,0.));
#1031=DIRECTION('',(-0.470588235294118,0.,-0.882352941176471));
#1032=DIRECTION('',(1.,0.,0.));
#1033=DIRECTION('',(0.,0.,-1.));
#1034=DIRECTION('',(0.,0.,-1.));
#1035=DIRECTION('',(0.,1.,0.));
#1036=DIRECTION('',(0.,0.,-1.));
#1037=DIRECTION('',(0.,1.,0.));
#1038=DIRECTION('',(0.,0.,1.));
#1039=DIRECTION('',(0.,-1.,0.));
#1040=DIRECTION('',(0.,0.,-1.));
#1041=DIRECTION('',(0.,1.,0.));
#1042=DIRECTION('',(0.,0.,1.));
#1043=DIRECTION('',(0.,1.,0.));
#1044=DIRECTION('',(0.,0.,-1.));
#1045=DIRECTION('',(0.,1.,0.));
#1046=DIRECTION('',(0.,0.,1.));
#1047=DIRECTION('',(0.,-1.,0.));
#1048=DIRECTION('',(0.,0.,-1.));
#1049=DIRECTION('',(0.,-1.,0.));
#1050=DIRECTION('',(0.,0.,-1.));
#1051=DIRECTION('',(0.882352941176471,0.,0.470588235294118));
#1052=DIRECTION('',(0.470588235294118,0.,-0.882352941176471));
#1053=DIRECTION('',(0.470588235294118,0.,-0.882352941176471));
#1054=DIRECTION('',(0.470588235294118,0.,-0.882352941176471));
#1055=DIRECTION('',(0.,1.,0.));
#1056=DIRECTION('',(0.,0.,1.));
#1057=DIRECTION('',(0.,1.,0.));
#1058=DIRECTION('',(0.,0.,-1.));
#1059=DIRECTION('',(0.,1.,0.));
#1060=DIRECTION('',(0.,0.,-1.));
#1061=DIRECTION('',(0.,-1.,0.));
#1062=DIRECTION('',(1.,0.,0.));
#1063=DIRECTION('',(0.,-1.,0.));
#1064=DIRECTION('',(1.,0.,0.));
#1065=CARTESIAN_POINT('',(0.,0.,0.));
#1066=CARTESIAN_POINT('',(0.,-0.005,0.));
#1067=CARTESIAN_POINT('',(0.038,-0.005,-0.027));
#1068=CARTESIAN_POINT('',(0.038,-0.005,-0.0298));
#1069=CARTESIAN_POINT('',(0.0344492958444838,-0.005,-0.02905));
#1070=CARTESIAN_POINT('',(0.033265727792645,-0.005,-0.027));
#1071=CARTESIAN_POINT('',(0.0356328638963225,-0.005,-0.0311));
#1072=CARTESIAN_POINT('',(0.038,-0.005,-0.0311));
#1073=CARTESIAN_POINT('',(0.0403671361036775,-0.005,-0.0311));
#1074=CARTESIAN_POINT('',(0.0415507041555162,-0.005,-0.02905));
#1075=CARTESIAN_POINT('',(0.0427342722073549,-0.005,-0.027));
#1076=CARTESIAN_POINT('',(0.0415507041555162,-0.005,-0.02495));
#1077=CARTESIAN_POINT('',(0.0403671361036774,-0.005,-0.0229));
#1078=CARTESIAN_POINT('',(0.038,-0.005,-0.0229));
#1079=CARTESIAN_POINT('',(0.0356328638963225,-0.005,-0.0229));
#1080=CARTESIAN_POINT('',(0.0344492958444838,-0.005,-0.02495));
#1081=CARTESIAN_POINT('',(0.,-0.005,0.));
#1082=CARTESIAN_POINT('',(-0.038,-0.005,-0.027));
#1083=CARTESIAN_POINT('',(-0.038,-0.005,-0.0298));
#1084=CARTESIAN_POINT('',(-0.0344492958444838,-0.005,-0.02905));
#1085=CARTESIAN_POINT('',(-0.033265727792645,-0.005,-0.027));
#1086=CARTESIAN_POINT('',(-0.0356328638963225,-0.005,-0.0311));
#1087=CARTESIAN_POINT('',(-0.0344492958444838,-0.005,-0.02495));
#1088=CARTESIAN_POINT('',(-0.0356328638963225,-0.005,-0.0229));
#1089=CARTESIAN_POINT('',(-0.038,-0.005,-0.0229));
#1090=CARTESIAN_POINT('',(-0.0403671361036774,-0.005,-0.0229));
#1091=CARTESIAN_POINT('',(-0.0415507041555162,-0.005,-0.02495));
#1092=CARTESIAN_POINT('',(-0.0427342722073549,-0.005,-0.027));
#1093=CARTESIAN_POINT('',(-0.0415507041555162,-0.005,-0.02905));
#1094=CARTESIAN_POINT('',(-0.0403671361036775,-0.005,-0.0311));
#1095=CARTESIAN_POINT('',(-0.038,-0.005,-0.0311));
#1096=CARTESIAN_POINT('',(0.0322842323350227,-0.008,-0.0303));
#1097=CARTESIAN_POINT('',(0.0322842323350227,-0.005,-0.0303));
#1098=CARTESIAN_POINT('',(0.0303789764466969,-0.005,-0.027));
#1099=CARTESIAN_POINT('',(0.0341894882233484,-0.005,-0.0336));
#1100=CARTESIAN_POINT('',(0.0341894882233484,-0.008,-0.0336));
#1101=CARTESIAN_POINT('',(0.0341894882233484,-0.008,-0.0336));
#1102=CARTESIAN_POINT('',(0.0322842323350227,-0.008,-0.0303));
#1103=CARTESIAN_POINT('',(0.0303789764466969,-0.008,-0.027));
#1104=CARTESIAN_POINT('',(0.0303789764466969,-0.008,-0.027));
#1105=CARTESIAN_POINT('',(0.0322842323350227,-0.008,-0.0237));
#1106=CARTESIAN_POINT('',(0.0322842323350227,-0.005,-0.0237));
#1107=CARTESIAN_POINT('',(0.0341894882233485,-0.005,-0.0204));
#1108=CARTESIAN_POINT('',(0.0322842323350227,-0.008,-0.0237));
#1109=CARTESIAN_POINT('',(0.0341894882233485,-0.008,-0.0204));
#1110=CARTESIAN_POINT('',(0.0341894882233485,-0.008,-0.0204));
#1111=CARTESIAN_POINT('',(0.038,-0.008,-0.0204));
#1112=CARTESIAN_POINT('',(0.038,-0.005,-0.0204));
#1113=CARTESIAN_POINT('',(0.0418105117766516,-0.005,-0.0204));
#1114=CARTESIAN_POINT('',(0.038,-0.008,-0.0204));
#1115=CARTESIAN_POINT('',(0.0418105117766516,-0.008,-0.0204));
#1116=CARTESIAN_POINT('',(0.0418105117766516,-0.008,-0.0204));
#1117=CARTESIAN_POINT('',(0.0437157676649773,-0.008,-0.0237));
#1118=CARTESIAN_POINT('',(0.0437157676649773,-0.005,-0.0237));
#1119=CARTESIAN_POINT('',(0.0456210235533031,-0.005,-0.027));
#1120=CARTESIAN_POINT('',(0.0437157676649773,-0.008,-0.0237));
#1121=CARTESIAN_POINT('',(0.0456210235533031,-0.008,-0.027));
#1122=CARTESIAN_POINT('',(0.0456210235533031,-0.008,-0.027));
#1123=CARTESIAN_POINT('',(0.0437157676649773,-0.008,-0.0303));
#1124=CARTESIAN_POINT('',(0.0437157676649773,-0.005,-0.0303));
#1125=CARTESIAN_POINT('',(0.0418105117766516,-0.005,-0.0336));
#1126=CARTESIAN_POINT('',(0.0437157676649773,-0.008,-0.0303));
#1127=CARTESIAN_POINT('',(0.0418105117766516,-0.008,-0.0336));
#1128=CARTESIAN_POINT('',(0.0418105117766516,-0.008,-0.0336));
#1129=CARTESIAN_POINT('',(0.038,-0.008,-0.0336));
#1130=CARTESIAN_POINT('',(0.038,-0.005,-0.0336));
#1131=CARTESIAN_POINT('',(0.038,-0.008,-0.0336));
#1132=CARTESIAN_POINT('',(0.0344492958444838,-0.008,-0.02905));
#1133=CARTESIAN_POINT('',(0.033265727792645,-0.008,-0.027));
#1134=CARTESIAN_POINT('',(0.033265727792645,-0.008,-0.027));
#1135=CARTESIAN_POINT('',(0.0344492958444838,-0.008,-0.02905));
#1136=CARTESIAN_POINT('',(0.0356328638963225,-0.008,-0.0311));
#1137=CARTESIAN_POINT('',(0.0356328638963225,-0.008,-0.0311));
#1138=CARTESIAN_POINT('',(0.0344492958444838,-0.008,-0.02495));
#1139=CARTESIAN_POINT('',(0.0356328638963225,-0.008,-0.0229));
#1140=CARTESIAN_POINT('',(0.0356328638963225,-0.008,-0.0229));
#1141=CARTESIAN_POINT('',(0.0344492958444838,-0.008,-0.02495));
#1142=CARTESIAN_POINT('',(0.038,-0.008,-0.0229));
#1143=CARTESIAN_POINT('',(0.0403671361036774,-0.008,-0.0229));
#1144=CARTESIAN_POINT('',(0.0403671361036774,-0.008,-0.0229));
#1145=CARTESIAN_POINT('',(0.038,-0.008,-0.0229));
#1146=CARTESIAN_POINT('',(0.0415507041555162,-0.008,-0.02495));
#1147=CARTESIAN_POINT('',(0.0427342722073549,-0.008,-0.027));
#1148=CARTESIAN_POINT('',(0.0427342722073549,-0.008,-0.027));
#1149=CARTESIAN_POINT('',(0.0415507041555162,-0.008,-0.02495));
#1150=CARTESIAN_POINT('',(0.0415507041555162,-0.008,-0.02905));
#1151=CARTESIAN_POINT('',(0.0403671361036775,-0.008,-0.0311));
#1152=CARTESIAN_POINT('',(0.0403671361036775,-0.008,-0.0311));
#1153=CARTESIAN_POINT('',(0.0415507041555162,-0.008,-0.02905));
#1154=CARTESIAN_POINT('',(0.,-0.008,0.));
#1155=CARTESIAN_POINT('',(0.038,-0.008,-0.0311));
#1156=CARTESIAN_POINT('',(0.038,-0.008,-0.0311));
#1157=CARTESIAN_POINT('',(-0.0322842323350227,-0.008,-0.0303));
#1158=CARTESIAN_POINT('',(-0.0322842323350227,-0.005,-0.0303));
#1159=CARTESIAN_POINT('',(-0.0303789764466969,-0.005,-0.027));
#1160=CARTESIAN_POINT('',(-0.0341894882233484,-0.005,-0.0336));
#1161=CARTESIAN_POINT('',(-0.0303789764466969,-0.008,-0.027));
#1162=CARTESIAN_POINT('',(-0.0303789764466969,-0.008,-0.027));
#1163=CARTESIAN_POINT('',(-0.0322842323350227,-0.008,-0.0303));
#1164=CARTESIAN_POINT('',(-0.0341894882233484,-0.008,-0.0336));
#1165=CARTESIAN_POINT('',(-0.0341894882233484,-0.008,-0.0336));
#1166=CARTESIAN_POINT('',(-0.0322842323350227,-0.008,-0.0237));
#1167=CARTESIAN_POINT('',(-0.0322842323350227,-0.005,-0.0237));
#1168=CARTESIAN_POINT('',(-0.0341894882233485,-0.005,-0.0204));
#1169=CARTESIAN_POINT('',(-0.0341894882233485,-0.008,-0.0204));
#1170=CARTESIAN_POINT('',(-0.0341894882233485,-0.008,-0.0204));
#1171=CARTESIAN_POINT('',(-0.0322842323350227,-0.008,-0.0237));
#1172=CARTESIAN_POINT('',(-0.038,-0.008,-0.0204));
#1173=CARTESIAN_POINT('',(-0.038,-0.005,-0.0204));
#1174=CARTESIAN_POINT('',(-0.0418105117766516,-0.005,-0.0204));
#1175=CARTESIAN_POINT('',(-0.0418105117766516,-0.008,-0.0204));
#1176=CARTESIAN_POINT('',(-0.0418105117766516,-0.008,-0.0204));
#1177=CARTESIAN_POINT('',(-0.038,-0.008,-0.0204));
#1178=CARTESIAN_POINT('',(-0.0437157676649773,-0.008,-0.0237));
#1179=CARTESIAN_POINT('',(-0.0437157676649773,-0.005,-0.0237));
#1180=CARTESIAN_POINT('',(-0.0456210235533031,-0.005,-0.027));
#1181=CARTESIAN_POINT('',(-0.0456210235533031,-0.008,-0.027));
#1182=CARTESIAN_POINT('',(-0.0456210235533031,-0.008,-0.027));
#1183=CARTESIAN_POINT('',(-0.0437157676649773,-0.008,-0.0237));
#1184=CARTESIAN_POINT('',(-0.0437157676649773,-0.008,-0.0303));
#1185=CARTESIAN_POINT('',(-0.0437157676649773,-0.005,-0.0303));
#1186=CARTESIAN_POINT('',(-0.0418105117766516,-0.005,-0.0336));
#1187=CARTESIAN_POINT('',(-0.0418105117766516,-0.008,-0.0336));
#1188=CARTESIAN_POINT('',(-0.0418105117766516,-0.008,-0.0336));
#1189=CARTESIAN_POINT('',(-0.0437157676649773,-0.008,-0.0303));
#1190=CARTESIAN_POINT('',(-0.038,-0.008,-0.0336));
#1191=CARTESIAN_POINT('',(-0.038,-0.005,-0.0336));
#1192=CARTESIAN_POINT('',(-0.038,-0.008,-0.0336));
#1193=CARTESIAN_POINT('',(-0.0344492958444838,-0.008,-0.02905));
#1194=CARTESIAN_POINT('',(-0.0356328638963225,-0.008,-0.0311));
#1195=CARTESIAN_POINT('',(-0.0356328638963225,-0.008,-0.0311));
#1196=CARTESIAN_POINT('',(-0.0344492958444838,-0.008,-0.02905));
#1197=CARTESIAN_POINT('',(-0.033265727792645,-0.008,-0.027));
#1198=CARTESIAN_POINT('',(-0.033265727792645,-0.008,-0.027));
#1199=CARTESIAN_POINT('',(-0.0344492958444838,-0.008,-0.02495));
#1200=CARTESIAN_POINT('',(-0.0344492958444838,-0.008,-0.02495));
#1201=CARTESIAN_POINT('',(-0.0356328638963225,-0.008,-0.0229));
#1202=CARTESIAN_POINT('',(-0.0356328638963225,-0.008,-0.0229));
#1203=CARTESIAN_POINT('',(-0.038,-0.008,-0.0229));
#1204=CARTESIAN_POINT('',(-0.038,-0.008,-0.0229));
#1205=CARTESIAN_POINT('',(-0.0403671361036774,-0.008,-0.0229));
#1206=CARTESIAN_POINT('',(-0.0403671361036774,-0.008,-0.0229));
#1207=CARTESIAN_POINT('',(-0.0415507041555162,-0.008,-0.02495));
#1208=CARTESIAN_POINT('',(-0.0415507041555162,-0.008,-0.02495));
#1209=CARTESIAN_POINT('',(-0.0427342722073549,-0.008,-0.027));
#1210=CARTESIAN_POINT('',(-0.0427342722073549,-0.008,-0.027));
#1211=CARTESIAN_POINT('',(-0.0415507041555162,-0.008,-0.02905));
#1212=CARTESIAN_POINT('',(-0.0415507041555162,-0.008,-0.02905));
#1213=CARTESIAN_POINT('',(-0.0403671361036775,-0.008,-0.0311));
#1214=CARTESIAN_POINT('',(-0.0403671361036775,-0.008,-0.0311));
#1215=CARTESIAN_POINT('',(0.,-0.008,0.));
#1216=CARTESIAN_POINT('',(-0.038,-0.008,-0.0311));
#1217=CARTESIAN_POINT('',(-0.038,-0.008,-0.0311));
#1218=CARTESIAN_POINT('',(-0.038,-0.005,-0.037));
#1219=CARTESIAN_POINT('',(-0.038,0.,-0.037));
#1220=CARTESIAN_POINT('',(-0.048,0.,-0.037));
#1221=CARTESIAN_POINT('',(0.048,0.,-0.037));
#1222=CARTESIAN_POINT('',(0.048,-0.005,-0.037));
#1223=CARTESIAN_POINT('',(0.048,-0.005,-0.037));
#1224=CARTESIAN_POINT('',(-0.038,-0.005,-0.037));
#1225=CARTESIAN_POINT('',(-0.048,-0.005,-0.037));
#1226=CARTESIAN_POINT('',(-0.048,-0.005,-0.037));
#1227=CARTESIAN_POINT('',(0.052,-0.005,-0.0295));
#1228=CARTESIAN_POINT('',(0.052,0.,-0.0295));
#1229=CARTESIAN_POINT('',(0.056,0.,-0.022));
#1230=CARTESIAN_POINT('',(0.056,-0.005,-0.022));
#1231=CARTESIAN_POINT('',(0.056,-0.005,-0.022));
#1232=CARTESIAN_POINT('',(0.052,-0.005,-0.0295));
#1233=CARTESIAN_POINT('',(0.056,-0.005,0.));
#1234=CARTESIAN_POINT('',(0.056,0.,0.));
#1235=CARTESIAN_POINT('',(0.056,0.,0.022));
#1236=CARTESIAN_POINT('',(0.056,-0.005,0.022));
#1237=CARTESIAN_POINT('',(0.056,-0.005,0.022));
#1238=CARTESIAN_POINT('',(0.056,-0.005,0.));
#1239=CARTESIAN_POINT('',(0.052,-0.005,0.0295));
#1240=CARTESIAN_POINT('',(0.052,0.,0.0295));
#1241=CARTESIAN_POINT('',(0.048,0.,0.037));
#1242=CARTESIAN_POINT('',(0.048,-0.005,0.037));
#1243=CARTESIAN_POINT('',(0.048,-0.005,0.037));
#1244=CARTESIAN_POINT('',(0.052,-0.005,0.0295));
#1245=CARTESIAN_POINT('',(0.038,-0.005,0.037));
#1246=CARTESIAN_POINT('',(0.038,0.,0.037));
#1247=CARTESIAN_POINT('',(-0.048,0.,0.037));
#1248=CARTESIAN_POINT('',(-0.048,-0.005,0.037));
#1249=CARTESIAN_POINT('',(-0.048,-0.005,0.037));
#1250=CARTESIAN_POINT('',(0.038,-0.005,0.037));
#1251=CARTESIAN_POINT('',(-0.052,-0.005,0.0295));
#1252=CARTESIAN_POINT('',(-0.052,0.,0.0295));
#1253=CARTESIAN_POINT('',(-0.056,0.,0.022));
#1254=CARTESIAN_POINT('',(-0.056,-0.005,0.022));
#1255=CARTESIAN_POINT('',(-0.056,-0.005,0.022));
#1256=CARTESIAN_POINT('',(-0.052,-0.005,0.0295));
#1257=CARTESIAN_POINT('',(-0.056,-0.005,0.));
#1258=CARTESIAN_POINT('',(-0.056,0.,0.));
#1259=CARTESIAN_POINT('',(-0.056,0.,-0.022));
#1260=CARTESIAN_POINT('',(-0.056,-0.005,-0.022));
#1261=CARTESIAN_POINT('',(-0.056,-0.005,-0.022));
#1262=CARTESIAN_POINT('',(-0.056,-0.005,0.));
#1263=CARTESIAN_POINT('',(0.038,-0.005,-0.027));
#1264=CARTESIAN_POINT('',(0.038,0.,-0.027));
#1265=CARTESIAN_POINT('',(0.038,0.,-0.0298));
#1266=CARTESIAN_POINT('',(-0.038,-0.005,-0.027));
#1267=CARTESIAN_POINT('',(-0.038,0.,-0.027));
#1268=CARTESIAN_POINT('',(-0.038,0.,-0.0298));
#1269=CARTESIAN_POINT('',(-0.038,-0.005,0.027));
#1270=CARTESIAN_POINT('',(-0.038,-0.005,0.027));
#1271=CARTESIAN_POINT('',(-0.038,-0.005,0.0242));
#1272=CARTESIAN_POINT('',(-0.038,0.,0.027));
#1273=CARTESIAN_POINT('',(-0.038,0.,0.0242));
#1274=CARTESIAN_POINT('',(-0.052,-0.005,-0.0295));
#1275=CARTESIAN_POINT('',(-0.052,0.,-0.0295));
#1276=CARTESIAN_POINT('',(-0.052,-0.005,-0.0295));
#1277=CARTESIAN_POINT('',(0.038,-0.005,0.027));
#1278=CARTESIAN_POINT('',(0.038,-0.005,0.027));
#1279=CARTESIAN_POINT('',(0.038,-0.005,0.0242));
#1280=CARTESIAN_POINT('',(0.038,0.,0.027));
#1281=CARTESIAN_POINT('',(0.038,0.,0.0242));
#1282=CARTESIAN_POINT('',(0.,-0.005,0.));
#1283=CARTESIAN_POINT('',(0.,0.,0.));
#1284=MECHANICAL_DESIGN_GEOMETRIC_PRESENTATION_REPRESENTATION('',(#805),
#1285);
#1285=(
GEOMETRIC_REPRESENTATION_CONTEXT(3)
GLOBAL_UNCERTAINTY_ASSIGNED_CONTEXT((#1286))
GLOBAL_UNIT_ASSIGNED_CONTEXT((#1289,#1288,#1287))
REPRESENTATION_CONTEXT('Toolhead Cart Back','TOP_LEVEL_ASSEMBLY_PART')
);
#1286=UNCERTAINTY_MEASURE_WITH_UNIT(LENGTH_MEASURE(1.E-8),#1289,
'DISTANCE_ACCURACY_VALUE','Maximum Tolerance applied to model');
#1287=(
NAMED_UNIT(*)
SI_UNIT($,.STERADIAN.)
SOLID_ANGLE_UNIT()
);
#1288=(
NAMED_UNIT(*)
PLANE_ANGLE_UNIT()
SI_UNIT($,.RADIAN.)
);
#1289=(
LENGTH_UNIT()
NAMED_UNIT(*)
SI_UNIT($,.METRE.)
);
#1290=PRODUCT_DEFINITION_SHAPE('','',#1291);
#1291=PRODUCT_DEFINITION('','',#1293,#1292);
#1292=PRODUCT_DEFINITION_CONTEXT('',#1299,'design');
#1293=PRODUCT_DEFINITION_FORMATION_WITH_SPECIFIED_SOURCE('','',#1295,
 .NOT_KNOWN.);
#1294=PRODUCT_RELATED_PRODUCT_CATEGORY('','',(#1295));
#1295=PRODUCT('Toolhead Cart Back','Toolhead Cart Back',
'Toolhead Cart Back',(#1297));
#1296=PRODUCT_CATEGORY('','');
#1297=PRODUCT_CONTEXT('',#1299,'mechanical');
#1298=APPLICATION_PROTOCOL_DEFINITION('international standard',
'automotive_design',2010,#1299);
#1299=APPLICATION_CONTEXT(
'core data for automotive mechanical design processes');
ENDSEC;
END-ISO-10303-21;
