ISO-10303-21;
HEADER;
/* Generated by software containing ST-Developer
 * from STEP Tools, Inc. (www.steptools.com) 
 */
/* OPTION: using custom renumber hook */

FILE_DESCRIPTION(
/* description */ ('STEP AP214',
'CAx-IF Rec.Pracs.---User Defined Attributes---1.5---2016-08-15'),
/* implementation_level */ '2;1');

FILE_NAME(
/* name */ '6a95dab1b3b9f08b1d2c5076',
/* time_stamp */ '2026-08-31T19:49:05Z',
/* author */ (''),
/* organization */ (''),
/* preprocessor_version */ 'ST-DEVELOPER v20',
/* originating_system */ 'ONSHAPE BY PTC INC, 1.220',
/* authorisation */ '  ');

FILE_SCHEMA (('AUTOMOTIVE_DESIGN {1 0 10303 214 3 1 1}'));
ENDSEC;

DATA;
#10=PROPERTY_DEFINITION_REPRESENTATION(#14,#12);
#11=PROPERTY_DEFINITION_REPRESENTATION(#15,#13);
#12=REPRESENTATION('',(#16),#1166);
#13=REPRESENTATION('',(#17),#1166);
#14=PROPERTY_DEFINITION('pmi validation property','',#1171);
#15=PROPERTY_DEFINITION('pmi validation property','',#1171);
#16=VALUE_REPRESENTATION_ITEM('number of annotations',COUNT_MEASURE(0.));
#17=VALUE_REPRESENTATION_ITEM('number of views',COUNT_MEASURE(0.));
#18=SHAPE_REPRESENTATION_RELATIONSHIP('','',#726,#19);
#19=ADVANCED_BREP_SHAPE_REPRESENTATION('',(#724),#1166);
#20=CYLINDRICAL_SURFACE('',#744,0.0028);
#21=CYLINDRICAL_SURFACE('',#746,0.0028);
#22=CYLINDRICAL_SURFACE('',#748,0.0028);
#23=CYLINDRICAL_SURFACE('',#751,0.0028);
#24=CYLINDRICAL_SURFACE('',#757,0.00215);
#25=CYLINDRICAL_SURFACE('',#761,0.00215);
#26=CYLINDRICAL_SURFACE('',#777,0.00215);
#27=CYLINDRICAL_SURFACE('',#780,0.00215);
#28=CIRCLE('',#733,0.0028);
#29=CIRCLE('',#734,0.0028);
#30=CIRCLE('',#735,0.0028);
#31=CIRCLE('',#736,0.0028);
#32=CIRCLE('',#745,0.0028);
#33=CIRCLE('',#747,0.0028);
#34=CIRCLE('',#749,0.0028);
#35=CIRCLE('',#752,0.0028);
#36=CIRCLE('',#758,0.00215);
#37=CIRCLE('',#759,0.00215);
#38=CIRCLE('',#762,0.00215);
#39=CIRCLE('',#763,0.00215);
#40=CIRCLE('',#768,0.00215);
#41=CIRCLE('',#769,0.00215);
#42=CIRCLE('',#778,0.00215);
#43=CIRCLE('',#781,0.00215);
#44=ORIENTED_EDGE('',*,*,#222,.F.);
#45=ORIENTED_EDGE('',*,*,#223,.T.);
#46=ORIENTED_EDGE('',*,*,#224,.F.);
#47=ORIENTED_EDGE('',*,*,#225,.F.);
#48=ORIENTED_EDGE('',*,*,#226,.T.);
#49=ORIENTED_EDGE('',*,*,#227,.T.);
#50=ORIENTED_EDGE('',*,*,#228,.T.);
#51=ORIENTED_EDGE('',*,*,#229,.F.);
#52=ORIENTED_EDGE('',*,*,#230,.T.);
#53=ORIENTED_EDGE('',*,*,#231,.F.);
#54=ORIENTED_EDGE('',*,*,#232,.T.);
#55=ORIENTED_EDGE('',*,*,#233,.T.);
#56=ORIENTED_EDGE('',*,*,#234,.T.);
#57=ORIENTED_EDGE('',*,*,#235,.T.);
#58=ORIENTED_EDGE('',*,*,#233,.F.);
#59=ORIENTED_EDGE('',*,*,#236,.T.);
#60=ORIENTED_EDGE('',*,*,#237,.F.);
#61=ORIENTED_EDGE('',*,*,#234,.F.);
#62=ORIENTED_EDGE('',*,*,#238,.F.);
#63=ORIENTED_EDGE('',*,*,#239,.T.);
#64=ORIENTED_EDGE('',*,*,#240,.T.);
#65=ORIENTED_EDGE('',*,*,#228,.F.);
#66=ORIENTED_EDGE('',*,*,#241,.T.);
#67=ORIENTED_EDGE('',*,*,#242,.T.);
#68=ORIENTED_EDGE('',*,*,#243,.F.);
#69=ORIENTED_EDGE('',*,*,#244,.F.);
#70=ORIENTED_EDGE('',*,*,#245,.T.);
#71=ORIENTED_EDGE('',*,*,#246,.F.);
#72=ORIENTED_EDGE('',*,*,#247,.T.);
#73=ORIENTED_EDGE('',*,*,#248,.F.);
#74=ORIENTED_EDGE('',*,*,#249,.F.);
#75=ORIENTED_EDGE('',*,*,#250,.F.);
#76=ORIENTED_EDGE('',*,*,#251,.F.);
#77=ORIENTED_EDGE('',*,*,#252,.T.);
#78=ORIENTED_EDGE('',*,*,#253,.T.);
#79=ORIENTED_EDGE('',*,*,#254,.T.);
#80=ORIENTED_EDGE('',*,*,#255,.T.);
#81=ORIENTED_EDGE('',*,*,#256,.F.);
#82=ORIENTED_EDGE('',*,*,#257,.F.);
#83=ORIENTED_EDGE('',*,*,#224,.T.);
#84=ORIENTED_EDGE('',*,*,#258,.T.);
#85=ORIENTED_EDGE('',*,*,#259,.T.);
#86=ORIENTED_EDGE('',*,*,#260,.T.);
#87=ORIENTED_EDGE('',*,*,#248,.T.);
#88=ORIENTED_EDGE('',*,*,#261,.F.);
#89=ORIENTED_EDGE('',*,*,#262,.F.);
#90=ORIENTED_EDGE('',*,*,#263,.T.);
#91=ORIENTED_EDGE('',*,*,#255,.F.);
#92=ORIENTED_EDGE('',*,*,#264,.F.);
#93=ORIENTED_EDGE('',*,*,#265,.T.);
#94=ORIENTED_EDGE('',*,*,#261,.T.);
#95=ORIENTED_EDGE('',*,*,#254,.F.);
#96=ORIENTED_EDGE('',*,*,#266,.F.);
#97=ORIENTED_EDGE('',*,*,#267,.T.);
#98=ORIENTED_EDGE('',*,*,#264,.T.);
#99=ORIENTED_EDGE('',*,*,#253,.F.);
#100=ORIENTED_EDGE('',*,*,#268,.F.);
#101=ORIENTED_EDGE('',*,*,#269,.T.);
#102=ORIENTED_EDGE('',*,*,#266,.T.);
#103=ORIENTED_EDGE('',*,*,#252,.F.);
#104=ORIENTED_EDGE('',*,*,#270,.F.);
#105=ORIENTED_EDGE('',*,*,#271,.T.);
#106=ORIENTED_EDGE('',*,*,#268,.T.);
#107=ORIENTED_EDGE('',*,*,#251,.T.);
#108=ORIENTED_EDGE('',*,*,#272,.F.);
#109=ORIENTED_EDGE('',*,*,#273,.F.);
#110=ORIENTED_EDGE('',*,*,#270,.T.);
#111=ORIENTED_EDGE('',*,*,#250,.T.);
#112=ORIENTED_EDGE('',*,*,#274,.F.);
#113=ORIENTED_EDGE('',*,*,#275,.F.);
#114=ORIENTED_EDGE('',*,*,#272,.T.);
#115=ORIENTED_EDGE('',*,*,#276,.T.);
#116=ORIENTED_EDGE('',*,*,#245,.F.);
#117=ORIENTED_EDGE('',*,*,#277,.F.);
#118=ORIENTED_EDGE('',*,*,#246,.T.);
#119=ORIENTED_EDGE('',*,*,#278,.T.);
#120=ORIENTED_EDGE('',*,*,#247,.F.);
#121=ORIENTED_EDGE('',*,*,#249,.T.);
#122=ORIENTED_EDGE('',*,*,#263,.F.);
#123=ORIENTED_EDGE('',*,*,#279,.F.);
#124=ORIENTED_EDGE('',*,*,#274,.T.);
#125=ORIENTED_EDGE('',*,*,#280,.F.);
#126=ORIENTED_EDGE('',*,*,#244,.T.);
#127=ORIENTED_EDGE('',*,*,#262,.T.);
#128=ORIENTED_EDGE('',*,*,#265,.F.);
#129=ORIENTED_EDGE('',*,*,#267,.F.);
#130=ORIENTED_EDGE('',*,*,#269,.F.);
#131=ORIENTED_EDGE('',*,*,#271,.F.);
#132=ORIENTED_EDGE('',*,*,#273,.T.);
#133=ORIENTED_EDGE('',*,*,#275,.T.);
#134=ORIENTED_EDGE('',*,*,#279,.T.);
#135=ORIENTED_EDGE('',*,*,#278,.F.);
#136=ORIENTED_EDGE('',*,*,#277,.T.);
#137=ORIENTED_EDGE('',*,*,#276,.F.);
#138=ORIENTED_EDGE('',*,*,#280,.T.);
#139=ORIENTED_EDGE('',*,*,#281,.T.);
#140=ORIENTED_EDGE('',*,*,#282,.T.);
#141=ORIENTED_EDGE('',*,*,#283,.F.);
#142=ORIENTED_EDGE('',*,*,#284,.F.);
#143=ORIENTED_EDGE('',*,*,#259,.F.);
#144=ORIENTED_EDGE('',*,*,#285,.F.);
#145=ORIENTED_EDGE('',*,*,#281,.F.);
#146=ORIENTED_EDGE('',*,*,#286,.T.);
#147=ORIENTED_EDGE('',*,*,#287,.T.);
#148=ORIENTED_EDGE('',*,*,#260,.F.);
#149=ORIENTED_EDGE('',*,*,#287,.F.);
#150=ORIENTED_EDGE('',*,*,#288,.T.);
#151=ORIENTED_EDGE('',*,*,#289,.T.);
#152=ORIENTED_EDGE('',*,*,#290,.T.);
#153=ORIENTED_EDGE('',*,*,#291,.F.);
#154=ORIENTED_EDGE('',*,*,#256,.T.);
#155=ORIENTED_EDGE('',*,*,#289,.F.);
#156=ORIENTED_EDGE('',*,*,#292,.F.);
#157=ORIENTED_EDGE('',*,*,#283,.T.);
#158=ORIENTED_EDGE('',*,*,#293,.F.);
#159=ORIENTED_EDGE('',*,*,#294,.T.);
#160=ORIENTED_EDGE('',*,*,#242,.F.);
#161=ORIENTED_EDGE('',*,*,#295,.F.);
#162=ORIENTED_EDGE('',*,*,#296,.F.);
#163=ORIENTED_EDGE('',*,*,#297,.T.);
#164=ORIENTED_EDGE('',*,*,#298,.T.);
#165=ORIENTED_EDGE('',*,*,#299,.F.);
#166=ORIENTED_EDGE('',*,*,#284,.T.);
#167=ORIENTED_EDGE('',*,*,#292,.T.);
#168=ORIENTED_EDGE('',*,*,#288,.F.);
#169=ORIENTED_EDGE('',*,*,#286,.F.);
#170=ORIENTED_EDGE('',*,*,#290,.F.);
#171=ORIENTED_EDGE('',*,*,#298,.F.);
#172=ORIENTED_EDGE('',*,*,#291,.T.);
#173=ORIENTED_EDGE('',*,*,#231,.T.);
#174=ORIENTED_EDGE('',*,*,#300,.T.);
#175=ORIENTED_EDGE('',*,*,#239,.F.);
#176=ORIENTED_EDGE('',*,*,#301,.F.);
#177=ORIENTED_EDGE('',*,*,#302,.T.);
#178=ORIENTED_EDGE('',*,*,#303,.T.);
#179=ORIENTED_EDGE('',*,*,#301,.T.);
#180=ORIENTED_EDGE('',*,*,#238,.T.);
#181=ORIENTED_EDGE('',*,*,#236,.F.);
#182=ORIENTED_EDGE('',*,*,#232,.F.);
#183=ORIENTED_EDGE('',*,*,#299,.T.);
#184=ORIENTED_EDGE('',*,*,#240,.F.);
#185=ORIENTED_EDGE('',*,*,#304,.T.);
#186=ORIENTED_EDGE('',*,*,#285,.T.);
#187=ORIENTED_EDGE('',*,*,#258,.F.);
#188=ORIENTED_EDGE('',*,*,#223,.F.);
#189=ORIENTED_EDGE('',*,*,#305,.F.);
#190=ORIENTED_EDGE('',*,*,#257,.T.);
#191=ORIENTED_EDGE('',*,*,#297,.F.);
#192=ORIENTED_EDGE('',*,*,#306,.F.);
#193=ORIENTED_EDGE('',*,*,#225,.T.);
#194=ORIENTED_EDGE('',*,*,#243,.T.);
#195=ORIENTED_EDGE('',*,*,#294,.F.);
#196=ORIENTED_EDGE('',*,*,#307,.F.);
#197=ORIENTED_EDGE('',*,*,#229,.T.);
#198=ORIENTED_EDGE('',*,*,#307,.T.);
#199=ORIENTED_EDGE('',*,*,#293,.T.);
#200=ORIENTED_EDGE('',*,*,#282,.F.);
#201=ORIENTED_EDGE('',*,*,#304,.F.);
#202=ORIENTED_EDGE('',*,*,#300,.F.);
#203=ORIENTED_EDGE('',*,*,#230,.F.);
#204=ORIENTED_EDGE('',*,*,#241,.F.);
#205=ORIENTED_EDGE('',*,*,#227,.F.);
#206=ORIENTED_EDGE('',*,*,#308,.T.);
#207=ORIENTED_EDGE('',*,*,#295,.T.);
#208=ORIENTED_EDGE('',*,*,#306,.T.);
#209=ORIENTED_EDGE('',*,*,#296,.T.);
#210=ORIENTED_EDGE('',*,*,#308,.F.);
#211=ORIENTED_EDGE('',*,*,#226,.F.);
#212=ORIENTED_EDGE('',*,*,#303,.F.);
#213=ORIENTED_EDGE('',*,*,#309,.T.);
#214=ORIENTED_EDGE('',*,*,#309,.F.);
#215=ORIENTED_EDGE('',*,*,#302,.F.);
#216=ORIENTED_EDGE('',*,*,#310,.T.);
#217=ORIENTED_EDGE('',*,*,#310,.F.);
#218=ORIENTED_EDGE('',*,*,#237,.T.);
#219=ORIENTED_EDGE('',*,*,#305,.T.);
#220=ORIENTED_EDGE('',*,*,#222,.T.);
#221=ORIENTED_EDGE('',*,*,#235,.F.);
#222=EDGE_CURVE('',#311,#312,#375,.T.);
#223=EDGE_CURVE('',#311,#313,#376,.T.);
#224=EDGE_CURVE('',#314,#313,#377,.T.);
#225=EDGE_CURVE('',#315,#314,#378,.T.);
#226=EDGE_CURVE('',#315,#316,#379,.T.);
#227=EDGE_CURVE('',#316,#317,#380,.T.);
#228=EDGE_CURVE('',#317,#318,#381,.T.);
#229=EDGE_CURVE('',#319,#318,#382,.T.);
#230=EDGE_CURVE('',#319,#320,#383,.T.);
#231=EDGE_CURVE('',#321,#320,#384,.T.);
#232=EDGE_CURVE('',#321,#322,#385,.T.);
#233=EDGE_CURVE('',#322,#312,#386,.T.);
#234=EDGE_CURVE('',#323,#324,#387,.T.);
#235=EDGE_CURVE('',#324,#312,#388,.T.);
#236=EDGE_CURVE('',#322,#323,#389,.T.);
#237=EDGE_CURVE('',#324,#325,#390,.T.);
#238=EDGE_CURVE('',#326,#323,#391,.T.);
#239=EDGE_CURVE('',#326,#327,#392,.T.);
#240=EDGE_CURVE('',#327,#325,#393,.T.);
#241=EDGE_CURVE('',#317,#328,#394,.T.);
#242=EDGE_CURVE('',#328,#329,#395,.T.);
#243=EDGE_CURVE('',#318,#329,#396,.T.);
#244=EDGE_CURVE('',#330,#330,#28,.T.);
#245=EDGE_CURVE('',#331,#331,#29,.T.);
#246=EDGE_CURVE('',#332,#332,#30,.T.);
#247=EDGE_CURVE('',#333,#333,#31,.T.);
#248=EDGE_CURVE('',#334,#335,#397,.T.);
#249=EDGE_CURVE('',#336,#334,#398,.T.);
#250=EDGE_CURVE('',#337,#336,#399,.T.);
#251=EDGE_CURVE('',#338,#337,#400,.T.);
#252=EDGE_CURVE('',#338,#339,#401,.T.);
#253=EDGE_CURVE('',#339,#340,#402,.T.);
#254=EDGE_CURVE('',#340,#341,#403,.T.);
#255=EDGE_CURVE('',#341,#335,#404,.T.);
#256=EDGE_CURVE('',#342,#343,#405,.T.);
#257=EDGE_CURVE('',#314,#342,#406,.T.);
#258=EDGE_CURVE('',#313,#344,#407,.T.);
#259=EDGE_CURVE('',#344,#345,#408,.T.);
#260=EDGE_CURVE('',#345,#343,#409,.T.);
#261=EDGE_CURVE('',#346,#335,#410,.T.);
#262=EDGE_CURVE('',#347,#346,#411,.T.);
#263=EDGE_CURVE('',#347,#334,#412,.T.);
#264=EDGE_CURVE('',#348,#341,#413,.T.);
#265=EDGE_CURVE('',#348,#346,#414,.T.);
#266=EDGE_CURVE('',#349,#340,#415,.T.);
#267=EDGE_CURVE('',#349,#348,#416,.T.);
#268=EDGE_CURVE('',#350,#339,#417,.T.);
#269=EDGE_CURVE('',#350,#349,#418,.T.);
#270=EDGE_CURVE('',#351,#338,#419,.T.);
#271=EDGE_CURVE('',#351,#350,#420,.T.);
#272=EDGE_CURVE('',#352,#337,#421,.T.);
#273=EDGE_CURVE('',#351,#352,#422,.T.);
#274=EDGE_CURVE('',#353,#336,#423,.T.);
#275=EDGE_CURVE('',#352,#353,#424,.T.);
#276=EDGE_CURVE('',#354,#354,#32,.T.);
#277=EDGE_CURVE('',#355,#355,#33,.T.);
#278=EDGE_CURVE('',#356,#356,#34,.T.);
#279=EDGE_CURVE('',#353,#347,#425,.T.);
#280=EDGE_CURVE('',#357,#357,#35,.T.);
#281=EDGE_CURVE('',#358,#359,#426,.T.);
#282=EDGE_CURVE('',#359,#360,#427,.T.);
#283=EDGE_CURVE('',#361,#360,#428,.T.);
#284=EDGE_CURVE('',#358,#361,#429,.T.);
#285=EDGE_CURVE('',#359,#344,#430,.T.);
#286=EDGE_CURVE('',#358,#362,#431,.T.);
#287=EDGE_CURVE('',#362,#345,#432,.T.);
#288=EDGE_CURVE('',#362,#363,#433,.T.);
#289=EDGE_CURVE('',#363,#343,#434,.T.);
#290=EDGE_CURVE('',#364,#364,#36,.T.);
#291=EDGE_CURVE('',#365,#365,#37,.T.);
#292=EDGE_CURVE('',#361,#363,#435,.T.);
#293=EDGE_CURVE('',#366,#360,#436,.T.);
#294=EDGE_CURVE('',#366,#329,#437,.T.);
#295=EDGE_CURVE('',#367,#328,#438,.T.);
#296=EDGE_CURVE('',#368,#367,#439,.T.);
#297=EDGE_CURVE('',#368,#342,#440,.T.);
#298=EDGE_CURVE('',#369,#369,#38,.T.);
#299=EDGE_CURVE('',#370,#370,#39,.T.);
#300=EDGE_CURVE('',#320,#327,#441,.T.);
#301=EDGE_CURVE('',#321,#326,#442,.T.);
#302=EDGE_CURVE('',#371,#371,#40,.T.);
#303=EDGE_CURVE('',#372,#372,#41,.T.);
#304=EDGE_CURVE('',#327,#359,#443,.T.);
#305=EDGE_CURVE('',#325,#311,#444,.T.);
#306=EDGE_CURVE('',#315,#368,#445,.T.);
#307=EDGE_CURVE('',#319,#366,#446,.T.);
#308=EDGE_CURVE('',#316,#367,#447,.T.);
#309=EDGE_CURVE('',#373,#373,#42,.T.);
#310=EDGE_CURVE('',#374,#374,#43,.T.);
#311=VERTEX_POINT('',#974);
#312=VERTEX_POINT('',#975);
#313=VERTEX_POINT('',#977);
#314=VERTEX_POINT('',#979);
#315=VERTEX_POINT('',#981);
#316=VERTEX_POINT('',#983);
#317=VERTEX_POINT('',#985);
#318=VERTEX_POINT('',#987);
#319=VERTEX_POINT('',#989);
#320=VERTEX_POINT('',#991);
#321=VERTEX_POINT('',#993);
#322=VERTEX_POINT('',#995);
#323=VERTEX_POINT('',#999);
#324=VERTEX_POINT('',#1000);
#325=VERTEX_POINT('',#1005);
#326=VERTEX_POINT('',#1007);
#327=VERTEX_POINT('',#1009);
#328=VERTEX_POINT('',#1013);
#329=VERTEX_POINT('',#1015);
#330=VERTEX_POINT('',#1019);
#331=VERTEX_POINT('',#1021);
#332=VERTEX_POINT('',#1023);
#333=VERTEX_POINT('',#1025);
#334=VERTEX_POINT('',#1027);
#335=VERTEX_POINT('',#1028);
#336=VERTEX_POINT('',#1030);
#337=VERTEX_POINT('',#1032);
#338=VERTEX_POINT('',#1034);
#339=VERTEX_POINT('',#1036);
#340=VERTEX_POINT('',#1038);
#341=VERTEX_POINT('',#1040);
#342=VERTEX_POINT('',#1043);
#343=VERTEX_POINT('',#1044);
#344=VERTEX_POINT('',#1047);
#345=VERTEX_POINT('',#1049);
#346=VERTEX_POINT('',#1053);
#347=VERTEX_POINT('',#1055);
#348=VERTEX_POINT('',#1059);
#349=VERTEX_POINT('',#1063);
#350=VERTEX_POINT('',#1067);
#351=VERTEX_POINT('',#1071);
#352=VERTEX_POINT('',#1075);
#353=VERTEX_POINT('',#1079);
#354=VERTEX_POINT('',#1083);
#355=VERTEX_POINT('',#1086);
#356=VERTEX_POINT('',#1089);
#357=VERTEX_POINT('',#1094);
#358=VERTEX_POINT('',#1098);
#359=VERTEX_POINT('',#1099);
#360=VERTEX_POINT('',#1101);
#361=VERTEX_POINT('',#1103);
#362=VERTEX_POINT('',#1108);
#363=VERTEX_POINT('',#1112);
#364=VERTEX_POINT('',#1116);
#365=VERTEX_POINT('',#1118);
#366=VERTEX_POINT('',#1122);
#367=VERTEX_POINT('',#1125);
#368=VERTEX_POINT('',#1127);
#369=VERTEX_POINT('',#1131);
#370=VERTEX_POINT('',#1133);
#371=VERTEX_POINT('',#1141);
#372=VERTEX_POINT('',#1143);
#373=VERTEX_POINT('',#1158);
#374=VERTEX_POINT('',#1162);
#375=LINE('',#973,#448);
#376=LINE('',#976,#449);
#377=LINE('',#978,#450);
#378=LINE('',#980,#451);
#379=LINE('',#982,#452);
#380=LINE('',#984,#453);
#381=LINE('',#986,#454);
#382=LINE('',#988,#455);
#383=LINE('',#990,#456);
#384=LINE('',#992,#457);
#385=LINE('',#994,#458);
#386=LINE('',#996,#459);
#387=LINE('',#998,#460);
#388=LINE('',#1001,#461);
#389=LINE('',#1002,#462);
#390=LINE('',#1004,#463);
#391=LINE('',#1006,#464);
#392=LINE('',#1008,#465);
#393=LINE('',#1010,#466);
#394=LINE('',#1012,#467);
#395=LINE('',#1014,#468);
#396=LINE('',#1016,#469);
#397=LINE('',#1026,#470);
#398=LINE('',#1029,#471);
#399=LINE('',#1031,#472);
#400=LINE('',#1033,#473);
#401=LINE('',#1035,#474);
#402=LINE('',#1037,#475);
#403=LINE('',#1039,#476);
#404=LINE('',#1041,#477);
#405=LINE('',#1042,#478);
#406=LINE('',#1045,#479);
#407=LINE('',#1046,#480);
#408=LINE('',#1048,#481);
#409=LINE('',#1050,#482);
#410=LINE('',#1052,#483);
#411=LINE('',#1054,#484);
#412=LINE('',#1056,#485);
#413=LINE('',#1058,#486);
#414=LINE('',#1060,#487);
#415=LINE('',#1062,#488);
#416=LINE('',#1064,#489);
#417=LINE('',#1066,#490);
#418=LINE('',#1068,#491);
#419=LINE('',#1070,#492);
#420=LINE('',#1072,#493);
#421=LINE('',#1074,#494);
#422=LINE('',#1076,#495);
#423=LINE('',#1078,#496);
#424=LINE('',#1080,#497);
#425=LINE('',#1091,#498);
#426=LINE('',#1097,#499);
#427=LINE('',#1100,#500);
#428=LINE('',#1102,#501);
#429=LINE('',#1104,#502);
#430=LINE('',#1106,#503);
#431=LINE('',#1107,#504);
#432=LINE('',#1109,#505);
#433=LINE('',#1111,#506);
#434=LINE('',#1113,#507);
#435=LINE('',#1120,#508);
#436=LINE('',#1121,#509);
#437=LINE('',#1123,#510);
#438=LINE('',#1124,#511);
#439=LINE('',#1126,#512);
#440=LINE('',#1128,#513);
#441=LINE('',#1137,#514);
#442=LINE('',#1138,#515);
#443=LINE('',#1146,#516);
#444=LINE('',#1147,#517);
#445=LINE('',#1149,#518);
#446=LINE('',#1151,#519);
#447=LINE('',#1154,#520);
#448=VECTOR('',#788,1.);
#449=VECTOR('',#789,1.);
#450=VECTOR('',#790,1.);
#451=VECTOR('',#791,1.);
#452=VECTOR('',#792,1.);
#453=VECTOR('',#793,1.);
#454=VECTOR('',#794,1.);
#455=VECTOR('',#795,1.);
#456=VECTOR('',#796,1.);
#457=VECTOR('',#797,1.);
#458=VECTOR('',#798,1.);
#459=VECTOR('',#799,1.);
#460=VECTOR('',#802,1.);
#461=VECTOR('',#803,1.);
#462=VECTOR('',#804,1.);
#463=VECTOR('',#807,1.);
#464=VECTOR('',#808,1.);
#465=VECTOR('',#809,1.);
#466=VECTOR('',#810,1.);
#467=VECTOR('',#813,1.);
#468=VECTOR('',#814,1.);
#469=VECTOR('',#815,1.);
#470=VECTOR('',#826,1.);
#471=VECTOR('',#827,1.);
#472=VECTOR('',#828,1.);
#473=VECTOR('',#829,1.);
#474=VECTOR('',#830,1.);
#475=VECTOR('',#831,1.);
#476=VECTOR('',#832,1.);
#477=VECTOR('',#833,1.);
#478=VECTOR('',#834,1.);
#479=VECTOR('',#835,1.);
#480=VECTOR('',#836,1.);
#481=VECTOR('',#837,1.);
#482=VECTOR('',#838,1.);
#483=VECTOR('',#841,1.);
#484=VECTOR('',#842,1.);
#485=VECTOR('',#843,1.);
#486=VECTOR('',#846,1.);
#487=VECTOR('',#847,1.);
#488=VECTOR('',#850,1.);
#489=VECTOR('',#851,1.);
#490=VECTOR('',#854,1.);
#491=VECTOR('',#855,1.);
#492=VECTOR('',#858,1.);
#493=VECTOR('',#859,1.);
#494=VECTOR('',#862,1.);
#495=VECTOR('',#863,1.);
#496=VECTOR('',#866,1.);
#497=VECTOR('',#867,1.);
#498=VECTOR('',#882,1.);
#499=VECTOR('',#891,1.);
#500=VECTOR('',#892,1.);
#501=VECTOR('',#893,1.);
#502=VECTOR('',#894,1.);
#503=VECTOR('',#897,1.);
#504=VECTOR('',#898,1.);
#505=VECTOR('',#899,1.);
#506=VECTOR('',#902,1.);
#507=VECTOR('',#903,1.);
#508=VECTOR('',#912,1.);
#509=VECTOR('',#913,1.);
#510=VECTOR('',#914,1.);
#511=VECTOR('',#915,1.);
#512=VECTOR('',#916,1.);
#513=VECTOR('',#917,1.);
#514=VECTOR('',#930,1.);
#515=VECTOR('',#931,1.);
#516=VECTOR('',#942,1.);
#517=VECTOR('',#943,1.);
#518=VECTOR('',#946,1.);
#519=VECTOR('',#949,1.);
#520=VECTOR('',#954,1.);
#521=EDGE_LOOP('',(#44,#45,#46,#47,#48,#49,#50,#51,#52,#53,#54,#55));
#522=EDGE_LOOP('',(#56,#57,#58,#59));
#523=EDGE_LOOP('',(#60,#61,#62,#63,#64));
#524=EDGE_LOOP('',(#65,#66,#67,#68));
#525=EDGE_LOOP('',(#69));
#526=EDGE_LOOP('',(#70));
#527=EDGE_LOOP('',(#71));
#528=EDGE_LOOP('',(#72));
#529=EDGE_LOOP('',(#73,#74,#75,#76,#77,#78,#79,#80));
#530=EDGE_LOOP('',(#81,#82,#83,#84,#85,#86));
#531=EDGE_LOOP('',(#87,#88,#89,#90));
#532=EDGE_LOOP('',(#91,#92,#93,#94));
#533=EDGE_LOOP('',(#95,#96,#97,#98));
#534=EDGE_LOOP('',(#99,#100,#101,#102));
#535=EDGE_LOOP('',(#103,#104,#105,#106));
#536=EDGE_LOOP('',(#107,#108,#109,#110));
#537=EDGE_LOOP('',(#111,#112,#113,#114));
#538=EDGE_LOOP('',(#115));
#539=EDGE_LOOP('',(#116));
#540=EDGE_LOOP('',(#117));
#541=EDGE_LOOP('',(#118));
#542=EDGE_LOOP('',(#119));
#543=EDGE_LOOP('',(#120));
#544=EDGE_LOOP('',(#121,#122,#123,#124));
#545=EDGE_LOOP('',(#125));
#546=EDGE_LOOP('',(#126));
#547=EDGE_LOOP('',(#127,#128,#129,#130,#131,#132,#133,#134));
#548=EDGE_LOOP('',(#135));
#549=EDGE_LOOP('',(#136));
#550=EDGE_LOOP('',(#137));
#551=EDGE_LOOP('',(#138));
#552=EDGE_LOOP('',(#139,#140,#141,#142));
#553=EDGE_LOOP('',(#143,#144,#145,#146,#147));
#554=EDGE_LOOP('',(#148,#149,#150,#151));
#555=EDGE_LOOP('',(#152));
#556=EDGE_LOOP('',(#153));
#557=EDGE_LOOP('',(#154,#155,#156,#157,#158,#159,#160,#161,#162,#163));
#558=EDGE_LOOP('',(#164));
#559=EDGE_LOOP('',(#165));
#560=EDGE_LOOP('',(#166,#167,#168,#169));
#561=EDGE_LOOP('',(#170));
#562=EDGE_LOOP('',(#171));
#563=EDGE_LOOP('',(#172));
#564=EDGE_LOOP('',(#173,#174,#175,#176));
#565=EDGE_LOOP('',(#177));
#566=EDGE_LOOP('',(#178));
#567=EDGE_LOOP('',(#179,#180,#181,#182));
#568=EDGE_LOOP('',(#183));
#569=EDGE_LOOP('',(#184,#185,#186,#187,#188,#189));
#570=EDGE_LOOP('',(#190,#191,#192,#193));
#571=EDGE_LOOP('',(#194,#195,#196,#197));
#572=EDGE_LOOP('',(#198,#199,#200,#201,#202,#203));
#573=EDGE_LOOP('',(#204,#205,#206,#207));
#574=EDGE_LOOP('',(#208,#209,#210,#211));
#575=EDGE_LOOP('',(#212));
#576=EDGE_LOOP('',(#213));
#577=EDGE_LOOP('',(#214));
#578=EDGE_LOOP('',(#215));
#579=EDGE_LOOP('',(#216));
#580=EDGE_LOOP('',(#217));
#581=EDGE_LOOP('',(#218,#219,#220,#221));
#582=FACE_BOUND('',#521,.T.);
#583=FACE_BOUND('',#522,.T.);
#584=FACE_BOUND('',#523,.T.);
#585=FACE_BOUND('',#524,.T.);
#586=FACE_BOUND('',#525,.T.);
#587=FACE_BOUND('',#526,.T.);
#588=FACE_BOUND('',#527,.T.);
#589=FACE_BOUND('',#528,.T.);
#590=FACE_BOUND('',#529,.T.);
#591=FACE_BOUND('',#530,.T.);
#592=FACE_BOUND('',#531,.T.);
#593=FACE_BOUND('',#532,.T.);
#594=FACE_BOUND('',#533,.T.);
#595=FACE_BOUND('',#534,.T.);
#596=FACE_BOUND('',#535,.T.);
#597=FACE_BOUND('',#536,.T.);
#598=FACE_BOUND('',#537,.T.);
#599=FACE_BOUND('',#538,.T.);
#600=FACE_BOUND('',#539,.T.);
#601=FACE_BOUND('',#540,.T.);
#602=FACE_BOUND('',#541,.T.);
#603=FACE_BOUND('',#542,.T.);
#604=FACE_BOUND('',#543,.T.);
#605=FACE_BOUND('',#544,.T.);
#606=FACE_BOUND('',#545,.T.);
#607=FACE_BOUND('',#546,.T.);
#608=FACE_BOUND('',#547,.T.);
#609=FACE_BOUND('',#548,.T.);
#610=FACE_BOUND('',#549,.T.);
#611=FACE_BOUND('',#550,.T.);
#612=FACE_BOUND('',#551,.T.);
#613=FACE_BOUND('',#552,.T.);
#614=FACE_BOUND('',#553,.T.);
#615=FACE_BOUND('',#554,.T.);
#616=FACE_BOUND('',#555,.T.);
#617=FACE_BOUND('',#556,.T.);
#618=FACE_BOUND('',#557,.T.);
#619=FACE_BOUND('',#558,.T.);
#620=FACE_BOUND('',#559,.T.);
#621=FACE_BOUND('',#560,.T.);
#622=FACE_BOUND('',#561,.T.);
#623=FACE_BOUND('',#562,.T.);
#624=FACE_BOUND('',#563,.T.);
#625=FACE_BOUND('',#564,.T.);
#626=FACE_BOUND('',#565,.T.);
#627=FACE_BOUND('',#566,.T.);
#628=FACE_BOUND('',#567,.T.);
#629=FACE_BOUND('',#568,.T.);
#630=FACE_BOUND('',#569,.T.);
#631=FACE_BOUND('',#570,.T.);
#632=FACE_BOUND('',#571,.T.);
#633=FACE_BOUND('',#572,.T.);
#634=FACE_BOUND('',#573,.T.);
#635=FACE_BOUND('',#574,.T.);
#636=FACE_BOUND('',#575,.T.);
#637=FACE_BOUND('',#576,.T.);
#638=FACE_BOUND('',#577,.T.);
#639=FACE_BOUND('',#578,.T.);
#640=FACE_BOUND('',#579,.T.);
#641=FACE_BOUND('',#580,.T.);
#642=FACE_BOUND('',#581,.T.);
#643=PLANE('',#728);
#644=PLANE('',#729);
#645=PLANE('',#730);
#646=PLANE('',#731);
#647=PLANE('',#732);
#648=PLANE('',#737);
#649=PLANE('',#738);
#650=PLANE('',#739);
#651=PLANE('',#740);
#652=PLANE('',#741);
#653=PLANE('',#742);
#654=PLANE('',#743);
#655=PLANE('',#750);
#656=PLANE('',#753);
#657=PLANE('',#754);
#658=PLANE('',#755);
#659=PLANE('',#756);
#660=PLANE('',#760);
#661=PLANE('',#764);
#662=PLANE('',#765);
#663=PLANE('',#766);
#664=PLANE('',#767);
#665=PLANE('',#770);
#666=PLANE('',#771);
#667=PLANE('',#772);
#668=PLANE('',#773);
#669=PLANE('',#774);
#670=PLANE('',#775);
#671=PLANE('',#776);
#672=PLANE('',#779);
#673=PLANE('',#782);
#674=PLANE('',#783);
#675=ADVANCED_FACE('',(#582),#643,.T.);
#676=ADVANCED_FACE('',(#583),#644,.T.);
#677=ADVANCED_FACE('',(#584),#645,.F.);
#678=ADVANCED_FACE('',(#585),#646,.F.);
#679=ADVANCED_FACE('',(#586,#587,#588,#589,#590,#591),#647,.F.);
#680=ADVANCED_FACE('',(#592),#648,.F.);
#681=ADVANCED_FACE('',(#593),#649,.T.);
#682=ADVANCED_FACE('',(#594),#650,.T.);
#683=ADVANCED_FACE('',(#595),#651,.T.);
#684=ADVANCED_FACE('',(#596),#652,.T.);
#685=ADVANCED_FACE('',(#597),#653,.F.);
#686=ADVANCED_FACE('',(#598),#654,.F.);
#687=ADVANCED_FACE('',(#599,#600),#20,.F.);
#688=ADVANCED_FACE('',(#601,#602),#21,.F.);
#689=ADVANCED_FACE('',(#603,#604),#22,.F.);
#690=ADVANCED_FACE('',(#605),#655,.F.);
#691=ADVANCED_FACE('',(#606,#607),#23,.F.);
#692=ADVANCED_FACE('',(#608,#609,#610,#611,#612),#656,.T.);
#693=ADVANCED_FACE('',(#613),#657,.F.);
#694=ADVANCED_FACE('',(#614),#658,.T.);
#695=ADVANCED_FACE('',(#615),#659,.T.);
#696=ADVANCED_FACE('',(#616,#617),#24,.F.);
#697=ADVANCED_FACE('',(#618),#660,.F.);
#698=ADVANCED_FACE('',(#619,#620),#25,.F.);
#699=ADVANCED_FACE('',(#621,#622,#623),#661,.F.);
#700=ADVANCED_FACE('',(#624),#662,.F.);
#701=ADVANCED_FACE('',(#625),#663,.F.);
#702=ADVANCED_FACE('',(#626,#627,#628),#664,.F.);
#703=ADVANCED_FACE('',(#629),#665,.F.);
#704=ADVANCED_FACE('',(#630),#666,.T.);
#705=ADVANCED_FACE('',(#631),#667,.F.);
#706=ADVANCED_FACE('',(#632),#668,.F.);
#707=ADVANCED_FACE('',(#633),#669,.F.);
#708=ADVANCED_FACE('',(#634),#670,.T.);
#709=ADVANCED_FACE('',(#635),#671,.F.);
#710=ADVANCED_FACE('',(#636,#637),#26,.F.);
#711=ADVANCED_FACE('',(#638),#672,.F.);
#712=ADVANCED_FACE('',(#639,#640),#27,.F.);
#713=ADVANCED_FACE('',(#641),#673,.F.);
#714=ADVANCED_FACE('',(#642),#674,.F.);
#715=CLOSED_SHELL('',(#675,#676,#677,#678,#679,#680,#681,#682,#683,#684,
#685,#686,#687,#688,#689,#690,#691,#692,#693,#694,#695,#696,#697,#698,#699,
#700,#701,#702,#703,#704,#705,#706,#707,#708,#709,#710,#711,#712,#713,#714));
#716=STYLED_ITEM('',(#717),#724);
#717=PRESENTATION_STYLE_ASSIGNMENT((#718));
#718=SURFACE_STYLE_USAGE(.BOTH.,#719);
#719=SURFACE_SIDE_STYLE('',(#720));
#720=SURFACE_STYLE_FILL_AREA(#721);
#721=FILL_AREA_STYLE('',(#722));
#722=FILL_AREA_STYLE_COLOUR('',#723);
#723=COLOUR_RGB('',0.615686274509804,0.811764705882353,0.929411764705882);
#724=MANIFOLD_SOLID_BREP('Toolhead Front Cart',#715);
#725=SHAPE_DEFINITION_REPRESENTATION(#1171,#726);
#726=SHAPE_REPRESENTATION('Toolhead Front Cart',(#727),#1166);
#727=AXIS2_PLACEMENT_3D('',#971,#784,#785);
#728=AXIS2_PLACEMENT_3D('',#972,#786,#787);
#729=AXIS2_PLACEMENT_3D('',#997,#800,#801);
#730=AXIS2_PLACEMENT_3D('',#1003,#805,#806);
#731=AXIS2_PLACEMENT_3D('',#1011,#811,#812);
#732=AXIS2_PLACEMENT_3D('',#1017,#816,#817);
#733=AXIS2_PLACEMENT_3D('',#1018,#818,#819);
#734=AXIS2_PLACEMENT_3D('',#1020,#820,#821);
#735=AXIS2_PLACEMENT_3D('',#1022,#822,#823);
#736=AXIS2_PLACEMENT_3D('',#1024,#824,#825);
#737=AXIS2_PLACEMENT_3D('',#1051,#839,#840);
#738=AXIS2_PLACEMENT_3D('',#1057,#844,#845);
#739=AXIS2_PLACEMENT_3D('',#1061,#848,#849);
#740=AXIS2_PLACEMENT_3D('',#1065,#852,#853);
#741=AXIS2_PLACEMENT_3D('',#1069,#856,#857);
#742=AXIS2_PLACEMENT_3D('',#1073,#860,#861);
#743=AXIS2_PLACEMENT_3D('',#1077,#864,#865);
#744=AXIS2_PLACEMENT_3D('',#1081,#868,#869);
#745=AXIS2_PLACEMENT_3D('',#1082,#870,#871);
#746=AXIS2_PLACEMENT_3D('',#1084,#872,#873);
#747=AXIS2_PLACEMENT_3D('',#1085,#874,#875);
#748=AXIS2_PLACEMENT_3D('',#1087,#876,#877);
#749=AXIS2_PLACEMENT_3D('',#1088,#878,#879);
#750=AXIS2_PLACEMENT_3D('',#1090,#880,#881);
#751=AXIS2_PLACEMENT_3D('',#1092,#883,#884);
#752=AXIS2_PLACEMENT_3D('',#1093,#885,#886);
#753=AXIS2_PLACEMENT_3D('',#1095,#887,#888);
#754=AXIS2_PLACEMENT_3D('',#1096,#889,#890);
#755=AXIS2_PLACEMENT_3D('',#1105,#895,#896);
#756=AXIS2_PLACEMENT_3D('',#1110,#900,#901);
#757=AXIS2_PLACEMENT_3D('',#1114,#904,#905);
#758=AXIS2_PLACEMENT_3D('',#1115,#906,#907);
#759=AXIS2_PLACEMENT_3D('',#1117,#908,#909);
#760=AXIS2_PLACEMENT_3D('',#1119,#910,#911);
#761=AXIS2_PLACEMENT_3D('',#1129,#918,#919);
#762=AXIS2_PLACEMENT_3D('',#1130,#920,#921);
#763=AXIS2_PLACEMENT_3D('',#1132,#922,#923);
#764=AXIS2_PLACEMENT_3D('',#1134,#924,#925);
#765=AXIS2_PLACEMENT_3D('',#1135,#926,#927);
#766=AXIS2_PLACEMENT_3D('',#1136,#928,#929);
#767=AXIS2_PLACEMENT_3D('',#1139,#932,#933);
#768=AXIS2_PLACEMENT_3D('',#1140,#934,#935);
#769=AXIS2_PLACEMENT_3D('',#1142,#936,#937);
#770=AXIS2_PLACEMENT_3D('',#1144,#938,#939);
#771=AXIS2_PLACEMENT_3D('',#1145,#940,#941);
#772=AXIS2_PLACEMENT_3D('',#1148,#944,#945);
#773=AXIS2_PLACEMENT_3D('',#1150,#947,#948);
#774=AXIS2_PLACEMENT_3D('',#1152,#950,#951);
#775=AXIS2_PLACEMENT_3D('',#1153,#952,#953);
#776=AXIS2_PLACEMENT_3D('',#1155,#955,#956);
#777=AXIS2_PLACEMENT_3D('',#1156,#957,#958);
#778=AXIS2_PLACEMENT_3D('',#1157,#959,#960);
#779=AXIS2_PLACEMENT_3D('',#1159,#961,#962);
#780=AXIS2_PLACEMENT_3D('',#1160,#963,#964);
#781=AXIS2_PLACEMENT_3D('',#1161,#965,#966);
#782=AXIS2_PLACEMENT_3D('',#1163,#967,#968);
#783=AXIS2_PLACEMENT_3D('',#1164,#969,#970);
#784=DIRECTION('',(0.,0.,1.));
#785=DIRECTION('',(1.,0.,0.));
#786=DIRECTION('',(-1.72609301092219E-16,0.,1.));
#787=DIRECTION('',(1.,0.,1.72609301092219E-16));
#788=DIRECTION('',(-1.,-1.72609301092219E-16,-1.72609301092219E-16));
#789=DIRECTION('',(0.,-1.,0.));
#790=DIRECTION('',(-1.,0.,-1.72609301092219E-16));
#791=DIRECTION('',(0.,-1.,0.));
#792=DIRECTION('',(-1.,0.,0.));
#793=DIRECTION('',(0.,-1.,0.));
#794=DIRECTION('',(-1.,0.,0.));
#795=DIRECTION('',(0.,-1.,0.));
#796=DIRECTION('',(-1.,0.,0.));
#797=DIRECTION('',(0.,-1.,0.));
#798=DIRECTION('',(-1.,0.,-1.72609301092219E-16));
#799=DIRECTION('',(0.,-1.,0.));
#800=DIRECTION('',(-1.,0.,-3.5402519917894E-16));
#801=DIRECTION('',(-3.5402519917894E-16,0.,1.));
#802=DIRECTION('',(0.,-1.,0.));
#803=DIRECTION('',(-1.72609301092219E-16,0.,1.));
#804=DIRECTION('',(3.5402519917894E-16,0.,-1.));
#805=DIRECTION('',(-1.72609301092219E-16,0.,1.));
#806=DIRECTION('',(1.,0.,1.72609301092219E-16));
#807=DIRECTION('',(1.,1.72609301092219E-16,1.72609301092219E-16));
#808=DIRECTION('',(-1.,0.,-1.72609301092219E-16));
#809=DIRECTION('',(0.,-1.,0.));
#810=DIRECTION('',(0.,-1.,0.));
#811=DIRECTION('',(0.,-1.,0.));
#812=DIRECTION('',(1.,0.,0.));
#813=DIRECTION('',(5.78241158658936E-17,0.,-1.));
#814=DIRECTION('',(-1.,0.,0.));
#815=DIRECTION('',(5.78241158658936E-17,0.,-1.));
#816=DIRECTION('',(0.,-1.,0.));
#817=DIRECTION('',(1.,0.,0.));
#818=DIRECTION('',(0.,1.,0.));
#819=DIRECTION('',(0.,0.,-1.));
#820=DIRECTION('',(0.,-1.,0.));
#821=DIRECTION('',(0.,0.,-1.));
#822=DIRECTION('',(0.,1.,0.));
#823=DIRECTION('',(0.,0.,-1.));
#824=DIRECTION('',(0.,-1.,0.));
#825=DIRECTION('',(0.,0.,-1.));
#826=DIRECTION('',(1.,0.,0.));
#827=DIRECTION('',(0.470588235294118,0.,-0.882352941176471));
#828=DIRECTION('',(0.,0.,-1.));
#829=DIRECTION('',(-0.470588235294118,0.,-0.882352941176471));
#830=DIRECTION('',(1.,0.,0.));
#831=DIRECTION('',(0.470588235294118,0.,-0.882352941176471));
#832=DIRECTION('',(0.,0.,-1.));
#833=DIRECTION('',(-0.470588235294118,0.,-0.882352941176471));
#834=DIRECTION('',(-1.,0.,-1.72609301092219E-16));
#835=DIRECTION('',(5.78241158658936E-17,0.,-1.));
#836=DIRECTION('',(5.78241158658936E-17,0.,-1.));
#837=DIRECTION('',(-1.,0.,-1.72609301092219E-16));
#838=DIRECTION('',(0.,0.,-1.));
#839=DIRECTION('',(0.,0.,1.));
#840=DIRECTION('',(1.,0.,0.));
#841=DIRECTION('',(0.,1.,0.));
#842=DIRECTION('',(1.,0.,0.));
#843=DIRECTION('',(0.,1.,0.));
#844=DIRECTION('',(0.882352941176471,0.,-0.470588235294118));
#845=DIRECTION('',(-0.470588235294118,0.,-0.882352941176471));
#846=DIRECTION('',(0.,1.,0.));
#847=DIRECTION('',(-0.470588235294118,0.,-0.882352941176471));
#848=DIRECTION('',(1.,0.,0.));
#849=DIRECTION('',(0.,0.,-1.));
#850=DIRECTION('',(0.,1.,0.));
#851=DIRECTION('',(0.,0.,-1.));
#852=DIRECTION('',(0.882352941176471,0.,0.470588235294118));
#853=DIRECTION('',(0.470588235294118,0.,-0.882352941176471));
#854=DIRECTION('',(0.,1.,0.));
#855=DIRECTION('',(0.470588235294118,0.,-0.882352941176471));
#856=DIRECTION('',(0.,0.,1.));
#857=DIRECTION('',(1.,0.,0.));
#858=DIRECTION('',(0.,1.,0.));
#859=DIRECTION('',(1.,0.,0.));
#860=DIRECTION('',(0.882352941176471,0.,-0.470588235294118));
#861=DIRECTION('',(-0.470588235294118,0.,-0.882352941176471));
#862=DIRECTION('',(0.,1.,0.));
#863=DIRECTION('',(-0.470588235294118,0.,-0.882352941176471));
#864=DIRECTION('',(1.,0.,0.));
#865=DIRECTION('',(0.,0.,-1.));
#866=DIRECTION('',(0.,1.,0.));
#867=DIRECTION('',(0.,0.,-1.));
#868=DIRECTION('',(0.,1.,0.));
#869=DIRECTION('',(0.,0.,1.));
#870=DIRECTION('',(0.,-1.,0.));
#871=DIRECTION('',(0.,0.,-1.));
#872=DIRECTION('',(0.,1.,0.));
#873=DIRECTION('',(0.,0.,1.));
#874=DIRECTION('',(0.,1.,0.));
#875=DIRECTION('',(0.,0.,-1.));
#876=DIRECTION('',(0.,1.,0.));
#877=DIRECTION('',(0.,0.,1.));
#878=DIRECTION('',(0.,-1.,0.));
#879=DIRECTION('',(0.,0.,-1.));
#880=DIRECTION('',(0.882352941176471,0.,0.470588235294118));
#881=DIRECTION('',(0.470588235294118,0.,-0.882352941176471));
#882=DIRECTION('',(0.470588235294118,0.,-0.882352941176471));
#883=DIRECTION('',(0.,1.,0.));
#884=DIRECTION('',(0.,0.,1.));
#885=DIRECTION('',(0.,1.,0.));
#886=DIRECTION('',(0.,0.,-1.));
#887=DIRECTION('',(0.,-1.,0.));
#888=DIRECTION('',(1.,0.,0.));
#889=DIRECTION('',(-1.,0.,-3.5402519917894E-16));
#890=DIRECTION('',(-3.5402519917894E-16,0.,1.));
#891=DIRECTION('',(0.,-1.,0.));
#892=DIRECTION('',(5.78241158658936E-17,0.,-1.));
#893=DIRECTION('',(0.,-1.,0.));
#894=DIRECTION('',(3.54025199178941E-16,0.,-1.));
#895=DIRECTION('',(-1.72609301092219E-16,0.,1.));
#896=DIRECTION('',(1.,0.,1.72609301092219E-16));
#897=DIRECTION('',(0.,-1.,0.));
#898=DIRECTION('',(-1.,0.,-1.72609301092219E-16));
#899=DIRECTION('',(0.,-1.,0.));
#900=DIRECTION('',(-1.,0.,0.));
#901=DIRECTION('',(0.,0.,1.));
#902=DIRECTION('',(0.,0.,-1.));
#903=DIRECTION('',(0.,-1.,0.));
#904=DIRECTION('',(0.,-1.,0.));
#905=DIRECTION('',(0.,0.,-1.));
#906=DIRECTION('',(0.,1.,0.));
#907=DIRECTION('',(0.,0.,-1.));
#908=DIRECTION('',(0.,1.,0.));
#909=DIRECTION('',(0.,0.,-1.));
#910=DIRECTION('',(-1.72609301092219E-16,0.,1.));
#911=DIRECTION('',(1.,0.,1.72609301092219E-16));
#912=DIRECTION('',(-1.,0.,-1.72609301092219E-16));
#913=DIRECTION('',(-1.,0.,0.));
#914=DIRECTION('',(0.,-1.,0.));
#915=DIRECTION('',(0.,-1.,0.));
#916=DIRECTION('',(-1.,0.,0.));
#917=DIRECTION('',(0.,-1.,0.));
#918=DIRECTION('',(0.,-1.,0.));
#919=DIRECTION('',(0.,0.,-1.));
#920=DIRECTION('',(0.,1.,0.));
#921=DIRECTION('',(0.,0.,-1.));
#922=DIRECTION('',(0.,1.,0.));
#923=DIRECTION('',(0.,0.,-1.));
#924=DIRECTION('',(0.,-1.,0.));
#925=DIRECTION('',(1.,0.,0.));
#926=DIRECTION('',(0.,-1.,0.));
#927=DIRECTION('',(1.,0.,0.));
#928=DIRECTION('',(-1.,0.,-3.5402519917894E-16));
#929=DIRECTION('',(-3.5402519917894E-16,0.,1.));
#930=DIRECTION('',(5.78241158658936E-17,0.,-1.));
#931=DIRECTION('',(3.5402519917894E-16,0.,-1.));
#932=DIRECTION('',(0.,-1.,0.));
#933=DIRECTION('',(1.,0.,0.));
#934=DIRECTION('',(0.,-1.,0.));
#935=DIRECTION('',(0.,0.,-1.));
#936=DIRECTION('',(0.,-1.,0.));
#937=DIRECTION('',(0.,0.,-1.));
#938=DIRECTION('',(0.,-1.,0.));
#939=DIRECTION('',(1.,0.,0.));
#940=DIRECTION('',(-1.,0.,-5.78241158658936E-17));
#941=DIRECTION('',(-5.78241158658936E-17,0.,1.));
#942=DIRECTION('',(5.78241158658936E-17,0.,-1.));
#943=DIRECTION('',(-1.72609301092219E-16,0.,1.));
#944=DIRECTION('',(-1.,0.,-5.78241158658936E-17));
#945=DIRECTION('',(-5.78241158658936E-17,0.,1.));
#946=DIRECTION('',(5.78241158658936E-17,0.,-1.));
#947=DIRECTION('',(-1.,0.,-5.78241158658936E-17));
#948=DIRECTION('',(-5.78241158658936E-17,0.,1.));
#949=DIRECTION('',(5.78241158658936E-17,0.,-1.));
#950=DIRECTION('',(0.,-1.,0.));
#951=DIRECTION('',(1.,0.,0.));
#952=DIRECTION('',(-1.,0.,-5.78241158658936E-17));
#953=DIRECTION('',(-5.78241158658936E-17,0.,1.));
#954=DIRECTION('',(5.78241158658936E-17,0.,-1.));
#955=DIRECTION('',(0.,-1.,0.));
#956=DIRECTION('',(1.,0.,0.));
#957=DIRECTION('',(0.,1.,0.));
#958=DIRECTION('',(0.,0.,1.));
#959=DIRECTION('',(0.,-1.,0.));
#960=DIRECTION('',(0.,0.,-1.));
#961=DIRECTION('',(0.,-1.,0.));
#962=DIRECTION('',(1.,0.,0.));
#963=DIRECTION('',(0.,1.,0.));
#964=DIRECTION('',(0.,0.,1.));
#965=DIRECTION('',(0.,-1.,0.));
#966=DIRECTION('',(0.,0.,-1.));
#967=DIRECTION('',(0.,-1.,0.));
#968=DIRECTION('',(1.,0.,0.));
#969=DIRECTION('',(-1.72609301092219E-16,1.,-2.97939708235446E-32));
#970=DIRECTION('',(-1.,-1.72609301092219E-16,0.));
#971=CARTESIAN_POINT('',(0.,0.,0.));
#972=CARTESIAN_POINT('',(-0.02105,0.0282,0.03));
#973=CARTESIAN_POINT('',(-0.02105,0.008,0.03));
#974=CARTESIAN_POINT('',(-0.011,0.008,0.03));
#975=CARTESIAN_POINT('',(-0.0311,0.008,0.03));
#976=CARTESIAN_POINT('',(-0.011,0.004,0.03));
#977=CARTESIAN_POINT('',(-0.011,0.,0.03));
#978=CARTESIAN_POINT('',(-0.02105,0.,0.03));
#979=CARTESIAN_POINT('',(0.01105,0.,0.03));
#980=CARTESIAN_POINT('',(0.01105,0.015,0.03));
#981=CARTESIAN_POINT('',(0.01105,0.0229,0.03));
#982=CARTESIAN_POINT('',(0.00905,0.0229,0.03));
#983=CARTESIAN_POINT('',(0.00705,0.0229,0.03));
#984=CARTESIAN_POINT('',(0.00705,0.0229,0.03));
#985=CARTESIAN_POINT('',(0.00705,0.015,0.03));
#986=CARTESIAN_POINT('',(-0.009075,0.015,0.03));
#987=CARTESIAN_POINT('',(-0.00715,0.015,0.03));
#988=CARTESIAN_POINT('',(-0.00715,0.0229,0.03));
#989=CARTESIAN_POINT('',(-0.00715,0.0229,0.03));
#990=CARTESIAN_POINT('',(-0.009075,0.0229,0.03));
#991=CARTESIAN_POINT('',(-0.011,0.0229,0.03));
#992=CARTESIAN_POINT('',(-0.011,0.0282,0.03));
#993=CARTESIAN_POINT('',(-0.011,0.0282,0.03));
#994=CARTESIAN_POINT('',(-0.02105,0.0282,0.03));
#995=CARTESIAN_POINT('',(-0.0311,0.0282,0.03));
#996=CARTESIAN_POINT('',(-0.0311,0.0282,0.03));
#997=CARTESIAN_POINT('',(-0.0311,0.0282,0.0251));
#998=CARTESIAN_POINT('',(-0.0311,0.0282,0.0202));
#999=CARTESIAN_POINT('',(-0.0311,0.0282,0.0202));
#1000=CARTESIAN_POINT('',(-0.0311,0.008,0.0202));
#1001=CARTESIAN_POINT('',(-0.0311,0.008,-0.037002));
#1002=CARTESIAN_POINT('',(-0.0311,0.0282,0.0251));
#1003=CARTESIAN_POINT('',(-0.02105,0.0282,0.0202));
#1004=CARTESIAN_POINT('',(-0.02105,0.008,0.0202));
#1005=CARTESIAN_POINT('',(-0.011,0.008,0.0202));
#1006=CARTESIAN_POINT('',(-0.02105,0.0282,0.0202));
#1007=CARTESIAN_POINT('',(-0.011,0.0282,0.0202));
#1008=CARTESIAN_POINT('',(-0.011,0.0282,0.0202));
#1009=CARTESIAN_POINT('',(-0.011,0.0229,0.0202));
#1010=CARTESIAN_POINT('',(-0.011,0.0282,0.0202));
#1011=CARTESIAN_POINT('',(0.,0.015,0.));
#1012=CARTESIAN_POINT('',(0.00705,0.015,0.));
#1013=CARTESIAN_POINT('',(0.00705,0.015,-0.03));
#1014=CARTESIAN_POINT('',(-0.009075,0.015,-0.03));
#1015=CARTESIAN_POINT('',(-0.00715,0.015,-0.03));
#1016=CARTESIAN_POINT('',(-0.00715,0.015,0.));
#1017=CARTESIAN_POINT('',(-6.93889390390723E-18,0.,0.));
#1018=CARTESIAN_POINT('',(0.038,0.,0.027));
#1019=CARTESIAN_POINT('',(0.038,0.,0.0242));
#1020=CARTESIAN_POINT('',(0.038,0.,-0.027));
#1021=CARTESIAN_POINT('',(0.038,0.,-0.0298));
#1022=CARTESIAN_POINT('',(-0.038,0.,-0.027));
#1023=CARTESIAN_POINT('',(-0.038,0.,-0.0298));
#1024=CARTESIAN_POINT('',(-0.038,0.,0.027));
#1025=CARTESIAN_POINT('',(-0.038,0.,0.0242));
#1026=CARTESIAN_POINT('',(-0.038,0.,-0.037));
#1027=CARTESIAN_POINT('',(-0.048,0.,-0.037));
#1028=CARTESIAN_POINT('',(0.048,0.,-0.037));
#1029=CARTESIAN_POINT('',(-0.052,0.,-0.0295));
#1030=CARTESIAN_POINT('',(-0.056,0.,-0.022));
#1031=CARTESIAN_POINT('',(-0.056,0.,0.));
#1032=CARTESIAN_POINT('',(-0.056,0.,0.022));
#1033=CARTESIAN_POINT('',(-0.052,0.,0.0295));
#1034=CARTESIAN_POINT('',(-0.048,0.,0.037));
#1035=CARTESIAN_POINT('',(0.038,0.,0.037));
#1036=CARTESIAN_POINT('',(0.048,0.,0.037));
#1037=CARTESIAN_POINT('',(0.052,0.,0.0295));
#1038=CARTESIAN_POINT('',(0.056,0.,0.022));
#1039=CARTESIAN_POINT('',(0.056,0.,0.));
#1040=CARTESIAN_POINT('',(0.056,0.,-0.022));
#1041=CARTESIAN_POINT('',(0.052,0.,-0.0295));
#1042=CARTESIAN_POINT('',(-0.02105,0.,-0.03));
#1043=CARTESIAN_POINT('',(0.01105,0.,-0.03));
#1044=CARTESIAN_POINT('',(-0.0311,0.,-0.03));
#1045=CARTESIAN_POINT('',(0.01105,0.,3.46944695195361E-18));
#1046=CARTESIAN_POINT('',(-0.011,0.,6.93889390390723E-18));
#1047=CARTESIAN_POINT('',(-0.011,0.,-0.0202));
#1048=CARTESIAN_POINT('',(-0.02105,0.,-0.0202));
#1049=CARTESIAN_POINT('',(-0.0311,0.,-0.0202));
#1050=CARTESIAN_POINT('',(-0.0311,0.,-0.0251));
#1051=CARTESIAN_POINT('',(-0.038,-0.005,-0.037));
#1052=CARTESIAN_POINT('',(0.048,-0.005,-0.037));
#1053=CARTESIAN_POINT('',(0.048,-0.005,-0.037));
#1054=CARTESIAN_POINT('',(-0.038,-0.005,-0.037));
#1055=CARTESIAN_POINT('',(-0.048,-0.005,-0.037));
#1056=CARTESIAN_POINT('',(-0.048,-0.005,-0.037));
#1057=CARTESIAN_POINT('',(0.052,-0.005,-0.0295));
#1058=CARTESIAN_POINT('',(0.056,-0.005,-0.022));
#1059=CARTESIAN_POINT('',(0.056,-0.005,-0.022));
#1060=CARTESIAN_POINT('',(0.052,-0.005,-0.0295));
#1061=CARTESIAN_POINT('',(0.056,-0.005,0.));
#1062=CARTESIAN_POINT('',(0.056,-0.005,0.022));
#1063=CARTESIAN_POINT('',(0.056,-0.005,0.022));
#1064=CARTESIAN_POINT('',(0.056,-0.005,0.));
#1065=CARTESIAN_POINT('',(0.052,-0.005,0.0295));
#1066=CARTESIAN_POINT('',(0.048,-0.005,0.037));
#1067=CARTESIAN_POINT('',(0.048,-0.005,0.037));
#1068=CARTESIAN_POINT('',(0.052,-0.005,0.0295));
#1069=CARTESIAN_POINT('',(0.038,-0.005,0.037));
#1070=CARTESIAN_POINT('',(-0.048,-0.005,0.037));
#1071=CARTESIAN_POINT('',(-0.048,-0.005,0.037));
#1072=CARTESIAN_POINT('',(0.038,-0.005,0.037));
#1073=CARTESIAN_POINT('',(-0.052,-0.005,0.0295));
#1074=CARTESIAN_POINT('',(-0.056,-0.005,0.022));
#1075=CARTESIAN_POINT('',(-0.056,-0.005,0.022));
#1076=CARTESIAN_POINT('',(-0.052,-0.005,0.0295));
#1077=CARTESIAN_POINT('',(-0.056,-0.005,0.));
#1078=CARTESIAN_POINT('',(-0.056,-0.005,-0.022));
#1079=CARTESIAN_POINT('',(-0.056,-0.005,-0.022));
#1080=CARTESIAN_POINT('',(-0.056,-0.005,0.));
#1081=CARTESIAN_POINT('',(0.038,-0.005,-0.027));
#1082=CARTESIAN_POINT('',(0.038,-0.005,-0.027));
#1083=CARTESIAN_POINT('',(0.038,-0.005,-0.0298));
#1084=CARTESIAN_POINT('',(-0.038,-0.005,-0.027));
#1085=CARTESIAN_POINT('',(-0.038,-0.005,-0.027));
#1086=CARTESIAN_POINT('',(-0.038,-0.005,-0.0298));
#1087=CARTESIAN_POINT('',(-0.038,-0.005,0.027));
#1088=CARTESIAN_POINT('',(-0.038,-0.005,0.027));
#1089=CARTESIAN_POINT('',(-0.038,-0.005,0.0242));
#1090=CARTESIAN_POINT('',(-0.052,-0.005,-0.0295));
#1091=CARTESIAN_POINT('',(-0.052,-0.005,-0.0295));
#1092=CARTESIAN_POINT('',(0.038,-0.005,0.027));
#1093=CARTESIAN_POINT('',(0.038,-0.005,0.027));
#1094=CARTESIAN_POINT('',(0.038,-0.005,0.0242));
#1095=CARTESIAN_POINT('',(-6.93889390390723E-18,-0.005,0.));
#1096=CARTESIAN_POINT('',(-0.011,0.0282,-0.0251));
#1097=CARTESIAN_POINT('',(-0.011,0.0282,-0.0202));
#1098=CARTESIAN_POINT('',(-0.011,0.0282,-0.0202));
#1099=CARTESIAN_POINT('',(-0.011,0.0229,-0.0202));
#1100=CARTESIAN_POINT('',(-0.011,0.0229,6.93889390390723E-18));
#1101=CARTESIAN_POINT('',(-0.011,0.0229,-0.03));
#1102=CARTESIAN_POINT('',(-0.011,0.0282,-0.03));
#1103=CARTESIAN_POINT('',(-0.011,0.0282,-0.03));
#1104=CARTESIAN_POINT('',(-0.011,0.0282,-0.0251));
#1105=CARTESIAN_POINT('',(-0.02105,0.0282,-0.0202));
#1106=CARTESIAN_POINT('',(-0.011,0.0282,-0.0202));
#1107=CARTESIAN_POINT('',(-0.02105,0.0282,-0.0202));
#1108=CARTESIAN_POINT('',(-0.0311,0.0282,-0.0202));
#1109=CARTESIAN_POINT('',(-0.0311,0.0282,-0.0202));
#1110=CARTESIAN_POINT('',(-0.0311,0.0282,-0.0251));
#1111=CARTESIAN_POINT('',(-0.0311,0.0282,-0.0251));
#1112=CARTESIAN_POINT('',(-0.0311,0.0282,-0.03));
#1113=CARTESIAN_POINT('',(-0.0311,0.0282,-0.03));
#1114=CARTESIAN_POINT('',(-0.01605,0.0282,-0.02475));
#1115=CARTESIAN_POINT('',(-0.01605,0.0282,-0.02475));
#1116=CARTESIAN_POINT('',(-0.01605,0.0282,-0.0269));
#1117=CARTESIAN_POINT('',(-0.01605,0.,-0.02475));
#1118=CARTESIAN_POINT('',(-0.01605,0.,-0.0269));
#1119=CARTESIAN_POINT('',(-0.02105,0.0282,-0.03));
#1120=CARTESIAN_POINT('',(-0.02105,0.0282,-0.03));
#1121=CARTESIAN_POINT('',(-0.009075,0.0229,-0.03));
#1122=CARTESIAN_POINT('',(-0.00715,0.0229,-0.03));
#1123=CARTESIAN_POINT('',(-0.00715,0.0229,-0.03));
#1124=CARTESIAN_POINT('',(0.00705,0.0229,-0.03));
#1125=CARTESIAN_POINT('',(0.00705,0.0229,-0.03));
#1126=CARTESIAN_POINT('',(0.00905,0.0229,-0.03));
#1127=CARTESIAN_POINT('',(0.01105,0.0229,-0.03));
#1128=CARTESIAN_POINT('',(0.01105,0.015,-0.03));
#1129=CARTESIAN_POINT('',(-0.02605,0.0282,-0.02475));
#1130=CARTESIAN_POINT('',(-0.02605,0.0282,-0.02475));
#1131=CARTESIAN_POINT('',(-0.02605,0.0282,-0.0269));
#1132=CARTESIAN_POINT('',(-0.02605,0.,-0.02475));
#1133=CARTESIAN_POINT('',(-0.02605,0.,-0.0269));
#1134=CARTESIAN_POINT('',(0.,0.0282,0.));
#1135=CARTESIAN_POINT('',(-6.93889390390723E-18,0.,0.));
#1136=CARTESIAN_POINT('',(-0.011,0.0282,0.0251));
#1137=CARTESIAN_POINT('',(-0.011,0.0229,6.93889390390723E-18));
#1138=CARTESIAN_POINT('',(-0.011,0.0282,0.0251));
#1139=CARTESIAN_POINT('',(0.,0.0282,0.));
#1140=CARTESIAN_POINT('',(-0.01605,0.0282,0.02475));
#1141=CARTESIAN_POINT('',(-0.01605,0.0282,0.0226));
#1142=CARTESIAN_POINT('',(-0.02605,0.0282,0.02475));
#1143=CARTESIAN_POINT('',(-0.02605,0.0282,0.0226));
#1144=CARTESIAN_POINT('',(-6.93889390390723E-18,0.,0.));
#1145=CARTESIAN_POINT('',(-0.011,0.015,6.93889390390723E-18));
#1146=CARTESIAN_POINT('',(-0.011,0.0229,6.93889390390723E-18));
#1147=CARTESIAN_POINT('',(-0.011,0.008,-0.037002));
#1148=CARTESIAN_POINT('',(0.01105,0.015,3.46944695195361E-18));
#1149=CARTESIAN_POINT('',(0.01105,0.0229,3.46944695195361E-18));
#1150=CARTESIAN_POINT('',(-0.00715,0.0229,0.));
#1151=CARTESIAN_POINT('',(-0.00715,0.0229,0.));
#1152=CARTESIAN_POINT('',(0.,0.0229,0.));
#1153=CARTESIAN_POINT('',(0.00705,0.0229,0.));
#1154=CARTESIAN_POINT('',(0.00705,0.0229,0.));
#1155=CARTESIAN_POINT('',(0.,0.0229,0.));
#1156=CARTESIAN_POINT('',(-0.02605,0.014998,0.02475));
#1157=CARTESIAN_POINT('',(-0.02605,0.015,0.02475));
#1158=CARTESIAN_POINT('',(-0.02605,0.015,0.0226));
#1159=CARTESIAN_POINT('',(0.,0.015,0.));
#1160=CARTESIAN_POINT('',(-0.01605,0.014998,0.02475));
#1161=CARTESIAN_POINT('',(-0.01605,0.015,0.02475));
#1162=CARTESIAN_POINT('',(-0.01605,0.015,0.0226));
#1163=CARTESIAN_POINT('',(0.,0.015,0.));
#1164=CARTESIAN_POINT('',(-0.02105,0.008,-0.037002));
#1165=MECHANICAL_DESIGN_GEOMETRIC_PRESENTATION_REPRESENTATION('',(#716),
#1166);
#1166=(
GEOMETRIC_REPRESENTATION_CONTEXT(3)
GLOBAL_UNCERTAINTY_ASSIGNED_CONTEXT((#1167))
GLOBAL_UNIT_ASSIGNED_CONTEXT((#1170,#1169,#1168))
REPRESENTATION_CONTEXT('Toolhead Front Cart','TOP_LEVEL_ASSEMBLY_PART')
);
#1167=UNCERTAINTY_MEASURE_WITH_UNIT(LENGTH_MEASURE(1.E-8),#1170,
'DISTANCE_ACCURACY_VALUE','Maximum Tolerance applied to model');
#1168=(
NAMED_UNIT(*)
SI_UNIT($,.STERADIAN.)
SOLID_ANGLE_UNIT()
);
#1169=(
NAMED_UNIT(*)
PLANE_ANGLE_UNIT()
SI_UNIT($,.RADIAN.)
);
#1170=(
LENGTH_UNIT()
NAMED_UNIT(*)
SI_UNIT($,.METRE.)
);
#1171=PRODUCT_DEFINITION_SHAPE('','',#1172);
#1172=PRODUCT_DEFINITION('','',#1174,#1173);
#1173=PRODUCT_DEFINITION_CONTEXT('',#1180,'design');
#1174=PRODUCT_DEFINITION_FORMATION_WITH_SPECIFIED_SOURCE('','',#1176,
 .NOT_KNOWN.);
#1175=PRODUCT_RELATED_PRODUCT_CATEGORY('','',(#1176));
#1176=PRODUCT('Toolhead Front Cart','Toolhead Front Cart',
'Toolhead Front Cart',(#1178));
#1177=PRODUCT_CATEGORY('','');
#1178=PRODUCT_CONTEXT('',#1180,'mechanical');
#1179=APPLICATION_PROTOCOL_DEFINITION('international standard',
'automotive_design',2010,#1180);
#1180=APPLICATION_CONTEXT(
'core data for automotive mechanical design processes');
ENDSEC;
END-ISO-10303-21;
